<meta message time_signature numerator=4 denominator=4 clocks_per_click=96 notated_32nd_notes_per_beat=8 time=0>
<meta message sequencer_specific data=(0, 0, 65) time=0>
<meta message set_tempo tempo=632911 time=0>
<meta message end_of_track time=0>
<meta message track_name name='main guitar' time=0>
control_change channel=0 control=0 value=0 time=0
program_change channel=0 program=30 time=0
control_change channel=0 control=10 value=89 time=0
control_change channel=0 control=91 value=21 time=0
control_change channel=0 control=93 value=63 time=0
<meta message key_signature key='E' time=0>
note_on channel=0 note=52 velocity=127 time=1536
note_on channel=0 note=47 velocity=127 time=0
note_on channel=0 note=64 velocity=32 time=0
note_on channel=0 note=56 velocity=127 time=0
note_on channel=0 note=40 velocity=80 time=0
note_on channel=0 note=64 velocity=127 time=0
note_on channel=0 note=59 velocity=127 time=0
note_on channel=0 note=76 velocity=32 time=0
note_on channel=0 note=71 velocity=127 time=0
note_on channel=0 note=68 velocity=127 time=0
note_on channel=0 note=52 velocity=80 time=0
note_on channel=0 note=59 velocity=127 time=0
note_off channel=0 note=52 velocity=0 time=384
note_off channel=0 note=47 velocity=0 time=0
note_off channel=0 note=64 velocity=0 time=0
note_off channel=0 note=56 velocity=0 time=0
note_off channel=0 note=40 velocity=0 time=0
note_off channel=0 note=64 velocity=0 time=0
note_off channel=0 note=59 velocity=0 time=0
note_off channel=0 note=76 velocity=0 time=0
note_off channel=0 note=71 velocity=0 time=0
note_off channel=0 note=68 velocity=0 time=0
note_off channel=0 note=52 velocity=0 time=0
note_off channel=0 note=59 velocity=0 time=0
note_on channel=0 note=50 velocity=127 time=192
note_on channel=0 note=62 velocity=127 time=0
note_on channel=0 note=57 velocity=127 time=0
note_on channel=0 note=66 velocity=127 time=0
note_on channel=0 note=62 velocity=127 time=0
note_on channel=0 note=74 velocity=127 time=0
note_on channel=0 note=69 velocity=127 time=0
note_on channel=0 note=78 velocity=127 time=0
note_off channel=0 note=50 velocity=0 time=96
note_off channel=0 note=62 velocity=0 time=0
note_off channel=0 note=57 velocity=0 time=0
note_off channel=0 note=66 velocity=0 time=0
note_off channel=0 note=62 velocity=0 time=0
note_off channel=0 note=74 velocity=0 time=0
note_off channel=0 note=69 velocity=0 time=0
note_off channel=0 note=78 velocity=0 time=0
note_on channel=0 note=66 velocity=78 time=0
note_on channel=0 note=62 velocity=127 time=0
note_on channel=0 note=57 velocity=100 time=0
note_on channel=0 note=50 velocity=100 time=0
note_on channel=0 note=78 velocity=78 time=0
note_on channel=0 note=74 velocity=127 time=0
note_on channel=0 note=69 velocity=100 time=0
note_on channel=0 note=62 velocity=100 time=0
note_off channel=0 note=66 velocity=0 time=96
note_off channel=0 note=62 velocity=0 time=0
note_off channel=0 note=57 velocity=100 time=0
note_off channel=0 note=50 velocity=100 time=0
note_off channel=0 note=78 velocity=0 time=0
note_off channel=0 note=74 velocity=0 time=0
note_off channel=0 note=69 velocity=100 time=0
note_off channel=0 note=62 velocity=100 time=0
note_on channel=0 note=62 velocity=127 time=0
note_on channel=0 note=66 velocity=127 time=0
note_on channel=0 note=57 velocity=100 time=0
note_on channel=0 note=50 velocity=100 time=0
note_on channel=0 note=74 velocity=127 time=0
note_on channel=0 note=78 velocity=127 time=0
note_on channel=0 note=69 velocity=100 time=0
note_on channel=0 note=62 velocity=100 time=0
note_off channel=0 note=62 velocity=0 time=384
note_off channel=0 note=66 velocity=0 time=0
note_off channel=0 note=57 velocity=100 time=0
note_off channel=0 note=50 velocity=100 time=0
note_off channel=0 note=74 velocity=0 time=0
note_off channel=0 note=78 velocity=0 time=0
note_off channel=0 note=69 velocity=100 time=0
note_off channel=0 note=62 velocity=100 time=0
note_on channel=0 note=45 velocity=127 time=192
note_on channel=0 note=61 velocity=127 time=0
note_on channel=0 note=52 velocity=127 time=0
note_on channel=0 note=57 velocity=127 time=0
note_on channel=0 note=57 velocity=127 time=0
note_on channel=0 note=73 velocity=127 time=0
note_on channel=0 note=64 velocity=127 time=0
note_on channel=0 note=69 velocity=127 time=0
note_off channel=0 note=45 velocity=0 time=96
note_off channel=0 note=61 velocity=0 time=0
note_off channel=0 note=52 velocity=0 time=0
note_off channel=0 note=57 velocity=0 time=0
note_off channel=0 note=57 velocity=0 time=0
note_off channel=0 note=73 velocity=0 time=0
note_off channel=0 note=64 velocity=0 time=0
note_off channel=0 note=69 velocity=0 time=0
note_on channel=0 note=45 velocity=127 time=0
note_on channel=0 note=52 velocity=100 time=0
note_on channel=0 note=57 velocity=100 time=0
note_on channel=0 note=61 velocity=100 time=0
note_on channel=0 note=57 velocity=127 time=0
note_on channel=0 note=64 velocity=100 time=0
note_on channel=0 note=69 velocity=100 time=0
note_on channel=0 note=73 velocity=100 time=0
note_off channel=0 note=45 velocity=0 time=96
note_off channel=0 note=52 velocity=100 time=0
note_off channel=0 note=57 velocity=100 time=0
note_off channel=0 note=61 velocity=100 time=0
note_off channel=0 note=57 velocity=0 time=0
note_off channel=0 note=64 velocity=100 time=0
note_off channel=0 note=69 velocity=100 time=0
note_off channel=0 note=73 velocity=100 time=0
note_on channel=0 note=45 velocity=127 time=0
note_on channel=0 note=61 velocity=127 time=0
note_on channel=0 note=64 velocity=127 time=0
note_on channel=0 note=57 velocity=100 time=0
note_on channel=0 note=52 velocity=100 time=0
note_on channel=0 note=57 velocity=127 time=0
note_on channel=0 note=73 velocity=127 time=0
note_on channel=0 note=76 velocity=127 time=0
note_on channel=0 note=69 velocity=100 time=0
note_on channel=0 note=64 velocity=100 time=0
note_off channel=0 note=45 velocity=0 time=384
note_off channel=0 note=61 velocity=0 time=0
note_off channel=0 note=64 velocity=0 time=0
note_off channel=0 note=57 velocity=100 time=0
note_off channel=0 note=52 velocity=100 time=0
note_off channel=0 note=57 velocity=0 time=0
note_off channel=0 note=73 velocity=0 time=0
note_off channel=0 note=76 velocity=0 time=0
note_off channel=0 note=69 velocity=100 time=0
note_off channel=0 note=64 velocity=100 time=0
note_on channel=0 note=79 velocity=127 time=480
note_on channel=0 note=67 velocity=127 time=0
note_off channel=0 note=79 velocity=0 time=64
note_off channel=0 note=67 velocity=0 time=0
note_on channel=0 note=76 velocity=127 time=32
note_on channel=0 note=64 velocity=127 time=0
note_on channel=0 note=74 velocity=127 time=96
note_on channel=0 note=62 velocity=127 time=0
note_off channel=0 note=76 velocity=0 time=32
note_off channel=0 note=64 velocity=0 time=0
note_off channel=0 note=74 velocity=0 time=32
note_off channel=0 note=62 velocity=0 time=0
note_on channel=0 note=71 velocity=127 time=32
note_on channel=0 note=59 velocity=127 time=0
note_on channel=0 note=71 velocity=127 time=96
note_on channel=0 note=59 velocity=127 time=0
note_off channel=0 note=71 velocity=0 time=32
note_off channel=0 note=59 velocity=0 time=0
note_on channel=0 note=69 velocity=127 time=64
note_on channel=0 note=57 velocity=127 time=0
note_off channel=0 note=71 velocity=0 time=12
note_off channel=0 note=59 velocity=0 time=8
note_off channel=0 note=69 velocity=0 time=44
note_off channel=0 note=57 velocity=0 time=0
note_on channel=0 note=67 velocity=127 time=32
note_on channel=0 note=55 velocity=127 time=0
note_off channel=0 note=67 velocity=0 time=64
note_off channel=0 note=55 velocity=0 time=0
note_on channel=0 note=52 velocity=127 time=32
note_on channel=0 note=47 velocity=127 time=0
note_on channel=0 note=64 velocity=32 time=0
note_on channel=0 note=59 velocity=127 time=0
note_on channel=0 note=56 velocity=127 time=0
note_on channel=0 note=40 velocity=80 time=0
note_off channel=0 note=52 velocity=0 time=384
note_off channel=0 note=47 velocity=0 time=0
note_off channel=0 note=64 velocity=0 time=0
note_off channel=0 note=59 velocity=0 time=0
note_off channel=0 note=56 velocity=0 time=0
note_off channel=0 note=40 velocity=0 time=0
note_on channel=0 note=50 velocity=127 time=192
note_on channel=0 note=62 velocity=127 time=0
note_on channel=0 note=57 velocity=127 time=0
note_on channel=0 note=66 velocity=127 time=0
note_off channel=0 note=50 velocity=0 time=96
note_off channel=0 note=62 velocity=0 time=0
note_off channel=0 note=57 velocity=0 time=0
note_off channel=0 note=66 velocity=0 time=0
note_on channel=0 note=66 velocity=78 time=0
note_on channel=0 note=62 velocity=127 time=0
note_on channel=0 note=57 velocity=100 time=0
note_on channel=0 note=50 velocity=100 time=0
note_off channel=0 note=66 velocity=0 time=96
note_off channel=0 note=62 velocity=0 time=0
note_off channel=0 note=57 velocity=100 time=0
note_off channel=0 note=50 velocity=100 time=0
note_on channel=0 note=62 velocity=127 time=0
note_on channel=0 note=66 velocity=127 time=0
note_on channel=0 note=57 velocity=100 time=0
note_on channel=0 note=50 velocity=100 time=0
note_off channel=0 note=62 velocity=0 time=384
note_off channel=0 note=66 velocity=0 time=0
note_off channel=0 note=57 velocity=100 time=0
note_off channel=0 note=50 velocity=100 time=0
note_on channel=0 note=45 velocity=127 time=192
note_on channel=0 note=61 velocity=127 time=0
note_on channel=0 note=52 velocity=127 time=0
note_on channel=0 note=57 velocity=127 time=0
note_off channel=0 note=45 velocity=0 time=96
note_off channel=0 note=61 velocity=0 time=0
note_off channel=0 note=52 velocity=0 time=0
note_off channel=0 note=57 velocity=0 time=0
note_on channel=0 note=45 velocity=127 time=0
note_on channel=0 note=52 velocity=100 time=0
note_on channel=0 note=57 velocity=100 time=0
note_on channel=0 note=61 velocity=100 time=0
note_off channel=0 note=45 velocity=0 time=96
note_off channel=0 note=52 velocity=100 time=0
note_off channel=0 note=57 velocity=100 time=0
note_off channel=0 note=61 velocity=100 time=0
note_on channel=0 note=45 velocity=127 time=0
note_on channel=0 note=61 velocity=127 time=0
note_on channel=0 note=64 velocity=127 time=0
note_on channel=0 note=57 velocity=100 time=0
note_on channel=0 note=52 velocity=100 time=0
note_off channel=0 note=45 velocity=0 time=384
note_off channel=0 note=61 velocity=0 time=0
note_off channel=0 note=64 velocity=0 time=0
note_off channel=0 note=57 velocity=100 time=0
note_off channel=0 note=52 velocity=100 time=0
note_on channel=0 note=59 velocity=117 time=0
note_on channel=0 note=47 velocity=117 time=0
note_on channel=0 note=71 velocity=117 time=0
note_off channel=0 note=59 velocity=0 time=64
note_off channel=0 note=47 velocity=0 time=0
note_off channel=0 note=71 velocity=0 time=0
note_on channel=0 note=56 velocity=127 time=32
note_on channel=0 note=44 velocity=127 time=0
note_on channel=0 note=68 velocity=127 time=0
note_off channel=0 note=56 velocity=0 time=128
note_off channel=0 note=44 velocity=0 time=0
note_off channel=0 note=68 velocity=0 time=0
note_on channel=0 note=59 velocity=109 time=64
note_on channel=0 note=47 velocity=109 time=0
note_on channel=0 note=71 velocity=109 time=0
note_off channel=0 note=59 velocity=0 time=64
note_off channel=0 note=47 velocity=0 time=0
note_off channel=0 note=71 velocity=0 time=0
note_on channel=0 note=57 velocity=97 time=32
note_on channel=0 note=45 velocity=97 time=0
note_on channel=0 note=69 velocity=97 time=0
note_off channel=0 note=57 velocity=0 time=128
note_off channel=0 note=45 velocity=0 time=0
note_off channel=0 note=69 velocity=0 time=0
note_on channel=0 note=59 velocity=111 time=64
note_on channel=0 note=47 velocity=111 time=0
note_on channel=0 note=71 velocity=111 time=0
note_off channel=0 note=59 velocity=0 time=64
note_off channel=0 note=47 velocity=0 time=0
note_off channel=0 note=71 velocity=0 time=0
note_on channel=0 note=58 velocity=108 time=32
note_on channel=0 note=46 velocity=108 time=0
note_on channel=0 note=70 velocity=108 time=0
note_off channel=0 note=58 velocity=0 time=128
note_off channel=0 note=46 velocity=0 time=0
note_off channel=0 note=70 velocity=0 time=0
note_on channel=0 note=59 velocity=103 time=64
note_on channel=0 note=47 velocity=103 time=0
note_on channel=0 note=71 velocity=103 time=0
note_off channel=0 note=59 velocity=0 time=64
note_off channel=0 note=47 velocity=0 time=0
note_off channel=0 note=71 velocity=0 time=0
note_on channel=0 note=58 velocity=119 time=32
note_on channel=0 note=46 velocity=119 time=0
note_on channel=0 note=70 velocity=119 time=0
note_off channel=0 note=58 velocity=0 time=64
note_off channel=0 note=46 velocity=0 time=0
note_off channel=0 note=70 velocity=0 time=0
note_on channel=0 note=59 velocity=100 time=32
note_on channel=0 note=47 velocity=100 time=0
note_on channel=0 note=71 velocity=100 time=0
note_off channel=0 note=59 velocity=100 time=64
note_off channel=0 note=47 velocity=100 time=0
note_off channel=0 note=71 velocity=100 time=0
note_on channel=0 note=52 velocity=127 time=32
note_on channel=0 note=47 velocity=127 time=0
note_on channel=0 note=64 velocity=32 time=0
note_on channel=0 note=56 velocity=127 time=0
note_on channel=0 note=40 velocity=80 time=0
note_on channel=0 note=64 velocity=127 time=0
note_on channel=0 note=59 velocity=127 time=0
note_on channel=0 note=76 velocity=32 time=0
note_on channel=0 note=71 velocity=127 time=0
note_on channel=0 note=68 velocity=127 time=0
note_on channel=0 note=52 velocity=80 time=0
note_on channel=0 note=59 velocity=127 time=0
note_off channel=0 note=52 velocity=0 time=384
note_off channel=0 note=47 velocity=0 time=0
note_off channel=0 note=64 velocity=0 time=0
note_off channel=0 note=56 velocity=0 time=0
note_off channel=0 note=40 velocity=0 time=0
note_off channel=0 note=64 velocity=0 time=0
note_off channel=0 note=59 velocity=0 time=0
note_off channel=0 note=76 velocity=0 time=0
note_off channel=0 note=71 velocity=0 time=0
note_off channel=0 note=68 velocity=0 time=0
note_off channel=0 note=52 velocity=0 time=0
note_off channel=0 note=59 velocity=0 time=0
note_on channel=0 note=50 velocity=127 time=192
note_on channel=0 note=62 velocity=127 time=0
note_on channel=0 note=57 velocity=127 time=0
note_on channel=0 note=66 velocity=127 time=0
note_on channel=0 note=62 velocity=127 time=0
note_on channel=0 note=74 velocity=127 time=0
note_on channel=0 note=69 velocity=127 time=0
note_on channel=0 note=78 velocity=127 time=0
note_off channel=0 note=50 velocity=0 time=96
note_off channel=0 note=62 velocity=0 time=0
note_off channel=0 note=57 velocity=0 time=0
note_off channel=0 note=66 velocity=0 time=0
note_off channel=0 note=62 velocity=0 time=0
note_off channel=0 note=74 velocity=0 time=0
note_off channel=0 note=69 velocity=0 time=0
note_off channel=0 note=78 velocity=0 time=0
note_on channel=0 note=66 velocity=78 time=0
note_on channel=0 note=62 velocity=127 time=0
note_on channel=0 note=57 velocity=100 time=0
note_on channel=0 note=50 velocity=100 time=0
note_on channel=0 note=78 velocity=78 time=0
note_on channel=0 note=74 velocity=127 time=0
note_on channel=0 note=69 velocity=100 time=0
note_on channel=0 note=62 velocity=100 time=0
note_off channel=0 note=66 velocity=0 time=96
note_off channel=0 note=62 velocity=0 time=0
note_off channel=0 note=57 velocity=100 time=0
note_off channel=0 note=50 velocity=100 time=0
note_off channel=0 note=78 velocity=0 time=0
note_off channel=0 note=74 velocity=0 time=0
note_off channel=0 note=69 velocity=100 time=0
note_off channel=0 note=62 velocity=100 time=0
note_on channel=0 note=62 velocity=127 time=0
note_on channel=0 note=66 velocity=127 time=0
note_on channel=0 note=57 velocity=100 time=0
note_on channel=0 note=50 velocity=100 time=0
note_on channel=0 note=74 velocity=127 time=0
note_on channel=0 note=78 velocity=127 time=0
note_on channel=0 note=69 velocity=100 time=0
note_on channel=0 note=62 velocity=100 time=0
note_off channel=0 note=62 velocity=0 time=384
note_off channel=0 note=66 velocity=0 time=0
note_off channel=0 note=57 velocity=100 time=0
note_off channel=0 note=50 velocity=100 time=0
note_off channel=0 note=74 velocity=0 time=0
note_off channel=0 note=78 velocity=0 time=0
note_off channel=0 note=69 velocity=100 time=0
note_off channel=0 note=62 velocity=100 time=0
note_on channel=0 note=45 velocity=127 time=192
note_on channel=0 note=61 velocity=127 time=0
note_on channel=0 note=52 velocity=127 time=0
note_on channel=0 note=57 velocity=127 time=0
note_on channel=0 note=57 velocity=127 time=0
note_on channel=0 note=73 velocity=127 time=0
note_on channel=0 note=64 velocity=127 time=0
note_on channel=0 note=69 velocity=127 time=0
note_off channel=0 note=45 velocity=0 time=96
note_off channel=0 note=61 velocity=0 time=0
note_off channel=0 note=52 velocity=0 time=0
note_off channel=0 note=57 velocity=0 time=0
note_off channel=0 note=57 velocity=0 time=0
note_off channel=0 note=73 velocity=0 time=0
note_off channel=0 note=64 velocity=0 time=0
note_off channel=0 note=69 velocity=0 time=0
note_on channel=0 note=45 velocity=127 time=0
note_on channel=0 note=52 velocity=100 time=0
note_on channel=0 note=57 velocity=100 time=0
note_on channel=0 note=61 velocity=100 time=0
note_on channel=0 note=57 velocity=127 time=0
note_on channel=0 note=64 velocity=100 time=0
note_on channel=0 note=69 velocity=100 time=0
note_on channel=0 note=73 velocity=100 time=0
note_off channel=0 note=45 velocity=0 time=96
note_off channel=0 note=52 velocity=100 time=0
note_off channel=0 note=57 velocity=100 time=0
note_off channel=0 note=61 velocity=100 time=0
note_off channel=0 note=57 velocity=0 time=0
note_off channel=0 note=64 velocity=100 time=0
note_off channel=0 note=69 velocity=100 time=0
note_off channel=0 note=73 velocity=100 time=0
note_on channel=0 note=45 velocity=127 time=0
note_on channel=0 note=61 velocity=127 time=0
note_on channel=0 note=64 velocity=127 time=0
note_on channel=0 note=57 velocity=100 time=0
note_on channel=0 note=52 velocity=100 time=0
note_on channel=0 note=57 velocity=127 time=0
note_on channel=0 note=73 velocity=127 time=0
note_on channel=0 note=76 velocity=127 time=0
note_on channel=0 note=69 velocity=100 time=0
note_on channel=0 note=64 velocity=100 time=0
note_off channel=0 note=45 velocity=0 time=384
note_off channel=0 note=61 velocity=0 time=0
note_off channel=0 note=64 velocity=0 time=0
note_off channel=0 note=57 velocity=100 time=0
note_off channel=0 note=52 velocity=100 time=0
note_off channel=0 note=57 velocity=0 time=0
note_off channel=0 note=73 velocity=0 time=0
note_off channel=0 note=76 velocity=0 time=0
note_off channel=0 note=69 velocity=100 time=0
note_off channel=0 note=64 velocity=100 time=0
note_on channel=0 note=79 velocity=127 time=480
note_on channel=0 note=67 velocity=127 time=0
note_off channel=0 note=79 velocity=0 time=64
note_off channel=0 note=67 velocity=0 time=0
note_on channel=0 note=76 velocity=127 time=32
note_on channel=0 note=64 velocity=127 time=0
note_on channel=0 note=74 velocity=127 time=96
note_on channel=0 note=62 velocity=127 time=0
note_off channel=0 note=76 velocity=0 time=32
note_off channel=0 note=64 velocity=0 time=0
note_off channel=0 note=74 velocity=0 time=32
note_off channel=0 note=62 velocity=0 time=0
note_on channel=0 note=71 velocity=127 time=32
note_on channel=0 note=59 velocity=127 time=0
note_on channel=0 note=71 velocity=127 time=96
note_on channel=0 note=59 velocity=127 time=0
note_off channel=0 note=71 velocity=0 time=32
note_off channel=0 note=59 velocity=0 time=0
note_on channel=0 note=69 velocity=127 time=64
note_on channel=0 note=57 velocity=127 time=0
note_off channel=0 note=71 velocity=0 time=12
note_off channel=0 note=59 velocity=0 time=8
note_off channel=0 note=69 velocity=0 time=44
note_off channel=0 note=57 velocity=0 time=0
note_on channel=0 note=67 velocity=127 time=32
note_on channel=0 note=55 velocity=127 time=0
note_off channel=0 note=67 velocity=0 time=64
note_off channel=0 note=55 velocity=0 time=0
note_on channel=0 note=52 velocity=127 time=32
note_on channel=0 note=47 velocity=127 time=0
note_on channel=0 note=64 velocity=32 time=0
note_on channel=0 note=59 velocity=127 time=0
note_on channel=0 note=56 velocity=127 time=0
note_on channel=0 note=40 velocity=80 time=0
note_off channel=0 note=52 velocity=0 time=384
note_off channel=0 note=47 velocity=0 time=0
note_off channel=0 note=64 velocity=0 time=0
note_off channel=0 note=59 velocity=0 time=0
note_off channel=0 note=56 velocity=0 time=0
note_off channel=0 note=40 velocity=0 time=0
note_on channel=0 note=50 velocity=127 time=192
note_on channel=0 note=62 velocity=127 time=0
note_on channel=0 note=57 velocity=127 time=0
note_on channel=0 note=66 velocity=127 time=0
note_off channel=0 note=50 velocity=0 time=96
note_off channel=0 note=62 velocity=0 time=0
note_off channel=0 note=57 velocity=0 time=0
note_off channel=0 note=66 velocity=0 time=0
note_on channel=0 note=66 velocity=78 time=0
note_on channel=0 note=62 velocity=127 time=0
note_on channel=0 note=57 velocity=100 time=0
note_on channel=0 note=50 velocity=100 time=0
note_off channel=0 note=66 velocity=0 time=96
note_off channel=0 note=62 velocity=0 time=0
note_off channel=0 note=57 velocity=100 time=0
note_off channel=0 note=50 velocity=100 time=0
note_on channel=0 note=62 velocity=127 time=0
note_on channel=0 note=66 velocity=127 time=0
note_on channel=0 note=57 velocity=100 time=0
note_on channel=0 note=50 velocity=100 time=0
note_off channel=0 note=62 velocity=0 time=384
note_off channel=0 note=66 velocity=0 time=0
note_off channel=0 note=57 velocity=100 time=0
note_off channel=0 note=50 velocity=100 time=0
note_on channel=0 note=45 velocity=127 time=192
note_on channel=0 note=61 velocity=127 time=0
note_on channel=0 note=52 velocity=127 time=0
note_on channel=0 note=57 velocity=127 time=0
note_off channel=0 note=45 velocity=0 time=96
note_off channel=0 note=61 velocity=0 time=0
note_off channel=0 note=52 velocity=0 time=0
note_off channel=0 note=57 velocity=0 time=0
note_on channel=0 note=45 velocity=127 time=0
note_on channel=0 note=52 velocity=100 time=0
note_on channel=0 note=57 velocity=100 time=0
note_on channel=0 note=61 velocity=100 time=0
note_off channel=0 note=45 velocity=0 time=96
note_off channel=0 note=52 velocity=100 time=0
note_off channel=0 note=57 velocity=100 time=0
note_off channel=0 note=61 velocity=100 time=0
note_on channel=0 note=45 velocity=127 time=0
note_on channel=0 note=61 velocity=127 time=0
note_on channel=0 note=64 velocity=127 time=0
note_on channel=0 note=57 velocity=100 time=0
note_on channel=0 note=52 velocity=100 time=0
note_off channel=0 note=45 velocity=0 time=384
note_off channel=0 note=61 velocity=0 time=0
note_off channel=0 note=64 velocity=0 time=0
note_off channel=0 note=57 velocity=100 time=0
note_off channel=0 note=52 velocity=100 time=0
note_on channel=0 note=59 velocity=117 time=0
note_on channel=0 note=47 velocity=117 time=0
note_on channel=0 note=71 velocity=117 time=0
note_off channel=0 note=59 velocity=0 time=64
note_off channel=0 note=47 velocity=0 time=0
note_off channel=0 note=71 velocity=0 time=0
note_on channel=0 note=56 velocity=127 time=32
note_on channel=0 note=44 velocity=127 time=0
note_on channel=0 note=68 velocity=127 time=0
note_off channel=0 note=56 velocity=0 time=128
note_off channel=0 note=44 velocity=0 time=0
note_off channel=0 note=68 velocity=0 time=0
note_on channel=0 note=59 velocity=109 time=64
note_on channel=0 note=47 velocity=109 time=0
note_on channel=0 note=71 velocity=109 time=0
note_off channel=0 note=59 velocity=0 time=64
note_off channel=0 note=47 velocity=0 time=0
note_off channel=0 note=71 velocity=0 time=0
note_on channel=0 note=57 velocity=97 time=32
note_on channel=0 note=45 velocity=97 time=0
note_on channel=0 note=69 velocity=97 time=0
note_off channel=0 note=57 velocity=0 time=128
note_off channel=0 note=45 velocity=0 time=0
note_off channel=0 note=69 velocity=0 time=0
note_on channel=0 note=59 velocity=111 time=64
note_on channel=0 note=47 velocity=111 time=0
note_on channel=0 note=71 velocity=111 time=0
note_off channel=0 note=59 velocity=0 time=64
note_off channel=0 note=47 velocity=0 time=0
note_off channel=0 note=71 velocity=0 time=0
note_on channel=0 note=58 velocity=108 time=32
note_on channel=0 note=46 velocity=108 time=0
note_on channel=0 note=70 velocity=108 time=0
note_off channel=0 note=58 velocity=0 time=128
note_off channel=0 note=46 velocity=0 time=0
note_off channel=0 note=70 velocity=0 time=0
note_on channel=0 note=59 velocity=103 time=64
note_on channel=0 note=47 velocity=103 time=0
note_on channel=0 note=71 velocity=103 time=0
note_off channel=0 note=59 velocity=0 time=64
note_off channel=0 note=47 velocity=0 time=0
note_off channel=0 note=71 velocity=0 time=0
note_on channel=0 note=58 velocity=119 time=32
note_on channel=0 note=46 velocity=119 time=0
note_on channel=0 note=70 velocity=119 time=0
note_off channel=0 note=58 velocity=0 time=64
note_off channel=0 note=46 velocity=0 time=0
note_off channel=0 note=70 velocity=0 time=0
note_on channel=0 note=59 velocity=100 time=32
note_on channel=0 note=47 velocity=100 time=0
note_on channel=0 note=71 velocity=100 time=0
note_off channel=0 note=59 velocity=100 time=64
note_off channel=0 note=47 velocity=100 time=0
note_off channel=0 note=71 velocity=100 time=0
note_on channel=0 note=52 velocity=127 time=32
note_on channel=0 note=47 velocity=127 time=0
note_on channel=0 note=64 velocity=32 time=0
note_on channel=0 note=56 velocity=127 time=0
note_on channel=0 note=40 velocity=80 time=0
note_on channel=0 note=64 velocity=127 time=0
note_on channel=0 note=59 velocity=127 time=0
note_on channel=0 note=76 velocity=32 time=0
note_on channel=0 note=71 velocity=127 time=0
note_on channel=0 note=68 velocity=127 time=0
note_on channel=0 note=52 velocity=80 time=0
note_on channel=0 note=59 velocity=127 time=0
note_off channel=0 note=52 velocity=0 time=384
note_off channel=0 note=47 velocity=0 time=0
note_off channel=0 note=64 velocity=0 time=0
note_off channel=0 note=56 velocity=0 time=0
note_off channel=0 note=40 velocity=0 time=0
note_off channel=0 note=64 velocity=0 time=0
note_off channel=0 note=59 velocity=0 time=0
note_off channel=0 note=76 velocity=0 time=0
note_off channel=0 note=71 velocity=0 time=0
note_off channel=0 note=68 velocity=0 time=0
note_off channel=0 note=52 velocity=0 time=0
note_off channel=0 note=59 velocity=0 time=0
note_on channel=0 note=50 velocity=127 time=192
note_on channel=0 note=62 velocity=127 time=0
note_on channel=0 note=57 velocity=127 time=0
note_on channel=0 note=66 velocity=127 time=0
note_on channel=0 note=62 velocity=127 time=0
note_on channel=0 note=74 velocity=127 time=0
note_on channel=0 note=69 velocity=127 time=0
note_on channel=0 note=78 velocity=127 time=0
note_off channel=0 note=50 velocity=0 time=96
note_off channel=0 note=62 velocity=0 time=0
note_off channel=0 note=57 velocity=0 time=0
note_off channel=0 note=66 velocity=0 time=0
note_off channel=0 note=62 velocity=0 time=0
note_off channel=0 note=74 velocity=0 time=0
note_off channel=0 note=69 velocity=0 time=0
note_off channel=0 note=78 velocity=0 time=0
note_on channel=0 note=66 velocity=78 time=0
note_on channel=0 note=62 velocity=127 time=0
note_on channel=0 note=57 velocity=100 time=0
note_on channel=0 note=50 velocity=100 time=0
note_on channel=0 note=78 velocity=78 time=0
note_on channel=0 note=74 velocity=127 time=0
note_on channel=0 note=69 velocity=100 time=0
note_on channel=0 note=62 velocity=100 time=0
note_off channel=0 note=66 velocity=0 time=96
note_off channel=0 note=62 velocity=0 time=0
note_off channel=0 note=57 velocity=100 time=0
note_off channel=0 note=50 velocity=100 time=0
note_off channel=0 note=78 velocity=0 time=0
note_off channel=0 note=74 velocity=0 time=0
note_off channel=0 note=69 velocity=100 time=0
note_off channel=0 note=62 velocity=100 time=0
note_on channel=0 note=62 velocity=127 time=0
note_on channel=0 note=66 velocity=127 time=0
note_on channel=0 note=57 velocity=100 time=0
note_on channel=0 note=50 velocity=100 time=0
note_on channel=0 note=74 velocity=127 time=0
note_on channel=0 note=78 velocity=127 time=0
note_on channel=0 note=69 velocity=100 time=0
note_on channel=0 note=62 velocity=100 time=0
note_off channel=0 note=62 velocity=0 time=384
note_off channel=0 note=66 velocity=0 time=0
note_off channel=0 note=57 velocity=100 time=0
note_off channel=0 note=50 velocity=100 time=0
note_off channel=0 note=74 velocity=0 time=0
note_off channel=0 note=78 velocity=0 time=0
note_off channel=0 note=69 velocity=100 time=0
note_off channel=0 note=62 velocity=100 time=0
note_on channel=0 note=45 velocity=127 time=192
note_on channel=0 note=61 velocity=127 time=0
note_on channel=0 note=52 velocity=127 time=0
note_on channel=0 note=57 velocity=127 time=0
note_on channel=0 note=57 velocity=127 time=0
note_on channel=0 note=73 velocity=127 time=0
note_on channel=0 note=64 velocity=127 time=0
note_on channel=0 note=69 velocity=127 time=0
note_off channel=0 note=45 velocity=0 time=96
note_off channel=0 note=61 velocity=0 time=0
note_off channel=0 note=52 velocity=0 time=0
note_off channel=0 note=57 velocity=0 time=0
note_off channel=0 note=57 velocity=0 time=0
note_off channel=0 note=73 velocity=0 time=0
note_off channel=0 note=64 velocity=0 time=0
note_off channel=0 note=69 velocity=0 time=0
note_on channel=0 note=45 velocity=127 time=0
note_on channel=0 note=52 velocity=100 time=0
note_on channel=0 note=57 velocity=100 time=0
note_on channel=0 note=61 velocity=100 time=0
note_on channel=0 note=57 velocity=127 time=0
note_on channel=0 note=64 velocity=100 time=0
note_on channel=0 note=69 velocity=100 time=0
note_on channel=0 note=73 velocity=100 time=0
note_off channel=0 note=45 velocity=0 time=96
note_off channel=0 note=52 velocity=100 time=0
note_off channel=0 note=57 velocity=100 time=0
note_off channel=0 note=61 velocity=100 time=0
note_off channel=0 note=57 velocity=0 time=0
note_off channel=0 note=64 velocity=100 time=0
note_off channel=0 note=69 velocity=100 time=0
note_off channel=0 note=73 velocity=100 time=0
note_on channel=0 note=45 velocity=127 time=0
note_on channel=0 note=61 velocity=127 time=0
note_on channel=0 note=64 velocity=127 time=0
note_on channel=0 note=57 velocity=100 time=0
note_on channel=0 note=52 velocity=100 time=0
note_on channel=0 note=57 velocity=127 time=0
note_on channel=0 note=73 velocity=127 time=0
note_on channel=0 note=76 velocity=127 time=0
note_on channel=0 note=69 velocity=100 time=0
note_on channel=0 note=64 velocity=100 time=0
note_off channel=0 note=45 velocity=0 time=384
note_off channel=0 note=61 velocity=0 time=0
note_off channel=0 note=64 velocity=0 time=0
note_off channel=0 note=57 velocity=100 time=0
note_off channel=0 note=52 velocity=100 time=0
note_off channel=0 note=57 velocity=0 time=0
note_off channel=0 note=73 velocity=0 time=0
note_off channel=0 note=76 velocity=0 time=0
note_off channel=0 note=69 velocity=100 time=0
note_off channel=0 note=64 velocity=100 time=0
note_on channel=0 note=79 velocity=127 time=480
note_on channel=0 note=67 velocity=127 time=0
note_off channel=0 note=79 velocity=0 time=64
note_off channel=0 note=67 velocity=0 time=0
note_on channel=0 note=76 velocity=127 time=32
note_on channel=0 note=64 velocity=127 time=0
note_on channel=0 note=74 velocity=127 time=96
note_on channel=0 note=62 velocity=127 time=0
note_off channel=0 note=76 velocity=0 time=32
note_off channel=0 note=64 velocity=0 time=0
note_off channel=0 note=74 velocity=0 time=32
note_off channel=0 note=62 velocity=0 time=0
note_on channel=0 note=71 velocity=127 time=32
note_on channel=0 note=59 velocity=127 time=0
note_on channel=0 note=71 velocity=127 time=96
note_on channel=0 note=59 velocity=127 time=0
note_off channel=0 note=71 velocity=0 time=32
note_off channel=0 note=59 velocity=0 time=0
note_on channel=0 note=69 velocity=127 time=64
note_on channel=0 note=57 velocity=127 time=0
note_off channel=0 note=71 velocity=0 time=12
note_off channel=0 note=59 velocity=0 time=8
note_off channel=0 note=69 velocity=0 time=44
note_off channel=0 note=57 velocity=0 time=0
note_on channel=0 note=67 velocity=127 time=32
note_on channel=0 note=55 velocity=127 time=0
note_off channel=0 note=67 velocity=0 time=64
note_off channel=0 note=55 velocity=0 time=0
note_on channel=0 note=52 velocity=127 time=32
note_on channel=0 note=47 velocity=127 time=0
note_on channel=0 note=64 velocity=32 time=0
note_on channel=0 note=59 velocity=127 time=0
note_on channel=0 note=56 velocity=127 time=0
note_on channel=0 note=40 velocity=80 time=0
note_off channel=0 note=52 velocity=0 time=384
note_off channel=0 note=47 velocity=0 time=0
note_off channel=0 note=64 velocity=0 time=0
note_off channel=0 note=59 velocity=0 time=0
note_off channel=0 note=56 velocity=0 time=0
note_off channel=0 note=40 velocity=0 time=0
note_on channel=0 note=50 velocity=127 time=192
note_on channel=0 note=62 velocity=127 time=0
note_on channel=0 note=57 velocity=127 time=0
note_on channel=0 note=66 velocity=127 time=0
note_off channel=0 note=50 velocity=0 time=96
note_off channel=0 note=62 velocity=0 time=0
note_off channel=0 note=57 velocity=0 time=0
note_off channel=0 note=66 velocity=0 time=0
note_on channel=0 note=66 velocity=78 time=0
note_on channel=0 note=62 velocity=127 time=0
note_on channel=0 note=57 velocity=100 time=0
note_on channel=0 note=50 velocity=100 time=0
note_off channel=0 note=66 velocity=0 time=96
note_off channel=0 note=62 velocity=0 time=0
note_off channel=0 note=57 velocity=100 time=0
note_off channel=0 note=50 velocity=100 time=0
note_on channel=0 note=62 velocity=127 time=0
note_on channel=0 note=66 velocity=127 time=0
note_on channel=0 note=57 velocity=100 time=0
note_on channel=0 note=50 velocity=100 time=0
note_off channel=0 note=62 velocity=0 time=384
note_off channel=0 note=66 velocity=0 time=0
note_off channel=0 note=57 velocity=100 time=0
note_off channel=0 note=50 velocity=100 time=0
note_on channel=0 note=45 velocity=127 time=192
note_on channel=0 note=61 velocity=127 time=0
note_on channel=0 note=52 velocity=127 time=0
note_on channel=0 note=57 velocity=127 time=0
note_off channel=0 note=45 velocity=0 time=96
note_off channel=0 note=61 velocity=0 time=0
note_off channel=0 note=52 velocity=0 time=0
note_off channel=0 note=57 velocity=0 time=0
note_on channel=0 note=45 velocity=127 time=0
note_on channel=0 note=52 velocity=100 time=0
note_on channel=0 note=57 velocity=100 time=0
note_on channel=0 note=61 velocity=100 time=0
note_off channel=0 note=45 velocity=0 time=96
note_off channel=0 note=52 velocity=100 time=0
note_off channel=0 note=57 velocity=100 time=0
note_off channel=0 note=61 velocity=100 time=0
note_on channel=0 note=45 velocity=127 time=0
note_on channel=0 note=61 velocity=127 time=0
note_on channel=0 note=64 velocity=127 time=0
note_on channel=0 note=57 velocity=100 time=0
note_on channel=0 note=52 velocity=100 time=0
note_off channel=0 note=45 velocity=0 time=384
note_off channel=0 note=61 velocity=0 time=0
note_off channel=0 note=64 velocity=0 time=0
note_off channel=0 note=57 velocity=100 time=0
note_off channel=0 note=52 velocity=100 time=0
note_on channel=0 note=59 velocity=117 time=0
note_on channel=0 note=47 velocity=117 time=0
note_on channel=0 note=71 velocity=117 time=0
note_off channel=0 note=59 velocity=0 time=64
note_off channel=0 note=47 velocity=0 time=0
note_off channel=0 note=71 velocity=0 time=0
note_on channel=0 note=56 velocity=127 time=32
note_on channel=0 note=44 velocity=127 time=0
note_on channel=0 note=68 velocity=127 time=0
note_off channel=0 note=56 velocity=0 time=128
note_off channel=0 note=44 velocity=0 time=0
note_off channel=0 note=68 velocity=0 time=0
note_on channel=0 note=59 velocity=109 time=64
note_on channel=0 note=47 velocity=109 time=0
note_on channel=0 note=71 velocity=109 time=0
note_off channel=0 note=59 velocity=0 time=64
note_off channel=0 note=47 velocity=0 time=0
note_off channel=0 note=71 velocity=0 time=0
note_on channel=0 note=57 velocity=97 time=32
note_on channel=0 note=45 velocity=97 time=0
note_on channel=0 note=69 velocity=97 time=0
note_off channel=0 note=57 velocity=0 time=128
note_off channel=0 note=45 velocity=0 time=0
note_off channel=0 note=69 velocity=0 time=0
note_on channel=0 note=59 velocity=111 time=64
note_on channel=0 note=47 velocity=111 time=0
note_on channel=0 note=71 velocity=111 time=0
note_off channel=0 note=59 velocity=0 time=64
note_off channel=0 note=47 velocity=0 time=0
note_off channel=0 note=71 velocity=0 time=0
note_on channel=0 note=58 velocity=108 time=32
note_on channel=0 note=46 velocity=108 time=0
note_on channel=0 note=70 velocity=108 time=0
note_off channel=0 note=58 velocity=0 time=128
note_off channel=0 note=46 velocity=0 time=0
note_off channel=0 note=70 velocity=0 time=0
note_on channel=0 note=59 velocity=103 time=64
note_on channel=0 note=47 velocity=103 time=0
note_on channel=0 note=71 velocity=103 time=0
note_off channel=0 note=59 velocity=0 time=64
note_off channel=0 note=47 velocity=0 time=0
note_off channel=0 note=71 velocity=0 time=0
note_on channel=0 note=58 velocity=119 time=32
note_on channel=0 note=46 velocity=119 time=0
note_on channel=0 note=70 velocity=119 time=0
note_off channel=0 note=58 velocity=0 time=64
note_off channel=0 note=46 velocity=0 time=0
note_off channel=0 note=70 velocity=0 time=0
note_on channel=0 note=59 velocity=100 time=32
note_on channel=0 note=47 velocity=100 time=0
note_on channel=0 note=71 velocity=100 time=0
note_off channel=0 note=59 velocity=100 time=64
note_off channel=0 note=47 velocity=100 time=0
note_off channel=0 note=71 velocity=100 time=0
note_on channel=0 note=69 velocity=101 time=28
note_on channel=0 note=76 velocity=127 time=0
note_off channel=0 note=69 velocity=0 time=4
note_off channel=0 note=76 velocity=0 time=0
note_on channel=0 note=69 velocity=45 time=216
note_on channel=0 note=64 velocity=127 time=0
note_on channel=0 note=81 velocity=45 time=0
note_on channel=0 note=76 velocity=127 time=0
note_on channel=0 note=57 velocity=127 time=16
note_on channel=0 note=69 velocity=127 time=0
note_off channel=0 note=69 velocity=0 time=188
note_off channel=0 note=81 velocity=0 time=0
note_off channel=0 note=64 velocity=0 time=8
note_off channel=0 note=76 velocity=0 time=0
note_off channel=0 note=57 velocity=0 time=84
note_off channel=0 note=69 velocity=0 time=0
note_on channel=0 note=59 velocity=110 time=0
note_on channel=0 note=71 velocity=110 time=0
note_off channel=0 note=59 velocity=0 time=16
note_off channel=0 note=71 velocity=0 time=0
note_on channel=0 note=52 velocity=127 time=4
note_on channel=0 note=59 velocity=124 time=0
note_on channel=0 note=64 velocity=127 time=0
note_on channel=0 note=71 velocity=124 time=0
note_off channel=0 note=59 velocity=0 time=108
note_off channel=0 note=71 velocity=0 time=0
note_on channel=0 note=59 velocity=127 time=68
note_on channel=0 note=71 velocity=127 time=0
note_on channel=0 note=66 velocity=127 time=4
note_on channel=0 note=71 velocity=58 time=0
note_on channel=0 note=78 velocity=127 time=0
note_on channel=0 note=83 velocity=58 time=0
note_off channel=0 note=52 velocity=0 time=44
note_off channel=0 note=64 velocity=0 time=0
note_off channel=0 note=59 velocity=0 time=228
note_off channel=0 note=71 velocity=0 time=0
note_off channel=0 note=66 velocity=0 time=60
note_off channel=0 note=78 velocity=0 time=0
note_off channel=0 note=71 velocity=0 time=4
note_off channel=0 note=83 velocity=0 time=0
note_on channel=0 note=69 velocity=34 time=0
note_on channel=0 note=81 velocity=34 time=0
note_on channel=0 note=64 velocity=121 time=12
note_on channel=0 note=76 velocity=121 time=0
note_on channel=0 note=57 velocity=127 time=20
note_on channel=0 note=69 velocity=127 time=0
note_off channel=0 note=64 velocity=0 time=112
note_off channel=0 note=76 velocity=0 time=0
note_off channel=0 note=69 velocity=0 time=8
note_off channel=0 note=81 velocity=0 time=0
note_on channel=0 note=67 velocity=30 time=0
note_on channel=0 note=79 velocity=30 time=0
note_off channel=0 note=67 velocity=0 time=76
note_off channel=0 note=79 velocity=0 time=0
note_on channel=0 note=66 velocity=127 time=4
note_on channel=0 note=67 velocity=77 time=0
note_on channel=0 note=78 velocity=127 time=0
note_on channel=0 note=79 velocity=77 time=0
note_off channel=0 note=57 velocity=0 time=20
note_off channel=0 note=69 velocity=0 time=0
note_off channel=0 note=67 velocity=0 time=0
note_off channel=0 note=79 velocity=0 time=0
note_on channel=0 note=59 velocity=127 time=0
note_on channel=0 note=71 velocity=75 time=0
note_on channel=0 note=71 velocity=127 time=0
note_on channel=0 note=83 velocity=75 time=0
note_off channel=0 note=59 velocity=0 time=112
note_off channel=0 note=71 velocity=0 time=0
note_off channel=0 note=71 velocity=0 time=0
note_off channel=0 note=83 velocity=0 time=0
note_off channel=0 note=66 velocity=0 time=4
note_off channel=0 note=78 velocity=0 time=0
note_on channel=0 note=69 velocity=45 time=336
note_on channel=0 note=64 velocity=127 time=0
note_on channel=0 note=81 velocity=45 time=0
note_on channel=0 note=76 velocity=127 time=0
note_on channel=0 note=57 velocity=127 time=16
note_on channel=0 note=69 velocity=127 time=0
note_off channel=0 note=69 velocity=0 time=188
note_off channel=0 note=81 velocity=0 time=0
note_off channel=0 note=64 velocity=0 time=8
note_off channel=0 note=76 velocity=0 time=0
note_off channel=0 note=57 velocity=0 time=84
note_off channel=0 note=69 velocity=0 time=0
note_on channel=0 note=59 velocity=110 time=0
note_on channel=0 note=71 velocity=110 time=0
note_off channel=0 note=59 velocity=0 time=16
note_off channel=0 note=71 velocity=0 time=0
note_on channel=0 note=52 velocity=127 time=4
note_on channel=0 note=59 velocity=124 time=0
note_on channel=0 note=64 velocity=127 time=0
note_on channel=0 note=71 velocity=124 time=0
note_off channel=0 note=59 velocity=0 time=108
note_off channel=0 note=71 velocity=0 time=0
note_on channel=0 note=59 velocity=127 time=68
note_on channel=0 note=71 velocity=127 time=0
note_on channel=0 note=66 velocity=127 time=4
note_on channel=0 note=71 velocity=58 time=0
note_on channel=0 note=78 velocity=127 time=0
note_on channel=0 note=83 velocity=58 time=0
note_off channel=0 note=52 velocity=0 time=44
note_off channel=0 note=64 velocity=0 time=0
note_off channel=0 note=59 velocity=0 time=228
note_off channel=0 note=71 velocity=0 time=0
note_off channel=0 note=66 velocity=0 time=60
note_off channel=0 note=78 velocity=0 time=0
note_off channel=0 note=71 velocity=0 time=4
note_off channel=0 note=83 velocity=0 time=0
note_on channel=0 note=69 velocity=34 time=0
note_on channel=0 note=81 velocity=34 time=0
note_on channel=0 note=64 velocity=121 time=12
note_on channel=0 note=76 velocity=121 time=0
note_on channel=0 note=57 velocity=127 time=20
note_on channel=0 note=69 velocity=127 time=0
note_off channel=0 note=64 velocity=0 time=112
note_off channel=0 note=76 velocity=0 time=0
note_off channel=0 note=69 velocity=0 time=8
note_off channel=0 note=81 velocity=0 time=0
note_on channel=0 note=67 velocity=30 time=0
note_on channel=0 note=79 velocity=30 time=0
note_off channel=0 note=67 velocity=0 time=76
note_off channel=0 note=79 velocity=0 time=0
note_on channel=0 note=66 velocity=127 time=4
note_on channel=0 note=67 velocity=77 time=0
note_on channel=0 note=78 velocity=127 time=0
note_on channel=0 note=79 velocity=77 time=0
note_off channel=0 note=57 velocity=0 time=20
note_off channel=0 note=69 velocity=0 time=0
note_off channel=0 note=67 velocity=0 time=0
note_off channel=0 note=79 velocity=0 time=0
note_on channel=0 note=59 velocity=127 time=0
note_on channel=0 note=71 velocity=75 time=0
note_on channel=0 note=71 velocity=127 time=0
note_on channel=0 note=83 velocity=75 time=0
note_off channel=0 note=59 velocity=0 time=112
note_off channel=0 note=71 velocity=0 time=0
note_off channel=0 note=71 velocity=0 time=0
note_off channel=0 note=83 velocity=0 time=0
note_off channel=0 note=66 velocity=0 time=4
note_off channel=0 note=78 velocity=0 time=0
note_on channel=0 note=74 velocity=24 time=264
note_on channel=0 note=67 velocity=127 time=24
note_on channel=0 note=79 velocity=127 time=8
note_on channel=0 note=62 velocity=127 time=36
note_off channel=0 note=79 velocity=0 time=112
note_off channel=0 note=74 velocity=0 time=8
note_off channel=0 note=67 velocity=0 time=120
note_off channel=0 note=62 velocity=0 time=32
note_on channel=0 note=62 velocity=127 time=4
note_on channel=0 note=78 velocity=127 time=16
note_on channel=0 note=74 velocity=127 time=0
note_on channel=0 note=69 velocity=127 time=12
note_off channel=0 note=69 velocity=0 time=108
note_off channel=0 note=78 velocity=0 time=8
note_off channel=0 note=74 velocity=0 time=12
note_off channel=0 note=62 velocity=0 time=120
note_on channel=0 note=62 velocity=126 time=4
note_on channel=0 note=57 velocity=127 time=12
note_on channel=0 note=69 velocity=127 time=12
note_off channel=0 note=62 velocity=0 time=28
note_on channel=0 note=64 velocity=125 time=0
note_off channel=0 note=57 velocity=0 time=228
note_off channel=0 note=64 velocity=0 time=36
note_on channel=0 note=55 velocity=127 time=4
note_on channel=0 note=60 velocity=127 time=16
note_off channel=0 note=60 velocity=0 time=0
note_off channel=0 note=55 velocity=0 time=116
note_off channel=0 note=69 velocity=0 time=12
note_on channel=0 note=69 velocity=127 time=4
note_on channel=0 note=57 velocity=127 time=12
note_on channel=0 note=64 velocity=127 time=8
note_on channel=0 note=57 velocity=127 time=280
note_off channel=0 note=69 velocity=0 time=80
note_off channel=0 note=64 velocity=0 time=4
note_on channel=0 note=79 velocity=127 time=68
note_off channel=0 note=57 velocity=0 time=4
note_on channel=0 note=74 velocity=127 time=4
note_on channel=0 note=55 velocity=127 time=0
note_on channel=0 note=62 velocity=127 time=8
note_on channel=0 note=67 velocity=127 time=28
note_off channel=0 note=55 velocity=0 time=96
note_off channel=0 note=74 velocity=0 time=20
note_off channel=0 note=79 velocity=0 time=4
note_off channel=0 note=57 velocity=0 time=128
note_off channel=0 note=67 velocity=0 time=0
note_on channel=0 note=78 velocity=127 time=32
note_on channel=0 note=74 velocity=127 time=0
note_on channel=0 note=69 velocity=127 time=0
note_on channel=0 note=62 velocity=100 time=4
note_off channel=0 note=62 velocity=100 time=128
note_off channel=0 note=69 velocity=0 time=20
note_off channel=0 note=78 velocity=0 time=20
note_off channel=0 note=74 velocity=0 time=24
note_off channel=0 note=62 velocity=0 time=84
note_on channel=0 note=64 velocity=109 time=0
note_on channel=0 note=57 velocity=127 time=12
note_on channel=0 note=69 velocity=127 time=24
note_off channel=0 note=64 velocity=0 time=276
note_off channel=0 note=57 velocity=0 time=0
note_on channel=0 note=55 velocity=127 time=12
note_off channel=0 note=55 velocity=0 time=144
note_off channel=0 note=69 velocity=0 time=8
note_on channel=0 note=69 velocity=103 time=8
note_on channel=0 note=58 velocity=127 time=0
note_on channel=0 note=65 velocity=127 time=12
note_off channel=0 note=58 velocity=0 time=60
note_on channel=0 note=57 velocity=127 time=0
note_off channel=0 note=65 velocity=0 time=24
note_on channel=0 note=64 velocity=127 time=4
note_off channel=0 note=69 velocity=0 time=376
note_off channel=0 note=64 velocity=0 time=0
note_on channel=0 note=69 velocity=45 time=36
note_on channel=0 note=64 velocity=127 time=0
note_on channel=0 note=81 velocity=45 time=0
note_on channel=0 note=76 velocity=127 time=0
note_on channel=0 note=57 velocity=127 time=16
note_on channel=0 note=69 velocity=127 time=0
note_off channel=0 note=57 velocity=0 time=16
note_off channel=0 note=69 velocity=0 time=172
note_off channel=0 note=81 velocity=0 time=0
note_off channel=0 note=64 velocity=0 time=8
note_off channel=0 note=76 velocity=0 time=0
note_off channel=0 note=57 velocity=0 time=84
note_off channel=0 note=69 velocity=0 time=0
note_on channel=0 note=59 velocity=110 time=0
note_on channel=0 note=71 velocity=110 time=0
note_off channel=0 note=59 velocity=0 time=16
note_off channel=0 note=71 velocity=0 time=0
note_on channel=0 note=52 velocity=127 time=4
note_on channel=0 note=59 velocity=124 time=0
note_on channel=0 note=64 velocity=127 time=0
note_on channel=0 note=71 velocity=124 time=0
note_off channel=0 note=59 velocity=0 time=108
note_off channel=0 note=71 velocity=0 time=0
note_on channel=0 note=59 velocity=127 time=68
note_on channel=0 note=71 velocity=127 time=0
note_on channel=0 note=66 velocity=127 time=4
note_on channel=0 note=71 velocity=58 time=0
note_on channel=0 note=78 velocity=127 time=0
note_on channel=0 note=83 velocity=58 time=0
note_off channel=0 note=52 velocity=0 time=44
note_off channel=0 note=64 velocity=0 time=0
note_off channel=0 note=59 velocity=0 time=228
note_off channel=0 note=71 velocity=0 time=0
note_off channel=0 note=66 velocity=0 time=60
note_off channel=0 note=78 velocity=0 time=0
note_off channel=0 note=71 velocity=0 time=4
note_off channel=0 note=83 velocity=0 time=0
note_on channel=0 note=69 velocity=34 time=0
note_on channel=0 note=81 velocity=34 time=0
note_on channel=0 note=64 velocity=121 time=12
note_on channel=0 note=76 velocity=121 time=0
note_on channel=0 note=57 velocity=127 time=20
note_on channel=0 note=69 velocity=127 time=0
note_off channel=0 note=64 velocity=0 time=112
note_off channel=0 note=76 velocity=0 time=0
note_off channel=0 note=69 velocity=0 time=8
note_off channel=0 note=81 velocity=0 time=0
note_on channel=0 note=67 velocity=30 time=0
note_on channel=0 note=79 velocity=30 time=0
note_off channel=0 note=67 velocity=0 time=76
note_off channel=0 note=79 velocity=0 time=0
note_on channel=0 note=66 velocity=127 time=4
note_on channel=0 note=67 velocity=77 time=0
note_on channel=0 note=78 velocity=127 time=0
note_on channel=0 note=79 velocity=77 time=0
note_off channel=0 note=57 velocity=0 time=20
note_off channel=0 note=69 velocity=0 time=0
note_off channel=0 note=67 velocity=0 time=0
note_off channel=0 note=79 velocity=0 time=0
note_on channel=0 note=59 velocity=127 time=0
note_on channel=0 note=71 velocity=75 time=0
note_on channel=0 note=71 velocity=127 time=0
note_on channel=0 note=83 velocity=75 time=0
note_off channel=0 note=59 velocity=0 time=112
note_off channel=0 note=71 velocity=0 time=0
note_off channel=0 note=71 velocity=0 time=0
note_off channel=0 note=83 velocity=0 time=0
note_off channel=0 note=66 velocity=0 time=4
note_off channel=0 note=78 velocity=0 time=0
note_on channel=0 note=69 velocity=45 time=336
note_on channel=0 note=64 velocity=127 time=0
note_on channel=0 note=81 velocity=45 time=0
note_on channel=0 note=76 velocity=127 time=0
note_on channel=0 note=57 velocity=127 time=16
note_on channel=0 note=69 velocity=127 time=0
note_off channel=0 note=69 velocity=0 time=188
note_off channel=0 note=81 velocity=0 time=0
note_off channel=0 note=64 velocity=0 time=8
note_off channel=0 note=76 velocity=0 time=0
note_off channel=0 note=57 velocity=0 time=84
note_off channel=0 note=69 velocity=0 time=0
note_on channel=0 note=59 velocity=110 time=0
note_on channel=0 note=71 velocity=110 time=0
note_off channel=0 note=59 velocity=0 time=16
note_off channel=0 note=71 velocity=0 time=0
note_on channel=0 note=52 velocity=127 time=4
note_on channel=0 note=59 velocity=124 time=0
note_on channel=0 note=64 velocity=127 time=0
note_on channel=0 note=71 velocity=124 time=0
note_off channel=0 note=59 velocity=0 time=108
note_off channel=0 note=71 velocity=0 time=0
note_on channel=0 note=59 velocity=127 time=68
note_on channel=0 note=71 velocity=127 time=0
note_on channel=0 note=66 velocity=127 time=4
note_on channel=0 note=71 velocity=58 time=0
note_on channel=0 note=78 velocity=127 time=0
note_on channel=0 note=83 velocity=58 time=0
note_off channel=0 note=52 velocity=0 time=44
note_off channel=0 note=64 velocity=0 time=0
note_off channel=0 note=59 velocity=0 time=228
note_off channel=0 note=71 velocity=0 time=0
note_off channel=0 note=66 velocity=0 time=60
note_off channel=0 note=78 velocity=0 time=0
note_off channel=0 note=71 velocity=0 time=4
note_off channel=0 note=83 velocity=0 time=0
note_on channel=0 note=69 velocity=34 time=0
note_on channel=0 note=81 velocity=34 time=0
note_on channel=0 note=64 velocity=121 time=12
note_on channel=0 note=76 velocity=121 time=0
note_on channel=0 note=57 velocity=127 time=20
note_on channel=0 note=69 velocity=127 time=0
note_off channel=0 note=64 velocity=0 time=112
note_off channel=0 note=76 velocity=0 time=0
note_off channel=0 note=69 velocity=0 time=8
note_off channel=0 note=81 velocity=0 time=0
note_on channel=0 note=67 velocity=30 time=0
note_on channel=0 note=79 velocity=30 time=0
note_off channel=0 note=67 velocity=0 time=76
note_off channel=0 note=79 velocity=0 time=0
note_on channel=0 note=66 velocity=127 time=4
note_on channel=0 note=67 velocity=77 time=0
note_on channel=0 note=78 velocity=127 time=0
note_on channel=0 note=79 velocity=77 time=0
note_off channel=0 note=57 velocity=0 time=20
note_off channel=0 note=69 velocity=0 time=0
note_off channel=0 note=67 velocity=0 time=0
note_off channel=0 note=79 velocity=0 time=0
note_on channel=0 note=59 velocity=127 time=0
note_on channel=0 note=71 velocity=75 time=0
note_on channel=0 note=71 velocity=127 time=0
note_on channel=0 note=83 velocity=75 time=0
note_off channel=0 note=59 velocity=0 time=112
note_off channel=0 note=71 velocity=0 time=0
note_off channel=0 note=71 velocity=0 time=0
note_off channel=0 note=83 velocity=0 time=0
note_off channel=0 note=66 velocity=0 time=4
note_off channel=0 note=78 velocity=0 time=0
note_on channel=0 note=50 velocity=76 time=120
note_on channel=0 note=55 velocity=127 time=0
note_on channel=0 note=67 velocity=89 time=0
note_on channel=0 note=62 velocity=95 time=0
note_on channel=0 note=59 velocity=127 time=0
note_off channel=0 note=50 velocity=0 time=192
note_off channel=0 note=55 velocity=0 time=0
note_off channel=0 note=67 velocity=0 time=0
note_off channel=0 note=62 velocity=0 time=0
note_off channel=0 note=59 velocity=0 time=0
note_on channel=0 note=50 velocity=76 time=96
note_on channel=0 note=55 velocity=127 time=0
note_on channel=0 note=67 velocity=89 time=0
note_on channel=0 note=62 velocity=95 time=0
note_on channel=0 note=59 velocity=127 time=0
note_off channel=0 note=50 velocity=0 time=192
note_off channel=0 note=55 velocity=0 time=0
note_off channel=0 note=67 velocity=0 time=0
note_off channel=0 note=62 velocity=0 time=0
note_off channel=0 note=59 velocity=0 time=0
note_on channel=0 note=50 velocity=76 time=96
note_on channel=0 note=55 velocity=127 time=0
note_on channel=0 note=67 velocity=89 time=0
note_on channel=0 note=62 velocity=95 time=0
note_on channel=0 note=59 velocity=127 time=0
note_off channel=0 note=50 velocity=0 time=192
note_off channel=0 note=55 velocity=0 time=0
note_off channel=0 note=67 velocity=0 time=0
note_off channel=0 note=62 velocity=0 time=0
note_off channel=0 note=59 velocity=0 time=0
note_on channel=0 note=50 velocity=54 time=96
note_on channel=0 note=55 velocity=124 time=0
note_on channel=0 note=59 velocity=127 time=0
note_on channel=0 note=62 velocity=65 time=0
note_on channel=0 note=67 velocity=65 time=0
note_off channel=0 note=50 velocity=0 time=64
note_off channel=0 note=55 velocity=0 time=0
note_off channel=0 note=59 velocity=0 time=0
note_off channel=0 note=62 velocity=0 time=0
note_off channel=0 note=67 velocity=0 time=0
note_on channel=0 note=59 velocity=39 time=32
note_on channel=0 note=67 velocity=65 time=0
note_on channel=0 note=49 velocity=42 time=0
note_off channel=0 note=59 velocity=0 time=64
note_off channel=0 note=67 velocity=0 time=0
note_off channel=0 note=49 velocity=0 time=0
note_on channel=0 note=50 velocity=54 time=32
note_on channel=0 note=59 velocity=121 time=0
note_on channel=0 note=55 velocity=107 time=0
note_on channel=0 note=62 velocity=69 time=0
note_on channel=0 note=67 velocity=71 time=0
note_off channel=0 note=50 velocity=0 time=64
note_off channel=0 note=59 velocity=0 time=0
note_off channel=0 note=55 velocity=0 time=0
note_off channel=0 note=62 velocity=0 time=0
note_off channel=0 note=67 velocity=0 time=0
note_on channel=0 note=50 velocity=64 time=32
note_on channel=0 note=55 velocity=118 time=0
note_on channel=0 note=59 velocity=127 time=0
note_on channel=0 note=62 velocity=66 time=0
note_on channel=0 note=67 velocity=63 time=0
note_off channel=0 note=50 velocity=0 time=128
note_off channel=0 note=55 velocity=0 time=0
note_off channel=0 note=59 velocity=0 time=0
note_off channel=0 note=62 velocity=0 time=0
note_off channel=0 note=67 velocity=0 time=0
note_on channel=0 note=50 velocity=68 time=64
note_on channel=0 note=55 velocity=127 time=0
note_on channel=0 note=59 velocity=127 time=0
note_on channel=0 note=62 velocity=89 time=0
note_on channel=0 note=67 velocity=107 time=0
note_off channel=0 note=50 velocity=0 time=128
note_off channel=0 note=55 velocity=0 time=0
note_off channel=0 note=59 velocity=0 time=0
note_off channel=0 note=62 velocity=0 time=0
note_off channel=0 note=67 velocity=0 time=0
note_on channel=0 note=50 velocity=127 time=64
note_on channel=0 note=66 velocity=127 time=0
note_on channel=0 note=57 velocity=127 time=0
note_on channel=0 note=62 velocity=121 time=0
note_off channel=0 note=50 velocity=0 time=192
note_off channel=0 note=66 velocity=0 time=0
note_off channel=0 note=57 velocity=0 time=0
note_off channel=0 note=62 velocity=0 time=0
note_on channel=0 note=50 velocity=127 time=96
note_on channel=0 note=62 velocity=107 time=0
note_on channel=0 note=66 velocity=107 time=0
note_on channel=0 note=57 velocity=127 time=0
note_off channel=0 note=50 velocity=0 time=192
note_off channel=0 note=62 velocity=0 time=0
note_off channel=0 note=66 velocity=0 time=0
note_off channel=0 note=57 velocity=0 time=0
note_on channel=0 note=50 velocity=127 time=96
note_on channel=0 note=62 velocity=104 time=0
note_on channel=0 note=66 velocity=118 time=0
note_on channel=0 note=57 velocity=127 time=0
note_off channel=0 note=50 velocity=0 time=512
note_off channel=0 note=62 velocity=0 time=0
note_off channel=0 note=66 velocity=0 time=0
note_off channel=0 note=57 velocity=0 time=0
note_on channel=0 note=52 velocity=127 time=448
note_on channel=0 note=47 velocity=127 time=0
note_on channel=0 note=64 velocity=32 time=0
note_on channel=0 note=56 velocity=127 time=0
note_on channel=0 note=40 velocity=80 time=0
note_on channel=0 note=64 velocity=127 time=0
note_on channel=0 note=59 velocity=127 time=0
note_on channel=0 note=76 velocity=32 time=0
note_on channel=0 note=71 velocity=127 time=0
note_on channel=0 note=68 velocity=127 time=0
note_on channel=0 note=52 velocity=80 time=0
note_on channel=0 note=59 velocity=127 time=0
note_off channel=0 note=52 velocity=0 time=384
note_off channel=0 note=47 velocity=0 time=0
note_off channel=0 note=64 velocity=0 time=0
note_off channel=0 note=56 velocity=0 time=0
note_off channel=0 note=40 velocity=0 time=0
note_off channel=0 note=64 velocity=0 time=0
note_off channel=0 note=59 velocity=0 time=0
note_off channel=0 note=76 velocity=0 time=0
note_off channel=0 note=71 velocity=0 time=0
note_off channel=0 note=68 velocity=0 time=0
note_off channel=0 note=52 velocity=0 time=0
note_off channel=0 note=59 velocity=0 time=0
note_on channel=0 note=50 velocity=127 time=192
note_on channel=0 note=62 velocity=127 time=0
note_on channel=0 note=57 velocity=127 time=0
note_on channel=0 note=66 velocity=127 time=0
note_on channel=0 note=62 velocity=127 time=0
note_on channel=0 note=74 velocity=127 time=0
note_on channel=0 note=69 velocity=127 time=0
note_on channel=0 note=78 velocity=127 time=0
note_off channel=0 note=50 velocity=0 time=96
note_off channel=0 note=62 velocity=0 time=0
note_off channel=0 note=57 velocity=0 time=0
note_off channel=0 note=66 velocity=0 time=0
note_off channel=0 note=62 velocity=0 time=0
note_off channel=0 note=74 velocity=0 time=0
note_off channel=0 note=69 velocity=0 time=0
note_off channel=0 note=78 velocity=0 time=0
note_on channel=0 note=66 velocity=78 time=0
note_on channel=0 note=62 velocity=127 time=0
note_on channel=0 note=57 velocity=100 time=0
note_on channel=0 note=50 velocity=100 time=0
note_on channel=0 note=78 velocity=78 time=0
note_on channel=0 note=74 velocity=127 time=0
note_on channel=0 note=69 velocity=100 time=0
note_on channel=0 note=62 velocity=100 time=0
note_off channel=0 note=66 velocity=0 time=96
note_off channel=0 note=62 velocity=0 time=0
note_off channel=0 note=57 velocity=100 time=0
note_off channel=0 note=50 velocity=100 time=0
note_off channel=0 note=78 velocity=0 time=0
note_off channel=0 note=74 velocity=0 time=0
note_off channel=0 note=69 velocity=100 time=0
note_off channel=0 note=62 velocity=100 time=0
note_on channel=0 note=62 velocity=127 time=0
note_on channel=0 note=66 velocity=127 time=0
note_on channel=0 note=57 velocity=100 time=0
note_on channel=0 note=50 velocity=100 time=0
note_on channel=0 note=74 velocity=127 time=0
note_on channel=0 note=78 velocity=127 time=0
note_on channel=0 note=69 velocity=100 time=0
note_on channel=0 note=62 velocity=100 time=0
note_off channel=0 note=62 velocity=0 time=384
note_off channel=0 note=66 velocity=0 time=0
note_off channel=0 note=57 velocity=100 time=0
note_off channel=0 note=50 velocity=100 time=0
note_off channel=0 note=74 velocity=0 time=0
note_off channel=0 note=78 velocity=0 time=0
note_off channel=0 note=69 velocity=100 time=0
note_off channel=0 note=62 velocity=100 time=0
note_on channel=0 note=45 velocity=127 time=192
note_on channel=0 note=61 velocity=127 time=0
note_on channel=0 note=52 velocity=127 time=0
note_on channel=0 note=57 velocity=127 time=0
note_on channel=0 note=57 velocity=127 time=0
note_on channel=0 note=73 velocity=127 time=0
note_on channel=0 note=64 velocity=127 time=0
note_on channel=0 note=69 velocity=127 time=0
note_off channel=0 note=45 velocity=0 time=96
note_off channel=0 note=61 velocity=0 time=0
note_off channel=0 note=52 velocity=0 time=0
note_off channel=0 note=57 velocity=0 time=0
note_off channel=0 note=57 velocity=0 time=0
note_off channel=0 note=73 velocity=0 time=0
note_off channel=0 note=64 velocity=0 time=0
note_off channel=0 note=69 velocity=0 time=0
note_on channel=0 note=45 velocity=127 time=0
note_on channel=0 note=52 velocity=100 time=0
note_on channel=0 note=57 velocity=100 time=0
note_on channel=0 note=61 velocity=100 time=0
note_on channel=0 note=57 velocity=127 time=0
note_on channel=0 note=64 velocity=100 time=0
note_on channel=0 note=69 velocity=100 time=0
note_on channel=0 note=73 velocity=100 time=0
note_off channel=0 note=45 velocity=0 time=96
note_off channel=0 note=52 velocity=100 time=0
note_off channel=0 note=57 velocity=100 time=0
note_off channel=0 note=61 velocity=100 time=0
note_off channel=0 note=57 velocity=0 time=0
note_off channel=0 note=64 velocity=100 time=0
note_off channel=0 note=69 velocity=100 time=0
note_off channel=0 note=73 velocity=100 time=0
note_on channel=0 note=45 velocity=127 time=0
note_on channel=0 note=61 velocity=127 time=0
note_on channel=0 note=64 velocity=127 time=0
note_on channel=0 note=57 velocity=100 time=0
note_on channel=0 note=52 velocity=100 time=0
note_on channel=0 note=57 velocity=127 time=0
note_on channel=0 note=73 velocity=127 time=0
note_on channel=0 note=76 velocity=127 time=0
note_on channel=0 note=69 velocity=100 time=0
note_on channel=0 note=64 velocity=100 time=0
note_off channel=0 note=45 velocity=0 time=384
note_off channel=0 note=61 velocity=0 time=0
note_off channel=0 note=64 velocity=0 time=0
note_off channel=0 note=57 velocity=100 time=0
note_off channel=0 note=52 velocity=100 time=0
note_off channel=0 note=57 velocity=0 time=0
note_off channel=0 note=73 velocity=0 time=0
note_off channel=0 note=76 velocity=0 time=0
note_off channel=0 note=69 velocity=100 time=0
note_off channel=0 note=64 velocity=100 time=0
note_on channel=0 note=79 velocity=127 time=480
note_on channel=0 note=67 velocity=127 time=0
note_off channel=0 note=79 velocity=0 time=64
note_off channel=0 note=67 velocity=0 time=0
note_on channel=0 note=76 velocity=127 time=32
note_on channel=0 note=64 velocity=127 time=0
note_on channel=0 note=74 velocity=127 time=96
note_on channel=0 note=62 velocity=127 time=0
note_off channel=0 note=76 velocity=0 time=32
note_off channel=0 note=64 velocity=0 time=0
note_off channel=0 note=74 velocity=0 time=32
note_off channel=0 note=62 velocity=0 time=0
note_on channel=0 note=71 velocity=127 time=32
note_on channel=0 note=59 velocity=127 time=0
note_on channel=0 note=71 velocity=127 time=96
note_on channel=0 note=59 velocity=127 time=0
note_off channel=0 note=71 velocity=0 time=32
note_off channel=0 note=59 velocity=0 time=0
note_on channel=0 note=69 velocity=127 time=64
note_on channel=0 note=57 velocity=127 time=0
note_off channel=0 note=71 velocity=0 time=12
note_off channel=0 note=59 velocity=0 time=8
note_off channel=0 note=69 velocity=0 time=44
note_off channel=0 note=57 velocity=0 time=0
note_on channel=0 note=67 velocity=127 time=32
note_on channel=0 note=55 velocity=127 time=0
note_off channel=0 note=67 velocity=0 time=64
note_off channel=0 note=55 velocity=0 time=0
note_on channel=0 note=52 velocity=127 time=32
note_on channel=0 note=47 velocity=127 time=0
note_on channel=0 note=64 velocity=32 time=0
note_on channel=0 note=59 velocity=127 time=0
note_on channel=0 note=56 velocity=127 time=0
note_on channel=0 note=40 velocity=80 time=0
note_off channel=0 note=52 velocity=0 time=384
note_off channel=0 note=47 velocity=0 time=0
note_off channel=0 note=64 velocity=0 time=0
note_off channel=0 note=59 velocity=0 time=0
note_off channel=0 note=56 velocity=0 time=0
note_off channel=0 note=40 velocity=0 time=0
note_on channel=0 note=50 velocity=127 time=192
note_on channel=0 note=62 velocity=127 time=0
note_on channel=0 note=57 velocity=127 time=0
note_on channel=0 note=66 velocity=127 time=0
note_off channel=0 note=50 velocity=0 time=96
note_off channel=0 note=62 velocity=0 time=0
note_off channel=0 note=57 velocity=0 time=0
note_off channel=0 note=66 velocity=0 time=0
note_on channel=0 note=66 velocity=78 time=0
note_on channel=0 note=62 velocity=127 time=0
note_on channel=0 note=57 velocity=100 time=0
note_on channel=0 note=50 velocity=100 time=0
note_off channel=0 note=66 velocity=0 time=96
note_off channel=0 note=62 velocity=0 time=0
note_off channel=0 note=57 velocity=100 time=0
note_off channel=0 note=50 velocity=100 time=0
note_on channel=0 note=62 velocity=127 time=0
note_on channel=0 note=66 velocity=127 time=0
note_on channel=0 note=57 velocity=100 time=0
note_on channel=0 note=50 velocity=100 time=0
note_off channel=0 note=62 velocity=0 time=384
note_off channel=0 note=66 velocity=0 time=0
note_off channel=0 note=57 velocity=100 time=0
note_off channel=0 note=50 velocity=100 time=0
note_on channel=0 note=45 velocity=127 time=192
note_on channel=0 note=61 velocity=127 time=0
note_on channel=0 note=52 velocity=127 time=0
note_on channel=0 note=57 velocity=127 time=0
note_off channel=0 note=45 velocity=0 time=96
note_off channel=0 note=61 velocity=0 time=0
note_off channel=0 note=52 velocity=0 time=0
note_off channel=0 note=57 velocity=0 time=0
note_on channel=0 note=45 velocity=127 time=0
note_on channel=0 note=52 velocity=100 time=0
note_on channel=0 note=57 velocity=100 time=0
note_on channel=0 note=61 velocity=100 time=0
note_off channel=0 note=45 velocity=0 time=96
note_off channel=0 note=52 velocity=100 time=0
note_off channel=0 note=57 velocity=100 time=0
note_off channel=0 note=61 velocity=100 time=0
note_on channel=0 note=45 velocity=127 time=0
note_on channel=0 note=61 velocity=127 time=0
note_on channel=0 note=64 velocity=127 time=0
note_on channel=0 note=57 velocity=100 time=0
note_on channel=0 note=52 velocity=100 time=0
note_off channel=0 note=45 velocity=0 time=384
note_off channel=0 note=61 velocity=0 time=0
note_off channel=0 note=64 velocity=0 time=0
note_off channel=0 note=57 velocity=100 time=0
note_off channel=0 note=52 velocity=100 time=0
note_on channel=0 note=59 velocity=117 time=0
note_on channel=0 note=47 velocity=117 time=0
note_on channel=0 note=71 velocity=117 time=0
note_off channel=0 note=59 velocity=0 time=64
note_off channel=0 note=47 velocity=0 time=0
note_off channel=0 note=71 velocity=0 time=0
note_on channel=0 note=56 velocity=127 time=32
note_on channel=0 note=44 velocity=127 time=0
note_on channel=0 note=68 velocity=127 time=0
note_off channel=0 note=56 velocity=0 time=128
note_off channel=0 note=44 velocity=0 time=0
note_off channel=0 note=68 velocity=0 time=0
note_on channel=0 note=59 velocity=109 time=64
note_on channel=0 note=47 velocity=109 time=0
note_on channel=0 note=71 velocity=109 time=0
note_off channel=0 note=59 velocity=0 time=64
note_off channel=0 note=47 velocity=0 time=0
note_off channel=0 note=71 velocity=0 time=0
note_on channel=0 note=57 velocity=97 time=32
note_on channel=0 note=45 velocity=97 time=0
note_on channel=0 note=69 velocity=97 time=0
note_off channel=0 note=57 velocity=0 time=128
note_off channel=0 note=45 velocity=0 time=0
note_off channel=0 note=69 velocity=0 time=0
note_on channel=0 note=59 velocity=111 time=64
note_on channel=0 note=47 velocity=111 time=0
note_on channel=0 note=71 velocity=111 time=0
note_off channel=0 note=59 velocity=0 time=64
note_off channel=0 note=47 velocity=0 time=0
note_off channel=0 note=71 velocity=0 time=0
note_on channel=0 note=58 velocity=108 time=32
note_on channel=0 note=46 velocity=108 time=0
note_on channel=0 note=70 velocity=108 time=0
note_off channel=0 note=58 velocity=0 time=128
note_off channel=0 note=46 velocity=0 time=0
note_off channel=0 note=70 velocity=0 time=0
note_on channel=0 note=59 velocity=103 time=64
note_on channel=0 note=47 velocity=103 time=0
note_on channel=0 note=71 velocity=103 time=0
note_off channel=0 note=59 velocity=0 time=64
note_off channel=0 note=47 velocity=0 time=0
note_off channel=0 note=71 velocity=0 time=0
note_on channel=0 note=58 velocity=119 time=32
note_on channel=0 note=46 velocity=119 time=0
note_on channel=0 note=70 velocity=119 time=0
note_off channel=0 note=58 velocity=0 time=64
note_off channel=0 note=46 velocity=0 time=0
note_off channel=0 note=70 velocity=0 time=0
note_on channel=0 note=59 velocity=100 time=32
note_on channel=0 note=47 velocity=100 time=0
note_on channel=0 note=71 velocity=100 time=0
note_off channel=0 note=59 velocity=100 time=64
note_off channel=0 note=47 velocity=100 time=0
note_off channel=0 note=71 velocity=100 time=0
note_on channel=0 note=52 velocity=127 time=32
note_on channel=0 note=47 velocity=127 time=0
note_on channel=0 note=64 velocity=32 time=0
note_on channel=0 note=56 velocity=127 time=0
note_on channel=0 note=40 velocity=80 time=0
note_on channel=0 note=64 velocity=127 time=0
note_on channel=0 note=59 velocity=127 time=0
note_on channel=0 note=76 velocity=32 time=0
note_on channel=0 note=71 velocity=127 time=0
note_on channel=0 note=68 velocity=127 time=0
note_on channel=0 note=52 velocity=80 time=0
note_on channel=0 note=59 velocity=127 time=0
note_off channel=0 note=52 velocity=0 time=384
note_off channel=0 note=47 velocity=0 time=0
note_off channel=0 note=64 velocity=0 time=0
note_off channel=0 note=56 velocity=0 time=0
note_off channel=0 note=40 velocity=0 time=0
note_off channel=0 note=64 velocity=0 time=0
note_off channel=0 note=59 velocity=0 time=0
note_off channel=0 note=76 velocity=0 time=0
note_off channel=0 note=71 velocity=0 time=0
note_off channel=0 note=68 velocity=0 time=0
note_off channel=0 note=52 velocity=0 time=0
note_off channel=0 note=59 velocity=0 time=0
note_on channel=0 note=50 velocity=127 time=192
note_on channel=0 note=62 velocity=127 time=0
note_on channel=0 note=57 velocity=127 time=0
note_on channel=0 note=66 velocity=127 time=0
note_on channel=0 note=62 velocity=127 time=0
note_on channel=0 note=74 velocity=127 time=0
note_on channel=0 note=69 velocity=127 time=0
note_on channel=0 note=78 velocity=127 time=0
note_off channel=0 note=50 velocity=0 time=96
note_off channel=0 note=62 velocity=0 time=0
note_off channel=0 note=57 velocity=0 time=0
note_off channel=0 note=66 velocity=0 time=0
note_off channel=0 note=62 velocity=0 time=0
note_off channel=0 note=74 velocity=0 time=0
note_off channel=0 note=69 velocity=0 time=0
note_off channel=0 note=78 velocity=0 time=0
note_on channel=0 note=66 velocity=78 time=0
note_on channel=0 note=62 velocity=127 time=0
note_on channel=0 note=57 velocity=100 time=0
note_on channel=0 note=50 velocity=100 time=0
note_on channel=0 note=78 velocity=78 time=0
note_on channel=0 note=74 velocity=127 time=0
note_on channel=0 note=69 velocity=100 time=0
note_on channel=0 note=62 velocity=100 time=0
note_off channel=0 note=66 velocity=0 time=96
note_off channel=0 note=62 velocity=0 time=0
note_off channel=0 note=57 velocity=100 time=0
note_off channel=0 note=50 velocity=100 time=0
note_off channel=0 note=78 velocity=0 time=0
note_off channel=0 note=74 velocity=0 time=0
note_off channel=0 note=69 velocity=100 time=0
note_off channel=0 note=62 velocity=100 time=0
note_on channel=0 note=62 velocity=127 time=0
note_on channel=0 note=66 velocity=127 time=0
note_on channel=0 note=57 velocity=100 time=0
note_on channel=0 note=50 velocity=100 time=0
note_on channel=0 note=74 velocity=127 time=0
note_on channel=0 note=78 velocity=127 time=0
note_on channel=0 note=69 velocity=100 time=0
note_on channel=0 note=62 velocity=100 time=0
note_off channel=0 note=62 velocity=0 time=384
note_off channel=0 note=66 velocity=0 time=0
note_off channel=0 note=57 velocity=100 time=0
note_off channel=0 note=50 velocity=100 time=0
note_off channel=0 note=74 velocity=0 time=0
note_off channel=0 note=78 velocity=0 time=0
note_off channel=0 note=69 velocity=100 time=0
note_off channel=0 note=62 velocity=100 time=0
note_on channel=0 note=45 velocity=127 time=192
note_on channel=0 note=61 velocity=127 time=0
note_on channel=0 note=52 velocity=127 time=0
note_on channel=0 note=57 velocity=127 time=0
note_on channel=0 note=57 velocity=127 time=0
note_on channel=0 note=73 velocity=127 time=0
note_on channel=0 note=64 velocity=127 time=0
note_on channel=0 note=69 velocity=127 time=0
note_off channel=0 note=45 velocity=0 time=96
note_off channel=0 note=61 velocity=0 time=0
note_off channel=0 note=52 velocity=0 time=0
note_off channel=0 note=57 velocity=0 time=0
note_off channel=0 note=57 velocity=0 time=0
note_off channel=0 note=73 velocity=0 time=0
note_off channel=0 note=64 velocity=0 time=0
note_off channel=0 note=69 velocity=0 time=0
note_on channel=0 note=45 velocity=127 time=0
note_on channel=0 note=52 velocity=100 time=0
note_on channel=0 note=57 velocity=100 time=0
note_on channel=0 note=61 velocity=100 time=0
note_on channel=0 note=57 velocity=127 time=0
note_on channel=0 note=64 velocity=100 time=0
note_on channel=0 note=69 velocity=100 time=0
note_on channel=0 note=73 velocity=100 time=0
note_off channel=0 note=45 velocity=0 time=96
note_off channel=0 note=52 velocity=100 time=0
note_off channel=0 note=57 velocity=100 time=0
note_off channel=0 note=61 velocity=100 time=0
note_off channel=0 note=57 velocity=0 time=0
note_off channel=0 note=64 velocity=100 time=0
note_off channel=0 note=69 velocity=100 time=0
note_off channel=0 note=73 velocity=100 time=0
note_on channel=0 note=45 velocity=127 time=0
note_on channel=0 note=61 velocity=127 time=0
note_on channel=0 note=64 velocity=127 time=0
note_on channel=0 note=57 velocity=100 time=0
note_on channel=0 note=52 velocity=100 time=0
note_on channel=0 note=57 velocity=127 time=0
note_on channel=0 note=73 velocity=127 time=0
note_on channel=0 note=76 velocity=127 time=0
note_on channel=0 note=69 velocity=100 time=0
note_on channel=0 note=64 velocity=100 time=0
note_off channel=0 note=45 velocity=0 time=384
note_off channel=0 note=61 velocity=0 time=0
note_off channel=0 note=64 velocity=0 time=0
note_off channel=0 note=57 velocity=100 time=0
note_off channel=0 note=52 velocity=100 time=0
note_off channel=0 note=57 velocity=0 time=0
note_off channel=0 note=73 velocity=0 time=0
note_off channel=0 note=76 velocity=0 time=0
note_off channel=0 note=69 velocity=100 time=0
note_off channel=0 note=64 velocity=100 time=0
note_on channel=0 note=79 velocity=127 time=480
note_on channel=0 note=67 velocity=127 time=0
note_off channel=0 note=79 velocity=0 time=64
note_off channel=0 note=67 velocity=0 time=0
note_on channel=0 note=76 velocity=127 time=32
note_on channel=0 note=64 velocity=127 time=0
note_on channel=0 note=74 velocity=127 time=96
note_on channel=0 note=62 velocity=127 time=0
note_off channel=0 note=76 velocity=0 time=32
note_off channel=0 note=64 velocity=0 time=0
note_off channel=0 note=74 velocity=0 time=32
note_off channel=0 note=62 velocity=0 time=0
note_on channel=0 note=71 velocity=127 time=32
note_on channel=0 note=59 velocity=127 time=0
note_on channel=0 note=71 velocity=127 time=96
note_on channel=0 note=59 velocity=127 time=0
note_off channel=0 note=71 velocity=0 time=32
note_off channel=0 note=59 velocity=0 time=0
note_on channel=0 note=69 velocity=127 time=64
note_on channel=0 note=57 velocity=127 time=0
note_off channel=0 note=71 velocity=0 time=12
note_off channel=0 note=59 velocity=0 time=8
note_off channel=0 note=69 velocity=0 time=44
note_off channel=0 note=57 velocity=0 time=0
note_on channel=0 note=67 velocity=127 time=32
note_on channel=0 note=55 velocity=127 time=0
note_off channel=0 note=67 velocity=0 time=64
note_off channel=0 note=55 velocity=0 time=0
note_on channel=0 note=52 velocity=127 time=32
note_on channel=0 note=47 velocity=127 time=0
note_on channel=0 note=64 velocity=32 time=0
note_on channel=0 note=59 velocity=127 time=0
note_on channel=0 note=56 velocity=127 time=0
note_on channel=0 note=40 velocity=80 time=0
note_off channel=0 note=52 velocity=0 time=384
note_off channel=0 note=47 velocity=0 time=0
note_off channel=0 note=64 velocity=0 time=0
note_off channel=0 note=59 velocity=0 time=0
note_off channel=0 note=56 velocity=0 time=0
note_off channel=0 note=40 velocity=0 time=0
note_on channel=0 note=50 velocity=127 time=192
note_on channel=0 note=62 velocity=127 time=0
note_on channel=0 note=57 velocity=127 time=0
note_on channel=0 note=66 velocity=127 time=0
note_off channel=0 note=50 velocity=0 time=96
note_off channel=0 note=62 velocity=0 time=0
note_off channel=0 note=57 velocity=0 time=0
note_off channel=0 note=66 velocity=0 time=0
note_on channel=0 note=66 velocity=78 time=0
note_on channel=0 note=62 velocity=127 time=0
note_on channel=0 note=57 velocity=100 time=0
note_on channel=0 note=50 velocity=100 time=0
note_off channel=0 note=66 velocity=0 time=96
note_off channel=0 note=62 velocity=0 time=0
note_off channel=0 note=57 velocity=100 time=0
note_off channel=0 note=50 velocity=100 time=0
note_on channel=0 note=62 velocity=127 time=0
note_on channel=0 note=66 velocity=127 time=0
note_on channel=0 note=57 velocity=100 time=0
note_on channel=0 note=50 velocity=100 time=0
note_off channel=0 note=62 velocity=0 time=384
note_off channel=0 note=66 velocity=0 time=0
note_off channel=0 note=57 velocity=100 time=0
note_off channel=0 note=50 velocity=100 time=0
note_on channel=0 note=45 velocity=127 time=192
note_on channel=0 note=61 velocity=127 time=0
note_on channel=0 note=52 velocity=127 time=0
note_on channel=0 note=57 velocity=127 time=0
note_off channel=0 note=45 velocity=0 time=96
note_off channel=0 note=61 velocity=0 time=0
note_off channel=0 note=52 velocity=0 time=0
note_off channel=0 note=57 velocity=0 time=0
note_on channel=0 note=45 velocity=127 time=0
note_on channel=0 note=52 velocity=100 time=0
note_on channel=0 note=57 velocity=100 time=0
note_on channel=0 note=61 velocity=100 time=0
note_off channel=0 note=45 velocity=0 time=96
note_off channel=0 note=52 velocity=100 time=0
note_off channel=0 note=57 velocity=100 time=0
note_off channel=0 note=61 velocity=100 time=0
note_on channel=0 note=45 velocity=127 time=0
note_on channel=0 note=61 velocity=127 time=0
note_on channel=0 note=64 velocity=127 time=0
note_on channel=0 note=57 velocity=100 time=0
note_on channel=0 note=52 velocity=100 time=0
note_off channel=0 note=45 velocity=0 time=384
note_off channel=0 note=61 velocity=0 time=0
note_off channel=0 note=64 velocity=0 time=0
note_off channel=0 note=57 velocity=100 time=0
note_off channel=0 note=52 velocity=100 time=0
note_on channel=0 note=59 velocity=117 time=0
note_on channel=0 note=47 velocity=117 time=0
note_on channel=0 note=71 velocity=117 time=0
note_off channel=0 note=59 velocity=0 time=64
note_off channel=0 note=47 velocity=0 time=0
note_off channel=0 note=71 velocity=0 time=0
note_on channel=0 note=56 velocity=127 time=32
note_on channel=0 note=44 velocity=127 time=0
note_on channel=0 note=68 velocity=127 time=0
note_off channel=0 note=56 velocity=0 time=128
note_off channel=0 note=44 velocity=0 time=0
note_off channel=0 note=68 velocity=0 time=0
note_on channel=0 note=59 velocity=109 time=64
note_on channel=0 note=47 velocity=109 time=0
note_on channel=0 note=71 velocity=109 time=0
note_off channel=0 note=59 velocity=0 time=64
note_off channel=0 note=47 velocity=0 time=0
note_off channel=0 note=71 velocity=0 time=0
note_on channel=0 note=57 velocity=97 time=32
note_on channel=0 note=45 velocity=97 time=0
note_on channel=0 note=69 velocity=97 time=0
note_off channel=0 note=57 velocity=0 time=128
note_off channel=0 note=45 velocity=0 time=0
note_off channel=0 note=69 velocity=0 time=0
note_on channel=0 note=59 velocity=111 time=64
note_on channel=0 note=47 velocity=111 time=0
note_on channel=0 note=71 velocity=111 time=0
note_off channel=0 note=59 velocity=0 time=64
note_off channel=0 note=47 velocity=0 time=0
note_off channel=0 note=71 velocity=0 time=0
note_on channel=0 note=58 velocity=108 time=32
note_on channel=0 note=46 velocity=108 time=0
note_on channel=0 note=70 velocity=108 time=0
note_off channel=0 note=58 velocity=0 time=128
note_off channel=0 note=46 velocity=0 time=0
note_off channel=0 note=70 velocity=0 time=0
note_on channel=0 note=59 velocity=103 time=64
note_on channel=0 note=47 velocity=103 time=0
note_on channel=0 note=71 velocity=103 time=0
note_off channel=0 note=59 velocity=0 time=64
note_off channel=0 note=47 velocity=0 time=0
note_off channel=0 note=71 velocity=0 time=0
note_on channel=0 note=58 velocity=119 time=32
note_on channel=0 note=46 velocity=119 time=0
note_on channel=0 note=70 velocity=119 time=0
note_off channel=0 note=58 velocity=0 time=64
note_off channel=0 note=46 velocity=0 time=0
note_off channel=0 note=70 velocity=0 time=0
note_on channel=0 note=59 velocity=100 time=32
note_on channel=0 note=47 velocity=100 time=0
note_on channel=0 note=71 velocity=100 time=0
note_off channel=0 note=59 velocity=100 time=64
note_off channel=0 note=47 velocity=100 time=0
note_off channel=0 note=71 velocity=100 time=0
note_on channel=0 note=69 velocity=101 time=28
note_on channel=0 note=76 velocity=127 time=0
note_off channel=0 note=69 velocity=0 time=4
note_off channel=0 note=76 velocity=0 time=0
note_on channel=0 note=69 velocity=45 time=216
note_on channel=0 note=64 velocity=127 time=0
note_on channel=0 note=81 velocity=45 time=0
note_on channel=0 note=76 velocity=127 time=0
note_on channel=0 note=57 velocity=127 time=16
note_on channel=0 note=69 velocity=127 time=0
note_off channel=0 note=69 velocity=0 time=188
note_off channel=0 note=81 velocity=0 time=0
note_off channel=0 note=64 velocity=0 time=8
note_off channel=0 note=76 velocity=0 time=0
note_off channel=0 note=57 velocity=0 time=84
note_off channel=0 note=69 velocity=0 time=0
note_on channel=0 note=59 velocity=110 time=0
note_on channel=0 note=71 velocity=110 time=0
note_off channel=0 note=59 velocity=0 time=16
note_off channel=0 note=71 velocity=0 time=0
note_on channel=0 note=52 velocity=127 time=4
note_on channel=0 note=59 velocity=124 time=0
note_on channel=0 note=64 velocity=127 time=0
note_on channel=0 note=71 velocity=124 time=0
note_off channel=0 note=59 velocity=0 time=108
note_off channel=0 note=71 velocity=0 time=0
note_on channel=0 note=59 velocity=127 time=68
note_on channel=0 note=71 velocity=127 time=0
note_on channel=0 note=66 velocity=127 time=4
note_on channel=0 note=71 velocity=58 time=0
note_on channel=0 note=78 velocity=127 time=0
note_on channel=0 note=83 velocity=58 time=0
note_off channel=0 note=52 velocity=0 time=44
note_off channel=0 note=64 velocity=0 time=0
note_off channel=0 note=59 velocity=0 time=228
note_off channel=0 note=71 velocity=0 time=0
note_off channel=0 note=66 velocity=0 time=60
note_off channel=0 note=78 velocity=0 time=0
note_off channel=0 note=71 velocity=0 time=4
note_off channel=0 note=83 velocity=0 time=0
note_on channel=0 note=69 velocity=34 time=0
note_on channel=0 note=81 velocity=34 time=0
note_on channel=0 note=64 velocity=121 time=12
note_on channel=0 note=76 velocity=121 time=0
note_on channel=0 note=57 velocity=127 time=20
note_on channel=0 note=69 velocity=127 time=0
note_off channel=0 note=64 velocity=0 time=112
note_off channel=0 note=76 velocity=0 time=0
note_off channel=0 note=69 velocity=0 time=8
note_off channel=0 note=81 velocity=0 time=0
note_on channel=0 note=67 velocity=30 time=0
note_on channel=0 note=79 velocity=30 time=0
note_off channel=0 note=67 velocity=0 time=76
note_off channel=0 note=79 velocity=0 time=0
note_on channel=0 note=66 velocity=127 time=4
note_on channel=0 note=67 velocity=77 time=0
note_on channel=0 note=78 velocity=127 time=0
note_on channel=0 note=79 velocity=77 time=0
note_off channel=0 note=57 velocity=0 time=20
note_off channel=0 note=69 velocity=0 time=0
note_off channel=0 note=67 velocity=0 time=0
note_off channel=0 note=79 velocity=0 time=0
note_on channel=0 note=59 velocity=127 time=0
note_on channel=0 note=71 velocity=75 time=0
note_on channel=0 note=71 velocity=127 time=0
note_on channel=0 note=83 velocity=75 time=0
note_off channel=0 note=59 velocity=0 time=112
note_off channel=0 note=71 velocity=0 time=0
note_off channel=0 note=71 velocity=0 time=0
note_off channel=0 note=83 velocity=0 time=0
note_off channel=0 note=66 velocity=0 time=4
note_off channel=0 note=78 velocity=0 time=0
note_on channel=0 note=69 velocity=45 time=336
note_on channel=0 note=64 velocity=127 time=0
note_on channel=0 note=81 velocity=45 time=0
note_on channel=0 note=76 velocity=127 time=0
note_on channel=0 note=57 velocity=127 time=16
note_on channel=0 note=69 velocity=127 time=0
note_off channel=0 note=69 velocity=0 time=188
note_off channel=0 note=81 velocity=0 time=0
note_off channel=0 note=64 velocity=0 time=8
note_off channel=0 note=76 velocity=0 time=0
note_off channel=0 note=57 velocity=0 time=84
note_off channel=0 note=69 velocity=0 time=0
note_on channel=0 note=59 velocity=110 time=0
note_on channel=0 note=71 velocity=110 time=0
note_off channel=0 note=59 velocity=0 time=16
note_off channel=0 note=71 velocity=0 time=0
note_on channel=0 note=52 velocity=127 time=4
note_on channel=0 note=59 velocity=124 time=0
note_on channel=0 note=64 velocity=127 time=0
note_on channel=0 note=71 velocity=124 time=0
note_off channel=0 note=59 velocity=0 time=108
note_off channel=0 note=71 velocity=0 time=0
note_on channel=0 note=59 velocity=127 time=68
note_on channel=0 note=71 velocity=127 time=0
note_on channel=0 note=66 velocity=127 time=4
note_on channel=0 note=71 velocity=58 time=0
note_on channel=0 note=78 velocity=127 time=0
note_on channel=0 note=83 velocity=58 time=0
note_off channel=0 note=52 velocity=0 time=44
note_off channel=0 note=64 velocity=0 time=0
note_off channel=0 note=59 velocity=0 time=228
note_off channel=0 note=71 velocity=0 time=0
note_off channel=0 note=66 velocity=0 time=60
note_off channel=0 note=78 velocity=0 time=0
note_off channel=0 note=71 velocity=0 time=4
note_off channel=0 note=83 velocity=0 time=0
note_on channel=0 note=69 velocity=34 time=0
note_on channel=0 note=81 velocity=34 time=0
note_on channel=0 note=64 velocity=121 time=12
note_on channel=0 note=76 velocity=121 time=0
note_on channel=0 note=57 velocity=127 time=20
note_on channel=0 note=69 velocity=127 time=0
note_off channel=0 note=64 velocity=0 time=112
note_off channel=0 note=76 velocity=0 time=0
note_off channel=0 note=69 velocity=0 time=8
note_off channel=0 note=81 velocity=0 time=0
note_on channel=0 note=67 velocity=30 time=0
note_on channel=0 note=79 velocity=30 time=0
note_off channel=0 note=67 velocity=0 time=76
note_off channel=0 note=79 velocity=0 time=0
note_on channel=0 note=66 velocity=127 time=4
note_on channel=0 note=67 velocity=77 time=0
note_on channel=0 note=78 velocity=127 time=0
note_on channel=0 note=79 velocity=77 time=0
note_off channel=0 note=57 velocity=0 time=20
note_off channel=0 note=69 velocity=0 time=0
note_off channel=0 note=67 velocity=0 time=0
note_off channel=0 note=79 velocity=0 time=0
note_on channel=0 note=59 velocity=127 time=0
note_on channel=0 note=71 velocity=75 time=0
note_on channel=0 note=71 velocity=127 time=0
note_on channel=0 note=83 velocity=75 time=0
note_off channel=0 note=59 velocity=0 time=112
note_off channel=0 note=71 velocity=0 time=0
note_off channel=0 note=71 velocity=0 time=0
note_off channel=0 note=83 velocity=0 time=0
note_off channel=0 note=66 velocity=0 time=4
note_off channel=0 note=78 velocity=0 time=0
note_on channel=0 note=74 velocity=24 time=264
note_on channel=0 note=67 velocity=127 time=24
note_on channel=0 note=79 velocity=127 time=8
note_on channel=0 note=62 velocity=127 time=36
note_off channel=0 note=79 velocity=0 time=112
note_off channel=0 note=74 velocity=0 time=8
note_off channel=0 note=67 velocity=0 time=120
note_off channel=0 note=62 velocity=0 time=32
note_on channel=0 note=62 velocity=127 time=4
note_on channel=0 note=78 velocity=127 time=16
note_on channel=0 note=74 velocity=127 time=0
note_on channel=0 note=69 velocity=127 time=12
note_off channel=0 note=69 velocity=0 time=108
note_off channel=0 note=78 velocity=0 time=8
note_off channel=0 note=74 velocity=0 time=12
note_off channel=0 note=62 velocity=0 time=120
note_on channel=0 note=62 velocity=126 time=4
note_on channel=0 note=57 velocity=127 time=12
note_on channel=0 note=69 velocity=127 time=12
note_off channel=0 note=62 velocity=0 time=28
note_on channel=0 note=64 velocity=125 time=0
note_off channel=0 note=57 velocity=0 time=228
note_off channel=0 note=64 velocity=0 time=36
note_on channel=0 note=55 velocity=127 time=4
note_on channel=0 note=60 velocity=127 time=16
note_off channel=0 note=60 velocity=0 time=0
note_off channel=0 note=55 velocity=0 time=116
note_off channel=0 note=69 velocity=0 time=12
note_on channel=0 note=69 velocity=127 time=4
note_on channel=0 note=57 velocity=127 time=12
note_on channel=0 note=64 velocity=127 time=8
note_on channel=0 note=57 velocity=127 time=280
note_off channel=0 note=69 velocity=0 time=80
note_off channel=0 note=64 velocity=0 time=4
note_on channel=0 note=79 velocity=127 time=68
note_off channel=0 note=57 velocity=0 time=4
note_on channel=0 note=74 velocity=127 time=4
note_on channel=0 note=55 velocity=127 time=0
note_on channel=0 note=62 velocity=127 time=8
note_on channel=0 note=67 velocity=127 time=28
note_off channel=0 note=55 velocity=0 time=96
note_off channel=0 note=74 velocity=0 time=20
note_off channel=0 note=79 velocity=0 time=4
note_off channel=0 note=57 velocity=0 time=128
note_off channel=0 note=67 velocity=0 time=0
note_on channel=0 note=78 velocity=127 time=32
note_on channel=0 note=74 velocity=127 time=0
note_on channel=0 note=69 velocity=127 time=0
note_on channel=0 note=62 velocity=100 time=4
note_off channel=0 note=62 velocity=100 time=128
note_off channel=0 note=69 velocity=0 time=20
note_off channel=0 note=78 velocity=0 time=20
note_off channel=0 note=74 velocity=0 time=24
note_off channel=0 note=62 velocity=0 time=84
note_on channel=0 note=64 velocity=109 time=0
note_on channel=0 note=57 velocity=127 time=12
note_on channel=0 note=69 velocity=127 time=24
note_off channel=0 note=64 velocity=0 time=276
note_off channel=0 note=57 velocity=0 time=0
note_on channel=0 note=55 velocity=127 time=12
note_off channel=0 note=55 velocity=0 time=144
note_off channel=0 note=69 velocity=0 time=8
note_on channel=0 note=69 velocity=103 time=8
note_on channel=0 note=58 velocity=127 time=0
note_on channel=0 note=65 velocity=127 time=12
note_off channel=0 note=58 velocity=0 time=60
note_on channel=0 note=57 velocity=127 time=0
note_off channel=0 note=65 velocity=0 time=24
note_on channel=0 note=64 velocity=127 time=4
note_off channel=0 note=69 velocity=0 time=376
note_off channel=0 note=64 velocity=0 time=0
note_on channel=0 note=69 velocity=45 time=36
note_on channel=0 note=64 velocity=127 time=0
note_on channel=0 note=81 velocity=45 time=0
note_on channel=0 note=76 velocity=127 time=0
note_on channel=0 note=57 velocity=127 time=16
note_on channel=0 note=69 velocity=127 time=0
note_off channel=0 note=57 velocity=0 time=16
note_off channel=0 note=69 velocity=0 time=172
note_off channel=0 note=81 velocity=0 time=0
note_off channel=0 note=64 velocity=0 time=8
note_off channel=0 note=76 velocity=0 time=0
note_off channel=0 note=57 velocity=0 time=84
note_off channel=0 note=69 velocity=0 time=0
note_on channel=0 note=59 velocity=110 time=0
note_on channel=0 note=71 velocity=110 time=0
note_off channel=0 note=59 velocity=0 time=16
note_off channel=0 note=71 velocity=0 time=0
note_on channel=0 note=52 velocity=127 time=4
note_on channel=0 note=59 velocity=124 time=0
note_on channel=0 note=64 velocity=127 time=0
note_on channel=0 note=71 velocity=124 time=0
note_off channel=0 note=59 velocity=0 time=108
note_off channel=0 note=71 velocity=0 time=0
note_on channel=0 note=59 velocity=127 time=68
note_on channel=0 note=71 velocity=127 time=0
note_on channel=0 note=66 velocity=127 time=4
note_on channel=0 note=71 velocity=58 time=0
note_on channel=0 note=78 velocity=127 time=0
note_on channel=0 note=83 velocity=58 time=0
note_off channel=0 note=52 velocity=0 time=44
note_off channel=0 note=64 velocity=0 time=0
note_off channel=0 note=59 velocity=0 time=228
note_off channel=0 note=71 velocity=0 time=0
note_off channel=0 note=66 velocity=0 time=60
note_off channel=0 note=78 velocity=0 time=0
note_off channel=0 note=71 velocity=0 time=4
note_off channel=0 note=83 velocity=0 time=0
note_on channel=0 note=69 velocity=34 time=0
note_on channel=0 note=81 velocity=34 time=0
note_on channel=0 note=64 velocity=121 time=12
note_on channel=0 note=76 velocity=121 time=0
note_on channel=0 note=57 velocity=127 time=20
note_on channel=0 note=69 velocity=127 time=0
note_off channel=0 note=64 velocity=0 time=112
note_off channel=0 note=76 velocity=0 time=0
note_off channel=0 note=69 velocity=0 time=8
note_off channel=0 note=81 velocity=0 time=0
note_on channel=0 note=67 velocity=30 time=0
note_on channel=0 note=79 velocity=30 time=0
note_off channel=0 note=67 velocity=0 time=76
note_off channel=0 note=79 velocity=0 time=0
note_on channel=0 note=66 velocity=127 time=4
note_on channel=0 note=67 velocity=77 time=0
note_on channel=0 note=78 velocity=127 time=0
note_on channel=0 note=79 velocity=77 time=0
note_off channel=0 note=57 velocity=0 time=20
note_off channel=0 note=69 velocity=0 time=0
note_off channel=0 note=67 velocity=0 time=0
note_off channel=0 note=79 velocity=0 time=0
note_on channel=0 note=59 velocity=127 time=0
note_on channel=0 note=71 velocity=75 time=0
note_on channel=0 note=71 velocity=127 time=0
note_on channel=0 note=83 velocity=75 time=0
note_off channel=0 note=59 velocity=0 time=112
note_off channel=0 note=71 velocity=0 time=0
note_off channel=0 note=71 velocity=0 time=0
note_off channel=0 note=83 velocity=0 time=0
note_off channel=0 note=66 velocity=0 time=4
note_off channel=0 note=78 velocity=0 time=0
note_on channel=0 note=69 velocity=45 time=336
note_on channel=0 note=64 velocity=127 time=0
note_on channel=0 note=81 velocity=45 time=0
note_on channel=0 note=76 velocity=127 time=0
note_on channel=0 note=57 velocity=127 time=16
note_on channel=0 note=69 velocity=127 time=0
note_off channel=0 note=69 velocity=0 time=188
note_off channel=0 note=81 velocity=0 time=0
note_off channel=0 note=64 velocity=0 time=8
note_off channel=0 note=76 velocity=0 time=0
note_off channel=0 note=57 velocity=0 time=84
note_off channel=0 note=69 velocity=0 time=0
note_on channel=0 note=59 velocity=110 time=0
note_on channel=0 note=71 velocity=110 time=0
note_off channel=0 note=59 velocity=0 time=16
note_off channel=0 note=71 velocity=0 time=0
note_on channel=0 note=52 velocity=127 time=4
note_on channel=0 note=59 velocity=124 time=0
note_on channel=0 note=64 velocity=127 time=0
note_on channel=0 note=71 velocity=124 time=0
note_off channel=0 note=59 velocity=0 time=108
note_off channel=0 note=71 velocity=0 time=0
note_on channel=0 note=59 velocity=127 time=68
note_on channel=0 note=71 velocity=127 time=0
note_on channel=0 note=66 velocity=127 time=4
note_on channel=0 note=71 velocity=58 time=0
note_on channel=0 note=78 velocity=127 time=0
note_on channel=0 note=83 velocity=58 time=0
note_off channel=0 note=52 velocity=0 time=44
note_off channel=0 note=64 velocity=0 time=0
note_off channel=0 note=59 velocity=0 time=228
note_off channel=0 note=71 velocity=0 time=0
note_off channel=0 note=66 velocity=0 time=60
note_off channel=0 note=78 velocity=0 time=0
note_off channel=0 note=71 velocity=0 time=4
note_off channel=0 note=83 velocity=0 time=0
note_on channel=0 note=69 velocity=34 time=0
note_on channel=0 note=81 velocity=34 time=0
note_on channel=0 note=64 velocity=121 time=12
note_on channel=0 note=76 velocity=121 time=0
note_on channel=0 note=57 velocity=127 time=20
note_on channel=0 note=69 velocity=127 time=0
note_off channel=0 note=64 velocity=0 time=112
note_off channel=0 note=76 velocity=0 time=0
note_off channel=0 note=69 velocity=0 time=8
note_off channel=0 note=81 velocity=0 time=0
note_on channel=0 note=67 velocity=30 time=0
note_on channel=0 note=79 velocity=30 time=0
note_off channel=0 note=67 velocity=0 time=76
note_off channel=0 note=79 velocity=0 time=0
note_on channel=0 note=66 velocity=127 time=4
note_on channel=0 note=67 velocity=77 time=0
note_on channel=0 note=78 velocity=127 time=0
note_on channel=0 note=79 velocity=77 time=0
note_off channel=0 note=57 velocity=0 time=20
note_off channel=0 note=69 velocity=0 time=0
note_off channel=0 note=67 velocity=0 time=0
note_off channel=0 note=79 velocity=0 time=0
note_on channel=0 note=59 velocity=127 time=0
note_on channel=0 note=71 velocity=75 time=0
note_on channel=0 note=71 velocity=127 time=0
note_on channel=0 note=83 velocity=75 time=0
note_off channel=0 note=59 velocity=0 time=112
note_off channel=0 note=71 velocity=0 time=0
note_off channel=0 note=71 velocity=0 time=0
note_off channel=0 note=83 velocity=0 time=0
note_off channel=0 note=66 velocity=0 time=4
note_off channel=0 note=78 velocity=0 time=0
note_on channel=0 note=50 velocity=76 time=120
note_on channel=0 note=55 velocity=127 time=0
note_on channel=0 note=67 velocity=89 time=0
note_on channel=0 note=62 velocity=95 time=0
note_on channel=0 note=59 velocity=127 time=0
note_off channel=0 note=50 velocity=0 time=192
note_off channel=0 note=55 velocity=0 time=0
note_off channel=0 note=67 velocity=0 time=0
note_off channel=0 note=62 velocity=0 time=0
note_off channel=0 note=59 velocity=0 time=0
note_on channel=0 note=50 velocity=76 time=96
note_on channel=0 note=55 velocity=127 time=0
note_on channel=0 note=67 velocity=89 time=0
note_on channel=0 note=62 velocity=95 time=0
note_on channel=0 note=59 velocity=127 time=0
note_off channel=0 note=50 velocity=0 time=192
note_off channel=0 note=55 velocity=0 time=0
note_off channel=0 note=67 velocity=0 time=0
note_off channel=0 note=62 velocity=0 time=0
note_off channel=0 note=59 velocity=0 time=0
note_on channel=0 note=50 velocity=76 time=96
note_on channel=0 note=55 velocity=127 time=0
note_on channel=0 note=67 velocity=89 time=0
note_on channel=0 note=62 velocity=95 time=0
note_on channel=0 note=59 velocity=127 time=0
note_off channel=0 note=50 velocity=0 time=192
note_off channel=0 note=55 velocity=0 time=0
note_off channel=0 note=67 velocity=0 time=0
note_off channel=0 note=62 velocity=0 time=0
note_off channel=0 note=59 velocity=0 time=0
note_on channel=0 note=50 velocity=54 time=96
note_on channel=0 note=55 velocity=124 time=0
note_on channel=0 note=59 velocity=127 time=0
note_on channel=0 note=62 velocity=65 time=0
note_on channel=0 note=67 velocity=65 time=0
note_off channel=0 note=50 velocity=0 time=64
note_off channel=0 note=55 velocity=0 time=0
note_off channel=0 note=59 velocity=0 time=0
note_off channel=0 note=62 velocity=0 time=0
note_off channel=0 note=67 velocity=0 time=0
note_on channel=0 note=59 velocity=39 time=32
note_on channel=0 note=67 velocity=65 time=0
note_on channel=0 note=49 velocity=42 time=0
note_off channel=0 note=59 velocity=0 time=64
note_off channel=0 note=67 velocity=0 time=0
note_off channel=0 note=49 velocity=0 time=0
note_on channel=0 note=50 velocity=54 time=32
note_on channel=0 note=59 velocity=121 time=0
note_on channel=0 note=55 velocity=107 time=0
note_on channel=0 note=62 velocity=69 time=0
note_on channel=0 note=67 velocity=71 time=0
note_off channel=0 note=50 velocity=0 time=64
note_off channel=0 note=59 velocity=0 time=0
note_off channel=0 note=55 velocity=0 time=0
note_off channel=0 note=62 velocity=0 time=0
note_off channel=0 note=67 velocity=0 time=0
note_on channel=0 note=50 velocity=64 time=32
note_on channel=0 note=55 velocity=118 time=0
note_on channel=0 note=59 velocity=127 time=0
note_on channel=0 note=62 velocity=66 time=0
note_on channel=0 note=67 velocity=63 time=0
note_off channel=0 note=50 velocity=0 time=128
note_off channel=0 note=55 velocity=0 time=0
note_off channel=0 note=59 velocity=0 time=0
note_off channel=0 note=62 velocity=0 time=0
note_off channel=0 note=67 velocity=0 time=0
note_on channel=0 note=50 velocity=68 time=64
note_on channel=0 note=55 velocity=127 time=0
note_on channel=0 note=59 velocity=127 time=0
note_on channel=0 note=62 velocity=89 time=0
note_on channel=0 note=67 velocity=107 time=0
note_off channel=0 note=50 velocity=0 time=128
note_off channel=0 note=55 velocity=0 time=0
note_off channel=0 note=59 velocity=0 time=0
note_off channel=0 note=62 velocity=0 time=0
note_off channel=0 note=67 velocity=0 time=0
note_on channel=0 note=50 velocity=127 time=64
note_on channel=0 note=66 velocity=127 time=0
note_on channel=0 note=57 velocity=127 time=0
note_on channel=0 note=62 velocity=121 time=0
note_off channel=0 note=50 velocity=0 time=192
note_off channel=0 note=66 velocity=0 time=0
note_off channel=0 note=57 velocity=0 time=0
note_off channel=0 note=62 velocity=0 time=0
note_on channel=0 note=50 velocity=127 time=96
note_on channel=0 note=62 velocity=107 time=0
note_on channel=0 note=66 velocity=107 time=0
note_on channel=0 note=57 velocity=127 time=0
note_off channel=0 note=50 velocity=0 time=192
note_off channel=0 note=62 velocity=0 time=0
note_off channel=0 note=66 velocity=0 time=0
note_off channel=0 note=57 velocity=0 time=0
note_on channel=0 note=50 velocity=127 time=96
note_on channel=0 note=62 velocity=104 time=0
note_on channel=0 note=66 velocity=118 time=0
note_on channel=0 note=57 velocity=127 time=0
note_off channel=0 note=50 velocity=0 time=512
note_off channel=0 note=62 velocity=0 time=0
note_off channel=0 note=66 velocity=0 time=0
note_off channel=0 note=57 velocity=0 time=0
note_on channel=0 note=64 velocity=127 time=448
note_on channel=0 note=52 velocity=127 time=0
note_on channel=0 note=59 velocity=127 time=4
note_off channel=0 note=52 velocity=0 time=188
note_off channel=0 note=59 velocity=0 time=8
note_off channel=0 note=64 velocity=0 time=4
note_on channel=0 note=50 velocity=127 time=412
note_on channel=0 note=57 velocity=127 time=0
note_on channel=0 note=40 velocity=127 time=4
note_on channel=0 note=62 velocity=121 time=0
note_off channel=0 note=57 velocity=0 time=84
note_on channel=0 note=57 velocity=127 time=0
note_off channel=0 note=50 velocity=0 time=84
note_off channel=0 note=57 velocity=0 time=4
note_on channel=0 note=50 velocity=127 time=0
note_off channel=0 note=62 velocity=0 time=8
note_on channel=0 note=57 velocity=127 time=0
note_on channel=0 note=62 velocity=127 time=4
note_off channel=0 note=50 velocity=0 time=176
note_off channel=0 note=57 velocity=0 time=12
note_off channel=0 note=62 velocity=0 time=4
note_off channel=0 note=40 velocity=0 time=28
note_on channel=0 note=49 velocity=127 time=340
note_on channel=0 note=62 velocity=126 time=4
note_on channel=0 note=57 velocity=127 time=0
note_on channel=0 note=40 velocity=127 time=0
note_off channel=0 note=57 velocity=0 time=96
note_on channel=0 note=57 velocity=127 time=4
note_on channel=0 note=40 velocity=127 time=60
note_off channel=0 note=40 velocity=0 time=8
note_on channel=0 note=66 velocity=122 time=24
note_off channel=0 note=49 velocity=0 time=192
note_off channel=0 note=66 velocity=0 time=0
note_off channel=0 note=62 velocity=0 time=12
note_off channel=0 note=57 velocity=0 time=0
note_off channel=0 note=40 velocity=0 time=136
note_on channel=0 note=59 velocity=127 time=236
note_on channel=0 note=52 velocity=127 time=0
note_on channel=0 note=40 velocity=127 time=0
note_on channel=0 note=64 velocity=127 time=20
note_off channel=0 note=59 velocity=0 time=60
note_on channel=0 note=59 velocity=127 time=4
note_off channel=0 note=40 velocity=0 time=48
note_off channel=0 note=52 velocity=0 time=24
note_off channel=0 note=64 velocity=0 time=4
note_on channel=0 note=64 velocity=127 time=28
note_on channel=0 note=68 velocity=127 time=8
note_off channel=0 note=68 velocity=0 time=144
note_off channel=0 note=64 velocity=0 time=12
note_off channel=0 note=59 velocity=0 time=8
note_on channel=0 note=59 velocity=127 time=24
note_on channel=0 note=52 velocity=127 time=0
note_on channel=0 note=40 velocity=127 time=0
note_on channel=0 note=64 velocity=127 time=20
note_off channel=0 note=59 velocity=0 time=60
note_on channel=0 note=59 velocity=127 time=4
note_off channel=0 note=64 velocity=0 time=104
note_on channel=0 note=64 velocity=127 time=0
note_on channel=0 note=68 velocity=127 time=8
note_off channel=0 note=68 velocity=0 time=144
note_off channel=0 note=64 velocity=0 time=12
note_off channel=0 note=52 velocity=0 time=4
note_off channel=0 note=59 velocity=0 time=4
note_on channel=0 note=59 velocity=127 time=24
note_on channel=0 note=52 velocity=127 time=0
note_on channel=0 note=40 velocity=127 time=0
note_on channel=0 note=64 velocity=127 time=20
note_off channel=0 note=59 velocity=0 time=60
note_on channel=0 note=59 velocity=127 time=4
note_off channel=0 note=40 velocity=0 time=8
note_on channel=0 note=40 velocity=127 time=76
note_on channel=0 note=64 velocity=127 time=0
note_on channel=0 note=52 velocity=127 time=0
note_on channel=0 note=59 velocity=127 time=4
note_off channel=0 note=64 velocity=0 time=16
note_off channel=0 note=40 velocity=0 time=160
note_off channel=0 note=52 velocity=0 time=8
note_off channel=0 note=59 velocity=0 time=4
note_off channel=0 note=52 velocity=0 time=0
note_off channel=0 note=59 velocity=0 time=8
note_off channel=0 note=64 velocity=0 time=4
note_off channel=0 note=40 velocity=0 time=104
note_on channel=0 note=50 velocity=127 time=308
note_on channel=0 note=57 velocity=127 time=0
note_on channel=0 note=40 velocity=127 time=4
note_on channel=0 note=62 velocity=121 time=0
note_off channel=0 note=57 velocity=0 time=84
note_on channel=0 note=57 velocity=127 time=0
note_off channel=0 note=50 velocity=0 time=84
note_off channel=0 note=57 velocity=0 time=4
note_on channel=0 note=50 velocity=127 time=0
note_off channel=0 note=62 velocity=0 time=8
note_on channel=0 note=57 velocity=127 time=0
note_on channel=0 note=62 velocity=127 time=4
note_off channel=0 note=50 velocity=0 time=176
note_off channel=0 note=57 velocity=0 time=12
note_off channel=0 note=62 velocity=0 time=4
note_off channel=0 note=40 velocity=0 time=28
note_on channel=0 note=49 velocity=127 time=340
note_on channel=0 note=62 velocity=126 time=4
note_on channel=0 note=57 velocity=127 time=0
note_off channel=0 note=57 velocity=0 time=96
note_on channel=0 note=57 velocity=127 time=4
note_on channel=0 note=40 velocity=127 time=60
note_off channel=0 note=40 velocity=0 time=8
note_on channel=0 note=66 velocity=122 time=24
note_off channel=0 note=49 velocity=0 time=192
note_off channel=0 note=66 velocity=0 time=0
note_off channel=0 note=62 velocity=0 time=12
note_off channel=0 note=57 velocity=0 time=0
note_on channel=0 note=52 velocity=127 time=372
note_on channel=0 note=59 velocity=127 time=4
note_on channel=0 note=57 velocity=127 time=164
note_on channel=0 note=73 velocity=127 time=0
note_on channel=0 note=69 velocity=127 time=0
note_on channel=0 note=64 velocity=127 time=0
note_off channel=0 note=52 velocity=0 time=24
note_off channel=0 note=59 velocity=0 time=8
note_off channel=0 note=64 velocity=0 time=232
note_off channel=0 note=73 velocity=0 time=8
note_off channel=0 note=69 velocity=0 time=12
note_on channel=0 note=52 velocity=127 time=0
note_on channel=0 note=68 velocity=100 time=0
note_on channel=0 note=71 velocity=127 time=0
note_on channel=0 note=59 velocity=127 time=0
note_on channel=0 note=64 velocity=127 time=0
note_off channel=0 note=57 velocity=0 time=4
note_off channel=0 note=59 velocity=0 time=248
note_off channel=0 note=71 velocity=0 time=16
note_off channel=0 note=64 velocity=0 time=0
note_off channel=0 note=52 velocity=0 time=24
note_off channel=0 note=68 velocity=100 time=4
note_on channel=0 note=52 velocity=127 time=16
note_on channel=0 note=57 velocity=127 time=0
note_on channel=0 note=73 velocity=127 time=8
note_on channel=0 note=69 velocity=127 time=0
note_on channel=0 note=78 velocity=127 time=0
note_on channel=0 note=64 velocity=127 time=4
note_on channel=0 note=40 velocity=127 time=160
note_on channel=0 note=64 velocity=127 time=0
note_on channel=0 note=52 velocity=127 time=0
note_on channel=0 note=59 velocity=127 time=4
note_off channel=0 note=52 velocity=0 time=16
note_off channel=0 note=57 velocity=0 time=0
note_off channel=0 note=78 velocity=0 time=4
note_off channel=0 note=64 velocity=0 time=0
note_off channel=0 note=69 velocity=0 time=20
note_off channel=0 note=73 velocity=0 time=4
note_off channel=0 note=40 velocity=0 time=132
note_off channel=0 note=52 velocity=0 time=12
note_off channel=0 note=59 velocity=0 time=8
note_off channel=0 note=64 velocity=0 time=4
note_on channel=0 note=50 velocity=127 time=412
note_on channel=0 note=57 velocity=127 time=0
note_on channel=0 note=40 velocity=127 time=4
note_on channel=0 note=62 velocity=121 time=0
note_off channel=0 note=57 velocity=0 time=84
note_on channel=0 note=57 velocity=127 time=0
note_off channel=0 note=50 velocity=0 time=84
note_off channel=0 note=57 velocity=0 time=4
note_on channel=0 note=50 velocity=127 time=0
note_off channel=0 note=62 velocity=0 time=8
note_on channel=0 note=57 velocity=127 time=0
note_on channel=0 note=62 velocity=127 time=4
note_off channel=0 note=50 velocity=0 time=176
note_off channel=0 note=57 velocity=0 time=12
note_off channel=0 note=62 velocity=0 time=4
note_off channel=0 note=40 velocity=0 time=28
note_on channel=0 note=49 velocity=127 time=340
note_on channel=0 note=62 velocity=126 time=4
note_on channel=0 note=57 velocity=127 time=0
note_on channel=0 note=40 velocity=127 time=0
note_off channel=0 note=57 velocity=0 time=96
note_on channel=0 note=57 velocity=127 time=4
note_on channel=0 note=40 velocity=127 time=60
note_off channel=0 note=40 velocity=0 time=8
note_on channel=0 note=66 velocity=122 time=24
note_off channel=0 note=49 velocity=0 time=192
note_off channel=0 note=66 velocity=0 time=0
note_off channel=0 note=62 velocity=0 time=12
note_off channel=0 note=57 velocity=0 time=0
note_off channel=0 note=40 velocity=0 time=136
note_on channel=0 note=59 velocity=127 time=236
note_on channel=0 note=52 velocity=127 time=0
note_on channel=0 note=40 velocity=127 time=0
note_on channel=0 note=64 velocity=127 time=20
note_off channel=0 note=59 velocity=0 time=60
note_on channel=0 note=59 velocity=127 time=4
note_off channel=0 note=40 velocity=0 time=48
note_off channel=0 note=52 velocity=0 time=24
note_off channel=0 note=64 velocity=0 time=4
note_on channel=0 note=64 velocity=127 time=28
note_on channel=0 note=68 velocity=127 time=8
note_off channel=0 note=68 velocity=0 time=144
note_off channel=0 note=64 velocity=0 time=12
note_off channel=0 note=59 velocity=0 time=8
note_on channel=0 note=59 velocity=127 time=24
note_on channel=0 note=52 velocity=127 time=0
note_on channel=0 note=40 velocity=127 time=0
note_on channel=0 note=64 velocity=127 time=20
note_off channel=0 note=59 velocity=0 time=60
note_on channel=0 note=59 velocity=127 time=4
note_off channel=0 note=64 velocity=0 time=104
note_on channel=0 note=64 velocity=127 time=0
note_on channel=0 note=68 velocity=127 time=8
note_off channel=0 note=68 velocity=0 time=144
note_off channel=0 note=64 velocity=0 time=12
note_off channel=0 note=52 velocity=0 time=4
note_off channel=0 note=59 velocity=0 time=4
note_on channel=0 note=59 velocity=127 time=24
note_on channel=0 note=52 velocity=127 time=0
note_on channel=0 note=40 velocity=127 time=0
note_on channel=0 note=64 velocity=127 time=20
note_off channel=0 note=59 velocity=0 time=60
note_on channel=0 note=59 velocity=127 time=4
note_off channel=0 note=40 velocity=0 time=8
note_on channel=0 note=40 velocity=127 time=76
note_on channel=0 note=64 velocity=127 time=0
note_on channel=0 note=52 velocity=127 time=0
note_on channel=0 note=59 velocity=127 time=4
note_off channel=0 note=64 velocity=0 time=16
note_off channel=0 note=40 velocity=0 time=160
note_off channel=0 note=52 velocity=0 time=8
note_off channel=0 note=59 velocity=0 time=4
note_off channel=0 note=52 velocity=0 time=0
note_off channel=0 note=59 velocity=0 time=8
note_off channel=0 note=64 velocity=0 time=4
note_off channel=0 note=40 velocity=0 time=104
note_on channel=0 note=50 velocity=127 time=308
note_on channel=0 note=57 velocity=127 time=0
note_on channel=0 note=40 velocity=127 time=4
note_on channel=0 note=62 velocity=121 time=0
note_off channel=0 note=57 velocity=0 time=84
note_on channel=0 note=57 velocity=127 time=0
note_off channel=0 note=50 velocity=0 time=84
note_off channel=0 note=57 velocity=0 time=4
note_on channel=0 note=50 velocity=127 time=0
note_off channel=0 note=62 velocity=0 time=8
note_on channel=0 note=57 velocity=127 time=0
note_on channel=0 note=62 velocity=127 time=4
note_off channel=0 note=50 velocity=0 time=176
note_off channel=0 note=57 velocity=0 time=12
note_off channel=0 note=62 velocity=0 time=4
note_off channel=0 note=40 velocity=0 time=28
note_on channel=0 note=49 velocity=127 time=340
note_on channel=0 note=62 velocity=126 time=4
note_on channel=0 note=57 velocity=127 time=0
note_on channel=0 note=40 velocity=127 time=0
note_off channel=0 note=57 velocity=0 time=96
note_on channel=0 note=57 velocity=127 time=4
note_on channel=0 note=40 velocity=127 time=60
note_off channel=0 note=40 velocity=0 time=8
note_on channel=0 note=66 velocity=122 time=24
note_off channel=0 note=49 velocity=0 time=192
note_off channel=0 note=66 velocity=0 time=0
note_off channel=0 note=62 velocity=0 time=12
note_off channel=0 note=57 velocity=0 time=0
note_off channel=0 note=40 velocity=0 time=136
note_on channel=0 note=52 velocity=127 time=236
note_on channel=0 note=59 velocity=127 time=4
note_on channel=0 note=57 velocity=127 time=164
note_on channel=0 note=73 velocity=127 time=0
note_on channel=0 note=69 velocity=127 time=0
note_on channel=0 note=64 velocity=127 time=0
note_off channel=0 note=52 velocity=0 time=24
note_off channel=0 note=59 velocity=0 time=8
note_off channel=0 note=64 velocity=0 time=232
note_off channel=0 note=73 velocity=0 time=8
note_off channel=0 note=69 velocity=0 time=12
note_on channel=0 note=52 velocity=127 time=0
note_on channel=0 note=68 velocity=100 time=0
note_on channel=0 note=71 velocity=127 time=0
note_on channel=0 note=59 velocity=127 time=0
note_on channel=0 note=64 velocity=127 time=0
note_off channel=0 note=57 velocity=0 time=4
note_off channel=0 note=59 velocity=0 time=248
note_off channel=0 note=71 velocity=0 time=16
note_off channel=0 note=64 velocity=0 time=0
note_off channel=0 note=52 velocity=0 time=24
note_off channel=0 note=68 velocity=100 time=4
note_on channel=0 note=52 velocity=127 time=16
note_on channel=0 note=57 velocity=127 time=0
note_on channel=0 note=73 velocity=127 time=8
note_on channel=0 note=69 velocity=127 time=0
note_on channel=0 note=78 velocity=127 time=0
note_on channel=0 note=64 velocity=127 time=4
note_on channel=0 note=40 velocity=127 time=160
note_on channel=0 note=64 velocity=127 time=0
note_on channel=0 note=52 velocity=127 time=0
note_on channel=0 note=59 velocity=127 time=4
note_off channel=0 note=52 velocity=0 time=16
note_off channel=0 note=57 velocity=0 time=0
note_off channel=0 note=78 velocity=0 time=4
note_off channel=0 note=64 velocity=0 time=0
note_off channel=0 note=69 velocity=0 time=20
note_off channel=0 note=73 velocity=0 time=4
note_off channel=0 note=40 velocity=0 time=132
note_off channel=0 note=52 velocity=0 time=12
note_off channel=0 note=59 velocity=0 time=8
note_off channel=0 note=64 velocity=0 time=4
note_on channel=0 note=50 velocity=127 time=412
note_on channel=0 note=57 velocity=127 time=0
note_on channel=0 note=40 velocity=127 time=4
note_on channel=0 note=62 velocity=121 time=0
note_off channel=0 note=57 velocity=0 time=84
note_on channel=0 note=57 velocity=127 time=0
note_off channel=0 note=50 velocity=0 time=84
note_off channel=0 note=57 velocity=0 time=4
note_on channel=0 note=50 velocity=127 time=0
note_off channel=0 note=62 velocity=0 time=8
note_on channel=0 note=57 velocity=127 time=0
note_on channel=0 note=62 velocity=127 time=4
note_off channel=0 note=50 velocity=0 time=176
note_off channel=0 note=57 velocity=0 time=12
note_off channel=0 note=62 velocity=0 time=4
note_off channel=0 note=40 velocity=0 time=28
note_on channel=0 note=49 velocity=127 time=340
note_on channel=0 note=62 velocity=126 time=4
note_on channel=0 note=57 velocity=127 time=0
note_on channel=0 note=40 velocity=127 time=0
note_off channel=0 note=57 velocity=0 time=96
note_on channel=0 note=57 velocity=127 time=4
note_on channel=0 note=40 velocity=127 time=60
note_off channel=0 note=40 velocity=0 time=8
note_on channel=0 note=66 velocity=122 time=24
note_off channel=0 note=49 velocity=0 time=192
note_off channel=0 note=66 velocity=0 time=0
note_off channel=0 note=62 velocity=0 time=12
note_off channel=0 note=57 velocity=0 time=0
note_off channel=0 note=40 velocity=0 time=136
note_on channel=0 note=59 velocity=127 time=236
note_on channel=0 note=52 velocity=127 time=0
note_on channel=0 note=40 velocity=127 time=0
note_on channel=0 note=64 velocity=127 time=20
note_off channel=0 note=59 velocity=0 time=60
note_on channel=0 note=59 velocity=127 time=4
note_off channel=0 note=40 velocity=0 time=48
note_off channel=0 note=52 velocity=0 time=24
note_off channel=0 note=64 velocity=0 time=4
note_on channel=0 note=64 velocity=127 time=28
note_on channel=0 note=68 velocity=127 time=8
note_off channel=0 note=68 velocity=0 time=144
note_off channel=0 note=64 velocity=0 time=12
note_off channel=0 note=59 velocity=0 time=8
note_on channel=0 note=59 velocity=127 time=24
note_on channel=0 note=52 velocity=127 time=0
note_on channel=0 note=40 velocity=127 time=0
note_on channel=0 note=64 velocity=127 time=20
note_off channel=0 note=59 velocity=0 time=60
note_on channel=0 note=59 velocity=127 time=4
note_off channel=0 note=64 velocity=0 time=104
note_on channel=0 note=64 velocity=127 time=0
note_on channel=0 note=68 velocity=127 time=8
note_off channel=0 note=68 velocity=0 time=144
note_off channel=0 note=64 velocity=0 time=12
note_off channel=0 note=52 velocity=0 time=4
note_off channel=0 note=59 velocity=0 time=4
note_on channel=0 note=59 velocity=127 time=24
note_on channel=0 note=52 velocity=127 time=0
note_on channel=0 note=40 velocity=127 time=0
note_on channel=0 note=64 velocity=127 time=20
note_off channel=0 note=59 velocity=0 time=60
note_on channel=0 note=59 velocity=127 time=4
note_off channel=0 note=40 velocity=0 time=8
note_on channel=0 note=40 velocity=127 time=76
note_on channel=0 note=64 velocity=127 time=0
note_on channel=0 note=52 velocity=127 time=0
note_on channel=0 note=59 velocity=127 time=4
note_off channel=0 note=64 velocity=0 time=16
note_off channel=0 note=40 velocity=0 time=160
note_off channel=0 note=52 velocity=0 time=8
note_off channel=0 note=59 velocity=0 time=4
note_off channel=0 note=52 velocity=0 time=0
note_off channel=0 note=59 velocity=0 time=8
note_off channel=0 note=64 velocity=0 time=4
note_off channel=0 note=40 velocity=0 time=104
note_on channel=0 note=50 velocity=127 time=308
note_on channel=0 note=57 velocity=127 time=0
note_on channel=0 note=40 velocity=127 time=4
note_on channel=0 note=62 velocity=121 time=0
note_off channel=0 note=57 velocity=0 time=84
note_on channel=0 note=57 velocity=127 time=0
note_off channel=0 note=50 velocity=0 time=84
note_off channel=0 note=57 velocity=0 time=4
note_on channel=0 note=50 velocity=127 time=0
note_off channel=0 note=62 velocity=0 time=8
note_on channel=0 note=57 velocity=127 time=0
note_on channel=0 note=62 velocity=127 time=4
note_off channel=0 note=50 velocity=0 time=176
note_off channel=0 note=57 velocity=0 time=12
note_off channel=0 note=62 velocity=0 time=4
note_off channel=0 note=40 velocity=0 time=28
note_on channel=0 note=49 velocity=127 time=340
note_on channel=0 note=62 velocity=126 time=4
note_on channel=0 note=57 velocity=127 time=0
note_on channel=0 note=40 velocity=127 time=0
note_off channel=0 note=57 velocity=0 time=96
note_on channel=0 note=57 velocity=127 time=4
note_on channel=0 note=40 velocity=127 time=60
note_off channel=0 note=40 velocity=0 time=8
note_on channel=0 note=66 velocity=122 time=24
note_off channel=0 note=49 velocity=0 time=192
note_off channel=0 note=66 velocity=0 time=0
note_off channel=0 note=62 velocity=0 time=12
note_off channel=0 note=57 velocity=0 time=0
note_off channel=0 note=40 velocity=0 time=136
note_on channel=0 note=52 velocity=127 time=236
note_on channel=0 note=59 velocity=127 time=4
note_on channel=0 note=57 velocity=127 time=164
note_on channel=0 note=73 velocity=127 time=0
note_on channel=0 note=69 velocity=127 time=0
note_on channel=0 note=64 velocity=127 time=0
note_off channel=0 note=52 velocity=0 time=24
note_off channel=0 note=59 velocity=0 time=8
note_off channel=0 note=64 velocity=0 time=232
note_off channel=0 note=73 velocity=0 time=8
note_off channel=0 note=69 velocity=0 time=12
note_on channel=0 note=52 velocity=127 time=0
note_on channel=0 note=68 velocity=100 time=0
note_on channel=0 note=71 velocity=127 time=0
note_on channel=0 note=59 velocity=127 time=0
note_on channel=0 note=64 velocity=127 time=0
note_off channel=0 note=57 velocity=0 time=4
note_off channel=0 note=59 velocity=0 time=248
note_off channel=0 note=71 velocity=0 time=16
note_off channel=0 note=64 velocity=0 time=0
note_off channel=0 note=52 velocity=0 time=24
note_off channel=0 note=68 velocity=100 time=4
note_on channel=0 note=52 velocity=127 time=16
note_on channel=0 note=57 velocity=127 time=0
note_on channel=0 note=73 velocity=127 time=8
note_on channel=0 note=69 velocity=127 time=0
note_on channel=0 note=78 velocity=127 time=0
note_on channel=0 note=64 velocity=127 time=4
note_on channel=0 note=40 velocity=127 time=160
note_on channel=0 note=64 velocity=127 time=0
note_on channel=0 note=52 velocity=127 time=0
note_on channel=0 note=59 velocity=127 time=4
note_off channel=0 note=52 velocity=0 time=16
note_off channel=0 note=57 velocity=0 time=0
note_off channel=0 note=78 velocity=0 time=4
note_off channel=0 note=64 velocity=0 time=0
note_off channel=0 note=69 velocity=0 time=20
note_off channel=0 note=73 velocity=0 time=4
note_off channel=0 note=40 velocity=0 time=132
note_off channel=0 note=52 velocity=0 time=12
note_off channel=0 note=59 velocity=0 time=8
note_off channel=0 note=64 velocity=0 time=4
note_on channel=0 note=50 velocity=127 time=412
note_on channel=0 note=57 velocity=127 time=0
note_on channel=0 note=40 velocity=127 time=4
note_on channel=0 note=62 velocity=121 time=0
note_off channel=0 note=57 velocity=0 time=84
note_on channel=0 note=57 velocity=127 time=0
note_off channel=0 note=50 velocity=0 time=84
note_off channel=0 note=57 velocity=0 time=4
note_on channel=0 note=50 velocity=127 time=0
note_off channel=0 note=62 velocity=0 time=8
note_on channel=0 note=57 velocity=127 time=0
note_on channel=0 note=62 velocity=127 time=4
note_off channel=0 note=50 velocity=0 time=176
note_off channel=0 note=57 velocity=0 time=12
note_off channel=0 note=62 velocity=0 time=4
note_off channel=0 note=40 velocity=0 time=28
note_on channel=0 note=49 velocity=127 time=340
note_on channel=0 note=62 velocity=126 time=4
note_on channel=0 note=57 velocity=127 time=0
note_on channel=0 note=40 velocity=127 time=0
note_off channel=0 note=57 velocity=0 time=96
note_on channel=0 note=57 velocity=127 time=4
note_on channel=0 note=40 velocity=127 time=60
note_off channel=0 note=40 velocity=0 time=8
note_on channel=0 note=66 velocity=122 time=24
note_off channel=0 note=49 velocity=0 time=192
note_off channel=0 note=66 velocity=0 time=0
note_off channel=0 note=62 velocity=0 time=12
note_off channel=0 note=57 velocity=0 time=0
note_off channel=0 note=40 velocity=0 time=136
note_on channel=0 note=59 velocity=127 time=236
note_on channel=0 note=52 velocity=127 time=0
note_on channel=0 note=40 velocity=127 time=0
note_on channel=0 note=64 velocity=127 time=20
note_off channel=0 note=59 velocity=0 time=60
note_on channel=0 note=59 velocity=127 time=4
note_off channel=0 note=40 velocity=0 time=48
note_off channel=0 note=52 velocity=0 time=24
note_off channel=0 note=64 velocity=0 time=4
note_on channel=0 note=64 velocity=127 time=28
note_on channel=0 note=68 velocity=127 time=8
note_off channel=0 note=68 velocity=0 time=144
note_off channel=0 note=64 velocity=0 time=12
note_off channel=0 note=59 velocity=0 time=8
note_on channel=0 note=59 velocity=127 time=24
note_on channel=0 note=52 velocity=127 time=0
note_on channel=0 note=40 velocity=127 time=0
note_on channel=0 note=64 velocity=127 time=20
note_off channel=0 note=59 velocity=0 time=60
note_on channel=0 note=59 velocity=127 time=4
note_off channel=0 note=64 velocity=0 time=104
note_on channel=0 note=64 velocity=127 time=0
note_on channel=0 note=68 velocity=127 time=8
note_off channel=0 note=68 velocity=0 time=144
note_off channel=0 note=64 velocity=0 time=12
note_off channel=0 note=52 velocity=0 time=4
note_off channel=0 note=59 velocity=0 time=4
note_on channel=0 note=59 velocity=127 time=24
note_on channel=0 note=52 velocity=127 time=0
note_on channel=0 note=40 velocity=127 time=0
note_on channel=0 note=64 velocity=127 time=20
note_off channel=0 note=59 velocity=0 time=60
note_on channel=0 note=59 velocity=127 time=4
note_off channel=0 note=40 velocity=0 time=8
note_on channel=0 note=40 velocity=127 time=76
note_on channel=0 note=64 velocity=127 time=0
note_on channel=0 note=52 velocity=127 time=0
note_on channel=0 note=59 velocity=127 time=4
note_off channel=0 note=64 velocity=0 time=16
note_off channel=0 note=40 velocity=0 time=160
note_off channel=0 note=52 velocity=0 time=8
note_off channel=0 note=59 velocity=0 time=4
note_off channel=0 note=52 velocity=0 time=0
note_off channel=0 note=59 velocity=0 time=8
note_off channel=0 note=64 velocity=0 time=4
note_off channel=0 note=40 velocity=0 time=104
note_on channel=0 note=50 velocity=127 time=308
note_on channel=0 note=57 velocity=127 time=0
note_on channel=0 note=40 velocity=127 time=4
note_on channel=0 note=62 velocity=121 time=0
note_off channel=0 note=57 velocity=0 time=84
note_on channel=0 note=57 velocity=127 time=0
note_off channel=0 note=50 velocity=0 time=84
note_off channel=0 note=57 velocity=0 time=4
note_on channel=0 note=50 velocity=127 time=0
note_off channel=0 note=62 velocity=0 time=8
note_on channel=0 note=57 velocity=127 time=0
note_on channel=0 note=62 velocity=127 time=4
note_off channel=0 note=50 velocity=0 time=176
note_off channel=0 note=57 velocity=0 time=12
note_off channel=0 note=62 velocity=0 time=4
note_off channel=0 note=40 velocity=0 time=28
note_on channel=0 note=49 velocity=127 time=340
note_on channel=0 note=62 velocity=126 time=4
note_on channel=0 note=57 velocity=127 time=0
note_on channel=0 note=40 velocity=127 time=0
note_off channel=0 note=57 velocity=0 time=96
note_on channel=0 note=57 velocity=127 time=4
note_on channel=0 note=40 velocity=127 time=60
note_off channel=0 note=40 velocity=0 time=8
note_on channel=0 note=66 velocity=122 time=24
note_off channel=0 note=49 velocity=0 time=192
note_off channel=0 note=66 velocity=0 time=0
note_off channel=0 note=62 velocity=0 time=12
note_off channel=0 note=57 velocity=0 time=0
note_off channel=0 note=40 velocity=0 time=136
note_on channel=0 note=52 velocity=127 time=236
note_on channel=0 note=59 velocity=127 time=4
note_on channel=0 note=57 velocity=127 time=164
note_on channel=0 note=73 velocity=127 time=0
note_on channel=0 note=69 velocity=127 time=0
note_on channel=0 note=64 velocity=127 time=0
note_off channel=0 note=52 velocity=0 time=24
note_off channel=0 note=59 velocity=0 time=8
note_off channel=0 note=64 velocity=0 time=232
note_off channel=0 note=73 velocity=0 time=8
note_off channel=0 note=69 velocity=0 time=12
note_on channel=0 note=52 velocity=127 time=0
note_on channel=0 note=68 velocity=100 time=0
note_on channel=0 note=71 velocity=127 time=0
note_on channel=0 note=59 velocity=127 time=0
note_on channel=0 note=64 velocity=127 time=0
note_off channel=0 note=57 velocity=0 time=4
note_off channel=0 note=59 velocity=0 time=248
note_off channel=0 note=71 velocity=0 time=16
note_off channel=0 note=64 velocity=0 time=0
note_off channel=0 note=52 velocity=0 time=24
note_off channel=0 note=68 velocity=100 time=4
note_on channel=0 note=52 velocity=127 time=16
note_on channel=0 note=57 velocity=127 time=0
note_on channel=0 note=73 velocity=127 time=8
note_on channel=0 note=69 velocity=127 time=0
note_on channel=0 note=78 velocity=127 time=0
note_on channel=0 note=64 velocity=127 time=4
note_off channel=0 note=52 velocity=0 time=180
note_off channel=0 note=57 velocity=0 time=0
note_off channel=0 note=78 velocity=0 time=4
note_off channel=0 note=64 velocity=0 time=0
note_off channel=0 note=69 velocity=0 time=20
note_off channel=0 note=73 velocity=0 time=4
note_on channel=0 note=69 velocity=45 time=168
note_on channel=0 note=64 velocity=127 time=0
note_on channel=0 note=81 velocity=45 time=0
note_on channel=0 note=76 velocity=127 time=0
note_on channel=0 note=57 velocity=127 time=16
note_on channel=0 note=69 velocity=127 time=0
note_off channel=0 note=69 velocity=0 time=188
note_off channel=0 note=81 velocity=0 time=0
note_off channel=0 note=64 velocity=0 time=8
note_off channel=0 note=76 velocity=0 time=0
note_off channel=0 note=57 velocity=0 time=84
note_off channel=0 note=69 velocity=0 time=0
note_on channel=0 note=59 velocity=110 time=0
note_on channel=0 note=71 velocity=110 time=0
note_off channel=0 note=59 velocity=0 time=16
note_off channel=0 note=71 velocity=0 time=0
note_on channel=0 note=52 velocity=127 time=4
note_on channel=0 note=59 velocity=124 time=0
note_on channel=0 note=64 velocity=127 time=0
note_on channel=0 note=71 velocity=124 time=0
note_off channel=0 note=59 velocity=0 time=108
note_off channel=0 note=71 velocity=0 time=0
note_on channel=0 note=59 velocity=127 time=68
note_on channel=0 note=71 velocity=127 time=0
note_on channel=0 note=66 velocity=127 time=4
note_on channel=0 note=71 velocity=58 time=0
note_on channel=0 note=78 velocity=127 time=0
note_on channel=0 note=83 velocity=58 time=0
note_off channel=0 note=52 velocity=0 time=44
note_off channel=0 note=64 velocity=0 time=0
note_off channel=0 note=59 velocity=0 time=228
note_off channel=0 note=71 velocity=0 time=0
note_off channel=0 note=66 velocity=0 time=60
note_off channel=0 note=78 velocity=0 time=0
note_off channel=0 note=71 velocity=0 time=4
note_off channel=0 note=83 velocity=0 time=0
note_on channel=0 note=69 velocity=34 time=0
note_on channel=0 note=81 velocity=34 time=0
note_on channel=0 note=64 velocity=121 time=12
note_on channel=0 note=76 velocity=121 time=0
note_on channel=0 note=57 velocity=127 time=20
note_on channel=0 note=69 velocity=127 time=0
note_off channel=0 note=64 velocity=0 time=112
note_off channel=0 note=76 velocity=0 time=0
note_off channel=0 note=69 velocity=0 time=8
note_off channel=0 note=81 velocity=0 time=0
note_on channel=0 note=67 velocity=30 time=0
note_on channel=0 note=79 velocity=30 time=0
note_off channel=0 note=67 velocity=0 time=76
note_off channel=0 note=79 velocity=0 time=0
note_on channel=0 note=66 velocity=127 time=4
note_on channel=0 note=67 velocity=77 time=0
note_on channel=0 note=78 velocity=127 time=0
note_on channel=0 note=79 velocity=77 time=0
note_off channel=0 note=57 velocity=0 time=20
note_off channel=0 note=69 velocity=0 time=0
note_off channel=0 note=67 velocity=0 time=0
note_off channel=0 note=79 velocity=0 time=0
note_on channel=0 note=59 velocity=127 time=0
note_on channel=0 note=71 velocity=75 time=0
note_on channel=0 note=71 velocity=127 time=0
note_on channel=0 note=83 velocity=75 time=0
note_off channel=0 note=59 velocity=0 time=112
note_off channel=0 note=71 velocity=0 time=0
note_off channel=0 note=71 velocity=0 time=0
note_off channel=0 note=83 velocity=0 time=0
note_off channel=0 note=66 velocity=0 time=4
note_off channel=0 note=78 velocity=0 time=0
note_on channel=0 note=69 velocity=45 time=336
note_on channel=0 note=64 velocity=127 time=0
note_on channel=0 note=81 velocity=45 time=0
note_on channel=0 note=76 velocity=127 time=0
note_on channel=0 note=57 velocity=127 time=16
note_on channel=0 note=69 velocity=127 time=0
note_off channel=0 note=69 velocity=0 time=188
note_off channel=0 note=81 velocity=0 time=0
note_off channel=0 note=64 velocity=0 time=8
note_off channel=0 note=76 velocity=0 time=0
note_off channel=0 note=57 velocity=0 time=84
note_off channel=0 note=69 velocity=0 time=0
note_on channel=0 note=59 velocity=110 time=0
note_on channel=0 note=71 velocity=110 time=0
note_off channel=0 note=59 velocity=0 time=16
note_off channel=0 note=71 velocity=0 time=0
note_on channel=0 note=52 velocity=127 time=4
note_on channel=0 note=59 velocity=124 time=0
note_on channel=0 note=64 velocity=127 time=0
note_on channel=0 note=71 velocity=124 time=0
note_off channel=0 note=59 velocity=0 time=108
note_off channel=0 note=71 velocity=0 time=0
note_on channel=0 note=59 velocity=127 time=68
note_on channel=0 note=71 velocity=127 time=0
note_on channel=0 note=66 velocity=127 time=4
note_on channel=0 note=71 velocity=58 time=0
note_on channel=0 note=78 velocity=127 time=0
note_on channel=0 note=83 velocity=58 time=0
note_off channel=0 note=52 velocity=0 time=44
note_off channel=0 note=64 velocity=0 time=0
note_off channel=0 note=59 velocity=0 time=228
note_off channel=0 note=71 velocity=0 time=0
note_off channel=0 note=66 velocity=0 time=60
note_off channel=0 note=78 velocity=0 time=0
note_off channel=0 note=71 velocity=0 time=4
note_off channel=0 note=83 velocity=0 time=0
note_on channel=0 note=69 velocity=34 time=0
note_on channel=0 note=81 velocity=34 time=0
note_on channel=0 note=64 velocity=121 time=12
note_on channel=0 note=76 velocity=121 time=0
note_on channel=0 note=57 velocity=127 time=20
note_on channel=0 note=69 velocity=127 time=0
note_off channel=0 note=64 velocity=0 time=112
note_off channel=0 note=76 velocity=0 time=0
note_off channel=0 note=69 velocity=0 time=8
note_off channel=0 note=81 velocity=0 time=0
note_on channel=0 note=67 velocity=30 time=0
note_on channel=0 note=79 velocity=30 time=0
note_off channel=0 note=67 velocity=0 time=76
note_off channel=0 note=79 velocity=0 time=0
note_on channel=0 note=66 velocity=127 time=4
note_on channel=0 note=67 velocity=77 time=0
note_on channel=0 note=78 velocity=127 time=0
note_on channel=0 note=79 velocity=77 time=0
note_off channel=0 note=57 velocity=0 time=20
note_off channel=0 note=69 velocity=0 time=0
note_off channel=0 note=67 velocity=0 time=0
note_off channel=0 note=79 velocity=0 time=0
note_on channel=0 note=59 velocity=127 time=0
note_on channel=0 note=71 velocity=75 time=0
note_on channel=0 note=71 velocity=127 time=0
note_on channel=0 note=83 velocity=75 time=0
note_off channel=0 note=59 velocity=0 time=112
note_off channel=0 note=71 velocity=0 time=0
note_off channel=0 note=71 velocity=0 time=0
note_off channel=0 note=83 velocity=0 time=0
note_off channel=0 note=66 velocity=0 time=4
note_off channel=0 note=78 velocity=0 time=0
note_on channel=0 note=74 velocity=24 time=264
note_on channel=0 note=67 velocity=127 time=24
note_on channel=0 note=79 velocity=127 time=8
note_on channel=0 note=62 velocity=127 time=36
note_off channel=0 note=79 velocity=0 time=112
note_off channel=0 note=74 velocity=0 time=8
note_off channel=0 note=67 velocity=0 time=120
note_off channel=0 note=62 velocity=0 time=32
note_on channel=0 note=62 velocity=127 time=4
note_on channel=0 note=78 velocity=127 time=16
note_on channel=0 note=74 velocity=127 time=0
note_on channel=0 note=69 velocity=127 time=12
note_off channel=0 note=69 velocity=0 time=108
note_off channel=0 note=78 velocity=0 time=8
note_off channel=0 note=74 velocity=0 time=12
note_off channel=0 note=62 velocity=0 time=120
note_on channel=0 note=62 velocity=126 time=4
note_on channel=0 note=57 velocity=127 time=12
note_on channel=0 note=69 velocity=127 time=12
note_off channel=0 note=62 velocity=0 time=28
note_on channel=0 note=64 velocity=125 time=0
note_off channel=0 note=57 velocity=0 time=228
note_off channel=0 note=64 velocity=0 time=36
note_on channel=0 note=55 velocity=127 time=4
note_on channel=0 note=60 velocity=127 time=16
note_off channel=0 note=60 velocity=0 time=0
note_off channel=0 note=55 velocity=0 time=116
note_off channel=0 note=69 velocity=0 time=12
note_on channel=0 note=69 velocity=127 time=4
note_on channel=0 note=57 velocity=127 time=12
note_on channel=0 note=64 velocity=127 time=8
note_on channel=0 note=57 velocity=127 time=280
note_off channel=0 note=69 velocity=0 time=80
note_off channel=0 note=64 velocity=0 time=4
note_on channel=0 note=79 velocity=127 time=68
note_off channel=0 note=57 velocity=0 time=4
note_on channel=0 note=74 velocity=127 time=4
note_on channel=0 note=55 velocity=127 time=0
note_on channel=0 note=62 velocity=127 time=8
note_on channel=0 note=67 velocity=127 time=28
note_off channel=0 note=55 velocity=0 time=96
note_off channel=0 note=74 velocity=0 time=20
note_off channel=0 note=79 velocity=0 time=4
note_off channel=0 note=57 velocity=0 time=128
note_off channel=0 note=67 velocity=0 time=0
note_on channel=0 note=78 velocity=127 time=32
note_on channel=0 note=74 velocity=127 time=0
note_on channel=0 note=69 velocity=127 time=0
note_on channel=0 note=62 velocity=100 time=4
note_off channel=0 note=62 velocity=100 time=128
note_off channel=0 note=69 velocity=0 time=20
note_off channel=0 note=78 velocity=0 time=20
note_off channel=0 note=74 velocity=0 time=24
note_off channel=0 note=62 velocity=0 time=84
note_on channel=0 note=64 velocity=109 time=0
note_on channel=0 note=57 velocity=127 time=12
note_on channel=0 note=69 velocity=127 time=24
note_off channel=0 note=64 velocity=0 time=276
note_off channel=0 note=57 velocity=0 time=0
note_on channel=0 note=55 velocity=127 time=12
note_off channel=0 note=55 velocity=0 time=144
note_off channel=0 note=69 velocity=0 time=8
note_on channel=0 note=69 velocity=103 time=8
note_on channel=0 note=58 velocity=127 time=0
note_on channel=0 note=65 velocity=127 time=12
note_off channel=0 note=58 velocity=0 time=60
note_on channel=0 note=57 velocity=127 time=0
note_off channel=0 note=65 velocity=0 time=24
note_on channel=0 note=64 velocity=127 time=4
note_off channel=0 note=69 velocity=0 time=376
note_off channel=0 note=64 velocity=0 time=0
note_on channel=0 note=69 velocity=45 time=36
note_on channel=0 note=64 velocity=127 time=0
note_on channel=0 note=81 velocity=45 time=0
note_on channel=0 note=76 velocity=127 time=0
note_on channel=0 note=57 velocity=127 time=16
note_on channel=0 note=69 velocity=127 time=0
note_off channel=0 note=57 velocity=0 time=16
note_off channel=0 note=69 velocity=0 time=172
note_off channel=0 note=81 velocity=0 time=0
note_off channel=0 note=64 velocity=0 time=8
note_off channel=0 note=76 velocity=0 time=0
note_off channel=0 note=57 velocity=0 time=84
note_off channel=0 note=69 velocity=0 time=0
note_on channel=0 note=59 velocity=110 time=0
note_on channel=0 note=71 velocity=110 time=0
note_off channel=0 note=59 velocity=0 time=16
note_off channel=0 note=71 velocity=0 time=0
note_on channel=0 note=52 velocity=127 time=4
note_on channel=0 note=59 velocity=124 time=0
note_on channel=0 note=64 velocity=127 time=0
note_on channel=0 note=71 velocity=124 time=0
note_off channel=0 note=59 velocity=0 time=108
note_off channel=0 note=71 velocity=0 time=0
note_on channel=0 note=59 velocity=127 time=68
note_on channel=0 note=71 velocity=127 time=0
note_on channel=0 note=66 velocity=127 time=4
note_on channel=0 note=71 velocity=58 time=0
note_on channel=0 note=78 velocity=127 time=0
note_on channel=0 note=83 velocity=58 time=0
note_off channel=0 note=52 velocity=0 time=44
note_off channel=0 note=64 velocity=0 time=0
note_off channel=0 note=59 velocity=0 time=228
note_off channel=0 note=71 velocity=0 time=0
note_off channel=0 note=66 velocity=0 time=60
note_off channel=0 note=78 velocity=0 time=0
note_off channel=0 note=71 velocity=0 time=4
note_off channel=0 note=83 velocity=0 time=0
note_on channel=0 note=69 velocity=34 time=0
note_on channel=0 note=81 velocity=34 time=0
note_on channel=0 note=64 velocity=121 time=12
note_on channel=0 note=76 velocity=121 time=0
note_on channel=0 note=57 velocity=127 time=20
note_on channel=0 note=69 velocity=127 time=0
note_off channel=0 note=64 velocity=0 time=112
note_off channel=0 note=76 velocity=0 time=0
note_off channel=0 note=69 velocity=0 time=8
note_off channel=0 note=81 velocity=0 time=0
note_on channel=0 note=67 velocity=30 time=0
note_on channel=0 note=79 velocity=30 time=0
note_off channel=0 note=67 velocity=0 time=76
note_off channel=0 note=79 velocity=0 time=0
note_on channel=0 note=66 velocity=127 time=4
note_on channel=0 note=67 velocity=77 time=0
note_on channel=0 note=78 velocity=127 time=0
note_on channel=0 note=79 velocity=77 time=0
note_off channel=0 note=57 velocity=0 time=20
note_off channel=0 note=69 velocity=0 time=0
note_off channel=0 note=67 velocity=0 time=0
note_off channel=0 note=79 velocity=0 time=0
note_on channel=0 note=59 velocity=127 time=0
note_on channel=0 note=71 velocity=75 time=0
note_on channel=0 note=71 velocity=127 time=0
note_on channel=0 note=83 velocity=75 time=0
note_off channel=0 note=59 velocity=0 time=112
note_off channel=0 note=71 velocity=0 time=0
note_off channel=0 note=71 velocity=0 time=0
note_off channel=0 note=83 velocity=0 time=0
note_off channel=0 note=66 velocity=0 time=4
note_off channel=0 note=78 velocity=0 time=0
note_on channel=0 note=69 velocity=45 time=336
note_on channel=0 note=64 velocity=127 time=0
note_on channel=0 note=81 velocity=45 time=0
note_on channel=0 note=76 velocity=127 time=0
note_on channel=0 note=57 velocity=127 time=16
note_on channel=0 note=69 velocity=127 time=0
note_off channel=0 note=69 velocity=0 time=188
note_off channel=0 note=81 velocity=0 time=0
note_off channel=0 note=64 velocity=0 time=8
note_off channel=0 note=76 velocity=0 time=0
note_off channel=0 note=57 velocity=0 time=84
note_off channel=0 note=69 velocity=0 time=0
note_on channel=0 note=59 velocity=110 time=0
note_on channel=0 note=71 velocity=110 time=0
note_off channel=0 note=59 velocity=0 time=16
note_off channel=0 note=71 velocity=0 time=0
note_on channel=0 note=52 velocity=127 time=4
note_on channel=0 note=59 velocity=124 time=0
note_on channel=0 note=64 velocity=127 time=0
note_on channel=0 note=71 velocity=124 time=0
note_off channel=0 note=59 velocity=0 time=108
note_off channel=0 note=71 velocity=0 time=0
note_on channel=0 note=59 velocity=127 time=68
note_on channel=0 note=71 velocity=127 time=0
note_on channel=0 note=66 velocity=127 time=4
note_on channel=0 note=71 velocity=58 time=0
note_on channel=0 note=78 velocity=127 time=0
note_on channel=0 note=83 velocity=58 time=0
note_off channel=0 note=52 velocity=0 time=44
note_off channel=0 note=64 velocity=0 time=0
note_off channel=0 note=59 velocity=0 time=228
note_off channel=0 note=71 velocity=0 time=0
note_off channel=0 note=66 velocity=0 time=60
note_off channel=0 note=78 velocity=0 time=0
note_off channel=0 note=71 velocity=0 time=4
note_off channel=0 note=83 velocity=0 time=0
note_on channel=0 note=69 velocity=34 time=0
note_on channel=0 note=81 velocity=34 time=0
note_on channel=0 note=64 velocity=121 time=12
note_on channel=0 note=76 velocity=121 time=0
note_on channel=0 note=57 velocity=127 time=20
note_on channel=0 note=69 velocity=127 time=0
note_off channel=0 note=64 velocity=0 time=112
note_off channel=0 note=76 velocity=0 time=0
note_off channel=0 note=69 velocity=0 time=8
note_off channel=0 note=81 velocity=0 time=0
note_on channel=0 note=67 velocity=30 time=0
note_on channel=0 note=79 velocity=30 time=0
note_off channel=0 note=67 velocity=0 time=76
note_off channel=0 note=79 velocity=0 time=0
note_on channel=0 note=66 velocity=127 time=4
note_on channel=0 note=67 velocity=77 time=0
note_on channel=0 note=78 velocity=127 time=0
note_on channel=0 note=79 velocity=77 time=0
note_off channel=0 note=57 velocity=0 time=20
note_off channel=0 note=69 velocity=0 time=0
note_off channel=0 note=67 velocity=0 time=0
note_off channel=0 note=79 velocity=0 time=0
note_on channel=0 note=59 velocity=127 time=0
note_on channel=0 note=71 velocity=75 time=0
note_on channel=0 note=71 velocity=127 time=0
note_on channel=0 note=83 velocity=75 time=0
note_off channel=0 note=59 velocity=0 time=112
note_off channel=0 note=71 velocity=0 time=0
note_off channel=0 note=71 velocity=0 time=0
note_off channel=0 note=83 velocity=0 time=0
note_off channel=0 note=66 velocity=0 time=4
note_off channel=0 note=78 velocity=0 time=0
note_on channel=0 note=50 velocity=76 time=120
note_on channel=0 note=55 velocity=127 time=0
note_on channel=0 note=67 velocity=89 time=0
note_on channel=0 note=62 velocity=95 time=0
note_on channel=0 note=59 velocity=127 time=0
note_off channel=0 note=50 velocity=0 time=192
note_off channel=0 note=55 velocity=0 time=0
note_off channel=0 note=67 velocity=0 time=0
note_off channel=0 note=62 velocity=0 time=0
note_off channel=0 note=59 velocity=0 time=0
note_on channel=0 note=50 velocity=76 time=96
note_on channel=0 note=55 velocity=127 time=0
note_on channel=0 note=67 velocity=89 time=0
note_on channel=0 note=62 velocity=95 time=0
note_on channel=0 note=59 velocity=127 time=0
note_off channel=0 note=50 velocity=0 time=192
note_off channel=0 note=55 velocity=0 time=0
note_off channel=0 note=67 velocity=0 time=0
note_off channel=0 note=62 velocity=0 time=0
note_off channel=0 note=59 velocity=0 time=0
note_on channel=0 note=50 velocity=76 time=96
note_on channel=0 note=55 velocity=127 time=0
note_on channel=0 note=67 velocity=89 time=0
note_on channel=0 note=62 velocity=95 time=0
note_on channel=0 note=59 velocity=127 time=0
note_off channel=0 note=50 velocity=0 time=192
note_off channel=0 note=55 velocity=0 time=0
note_off channel=0 note=67 velocity=0 time=0
note_off channel=0 note=62 velocity=0 time=0
note_off channel=0 note=59 velocity=0 time=0
note_on channel=0 note=50 velocity=54 time=96
note_on channel=0 note=55 velocity=124 time=0
note_on channel=0 note=59 velocity=127 time=0
note_on channel=0 note=62 velocity=65 time=0
note_on channel=0 note=67 velocity=65 time=0
note_off channel=0 note=50 velocity=0 time=64
note_off channel=0 note=55 velocity=0 time=0
note_off channel=0 note=59 velocity=0 time=0
note_off channel=0 note=62 velocity=0 time=0
note_off channel=0 note=67 velocity=0 time=0
note_on channel=0 note=59 velocity=39 time=32
note_on channel=0 note=67 velocity=65 time=0
note_on channel=0 note=49 velocity=42 time=0
note_off channel=0 note=59 velocity=0 time=64
note_off channel=0 note=67 velocity=0 time=0
note_off channel=0 note=49 velocity=0 time=0
note_on channel=0 note=50 velocity=54 time=32
note_on channel=0 note=59 velocity=121 time=0
note_on channel=0 note=55 velocity=107 time=0
note_on channel=0 note=62 velocity=69 time=0
note_on channel=0 note=67 velocity=71 time=0
note_off channel=0 note=50 velocity=0 time=64
note_off channel=0 note=59 velocity=0 time=0
note_off channel=0 note=55 velocity=0 time=0
note_off channel=0 note=62 velocity=0 time=0
note_off channel=0 note=67 velocity=0 time=0
note_on channel=0 note=50 velocity=64 time=32
note_on channel=0 note=55 velocity=118 time=0
note_on channel=0 note=59 velocity=127 time=0
note_on channel=0 note=62 velocity=66 time=0
note_on channel=0 note=67 velocity=63 time=0
note_off channel=0 note=50 velocity=0 time=128
note_off channel=0 note=55 velocity=0 time=0
note_off channel=0 note=59 velocity=0 time=0
note_off channel=0 note=62 velocity=0 time=0
note_off channel=0 note=67 velocity=0 time=0
note_on channel=0 note=50 velocity=68 time=64
note_on channel=0 note=55 velocity=127 time=0
note_on channel=0 note=59 velocity=127 time=0
note_on channel=0 note=62 velocity=89 time=0
note_on channel=0 note=67 velocity=107 time=0
note_off channel=0 note=50 velocity=0 time=128
note_off channel=0 note=55 velocity=0 time=0
note_off channel=0 note=59 velocity=0 time=0
note_off channel=0 note=62 velocity=0 time=0
note_off channel=0 note=67 velocity=0 time=0
note_on channel=0 note=62 velocity=127 time=64
note_on channel=0 note=69 velocity=127 time=0
note_on channel=0 note=74 velocity=127 time=0
note_on channel=0 note=78 velocity=118 time=0
note_off channel=0 note=62 velocity=0 time=192
note_off channel=0 note=69 velocity=0 time=0
note_off channel=0 note=74 velocity=0 time=0
note_off channel=0 note=78 velocity=0 time=0
note_on channel=0 note=62 velocity=127 time=96
note_on channel=0 note=69 velocity=127 time=0
note_on channel=0 note=74 velocity=127 time=0
note_on channel=0 note=78 velocity=108 time=0
note_off channel=0 note=62 velocity=0 time=192
note_off channel=0 note=69 velocity=0 time=0
note_off channel=0 note=74 velocity=0 time=0
note_off channel=0 note=78 velocity=0 time=0
note_on channel=0 note=62 velocity=127 time=96
note_on channel=0 note=69 velocity=122 time=0
note_on channel=0 note=74 velocity=100 time=0
note_on channel=0 note=78 velocity=68 time=0
note_off channel=0 note=62 velocity=0 time=768
note_off channel=0 note=69 velocity=0 time=0
note_off channel=0 note=74 velocity=0 time=0
note_off channel=0 note=78 velocity=0 time=0
note_on channel=0 note=52 velocity=104 time=192
note_on channel=0 note=64 velocity=104 time=0
note_off channel=0 note=52 velocity=0 time=64
note_off channel=0 note=64 velocity=0 time=0
note_on channel=0 note=62 velocity=104 time=32
note_on channel=0 note=74 velocity=104 time=0
note_off channel=0 note=62 velocity=0 time=64
note_off channel=0 note=74 velocity=0 time=0
note_on channel=0 note=61 velocity=110 time=32
note_on channel=0 note=73 velocity=110 time=0
note_off channel=0 note=61 velocity=0 time=64
note_off channel=0 note=73 velocity=0 time=0
note_on channel=0 note=59 velocity=100 time=32
note_on channel=0 note=71 velocity=100 time=0
note_off channel=0 note=59 velocity=0 time=64
note_off channel=0 note=71 velocity=0 time=0
note_on channel=0 note=61 velocity=108 time=32
note_on channel=0 note=73 velocity=108 time=0
note_off channel=0 note=61 velocity=0 time=64
note_off channel=0 note=73 velocity=0 time=0
note_on channel=0 note=55 velocity=95 time=32
note_on channel=0 note=67 velocity=95 time=0
note_off channel=0 note=55 velocity=0 time=128
note_off channel=0 note=67 velocity=0 time=0
note_on channel=0 note=59 velocity=78 time=64
note_on channel=0 note=71 velocity=78 time=0
note_off channel=0 note=59 velocity=0 time=64
note_off channel=0 note=71 velocity=0 time=0
note_on channel=0 note=57 velocity=85 time=32
note_on channel=0 note=69 velocity=85 time=0
note_off channel=0 note=57 velocity=0 time=128
note_off channel=0 note=69 velocity=0 time=0
note_on channel=0 note=59 velocity=69 time=64
note_on channel=0 note=71 velocity=69 time=0
note_off channel=0 note=59 velocity=0 time=64
note_off channel=0 note=71 velocity=0 time=0
note_on channel=0 note=58 velocity=82 time=32
note_on channel=0 note=70 velocity=82 time=0
note_off channel=0 note=58 velocity=0 time=128
note_off channel=0 note=70 velocity=0 time=0
note_on channel=0 note=59 velocity=69 time=64
note_on channel=0 note=71 velocity=69 time=0
note_off channel=0 note=59 velocity=0 time=64
note_off channel=0 note=71 velocity=0 time=0
note_on channel=0 note=59 velocity=122 time=32
note_on channel=0 note=71 velocity=122 time=0
note_off channel=0 note=59 velocity=0 time=128
note_off channel=0 note=71 velocity=0 time=0
note_on channel=0 note=52 velocity=104 time=64
note_on channel=0 note=64 velocity=104 time=0
note_off channel=0 note=52 velocity=0 time=64
note_off channel=0 note=64 velocity=0 time=0
note_on channel=0 note=62 velocity=104 time=32
note_on channel=0 note=74 velocity=104 time=0
note_off channel=0 note=62 velocity=0 time=64
note_off channel=0 note=74 velocity=0 time=0
note_on channel=0 note=61 velocity=110 time=32
note_on channel=0 note=73 velocity=110 time=0
note_off channel=0 note=61 velocity=0 time=64
note_off channel=0 note=73 velocity=0 time=0
note_on channel=0 note=59 velocity=100 time=32
note_on channel=0 note=71 velocity=100 time=0
note_off channel=0 note=59 velocity=0 time=64
note_off channel=0 note=71 velocity=0 time=0
note_on channel=0 note=61 velocity=108 time=32
note_on channel=0 note=73 velocity=108 time=0
note_off channel=0 note=61 velocity=0 time=64
note_off channel=0 note=73 velocity=0 time=0
note_on channel=0 note=55 velocity=95 time=32
note_on channel=0 note=67 velocity=95 time=0
note_off channel=0 note=55 velocity=0 time=128
note_off channel=0 note=67 velocity=0 time=0
note_on channel=0 note=59 velocity=78 time=64
note_on channel=0 note=71 velocity=78 time=0
note_off channel=0 note=59 velocity=0 time=64
note_off channel=0 note=71 velocity=0 time=0
note_on channel=0 note=57 velocity=85 time=32
note_on channel=0 note=69 velocity=85 time=0
note_off channel=0 note=57 velocity=0 time=128
note_off channel=0 note=69 velocity=0 time=0
note_on channel=0 note=59 velocity=69 time=64
note_on channel=0 note=71 velocity=69 time=0
note_off channel=0 note=59 velocity=0 time=64
note_off channel=0 note=71 velocity=0 time=0
note_on channel=0 note=58 velocity=82 time=32
note_on channel=0 note=70 velocity=82 time=0
note_off channel=0 note=58 velocity=0 time=128
note_off channel=0 note=70 velocity=0 time=0
note_on channel=0 note=59 velocity=69 time=64
note_on channel=0 note=71 velocity=69 time=0
note_off channel=0 note=59 velocity=0 time=64
note_off channel=0 note=71 velocity=0 time=0
note_on channel=0 note=59 velocity=122 time=32
note_on channel=0 note=71 velocity=122 time=0
note_off channel=0 note=59 velocity=0 time=128
note_off channel=0 note=71 velocity=0 time=0
note_on channel=0 note=52 velocity=104 time=64
note_on channel=0 note=64 velocity=104 time=0
note_off channel=0 note=52 velocity=0 time=64
note_off channel=0 note=64 velocity=0 time=0
note_on channel=0 note=62 velocity=104 time=32
note_on channel=0 note=74 velocity=104 time=0
note_off channel=0 note=62 velocity=0 time=64
note_off channel=0 note=74 velocity=0 time=0
note_on channel=0 note=61 velocity=110 time=32
note_on channel=0 note=73 velocity=110 time=0
note_off channel=0 note=61 velocity=0 time=64
note_off channel=0 note=73 velocity=0 time=0
note_on channel=0 note=59 velocity=100 time=32
note_on channel=0 note=71 velocity=100 time=0
note_off channel=0 note=59 velocity=0 time=64
note_off channel=0 note=71 velocity=0 time=0
note_on channel=0 note=61 velocity=108 time=32
note_on channel=0 note=73 velocity=108 time=0
note_off channel=0 note=61 velocity=0 time=64
note_off channel=0 note=73 velocity=0 time=0
note_on channel=0 note=55 velocity=95 time=32
note_on channel=0 note=67 velocity=95 time=0
note_off channel=0 note=55 velocity=0 time=128
note_off channel=0 note=67 velocity=0 time=0
note_on channel=0 note=59 velocity=78 time=64
note_on channel=0 note=71 velocity=78 time=0
note_off channel=0 note=59 velocity=0 time=64
note_off channel=0 note=71 velocity=0 time=0
note_on channel=0 note=57 velocity=85 time=32
note_on channel=0 note=69 velocity=85 time=0
note_off channel=0 note=57 velocity=0 time=128
note_off channel=0 note=69 velocity=0 time=0
note_on channel=0 note=59 velocity=69 time=64
note_on channel=0 note=71 velocity=69 time=0
note_off channel=0 note=59 velocity=0 time=64
note_off channel=0 note=71 velocity=0 time=0
note_on channel=0 note=58 velocity=82 time=32
note_on channel=0 note=70 velocity=82 time=0
note_off channel=0 note=58 velocity=0 time=128
note_off channel=0 note=70 velocity=0 time=0
note_on channel=0 note=59 velocity=69 time=64
note_on channel=0 note=71 velocity=69 time=0
note_off channel=0 note=59 velocity=0 time=64
note_off channel=0 note=71 velocity=0 time=0
note_on channel=0 note=59 velocity=122 time=32
note_on channel=0 note=71 velocity=122 time=0
note_off channel=0 note=59 velocity=0 time=128
note_off channel=0 note=71 velocity=0 time=0
note_on channel=0 note=52 velocity=104 time=64
note_on channel=0 note=64 velocity=104 time=0
note_off channel=0 note=52 velocity=0 time=64
note_off channel=0 note=64 velocity=0 time=0
note_on channel=0 note=62 velocity=104 time=32
note_on channel=0 note=74 velocity=104 time=0
note_off channel=0 note=62 velocity=0 time=64
note_off channel=0 note=74 velocity=0 time=0
note_on channel=0 note=61 velocity=110 time=32
note_on channel=0 note=73 velocity=110 time=0
note_off channel=0 note=61 velocity=0 time=64
note_off channel=0 note=73 velocity=0 time=0
note_on channel=0 note=59 velocity=100 time=32
note_on channel=0 note=71 velocity=100 time=0
note_off channel=0 note=59 velocity=0 time=64
note_off channel=0 note=71 velocity=0 time=0
note_on channel=0 note=61 velocity=108 time=32
note_on channel=0 note=73 velocity=108 time=0
note_off channel=0 note=61 velocity=0 time=64
note_off channel=0 note=73 velocity=0 time=0
note_on channel=0 note=55 velocity=95 time=32
note_on channel=0 note=67 velocity=95 time=0
note_off channel=0 note=55 velocity=0 time=128
note_off channel=0 note=67 velocity=0 time=0
note_on channel=0 note=59 velocity=78 time=64
note_on channel=0 note=71 velocity=78 time=0
note_off channel=0 note=59 velocity=0 time=64
note_off channel=0 note=71 velocity=0 time=0
note_on channel=0 note=57 velocity=85 time=32
note_on channel=0 note=69 velocity=85 time=0
note_off channel=0 note=57 velocity=0 time=128
note_off channel=0 note=69 velocity=0 time=0
note_on channel=0 note=59 velocity=69 time=64
note_on channel=0 note=71 velocity=69 time=0
note_off channel=0 note=59 velocity=0 time=64
note_off channel=0 note=71 velocity=0 time=0
note_on channel=0 note=58 velocity=82 time=32
note_on channel=0 note=70 velocity=82 time=0
note_off channel=0 note=58 velocity=0 time=128
note_off channel=0 note=70 velocity=0 time=0
note_on channel=0 note=59 velocity=69 time=64
note_on channel=0 note=71 velocity=69 time=0
note_off channel=0 note=59 velocity=0 time=64
note_off channel=0 note=71 velocity=0 time=0
note_on channel=0 note=59 velocity=122 time=32
note_on channel=0 note=71 velocity=122 time=0
note_off channel=0 note=59 velocity=0 time=128
note_off channel=0 note=71 velocity=0 time=0
note_on channel=0 note=57 velocity=97 time=64
note_on channel=0 note=69 velocity=97 time=0
note_off channel=0 note=57 velocity=0 time=64
note_off channel=0 note=69 velocity=0 time=0
note_on channel=0 note=67 velocity=118 time=32
note_on channel=0 note=79 velocity=118 time=0
note_off channel=0 note=67 velocity=0 time=64
note_off channel=0 note=79 velocity=0 time=0
note_on channel=0 note=66 velocity=121 time=32
note_on channel=0 note=78 velocity=121 time=0
note_off channel=0 note=66 velocity=0 time=64
note_off channel=0 note=78 velocity=0 time=0
note_on channel=0 note=64 velocity=127 time=32
note_on channel=0 note=76 velocity=127 time=0
note_off channel=0 note=64 velocity=0 time=64
note_off channel=0 note=76 velocity=0 time=0
note_on channel=0 note=66 velocity=127 time=32
note_on channel=0 note=78 velocity=127 time=0
note_off channel=0 note=66 velocity=0 time=64
note_off channel=0 note=78 velocity=0 time=0
note_on channel=0 note=60 velocity=97 time=32
note_on channel=0 note=72 velocity=97 time=0
note_off channel=0 note=60 velocity=0 time=128
note_off channel=0 note=72 velocity=0 time=0
note_on channel=0 note=64 velocity=99 time=64
note_on channel=0 note=76 velocity=99 time=0
note_off channel=0 note=64 velocity=0 time=64
note_off channel=0 note=76 velocity=0 time=0
note_on channel=0 note=62 velocity=88 time=32
note_on channel=0 note=74 velocity=88 time=0
note_off channel=0 note=62 velocity=0 time=128
note_off channel=0 note=74 velocity=0 time=0
note_on channel=0 note=64 velocity=116 time=64
note_on channel=0 note=76 velocity=116 time=0
note_off channel=0 note=64 velocity=0 time=64
note_off channel=0 note=76 velocity=0 time=0
note_on channel=0 note=63 velocity=80 time=32
note_on channel=0 note=75 velocity=80 time=0
note_off channel=0 note=63 velocity=0 time=128
note_off channel=0 note=75 velocity=0 time=0
note_on channel=0 note=64 velocity=109 time=64
note_on channel=0 note=76 velocity=109 time=0
note_off channel=0 note=64 velocity=0 time=64
note_off channel=0 note=76 velocity=0 time=0
note_on channel=0 note=64 velocity=96 time=32
note_on channel=0 note=76 velocity=96 time=0
note_off channel=0 note=64 velocity=0 time=128
note_off channel=0 note=76 velocity=0 time=0
note_on channel=0 note=57 velocity=97 time=64
note_on channel=0 note=69 velocity=97 time=0
note_off channel=0 note=57 velocity=0 time=64
note_off channel=0 note=69 velocity=0 time=0
note_on channel=0 note=67 velocity=118 time=32
note_on channel=0 note=79 velocity=118 time=0
note_off channel=0 note=67 velocity=0 time=64
note_off channel=0 note=79 velocity=0 time=0
note_on channel=0 note=66 velocity=121 time=32
note_on channel=0 note=78 velocity=121 time=0
note_off channel=0 note=66 velocity=0 time=64
note_off channel=0 note=78 velocity=0 time=0
note_on channel=0 note=64 velocity=127 time=32
note_on channel=0 note=76 velocity=127 time=0
note_off channel=0 note=64 velocity=0 time=64
note_off channel=0 note=76 velocity=0 time=0
note_on channel=0 note=66 velocity=127 time=32
note_on channel=0 note=78 velocity=127 time=0
note_off channel=0 note=66 velocity=0 time=64
note_off channel=0 note=78 velocity=0 time=0
note_on channel=0 note=60 velocity=97 time=32
note_on channel=0 note=72 velocity=97 time=0
note_off channel=0 note=60 velocity=0 time=128
note_off channel=0 note=72 velocity=0 time=0
note_on channel=0 note=64 velocity=99 time=64
note_on channel=0 note=76 velocity=99 time=0
note_off channel=0 note=64 velocity=0 time=64
note_off channel=0 note=76 velocity=0 time=0
note_on channel=0 note=62 velocity=88 time=32
note_on channel=0 note=74 velocity=88 time=0
note_off channel=0 note=62 velocity=0 time=128
note_off channel=0 note=74 velocity=0 time=0
note_on channel=0 note=64 velocity=116 time=64
note_on channel=0 note=76 velocity=116 time=0
note_off channel=0 note=64 velocity=0 time=64
note_off channel=0 note=76 velocity=0 time=0
note_on channel=0 note=63 velocity=80 time=32
note_on channel=0 note=75 velocity=80 time=0
note_off channel=0 note=63 velocity=0 time=128
note_off channel=0 note=75 velocity=0 time=0
note_on channel=0 note=64 velocity=109 time=64
note_on channel=0 note=76 velocity=109 time=0
note_off channel=0 note=64 velocity=0 time=64
note_off channel=0 note=76 velocity=0 time=0
note_on channel=0 note=64 velocity=96 time=32
note_on channel=0 note=76 velocity=96 time=0
note_off channel=0 note=64 velocity=0 time=128
note_off channel=0 note=76 velocity=0 time=0
note_on channel=0 note=52 velocity=104 time=64
note_on channel=0 note=52 velocity=104 time=0
note_on channel=0 note=64 velocity=104 time=0
note_off channel=0 note=52 velocity=0 time=64
note_off channel=0 note=52 velocity=0 time=0
note_off channel=0 note=64 velocity=0 time=0
note_on channel=0 note=62 velocity=104 time=32
note_on channel=0 note=62 velocity=104 time=0
note_on channel=0 note=74 velocity=104 time=0
note_off channel=0 note=62 velocity=0 time=64
note_off channel=0 note=62 velocity=0 time=0
note_off channel=0 note=74 velocity=0 time=0
note_on channel=0 note=61 velocity=110 time=32
note_on channel=0 note=61 velocity=110 time=0
note_on channel=0 note=73 velocity=110 time=0
note_off channel=0 note=61 velocity=0 time=64
note_off channel=0 note=61 velocity=0 time=0
note_off channel=0 note=73 velocity=0 time=0
note_on channel=0 note=59 velocity=100 time=32
note_on channel=0 note=59 velocity=100 time=0
note_on channel=0 note=71 velocity=100 time=0
note_off channel=0 note=59 velocity=0 time=64
note_off channel=0 note=59 velocity=0 time=0
note_off channel=0 note=71 velocity=0 time=0
note_on channel=0 note=61 velocity=108 time=32
note_on channel=0 note=61 velocity=108 time=0
note_on channel=0 note=73 velocity=108 time=0
note_off channel=0 note=61 velocity=0 time=64
note_off channel=0 note=61 velocity=0 time=0
note_off channel=0 note=73 velocity=0 time=0
note_on channel=0 note=55 velocity=95 time=32
note_on channel=0 note=55 velocity=95 time=0
note_on channel=0 note=67 velocity=95 time=0
note_off channel=0 note=55 velocity=0 time=128
note_off channel=0 note=55 velocity=0 time=0
note_off channel=0 note=67 velocity=0 time=0
note_on channel=0 note=59 velocity=78 time=64
note_on channel=0 note=59 velocity=78 time=0
note_on channel=0 note=71 velocity=78 time=0
note_off channel=0 note=59 velocity=0 time=64
note_off channel=0 note=59 velocity=0 time=0
note_off channel=0 note=71 velocity=0 time=0
note_on channel=0 note=57 velocity=85 time=32
note_on channel=0 note=57 velocity=85 time=0
note_on channel=0 note=69 velocity=85 time=0
note_off channel=0 note=57 velocity=0 time=128
note_off channel=0 note=57 velocity=0 time=0
note_off channel=0 note=69 velocity=0 time=0
note_on channel=0 note=59 velocity=69 time=64
note_on channel=0 note=59 velocity=69 time=0
note_on channel=0 note=71 velocity=69 time=0
note_off channel=0 note=59 velocity=0 time=64
note_off channel=0 note=59 velocity=0 time=0
note_off channel=0 note=71 velocity=0 time=0
note_on channel=0 note=58 velocity=82 time=32
note_on channel=0 note=58 velocity=82 time=0
note_on channel=0 note=70 velocity=82 time=0
note_off channel=0 note=58 velocity=0 time=128
note_off channel=0 note=58 velocity=0 time=0
note_off channel=0 note=70 velocity=0 time=0
note_on channel=0 note=59 velocity=69 time=64
note_on channel=0 note=59 velocity=69 time=0
note_on channel=0 note=71 velocity=69 time=0
note_off channel=0 note=59 velocity=0 time=64
note_off channel=0 note=59 velocity=0 time=0
note_off channel=0 note=71 velocity=0 time=0
note_on channel=0 note=59 velocity=122 time=32
note_on channel=0 note=59 velocity=122 time=0
note_on channel=0 note=71 velocity=122 time=0
note_off channel=0 note=59 velocity=0 time=128
note_off channel=0 note=59 velocity=0 time=0
note_off channel=0 note=71 velocity=0 time=0
note_on channel=0 note=52 velocity=104 time=64
note_on channel=0 note=52 velocity=104 time=0
note_on channel=0 note=64 velocity=104 time=0
note_off channel=0 note=52 velocity=0 time=64
note_off channel=0 note=52 velocity=0 time=0
note_off channel=0 note=64 velocity=0 time=0
note_on channel=0 note=62 velocity=104 time=32
note_on channel=0 note=62 velocity=104 time=0
note_on channel=0 note=74 velocity=104 time=0
note_off channel=0 note=62 velocity=0 time=64
note_off channel=0 note=62 velocity=0 time=0
note_off channel=0 note=74 velocity=0 time=0
note_on channel=0 note=61 velocity=110 time=32
note_on channel=0 note=61 velocity=110 time=0
note_on channel=0 note=73 velocity=110 time=0
note_off channel=0 note=61 velocity=0 time=64
note_off channel=0 note=61 velocity=0 time=0
note_off channel=0 note=73 velocity=0 time=0
note_on channel=0 note=59 velocity=100 time=32
note_on channel=0 note=59 velocity=100 time=0
note_on channel=0 note=71 velocity=100 time=0
note_off channel=0 note=59 velocity=0 time=64
note_off channel=0 note=59 velocity=0 time=0
note_off channel=0 note=71 velocity=0 time=0
note_on channel=0 note=61 velocity=108 time=32
note_on channel=0 note=61 velocity=108 time=0
note_on channel=0 note=73 velocity=108 time=0
note_off channel=0 note=61 velocity=0 time=64
note_off channel=0 note=61 velocity=0 time=0
note_off channel=0 note=73 velocity=0 time=0
note_on channel=0 note=55 velocity=95 time=32
note_on channel=0 note=55 velocity=95 time=0
note_on channel=0 note=67 velocity=95 time=0
note_off channel=0 note=55 velocity=0 time=128
note_off channel=0 note=55 velocity=0 time=0
note_off channel=0 note=67 velocity=0 time=0
note_on channel=0 note=59 velocity=78 time=64
note_on channel=0 note=59 velocity=78 time=0
note_on channel=0 note=71 velocity=78 time=0
note_off channel=0 note=59 velocity=0 time=64
note_off channel=0 note=59 velocity=0 time=0
note_off channel=0 note=71 velocity=0 time=0
note_on channel=0 note=57 velocity=85 time=32
note_on channel=0 note=57 velocity=85 time=0
note_on channel=0 note=69 velocity=85 time=0
note_off channel=0 note=57 velocity=0 time=128
note_off channel=0 note=57 velocity=0 time=0
note_off channel=0 note=69 velocity=0 time=0
note_on channel=0 note=59 velocity=69 time=64
note_on channel=0 note=59 velocity=69 time=0
note_on channel=0 note=71 velocity=69 time=0
note_off channel=0 note=59 velocity=0 time=64
note_off channel=0 note=59 velocity=0 time=0
note_off channel=0 note=71 velocity=0 time=0
note_on channel=0 note=58 velocity=82 time=32
note_on channel=0 note=58 velocity=82 time=0
note_on channel=0 note=70 velocity=82 time=0
note_off channel=0 note=58 velocity=0 time=128
note_off channel=0 note=58 velocity=0 time=0
note_off channel=0 note=70 velocity=0 time=0
note_on channel=0 note=59 velocity=69 time=64
note_on channel=0 note=59 velocity=69 time=0
note_on channel=0 note=71 velocity=69 time=0
note_off channel=0 note=59 velocity=0 time=64
note_off channel=0 note=59 velocity=0 time=0
note_off channel=0 note=71 velocity=0 time=0
note_on channel=0 note=59 velocity=122 time=32
note_on channel=0 note=59 velocity=122 time=0
note_on channel=0 note=71 velocity=122 time=0
note_off channel=0 note=59 velocity=0 time=128
note_off channel=0 note=59 velocity=0 time=0
note_off channel=0 note=71 velocity=0 time=0
note_on channel=0 note=69 velocity=45 time=280
note_on channel=0 note=64 velocity=127 time=0
note_on channel=0 note=81 velocity=45 time=0
note_on channel=0 note=76 velocity=127 time=0
note_on channel=0 note=57 velocity=127 time=16
note_on channel=0 note=69 velocity=127 time=0
note_off channel=0 note=69 velocity=0 time=188
note_off channel=0 note=81 velocity=0 time=0
note_off channel=0 note=64 velocity=0 time=8
note_off channel=0 note=76 velocity=0 time=0
note_off channel=0 note=57 velocity=0 time=84
note_off channel=0 note=69 velocity=0 time=0
note_on channel=0 note=59 velocity=110 time=0
note_on channel=0 note=71 velocity=110 time=0
note_off channel=0 note=59 velocity=0 time=16
note_off channel=0 note=71 velocity=0 time=0
note_on channel=0 note=52 velocity=127 time=4
note_on channel=0 note=59 velocity=124 time=0
note_on channel=0 note=64 velocity=127 time=0
note_on channel=0 note=71 velocity=124 time=0
note_off channel=0 note=59 velocity=0 time=108
note_off channel=0 note=71 velocity=0 time=0
note_on channel=0 note=59 velocity=127 time=68
note_on channel=0 note=71 velocity=127 time=0
note_on channel=0 note=66 velocity=127 time=4
note_on channel=0 note=71 velocity=58 time=0
note_on channel=0 note=78 velocity=127 time=0
note_on channel=0 note=83 velocity=58 time=0
note_off channel=0 note=52 velocity=0 time=44
note_off channel=0 note=64 velocity=0 time=0
note_off channel=0 note=59 velocity=0 time=228
note_off channel=0 note=71 velocity=0 time=0
note_off channel=0 note=66 velocity=0 time=60
note_off channel=0 note=78 velocity=0 time=0
note_off channel=0 note=71 velocity=0 time=4
note_off channel=0 note=83 velocity=0 time=0
note_on channel=0 note=69 velocity=34 time=0
note_on channel=0 note=81 velocity=34 time=0
note_on channel=0 note=64 velocity=121 time=12
note_on channel=0 note=76 velocity=121 time=0
note_on channel=0 note=57 velocity=127 time=20
note_on channel=0 note=69 velocity=127 time=0
note_off channel=0 note=64 velocity=0 time=112
note_off channel=0 note=76 velocity=0 time=0
note_off channel=0 note=69 velocity=0 time=8
note_off channel=0 note=81 velocity=0 time=0
note_on channel=0 note=67 velocity=30 time=0
note_on channel=0 note=79 velocity=30 time=0
note_off channel=0 note=67 velocity=0 time=76
note_off channel=0 note=79 velocity=0 time=0
note_on channel=0 note=66 velocity=127 time=4
note_on channel=0 note=67 velocity=77 time=0
note_on channel=0 note=78 velocity=127 time=0
note_on channel=0 note=79 velocity=77 time=0
note_off channel=0 note=57 velocity=0 time=20
note_off channel=0 note=69 velocity=0 time=0
note_off channel=0 note=67 velocity=0 time=0
note_off channel=0 note=79 velocity=0 time=0
note_on channel=0 note=59 velocity=127 time=0
note_on channel=0 note=71 velocity=75 time=0
note_on channel=0 note=71 velocity=127 time=0
note_on channel=0 note=83 velocity=75 time=0
note_off channel=0 note=59 velocity=0 time=112
note_off channel=0 note=71 velocity=0 time=0
note_off channel=0 note=71 velocity=0 time=0
note_off channel=0 note=83 velocity=0 time=0
note_off channel=0 note=66 velocity=0 time=4
note_off channel=0 note=78 velocity=0 time=0
note_on channel=0 note=69 velocity=45 time=336
note_on channel=0 note=64 velocity=127 time=0
note_on channel=0 note=81 velocity=45 time=0
note_on channel=0 note=76 velocity=127 time=0
note_on channel=0 note=57 velocity=127 time=16
note_on channel=0 note=69 velocity=127 time=0
note_off channel=0 note=69 velocity=0 time=188
note_off channel=0 note=81 velocity=0 time=0
note_off channel=0 note=64 velocity=0 time=8
note_off channel=0 note=76 velocity=0 time=0
note_off channel=0 note=57 velocity=0 time=84
note_off channel=0 note=69 velocity=0 time=0
note_on channel=0 note=59 velocity=110 time=0
note_on channel=0 note=71 velocity=110 time=0
note_off channel=0 note=59 velocity=0 time=16
note_off channel=0 note=71 velocity=0 time=0
note_on channel=0 note=52 velocity=127 time=4
note_on channel=0 note=59 velocity=124 time=0
note_on channel=0 note=64 velocity=127 time=0
note_on channel=0 note=71 velocity=124 time=0
note_off channel=0 note=59 velocity=0 time=108
note_off channel=0 note=71 velocity=0 time=0
note_on channel=0 note=59 velocity=127 time=68
note_on channel=0 note=71 velocity=127 time=0
note_on channel=0 note=66 velocity=127 time=4
note_on channel=0 note=71 velocity=58 time=0
note_on channel=0 note=78 velocity=127 time=0
note_on channel=0 note=83 velocity=58 time=0
note_off channel=0 note=52 velocity=0 time=44
note_off channel=0 note=64 velocity=0 time=0
note_off channel=0 note=59 velocity=0 time=228
note_off channel=0 note=71 velocity=0 time=0
note_off channel=0 note=66 velocity=0 time=60
note_off channel=0 note=78 velocity=0 time=0
note_off channel=0 note=71 velocity=0 time=4
note_off channel=0 note=83 velocity=0 time=0
note_on channel=0 note=69 velocity=34 time=0
note_on channel=0 note=81 velocity=34 time=0
note_on channel=0 note=64 velocity=121 time=12
note_on channel=0 note=76 velocity=121 time=0
note_on channel=0 note=57 velocity=127 time=20
note_on channel=0 note=69 velocity=127 time=0
note_off channel=0 note=64 velocity=0 time=112
note_off channel=0 note=76 velocity=0 time=0
note_off channel=0 note=69 velocity=0 time=8
note_off channel=0 note=81 velocity=0 time=0
note_on channel=0 note=67 velocity=30 time=0
note_on channel=0 note=79 velocity=30 time=0
note_off channel=0 note=67 velocity=0 time=76
note_off channel=0 note=79 velocity=0 time=0
note_on channel=0 note=66 velocity=127 time=4
note_on channel=0 note=67 velocity=77 time=0
note_on channel=0 note=78 velocity=127 time=0
note_on channel=0 note=79 velocity=77 time=0
note_off channel=0 note=57 velocity=0 time=20
note_off channel=0 note=69 velocity=0 time=0
note_off channel=0 note=67 velocity=0 time=0
note_off channel=0 note=79 velocity=0 time=0
note_on channel=0 note=59 velocity=127 time=0
note_on channel=0 note=71 velocity=75 time=0
note_on channel=0 note=71 velocity=127 time=0
note_on channel=0 note=83 velocity=75 time=0
note_off channel=0 note=59 velocity=0 time=112
note_off channel=0 note=71 velocity=0 time=0
note_off channel=0 note=71 velocity=0 time=0
note_off channel=0 note=83 velocity=0 time=0
note_off channel=0 note=66 velocity=0 time=4
note_off channel=0 note=78 velocity=0 time=0
note_on channel=0 note=74 velocity=24 time=264
note_on channel=0 note=67 velocity=127 time=24
note_on channel=0 note=79 velocity=127 time=8
note_on channel=0 note=62 velocity=127 time=36
note_off channel=0 note=79 velocity=0 time=112
note_off channel=0 note=74 velocity=0 time=8
note_off channel=0 note=67 velocity=0 time=120
note_off channel=0 note=62 velocity=0 time=32
note_on channel=0 note=62 velocity=127 time=4
note_on channel=0 note=78 velocity=127 time=16
note_on channel=0 note=74 velocity=127 time=0
note_on channel=0 note=69 velocity=127 time=12
note_off channel=0 note=69 velocity=0 time=108
note_off channel=0 note=78 velocity=0 time=8
note_off channel=0 note=74 velocity=0 time=12
note_off channel=0 note=62 velocity=0 time=120
note_on channel=0 note=62 velocity=126 time=4
note_on channel=0 note=57 velocity=127 time=12
note_on channel=0 note=69 velocity=127 time=12
note_off channel=0 note=62 velocity=0 time=28
note_on channel=0 note=64 velocity=125 time=0
note_off channel=0 note=57 velocity=0 time=228
note_off channel=0 note=64 velocity=0 time=36
note_on channel=0 note=55 velocity=127 time=4
note_on channel=0 note=60 velocity=127 time=16
note_off channel=0 note=60 velocity=0 time=0
note_off channel=0 note=55 velocity=0 time=116
note_off channel=0 note=69 velocity=0 time=12
note_on channel=0 note=69 velocity=127 time=4
note_on channel=0 note=57 velocity=127 time=12
note_on channel=0 note=64 velocity=127 time=8
note_on channel=0 note=69 velocity=127 time=280
note_on channel=0 note=57 velocity=127 time=0
note_on channel=0 note=64 velocity=127 time=0
note_on channel=0 note=69 velocity=127 time=0
note_on channel=0 note=57 velocity=127 time=0
note_on channel=0 note=64 velocity=127 time=0
note_on channel=0 note=57 velocity=127 time=0
note_off channel=0 note=69 velocity=0 time=80
note_off channel=0 note=69 velocity=0 time=0
note_off channel=0 note=69 velocity=0 time=0
note_off channel=0 note=64 velocity=0 time=4
note_off channel=0 note=64 velocity=0 time=0
note_off channel=0 note=64 velocity=0 time=0
note_on channel=0 note=79 velocity=127 time=68
note_off channel=0 note=57 velocity=0 time=4
note_on channel=0 note=74 velocity=127 time=4
note_on channel=0 note=55 velocity=127 time=0
note_on channel=0 note=62 velocity=127 time=8
note_on channel=0 note=67 velocity=127 time=28
note_off channel=0 note=55 velocity=0 time=96
note_off channel=0 note=74 velocity=0 time=20
note_off channel=0 note=79 velocity=0 time=4
note_off channel=0 note=57 velocity=0 time=128
note_off channel=0 note=57 velocity=0 time=0
note_off channel=0 note=57 velocity=0 time=0
note_off channel=0 note=67 velocity=0 time=0
note_on channel=0 note=78 velocity=127 time=32
note_on channel=0 note=74 velocity=127 time=0
note_on channel=0 note=69 velocity=127 time=0
note_on channel=0 note=62 velocity=100 time=4
note_off channel=0 note=62 velocity=100 time=128
note_off channel=0 note=69 velocity=0 time=20
note_off channel=0 note=78 velocity=0 time=20
note_off channel=0 note=74 velocity=0 time=24
note_off channel=0 note=62 velocity=0 time=84
note_on channel=0 note=64 velocity=109 time=0
note_on channel=0 note=57 velocity=127 time=12
note_on channel=0 note=69 velocity=127 time=24
note_off channel=0 note=64 velocity=0 time=276
note_off channel=0 note=57 velocity=0 time=0
note_on channel=0 note=55 velocity=127 time=12
note_off channel=0 note=55 velocity=0 time=144
note_off channel=0 note=69 velocity=0 time=8
note_on channel=0 note=69 velocity=103 time=8
note_on channel=0 note=58 velocity=127 time=0
note_on channel=0 note=65 velocity=127 time=12
note_off channel=0 note=58 velocity=0 time=60
note_on channel=0 note=57 velocity=127 time=0
note_off channel=0 note=65 velocity=0 time=24
note_on channel=0 note=64 velocity=127 time=4
note_off channel=0 note=69 velocity=0 time=376
note_off channel=0 note=64 velocity=0 time=0
note_on channel=0 note=69 velocity=45 time=36
note_on channel=0 note=64 velocity=127 time=0
note_on channel=0 note=81 velocity=45 time=0
note_on channel=0 note=76 velocity=127 time=0
note_on channel=0 note=57 velocity=127 time=16
note_on channel=0 note=69 velocity=127 time=0
note_off channel=0 note=57 velocity=0 time=16
note_off channel=0 note=69 velocity=0 time=172
note_off channel=0 note=81 velocity=0 time=0
note_off channel=0 note=64 velocity=0 time=8
note_off channel=0 note=76 velocity=0 time=0
note_off channel=0 note=57 velocity=0 time=84
note_off channel=0 note=69 velocity=0 time=0
note_on channel=0 note=59 velocity=110 time=0
note_on channel=0 note=71 velocity=110 time=0
note_off channel=0 note=59 velocity=0 time=16
note_off channel=0 note=71 velocity=0 time=0
note_on channel=0 note=52 velocity=127 time=4
note_on channel=0 note=59 velocity=124 time=0
note_on channel=0 note=64 velocity=127 time=0
note_on channel=0 note=71 velocity=124 time=0
note_off channel=0 note=59 velocity=0 time=108
note_off channel=0 note=71 velocity=0 time=0
note_on channel=0 note=59 velocity=127 time=68
note_on channel=0 note=71 velocity=127 time=0
note_on channel=0 note=66 velocity=127 time=4
note_on channel=0 note=71 velocity=58 time=0
note_on channel=0 note=78 velocity=127 time=0
note_on channel=0 note=83 velocity=58 time=0
note_off channel=0 note=52 velocity=0 time=44
note_off channel=0 note=64 velocity=0 time=0
note_off channel=0 note=59 velocity=0 time=228
note_off channel=0 note=71 velocity=0 time=0
note_off channel=0 note=66 velocity=0 time=60
note_off channel=0 note=78 velocity=0 time=0
note_off channel=0 note=71 velocity=0 time=4
note_off channel=0 note=83 velocity=0 time=0
note_on channel=0 note=69 velocity=34 time=0
note_on channel=0 note=81 velocity=34 time=0
note_on channel=0 note=64 velocity=121 time=12
note_on channel=0 note=76 velocity=121 time=0
note_on channel=0 note=57 velocity=127 time=20
note_on channel=0 note=69 velocity=127 time=0
note_off channel=0 note=64 velocity=0 time=112
note_off channel=0 note=76 velocity=0 time=0
note_off channel=0 note=69 velocity=0 time=8
note_off channel=0 note=81 velocity=0 time=0
note_on channel=0 note=67 velocity=30 time=0
note_on channel=0 note=79 velocity=30 time=0
note_off channel=0 note=67 velocity=0 time=76
note_off channel=0 note=79 velocity=0 time=0
note_on channel=0 note=66 velocity=127 time=4
note_on channel=0 note=67 velocity=77 time=0
note_on channel=0 note=78 velocity=127 time=0
note_on channel=0 note=79 velocity=77 time=0
note_off channel=0 note=57 velocity=0 time=20
note_off channel=0 note=69 velocity=0 time=0
note_off channel=0 note=67 velocity=0 time=0
note_off channel=0 note=79 velocity=0 time=0
note_on channel=0 note=59 velocity=127 time=0
note_on channel=0 note=71 velocity=75 time=0
note_on channel=0 note=71 velocity=127 time=0
note_on channel=0 note=83 velocity=75 time=0
note_off channel=0 note=59 velocity=0 time=112
note_off channel=0 note=71 velocity=0 time=0
note_off channel=0 note=71 velocity=0 time=0
note_off channel=0 note=83 velocity=0 time=0
note_off channel=0 note=66 velocity=0 time=4
note_off channel=0 note=78 velocity=0 time=0
note_on channel=0 note=69 velocity=45 time=336
note_on channel=0 note=64 velocity=127 time=0
note_on channel=0 note=81 velocity=45 time=0
note_on channel=0 note=76 velocity=127 time=0
note_on channel=0 note=57 velocity=127 time=16
note_on channel=0 note=69 velocity=127 time=0
note_off channel=0 note=69 velocity=0 time=188
note_off channel=0 note=81 velocity=0 time=0
note_off channel=0 note=64 velocity=0 time=8
note_off channel=0 note=76 velocity=0 time=0
note_off channel=0 note=57 velocity=0 time=84
note_off channel=0 note=69 velocity=0 time=0
note_on channel=0 note=59 velocity=110 time=0
note_on channel=0 note=71 velocity=110 time=0
note_off channel=0 note=59 velocity=0 time=16
note_off channel=0 note=71 velocity=0 time=0
note_on channel=0 note=52 velocity=127 time=4
note_on channel=0 note=59 velocity=124 time=0
note_on channel=0 note=64 velocity=127 time=0
note_on channel=0 note=71 velocity=124 time=0
note_off channel=0 note=59 velocity=0 time=108
note_off channel=0 note=71 velocity=0 time=0
note_on channel=0 note=59 velocity=127 time=68
note_on channel=0 note=71 velocity=127 time=0
note_on channel=0 note=66 velocity=127 time=4
note_on channel=0 note=71 velocity=58 time=0
note_on channel=0 note=78 velocity=127 time=0
note_on channel=0 note=83 velocity=58 time=0
note_off channel=0 note=52 velocity=0 time=44
note_off channel=0 note=64 velocity=0 time=0
note_off channel=0 note=59 velocity=0 time=228
note_off channel=0 note=71 velocity=0 time=0
note_off channel=0 note=66 velocity=0 time=60
note_off channel=0 note=78 velocity=0 time=0
note_off channel=0 note=71 velocity=0 time=4
note_off channel=0 note=83 velocity=0 time=0
note_on channel=0 note=69 velocity=34 time=0
note_on channel=0 note=81 velocity=34 time=0
note_on channel=0 note=64 velocity=121 time=12
note_on channel=0 note=76 velocity=121 time=0
note_on channel=0 note=57 velocity=127 time=20
note_on channel=0 note=69 velocity=127 time=0
note_off channel=0 note=64 velocity=0 time=112
note_off channel=0 note=76 velocity=0 time=0
note_off channel=0 note=69 velocity=0 time=8
note_off channel=0 note=81 velocity=0 time=0
note_on channel=0 note=67 velocity=30 time=0
note_on channel=0 note=79 velocity=30 time=0
note_off channel=0 note=67 velocity=0 time=76
note_off channel=0 note=79 velocity=0 time=0
note_on channel=0 note=66 velocity=127 time=4
note_on channel=0 note=67 velocity=77 time=0
note_on channel=0 note=78 velocity=127 time=0
note_on channel=0 note=79 velocity=77 time=0
note_off channel=0 note=57 velocity=0 time=20
note_off channel=0 note=69 velocity=0 time=0
note_off channel=0 note=67 velocity=0 time=0
note_off channel=0 note=79 velocity=0 time=0
note_on channel=0 note=59 velocity=127 time=0
note_on channel=0 note=71 velocity=75 time=0
note_on channel=0 note=71 velocity=127 time=0
note_on channel=0 note=83 velocity=75 time=0
note_off channel=0 note=59 velocity=0 time=112
note_off channel=0 note=71 velocity=0 time=0
note_off channel=0 note=71 velocity=0 time=0
note_off channel=0 note=83 velocity=0 time=0
note_off channel=0 note=66 velocity=0 time=4
note_off channel=0 note=78 velocity=0 time=0
note_on channel=0 note=55 velocity=65 time=120
note_on channel=0 note=60 velocity=76 time=0
note_on channel=0 note=62 velocity=103 time=0
note_on channel=0 note=67 velocity=104 time=0
note_on channel=0 note=71 velocity=98 time=0
note_on channel=0 note=79 velocity=98 time=0
note_off channel=0 note=55 velocity=0 time=768
note_off channel=0 note=60 velocity=0 time=0
note_off channel=0 note=62 velocity=0 time=0
note_off channel=0 note=67 velocity=0 time=0
note_off channel=0 note=71 velocity=0 time=0
note_off channel=0 note=79 velocity=0 time=0
note_on channel=0 note=62 velocity=57 time=384
note_on channel=0 note=71 velocity=45 time=0
note_on channel=0 note=67 velocity=45 time=0
note_on channel=0 note=79 velocity=36 time=0
note_off channel=0 note=62 velocity=0 time=64
note_off channel=0 note=71 velocity=0 time=0
note_off channel=0 note=67 velocity=0 time=0
note_off channel=0 note=79 velocity=0 time=0
note_on channel=0 note=62 velocity=54 time=32
note_on channel=0 note=67 velocity=59 time=0
note_on channel=0 note=71 velocity=67 time=0
note_on channel=0 note=79 velocity=57 time=0
note_off channel=0 note=62 velocity=0 time=64
note_off channel=0 note=67 velocity=0 time=0
note_off channel=0 note=71 velocity=0 time=0
note_off channel=0 note=79 velocity=0 time=0
note_on channel=0 note=55 velocity=32 time=32
note_on channel=0 note=62 velocity=69 time=0
note_on channel=0 note=67 velocity=84 time=0
note_on channel=0 note=71 velocity=81 time=0
note_on channel=0 note=79 velocity=73 time=0
note_off channel=0 note=55 velocity=0 time=128
note_off channel=0 note=62 velocity=0 time=0
note_off channel=0 note=67 velocity=0 time=0
note_off channel=0 note=71 velocity=0 time=0
note_off channel=0 note=79 velocity=0 time=0
note_on channel=0 note=62 velocity=68 time=64
note_on channel=0 note=81 velocity=32 time=0
note_on channel=0 note=62 velocity=77 time=0
note_on channel=0 note=69 velocity=79 time=0
note_on channel=0 note=74 velocity=79 time=0
note_on channel=0 note=78 velocity=66 time=0
note_on channel=0 note=86 velocity=100 time=768
note_off channel=0 note=62 velocity=0 time=260
note_off channel=0 note=81 velocity=0 time=0
note_off channel=0 note=62 velocity=0 time=0
note_off channel=0 note=69 velocity=0 time=0
note_off channel=0 note=74 velocity=0 time=0
note_off channel=0 note=78 velocity=0 time=0
note_off channel=0 note=86 velocity=100 time=252
note_on channel=0 note=84 velocity=100 time=256
note_off channel=0 note=84 velocity=100 time=768
note_on channel=0 note=83 velocity=100 time=672
note_off channel=0 note=83 velocity=100 time=64
note_on channel=0 note=81 velocity=100 time=32
note_off channel=0 note=81 velocity=100 time=512
note_on channel=0 note=76 velocity=100 time=256
note_off channel=0 note=76 velocity=100 time=512
note_on channel=0 note=76 velocity=100 time=256
note_off channel=0 note=76 velocity=100 time=64
note_on channel=0 note=74 velocity=100 time=32
note_off channel=0 note=74 velocity=100 time=64
note_on channel=0 note=74 velocity=100 time=32
note_off channel=0 note=74 velocity=100 time=64
note_on channel=0 note=76 velocity=100 time=32
note_off channel=0 note=76 velocity=100 time=256
note_on channel=0 note=74 velocity=100 time=224
note_off channel=0 note=74 velocity=100 time=64
note_on channel=0 note=73 velocity=100 time=32
note_off channel=0 note=73 velocity=100 time=64
note_on channel=0 note=73 velocity=100 time=32
note_off channel=0 note=73 velocity=100 time=64
note_on channel=0 note=74 velocity=100 time=32
note_off channel=0 note=74 velocity=100 time=256
note_on channel=0 note=76 velocity=100 time=224
note_on channel=0 note=73 velocity=100 time=0
note_off channel=0 note=76 velocity=100 time=64
note_off channel=0 note=73 velocity=100 time=0
note_on channel=0 note=71 velocity=100 time=32
note_off channel=0 note=71 velocity=100 time=64
note_on channel=0 note=71 velocity=100 time=32
note_off channel=0 note=71 velocity=100 time=64
note_on channel=0 note=76 velocity=100 time=32
note_on channel=0 note=73 velocity=100 time=0
note_off channel=0 note=76 velocity=100 time=256
note_off channel=0 note=73 velocity=100 time=0
note_on channel=0 note=79 velocity=100 time=320
note_on channel=0 note=83 velocity=100 time=0
note_off channel=0 note=79 velocity=100 time=192
note_off channel=0 note=83 velocity=100 time=0
note_on channel=0 note=76 velocity=100 time=96
note_off channel=0 note=76 velocity=100 time=256
note_on channel=0 note=76 velocity=100 time=128
note_off channel=0 note=76 velocity=100 time=64
note_on channel=0 note=74 velocity=100 time=32
note_off channel=0 note=74 velocity=100 time=64
note_on channel=0 note=74 velocity=100 time=32
note_off channel=0 note=74 velocity=100 time=64
note_on channel=0 note=76 velocity=100 time=32
note_off channel=0 note=76 velocity=100 time=256
note_on channel=0 note=74 velocity=100 time=224
note_off channel=0 note=74 velocity=100 time=64
note_on channel=0 note=73 velocity=100 time=32
note_off channel=0 note=73 velocity=100 time=64
note_on channel=0 note=73 velocity=100 time=32
note_off channel=0 note=73 velocity=100 time=64
note_on channel=0 note=74 velocity=100 time=32
note_off channel=0 note=74 velocity=100 time=256
note_on channel=0 note=73 velocity=100 time=224
note_off channel=0 note=73 velocity=100 time=64
note_on channel=0 note=71 velocity=100 time=32
note_off channel=0 note=71 velocity=100 time=64
note_on channel=0 note=71 velocity=100 time=32
note_off channel=0 note=71 velocity=100 time=64
note_on channel=0 note=73 velocity=100 time=32
note_off channel=0 note=73 velocity=100 time=256
note_on channel=0 note=88 velocity=100 time=320
note_off channel=0 note=88 velocity=100 time=128
note_on channel=0 note=88 velocity=100 time=160
note_off channel=0 note=88 velocity=100 time=64
note_on channel=0 note=83 velocity=100 time=32
note_off channel=0 note=83 velocity=100 time=64
note_on channel=0 note=88 velocity=100 time=32
note_off channel=0 note=88 velocity=100 time=128
note_on channel=0 note=76 velocity=100 time=64
note_off channel=0 note=76 velocity=100 time=64
note_on channel=0 note=74 velocity=100 time=32
note_off channel=0 note=74 velocity=100 time=64
note_on channel=0 note=74 velocity=100 time=32
note_off channel=0 note=74 velocity=100 time=64
note_on channel=0 note=76 velocity=100 time=32
note_off channel=0 note=76 velocity=100 time=256
note_on channel=0 note=74 velocity=100 time=224
note_off channel=0 note=74 velocity=100 time=64
note_on channel=0 note=73 velocity=100 time=32
note_off channel=0 note=73 velocity=100 time=64
note_on channel=0 note=73 velocity=100 time=32
note_off channel=0 note=73 velocity=100 time=64
note_on channel=0 note=74 velocity=100 time=32
note_off channel=0 note=74 velocity=100 time=256
note_on channel=0 note=76 velocity=100 time=224
note_on channel=0 note=73 velocity=100 time=0
note_off channel=0 note=76 velocity=100 time=64
note_off channel=0 note=73 velocity=100 time=0
note_on channel=0 note=71 velocity=100 time=32
note_off channel=0 note=71 velocity=100 time=64
note_on channel=0 note=71 velocity=100 time=32
note_off channel=0 note=71 velocity=100 time=64
note_on channel=0 note=76 velocity=100 time=32
note_on channel=0 note=73 velocity=100 time=0
note_off channel=0 note=76 velocity=100 time=256
note_off channel=0 note=73 velocity=100 time=0
note_on channel=0 note=79 velocity=100 time=320
note_on channel=0 note=83 velocity=100 time=0
note_off channel=0 note=79 velocity=100 time=192
note_off channel=0 note=83 velocity=100 time=0
note_on channel=0 note=76 velocity=100 time=96
note_off channel=0 note=76 velocity=100 time=256
note_on channel=0 note=76 velocity=100 time=128
note_off channel=0 note=76 velocity=100 time=64
note_on channel=0 note=74 velocity=100 time=32
note_off channel=0 note=74 velocity=100 time=64
note_on channel=0 note=74 velocity=100 time=32
note_off channel=0 note=74 velocity=100 time=64
note_on channel=0 note=76 velocity=100 time=32
note_off channel=0 note=76 velocity=100 time=256
note_on channel=0 note=74 velocity=100 time=224
note_off channel=0 note=74 velocity=100 time=64
note_on channel=0 note=73 velocity=100 time=32
note_off channel=0 note=73 velocity=100 time=64
note_on channel=0 note=73 velocity=100 time=32
note_off channel=0 note=73 velocity=100 time=64
note_on channel=0 note=74 velocity=100 time=32
note_off channel=0 note=74 velocity=100 time=256
note_on channel=0 note=73 velocity=100 time=224
note_off channel=0 note=73 velocity=100 time=64
note_on channel=0 note=71 velocity=100 time=32
note_off channel=0 note=71 velocity=100 time=64
note_on channel=0 note=71 velocity=100 time=32
note_off channel=0 note=71 velocity=100 time=64
note_on channel=0 note=73 velocity=100 time=32
note_off channel=0 note=73 velocity=100 time=256
note_on channel=0 note=88 velocity=100 time=320
note_off channel=0 note=88 velocity=100 time=128
note_on channel=0 note=88 velocity=100 time=160
note_off channel=0 note=88 velocity=100 time=64
note_on channel=0 note=83 velocity=100 time=32
note_off channel=0 note=83 velocity=100 time=64
note_on channel=0 note=88 velocity=100 time=32
note_off channel=0 note=88 velocity=100 time=128
note_on channel=0 note=76 velocity=100 time=64
note_off channel=0 note=76 velocity=100 time=64
note_on channel=0 note=74 velocity=100 time=32
note_off channel=0 note=74 velocity=100 time=64
note_on channel=0 note=74 velocity=100 time=32
note_off channel=0 note=74 velocity=100 time=64
note_on channel=0 note=76 velocity=100 time=32
note_off channel=0 note=76 velocity=100 time=256
note_on channel=0 note=74 velocity=100 time=224
note_off channel=0 note=74 velocity=100 time=64
note_on channel=0 note=73 velocity=100 time=32
note_off channel=0 note=73 velocity=100 time=64
note_on channel=0 note=73 velocity=100 time=32
note_off channel=0 note=73 velocity=100 time=64
note_on channel=0 note=74 velocity=100 time=32
note_off channel=0 note=74 velocity=100 time=256
note_on channel=0 note=76 velocity=100 time=224
note_on channel=0 note=73 velocity=100 time=0
note_off channel=0 note=76 velocity=100 time=64
note_off channel=0 note=73 velocity=100 time=0
note_on channel=0 note=71 velocity=100 time=32
note_off channel=0 note=71 velocity=100 time=64
note_on channel=0 note=71 velocity=100 time=32
note_off channel=0 note=71 velocity=100 time=64
note_on channel=0 note=76 velocity=100 time=32
note_on channel=0 note=73 velocity=100 time=0
note_off channel=0 note=76 velocity=100 time=256
note_off channel=0 note=73 velocity=100 time=0
note_on channel=0 note=79 velocity=100 time=320
note_on channel=0 note=83 velocity=100 time=0
note_off channel=0 note=79 velocity=100 time=192
note_off channel=0 note=83 velocity=100 time=0
note_on channel=0 note=76 velocity=100 time=96
note_off channel=0 note=76 velocity=100 time=256
note_on channel=0 note=76 velocity=100 time=128
note_off channel=0 note=76 velocity=100 time=64
note_on channel=0 note=74 velocity=100 time=32
note_off channel=0 note=74 velocity=100 time=64
note_on channel=0 note=74 velocity=100 time=32
note_off channel=0 note=74 velocity=100 time=64
note_on channel=0 note=76 velocity=100 time=32
note_off channel=0 note=76 velocity=100 time=256
note_on channel=0 note=74 velocity=100 time=224
note_off channel=0 note=74 velocity=100 time=64
note_on channel=0 note=73 velocity=100 time=32
note_off channel=0 note=73 velocity=100 time=64
note_on channel=0 note=73 velocity=100 time=32
note_off channel=0 note=73 velocity=100 time=64
note_on channel=0 note=74 velocity=100 time=32
note_off channel=0 note=74 velocity=100 time=256
note_on channel=0 note=73 velocity=100 time=224
note_off channel=0 note=73 velocity=100 time=64
note_on channel=0 note=71 velocity=100 time=32
note_off channel=0 note=71 velocity=100 time=64
note_on channel=0 note=71 velocity=100 time=32
note_off channel=0 note=71 velocity=100 time=64
note_on channel=0 note=73 velocity=100 time=32
note_off channel=0 note=73 velocity=100 time=256
note_on channel=0 note=88 velocity=100 time=320
note_off channel=0 note=88 velocity=100 time=128
note_on channel=0 note=88 velocity=100 time=160
note_off channel=0 note=88 velocity=100 time=64
note_on channel=0 note=83 velocity=100 time=32
note_off channel=0 note=83 velocity=100 time=64
note_on channel=0 note=88 velocity=100 time=32
note_off channel=0 note=88 velocity=100 time=128
<meta message end_of_track time=0>
control_change channel=1 control=0 value=0 time=0
program_change channel=1 program=29 time=0
control_change channel=1 control=10 value=31 time=0
control_change channel=1 control=91 value=15 time=0
control_change channel=1 control=93 value=80 time=0
<meta message key_signature key='E' time=0>
note_on channel=1 note=52 velocity=127 time=1536
note_on channel=1 note=47 velocity=127 time=0
note_on channel=1 note=64 velocity=42 time=0
note_on channel=1 note=56 velocity=127 time=0
note_on channel=1 note=40 velocity=107 time=0
note_on channel=1 note=64 velocity=127 time=0
note_on channel=1 note=59 velocity=127 time=0
note_on channel=1 note=76 velocity=42 time=0
note_on channel=1 note=71 velocity=127 time=0
note_on channel=1 note=68 velocity=127 time=0
note_on channel=1 note=52 velocity=107 time=0
note_on channel=1 note=59 velocity=127 time=0
note_off channel=1 note=52 velocity=0 time=384
note_off channel=1 note=47 velocity=0 time=0
note_off channel=1 note=64 velocity=0 time=0
note_off channel=1 note=56 velocity=0 time=0
note_off channel=1 note=40 velocity=0 time=0
note_off channel=1 note=64 velocity=0 time=0
note_off channel=1 note=59 velocity=0 time=0
note_off channel=1 note=76 velocity=0 time=0
note_off channel=1 note=71 velocity=0 time=0
note_off channel=1 note=68 velocity=0 time=0
note_off channel=1 note=52 velocity=0 time=0
note_off channel=1 note=59 velocity=0 time=0
note_on channel=1 note=50 velocity=127 time=192
note_on channel=1 note=62 velocity=127 time=0
note_on channel=1 note=57 velocity=127 time=0
note_on channel=1 note=66 velocity=127 time=0
note_on channel=1 note=62 velocity=127 time=0
note_on channel=1 note=74 velocity=127 time=0
note_on channel=1 note=69 velocity=127 time=0
note_on channel=1 note=78 velocity=127 time=0
note_off channel=1 note=50 velocity=0 time=96
note_off channel=1 note=62 velocity=0 time=0
note_off channel=1 note=57 velocity=0 time=0
note_off channel=1 note=66 velocity=0 time=0
note_off channel=1 note=62 velocity=0 time=0
note_off channel=1 note=74 velocity=0 time=0
note_off channel=1 note=69 velocity=0 time=0
note_off channel=1 note=78 velocity=0 time=0
note_on channel=1 note=66 velocity=104 time=0
note_on channel=1 note=62 velocity=127 time=0
note_on channel=1 note=57 velocity=127 time=0
note_on channel=1 note=50 velocity=127 time=0
note_on channel=1 note=78 velocity=104 time=0
note_on channel=1 note=74 velocity=127 time=0
note_on channel=1 note=69 velocity=127 time=0
note_on channel=1 note=62 velocity=127 time=0
note_off channel=1 note=66 velocity=0 time=96
note_off channel=1 note=62 velocity=0 time=0
note_off channel=1 note=57 velocity=127 time=0
note_off channel=1 note=50 velocity=127 time=0
note_off channel=1 note=78 velocity=0 time=0
note_off channel=1 note=74 velocity=0 time=0
note_off channel=1 note=69 velocity=127 time=0
note_off channel=1 note=62 velocity=127 time=0
note_on channel=1 note=62 velocity=127 time=0
note_on channel=1 note=66 velocity=127 time=0
note_on channel=1 note=57 velocity=127 time=0
note_on channel=1 note=50 velocity=127 time=0
note_on channel=1 note=74 velocity=127 time=0
note_on channel=1 note=78 velocity=127 time=0
note_on channel=1 note=69 velocity=127 time=0
note_on channel=1 note=62 velocity=127 time=0
note_off channel=1 note=62 velocity=0 time=384
note_off channel=1 note=66 velocity=0 time=0
note_off channel=1 note=57 velocity=127 time=0
note_off channel=1 note=50 velocity=127 time=0
note_off channel=1 note=74 velocity=0 time=0
note_off channel=1 note=78 velocity=0 time=0
note_off channel=1 note=69 velocity=127 time=0
note_off channel=1 note=62 velocity=127 time=0
note_on channel=1 note=45 velocity=127 time=192
note_on channel=1 note=61 velocity=127 time=0
note_on channel=1 note=52 velocity=127 time=0
note_on channel=1 note=57 velocity=127 time=0
note_on channel=1 note=57 velocity=127 time=0
note_on channel=1 note=73 velocity=127 time=0
note_on channel=1 note=64 velocity=127 time=0
note_on channel=1 note=69 velocity=127 time=0
note_off channel=1 note=45 velocity=0 time=96
note_off channel=1 note=61 velocity=0 time=0
note_off channel=1 note=52 velocity=0 time=0
note_off channel=1 note=57 velocity=0 time=0
note_off channel=1 note=57 velocity=0 time=0
note_off channel=1 note=73 velocity=0 time=0
note_off channel=1 note=64 velocity=0 time=0
note_off channel=1 note=69 velocity=0 time=0
note_on channel=1 note=45 velocity=127 time=0
note_on channel=1 note=52 velocity=127 time=0
note_on channel=1 note=57 velocity=127 time=0
note_on channel=1 note=61 velocity=127 time=0
note_on channel=1 note=57 velocity=127 time=0
note_on channel=1 note=64 velocity=127 time=0
note_on channel=1 note=69 velocity=127 time=0
note_on channel=1 note=73 velocity=127 time=0
note_off channel=1 note=45 velocity=0 time=96
note_off channel=1 note=52 velocity=127 time=0
note_off channel=1 note=57 velocity=127 time=0
note_off channel=1 note=61 velocity=127 time=0
note_off channel=1 note=57 velocity=0 time=0
note_off channel=1 note=64 velocity=127 time=0
note_off channel=1 note=69 velocity=127 time=0
note_off channel=1 note=73 velocity=127 time=0
note_on channel=1 note=45 velocity=127 time=0
note_on channel=1 note=61 velocity=127 time=0
note_on channel=1 note=64 velocity=127 time=0
note_on channel=1 note=57 velocity=127 time=0
note_on channel=1 note=52 velocity=127 time=0
note_on channel=1 note=57 velocity=127 time=0
note_on channel=1 note=73 velocity=127 time=0
note_on channel=1 note=76 velocity=127 time=0
note_on channel=1 note=69 velocity=127 time=0
note_on channel=1 note=64 velocity=127 time=0
note_off channel=1 note=45 velocity=0 time=384
note_off channel=1 note=61 velocity=0 time=0
note_off channel=1 note=64 velocity=0 time=0
note_off channel=1 note=57 velocity=127 time=0
note_off channel=1 note=52 velocity=127 time=0
note_off channel=1 note=57 velocity=0 time=0
note_off channel=1 note=73 velocity=0 time=0
note_off channel=1 note=76 velocity=0 time=0
note_off channel=1 note=69 velocity=127 time=0
note_off channel=1 note=64 velocity=127 time=0
note_on channel=1 note=79 velocity=127 time=480
note_on channel=1 note=67 velocity=127 time=0
note_off channel=1 note=79 velocity=0 time=64
note_off channel=1 note=67 velocity=0 time=0
note_on channel=1 note=76 velocity=127 time=32
note_on channel=1 note=64 velocity=127 time=0
note_on channel=1 note=74 velocity=127 time=96
note_on channel=1 note=62 velocity=127 time=0
note_off channel=1 note=76 velocity=0 time=32
note_off channel=1 note=64 velocity=0 time=0
note_off channel=1 note=74 velocity=0 time=32
note_off channel=1 note=62 velocity=0 time=0
note_on channel=1 note=71 velocity=127 time=32
note_on channel=1 note=59 velocity=127 time=0
note_on channel=1 note=71 velocity=127 time=96
note_on channel=1 note=59 velocity=127 time=0
note_off channel=1 note=71 velocity=0 time=32
note_off channel=1 note=59 velocity=0 time=0
note_on channel=1 note=69 velocity=127 time=64
note_on channel=1 note=57 velocity=127 time=0
note_off channel=1 note=71 velocity=0 time=12
note_off channel=1 note=59 velocity=0 time=8
note_off channel=1 note=69 velocity=0 time=44
note_off channel=1 note=57 velocity=0 time=0
note_on channel=1 note=67 velocity=127 time=32
note_on channel=1 note=55 velocity=127 time=0
note_off channel=1 note=67 velocity=0 time=64
note_off channel=1 note=55 velocity=0 time=0
note_on channel=1 note=52 velocity=127 time=32
note_on channel=1 note=47 velocity=127 time=0
note_on channel=1 note=64 velocity=42 time=0
note_on channel=1 note=59 velocity=127 time=0
note_on channel=1 note=56 velocity=127 time=0
note_on channel=1 note=40 velocity=107 time=0
note_off channel=1 note=52 velocity=0 time=384
note_off channel=1 note=47 velocity=0 time=0
note_off channel=1 note=64 velocity=0 time=0
note_off channel=1 note=59 velocity=0 time=0
note_off channel=1 note=56 velocity=0 time=0
note_off channel=1 note=40 velocity=0 time=0
note_on channel=1 note=50 velocity=127 time=192
note_on channel=1 note=62 velocity=127 time=0
note_on channel=1 note=57 velocity=127 time=0
note_on channel=1 note=66 velocity=127 time=0
note_off channel=1 note=50 velocity=0 time=96
note_off channel=1 note=62 velocity=0 time=0
note_off channel=1 note=57 velocity=0 time=0
note_off channel=1 note=66 velocity=0 time=0
note_on channel=1 note=66 velocity=104 time=0
note_on channel=1 note=62 velocity=127 time=0
note_on channel=1 note=57 velocity=127 time=0
note_on channel=1 note=50 velocity=127 time=0
note_off channel=1 note=66 velocity=0 time=96
note_off channel=1 note=62 velocity=0 time=0
note_off channel=1 note=57 velocity=127 time=0
note_off channel=1 note=50 velocity=127 time=0
note_on channel=1 note=62 velocity=127 time=0
note_on channel=1 note=66 velocity=127 time=0
note_on channel=1 note=57 velocity=127 time=0
note_on channel=1 note=50 velocity=127 time=0
note_off channel=1 note=62 velocity=0 time=384
note_off channel=1 note=66 velocity=0 time=0
note_off channel=1 note=57 velocity=127 time=0
note_off channel=1 note=50 velocity=127 time=0
note_on channel=1 note=45 velocity=127 time=192
note_on channel=1 note=61 velocity=127 time=0
note_on channel=1 note=52 velocity=127 time=0
note_on channel=1 note=57 velocity=127 time=0
note_off channel=1 note=45 velocity=0 time=96
note_off channel=1 note=61 velocity=0 time=0
note_off channel=1 note=52 velocity=0 time=0
note_off channel=1 note=57 velocity=0 time=0
note_on channel=1 note=45 velocity=127 time=0
note_on channel=1 note=52 velocity=127 time=0
note_on channel=1 note=57 velocity=127 time=0
note_on channel=1 note=61 velocity=127 time=0
note_off channel=1 note=45 velocity=0 time=96
note_off channel=1 note=52 velocity=127 time=0
note_off channel=1 note=57 velocity=127 time=0
note_off channel=1 note=61 velocity=127 time=0
note_on channel=1 note=45 velocity=127 time=0
note_on channel=1 note=61 velocity=127 time=0
note_on channel=1 note=64 velocity=127 time=0
note_on channel=1 note=57 velocity=127 time=0
note_on channel=1 note=52 velocity=127 time=0
note_off channel=1 note=45 velocity=0 time=384
note_off channel=1 note=61 velocity=0 time=0
note_off channel=1 note=64 velocity=0 time=0
note_off channel=1 note=57 velocity=127 time=0
note_off channel=1 note=52 velocity=127 time=0
note_on channel=1 note=59 velocity=127 time=0
note_on channel=1 note=47 velocity=127 time=0
note_on channel=1 note=71 velocity=127 time=0
note_off channel=1 note=59 velocity=0 time=64
note_off channel=1 note=47 velocity=0 time=0
note_off channel=1 note=71 velocity=0 time=0
note_on channel=1 note=56 velocity=127 time=32
note_on channel=1 note=44 velocity=127 time=0
note_on channel=1 note=68 velocity=127 time=0
note_off channel=1 note=56 velocity=0 time=128
note_off channel=1 note=44 velocity=0 time=0
note_off channel=1 note=68 velocity=0 time=0
note_on channel=1 note=59 velocity=127 time=64
note_on channel=1 note=47 velocity=127 time=0
note_on channel=1 note=71 velocity=127 time=0
note_off channel=1 note=59 velocity=0 time=64
note_off channel=1 note=47 velocity=0 time=0
note_off channel=1 note=71 velocity=0 time=0
note_on channel=1 note=57 velocity=127 time=32
note_on channel=1 note=45 velocity=127 time=0
note_on channel=1 note=69 velocity=127 time=0
note_off channel=1 note=57 velocity=0 time=128
note_off channel=1 note=45 velocity=0 time=0
note_off channel=1 note=69 velocity=0 time=0
note_on channel=1 note=59 velocity=127 time=64
note_on channel=1 note=47 velocity=127 time=0
note_on channel=1 note=71 velocity=127 time=0
note_off channel=1 note=59 velocity=0 time=64
note_off channel=1 note=47 velocity=0 time=0
note_off channel=1 note=71 velocity=0 time=0
note_on channel=1 note=58 velocity=127 time=32
note_on channel=1 note=46 velocity=127 time=0
note_on channel=1 note=70 velocity=127 time=0
note_off channel=1 note=58 velocity=0 time=128
note_off channel=1 note=46 velocity=0 time=0
note_off channel=1 note=70 velocity=0 time=0
note_on channel=1 note=59 velocity=127 time=64
note_on channel=1 note=47 velocity=127 time=0
note_on channel=1 note=71 velocity=127 time=0
note_off channel=1 note=59 velocity=0 time=64
note_off channel=1 note=47 velocity=0 time=0
note_off channel=1 note=71 velocity=0 time=0
note_on channel=1 note=58 velocity=127 time=32
note_on channel=1 note=46 velocity=127 time=0
note_on channel=1 note=70 velocity=127 time=0
note_off channel=1 note=58 velocity=0 time=64
note_off channel=1 note=46 velocity=0 time=0
note_off channel=1 note=70 velocity=0 time=0
note_on channel=1 note=59 velocity=127 time=32
note_on channel=1 note=47 velocity=127 time=0
note_on channel=1 note=71 velocity=127 time=0
note_off channel=1 note=59 velocity=127 time=64
note_off channel=1 note=47 velocity=127 time=0
note_off channel=1 note=71 velocity=127 time=0
note_on channel=1 note=52 velocity=127 time=32
note_on channel=1 note=47 velocity=127 time=0
note_on channel=1 note=64 velocity=42 time=0
note_on channel=1 note=56 velocity=127 time=0
note_on channel=1 note=40 velocity=107 time=0
note_on channel=1 note=64 velocity=127 time=0
note_on channel=1 note=59 velocity=127 time=0
note_on channel=1 note=76 velocity=42 time=0
note_on channel=1 note=71 velocity=127 time=0
note_on channel=1 note=68 velocity=127 time=0
note_on channel=1 note=52 velocity=107 time=0
note_on channel=1 note=59 velocity=127 time=0
note_off channel=1 note=52 velocity=0 time=384
note_off channel=1 note=47 velocity=0 time=0
note_off channel=1 note=64 velocity=0 time=0
note_off channel=1 note=56 velocity=0 time=0
note_off channel=1 note=40 velocity=0 time=0
note_off channel=1 note=64 velocity=0 time=0
note_off channel=1 note=59 velocity=0 time=0
note_off channel=1 note=76 velocity=0 time=0
note_off channel=1 note=71 velocity=0 time=0
note_off channel=1 note=68 velocity=0 time=0
note_off channel=1 note=52 velocity=0 time=0
note_off channel=1 note=59 velocity=0 time=0
note_on channel=1 note=50 velocity=127 time=192
note_on channel=1 note=62 velocity=127 time=0
note_on channel=1 note=57 velocity=127 time=0
note_on channel=1 note=66 velocity=127 time=0
note_on channel=1 note=62 velocity=127 time=0
note_on channel=1 note=74 velocity=127 time=0
note_on channel=1 note=69 velocity=127 time=0
note_on channel=1 note=78 velocity=127 time=0
note_off channel=1 note=50 velocity=0 time=96
note_off channel=1 note=62 velocity=0 time=0
note_off channel=1 note=57 velocity=0 time=0
note_off channel=1 note=66 velocity=0 time=0
note_off channel=1 note=62 velocity=0 time=0
note_off channel=1 note=74 velocity=0 time=0
note_off channel=1 note=69 velocity=0 time=0
note_off channel=1 note=78 velocity=0 time=0
note_on channel=1 note=66 velocity=104 time=0
note_on channel=1 note=62 velocity=127 time=0
note_on channel=1 note=57 velocity=127 time=0
note_on channel=1 note=50 velocity=127 time=0
note_on channel=1 note=78 velocity=104 time=0
note_on channel=1 note=74 velocity=127 time=0
note_on channel=1 note=69 velocity=127 time=0
note_on channel=1 note=62 velocity=127 time=0
note_off channel=1 note=66 velocity=0 time=96
note_off channel=1 note=62 velocity=0 time=0
note_off channel=1 note=57 velocity=127 time=0
note_off channel=1 note=50 velocity=127 time=0
note_off channel=1 note=78 velocity=0 time=0
note_off channel=1 note=74 velocity=0 time=0
note_off channel=1 note=69 velocity=127 time=0
note_off channel=1 note=62 velocity=127 time=0
note_on channel=1 note=62 velocity=127 time=0
note_on channel=1 note=66 velocity=127 time=0
note_on channel=1 note=57 velocity=127 time=0
note_on channel=1 note=50 velocity=127 time=0
note_on channel=1 note=74 velocity=127 time=0
note_on channel=1 note=78 velocity=127 time=0
note_on channel=1 note=69 velocity=127 time=0
note_on channel=1 note=62 velocity=127 time=0
note_off channel=1 note=62 velocity=0 time=384
note_off channel=1 note=66 velocity=0 time=0
note_off channel=1 note=57 velocity=127 time=0
note_off channel=1 note=50 velocity=127 time=0
note_off channel=1 note=74 velocity=0 time=0
note_off channel=1 note=78 velocity=0 time=0
note_off channel=1 note=69 velocity=127 time=0
note_off channel=1 note=62 velocity=127 time=0
note_on channel=1 note=45 velocity=127 time=192
note_on channel=1 note=61 velocity=127 time=0
note_on channel=1 note=52 velocity=127 time=0
note_on channel=1 note=57 velocity=127 time=0
note_on channel=1 note=57 velocity=127 time=0
note_on channel=1 note=73 velocity=127 time=0
note_on channel=1 note=64 velocity=127 time=0
note_on channel=1 note=69 velocity=127 time=0
note_off channel=1 note=45 velocity=0 time=96
note_off channel=1 note=61 velocity=0 time=0
note_off channel=1 note=52 velocity=0 time=0
note_off channel=1 note=57 velocity=0 time=0
note_off channel=1 note=57 velocity=0 time=0
note_off channel=1 note=73 velocity=0 time=0
note_off channel=1 note=64 velocity=0 time=0
note_off channel=1 note=69 velocity=0 time=0
note_on channel=1 note=45 velocity=127 time=0
note_on channel=1 note=52 velocity=127 time=0
note_on channel=1 note=57 velocity=127 time=0
note_on channel=1 note=61 velocity=127 time=0
note_on channel=1 note=57 velocity=127 time=0
note_on channel=1 note=64 velocity=127 time=0
note_on channel=1 note=69 velocity=127 time=0
note_on channel=1 note=73 velocity=127 time=0
note_off channel=1 note=45 velocity=0 time=96
note_off channel=1 note=52 velocity=127 time=0
note_off channel=1 note=57 velocity=127 time=0
note_off channel=1 note=61 velocity=127 time=0
note_off channel=1 note=57 velocity=0 time=0
note_off channel=1 note=64 velocity=127 time=0
note_off channel=1 note=69 velocity=127 time=0
note_off channel=1 note=73 velocity=127 time=0
note_on channel=1 note=45 velocity=127 time=0
note_on channel=1 note=61 velocity=127 time=0
note_on channel=1 note=64 velocity=127 time=0
note_on channel=1 note=57 velocity=127 time=0
note_on channel=1 note=52 velocity=127 time=0
note_on channel=1 note=57 velocity=127 time=0
note_on channel=1 note=73 velocity=127 time=0
note_on channel=1 note=76 velocity=127 time=0
note_on channel=1 note=69 velocity=127 time=0
note_on channel=1 note=64 velocity=127 time=0
note_off channel=1 note=45 velocity=0 time=384
note_off channel=1 note=61 velocity=0 time=0
note_off channel=1 note=64 velocity=0 time=0
note_off channel=1 note=57 velocity=127 time=0
note_off channel=1 note=52 velocity=127 time=0
note_off channel=1 note=57 velocity=0 time=0
note_off channel=1 note=73 velocity=0 time=0
note_off channel=1 note=76 velocity=0 time=0
note_off channel=1 note=69 velocity=127 time=0
note_off channel=1 note=64 velocity=127 time=0
note_on channel=1 note=79 velocity=127 time=480
note_on channel=1 note=67 velocity=127 time=0
note_off channel=1 note=79 velocity=0 time=64
note_off channel=1 note=67 velocity=0 time=0
note_on channel=1 note=76 velocity=127 time=32
note_on channel=1 note=64 velocity=127 time=0
note_on channel=1 note=74 velocity=127 time=96
note_on channel=1 note=62 velocity=127 time=0
note_off channel=1 note=76 velocity=0 time=32
note_off channel=1 note=64 velocity=0 time=0
note_off channel=1 note=74 velocity=0 time=32
note_off channel=1 note=62 velocity=0 time=0
note_on channel=1 note=71 velocity=127 time=32
note_on channel=1 note=59 velocity=127 time=0
note_on channel=1 note=71 velocity=127 time=96
note_on channel=1 note=59 velocity=127 time=0
note_off channel=1 note=71 velocity=0 time=32
note_off channel=1 note=59 velocity=0 time=0
note_on channel=1 note=69 velocity=127 time=64
note_on channel=1 note=57 velocity=127 time=0
note_off channel=1 note=71 velocity=0 time=12
note_off channel=1 note=59 velocity=0 time=8
note_off channel=1 note=69 velocity=0 time=44
note_off channel=1 note=57 velocity=0 time=0
note_on channel=1 note=67 velocity=127 time=32
note_on channel=1 note=55 velocity=127 time=0
note_off channel=1 note=67 velocity=0 time=64
note_off channel=1 note=55 velocity=0 time=0
note_on channel=1 note=52 velocity=127 time=32
note_on channel=1 note=47 velocity=127 time=0
note_on channel=1 note=64 velocity=42 time=0
note_on channel=1 note=59 velocity=127 time=0
note_on channel=1 note=56 velocity=127 time=0
note_on channel=1 note=40 velocity=107 time=0
note_off channel=1 note=52 velocity=0 time=384
note_off channel=1 note=47 velocity=0 time=0
note_off channel=1 note=64 velocity=0 time=0
note_off channel=1 note=59 velocity=0 time=0
note_off channel=1 note=56 velocity=0 time=0
note_off channel=1 note=40 velocity=0 time=0
note_on channel=1 note=50 velocity=127 time=192
note_on channel=1 note=62 velocity=127 time=0
note_on channel=1 note=57 velocity=127 time=0
note_on channel=1 note=66 velocity=127 time=0
note_off channel=1 note=50 velocity=0 time=96
note_off channel=1 note=62 velocity=0 time=0
note_off channel=1 note=57 velocity=0 time=0
note_off channel=1 note=66 velocity=0 time=0
note_on channel=1 note=66 velocity=104 time=0
note_on channel=1 note=62 velocity=127 time=0
note_on channel=1 note=57 velocity=127 time=0
note_on channel=1 note=50 velocity=127 time=0
note_off channel=1 note=66 velocity=0 time=96
note_off channel=1 note=62 velocity=0 time=0
note_off channel=1 note=57 velocity=127 time=0
note_off channel=1 note=50 velocity=127 time=0
note_on channel=1 note=62 velocity=127 time=0
note_on channel=1 note=66 velocity=127 time=0
note_on channel=1 note=57 velocity=127 time=0
note_on channel=1 note=50 velocity=127 time=0
note_off channel=1 note=62 velocity=0 time=384
note_off channel=1 note=66 velocity=0 time=0
note_off channel=1 note=57 velocity=127 time=0
note_off channel=1 note=50 velocity=127 time=0
note_on channel=1 note=45 velocity=127 time=192
note_on channel=1 note=61 velocity=127 time=0
note_on channel=1 note=52 velocity=127 time=0
note_on channel=1 note=57 velocity=127 time=0
note_off channel=1 note=45 velocity=0 time=96
note_off channel=1 note=61 velocity=0 time=0
note_off channel=1 note=52 velocity=0 time=0
note_off channel=1 note=57 velocity=0 time=0
note_on channel=1 note=45 velocity=127 time=0
note_on channel=1 note=52 velocity=127 time=0
note_on channel=1 note=57 velocity=127 time=0
note_on channel=1 note=61 velocity=127 time=0
note_off channel=1 note=45 velocity=0 time=96
note_off channel=1 note=52 velocity=127 time=0
note_off channel=1 note=57 velocity=127 time=0
note_off channel=1 note=61 velocity=127 time=0
note_on channel=1 note=45 velocity=127 time=0
note_on channel=1 note=61 velocity=127 time=0
note_on channel=1 note=64 velocity=127 time=0
note_on channel=1 note=57 velocity=127 time=0
note_on channel=1 note=52 velocity=127 time=0
note_off channel=1 note=45 velocity=0 time=384
note_off channel=1 note=61 velocity=0 time=0
note_off channel=1 note=64 velocity=0 time=0
note_off channel=1 note=57 velocity=127 time=0
note_off channel=1 note=52 velocity=127 time=0
note_on channel=1 note=59 velocity=127 time=0
note_on channel=1 note=47 velocity=127 time=0
note_on channel=1 note=71 velocity=127 time=0
note_off channel=1 note=59 velocity=0 time=64
note_off channel=1 note=47 velocity=0 time=0
note_off channel=1 note=71 velocity=0 time=0
note_on channel=1 note=56 velocity=127 time=32
note_on channel=1 note=44 velocity=127 time=0
note_on channel=1 note=68 velocity=127 time=0
note_off channel=1 note=56 velocity=0 time=128
note_off channel=1 note=44 velocity=0 time=0
note_off channel=1 note=68 velocity=0 time=0
note_on channel=1 note=59 velocity=127 time=64
note_on channel=1 note=47 velocity=127 time=0
note_on channel=1 note=71 velocity=127 time=0
note_off channel=1 note=59 velocity=0 time=64
note_off channel=1 note=47 velocity=0 time=0
note_off channel=1 note=71 velocity=0 time=0
note_on channel=1 note=57 velocity=127 time=32
note_on channel=1 note=45 velocity=127 time=0
note_on channel=1 note=69 velocity=127 time=0
note_off channel=1 note=57 velocity=0 time=128
note_off channel=1 note=45 velocity=0 time=0
note_off channel=1 note=69 velocity=0 time=0
note_on channel=1 note=59 velocity=127 time=64
note_on channel=1 note=47 velocity=127 time=0
note_on channel=1 note=71 velocity=127 time=0
note_off channel=1 note=59 velocity=0 time=64
note_off channel=1 note=47 velocity=0 time=0
note_off channel=1 note=71 velocity=0 time=0
note_on channel=1 note=58 velocity=127 time=32
note_on channel=1 note=46 velocity=127 time=0
note_on channel=1 note=70 velocity=127 time=0
note_off channel=1 note=58 velocity=0 time=128
note_off channel=1 note=46 velocity=0 time=0
note_off channel=1 note=70 velocity=0 time=0
note_on channel=1 note=59 velocity=127 time=64
note_on channel=1 note=47 velocity=127 time=0
note_on channel=1 note=71 velocity=127 time=0
note_off channel=1 note=59 velocity=0 time=64
note_off channel=1 note=47 velocity=0 time=0
note_off channel=1 note=71 velocity=0 time=0
note_on channel=1 note=58 velocity=127 time=32
note_on channel=1 note=46 velocity=127 time=0
note_on channel=1 note=70 velocity=127 time=0
note_off channel=1 note=58 velocity=0 time=64
note_off channel=1 note=46 velocity=0 time=0
note_off channel=1 note=70 velocity=0 time=0
note_on channel=1 note=59 velocity=127 time=32
note_on channel=1 note=47 velocity=127 time=0
note_on channel=1 note=71 velocity=127 time=0
note_off channel=1 note=59 velocity=127 time=64
note_off channel=1 note=47 velocity=127 time=0
note_off channel=1 note=71 velocity=127 time=0
note_on channel=1 note=52 velocity=127 time=32
note_on channel=1 note=47 velocity=127 time=0
note_on channel=1 note=64 velocity=42 time=0
note_on channel=1 note=56 velocity=127 time=0
note_on channel=1 note=40 velocity=107 time=0
note_on channel=1 note=64 velocity=127 time=0
note_on channel=1 note=59 velocity=127 time=0
note_on channel=1 note=76 velocity=42 time=0
note_on channel=1 note=71 velocity=127 time=0
note_on channel=1 note=68 velocity=127 time=0
note_on channel=1 note=52 velocity=107 time=0
note_on channel=1 note=59 velocity=127 time=0
note_off channel=1 note=52 velocity=0 time=384
note_off channel=1 note=47 velocity=0 time=0
note_off channel=1 note=64 velocity=0 time=0
note_off channel=1 note=56 velocity=0 time=0
note_off channel=1 note=40 velocity=0 time=0
note_off channel=1 note=64 velocity=0 time=0
note_off channel=1 note=59 velocity=0 time=0
note_off channel=1 note=76 velocity=0 time=0
note_off channel=1 note=71 velocity=0 time=0
note_off channel=1 note=68 velocity=0 time=0
note_off channel=1 note=52 velocity=0 time=0
note_off channel=1 note=59 velocity=0 time=0
note_on channel=1 note=50 velocity=127 time=192
note_on channel=1 note=62 velocity=127 time=0
note_on channel=1 note=57 velocity=127 time=0
note_on channel=1 note=66 velocity=127 time=0
note_on channel=1 note=62 velocity=127 time=0
note_on channel=1 note=74 velocity=127 time=0
note_on channel=1 note=69 velocity=127 time=0
note_on channel=1 note=78 velocity=127 time=0
note_off channel=1 note=50 velocity=0 time=96
note_off channel=1 note=62 velocity=0 time=0
note_off channel=1 note=57 velocity=0 time=0
note_off channel=1 note=66 velocity=0 time=0
note_off channel=1 note=62 velocity=0 time=0
note_off channel=1 note=74 velocity=0 time=0
note_off channel=1 note=69 velocity=0 time=0
note_off channel=1 note=78 velocity=0 time=0
note_on channel=1 note=66 velocity=104 time=0
note_on channel=1 note=62 velocity=127 time=0
note_on channel=1 note=57 velocity=127 time=0
note_on channel=1 note=50 velocity=127 time=0
note_on channel=1 note=78 velocity=104 time=0
note_on channel=1 note=74 velocity=127 time=0
note_on channel=1 note=69 velocity=127 time=0
note_on channel=1 note=62 velocity=127 time=0
note_off channel=1 note=66 velocity=0 time=96
note_off channel=1 note=62 velocity=0 time=0
note_off channel=1 note=57 velocity=127 time=0
note_off channel=1 note=50 velocity=127 time=0
note_off channel=1 note=78 velocity=0 time=0
note_off channel=1 note=74 velocity=0 time=0
note_off channel=1 note=69 velocity=127 time=0
note_off channel=1 note=62 velocity=127 time=0
note_on channel=1 note=62 velocity=127 time=0
note_on channel=1 note=66 velocity=127 time=0
note_on channel=1 note=57 velocity=127 time=0
note_on channel=1 note=50 velocity=127 time=0
note_on channel=1 note=74 velocity=127 time=0
note_on channel=1 note=78 velocity=127 time=0
note_on channel=1 note=69 velocity=127 time=0
note_on channel=1 note=62 velocity=127 time=0
note_off channel=1 note=62 velocity=0 time=384
note_off channel=1 note=66 velocity=0 time=0
note_off channel=1 note=57 velocity=127 time=0
note_off channel=1 note=50 velocity=127 time=0
note_off channel=1 note=74 velocity=0 time=0
note_off channel=1 note=78 velocity=0 time=0
note_off channel=1 note=69 velocity=127 time=0
note_off channel=1 note=62 velocity=127 time=0
note_on channel=1 note=45 velocity=127 time=192
note_on channel=1 note=61 velocity=127 time=0
note_on channel=1 note=52 velocity=127 time=0
note_on channel=1 note=57 velocity=127 time=0
note_on channel=1 note=57 velocity=127 time=0
note_on channel=1 note=73 velocity=127 time=0
note_on channel=1 note=64 velocity=127 time=0
note_on channel=1 note=69 velocity=127 time=0
note_off channel=1 note=45 velocity=0 time=96
note_off channel=1 note=61 velocity=0 time=0
note_off channel=1 note=52 velocity=0 time=0
note_off channel=1 note=57 velocity=0 time=0
note_off channel=1 note=57 velocity=0 time=0
note_off channel=1 note=73 velocity=0 time=0
note_off channel=1 note=64 velocity=0 time=0
note_off channel=1 note=69 velocity=0 time=0
note_on channel=1 note=45 velocity=127 time=0
note_on channel=1 note=52 velocity=127 time=0
note_on channel=1 note=57 velocity=127 time=0
note_on channel=1 note=61 velocity=127 time=0
note_on channel=1 note=57 velocity=127 time=0
note_on channel=1 note=64 velocity=127 time=0
note_on channel=1 note=69 velocity=127 time=0
note_on channel=1 note=73 velocity=127 time=0
note_off channel=1 note=45 velocity=0 time=96
note_off channel=1 note=52 velocity=127 time=0
note_off channel=1 note=57 velocity=127 time=0
note_off channel=1 note=61 velocity=127 time=0
note_off channel=1 note=57 velocity=0 time=0
note_off channel=1 note=64 velocity=127 time=0
note_off channel=1 note=69 velocity=127 time=0
note_off channel=1 note=73 velocity=127 time=0
note_on channel=1 note=45 velocity=127 time=0
note_on channel=1 note=61 velocity=127 time=0
note_on channel=1 note=64 velocity=127 time=0
note_on channel=1 note=57 velocity=127 time=0
note_on channel=1 note=52 velocity=127 time=0
note_on channel=1 note=57 velocity=127 time=0
note_on channel=1 note=73 velocity=127 time=0
note_on channel=1 note=76 velocity=127 time=0
note_on channel=1 note=69 velocity=127 time=0
note_on channel=1 note=64 velocity=127 time=0
note_off channel=1 note=45 velocity=0 time=384
note_off channel=1 note=61 velocity=0 time=0
note_off channel=1 note=64 velocity=0 time=0
note_off channel=1 note=57 velocity=127 time=0
note_off channel=1 note=52 velocity=127 time=0
note_off channel=1 note=57 velocity=0 time=0
note_off channel=1 note=73 velocity=0 time=0
note_off channel=1 note=76 velocity=0 time=0
note_off channel=1 note=69 velocity=127 time=0
note_off channel=1 note=64 velocity=127 time=0
note_on channel=1 note=79 velocity=127 time=480
note_on channel=1 note=67 velocity=127 time=0
note_off channel=1 note=79 velocity=0 time=64
note_off channel=1 note=67 velocity=0 time=0
note_on channel=1 note=76 velocity=127 time=32
note_on channel=1 note=64 velocity=127 time=0
note_on channel=1 note=74 velocity=127 time=96
note_on channel=1 note=62 velocity=127 time=0
note_off channel=1 note=76 velocity=0 time=32
note_off channel=1 note=64 velocity=0 time=0
note_off channel=1 note=74 velocity=0 time=32
note_off channel=1 note=62 velocity=0 time=0
note_on channel=1 note=71 velocity=127 time=32
note_on channel=1 note=59 velocity=127 time=0
note_on channel=1 note=71 velocity=127 time=96
note_on channel=1 note=59 velocity=127 time=0
note_off channel=1 note=71 velocity=0 time=32
note_off channel=1 note=59 velocity=0 time=0
note_on channel=1 note=69 velocity=127 time=64
note_on channel=1 note=57 velocity=127 time=0
note_off channel=1 note=71 velocity=0 time=12
note_off channel=1 note=59 velocity=0 time=8
note_off channel=1 note=69 velocity=0 time=44
note_off channel=1 note=57 velocity=0 time=0
note_on channel=1 note=67 velocity=127 time=32
note_on channel=1 note=55 velocity=127 time=0
note_off channel=1 note=67 velocity=0 time=64
note_off channel=1 note=55 velocity=0 time=0
note_on channel=1 note=52 velocity=127 time=32
note_on channel=1 note=47 velocity=127 time=0
note_on channel=1 note=64 velocity=42 time=0
note_on channel=1 note=59 velocity=127 time=0
note_on channel=1 note=56 velocity=127 time=0
note_on channel=1 note=40 velocity=107 time=0
note_off channel=1 note=52 velocity=0 time=384
note_off channel=1 note=47 velocity=0 time=0
note_off channel=1 note=64 velocity=0 time=0
note_off channel=1 note=59 velocity=0 time=0
note_off channel=1 note=56 velocity=0 time=0
note_off channel=1 note=40 velocity=0 time=0
note_on channel=1 note=50 velocity=127 time=192
note_on channel=1 note=62 velocity=127 time=0
note_on channel=1 note=57 velocity=127 time=0
note_on channel=1 note=66 velocity=127 time=0
note_off channel=1 note=50 velocity=0 time=96
note_off channel=1 note=62 velocity=0 time=0
note_off channel=1 note=57 velocity=0 time=0
note_off channel=1 note=66 velocity=0 time=0
note_on channel=1 note=66 velocity=104 time=0
note_on channel=1 note=62 velocity=127 time=0
note_on channel=1 note=57 velocity=127 time=0
note_on channel=1 note=50 velocity=127 time=0
note_off channel=1 note=66 velocity=0 time=96
note_off channel=1 note=62 velocity=0 time=0
note_off channel=1 note=57 velocity=127 time=0
note_off channel=1 note=50 velocity=127 time=0
note_on channel=1 note=62 velocity=127 time=0
note_on channel=1 note=66 velocity=127 time=0
note_on channel=1 note=57 velocity=127 time=0
note_on channel=1 note=50 velocity=127 time=0
note_off channel=1 note=62 velocity=0 time=384
note_off channel=1 note=66 velocity=0 time=0
note_off channel=1 note=57 velocity=127 time=0
note_off channel=1 note=50 velocity=127 time=0
note_on channel=1 note=45 velocity=127 time=192
note_on channel=1 note=61 velocity=127 time=0
note_on channel=1 note=52 velocity=127 time=0
note_on channel=1 note=57 velocity=127 time=0
note_off channel=1 note=45 velocity=0 time=96
note_off channel=1 note=61 velocity=0 time=0
note_off channel=1 note=52 velocity=0 time=0
note_off channel=1 note=57 velocity=0 time=0
note_on channel=1 note=45 velocity=127 time=0
note_on channel=1 note=52 velocity=127 time=0
note_on channel=1 note=57 velocity=127 time=0
note_on channel=1 note=61 velocity=127 time=0
note_off channel=1 note=45 velocity=0 time=96
note_off channel=1 note=52 velocity=127 time=0
note_off channel=1 note=57 velocity=127 time=0
note_off channel=1 note=61 velocity=127 time=0
note_on channel=1 note=45 velocity=127 time=0
note_on channel=1 note=61 velocity=127 time=0
note_on channel=1 note=64 velocity=127 time=0
note_on channel=1 note=57 velocity=127 time=0
note_on channel=1 note=52 velocity=127 time=0
note_off channel=1 note=45 velocity=0 time=384
note_off channel=1 note=61 velocity=0 time=0
note_off channel=1 note=64 velocity=0 time=0
note_off channel=1 note=57 velocity=127 time=0
note_off channel=1 note=52 velocity=127 time=0
note_on channel=1 note=59 velocity=127 time=0
note_on channel=1 note=47 velocity=127 time=0
note_on channel=1 note=71 velocity=127 time=0
note_off channel=1 note=59 velocity=0 time=64
note_off channel=1 note=47 velocity=0 time=0
note_off channel=1 note=71 velocity=0 time=0
note_on channel=1 note=56 velocity=127 time=32
note_on channel=1 note=44 velocity=127 time=0
note_on channel=1 note=68 velocity=127 time=0
note_off channel=1 note=56 velocity=0 time=128
note_off channel=1 note=44 velocity=0 time=0
note_off channel=1 note=68 velocity=0 time=0
note_on channel=1 note=59 velocity=127 time=64
note_on channel=1 note=47 velocity=127 time=0
note_on channel=1 note=71 velocity=127 time=0
note_off channel=1 note=59 velocity=0 time=64
note_off channel=1 note=47 velocity=0 time=0
note_off channel=1 note=71 velocity=0 time=0
note_on channel=1 note=57 velocity=127 time=32
note_on channel=1 note=45 velocity=127 time=0
note_on channel=1 note=69 velocity=127 time=0
note_off channel=1 note=57 velocity=0 time=128
note_off channel=1 note=45 velocity=0 time=0
note_off channel=1 note=69 velocity=0 time=0
note_on channel=1 note=59 velocity=127 time=64
note_on channel=1 note=47 velocity=127 time=0
note_on channel=1 note=71 velocity=127 time=0
note_off channel=1 note=59 velocity=0 time=64
note_off channel=1 note=47 velocity=0 time=0
note_off channel=1 note=71 velocity=0 time=0
note_on channel=1 note=58 velocity=127 time=32
note_on channel=1 note=46 velocity=127 time=0
note_on channel=1 note=70 velocity=127 time=0
note_off channel=1 note=58 velocity=0 time=128
note_off channel=1 note=46 velocity=0 time=0
note_off channel=1 note=70 velocity=0 time=0
note_on channel=1 note=59 velocity=127 time=64
note_on channel=1 note=47 velocity=127 time=0
note_on channel=1 note=71 velocity=127 time=0
note_off channel=1 note=59 velocity=0 time=64
note_off channel=1 note=47 velocity=0 time=0
note_off channel=1 note=71 velocity=0 time=0
note_on channel=1 note=58 velocity=127 time=32
note_on channel=1 note=46 velocity=127 time=0
note_on channel=1 note=70 velocity=127 time=0
note_off channel=1 note=58 velocity=0 time=64
note_off channel=1 note=46 velocity=0 time=0
note_off channel=1 note=70 velocity=0 time=0
note_on channel=1 note=59 velocity=127 time=32
note_on channel=1 note=47 velocity=127 time=0
note_on channel=1 note=71 velocity=127 time=0
note_off channel=1 note=59 velocity=127 time=64
note_off channel=1 note=47 velocity=127 time=0
note_off channel=1 note=71 velocity=127 time=0
note_on channel=1 note=69 velocity=127 time=28
note_on channel=1 note=76 velocity=127 time=0
note_off channel=1 note=69 velocity=0 time=4
note_off channel=1 note=76 velocity=0 time=0
note_on channel=1 note=69 velocity=60 time=216
note_on channel=1 note=64 velocity=127 time=0
note_on channel=1 note=81 velocity=60 time=0
note_on channel=1 note=76 velocity=127 time=0
note_on channel=1 note=57 velocity=127 time=16
note_on channel=1 note=69 velocity=127 time=0
note_off channel=1 note=69 velocity=0 time=188
note_off channel=1 note=81 velocity=0 time=0
note_off channel=1 note=64 velocity=0 time=8
note_off channel=1 note=76 velocity=0 time=0
note_off channel=1 note=57 velocity=0 time=84
note_off channel=1 note=69 velocity=0 time=0
note_on channel=1 note=59 velocity=127 time=0
note_on channel=1 note=71 velocity=127 time=0
note_off channel=1 note=59 velocity=0 time=16
note_off channel=1 note=71 velocity=0 time=0
note_on channel=1 note=52 velocity=127 time=4
note_on channel=1 note=59 velocity=127 time=0
note_on channel=1 note=64 velocity=127 time=0
note_on channel=1 note=71 velocity=127 time=0
note_off channel=1 note=59 velocity=0 time=108
note_off channel=1 note=71 velocity=0 time=0
note_on channel=1 note=59 velocity=127 time=68
note_on channel=1 note=71 velocity=127 time=0
note_on channel=1 note=66 velocity=127 time=4
note_on channel=1 note=71 velocity=77 time=0
note_on channel=1 note=78 velocity=127 time=0
note_on channel=1 note=83 velocity=77 time=0
note_off channel=1 note=52 velocity=0 time=44
note_off channel=1 note=64 velocity=0 time=0
note_off channel=1 note=59 velocity=0 time=228
note_off channel=1 note=71 velocity=0 time=0
note_off channel=1 note=66 velocity=0 time=60
note_off channel=1 note=78 velocity=0 time=0
note_off channel=1 note=71 velocity=0 time=4
note_off channel=1 note=83 velocity=0 time=0
note_on channel=1 note=69 velocity=45 time=0
note_on channel=1 note=81 velocity=45 time=0
note_on channel=1 note=64 velocity=127 time=12
note_on channel=1 note=76 velocity=127 time=0
note_on channel=1 note=57 velocity=127 time=20
note_on channel=1 note=69 velocity=127 time=0
note_off channel=1 note=64 velocity=0 time=112
note_off channel=1 note=76 velocity=0 time=0
note_off channel=1 note=69 velocity=0 time=8
note_off channel=1 note=81 velocity=0 time=0
note_on channel=1 note=67 velocity=40 time=0
note_on channel=1 note=79 velocity=40 time=0
note_off channel=1 note=67 velocity=0 time=76
note_off channel=1 note=79 velocity=0 time=0
note_on channel=1 note=66 velocity=127 time=4
note_on channel=1 note=67 velocity=103 time=0
note_on channel=1 note=78 velocity=127 time=0
note_on channel=1 note=79 velocity=103 time=0
note_off channel=1 note=57 velocity=0 time=20
note_off channel=1 note=69 velocity=0 time=0
note_off channel=1 note=67 velocity=0 time=0
note_off channel=1 note=79 velocity=0 time=0
note_on channel=1 note=59 velocity=127 time=0
note_on channel=1 note=71 velocity=100 time=0
note_on channel=1 note=71 velocity=127 time=0
note_on channel=1 note=83 velocity=100 time=0
note_off channel=1 note=59 velocity=0 time=112
note_off channel=1 note=71 velocity=0 time=0
note_off channel=1 note=71 velocity=0 time=0
note_off channel=1 note=83 velocity=0 time=0
note_off channel=1 note=66 velocity=0 time=4
note_off channel=1 note=78 velocity=0 time=0
note_on channel=1 note=69 velocity=60 time=336
note_on channel=1 note=64 velocity=127 time=0
note_on channel=1 note=81 velocity=60 time=0
note_on channel=1 note=76 velocity=127 time=0
note_on channel=1 note=57 velocity=127 time=16
note_on channel=1 note=69 velocity=127 time=0
note_off channel=1 note=69 velocity=0 time=188
note_off channel=1 note=81 velocity=0 time=0
note_off channel=1 note=64 velocity=0 time=8
note_off channel=1 note=76 velocity=0 time=0
note_off channel=1 note=57 velocity=0 time=84
note_off channel=1 note=69 velocity=0 time=0
note_on channel=1 note=59 velocity=127 time=0
note_on channel=1 note=71 velocity=127 time=0
note_off channel=1 note=59 velocity=0 time=16
note_off channel=1 note=71 velocity=0 time=0
note_on channel=1 note=52 velocity=127 time=4
note_on channel=1 note=59 velocity=127 time=0
note_on channel=1 note=64 velocity=127 time=0
note_on channel=1 note=71 velocity=127 time=0
note_off channel=1 note=59 velocity=0 time=108
note_off channel=1 note=71 velocity=0 time=0
note_on channel=1 note=59 velocity=127 time=68
note_on channel=1 note=71 velocity=127 time=0
note_on channel=1 note=66 velocity=127 time=4
note_on channel=1 note=71 velocity=77 time=0
note_on channel=1 note=78 velocity=127 time=0
note_on channel=1 note=83 velocity=77 time=0
note_off channel=1 note=52 velocity=0 time=44
note_off channel=1 note=64 velocity=0 time=0
note_off channel=1 note=59 velocity=0 time=228
note_off channel=1 note=71 velocity=0 time=0
note_off channel=1 note=66 velocity=0 time=60
note_off channel=1 note=78 velocity=0 time=0
note_off channel=1 note=71 velocity=0 time=4
note_off channel=1 note=83 velocity=0 time=0
note_on channel=1 note=69 velocity=45 time=0
note_on channel=1 note=81 velocity=45 time=0
note_on channel=1 note=64 velocity=127 time=12
note_on channel=1 note=76 velocity=127 time=0
note_on channel=1 note=57 velocity=127 time=20
note_on channel=1 note=69 velocity=127 time=0
note_off channel=1 note=64 velocity=0 time=112
note_off channel=1 note=76 velocity=0 time=0
note_off channel=1 note=69 velocity=0 time=8
note_off channel=1 note=81 velocity=0 time=0
note_on channel=1 note=67 velocity=40 time=0
note_on channel=1 note=79 velocity=40 time=0
note_off channel=1 note=67 velocity=0 time=76
note_off channel=1 note=79 velocity=0 time=0
note_on channel=1 note=66 velocity=127 time=4
note_on channel=1 note=67 velocity=103 time=0
note_on channel=1 note=78 velocity=127 time=0
note_on channel=1 note=79 velocity=103 time=0
note_off channel=1 note=57 velocity=0 time=20
note_off channel=1 note=69 velocity=0 time=0
note_off channel=1 note=67 velocity=0 time=0
note_off channel=1 note=79 velocity=0 time=0
note_on channel=1 note=59 velocity=127 time=0
note_on channel=1 note=71 velocity=100 time=0
note_on channel=1 note=71 velocity=127 time=0
note_on channel=1 note=83 velocity=100 time=0
note_off channel=1 note=59 velocity=0 time=112
note_off channel=1 note=71 velocity=0 time=0
note_off channel=1 note=71 velocity=0 time=0
note_off channel=1 note=83 velocity=0 time=0
note_off channel=1 note=66 velocity=0 time=4
note_off channel=1 note=78 velocity=0 time=0
note_on channel=1 note=74 velocity=32 time=264
note_on channel=1 note=67 velocity=127 time=24
note_on channel=1 note=79 velocity=127 time=8
note_on channel=1 note=62 velocity=127 time=36
note_off channel=1 note=79 velocity=0 time=112
note_off channel=1 note=74 velocity=0 time=8
note_off channel=1 note=67 velocity=0 time=120
note_off channel=1 note=62 velocity=0 time=32
note_on channel=1 note=62 velocity=127 time=4
note_on channel=1 note=78 velocity=127 time=16
note_on channel=1 note=74 velocity=127 time=0
note_on channel=1 note=69 velocity=127 time=12
note_off channel=1 note=69 velocity=0 time=108
note_off channel=1 note=78 velocity=0 time=8
note_off channel=1 note=74 velocity=0 time=12
note_off channel=1 note=62 velocity=0 time=120
note_on channel=1 note=62 velocity=127 time=4
note_on channel=1 note=57 velocity=127 time=12
note_on channel=1 note=69 velocity=127 time=12
note_off channel=1 note=62 velocity=0 time=28
note_on channel=1 note=64 velocity=127 time=0
note_off channel=1 note=57 velocity=0 time=228
note_off channel=1 note=64 velocity=0 time=36
note_on channel=1 note=55 velocity=127 time=4
note_on channel=1 note=60 velocity=127 time=16
note_off channel=1 note=60 velocity=0 time=0
note_off channel=1 note=55 velocity=0 time=116
note_off channel=1 note=69 velocity=0 time=12
note_on channel=1 note=69 velocity=127 time=4
note_on channel=1 note=57 velocity=127 time=12
note_on channel=1 note=64 velocity=127 time=8
note_on channel=1 note=57 velocity=127 time=280
note_off channel=1 note=69 velocity=0 time=80
note_off channel=1 note=64 velocity=0 time=4
note_on channel=1 note=79 velocity=127 time=68
note_off channel=1 note=57 velocity=0 time=4
note_on channel=1 note=74 velocity=127 time=4
note_on channel=1 note=55 velocity=127 time=0
note_on channel=1 note=62 velocity=127 time=8
note_on channel=1 note=67 velocity=127 time=28
note_off channel=1 note=55 velocity=0 time=96
note_off channel=1 note=74 velocity=0 time=20
note_off channel=1 note=79 velocity=0 time=4
note_off channel=1 note=57 velocity=0 time=128
note_off channel=1 note=67 velocity=0 time=0
note_on channel=1 note=78 velocity=127 time=32
note_on channel=1 note=74 velocity=127 time=0
note_on channel=1 note=69 velocity=127 time=0
note_on channel=1 note=62 velocity=127 time=4
note_off channel=1 note=62 velocity=127 time=128
note_off channel=1 note=69 velocity=0 time=20
note_off channel=1 note=78 velocity=0 time=20
note_off channel=1 note=74 velocity=0 time=24
note_off channel=1 note=62 velocity=0 time=84
note_on channel=1 note=64 velocity=127 time=0
note_on channel=1 note=57 velocity=127 time=12
note_on channel=1 note=69 velocity=127 time=24
note_off channel=1 note=64 velocity=0 time=276
note_off channel=1 note=57 velocity=0 time=0
note_on channel=1 note=55 velocity=127 time=12
note_off channel=1 note=55 velocity=0 time=144
note_off channel=1 note=69 velocity=0 time=8
note_on channel=1 note=69 velocity=127 time=8
note_on channel=1 note=58 velocity=127 time=0
note_on channel=1 note=65 velocity=127 time=12
note_off channel=1 note=58 velocity=0 time=60
note_on channel=1 note=57 velocity=127 time=0
note_off channel=1 note=65 velocity=0 time=24
note_on channel=1 note=64 velocity=127 time=4
note_off channel=1 note=69 velocity=0 time=376
note_off channel=1 note=64 velocity=0 time=0
note_on channel=1 note=69 velocity=60 time=36
note_on channel=1 note=64 velocity=127 time=0
note_on channel=1 note=81 velocity=60 time=0
note_on channel=1 note=76 velocity=127 time=0
note_on channel=1 note=57 velocity=127 time=16
note_on channel=1 note=69 velocity=127 time=0
note_off channel=1 note=57 velocity=0 time=16
note_off channel=1 note=69 velocity=0 time=172
note_off channel=1 note=81 velocity=0 time=0
note_off channel=1 note=64 velocity=0 time=8
note_off channel=1 note=76 velocity=0 time=0
note_off channel=1 note=57 velocity=0 time=84
note_off channel=1 note=69 velocity=0 time=0
note_on channel=1 note=59 velocity=127 time=0
note_on channel=1 note=71 velocity=127 time=0
note_off channel=1 note=59 velocity=0 time=16
note_off channel=1 note=71 velocity=0 time=0
note_on channel=1 note=52 velocity=127 time=4
note_on channel=1 note=59 velocity=127 time=0
note_on channel=1 note=64 velocity=127 time=0
note_on channel=1 note=71 velocity=127 time=0
note_off channel=1 note=59 velocity=0 time=108
note_off channel=1 note=71 velocity=0 time=0
note_on channel=1 note=59 velocity=127 time=68
note_on channel=1 note=71 velocity=127 time=0
note_on channel=1 note=66 velocity=127 time=4
note_on channel=1 note=71 velocity=77 time=0
note_on channel=1 note=78 velocity=127 time=0
note_on channel=1 note=83 velocity=77 time=0
note_off channel=1 note=52 velocity=0 time=44
note_off channel=1 note=64 velocity=0 time=0
note_off channel=1 note=59 velocity=0 time=228
note_off channel=1 note=71 velocity=0 time=0
note_off channel=1 note=66 velocity=0 time=60
note_off channel=1 note=78 velocity=0 time=0
note_off channel=1 note=71 velocity=0 time=4
note_off channel=1 note=83 velocity=0 time=0
note_on channel=1 note=69 velocity=45 time=0
note_on channel=1 note=81 velocity=45 time=0
note_on channel=1 note=64 velocity=127 time=12
note_on channel=1 note=76 velocity=127 time=0
note_on channel=1 note=57 velocity=127 time=20
note_on channel=1 note=69 velocity=127 time=0
note_off channel=1 note=64 velocity=0 time=112
note_off channel=1 note=76 velocity=0 time=0
note_off channel=1 note=69 velocity=0 time=8
note_off channel=1 note=81 velocity=0 time=0
note_on channel=1 note=67 velocity=40 time=0
note_on channel=1 note=79 velocity=40 time=0
note_off channel=1 note=67 velocity=0 time=76
note_off channel=1 note=79 velocity=0 time=0
note_on channel=1 note=66 velocity=127 time=4
note_on channel=1 note=67 velocity=103 time=0
note_on channel=1 note=78 velocity=127 time=0
note_on channel=1 note=79 velocity=103 time=0
note_off channel=1 note=57 velocity=0 time=20
note_off channel=1 note=69 velocity=0 time=0
note_off channel=1 note=67 velocity=0 time=0
note_off channel=1 note=79 velocity=0 time=0
note_on channel=1 note=59 velocity=127 time=0
note_on channel=1 note=71 velocity=100 time=0
note_on channel=1 note=71 velocity=127 time=0
note_on channel=1 note=83 velocity=100 time=0
note_off channel=1 note=59 velocity=0 time=112
note_off channel=1 note=71 velocity=0 time=0
note_off channel=1 note=71 velocity=0 time=0
note_off channel=1 note=83 velocity=0 time=0
note_off channel=1 note=66 velocity=0 time=4
note_off channel=1 note=78 velocity=0 time=0
note_on channel=1 note=69 velocity=60 time=336
note_on channel=1 note=64 velocity=127 time=0
note_on channel=1 note=81 velocity=60 time=0
note_on channel=1 note=76 velocity=127 time=0
note_on channel=1 note=57 velocity=127 time=16
note_on channel=1 note=69 velocity=127 time=0
note_off channel=1 note=69 velocity=0 time=188
note_off channel=1 note=81 velocity=0 time=0
note_off channel=1 note=64 velocity=0 time=8
note_off channel=1 note=76 velocity=0 time=0
note_off channel=1 note=57 velocity=0 time=84
note_off channel=1 note=69 velocity=0 time=0
note_on channel=1 note=59 velocity=127 time=0
note_on channel=1 note=71 velocity=127 time=0
note_off channel=1 note=59 velocity=0 time=16
note_off channel=1 note=71 velocity=0 time=0
note_on channel=1 note=52 velocity=127 time=4
note_on channel=1 note=59 velocity=127 time=0
note_on channel=1 note=64 velocity=127 time=0
note_on channel=1 note=71 velocity=127 time=0
note_off channel=1 note=59 velocity=0 time=108
note_off channel=1 note=71 velocity=0 time=0
note_on channel=1 note=59 velocity=127 time=68
note_on channel=1 note=71 velocity=127 time=0
note_on channel=1 note=66 velocity=127 time=4
note_on channel=1 note=71 velocity=77 time=0
note_on channel=1 note=78 velocity=127 time=0
note_on channel=1 note=83 velocity=77 time=0
note_off channel=1 note=52 velocity=0 time=44
note_off channel=1 note=64 velocity=0 time=0
note_off channel=1 note=59 velocity=0 time=228
note_off channel=1 note=71 velocity=0 time=0
note_off channel=1 note=66 velocity=0 time=60
note_off channel=1 note=78 velocity=0 time=0
note_off channel=1 note=71 velocity=0 time=4
note_off channel=1 note=83 velocity=0 time=0
note_on channel=1 note=69 velocity=45 time=0
note_on channel=1 note=81 velocity=45 time=0
note_on channel=1 note=64 velocity=127 time=12
note_on channel=1 note=76 velocity=127 time=0
note_on channel=1 note=57 velocity=127 time=20
note_on channel=1 note=69 velocity=127 time=0
note_off channel=1 note=64 velocity=0 time=112
note_off channel=1 note=76 velocity=0 time=0
note_off channel=1 note=69 velocity=0 time=8
note_off channel=1 note=81 velocity=0 time=0
note_on channel=1 note=67 velocity=40 time=0
note_on channel=1 note=79 velocity=40 time=0
note_off channel=1 note=67 velocity=0 time=76
note_off channel=1 note=79 velocity=0 time=0
note_on channel=1 note=66 velocity=127 time=4
note_on channel=1 note=67 velocity=103 time=0
note_on channel=1 note=78 velocity=127 time=0
note_on channel=1 note=79 velocity=103 time=0
note_off channel=1 note=57 velocity=0 time=20
note_off channel=1 note=69 velocity=0 time=0
note_off channel=1 note=67 velocity=0 time=0
note_off channel=1 note=79 velocity=0 time=0
note_on channel=1 note=59 velocity=127 time=0
note_on channel=1 note=71 velocity=100 time=0
note_on channel=1 note=71 velocity=127 time=0
note_on channel=1 note=83 velocity=100 time=0
note_off channel=1 note=59 velocity=0 time=112
note_off channel=1 note=71 velocity=0 time=0
note_off channel=1 note=71 velocity=0 time=0
note_off channel=1 note=83 velocity=0 time=0
note_off channel=1 note=66 velocity=0 time=4
note_off channel=1 note=78 velocity=0 time=0
note_on channel=1 note=50 velocity=101 time=120
note_on channel=1 note=55 velocity=127 time=0
note_on channel=1 note=67 velocity=119 time=0
note_on channel=1 note=62 velocity=127 time=0
note_on channel=1 note=59 velocity=127 time=0
note_off channel=1 note=50 velocity=0 time=192
note_off channel=1 note=55 velocity=0 time=0
note_off channel=1 note=67 velocity=0 time=0
note_off channel=1 note=62 velocity=0 time=0
note_off channel=1 note=59 velocity=0 time=0
note_on channel=1 note=50 velocity=101 time=96
note_on channel=1 note=55 velocity=127 time=0
note_on channel=1 note=67 velocity=119 time=0
note_on channel=1 note=62 velocity=127 time=0
note_on channel=1 note=59 velocity=127 time=0
note_off channel=1 note=50 velocity=0 time=192
note_off channel=1 note=55 velocity=0 time=0
note_off channel=1 note=67 velocity=0 time=0
note_off channel=1 note=62 velocity=0 time=0
note_off channel=1 note=59 velocity=0 time=0
note_on channel=1 note=50 velocity=101 time=96
note_on channel=1 note=55 velocity=127 time=0
note_on channel=1 note=67 velocity=119 time=0
note_on channel=1 note=62 velocity=127 time=0
note_on channel=1 note=59 velocity=127 time=0
note_off channel=1 note=50 velocity=0 time=192
note_off channel=1 note=55 velocity=0 time=0
note_off channel=1 note=67 velocity=0 time=0
note_off channel=1 note=62 velocity=0 time=0
note_off channel=1 note=59 velocity=0 time=0
note_on channel=1 note=50 velocity=72 time=96
note_on channel=1 note=55 velocity=127 time=0
note_on channel=1 note=59 velocity=127 time=0
note_on channel=1 note=62 velocity=87 time=0
note_on channel=1 note=67 velocity=87 time=0
note_off channel=1 note=50 velocity=0 time=64
note_off channel=1 note=55 velocity=0 time=0
note_off channel=1 note=59 velocity=0 time=0
note_off channel=1 note=62 velocity=0 time=0
note_off channel=1 note=67 velocity=0 time=0
note_on channel=1 note=59 velocity=52 time=32
note_on channel=1 note=67 velocity=87 time=0
note_on channel=1 note=49 velocity=56 time=0
note_off channel=1 note=59 velocity=0 time=64
note_off channel=1 note=67 velocity=0 time=0
note_off channel=1 note=49 velocity=0 time=0
note_on channel=1 note=50 velocity=72 time=32
note_on channel=1 note=59 velocity=127 time=0
note_on channel=1 note=55 velocity=127 time=0
note_on channel=1 note=62 velocity=92 time=0
note_on channel=1 note=67 velocity=95 time=0
note_off channel=1 note=50 velocity=0 time=64
note_off channel=1 note=59 velocity=0 time=0
note_off channel=1 note=55 velocity=0 time=0
note_off channel=1 note=62 velocity=0 time=0
note_off channel=1 note=67 velocity=0 time=0
note_on channel=1 note=50 velocity=85 time=32
note_on channel=1 note=55 velocity=127 time=0
note_on channel=1 note=59 velocity=127 time=0
note_on channel=1 note=62 velocity=88 time=0
note_on channel=1 note=67 velocity=84 time=0
note_off channel=1 note=50 velocity=0 time=128
note_off channel=1 note=55 velocity=0 time=0
note_off channel=1 note=59 velocity=0 time=0
note_off channel=1 note=62 velocity=0 time=0
note_off channel=1 note=67 velocity=0 time=0
note_on channel=1 note=50 velocity=91 time=64
note_on channel=1 note=55 velocity=127 time=0
note_on channel=1 note=59 velocity=127 time=0
note_on channel=1 note=62 velocity=119 time=0
note_on channel=1 note=67 velocity=127 time=0
note_off channel=1 note=50 velocity=0 time=128
note_off channel=1 note=55 velocity=0 time=0
note_off channel=1 note=59 velocity=0 time=0
note_off channel=1 note=62 velocity=0 time=0
note_off channel=1 note=67 velocity=0 time=0
note_on channel=1 note=50 velocity=127 time=64
note_on channel=1 note=66 velocity=127 time=0
note_on channel=1 note=57 velocity=127 time=0
note_on channel=1 note=62 velocity=127 time=0
note_off channel=1 note=50 velocity=0 time=192
note_off channel=1 note=66 velocity=0 time=0
note_off channel=1 note=57 velocity=0 time=0
note_off channel=1 note=62 velocity=0 time=0
note_on channel=1 note=50 velocity=127 time=96
note_on channel=1 note=62 velocity=127 time=0
note_on channel=1 note=66 velocity=127 time=0
note_on channel=1 note=57 velocity=127 time=0
note_off channel=1 note=50 velocity=0 time=192
note_off channel=1 note=62 velocity=0 time=0
note_off channel=1 note=66 velocity=0 time=0
note_off channel=1 note=57 velocity=0 time=0
note_on channel=1 note=50 velocity=127 time=96
note_on channel=1 note=62 velocity=127 time=0
note_on channel=1 note=66 velocity=127 time=0
note_on channel=1 note=57 velocity=127 time=0
note_off channel=1 note=50 velocity=0 time=512
note_off channel=1 note=62 velocity=0 time=0
note_off channel=1 note=66 velocity=0 time=0
note_off channel=1 note=57 velocity=0 time=0
note_on channel=1 note=52 velocity=127 time=448
note_on channel=1 note=47 velocity=127 time=0
note_on channel=1 note=64 velocity=42 time=0
note_on channel=1 note=56 velocity=127 time=0
note_on channel=1 note=40 velocity=107 time=0
note_on channel=1 note=64 velocity=127 time=0
note_on channel=1 note=59 velocity=127 time=0
note_on channel=1 note=76 velocity=42 time=0
note_on channel=1 note=71 velocity=127 time=0
note_on channel=1 note=68 velocity=127 time=0
note_on channel=1 note=52 velocity=107 time=0
note_on channel=1 note=59 velocity=127 time=0
note_off channel=1 note=52 velocity=0 time=384
note_off channel=1 note=47 velocity=0 time=0
note_off channel=1 note=64 velocity=0 time=0
note_off channel=1 note=56 velocity=0 time=0
note_off channel=1 note=40 velocity=0 time=0
note_off channel=1 note=64 velocity=0 time=0
note_off channel=1 note=59 velocity=0 time=0
note_off channel=1 note=76 velocity=0 time=0
note_off channel=1 note=71 velocity=0 time=0
note_off channel=1 note=68 velocity=0 time=0
note_off channel=1 note=52 velocity=0 time=0
note_off channel=1 note=59 velocity=0 time=0
note_on channel=1 note=50 velocity=127 time=192
note_on channel=1 note=62 velocity=127 time=0
note_on channel=1 note=57 velocity=127 time=0
note_on channel=1 note=66 velocity=127 time=0
note_on channel=1 note=62 velocity=127 time=0
note_on channel=1 note=74 velocity=127 time=0
note_on channel=1 note=69 velocity=127 time=0
note_on channel=1 note=78 velocity=127 time=0
note_off channel=1 note=50 velocity=0 time=96
note_off channel=1 note=62 velocity=0 time=0
note_off channel=1 note=57 velocity=0 time=0
note_off channel=1 note=66 velocity=0 time=0
note_off channel=1 note=62 velocity=0 time=0
note_off channel=1 note=74 velocity=0 time=0
note_off channel=1 note=69 velocity=0 time=0
note_off channel=1 note=78 velocity=0 time=0
note_on channel=1 note=66 velocity=104 time=0
note_on channel=1 note=62 velocity=127 time=0
note_on channel=1 note=57 velocity=127 time=0
note_on channel=1 note=50 velocity=127 time=0
note_on channel=1 note=78 velocity=104 time=0
note_on channel=1 note=74 velocity=127 time=0
note_on channel=1 note=69 velocity=127 time=0
note_on channel=1 note=62 velocity=127 time=0
note_off channel=1 note=66 velocity=0 time=96
note_off channel=1 note=62 velocity=0 time=0
note_off channel=1 note=57 velocity=127 time=0
note_off channel=1 note=50 velocity=127 time=0
note_off channel=1 note=78 velocity=0 time=0
note_off channel=1 note=74 velocity=0 time=0
note_off channel=1 note=69 velocity=127 time=0
note_off channel=1 note=62 velocity=127 time=0
note_on channel=1 note=62 velocity=127 time=0
note_on channel=1 note=66 velocity=127 time=0
note_on channel=1 note=57 velocity=127 time=0
note_on channel=1 note=50 velocity=127 time=0
note_on channel=1 note=74 velocity=127 time=0
note_on channel=1 note=78 velocity=127 time=0
note_on channel=1 note=69 velocity=127 time=0
note_on channel=1 note=62 velocity=127 time=0
note_off channel=1 note=62 velocity=0 time=384
note_off channel=1 note=66 velocity=0 time=0
note_off channel=1 note=57 velocity=127 time=0
note_off channel=1 note=50 velocity=127 time=0
note_off channel=1 note=74 velocity=0 time=0
note_off channel=1 note=78 velocity=0 time=0
note_off channel=1 note=69 velocity=127 time=0
note_off channel=1 note=62 velocity=127 time=0
note_on channel=1 note=45 velocity=127 time=192
note_on channel=1 note=61 velocity=127 time=0
note_on channel=1 note=52 velocity=127 time=0
note_on channel=1 note=57 velocity=127 time=0
note_on channel=1 note=57 velocity=127 time=0
note_on channel=1 note=73 velocity=127 time=0
note_on channel=1 note=64 velocity=127 time=0
note_on channel=1 note=69 velocity=127 time=0
note_off channel=1 note=45 velocity=0 time=96
note_off channel=1 note=61 velocity=0 time=0
note_off channel=1 note=52 velocity=0 time=0
note_off channel=1 note=57 velocity=0 time=0
note_off channel=1 note=57 velocity=0 time=0
note_off channel=1 note=73 velocity=0 time=0
note_off channel=1 note=64 velocity=0 time=0
note_off channel=1 note=69 velocity=0 time=0
note_on channel=1 note=45 velocity=127 time=0
note_on channel=1 note=52 velocity=127 time=0
note_on channel=1 note=57 velocity=127 time=0
note_on channel=1 note=61 velocity=127 time=0
note_on channel=1 note=57 velocity=127 time=0
note_on channel=1 note=64 velocity=127 time=0
note_on channel=1 note=69 velocity=127 time=0
note_on channel=1 note=73 velocity=127 time=0
note_off channel=1 note=45 velocity=0 time=96
note_off channel=1 note=52 velocity=127 time=0
note_off channel=1 note=57 velocity=127 time=0
note_off channel=1 note=61 velocity=127 time=0
note_off channel=1 note=57 velocity=0 time=0
note_off channel=1 note=64 velocity=127 time=0
note_off channel=1 note=69 velocity=127 time=0
note_off channel=1 note=73 velocity=127 time=0
note_on channel=1 note=45 velocity=127 time=0
note_on channel=1 note=61 velocity=127 time=0
note_on channel=1 note=64 velocity=127 time=0
note_on channel=1 note=57 velocity=127 time=0
note_on channel=1 note=52 velocity=127 time=0
note_on channel=1 note=57 velocity=127 time=0
note_on channel=1 note=73 velocity=127 time=0
note_on channel=1 note=76 velocity=127 time=0
note_on channel=1 note=69 velocity=127 time=0
note_on channel=1 note=64 velocity=127 time=0
note_off channel=1 note=45 velocity=0 time=384
note_off channel=1 note=61 velocity=0 time=0
note_off channel=1 note=64 velocity=0 time=0
note_off channel=1 note=57 velocity=127 time=0
note_off channel=1 note=52 velocity=127 time=0
note_off channel=1 note=57 velocity=0 time=0
note_off channel=1 note=73 velocity=0 time=0
note_off channel=1 note=76 velocity=0 time=0
note_off channel=1 note=69 velocity=127 time=0
note_off channel=1 note=64 velocity=127 time=0
note_on channel=1 note=79 velocity=127 time=480
note_on channel=1 note=67 velocity=127 time=0
note_off channel=1 note=79 velocity=0 time=64
note_off channel=1 note=67 velocity=0 time=0
note_on channel=1 note=76 velocity=127 time=32
note_on channel=1 note=64 velocity=127 time=0
note_on channel=1 note=74 velocity=127 time=96
note_on channel=1 note=62 velocity=127 time=0
note_off channel=1 note=76 velocity=0 time=32
note_off channel=1 note=64 velocity=0 time=0
note_off channel=1 note=74 velocity=0 time=32
note_off channel=1 note=62 velocity=0 time=0
note_on channel=1 note=71 velocity=127 time=32
note_on channel=1 note=59 velocity=127 time=0
note_on channel=1 note=71 velocity=127 time=96
note_on channel=1 note=59 velocity=127 time=0
note_off channel=1 note=71 velocity=0 time=32
note_off channel=1 note=59 velocity=0 time=0
note_on channel=1 note=69 velocity=127 time=64
note_on channel=1 note=57 velocity=127 time=0
note_off channel=1 note=71 velocity=0 time=12
note_off channel=1 note=59 velocity=0 time=8
note_off channel=1 note=69 velocity=0 time=44
note_off channel=1 note=57 velocity=0 time=0
note_on channel=1 note=67 velocity=127 time=32
note_on channel=1 note=55 velocity=127 time=0
note_off channel=1 note=67 velocity=0 time=64
note_off channel=1 note=55 velocity=0 time=0
note_on channel=1 note=52 velocity=127 time=32
note_on channel=1 note=47 velocity=127 time=0
note_on channel=1 note=64 velocity=42 time=0
note_on channel=1 note=59 velocity=127 time=0
note_on channel=1 note=56 velocity=127 time=0
note_on channel=1 note=40 velocity=107 time=0
note_off channel=1 note=52 velocity=0 time=384
note_off channel=1 note=47 velocity=0 time=0
note_off channel=1 note=64 velocity=0 time=0
note_off channel=1 note=59 velocity=0 time=0
note_off channel=1 note=56 velocity=0 time=0
note_off channel=1 note=40 velocity=0 time=0
note_on channel=1 note=50 velocity=127 time=192
note_on channel=1 note=62 velocity=127 time=0
note_on channel=1 note=57 velocity=127 time=0
note_on channel=1 note=66 velocity=127 time=0
note_off channel=1 note=50 velocity=0 time=96
note_off channel=1 note=62 velocity=0 time=0
note_off channel=1 note=57 velocity=0 time=0
note_off channel=1 note=66 velocity=0 time=0
note_on channel=1 note=66 velocity=104 time=0
note_on channel=1 note=62 velocity=127 time=0
note_on channel=1 note=57 velocity=127 time=0
note_on channel=1 note=50 velocity=127 time=0
note_off channel=1 note=66 velocity=0 time=96
note_off channel=1 note=62 velocity=0 time=0
note_off channel=1 note=57 velocity=127 time=0
note_off channel=1 note=50 velocity=127 time=0
note_on channel=1 note=62 velocity=127 time=0
note_on channel=1 note=66 velocity=127 time=0
note_on channel=1 note=57 velocity=127 time=0
note_on channel=1 note=50 velocity=127 time=0
note_off channel=1 note=62 velocity=0 time=384
note_off channel=1 note=66 velocity=0 time=0
note_off channel=1 note=57 velocity=127 time=0
note_off channel=1 note=50 velocity=127 time=0
note_on channel=1 note=45 velocity=127 time=192
note_on channel=1 note=61 velocity=127 time=0
note_on channel=1 note=52 velocity=127 time=0
note_on channel=1 note=57 velocity=127 time=0
note_off channel=1 note=45 velocity=0 time=96
note_off channel=1 note=61 velocity=0 time=0
note_off channel=1 note=52 velocity=0 time=0
note_off channel=1 note=57 velocity=0 time=0
note_on channel=1 note=45 velocity=127 time=0
note_on channel=1 note=52 velocity=127 time=0
note_on channel=1 note=57 velocity=127 time=0
note_on channel=1 note=61 velocity=127 time=0
note_off channel=1 note=45 velocity=0 time=96
note_off channel=1 note=52 velocity=127 time=0
note_off channel=1 note=57 velocity=127 time=0
note_off channel=1 note=61 velocity=127 time=0
note_on channel=1 note=45 velocity=127 time=0
note_on channel=1 note=61 velocity=127 time=0
note_on channel=1 note=64 velocity=127 time=0
note_on channel=1 note=57 velocity=127 time=0
note_on channel=1 note=52 velocity=127 time=0
note_off channel=1 note=45 velocity=0 time=384
note_off channel=1 note=61 velocity=0 time=0
note_off channel=1 note=64 velocity=0 time=0
note_off channel=1 note=57 velocity=127 time=0
note_off channel=1 note=52 velocity=127 time=0
note_on channel=1 note=59 velocity=127 time=0
note_on channel=1 note=47 velocity=127 time=0
note_on channel=1 note=71 velocity=127 time=0
note_off channel=1 note=59 velocity=0 time=64
note_off channel=1 note=47 velocity=0 time=0
note_off channel=1 note=71 velocity=0 time=0
note_on channel=1 note=56 velocity=127 time=32
note_on channel=1 note=44 velocity=127 time=0
note_on channel=1 note=68 velocity=127 time=0
note_off channel=1 note=56 velocity=0 time=128
note_off channel=1 note=44 velocity=0 time=0
note_off channel=1 note=68 velocity=0 time=0
note_on channel=1 note=59 velocity=127 time=64
note_on channel=1 note=47 velocity=127 time=0
note_on channel=1 note=71 velocity=127 time=0
note_off channel=1 note=59 velocity=0 time=64
note_off channel=1 note=47 velocity=0 time=0
note_off channel=1 note=71 velocity=0 time=0
note_on channel=1 note=57 velocity=127 time=32
note_on channel=1 note=45 velocity=127 time=0
note_on channel=1 note=69 velocity=127 time=0
note_off channel=1 note=57 velocity=0 time=128
note_off channel=1 note=45 velocity=0 time=0
note_off channel=1 note=69 velocity=0 time=0
note_on channel=1 note=59 velocity=127 time=64
note_on channel=1 note=47 velocity=127 time=0
note_on channel=1 note=71 velocity=127 time=0
note_off channel=1 note=59 velocity=0 time=64
note_off channel=1 note=47 velocity=0 time=0
note_off channel=1 note=71 velocity=0 time=0
note_on channel=1 note=58 velocity=127 time=32
note_on channel=1 note=46 velocity=127 time=0
note_on channel=1 note=70 velocity=127 time=0
note_off channel=1 note=58 velocity=0 time=128
note_off channel=1 note=46 velocity=0 time=0
note_off channel=1 note=70 velocity=0 time=0
note_on channel=1 note=59 velocity=127 time=64
note_on channel=1 note=47 velocity=127 time=0
note_on channel=1 note=71 velocity=127 time=0
note_off channel=1 note=59 velocity=0 time=64
note_off channel=1 note=47 velocity=0 time=0
note_off channel=1 note=71 velocity=0 time=0
note_on channel=1 note=58 velocity=127 time=32
note_on channel=1 note=46 velocity=127 time=0
note_on channel=1 note=70 velocity=127 time=0
note_off channel=1 note=58 velocity=0 time=64
note_off channel=1 note=46 velocity=0 time=0
note_off channel=1 note=70 velocity=0 time=0
note_on channel=1 note=59 velocity=127 time=32
note_on channel=1 note=47 velocity=127 time=0
note_on channel=1 note=71 velocity=127 time=0
note_off channel=1 note=59 velocity=127 time=64
note_off channel=1 note=47 velocity=127 time=0
note_off channel=1 note=71 velocity=127 time=0
note_on channel=1 note=52 velocity=127 time=32
note_on channel=1 note=47 velocity=127 time=0
note_on channel=1 note=64 velocity=42 time=0
note_on channel=1 note=56 velocity=127 time=0
note_on channel=1 note=40 velocity=107 time=0
note_on channel=1 note=64 velocity=127 time=0
note_on channel=1 note=59 velocity=127 time=0
note_on channel=1 note=76 velocity=42 time=0
note_on channel=1 note=71 velocity=127 time=0
note_on channel=1 note=68 velocity=127 time=0
note_on channel=1 note=52 velocity=107 time=0
note_on channel=1 note=59 velocity=127 time=0
note_off channel=1 note=52 velocity=0 time=384
note_off channel=1 note=47 velocity=0 time=0
note_off channel=1 note=64 velocity=0 time=0
note_off channel=1 note=56 velocity=0 time=0
note_off channel=1 note=40 velocity=0 time=0
note_off channel=1 note=64 velocity=0 time=0
note_off channel=1 note=59 velocity=0 time=0
note_off channel=1 note=76 velocity=0 time=0
note_off channel=1 note=71 velocity=0 time=0
note_off channel=1 note=68 velocity=0 time=0
note_off channel=1 note=52 velocity=0 time=0
note_off channel=1 note=59 velocity=0 time=0
note_on channel=1 note=50 velocity=127 time=192
note_on channel=1 note=62 velocity=127 time=0
note_on channel=1 note=57 velocity=127 time=0
note_on channel=1 note=66 velocity=127 time=0
note_on channel=1 note=62 velocity=127 time=0
note_on channel=1 note=74 velocity=127 time=0
note_on channel=1 note=69 velocity=127 time=0
note_on channel=1 note=78 velocity=127 time=0
note_off channel=1 note=50 velocity=0 time=96
note_off channel=1 note=62 velocity=0 time=0
note_off channel=1 note=57 velocity=0 time=0
note_off channel=1 note=66 velocity=0 time=0
note_off channel=1 note=62 velocity=0 time=0
note_off channel=1 note=74 velocity=0 time=0
note_off channel=1 note=69 velocity=0 time=0
note_off channel=1 note=78 velocity=0 time=0
note_on channel=1 note=66 velocity=104 time=0
note_on channel=1 note=62 velocity=127 time=0
note_on channel=1 note=57 velocity=127 time=0
note_on channel=1 note=50 velocity=127 time=0
note_on channel=1 note=78 velocity=104 time=0
note_on channel=1 note=74 velocity=127 time=0
note_on channel=1 note=69 velocity=127 time=0
note_on channel=1 note=62 velocity=127 time=0
note_off channel=1 note=66 velocity=0 time=96
note_off channel=1 note=62 velocity=0 time=0
note_off channel=1 note=57 velocity=127 time=0
note_off channel=1 note=50 velocity=127 time=0
note_off channel=1 note=78 velocity=0 time=0
note_off channel=1 note=74 velocity=0 time=0
note_off channel=1 note=69 velocity=127 time=0
note_off channel=1 note=62 velocity=127 time=0
note_on channel=1 note=62 velocity=127 time=0
note_on channel=1 note=66 velocity=127 time=0
note_on channel=1 note=57 velocity=127 time=0
note_on channel=1 note=50 velocity=127 time=0
note_on channel=1 note=74 velocity=127 time=0
note_on channel=1 note=78 velocity=127 time=0
note_on channel=1 note=69 velocity=127 time=0
note_on channel=1 note=62 velocity=127 time=0
note_off channel=1 note=62 velocity=0 time=384
note_off channel=1 note=66 velocity=0 time=0
note_off channel=1 note=57 velocity=127 time=0
note_off channel=1 note=50 velocity=127 time=0
note_off channel=1 note=74 velocity=0 time=0
note_off channel=1 note=78 velocity=0 time=0
note_off channel=1 note=69 velocity=127 time=0
note_off channel=1 note=62 velocity=127 time=0
note_on channel=1 note=45 velocity=127 time=192
note_on channel=1 note=61 velocity=127 time=0
note_on channel=1 note=52 velocity=127 time=0
note_on channel=1 note=57 velocity=127 time=0
note_on channel=1 note=57 velocity=127 time=0
note_on channel=1 note=73 velocity=127 time=0
note_on channel=1 note=64 velocity=127 time=0
note_on channel=1 note=69 velocity=127 time=0
note_off channel=1 note=45 velocity=0 time=96
note_off channel=1 note=61 velocity=0 time=0
note_off channel=1 note=52 velocity=0 time=0
note_off channel=1 note=57 velocity=0 time=0
note_off channel=1 note=57 velocity=0 time=0
note_off channel=1 note=73 velocity=0 time=0
note_off channel=1 note=64 velocity=0 time=0
note_off channel=1 note=69 velocity=0 time=0
note_on channel=1 note=45 velocity=127 time=0
note_on channel=1 note=52 velocity=127 time=0
note_on channel=1 note=57 velocity=127 time=0
note_on channel=1 note=61 velocity=127 time=0
note_on channel=1 note=57 velocity=127 time=0
note_on channel=1 note=64 velocity=127 time=0
note_on channel=1 note=69 velocity=127 time=0
note_on channel=1 note=73 velocity=127 time=0
note_off channel=1 note=45 velocity=0 time=96
note_off channel=1 note=52 velocity=127 time=0
note_off channel=1 note=57 velocity=127 time=0
note_off channel=1 note=61 velocity=127 time=0
note_off channel=1 note=57 velocity=0 time=0
note_off channel=1 note=64 velocity=127 time=0
note_off channel=1 note=69 velocity=127 time=0
note_off channel=1 note=73 velocity=127 time=0
note_on channel=1 note=45 velocity=127 time=0
note_on channel=1 note=61 velocity=127 time=0
note_on channel=1 note=64 velocity=127 time=0
note_on channel=1 note=57 velocity=127 time=0
note_on channel=1 note=52 velocity=127 time=0
note_on channel=1 note=57 velocity=127 time=0
note_on channel=1 note=73 velocity=127 time=0
note_on channel=1 note=76 velocity=127 time=0
note_on channel=1 note=69 velocity=127 time=0
note_on channel=1 note=64 velocity=127 time=0
note_off channel=1 note=45 velocity=0 time=384
note_off channel=1 note=61 velocity=0 time=0
note_off channel=1 note=64 velocity=0 time=0
note_off channel=1 note=57 velocity=127 time=0
note_off channel=1 note=52 velocity=127 time=0
note_off channel=1 note=57 velocity=0 time=0
note_off channel=1 note=73 velocity=0 time=0
note_off channel=1 note=76 velocity=0 time=0
note_off channel=1 note=69 velocity=127 time=0
note_off channel=1 note=64 velocity=127 time=0
note_on channel=1 note=79 velocity=127 time=480
note_on channel=1 note=67 velocity=127 time=0
note_off channel=1 note=79 velocity=0 time=64
note_off channel=1 note=67 velocity=0 time=0
note_on channel=1 note=76 velocity=127 time=32
note_on channel=1 note=64 velocity=127 time=0
note_on channel=1 note=74 velocity=127 time=96
note_on channel=1 note=62 velocity=127 time=0
note_off channel=1 note=76 velocity=0 time=32
note_off channel=1 note=64 velocity=0 time=0
note_off channel=1 note=74 velocity=0 time=32
note_off channel=1 note=62 velocity=0 time=0
note_on channel=1 note=71 velocity=127 time=32
note_on channel=1 note=59 velocity=127 time=0
note_on channel=1 note=71 velocity=127 time=96
note_on channel=1 note=59 velocity=127 time=0
note_off channel=1 note=71 velocity=0 time=32
note_off channel=1 note=59 velocity=0 time=0
note_on channel=1 note=69 velocity=127 time=64
note_on channel=1 note=57 velocity=127 time=0
note_off channel=1 note=71 velocity=0 time=12
note_off channel=1 note=59 velocity=0 time=8
note_off channel=1 note=69 velocity=0 time=44
note_off channel=1 note=57 velocity=0 time=0
note_on channel=1 note=67 velocity=127 time=32
note_on channel=1 note=55 velocity=127 time=0
note_off channel=1 note=67 velocity=0 time=64
note_off channel=1 note=55 velocity=0 time=0
note_on channel=1 note=52 velocity=127 time=32
note_on channel=1 note=47 velocity=127 time=0
note_on channel=1 note=64 velocity=42 time=0
note_on channel=1 note=59 velocity=127 time=0
note_on channel=1 note=56 velocity=127 time=0
note_on channel=1 note=40 velocity=107 time=0
note_off channel=1 note=52 velocity=0 time=384
note_off channel=1 note=47 velocity=0 time=0
note_off channel=1 note=64 velocity=0 time=0
note_off channel=1 note=59 velocity=0 time=0
note_off channel=1 note=56 velocity=0 time=0
note_off channel=1 note=40 velocity=0 time=0
note_on channel=1 note=50 velocity=127 time=192
note_on channel=1 note=62 velocity=127 time=0
note_on channel=1 note=57 velocity=127 time=0
note_on channel=1 note=66 velocity=127 time=0
note_off channel=1 note=50 velocity=0 time=96
note_off channel=1 note=62 velocity=0 time=0
note_off channel=1 note=57 velocity=0 time=0
note_off channel=1 note=66 velocity=0 time=0
note_on channel=1 note=66 velocity=104 time=0
note_on channel=1 note=62 velocity=127 time=0
note_on channel=1 note=57 velocity=127 time=0
note_on channel=1 note=50 velocity=127 time=0
note_off channel=1 note=66 velocity=0 time=96
note_off channel=1 note=62 velocity=0 time=0
note_off channel=1 note=57 velocity=127 time=0
note_off channel=1 note=50 velocity=127 time=0
note_on channel=1 note=62 velocity=127 time=0
note_on channel=1 note=66 velocity=127 time=0
note_on channel=1 note=57 velocity=127 time=0
note_on channel=1 note=50 velocity=127 time=0
note_off channel=1 note=62 velocity=0 time=384
note_off channel=1 note=66 velocity=0 time=0
note_off channel=1 note=57 velocity=127 time=0
note_off channel=1 note=50 velocity=127 time=0
note_on channel=1 note=45 velocity=127 time=192
note_on channel=1 note=61 velocity=127 time=0
note_on channel=1 note=52 velocity=127 time=0
note_on channel=1 note=57 velocity=127 time=0
note_off channel=1 note=45 velocity=0 time=96
note_off channel=1 note=61 velocity=0 time=0
note_off channel=1 note=52 velocity=0 time=0
note_off channel=1 note=57 velocity=0 time=0
note_on channel=1 note=45 velocity=127 time=0
note_on channel=1 note=52 velocity=127 time=0
note_on channel=1 note=57 velocity=127 time=0
note_on channel=1 note=61 velocity=127 time=0
note_off channel=1 note=45 velocity=0 time=96
note_off channel=1 note=52 velocity=127 time=0
note_off channel=1 note=57 velocity=127 time=0
note_off channel=1 note=61 velocity=127 time=0
note_on channel=1 note=45 velocity=127 time=0
note_on channel=1 note=61 velocity=127 time=0
note_on channel=1 note=64 velocity=127 time=0
note_on channel=1 note=57 velocity=127 time=0
note_on channel=1 note=52 velocity=127 time=0
note_off channel=1 note=45 velocity=0 time=384
note_off channel=1 note=61 velocity=0 time=0
note_off channel=1 note=64 velocity=0 time=0
note_off channel=1 note=57 velocity=127 time=0
note_off channel=1 note=52 velocity=127 time=0
note_on channel=1 note=59 velocity=127 time=0
note_on channel=1 note=47 velocity=127 time=0
note_on channel=1 note=71 velocity=127 time=0
note_off channel=1 note=59 velocity=0 time=64
note_off channel=1 note=47 velocity=0 time=0
note_off channel=1 note=71 velocity=0 time=0
note_on channel=1 note=56 velocity=127 time=32
note_on channel=1 note=44 velocity=127 time=0
note_on channel=1 note=68 velocity=127 time=0
note_off channel=1 note=56 velocity=0 time=128
note_off channel=1 note=44 velocity=0 time=0
note_off channel=1 note=68 velocity=0 time=0
note_on channel=1 note=59 velocity=127 time=64
note_on channel=1 note=47 velocity=127 time=0
note_on channel=1 note=71 velocity=127 time=0
note_off channel=1 note=59 velocity=0 time=64
note_off channel=1 note=47 velocity=0 time=0
note_off channel=1 note=71 velocity=0 time=0
note_on channel=1 note=57 velocity=127 time=32
note_on channel=1 note=45 velocity=127 time=0
note_on channel=1 note=69 velocity=127 time=0
note_off channel=1 note=57 velocity=0 time=128
note_off channel=1 note=45 velocity=0 time=0
note_off channel=1 note=69 velocity=0 time=0
note_on channel=1 note=59 velocity=127 time=64
note_on channel=1 note=47 velocity=127 time=0
note_on channel=1 note=71 velocity=127 time=0
note_off channel=1 note=59 velocity=0 time=64
note_off channel=1 note=47 velocity=0 time=0
note_off channel=1 note=71 velocity=0 time=0
note_on channel=1 note=58 velocity=127 time=32
note_on channel=1 note=46 velocity=127 time=0
note_on channel=1 note=70 velocity=127 time=0
note_off channel=1 note=58 velocity=0 time=128
note_off channel=1 note=46 velocity=0 time=0
note_off channel=1 note=70 velocity=0 time=0
note_on channel=1 note=59 velocity=127 time=64
note_on channel=1 note=47 velocity=127 time=0
note_on channel=1 note=71 velocity=127 time=0
note_off channel=1 note=59 velocity=0 time=64
note_off channel=1 note=47 velocity=0 time=0
note_off channel=1 note=71 velocity=0 time=0
note_on channel=1 note=58 velocity=127 time=32
note_on channel=1 note=46 velocity=127 time=0
note_on channel=1 note=70 velocity=127 time=0
note_off channel=1 note=58 velocity=0 time=64
note_off channel=1 note=46 velocity=0 time=0
note_off channel=1 note=70 velocity=0 time=0
note_on channel=1 note=59 velocity=127 time=32
note_on channel=1 note=47 velocity=127 time=0
note_on channel=1 note=71 velocity=127 time=0
note_off channel=1 note=59 velocity=127 time=64
note_off channel=1 note=47 velocity=127 time=0
note_off channel=1 note=71 velocity=127 time=0
note_on channel=1 note=69 velocity=127 time=28
note_on channel=1 note=76 velocity=127 time=0
note_off channel=1 note=69 velocity=0 time=4
note_off channel=1 note=76 velocity=0 time=0
note_on channel=1 note=69 velocity=60 time=216
note_on channel=1 note=64 velocity=127 time=0
note_on channel=1 note=81 velocity=60 time=0
note_on channel=1 note=76 velocity=127 time=0
note_on channel=1 note=57 velocity=127 time=16
note_on channel=1 note=69 velocity=127 time=0
note_off channel=1 note=69 velocity=0 time=188
note_off channel=1 note=81 velocity=0 time=0
note_off channel=1 note=64 velocity=0 time=8
note_off channel=1 note=76 velocity=0 time=0
note_off channel=1 note=57 velocity=0 time=84
note_off channel=1 note=69 velocity=0 time=0
note_on channel=1 note=59 velocity=127 time=0
note_on channel=1 note=71 velocity=127 time=0
note_off channel=1 note=59 velocity=0 time=16
note_off channel=1 note=71 velocity=0 time=0
note_on channel=1 note=52 velocity=127 time=4
note_on channel=1 note=59 velocity=127 time=0
note_on channel=1 note=64 velocity=127 time=0
note_on channel=1 note=71 velocity=127 time=0
note_off channel=1 note=59 velocity=0 time=108
note_off channel=1 note=71 velocity=0 time=0
note_on channel=1 note=59 velocity=127 time=68
note_on channel=1 note=71 velocity=127 time=0
note_on channel=1 note=66 velocity=127 time=4
note_on channel=1 note=71 velocity=77 time=0
note_on channel=1 note=78 velocity=127 time=0
note_on channel=1 note=83 velocity=77 time=0
note_off channel=1 note=52 velocity=0 time=44
note_off channel=1 note=64 velocity=0 time=0
note_off channel=1 note=59 velocity=0 time=228
note_off channel=1 note=71 velocity=0 time=0
note_off channel=1 note=66 velocity=0 time=60
note_off channel=1 note=78 velocity=0 time=0
note_off channel=1 note=71 velocity=0 time=4
note_off channel=1 note=83 velocity=0 time=0
note_on channel=1 note=69 velocity=45 time=0
note_on channel=1 note=81 velocity=45 time=0
note_on channel=1 note=64 velocity=127 time=12
note_on channel=1 note=76 velocity=127 time=0
note_on channel=1 note=57 velocity=127 time=20
note_on channel=1 note=69 velocity=127 time=0
note_off channel=1 note=64 velocity=0 time=112
note_off channel=1 note=76 velocity=0 time=0
note_off channel=1 note=69 velocity=0 time=8
note_off channel=1 note=81 velocity=0 time=0
note_on channel=1 note=67 velocity=40 time=0
note_on channel=1 note=79 velocity=40 time=0
note_off channel=1 note=67 velocity=0 time=76
note_off channel=1 note=79 velocity=0 time=0
note_on channel=1 note=66 velocity=127 time=4
note_on channel=1 note=67 velocity=103 time=0
note_on channel=1 note=78 velocity=127 time=0
note_on channel=1 note=79 velocity=103 time=0
note_off channel=1 note=57 velocity=0 time=20
note_off channel=1 note=69 velocity=0 time=0
note_off channel=1 note=67 velocity=0 time=0
note_off channel=1 note=79 velocity=0 time=0
note_on channel=1 note=59 velocity=127 time=0
note_on channel=1 note=71 velocity=100 time=0
note_on channel=1 note=71 velocity=127 time=0
note_on channel=1 note=83 velocity=100 time=0
note_off channel=1 note=59 velocity=0 time=112
note_off channel=1 note=71 velocity=0 time=0
note_off channel=1 note=71 velocity=0 time=0
note_off channel=1 note=83 velocity=0 time=0
note_off channel=1 note=66 velocity=0 time=4
note_off channel=1 note=78 velocity=0 time=0
note_on channel=1 note=69 velocity=60 time=336
note_on channel=1 note=64 velocity=127 time=0
note_on channel=1 note=81 velocity=60 time=0
note_on channel=1 note=76 velocity=127 time=0
note_on channel=1 note=57 velocity=127 time=16
note_on channel=1 note=69 velocity=127 time=0
note_off channel=1 note=69 velocity=0 time=188
note_off channel=1 note=81 velocity=0 time=0
note_off channel=1 note=64 velocity=0 time=8
note_off channel=1 note=76 velocity=0 time=0
note_off channel=1 note=57 velocity=0 time=84
note_off channel=1 note=69 velocity=0 time=0
note_on channel=1 note=59 velocity=127 time=0
note_on channel=1 note=71 velocity=127 time=0
note_off channel=1 note=59 velocity=0 time=16
note_off channel=1 note=71 velocity=0 time=0
note_on channel=1 note=52 velocity=127 time=4
note_on channel=1 note=59 velocity=127 time=0
note_on channel=1 note=64 velocity=127 time=0
note_on channel=1 note=71 velocity=127 time=0
note_off channel=1 note=59 velocity=0 time=108
note_off channel=1 note=71 velocity=0 time=0
note_on channel=1 note=59 velocity=127 time=68
note_on channel=1 note=71 velocity=127 time=0
note_on channel=1 note=66 velocity=127 time=4
note_on channel=1 note=71 velocity=77 time=0
note_on channel=1 note=78 velocity=127 time=0
note_on channel=1 note=83 velocity=77 time=0
note_off channel=1 note=52 velocity=0 time=44
note_off channel=1 note=64 velocity=0 time=0
note_off channel=1 note=59 velocity=0 time=228
note_off channel=1 note=71 velocity=0 time=0
note_off channel=1 note=66 velocity=0 time=60
note_off channel=1 note=78 velocity=0 time=0
note_off channel=1 note=71 velocity=0 time=4
note_off channel=1 note=83 velocity=0 time=0
note_on channel=1 note=69 velocity=45 time=0
note_on channel=1 note=81 velocity=45 time=0
note_on channel=1 note=64 velocity=127 time=12
note_on channel=1 note=76 velocity=127 time=0
note_on channel=1 note=57 velocity=127 time=20
note_on channel=1 note=69 velocity=127 time=0
note_off channel=1 note=64 velocity=0 time=112
note_off channel=1 note=76 velocity=0 time=0
note_off channel=1 note=69 velocity=0 time=8
note_off channel=1 note=81 velocity=0 time=0
note_on channel=1 note=67 velocity=40 time=0
note_on channel=1 note=79 velocity=40 time=0
note_off channel=1 note=67 velocity=0 time=76
note_off channel=1 note=79 velocity=0 time=0
note_on channel=1 note=66 velocity=127 time=4
note_on channel=1 note=67 velocity=103 time=0
note_on channel=1 note=78 velocity=127 time=0
note_on channel=1 note=79 velocity=103 time=0
note_off channel=1 note=57 velocity=0 time=20
note_off channel=1 note=69 velocity=0 time=0
note_off channel=1 note=67 velocity=0 time=0
note_off channel=1 note=79 velocity=0 time=0
note_on channel=1 note=59 velocity=127 time=0
note_on channel=1 note=71 velocity=100 time=0
note_on channel=1 note=71 velocity=127 time=0
note_on channel=1 note=83 velocity=100 time=0
note_off channel=1 note=59 velocity=0 time=112
note_off channel=1 note=71 velocity=0 time=0
note_off channel=1 note=71 velocity=0 time=0
note_off channel=1 note=83 velocity=0 time=0
note_off channel=1 note=66 velocity=0 time=4
note_off channel=1 note=78 velocity=0 time=0
note_on channel=1 note=74 velocity=32 time=264
note_on channel=1 note=67 velocity=127 time=24
note_on channel=1 note=79 velocity=127 time=8
note_on channel=1 note=62 velocity=127 time=36
note_off channel=1 note=79 velocity=0 time=112
note_off channel=1 note=74 velocity=0 time=8
note_off channel=1 note=67 velocity=0 time=120
note_off channel=1 note=62 velocity=0 time=32
note_on channel=1 note=62 velocity=127 time=4
note_on channel=1 note=78 velocity=127 time=16
note_on channel=1 note=74 velocity=127 time=0
note_on channel=1 note=69 velocity=127 time=12
note_off channel=1 note=69 velocity=0 time=108
note_off channel=1 note=78 velocity=0 time=8
note_off channel=1 note=74 velocity=0 time=12
note_off channel=1 note=62 velocity=0 time=120
note_on channel=1 note=62 velocity=127 time=4
note_on channel=1 note=57 velocity=127 time=12
note_on channel=1 note=69 velocity=127 time=12
note_off channel=1 note=62 velocity=0 time=28
note_on channel=1 note=64 velocity=127 time=0
note_off channel=1 note=57 velocity=0 time=228
note_off channel=1 note=64 velocity=0 time=36
note_on channel=1 note=55 velocity=127 time=4
note_on channel=1 note=60 velocity=127 time=16
note_off channel=1 note=60 velocity=0 time=0
note_off channel=1 note=55 velocity=0 time=116
note_off channel=1 note=69 velocity=0 time=12
note_on channel=1 note=69 velocity=127 time=4
note_on channel=1 note=57 velocity=127 time=12
note_on channel=1 note=64 velocity=127 time=8
note_on channel=1 note=57 velocity=127 time=280
note_off channel=1 note=69 velocity=0 time=80
note_off channel=1 note=64 velocity=0 time=4
note_on channel=1 note=79 velocity=127 time=68
note_off channel=1 note=57 velocity=0 time=4
note_on channel=1 note=74 velocity=127 time=4
note_on channel=1 note=55 velocity=127 time=0
note_on channel=1 note=62 velocity=127 time=8
note_on channel=1 note=67 velocity=127 time=28
note_off channel=1 note=55 velocity=0 time=96
note_off channel=1 note=74 velocity=0 time=20
note_off channel=1 note=79 velocity=0 time=4
note_off channel=1 note=57 velocity=0 time=128
note_off channel=1 note=67 velocity=0 time=0
note_on channel=1 note=78 velocity=127 time=32
note_on channel=1 note=74 velocity=127 time=0
note_on channel=1 note=69 velocity=127 time=0
note_on channel=1 note=62 velocity=127 time=4
note_off channel=1 note=62 velocity=127 time=128
note_off channel=1 note=69 velocity=0 time=20
note_off channel=1 note=78 velocity=0 time=20
note_off channel=1 note=74 velocity=0 time=24
note_off channel=1 note=62 velocity=0 time=84
note_on channel=1 note=64 velocity=127 time=0
note_on channel=1 note=57 velocity=127 time=12
note_on channel=1 note=69 velocity=127 time=24
note_off channel=1 note=64 velocity=0 time=276
note_off channel=1 note=57 velocity=0 time=0
note_on channel=1 note=55 velocity=127 time=12
note_off channel=1 note=55 velocity=0 time=144
note_off channel=1 note=69 velocity=0 time=8
note_on channel=1 note=69 velocity=127 time=8
note_on channel=1 note=58 velocity=127 time=0
note_on channel=1 note=65 velocity=127 time=12
note_off channel=1 note=58 velocity=0 time=60
note_on channel=1 note=57 velocity=127 time=0
note_off channel=1 note=65 velocity=0 time=24
note_on channel=1 note=64 velocity=127 time=4
note_off channel=1 note=69 velocity=0 time=376
note_off channel=1 note=64 velocity=0 time=0
note_on channel=1 note=69 velocity=60 time=36
note_on channel=1 note=64 velocity=127 time=0
note_on channel=1 note=81 velocity=60 time=0
note_on channel=1 note=76 velocity=127 time=0
note_on channel=1 note=57 velocity=127 time=16
note_on channel=1 note=69 velocity=127 time=0
note_off channel=1 note=57 velocity=0 time=16
note_off channel=1 note=69 velocity=0 time=172
note_off channel=1 note=81 velocity=0 time=0
note_off channel=1 note=64 velocity=0 time=8
note_off channel=1 note=76 velocity=0 time=0
note_off channel=1 note=57 velocity=0 time=84
note_off channel=1 note=69 velocity=0 time=0
note_on channel=1 note=59 velocity=127 time=0
note_on channel=1 note=71 velocity=127 time=0
note_off channel=1 note=59 velocity=0 time=16
note_off channel=1 note=71 velocity=0 time=0
note_on channel=1 note=52 velocity=127 time=4
note_on channel=1 note=59 velocity=127 time=0
note_on channel=1 note=64 velocity=127 time=0
note_on channel=1 note=71 velocity=127 time=0
note_off channel=1 note=59 velocity=0 time=108
note_off channel=1 note=71 velocity=0 time=0
note_on channel=1 note=59 velocity=127 time=68
note_on channel=1 note=71 velocity=127 time=0
note_on channel=1 note=66 velocity=127 time=4
note_on channel=1 note=71 velocity=77 time=0
note_on channel=1 note=78 velocity=127 time=0
note_on channel=1 note=83 velocity=77 time=0
note_off channel=1 note=52 velocity=0 time=44
note_off channel=1 note=64 velocity=0 time=0
note_off channel=1 note=59 velocity=0 time=228
note_off channel=1 note=71 velocity=0 time=0
note_off channel=1 note=66 velocity=0 time=60
note_off channel=1 note=78 velocity=0 time=0
note_off channel=1 note=71 velocity=0 time=4
note_off channel=1 note=83 velocity=0 time=0
note_on channel=1 note=69 velocity=45 time=0
note_on channel=1 note=81 velocity=45 time=0
note_on channel=1 note=64 velocity=127 time=12
note_on channel=1 note=76 velocity=127 time=0
note_on channel=1 note=57 velocity=127 time=20
note_on channel=1 note=69 velocity=127 time=0
note_off channel=1 note=64 velocity=0 time=112
note_off channel=1 note=76 velocity=0 time=0
note_off channel=1 note=69 velocity=0 time=8
note_off channel=1 note=81 velocity=0 time=0
note_on channel=1 note=67 velocity=40 time=0
note_on channel=1 note=79 velocity=40 time=0
note_off channel=1 note=67 velocity=0 time=76
note_off channel=1 note=79 velocity=0 time=0
note_on channel=1 note=66 velocity=127 time=4
note_on channel=1 note=67 velocity=103 time=0
note_on channel=1 note=78 velocity=127 time=0
note_on channel=1 note=79 velocity=103 time=0
note_off channel=1 note=57 velocity=0 time=20
note_off channel=1 note=69 velocity=0 time=0
note_off channel=1 note=67 velocity=0 time=0
note_off channel=1 note=79 velocity=0 time=0
note_on channel=1 note=59 velocity=127 time=0
note_on channel=1 note=71 velocity=100 time=0
note_on channel=1 note=71 velocity=127 time=0
note_on channel=1 note=83 velocity=100 time=0
note_off channel=1 note=59 velocity=0 time=112
note_off channel=1 note=71 velocity=0 time=0
note_off channel=1 note=71 velocity=0 time=0
note_off channel=1 note=83 velocity=0 time=0
note_off channel=1 note=66 velocity=0 time=4
note_off channel=1 note=78 velocity=0 time=0
note_on channel=1 note=69 velocity=60 time=336
note_on channel=1 note=64 velocity=127 time=0
note_on channel=1 note=81 velocity=60 time=0
note_on channel=1 note=76 velocity=127 time=0
note_on channel=1 note=57 velocity=127 time=16
note_on channel=1 note=69 velocity=127 time=0
note_off channel=1 note=69 velocity=0 time=188
note_off channel=1 note=81 velocity=0 time=0
note_off channel=1 note=64 velocity=0 time=8
note_off channel=1 note=76 velocity=0 time=0
note_off channel=1 note=57 velocity=0 time=84
note_off channel=1 note=69 velocity=0 time=0
note_on channel=1 note=59 velocity=127 time=0
note_on channel=1 note=71 velocity=127 time=0
note_off channel=1 note=59 velocity=0 time=16
note_off channel=1 note=71 velocity=0 time=0
note_on channel=1 note=52 velocity=127 time=4
note_on channel=1 note=59 velocity=127 time=0
note_on channel=1 note=64 velocity=127 time=0
note_on channel=1 note=71 velocity=127 time=0
note_off channel=1 note=59 velocity=0 time=108
note_off channel=1 note=71 velocity=0 time=0
note_on channel=1 note=59 velocity=127 time=68
note_on channel=1 note=71 velocity=127 time=0
note_on channel=1 note=66 velocity=127 time=4
note_on channel=1 note=71 velocity=77 time=0
note_on channel=1 note=78 velocity=127 time=0
note_on channel=1 note=83 velocity=77 time=0
note_off channel=1 note=52 velocity=0 time=44
note_off channel=1 note=64 velocity=0 time=0
note_off channel=1 note=59 velocity=0 time=228
note_off channel=1 note=71 velocity=0 time=0
note_off channel=1 note=66 velocity=0 time=60
note_off channel=1 note=78 velocity=0 time=0
note_off channel=1 note=71 velocity=0 time=4
note_off channel=1 note=83 velocity=0 time=0
note_on channel=1 note=69 velocity=45 time=0
note_on channel=1 note=81 velocity=45 time=0
note_on channel=1 note=64 velocity=127 time=12
note_on channel=1 note=76 velocity=127 time=0
note_on channel=1 note=57 velocity=127 time=20
note_on channel=1 note=69 velocity=127 time=0
note_off channel=1 note=64 velocity=0 time=112
note_off channel=1 note=76 velocity=0 time=0
note_off channel=1 note=69 velocity=0 time=8
note_off channel=1 note=81 velocity=0 time=0
note_on channel=1 note=67 velocity=40 time=0
note_on channel=1 note=79 velocity=40 time=0
note_off channel=1 note=67 velocity=0 time=76
note_off channel=1 note=79 velocity=0 time=0
note_on channel=1 note=66 velocity=127 time=4
note_on channel=1 note=67 velocity=103 time=0
note_on channel=1 note=78 velocity=127 time=0
note_on channel=1 note=79 velocity=103 time=0
note_off channel=1 note=57 velocity=0 time=20
note_off channel=1 note=69 velocity=0 time=0
note_off channel=1 note=67 velocity=0 time=0
note_off channel=1 note=79 velocity=0 time=0
note_on channel=1 note=59 velocity=127 time=0
note_on channel=1 note=71 velocity=100 time=0
note_on channel=1 note=71 velocity=127 time=0
note_on channel=1 note=83 velocity=100 time=0
note_off channel=1 note=59 velocity=0 time=112
note_off channel=1 note=71 velocity=0 time=0
note_off channel=1 note=71 velocity=0 time=0
note_off channel=1 note=83 velocity=0 time=0
note_off channel=1 note=66 velocity=0 time=4
note_off channel=1 note=78 velocity=0 time=0
note_on channel=1 note=50 velocity=101 time=120
note_on channel=1 note=55 velocity=127 time=0
note_on channel=1 note=67 velocity=119 time=0
note_on channel=1 note=62 velocity=127 time=0
note_on channel=1 note=59 velocity=127 time=0
note_off channel=1 note=50 velocity=0 time=192
note_off channel=1 note=55 velocity=0 time=0
note_off channel=1 note=67 velocity=0 time=0
note_off channel=1 note=62 velocity=0 time=0
note_off channel=1 note=59 velocity=0 time=0
note_on channel=1 note=50 velocity=101 time=96
note_on channel=1 note=55 velocity=127 time=0
note_on channel=1 note=67 velocity=119 time=0
note_on channel=1 note=62 velocity=127 time=0
note_on channel=1 note=59 velocity=127 time=0
note_off channel=1 note=50 velocity=0 time=192
note_off channel=1 note=55 velocity=0 time=0
note_off channel=1 note=67 velocity=0 time=0
note_off channel=1 note=62 velocity=0 time=0
note_off channel=1 note=59 velocity=0 time=0
note_on channel=1 note=50 velocity=101 time=96
note_on channel=1 note=55 velocity=127 time=0
note_on channel=1 note=67 velocity=119 time=0
note_on channel=1 note=62 velocity=127 time=0
note_on channel=1 note=59 velocity=127 time=0
note_off channel=1 note=50 velocity=0 time=192
note_off channel=1 note=55 velocity=0 time=0
note_off channel=1 note=67 velocity=0 time=0
note_off channel=1 note=62 velocity=0 time=0
note_off channel=1 note=59 velocity=0 time=0
note_on channel=1 note=50 velocity=72 time=96
note_on channel=1 note=55 velocity=127 time=0
note_on channel=1 note=59 velocity=127 time=0
note_on channel=1 note=62 velocity=87 time=0
note_on channel=1 note=67 velocity=87 time=0
note_off channel=1 note=50 velocity=0 time=64
note_off channel=1 note=55 velocity=0 time=0
note_off channel=1 note=59 velocity=0 time=0
note_off channel=1 note=62 velocity=0 time=0
note_off channel=1 note=67 velocity=0 time=0
note_on channel=1 note=59 velocity=52 time=32
note_on channel=1 note=67 velocity=87 time=0
note_on channel=1 note=49 velocity=56 time=0
note_off channel=1 note=59 velocity=0 time=64
note_off channel=1 note=67 velocity=0 time=0
note_off channel=1 note=49 velocity=0 time=0
note_on channel=1 note=50 velocity=72 time=32
note_on channel=1 note=59 velocity=127 time=0
note_on channel=1 note=55 velocity=127 time=0
note_on channel=1 note=62 velocity=92 time=0
note_on channel=1 note=67 velocity=95 time=0
note_off channel=1 note=50 velocity=0 time=64
note_off channel=1 note=59 velocity=0 time=0
note_off channel=1 note=55 velocity=0 time=0
note_off channel=1 note=62 velocity=0 time=0
note_off channel=1 note=67 velocity=0 time=0
note_on channel=1 note=50 velocity=85 time=32
note_on channel=1 note=55 velocity=127 time=0
note_on channel=1 note=59 velocity=127 time=0
note_on channel=1 note=62 velocity=88 time=0
note_on channel=1 note=67 velocity=84 time=0
note_off channel=1 note=50 velocity=0 time=128
note_off channel=1 note=55 velocity=0 time=0
note_off channel=1 note=59 velocity=0 time=0
note_off channel=1 note=62 velocity=0 time=0
note_off channel=1 note=67 velocity=0 time=0
note_on channel=1 note=50 velocity=91 time=64
note_on channel=1 note=55 velocity=127 time=0
note_on channel=1 note=59 velocity=127 time=0
note_on channel=1 note=62 velocity=119 time=0
note_on channel=1 note=67 velocity=127 time=0
note_off channel=1 note=50 velocity=0 time=128
note_off channel=1 note=55 velocity=0 time=0
note_off channel=1 note=59 velocity=0 time=0
note_off channel=1 note=62 velocity=0 time=0
note_off channel=1 note=67 velocity=0 time=0
note_on channel=1 note=50 velocity=127 time=64
note_on channel=1 note=66 velocity=127 time=0
note_on channel=1 note=57 velocity=127 time=0
note_on channel=1 note=62 velocity=127 time=0
note_off channel=1 note=50 velocity=0 time=192
note_off channel=1 note=66 velocity=0 time=0
note_off channel=1 note=57 velocity=0 time=0
note_off channel=1 note=62 velocity=0 time=0
note_on channel=1 note=50 velocity=127 time=96
note_on channel=1 note=62 velocity=127 time=0
note_on channel=1 note=66 velocity=127 time=0
note_on channel=1 note=57 velocity=127 time=0
note_off channel=1 note=50 velocity=0 time=192
note_off channel=1 note=62 velocity=0 time=0
note_off channel=1 note=66 velocity=0 time=0
note_off channel=1 note=57 velocity=0 time=0
note_on channel=1 note=50 velocity=127 time=96
note_on channel=1 note=62 velocity=127 time=0
note_on channel=1 note=66 velocity=127 time=0
note_on channel=1 note=57 velocity=127 time=0
note_off channel=1 note=50 velocity=0 time=512
note_off channel=1 note=62 velocity=0 time=0
note_off channel=1 note=66 velocity=0 time=0
note_off channel=1 note=57 velocity=0 time=0
note_on channel=1 note=40 velocity=127 time=448
note_on channel=1 note=64 velocity=127 time=0
note_on channel=1 note=52 velocity=127 time=0
note_on channel=1 note=59 velocity=127 time=4
note_off channel=1 note=40 velocity=0 time=176
note_off channel=1 note=52 velocity=0 time=12
note_off channel=1 note=59 velocity=0 time=8
note_off channel=1 note=64 velocity=0 time=4
note_on channel=1 note=50 velocity=127 time=412
note_on channel=1 note=57 velocity=127 time=0
note_on channel=1 note=40 velocity=127 time=4
note_on channel=1 note=62 velocity=127 time=0
note_off channel=1 note=57 velocity=0 time=84
note_on channel=1 note=57 velocity=127 time=0
note_off channel=1 note=50 velocity=0 time=84
note_off channel=1 note=57 velocity=0 time=4
note_on channel=1 note=50 velocity=127 time=0
note_off channel=1 note=62 velocity=0 time=8
note_on channel=1 note=57 velocity=127 time=0
note_on channel=1 note=62 velocity=127 time=4
note_off channel=1 note=50 velocity=0 time=176
note_off channel=1 note=57 velocity=0 time=12
note_off channel=1 note=62 velocity=0 time=4
note_off channel=1 note=40 velocity=0 time=28
note_on channel=1 note=49 velocity=127 time=340
note_on channel=1 note=62 velocity=127 time=4
note_on channel=1 note=57 velocity=127 time=0
note_on channel=1 note=40 velocity=127 time=0
note_off channel=1 note=57 velocity=0 time=96
note_on channel=1 note=57 velocity=127 time=4
note_on channel=1 note=40 velocity=127 time=60
note_off channel=1 note=40 velocity=0 time=8
note_on channel=1 note=66 velocity=127 time=24
note_off channel=1 note=49 velocity=0 time=192
note_off channel=1 note=66 velocity=0 time=0
note_off channel=1 note=62 velocity=0 time=12
note_off channel=1 note=57 velocity=0 time=0
note_off channel=1 note=40 velocity=0 time=136
note_on channel=1 note=59 velocity=127 time=236
note_on channel=1 note=52 velocity=127 time=0
note_on channel=1 note=40 velocity=127 time=0
note_on channel=1 note=64 velocity=127 time=20
note_off channel=1 note=59 velocity=0 time=60
note_on channel=1 note=59 velocity=127 time=4
note_off channel=1 note=40 velocity=0 time=48
note_off channel=1 note=52 velocity=0 time=24
note_off channel=1 note=64 velocity=0 time=4
note_on channel=1 note=64 velocity=127 time=28
note_on channel=1 note=68 velocity=127 time=8
note_off channel=1 note=68 velocity=0 time=144
note_off channel=1 note=64 velocity=0 time=12
note_off channel=1 note=59 velocity=0 time=8
note_on channel=1 note=59 velocity=127 time=24
note_on channel=1 note=52 velocity=127 time=0
note_on channel=1 note=40 velocity=127 time=0
note_on channel=1 note=64 velocity=127 time=20
note_off channel=1 note=59 velocity=0 time=60
note_on channel=1 note=59 velocity=127 time=4
note_off channel=1 note=64 velocity=0 time=104
note_on channel=1 note=64 velocity=127 time=0
note_on channel=1 note=68 velocity=127 time=8
note_off channel=1 note=68 velocity=0 time=144
note_off channel=1 note=64 velocity=0 time=12
note_off channel=1 note=52 velocity=0 time=4
note_off channel=1 note=59 velocity=0 time=4
note_on channel=1 note=59 velocity=127 time=24
note_on channel=1 note=52 velocity=127 time=0
note_on channel=1 note=40 velocity=127 time=0
note_on channel=1 note=64 velocity=127 time=20
note_off channel=1 note=59 velocity=0 time=60
note_on channel=1 note=59 velocity=127 time=4
note_off channel=1 note=40 velocity=0 time=8
note_on channel=1 note=40 velocity=127 time=76
note_on channel=1 note=64 velocity=127 time=0
note_on channel=1 note=52 velocity=127 time=0
note_on channel=1 note=59 velocity=127 time=4
note_off channel=1 note=64 velocity=0 time=16
note_off channel=1 note=40 velocity=0 time=160
note_off channel=1 note=52 velocity=0 time=8
note_off channel=1 note=59 velocity=0 time=4
note_off channel=1 note=52 velocity=0 time=0
note_off channel=1 note=59 velocity=0 time=8
note_off channel=1 note=64 velocity=0 time=4
note_off channel=1 note=40 velocity=0 time=104
note_on channel=1 note=50 velocity=127 time=308
note_on channel=1 note=57 velocity=127 time=0
note_on channel=1 note=40 velocity=127 time=4
note_on channel=1 note=62 velocity=127 time=0
note_off channel=1 note=57 velocity=0 time=84
note_on channel=1 note=57 velocity=127 time=0
note_off channel=1 note=50 velocity=0 time=84
note_off channel=1 note=57 velocity=0 time=4
note_on channel=1 note=50 velocity=127 time=0
note_off channel=1 note=62 velocity=0 time=8
note_on channel=1 note=57 velocity=127 time=0
note_on channel=1 note=62 velocity=127 time=4
note_off channel=1 note=50 velocity=0 time=176
note_off channel=1 note=57 velocity=0 time=12
note_off channel=1 note=62 velocity=0 time=4
note_off channel=1 note=40 velocity=0 time=28
note_on channel=1 note=49 velocity=127 time=340
note_on channel=1 note=62 velocity=127 time=4
note_on channel=1 note=57 velocity=127 time=0
note_on channel=1 note=40 velocity=127 time=0
note_off channel=1 note=57 velocity=0 time=96
note_on channel=1 note=57 velocity=127 time=4
note_on channel=1 note=40 velocity=127 time=60
note_off channel=1 note=40 velocity=0 time=8
note_on channel=1 note=66 velocity=127 time=24
note_off channel=1 note=49 velocity=0 time=192
note_off channel=1 note=66 velocity=0 time=0
note_off channel=1 note=62 velocity=0 time=12
note_off channel=1 note=57 velocity=0 time=0
note_off channel=1 note=40 velocity=0 time=136
note_on channel=1 note=52 velocity=127 time=236
note_on channel=1 note=59 velocity=127 time=4
note_on channel=1 note=57 velocity=127 time=164
note_on channel=1 note=73 velocity=127 time=0
note_on channel=1 note=69 velocity=127 time=0
note_on channel=1 note=64 velocity=127 time=0
note_off channel=1 note=52 velocity=0 time=24
note_off channel=1 note=59 velocity=0 time=8
note_off channel=1 note=64 velocity=0 time=232
note_off channel=1 note=73 velocity=0 time=8
note_off channel=1 note=69 velocity=0 time=12
note_on channel=1 note=52 velocity=127 time=0
note_on channel=1 note=68 velocity=127 time=0
note_on channel=1 note=71 velocity=127 time=0
note_on channel=1 note=59 velocity=127 time=0
note_on channel=1 note=64 velocity=127 time=0
note_off channel=1 note=57 velocity=0 time=4
note_off channel=1 note=59 velocity=0 time=248
note_off channel=1 note=71 velocity=0 time=16
note_off channel=1 note=64 velocity=0 time=0
note_off channel=1 note=52 velocity=0 time=24
note_off channel=1 note=68 velocity=127 time=4
note_on channel=1 note=52 velocity=127 time=16
note_on channel=1 note=57 velocity=127 time=0
note_on channel=1 note=73 velocity=127 time=8
note_on channel=1 note=69 velocity=127 time=0
note_on channel=1 note=78 velocity=127 time=0
note_on channel=1 note=64 velocity=127 time=4
note_on channel=1 note=40 velocity=127 time=160
note_on channel=1 note=64 velocity=127 time=0
note_on channel=1 note=52 velocity=127 time=0
note_on channel=1 note=59 velocity=127 time=4
note_off channel=1 note=52 velocity=0 time=16
note_off channel=1 note=57 velocity=0 time=0
note_off channel=1 note=78 velocity=0 time=4
note_off channel=1 note=64 velocity=0 time=0
note_off channel=1 note=69 velocity=0 time=20
note_off channel=1 note=73 velocity=0 time=4
note_off channel=1 note=40 velocity=0 time=132
note_off channel=1 note=52 velocity=0 time=12
note_off channel=1 note=59 velocity=0 time=8
note_off channel=1 note=64 velocity=0 time=4
note_on channel=1 note=50 velocity=127 time=412
note_on channel=1 note=57 velocity=127 time=0
note_on channel=1 note=40 velocity=127 time=4
note_on channel=1 note=62 velocity=127 time=0
note_off channel=1 note=57 velocity=0 time=84
note_on channel=1 note=57 velocity=127 time=0
note_off channel=1 note=50 velocity=0 time=84
note_off channel=1 note=57 velocity=0 time=4
note_on channel=1 note=50 velocity=127 time=0
note_off channel=1 note=62 velocity=0 time=8
note_on channel=1 note=57 velocity=127 time=0
note_on channel=1 note=62 velocity=127 time=4
note_off channel=1 note=50 velocity=0 time=176
note_off channel=1 note=57 velocity=0 time=12
note_off channel=1 note=62 velocity=0 time=4
note_off channel=1 note=40 velocity=0 time=28
note_on channel=1 note=49 velocity=127 time=340
note_on channel=1 note=62 velocity=127 time=4
note_on channel=1 note=57 velocity=127 time=0
note_on channel=1 note=40 velocity=127 time=0
note_off channel=1 note=57 velocity=0 time=96
note_on channel=1 note=57 velocity=127 time=4
note_on channel=1 note=40 velocity=127 time=60
note_off channel=1 note=40 velocity=0 time=8
note_on channel=1 note=66 velocity=127 time=24
note_off channel=1 note=49 velocity=0 time=192
note_off channel=1 note=66 velocity=0 time=0
note_off channel=1 note=62 velocity=0 time=12
note_off channel=1 note=57 velocity=0 time=0
note_off channel=1 note=40 velocity=0 time=136
note_on channel=1 note=59 velocity=127 time=236
note_on channel=1 note=52 velocity=127 time=0
note_on channel=1 note=40 velocity=127 time=0
note_on channel=1 note=64 velocity=127 time=20
note_off channel=1 note=59 velocity=0 time=60
note_on channel=1 note=59 velocity=127 time=4
note_off channel=1 note=40 velocity=0 time=48
note_off channel=1 note=52 velocity=0 time=24
note_off channel=1 note=64 velocity=0 time=4
note_on channel=1 note=64 velocity=127 time=28
note_on channel=1 note=68 velocity=127 time=8
note_off channel=1 note=68 velocity=0 time=144
note_off channel=1 note=64 velocity=0 time=12
note_off channel=1 note=59 velocity=0 time=8
note_on channel=1 note=59 velocity=127 time=24
note_on channel=1 note=52 velocity=127 time=0
note_on channel=1 note=40 velocity=127 time=0
note_on channel=1 note=64 velocity=127 time=20
note_off channel=1 note=59 velocity=0 time=60
note_on channel=1 note=59 velocity=127 time=4
note_off channel=1 note=64 velocity=0 time=104
note_on channel=1 note=64 velocity=127 time=0
note_on channel=1 note=68 velocity=127 time=8
note_off channel=1 note=68 velocity=0 time=144
note_off channel=1 note=64 velocity=0 time=12
note_off channel=1 note=52 velocity=0 time=4
note_off channel=1 note=59 velocity=0 time=4
note_on channel=1 note=59 velocity=127 time=24
note_on channel=1 note=52 velocity=127 time=0
note_on channel=1 note=40 velocity=127 time=0
note_on channel=1 note=64 velocity=127 time=20
note_off channel=1 note=59 velocity=0 time=60
note_on channel=1 note=59 velocity=127 time=4
note_off channel=1 note=40 velocity=0 time=8
note_on channel=1 note=40 velocity=127 time=76
note_on channel=1 note=64 velocity=127 time=0
note_on channel=1 note=52 velocity=127 time=0
note_on channel=1 note=59 velocity=127 time=4
note_off channel=1 note=64 velocity=0 time=16
note_off channel=1 note=40 velocity=0 time=160
note_off channel=1 note=52 velocity=0 time=8
note_off channel=1 note=59 velocity=0 time=4
note_off channel=1 note=52 velocity=0 time=0
note_off channel=1 note=59 velocity=0 time=8
note_off channel=1 note=64 velocity=0 time=4
note_off channel=1 note=40 velocity=0 time=104
note_on channel=1 note=50 velocity=127 time=308
note_on channel=1 note=57 velocity=127 time=0
note_on channel=1 note=40 velocity=127 time=4
note_on channel=1 note=62 velocity=127 time=0
note_off channel=1 note=57 velocity=0 time=84
note_on channel=1 note=57 velocity=127 time=0
note_off channel=1 note=50 velocity=0 time=84
note_off channel=1 note=57 velocity=0 time=4
note_on channel=1 note=50 velocity=127 time=0
note_off channel=1 note=62 velocity=0 time=8
note_on channel=1 note=57 velocity=127 time=0
note_on channel=1 note=62 velocity=127 time=4
note_off channel=1 note=50 velocity=0 time=176
note_off channel=1 note=57 velocity=0 time=12
note_off channel=1 note=62 velocity=0 time=4
note_off channel=1 note=40 velocity=0 time=28
note_on channel=1 note=49 velocity=127 time=340
note_on channel=1 note=62 velocity=127 time=4
note_on channel=1 note=57 velocity=127 time=0
note_on channel=1 note=40 velocity=127 time=0
note_off channel=1 note=57 velocity=0 time=96
note_on channel=1 note=57 velocity=127 time=4
note_on channel=1 note=40 velocity=127 time=60
note_off channel=1 note=40 velocity=0 time=8
note_on channel=1 note=66 velocity=127 time=24
note_off channel=1 note=49 velocity=0 time=192
note_off channel=1 note=66 velocity=0 time=0
note_off channel=1 note=62 velocity=0 time=12
note_off channel=1 note=57 velocity=0 time=0
note_off channel=1 note=40 velocity=0 time=136
note_on channel=1 note=52 velocity=127 time=236
note_on channel=1 note=59 velocity=127 time=4
note_on channel=1 note=57 velocity=127 time=164
note_on channel=1 note=73 velocity=127 time=0
note_on channel=1 note=69 velocity=127 time=0
note_on channel=1 note=64 velocity=127 time=0
note_off channel=1 note=52 velocity=0 time=24
note_off channel=1 note=59 velocity=0 time=8
note_off channel=1 note=64 velocity=0 time=232
note_off channel=1 note=73 velocity=0 time=8
note_off channel=1 note=69 velocity=0 time=12
note_on channel=1 note=52 velocity=127 time=0
note_on channel=1 note=68 velocity=127 time=0
note_on channel=1 note=71 velocity=127 time=0
note_on channel=1 note=59 velocity=127 time=0
note_on channel=1 note=64 velocity=127 time=0
note_off channel=1 note=57 velocity=0 time=4
note_off channel=1 note=59 velocity=0 time=248
note_off channel=1 note=71 velocity=0 time=16
note_off channel=1 note=64 velocity=0 time=0
note_off channel=1 note=52 velocity=0 time=24
note_off channel=1 note=68 velocity=127 time=4
note_on channel=1 note=52 velocity=127 time=16
note_on channel=1 note=57 velocity=127 time=0
note_on channel=1 note=73 velocity=127 time=8
note_on channel=1 note=69 velocity=127 time=0
note_on channel=1 note=78 velocity=127 time=0
note_on channel=1 note=64 velocity=127 time=4
note_on channel=1 note=40 velocity=127 time=160
note_on channel=1 note=64 velocity=127 time=0
note_on channel=1 note=52 velocity=127 time=0
note_on channel=1 note=59 velocity=127 time=4
note_off channel=1 note=52 velocity=0 time=16
note_off channel=1 note=57 velocity=0 time=0
note_off channel=1 note=78 velocity=0 time=4
note_off channel=1 note=64 velocity=0 time=0
note_off channel=1 note=69 velocity=0 time=20
note_off channel=1 note=73 velocity=0 time=4
note_off channel=1 note=40 velocity=0 time=132
note_off channel=1 note=52 velocity=0 time=12
note_off channel=1 note=59 velocity=0 time=8
note_off channel=1 note=64 velocity=0 time=4
note_on channel=1 note=50 velocity=127 time=412
note_on channel=1 note=57 velocity=127 time=0
note_on channel=1 note=40 velocity=127 time=4
note_on channel=1 note=62 velocity=127 time=0
note_off channel=1 note=57 velocity=0 time=84
note_on channel=1 note=57 velocity=127 time=0
note_off channel=1 note=50 velocity=0 time=84
note_off channel=1 note=57 velocity=0 time=4
note_on channel=1 note=50 velocity=127 time=0
note_off channel=1 note=62 velocity=0 time=8
note_on channel=1 note=57 velocity=127 time=0
note_on channel=1 note=62 velocity=127 time=4
note_off channel=1 note=50 velocity=0 time=176
note_off channel=1 note=57 velocity=0 time=12
note_off channel=1 note=62 velocity=0 time=4
note_off channel=1 note=40 velocity=0 time=28
note_on channel=1 note=49 velocity=127 time=340
note_on channel=1 note=62 velocity=127 time=4
note_on channel=1 note=57 velocity=127 time=0
note_on channel=1 note=40 velocity=127 time=0
note_off channel=1 note=57 velocity=0 time=96
note_on channel=1 note=57 velocity=127 time=4
note_on channel=1 note=40 velocity=127 time=60
note_off channel=1 note=40 velocity=0 time=8
note_on channel=1 note=66 velocity=127 time=24
note_off channel=1 note=49 velocity=0 time=192
note_off channel=1 note=66 velocity=0 time=0
note_off channel=1 note=62 velocity=0 time=12
note_off channel=1 note=57 velocity=0 time=0
note_off channel=1 note=40 velocity=0 time=136
note_on channel=1 note=59 velocity=127 time=236
note_on channel=1 note=52 velocity=127 time=0
note_on channel=1 note=40 velocity=127 time=0
note_on channel=1 note=64 velocity=127 time=20
note_off channel=1 note=59 velocity=0 time=60
note_on channel=1 note=59 velocity=127 time=4
note_off channel=1 note=40 velocity=0 time=48
note_off channel=1 note=52 velocity=0 time=24
note_off channel=1 note=64 velocity=0 time=4
note_on channel=1 note=64 velocity=127 time=28
note_on channel=1 note=68 velocity=127 time=8
note_off channel=1 note=68 velocity=0 time=144
note_off channel=1 note=64 velocity=0 time=12
note_off channel=1 note=59 velocity=0 time=8
note_on channel=1 note=59 velocity=127 time=24
note_on channel=1 note=52 velocity=127 time=0
note_on channel=1 note=40 velocity=127 time=0
note_on channel=1 note=64 velocity=127 time=20
note_off channel=1 note=59 velocity=0 time=60
note_on channel=1 note=59 velocity=127 time=4
note_off channel=1 note=64 velocity=0 time=104
note_on channel=1 note=64 velocity=127 time=0
note_on channel=1 note=68 velocity=127 time=8
note_off channel=1 note=68 velocity=0 time=144
note_off channel=1 note=64 velocity=0 time=12
note_off channel=1 note=52 velocity=0 time=4
note_off channel=1 note=59 velocity=0 time=4
note_on channel=1 note=59 velocity=127 time=24
note_on channel=1 note=52 velocity=127 time=0
note_on channel=1 note=40 velocity=127 time=0
note_on channel=1 note=64 velocity=127 time=20
note_off channel=1 note=59 velocity=0 time=60
note_on channel=1 note=59 velocity=127 time=4
note_off channel=1 note=40 velocity=0 time=8
note_on channel=1 note=40 velocity=127 time=76
note_on channel=1 note=64 velocity=127 time=0
note_on channel=1 note=52 velocity=127 time=0
note_on channel=1 note=59 velocity=127 time=4
note_off channel=1 note=64 velocity=0 time=16
note_off channel=1 note=40 velocity=0 time=160
note_off channel=1 note=52 velocity=0 time=8
note_off channel=1 note=59 velocity=0 time=4
note_off channel=1 note=52 velocity=0 time=0
note_off channel=1 note=59 velocity=0 time=8
note_off channel=1 note=64 velocity=0 time=4
note_off channel=1 note=40 velocity=0 time=104
note_on channel=1 note=50 velocity=127 time=308
note_on channel=1 note=57 velocity=127 time=0
note_on channel=1 note=40 velocity=127 time=4
note_on channel=1 note=62 velocity=127 time=0
note_off channel=1 note=57 velocity=0 time=84
note_on channel=1 note=57 velocity=127 time=0
note_off channel=1 note=50 velocity=0 time=84
note_off channel=1 note=57 velocity=0 time=4
note_on channel=1 note=50 velocity=127 time=0
note_off channel=1 note=62 velocity=0 time=8
note_on channel=1 note=57 velocity=127 time=0
note_on channel=1 note=62 velocity=127 time=4
note_off channel=1 note=50 velocity=0 time=176
note_off channel=1 note=57 velocity=0 time=12
note_off channel=1 note=62 velocity=0 time=4
note_off channel=1 note=40 velocity=0 time=28
note_on channel=1 note=49 velocity=127 time=340
note_on channel=1 note=62 velocity=127 time=4
note_on channel=1 note=57 velocity=127 time=0
note_on channel=1 note=40 velocity=127 time=0
note_off channel=1 note=57 velocity=0 time=96
note_on channel=1 note=57 velocity=127 time=4
note_on channel=1 note=40 velocity=127 time=60
note_off channel=1 note=40 velocity=0 time=8
note_on channel=1 note=66 velocity=127 time=24
note_off channel=1 note=49 velocity=0 time=192
note_off channel=1 note=66 velocity=0 time=0
note_off channel=1 note=62 velocity=0 time=12
note_off channel=1 note=57 velocity=0 time=0
note_off channel=1 note=40 velocity=0 time=136
note_on channel=1 note=52 velocity=127 time=236
note_on channel=1 note=59 velocity=127 time=4
note_on channel=1 note=57 velocity=127 time=164
note_on channel=1 note=73 velocity=127 time=0
note_on channel=1 note=69 velocity=127 time=0
note_on channel=1 note=64 velocity=127 time=0
note_off channel=1 note=52 velocity=0 time=24
note_off channel=1 note=59 velocity=0 time=8
note_off channel=1 note=64 velocity=0 time=232
note_off channel=1 note=73 velocity=0 time=8
note_off channel=1 note=69 velocity=0 time=12
note_on channel=1 note=52 velocity=127 time=0
note_on channel=1 note=68 velocity=127 time=0
note_on channel=1 note=71 velocity=127 time=0
note_on channel=1 note=59 velocity=127 time=0
note_on channel=1 note=64 velocity=127 time=0
note_off channel=1 note=57 velocity=0 time=4
note_off channel=1 note=59 velocity=0 time=248
note_off channel=1 note=71 velocity=0 time=16
note_off channel=1 note=64 velocity=0 time=0
note_off channel=1 note=52 velocity=0 time=24
note_off channel=1 note=68 velocity=127 time=4
note_on channel=1 note=52 velocity=127 time=16
note_on channel=1 note=57 velocity=127 time=0
note_on channel=1 note=73 velocity=127 time=8
note_on channel=1 note=69 velocity=127 time=0
note_on channel=1 note=78 velocity=127 time=0
note_on channel=1 note=64 velocity=127 time=4
note_on channel=1 note=40 velocity=127 time=160
note_on channel=1 note=64 velocity=127 time=0
note_on channel=1 note=52 velocity=127 time=0
note_on channel=1 note=59 velocity=127 time=4
note_off channel=1 note=52 velocity=0 time=16
note_off channel=1 note=57 velocity=0 time=0
note_off channel=1 note=78 velocity=0 time=4
note_off channel=1 note=64 velocity=0 time=0
note_off channel=1 note=69 velocity=0 time=20
note_off channel=1 note=73 velocity=0 time=4
note_off channel=1 note=40 velocity=0 time=132
note_off channel=1 note=52 velocity=0 time=12
note_off channel=1 note=59 velocity=0 time=8
note_off channel=1 note=64 velocity=0 time=4
note_on channel=1 note=50 velocity=127 time=412
note_on channel=1 note=57 velocity=127 time=0
note_on channel=1 note=40 velocity=127 time=4
note_on channel=1 note=62 velocity=127 time=0
note_off channel=1 note=57 velocity=0 time=84
note_on channel=1 note=57 velocity=127 time=0
note_off channel=1 note=50 velocity=0 time=84
note_off channel=1 note=57 velocity=0 time=4
note_on channel=1 note=50 velocity=127 time=0
note_off channel=1 note=62 velocity=0 time=8
note_on channel=1 note=57 velocity=127 time=0
note_on channel=1 note=62 velocity=127 time=4
note_off channel=1 note=50 velocity=0 time=176
note_off channel=1 note=57 velocity=0 time=12
note_off channel=1 note=62 velocity=0 time=4
note_off channel=1 note=40 velocity=0 time=28
note_on channel=1 note=49 velocity=127 time=340
note_on channel=1 note=62 velocity=127 time=4
note_on channel=1 note=57 velocity=127 time=0
note_on channel=1 note=40 velocity=127 time=0
note_off channel=1 note=57 velocity=0 time=96
note_on channel=1 note=57 velocity=127 time=4
note_on channel=1 note=40 velocity=127 time=60
note_off channel=1 note=40 velocity=0 time=8
note_on channel=1 note=66 velocity=127 time=24
note_off channel=1 note=49 velocity=0 time=192
note_off channel=1 note=66 velocity=0 time=0
note_off channel=1 note=62 velocity=0 time=12
note_off channel=1 note=57 velocity=0 time=0
note_off channel=1 note=40 velocity=0 time=136
note_on channel=1 note=59 velocity=127 time=236
note_on channel=1 note=52 velocity=127 time=0
note_on channel=1 note=40 velocity=127 time=0
note_on channel=1 note=64 velocity=127 time=20
note_off channel=1 note=59 velocity=0 time=60
note_on channel=1 note=59 velocity=127 time=4
note_off channel=1 note=40 velocity=0 time=48
note_off channel=1 note=52 velocity=0 time=24
note_off channel=1 note=64 velocity=0 time=4
note_on channel=1 note=64 velocity=127 time=28
note_on channel=1 note=68 velocity=127 time=8
note_off channel=1 note=68 velocity=0 time=144
note_off channel=1 note=64 velocity=0 time=12
note_off channel=1 note=59 velocity=0 time=8
note_on channel=1 note=59 velocity=127 time=24
note_on channel=1 note=52 velocity=127 time=0
note_on channel=1 note=40 velocity=127 time=0
note_on channel=1 note=64 velocity=127 time=20
note_off channel=1 note=59 velocity=0 time=60
note_on channel=1 note=59 velocity=127 time=4
note_off channel=1 note=64 velocity=0 time=104
note_on channel=1 note=64 velocity=127 time=0
note_on channel=1 note=68 velocity=127 time=8
note_off channel=1 note=68 velocity=0 time=144
note_off channel=1 note=64 velocity=0 time=12
note_off channel=1 note=52 velocity=0 time=4
note_off channel=1 note=59 velocity=0 time=4
note_on channel=1 note=59 velocity=127 time=24
note_on channel=1 note=52 velocity=127 time=0
note_on channel=1 note=40 velocity=127 time=0
note_on channel=1 note=64 velocity=127 time=20
note_off channel=1 note=59 velocity=0 time=60
note_on channel=1 note=59 velocity=127 time=4
note_off channel=1 note=40 velocity=0 time=8
note_on channel=1 note=40 velocity=127 time=76
note_on channel=1 note=64 velocity=127 time=0
note_on channel=1 note=52 velocity=127 time=0
note_on channel=1 note=59 velocity=127 time=4
note_off channel=1 note=64 velocity=0 time=16
note_off channel=1 note=40 velocity=0 time=160
note_off channel=1 note=52 velocity=0 time=8
note_off channel=1 note=59 velocity=0 time=4
note_off channel=1 note=52 velocity=0 time=0
note_off channel=1 note=59 velocity=0 time=8
note_off channel=1 note=64 velocity=0 time=4
note_off channel=1 note=40 velocity=0 time=104
note_on channel=1 note=50 velocity=127 time=308
note_on channel=1 note=57 velocity=127 time=0
note_on channel=1 note=40 velocity=127 time=4
note_on channel=1 note=62 velocity=127 time=0
note_off channel=1 note=57 velocity=0 time=84
note_on channel=1 note=57 velocity=127 time=0
note_off channel=1 note=50 velocity=0 time=84
note_off channel=1 note=57 velocity=0 time=4
note_on channel=1 note=50 velocity=127 time=0
note_off channel=1 note=62 velocity=0 time=8
note_on channel=1 note=57 velocity=127 time=0
note_on channel=1 note=62 velocity=127 time=4
note_off channel=1 note=50 velocity=0 time=176
note_off channel=1 note=57 velocity=0 time=12
note_off channel=1 note=62 velocity=0 time=4
note_off channel=1 note=40 velocity=0 time=28
note_on channel=1 note=49 velocity=127 time=340
note_on channel=1 note=62 velocity=127 time=4
note_on channel=1 note=57 velocity=127 time=0
note_on channel=1 note=40 velocity=127 time=0
note_off channel=1 note=57 velocity=0 time=96
note_on channel=1 note=57 velocity=127 time=4
note_on channel=1 note=40 velocity=127 time=60
note_off channel=1 note=40 velocity=0 time=8
note_on channel=1 note=66 velocity=127 time=24
note_off channel=1 note=49 velocity=0 time=192
note_off channel=1 note=66 velocity=0 time=0
note_off channel=1 note=62 velocity=0 time=12
note_off channel=1 note=57 velocity=0 time=0
note_off channel=1 note=40 velocity=0 time=136
note_on channel=1 note=69 velocity=60 time=1388
note_on channel=1 note=64 velocity=127 time=0
note_on channel=1 note=81 velocity=60 time=0
note_on channel=1 note=76 velocity=127 time=0
note_on channel=1 note=57 velocity=127 time=16
note_on channel=1 note=69 velocity=127 time=0
note_off channel=1 note=69 velocity=0 time=188
note_off channel=1 note=81 velocity=0 time=0
note_off channel=1 note=64 velocity=0 time=8
note_off channel=1 note=76 velocity=0 time=0
note_off channel=1 note=57 velocity=0 time=84
note_off channel=1 note=69 velocity=0 time=0
note_on channel=1 note=59 velocity=127 time=0
note_on channel=1 note=71 velocity=127 time=0
note_off channel=1 note=59 velocity=0 time=16
note_off channel=1 note=71 velocity=0 time=0
note_on channel=1 note=52 velocity=127 time=4
note_on channel=1 note=59 velocity=127 time=0
note_on channel=1 note=64 velocity=127 time=0
note_on channel=1 note=71 velocity=127 time=0
note_off channel=1 note=59 velocity=0 time=108
note_off channel=1 note=71 velocity=0 time=0
note_on channel=1 note=59 velocity=127 time=68
note_on channel=1 note=71 velocity=127 time=0
note_on channel=1 note=66 velocity=127 time=4
note_on channel=1 note=71 velocity=77 time=0
note_on channel=1 note=78 velocity=127 time=0
note_on channel=1 note=83 velocity=77 time=0
note_off channel=1 note=52 velocity=0 time=44
note_off channel=1 note=64 velocity=0 time=0
note_off channel=1 note=59 velocity=0 time=228
note_off channel=1 note=71 velocity=0 time=0
note_off channel=1 note=66 velocity=0 time=60
note_off channel=1 note=78 velocity=0 time=0
note_off channel=1 note=71 velocity=0 time=4
note_off channel=1 note=83 velocity=0 time=0
note_on channel=1 note=69 velocity=45 time=0
note_on channel=1 note=81 velocity=45 time=0
note_on channel=1 note=64 velocity=127 time=12
note_on channel=1 note=76 velocity=127 time=0
note_on channel=1 note=57 velocity=127 time=20
note_on channel=1 note=69 velocity=127 time=0
note_off channel=1 note=64 velocity=0 time=112
note_off channel=1 note=76 velocity=0 time=0
note_off channel=1 note=69 velocity=0 time=8
note_off channel=1 note=81 velocity=0 time=0
note_on channel=1 note=67 velocity=40 time=0
note_on channel=1 note=79 velocity=40 time=0
note_off channel=1 note=67 velocity=0 time=76
note_off channel=1 note=79 velocity=0 time=0
note_on channel=1 note=66 velocity=127 time=4
note_on channel=1 note=67 velocity=103 time=0
note_on channel=1 note=78 velocity=127 time=0
note_on channel=1 note=79 velocity=103 time=0
note_off channel=1 note=57 velocity=0 time=20
note_off channel=1 note=69 velocity=0 time=0
note_off channel=1 note=67 velocity=0 time=0
note_off channel=1 note=79 velocity=0 time=0
note_on channel=1 note=59 velocity=127 time=0
note_on channel=1 note=71 velocity=100 time=0
note_on channel=1 note=71 velocity=127 time=0
note_on channel=1 note=83 velocity=100 time=0
note_off channel=1 note=59 velocity=0 time=112
note_off channel=1 note=71 velocity=0 time=0
note_off channel=1 note=71 velocity=0 time=0
note_off channel=1 note=83 velocity=0 time=0
note_off channel=1 note=66 velocity=0 time=4
note_off channel=1 note=78 velocity=0 time=0
note_on channel=1 note=69 velocity=60 time=336
note_on channel=1 note=64 velocity=127 time=0
note_on channel=1 note=81 velocity=60 time=0
note_on channel=1 note=76 velocity=127 time=0
note_on channel=1 note=57 velocity=127 time=16
note_on channel=1 note=69 velocity=127 time=0
note_off channel=1 note=69 velocity=0 time=188
note_off channel=1 note=81 velocity=0 time=0
note_off channel=1 note=64 velocity=0 time=8
note_off channel=1 note=76 velocity=0 time=0
note_off channel=1 note=57 velocity=0 time=84
note_off channel=1 note=69 velocity=0 time=0
note_on channel=1 note=59 velocity=127 time=0
note_on channel=1 note=71 velocity=127 time=0
note_off channel=1 note=59 velocity=0 time=16
note_off channel=1 note=71 velocity=0 time=0
note_on channel=1 note=52 velocity=127 time=4
note_on channel=1 note=59 velocity=127 time=0
note_on channel=1 note=64 velocity=127 time=0
note_on channel=1 note=71 velocity=127 time=0
note_off channel=1 note=59 velocity=0 time=108
note_off channel=1 note=71 velocity=0 time=0
note_on channel=1 note=59 velocity=127 time=68
note_on channel=1 note=71 velocity=127 time=0
note_on channel=1 note=66 velocity=127 time=4
note_on channel=1 note=71 velocity=77 time=0
note_on channel=1 note=78 velocity=127 time=0
note_on channel=1 note=83 velocity=77 time=0
note_off channel=1 note=52 velocity=0 time=44
note_off channel=1 note=64 velocity=0 time=0
note_off channel=1 note=59 velocity=0 time=228
note_off channel=1 note=71 velocity=0 time=0
note_off channel=1 note=66 velocity=0 time=60
note_off channel=1 note=78 velocity=0 time=0
note_off channel=1 note=71 velocity=0 time=4
note_off channel=1 note=83 velocity=0 time=0
note_on channel=1 note=69 velocity=45 time=0
note_on channel=1 note=81 velocity=45 time=0
note_on channel=1 note=64 velocity=127 time=12
note_on channel=1 note=76 velocity=127 time=0
note_on channel=1 note=57 velocity=127 time=20
note_on channel=1 note=69 velocity=127 time=0
note_off channel=1 note=64 velocity=0 time=112
note_off channel=1 note=76 velocity=0 time=0
note_off channel=1 note=69 velocity=0 time=8
note_off channel=1 note=81 velocity=0 time=0
note_on channel=1 note=67 velocity=40 time=0
note_on channel=1 note=79 velocity=40 time=0
note_off channel=1 note=67 velocity=0 time=76
note_off channel=1 note=79 velocity=0 time=0
note_on channel=1 note=66 velocity=127 time=4
note_on channel=1 note=67 velocity=103 time=0
note_on channel=1 note=78 velocity=127 time=0
note_on channel=1 note=79 velocity=103 time=0
note_off channel=1 note=57 velocity=0 time=20
note_off channel=1 note=69 velocity=0 time=0
note_off channel=1 note=67 velocity=0 time=0
note_off channel=1 note=79 velocity=0 time=0
note_on channel=1 note=59 velocity=127 time=0
note_on channel=1 note=71 velocity=100 time=0
note_on channel=1 note=71 velocity=127 time=0
note_on channel=1 note=83 velocity=100 time=0
note_off channel=1 note=59 velocity=0 time=112
note_off channel=1 note=71 velocity=0 time=0
note_off channel=1 note=71 velocity=0 time=0
note_off channel=1 note=83 velocity=0 time=0
note_off channel=1 note=66 velocity=0 time=4
note_off channel=1 note=78 velocity=0 time=0
note_on channel=1 note=74 velocity=32 time=264
note_on channel=1 note=67 velocity=127 time=24
note_on channel=1 note=79 velocity=127 time=8
note_on channel=1 note=62 velocity=127 time=36
note_off channel=1 note=79 velocity=0 time=112
note_off channel=1 note=74 velocity=0 time=8
note_off channel=1 note=67 velocity=0 time=120
note_off channel=1 note=62 velocity=0 time=32
note_on channel=1 note=62 velocity=127 time=4
note_on channel=1 note=78 velocity=127 time=16
note_on channel=1 note=74 velocity=127 time=0
note_on channel=1 note=69 velocity=127 time=12
note_off channel=1 note=69 velocity=0 time=108
note_off channel=1 note=78 velocity=0 time=8
note_off channel=1 note=74 velocity=0 time=12
note_off channel=1 note=62 velocity=0 time=120
note_on channel=1 note=62 velocity=127 time=4
note_on channel=1 note=57 velocity=127 time=12
note_on channel=1 note=69 velocity=127 time=12
note_off channel=1 note=62 velocity=0 time=28
note_on channel=1 note=64 velocity=127 time=0
note_off channel=1 note=57 velocity=0 time=228
note_off channel=1 note=64 velocity=0 time=36
note_on channel=1 note=55 velocity=127 time=4
note_on channel=1 note=60 velocity=127 time=16
note_off channel=1 note=60 velocity=0 time=0
note_off channel=1 note=55 velocity=0 time=116
note_off channel=1 note=69 velocity=0 time=12
note_on channel=1 note=69 velocity=127 time=4
note_on channel=1 note=57 velocity=127 time=12
note_on channel=1 note=64 velocity=127 time=8
note_on channel=1 note=57 velocity=127 time=280
note_off channel=1 note=69 velocity=0 time=80
note_off channel=1 note=64 velocity=0 time=4
note_on channel=1 note=79 velocity=127 time=68
note_off channel=1 note=57 velocity=0 time=4
note_on channel=1 note=74 velocity=127 time=4
note_on channel=1 note=55 velocity=127 time=0
note_on channel=1 note=62 velocity=127 time=8
note_on channel=1 note=67 velocity=127 time=28
note_off channel=1 note=55 velocity=0 time=96
note_off channel=1 note=74 velocity=0 time=20
note_off channel=1 note=79 velocity=0 time=4
note_off channel=1 note=57 velocity=0 time=128
note_off channel=1 note=67 velocity=0 time=0
note_on channel=1 note=78 velocity=127 time=32
note_on channel=1 note=74 velocity=127 time=0
note_on channel=1 note=69 velocity=127 time=0
note_on channel=1 note=62 velocity=127 time=4
note_off channel=1 note=62 velocity=127 time=128
note_off channel=1 note=69 velocity=0 time=20
note_off channel=1 note=78 velocity=0 time=20
note_off channel=1 note=74 velocity=0 time=24
note_off channel=1 note=62 velocity=0 time=84
note_on channel=1 note=64 velocity=127 time=0
note_on channel=1 note=57 velocity=127 time=12
note_on channel=1 note=69 velocity=127 time=24
note_off channel=1 note=64 velocity=0 time=276
note_off channel=1 note=57 velocity=0 time=0
note_on channel=1 note=55 velocity=127 time=12
note_off channel=1 note=55 velocity=0 time=144
note_off channel=1 note=69 velocity=0 time=8
note_on channel=1 note=69 velocity=127 time=8
note_on channel=1 note=58 velocity=127 time=0
note_on channel=1 note=65 velocity=127 time=12
note_off channel=1 note=58 velocity=0 time=60
note_on channel=1 note=57 velocity=127 time=0
note_off channel=1 note=65 velocity=0 time=24
note_on channel=1 note=64 velocity=127 time=4
note_off channel=1 note=69 velocity=0 time=376
note_off channel=1 note=64 velocity=0 time=0
note_on channel=1 note=69 velocity=60 time=36
note_on channel=1 note=64 velocity=127 time=0
note_on channel=1 note=81 velocity=60 time=0
note_on channel=1 note=76 velocity=127 time=0
note_on channel=1 note=57 velocity=127 time=16
note_on channel=1 note=69 velocity=127 time=0
note_off channel=1 note=57 velocity=0 time=16
note_off channel=1 note=69 velocity=0 time=172
note_off channel=1 note=81 velocity=0 time=0
note_off channel=1 note=64 velocity=0 time=8
note_off channel=1 note=76 velocity=0 time=0
note_off channel=1 note=57 velocity=0 time=84
note_off channel=1 note=69 velocity=0 time=0
note_on channel=1 note=59 velocity=127 time=0
note_on channel=1 note=71 velocity=127 time=0
note_off channel=1 note=59 velocity=0 time=16
note_off channel=1 note=71 velocity=0 time=0
note_on channel=1 note=52 velocity=127 time=4
note_on channel=1 note=59 velocity=127 time=0
note_on channel=1 note=64 velocity=127 time=0
note_on channel=1 note=71 velocity=127 time=0
note_off channel=1 note=59 velocity=0 time=108
note_off channel=1 note=71 velocity=0 time=0
note_on channel=1 note=59 velocity=127 time=68
note_on channel=1 note=71 velocity=127 time=0
note_on channel=1 note=66 velocity=127 time=4
note_on channel=1 note=71 velocity=77 time=0
note_on channel=1 note=78 velocity=127 time=0
note_on channel=1 note=83 velocity=77 time=0
note_off channel=1 note=52 velocity=0 time=44
note_off channel=1 note=64 velocity=0 time=0
note_off channel=1 note=59 velocity=0 time=228
note_off channel=1 note=71 velocity=0 time=0
note_off channel=1 note=66 velocity=0 time=60
note_off channel=1 note=78 velocity=0 time=0
note_off channel=1 note=71 velocity=0 time=4
note_off channel=1 note=83 velocity=0 time=0
note_on channel=1 note=69 velocity=45 time=0
note_on channel=1 note=81 velocity=45 time=0
note_on channel=1 note=64 velocity=127 time=12
note_on channel=1 note=76 velocity=127 time=0
note_on channel=1 note=57 velocity=127 time=20
note_on channel=1 note=69 velocity=127 time=0
note_off channel=1 note=64 velocity=0 time=112
note_off channel=1 note=76 velocity=0 time=0
note_off channel=1 note=69 velocity=0 time=8
note_off channel=1 note=81 velocity=0 time=0
note_on channel=1 note=67 velocity=40 time=0
note_on channel=1 note=79 velocity=40 time=0
note_off channel=1 note=67 velocity=0 time=76
note_off channel=1 note=79 velocity=0 time=0
note_on channel=1 note=66 velocity=127 time=4
note_on channel=1 note=67 velocity=103 time=0
note_on channel=1 note=78 velocity=127 time=0
note_on channel=1 note=79 velocity=103 time=0
note_off channel=1 note=57 velocity=0 time=20
note_off channel=1 note=69 velocity=0 time=0
note_off channel=1 note=67 velocity=0 time=0
note_off channel=1 note=79 velocity=0 time=0
note_on channel=1 note=59 velocity=127 time=0
note_on channel=1 note=71 velocity=100 time=0
note_on channel=1 note=71 velocity=127 time=0
note_on channel=1 note=83 velocity=100 time=0
note_off channel=1 note=59 velocity=0 time=112
note_off channel=1 note=71 velocity=0 time=0
note_off channel=1 note=71 velocity=0 time=0
note_off channel=1 note=83 velocity=0 time=0
note_off channel=1 note=66 velocity=0 time=4
note_off channel=1 note=78 velocity=0 time=0
note_on channel=1 note=69 velocity=60 time=336
note_on channel=1 note=64 velocity=127 time=0
note_on channel=1 note=81 velocity=60 time=0
note_on channel=1 note=76 velocity=127 time=0
note_on channel=1 note=57 velocity=127 time=16
note_on channel=1 note=69 velocity=127 time=0
note_off channel=1 note=69 velocity=0 time=188
note_off channel=1 note=81 velocity=0 time=0
note_off channel=1 note=64 velocity=0 time=8
note_off channel=1 note=76 velocity=0 time=0
note_off channel=1 note=57 velocity=0 time=84
note_off channel=1 note=69 velocity=0 time=0
note_on channel=1 note=59 velocity=127 time=0
note_on channel=1 note=71 velocity=127 time=0
note_off channel=1 note=59 velocity=0 time=16
note_off channel=1 note=71 velocity=0 time=0
note_on channel=1 note=52 velocity=127 time=4
note_on channel=1 note=59 velocity=127 time=0
note_on channel=1 note=64 velocity=127 time=0
note_on channel=1 note=71 velocity=127 time=0
note_off channel=1 note=59 velocity=0 time=108
note_off channel=1 note=71 velocity=0 time=0
note_on channel=1 note=59 velocity=127 time=68
note_on channel=1 note=71 velocity=127 time=0
note_on channel=1 note=66 velocity=127 time=4
note_on channel=1 note=71 velocity=77 time=0
note_on channel=1 note=78 velocity=127 time=0
note_on channel=1 note=83 velocity=77 time=0
note_off channel=1 note=52 velocity=0 time=44
note_off channel=1 note=64 velocity=0 time=0
note_off channel=1 note=59 velocity=0 time=228
note_off channel=1 note=71 velocity=0 time=0
note_off channel=1 note=66 velocity=0 time=60
note_off channel=1 note=78 velocity=0 time=0
note_off channel=1 note=71 velocity=0 time=4
note_off channel=1 note=83 velocity=0 time=0
note_on channel=1 note=69 velocity=45 time=0
note_on channel=1 note=81 velocity=45 time=0
note_on channel=1 note=64 velocity=127 time=12
note_on channel=1 note=76 velocity=127 time=0
note_on channel=1 note=57 velocity=127 time=20
note_on channel=1 note=69 velocity=127 time=0
note_off channel=1 note=64 velocity=0 time=112
note_off channel=1 note=76 velocity=0 time=0
note_off channel=1 note=69 velocity=0 time=8
note_off channel=1 note=81 velocity=0 time=0
note_on channel=1 note=67 velocity=40 time=0
note_on channel=1 note=79 velocity=40 time=0
note_off channel=1 note=67 velocity=0 time=76
note_off channel=1 note=79 velocity=0 time=0
note_on channel=1 note=66 velocity=127 time=4
note_on channel=1 note=67 velocity=103 time=0
note_on channel=1 note=78 velocity=127 time=0
note_on channel=1 note=79 velocity=103 time=0
note_off channel=1 note=57 velocity=0 time=20
note_off channel=1 note=69 velocity=0 time=0
note_off channel=1 note=67 velocity=0 time=0
note_off channel=1 note=79 velocity=0 time=0
note_on channel=1 note=59 velocity=127 time=0
note_on channel=1 note=71 velocity=100 time=0
note_on channel=1 note=71 velocity=127 time=0
note_on channel=1 note=83 velocity=100 time=0
note_off channel=1 note=59 velocity=0 time=112
note_off channel=1 note=71 velocity=0 time=0
note_off channel=1 note=71 velocity=0 time=0
note_off channel=1 note=83 velocity=0 time=0
note_off channel=1 note=66 velocity=0 time=4
note_off channel=1 note=78 velocity=0 time=0
note_on channel=1 note=50 velocity=101 time=120
note_on channel=1 note=55 velocity=127 time=0
note_on channel=1 note=67 velocity=119 time=0
note_on channel=1 note=62 velocity=127 time=0
note_on channel=1 note=59 velocity=127 time=0
note_off channel=1 note=50 velocity=0 time=192
note_off channel=1 note=55 velocity=0 time=0
note_off channel=1 note=67 velocity=0 time=0
note_off channel=1 note=62 velocity=0 time=0
note_off channel=1 note=59 velocity=0 time=0
note_on channel=1 note=50 velocity=101 time=96
note_on channel=1 note=55 velocity=127 time=0
note_on channel=1 note=67 velocity=119 time=0
note_on channel=1 note=62 velocity=127 time=0
note_on channel=1 note=59 velocity=127 time=0
note_off channel=1 note=50 velocity=0 time=192
note_off channel=1 note=55 velocity=0 time=0
note_off channel=1 note=67 velocity=0 time=0
note_off channel=1 note=62 velocity=0 time=0
note_off channel=1 note=59 velocity=0 time=0
note_on channel=1 note=50 velocity=101 time=96
note_on channel=1 note=55 velocity=127 time=0
note_on channel=1 note=67 velocity=119 time=0
note_on channel=1 note=62 velocity=127 time=0
note_on channel=1 note=59 velocity=127 time=0
note_off channel=1 note=50 velocity=0 time=192
note_off channel=1 note=55 velocity=0 time=0
note_off channel=1 note=67 velocity=0 time=0
note_off channel=1 note=62 velocity=0 time=0
note_off channel=1 note=59 velocity=0 time=0
note_on channel=1 note=50 velocity=72 time=96
note_on channel=1 note=55 velocity=127 time=0
note_on channel=1 note=59 velocity=127 time=0
note_on channel=1 note=62 velocity=87 time=0
note_on channel=1 note=67 velocity=87 time=0
note_off channel=1 note=50 velocity=0 time=64
note_off channel=1 note=55 velocity=0 time=0
note_off channel=1 note=59 velocity=0 time=0
note_off channel=1 note=62 velocity=0 time=0
note_off channel=1 note=67 velocity=0 time=0
note_on channel=1 note=59 velocity=52 time=32
note_on channel=1 note=67 velocity=87 time=0
note_on channel=1 note=49 velocity=56 time=0
note_off channel=1 note=59 velocity=0 time=64
note_off channel=1 note=67 velocity=0 time=0
note_off channel=1 note=49 velocity=0 time=0
note_on channel=1 note=50 velocity=72 time=32
note_on channel=1 note=59 velocity=127 time=0
note_on channel=1 note=55 velocity=127 time=0
note_on channel=1 note=62 velocity=92 time=0
note_on channel=1 note=67 velocity=95 time=0
note_off channel=1 note=50 velocity=0 time=64
note_off channel=1 note=59 velocity=0 time=0
note_off channel=1 note=55 velocity=0 time=0
note_off channel=1 note=62 velocity=0 time=0
note_off channel=1 note=67 velocity=0 time=0
note_on channel=1 note=50 velocity=85 time=32
note_on channel=1 note=55 velocity=127 time=0
note_on channel=1 note=59 velocity=127 time=0
note_on channel=1 note=62 velocity=88 time=0
note_on channel=1 note=67 velocity=84 time=0
note_off channel=1 note=50 velocity=0 time=128
note_off channel=1 note=55 velocity=0 time=0
note_off channel=1 note=59 velocity=0 time=0
note_off channel=1 note=62 velocity=0 time=0
note_off channel=1 note=67 velocity=0 time=0
note_on channel=1 note=50 velocity=91 time=64
note_on channel=1 note=55 velocity=127 time=0
note_on channel=1 note=59 velocity=127 time=0
note_on channel=1 note=62 velocity=119 time=0
note_on channel=1 note=67 velocity=127 time=0
note_off channel=1 note=50 velocity=0 time=128
note_off channel=1 note=55 velocity=0 time=0
note_off channel=1 note=59 velocity=0 time=0
note_off channel=1 note=62 velocity=0 time=0
note_off channel=1 note=67 velocity=0 time=0
note_on channel=1 note=62 velocity=127 time=64
note_on channel=1 note=69 velocity=127 time=0
note_on channel=1 note=74 velocity=127 time=0
note_on channel=1 note=78 velocity=127 time=0
note_off channel=1 note=62 velocity=0 time=192
note_off channel=1 note=69 velocity=0 time=0
note_off channel=1 note=74 velocity=0 time=0
note_off channel=1 note=78 velocity=0 time=0
note_on channel=1 note=62 velocity=127 time=96
note_on channel=1 note=69 velocity=127 time=0
note_on channel=1 note=74 velocity=127 time=0
note_on channel=1 note=78 velocity=127 time=0
note_off channel=1 note=62 velocity=0 time=192
note_off channel=1 note=69 velocity=0 time=0
note_off channel=1 note=74 velocity=0 time=0
note_off channel=1 note=78 velocity=0 time=0
note_on channel=1 note=62 velocity=127 time=96
note_on channel=1 note=69 velocity=127 time=0
note_on channel=1 note=74 velocity=127 time=0
note_on channel=1 note=78 velocity=91 time=0
note_off channel=1 note=62 velocity=0 time=768
note_off channel=1 note=69 velocity=0 time=0
note_off channel=1 note=74 velocity=0 time=0
note_off channel=1 note=78 velocity=0 time=0
note_on channel=1 note=52 velocity=56 time=192
note_on channel=1 note=59 velocity=75 time=0
note_on channel=1 note=64 velocity=99 time=0
note_on channel=1 note=68 velocity=105 time=0
note_on channel=1 note=71 velocity=121 time=0
note_on channel=1 note=76 velocity=120 time=0
note_off channel=1 note=52 velocity=0 time=1028
note_off channel=1 note=59 velocity=0 time=0
note_off channel=1 note=64 velocity=0 time=0
note_off channel=1 note=68 velocity=0 time=0
note_off channel=1 note=71 velocity=0 time=0
note_off channel=1 note=76 velocity=0 time=0
note_on channel=1 note=52 velocity=56 time=508
note_on channel=1 note=59 velocity=75 time=0
note_on channel=1 note=64 velocity=99 time=0
note_on channel=1 note=68 velocity=105 time=0
note_on channel=1 note=71 velocity=121 time=0
note_on channel=1 note=76 velocity=120 time=0
note_off channel=1 note=52 velocity=0 time=1028
note_off channel=1 note=59 velocity=0 time=0
note_off channel=1 note=64 velocity=0 time=0
note_off channel=1 note=68 velocity=0 time=0
note_off channel=1 note=71 velocity=0 time=0
note_off channel=1 note=76 velocity=0 time=0
note_on channel=1 note=52 velocity=52 time=508
note_on channel=1 note=59 velocity=68 time=0
note_on channel=1 note=64 velocity=101 time=0
note_on channel=1 note=68 velocity=99 time=0
note_on channel=1 note=71 velocity=92 time=0
note_on channel=1 note=76 velocity=64 time=0
note_off channel=1 note=52 velocity=0 time=1028
note_off channel=1 note=59 velocity=0 time=0
note_off channel=1 note=64 velocity=0 time=0
note_off channel=1 note=68 velocity=0 time=0
note_off channel=1 note=71 velocity=0 time=0
note_off channel=1 note=76 velocity=0 time=0
note_on channel=1 note=52 velocity=84 time=508
note_on channel=1 note=59 velocity=88 time=0
note_on channel=1 note=64 velocity=120 time=0
note_on channel=1 note=68 velocity=123 time=0
note_on channel=1 note=71 velocity=124 time=0
note_on channel=1 note=76 velocity=107 time=0
note_off channel=1 note=52 velocity=0 time=1028
note_off channel=1 note=59 velocity=0 time=0
note_off channel=1 note=64 velocity=0 time=0
note_off channel=1 note=68 velocity=0 time=0
note_off channel=1 note=71 velocity=0 time=0
note_off channel=1 note=76 velocity=0 time=0
note_on channel=1 note=57 velocity=81 time=508
note_on channel=1 note=64 velocity=127 time=0
note_on channel=1 note=69 velocity=127 time=0
note_on channel=1 note=73 velocity=112 time=0
note_on channel=1 note=76 velocity=95 time=0
note_off channel=1 note=57 velocity=0 time=1028
note_off channel=1 note=64 velocity=0 time=0
note_off channel=1 note=69 velocity=0 time=0
note_off channel=1 note=73 velocity=0 time=0
note_off channel=1 note=76 velocity=0 time=0
note_on channel=1 note=57 velocity=93 time=508
note_on channel=1 note=64 velocity=127 time=0
note_on channel=1 note=69 velocity=127 time=0
note_on channel=1 note=73 velocity=120 time=0
note_on channel=1 note=76 velocity=113 time=0
note_off channel=1 note=57 velocity=0 time=1028
note_off channel=1 note=64 velocity=0 time=0
note_off channel=1 note=69 velocity=0 time=0
note_off channel=1 note=73 velocity=0 time=0
note_off channel=1 note=76 velocity=0 time=0
note_on channel=1 note=52 velocity=79 time=508
note_on channel=1 note=59 velocity=91 time=0
note_on channel=1 note=64 velocity=117 time=0
note_on channel=1 note=68 velocity=127 time=0
note_on channel=1 note=71 velocity=115 time=0
note_on channel=1 note=76 velocity=96 time=0
note_off channel=1 note=52 velocity=0 time=1028
note_off channel=1 note=59 velocity=0 time=0
note_off channel=1 note=64 velocity=0 time=0
note_off channel=1 note=68 velocity=0 time=0
note_off channel=1 note=71 velocity=0 time=0
note_off channel=1 note=76 velocity=0 time=0
note_on channel=1 note=52 velocity=79 time=508
note_on channel=1 note=59 velocity=91 time=0
note_on channel=1 note=64 velocity=117 time=0
note_on channel=1 note=68 velocity=127 time=0
note_on channel=1 note=71 velocity=115 time=0
note_on channel=1 note=76 velocity=96 time=0
note_off channel=1 note=52 velocity=0 time=1028
note_off channel=1 note=59 velocity=0 time=0
note_off channel=1 note=64 velocity=0 time=0
note_off channel=1 note=68 velocity=0 time=0
note_off channel=1 note=71 velocity=0 time=0
note_off channel=1 note=76 velocity=0 time=0
note_on channel=1 note=69 velocity=60 time=724
note_on channel=1 note=64 velocity=127 time=0
note_on channel=1 note=81 velocity=60 time=0
note_on channel=1 note=76 velocity=127 time=0
note_on channel=1 note=57 velocity=127 time=16
note_on channel=1 note=69 velocity=127 time=0
note_off channel=1 note=69 velocity=0 time=188
note_off channel=1 note=81 velocity=0 time=0
note_off channel=1 note=64 velocity=0 time=8
note_off channel=1 note=76 velocity=0 time=0
note_off channel=1 note=57 velocity=0 time=84
note_off channel=1 note=69 velocity=0 time=0
note_on channel=1 note=59 velocity=127 time=0
note_on channel=1 note=71 velocity=127 time=0
note_off channel=1 note=59 velocity=0 time=16
note_off channel=1 note=71 velocity=0 time=0
note_on channel=1 note=52 velocity=127 time=4
note_on channel=1 note=59 velocity=127 time=0
note_on channel=1 note=64 velocity=127 time=0
note_on channel=1 note=71 velocity=127 time=0
note_off channel=1 note=59 velocity=0 time=108
note_off channel=1 note=71 velocity=0 time=0
note_on channel=1 note=59 velocity=127 time=68
note_on channel=1 note=71 velocity=127 time=0
note_on channel=1 note=66 velocity=127 time=4
note_on channel=1 note=71 velocity=77 time=0
note_on channel=1 note=78 velocity=127 time=0
note_on channel=1 note=83 velocity=77 time=0
note_off channel=1 note=52 velocity=0 time=44
note_off channel=1 note=64 velocity=0 time=0
note_off channel=1 note=59 velocity=0 time=228
note_off channel=1 note=71 velocity=0 time=0
note_off channel=1 note=66 velocity=0 time=60
note_off channel=1 note=78 velocity=0 time=0
note_off channel=1 note=71 velocity=0 time=4
note_off channel=1 note=83 velocity=0 time=0
note_on channel=1 note=69 velocity=45 time=0
note_on channel=1 note=81 velocity=45 time=0
note_on channel=1 note=64 velocity=127 time=12
note_on channel=1 note=76 velocity=127 time=0
note_on channel=1 note=57 velocity=127 time=20
note_on channel=1 note=69 velocity=127 time=0
note_off channel=1 note=64 velocity=0 time=112
note_off channel=1 note=76 velocity=0 time=0
note_off channel=1 note=69 velocity=0 time=8
note_off channel=1 note=81 velocity=0 time=0
note_on channel=1 note=67 velocity=40 time=0
note_on channel=1 note=79 velocity=40 time=0
note_off channel=1 note=67 velocity=0 time=76
note_off channel=1 note=79 velocity=0 time=0
note_on channel=1 note=66 velocity=127 time=4
note_on channel=1 note=67 velocity=103 time=0
note_on channel=1 note=78 velocity=127 time=0
note_on channel=1 note=79 velocity=103 time=0
note_off channel=1 note=57 velocity=0 time=20
note_off channel=1 note=69 velocity=0 time=0
note_off channel=1 note=67 velocity=0 time=0
note_off channel=1 note=79 velocity=0 time=0
note_on channel=1 note=59 velocity=127 time=0
note_on channel=1 note=71 velocity=100 time=0
note_on channel=1 note=71 velocity=127 time=0
note_on channel=1 note=83 velocity=100 time=0
note_off channel=1 note=59 velocity=0 time=112
note_off channel=1 note=71 velocity=0 time=0
note_off channel=1 note=71 velocity=0 time=0
note_off channel=1 note=83 velocity=0 time=0
note_off channel=1 note=66 velocity=0 time=4
note_off channel=1 note=78 velocity=0 time=0
note_on channel=1 note=69 velocity=60 time=336
note_on channel=1 note=64 velocity=127 time=0
note_on channel=1 note=81 velocity=60 time=0
note_on channel=1 note=76 velocity=127 time=0
note_on channel=1 note=57 velocity=127 time=16
note_on channel=1 note=69 velocity=127 time=0
note_off channel=1 note=69 velocity=0 time=188
note_off channel=1 note=81 velocity=0 time=0
note_off channel=1 note=64 velocity=0 time=8
note_off channel=1 note=76 velocity=0 time=0
note_off channel=1 note=57 velocity=0 time=84
note_off channel=1 note=69 velocity=0 time=0
note_on channel=1 note=59 velocity=127 time=0
note_on channel=1 note=71 velocity=127 time=0
note_off channel=1 note=59 velocity=0 time=16
note_off channel=1 note=71 velocity=0 time=0
note_on channel=1 note=52 velocity=127 time=4
note_on channel=1 note=59 velocity=127 time=0
note_on channel=1 note=64 velocity=127 time=0
note_on channel=1 note=71 velocity=127 time=0
note_off channel=1 note=59 velocity=0 time=108
note_off channel=1 note=71 velocity=0 time=0
note_on channel=1 note=59 velocity=127 time=68
note_on channel=1 note=71 velocity=127 time=0
note_on channel=1 note=66 velocity=127 time=4
note_on channel=1 note=71 velocity=77 time=0
note_on channel=1 note=78 velocity=127 time=0
note_on channel=1 note=83 velocity=77 time=0
note_off channel=1 note=52 velocity=0 time=44
note_off channel=1 note=64 velocity=0 time=0
note_off channel=1 note=59 velocity=0 time=228
note_off channel=1 note=71 velocity=0 time=0
note_off channel=1 note=66 velocity=0 time=60
note_off channel=1 note=78 velocity=0 time=0
note_off channel=1 note=71 velocity=0 time=4
note_off channel=1 note=83 velocity=0 time=0
note_on channel=1 note=69 velocity=45 time=0
note_on channel=1 note=81 velocity=45 time=0
note_on channel=1 note=64 velocity=127 time=12
note_on channel=1 note=76 velocity=127 time=0
note_on channel=1 note=57 velocity=127 time=20
note_on channel=1 note=69 velocity=127 time=0
note_off channel=1 note=64 velocity=0 time=112
note_off channel=1 note=76 velocity=0 time=0
note_off channel=1 note=69 velocity=0 time=8
note_off channel=1 note=81 velocity=0 time=0
note_on channel=1 note=67 velocity=40 time=0
note_on channel=1 note=79 velocity=40 time=0
note_off channel=1 note=67 velocity=0 time=76
note_off channel=1 note=79 velocity=0 time=0
note_on channel=1 note=66 velocity=127 time=4
note_on channel=1 note=67 velocity=103 time=0
note_on channel=1 note=78 velocity=127 time=0
note_on channel=1 note=79 velocity=103 time=0
note_off channel=1 note=57 velocity=0 time=20
note_off channel=1 note=69 velocity=0 time=0
note_off channel=1 note=67 velocity=0 time=0
note_off channel=1 note=79 velocity=0 time=0
note_on channel=1 note=59 velocity=127 time=0
note_on channel=1 note=71 velocity=100 time=0
note_on channel=1 note=71 velocity=127 time=0
note_on channel=1 note=83 velocity=100 time=0
note_off channel=1 note=59 velocity=0 time=112
note_off channel=1 note=71 velocity=0 time=0
note_off channel=1 note=71 velocity=0 time=0
note_off channel=1 note=83 velocity=0 time=0
note_off channel=1 note=66 velocity=0 time=4
note_off channel=1 note=78 velocity=0 time=0
note_on channel=1 note=74 velocity=32 time=264
note_on channel=1 note=67 velocity=127 time=24
note_on channel=1 note=79 velocity=127 time=8
note_on channel=1 note=62 velocity=127 time=36
note_off channel=1 note=79 velocity=0 time=112
note_off channel=1 note=74 velocity=0 time=8
note_off channel=1 note=67 velocity=0 time=120
note_off channel=1 note=62 velocity=0 time=32
note_on channel=1 note=62 velocity=127 time=4
note_on channel=1 note=78 velocity=127 time=16
note_on channel=1 note=74 velocity=127 time=0
note_on channel=1 note=69 velocity=127 time=12
note_off channel=1 note=69 velocity=0 time=108
note_off channel=1 note=78 velocity=0 time=8
note_off channel=1 note=74 velocity=0 time=12
note_off channel=1 note=62 velocity=0 time=120
note_on channel=1 note=62 velocity=127 time=4
note_on channel=1 note=57 velocity=127 time=12
note_on channel=1 note=69 velocity=127 time=12
note_off channel=1 note=62 velocity=0 time=28
note_on channel=1 note=64 velocity=127 time=0
note_off channel=1 note=57 velocity=0 time=228
note_off channel=1 note=64 velocity=0 time=36
note_on channel=1 note=55 velocity=127 time=4
note_on channel=1 note=60 velocity=127 time=16
note_off channel=1 note=60 velocity=0 time=0
note_off channel=1 note=55 velocity=0 time=116
note_off channel=1 note=69 velocity=0 time=12
note_on channel=1 note=69 velocity=127 time=4
note_on channel=1 note=57 velocity=127 time=12
note_on channel=1 note=64 velocity=127 time=8
note_on channel=1 note=69 velocity=127 time=280
note_on channel=1 note=57 velocity=127 time=0
note_on channel=1 note=64 velocity=127 time=0
note_on channel=1 note=57 velocity=127 time=0
note_off channel=1 note=69 velocity=0 time=80
note_off channel=1 note=69 velocity=0 time=0
note_off channel=1 note=64 velocity=0 time=4
note_off channel=1 note=64 velocity=0 time=0
note_on channel=1 note=79 velocity=127 time=68
note_off channel=1 note=57 velocity=0 time=4
note_on channel=1 note=74 velocity=127 time=4
note_on channel=1 note=55 velocity=127 time=0
note_on channel=1 note=62 velocity=127 time=8
note_on channel=1 note=67 velocity=127 time=28
note_off channel=1 note=55 velocity=0 time=96
note_off channel=1 note=74 velocity=0 time=20
note_off channel=1 note=79 velocity=0 time=4
note_off channel=1 note=57 velocity=0 time=128
note_off channel=1 note=57 velocity=0 time=0
note_off channel=1 note=67 velocity=0 time=0
note_on channel=1 note=78 velocity=127 time=32
note_on channel=1 note=74 velocity=127 time=0
note_on channel=1 note=69 velocity=127 time=0
note_on channel=1 note=62 velocity=127 time=4
note_off channel=1 note=62 velocity=127 time=128
note_off channel=1 note=69 velocity=0 time=20
note_off channel=1 note=78 velocity=0 time=20
note_off channel=1 note=74 velocity=0 time=24
note_off channel=1 note=62 velocity=0 time=84
note_on channel=1 note=64 velocity=127 time=0
note_on channel=1 note=57 velocity=127 time=12
note_on channel=1 note=69 velocity=127 time=24
note_off channel=1 note=64 velocity=0 time=276
note_off channel=1 note=57 velocity=0 time=0
note_on channel=1 note=55 velocity=127 time=12
note_off channel=1 note=55 velocity=0 time=144
note_off channel=1 note=69 velocity=0 time=8
note_on channel=1 note=69 velocity=127 time=8
note_on channel=1 note=58 velocity=127 time=0
note_on channel=1 note=65 velocity=127 time=12
note_off channel=1 note=58 velocity=0 time=60
note_on channel=1 note=57 velocity=127 time=0
note_off channel=1 note=65 velocity=0 time=24
note_on channel=1 note=64 velocity=127 time=4
note_off channel=1 note=69 velocity=0 time=376
note_off channel=1 note=64 velocity=0 time=0
note_on channel=1 note=69 velocity=60 time=36
note_on channel=1 note=64 velocity=127 time=0
note_on channel=1 note=81 velocity=60 time=0
note_on channel=1 note=76 velocity=127 time=0
note_on channel=1 note=57 velocity=127 time=16
note_on channel=1 note=69 velocity=127 time=0
note_off channel=1 note=57 velocity=0 time=16
note_off channel=1 note=69 velocity=0 time=172
note_off channel=1 note=81 velocity=0 time=0
note_off channel=1 note=64 velocity=0 time=8
note_off channel=1 note=76 velocity=0 time=0
note_off channel=1 note=57 velocity=0 time=84
note_off channel=1 note=69 velocity=0 time=0
note_on channel=1 note=59 velocity=127 time=0
note_on channel=1 note=71 velocity=127 time=0
note_off channel=1 note=59 velocity=0 time=16
note_off channel=1 note=71 velocity=0 time=0
note_on channel=1 note=52 velocity=127 time=4
note_on channel=1 note=59 velocity=127 time=0
note_on channel=1 note=64 velocity=127 time=0
note_on channel=1 note=71 velocity=127 time=0
note_off channel=1 note=59 velocity=0 time=108
note_off channel=1 note=71 velocity=0 time=0
note_on channel=1 note=59 velocity=127 time=68
note_on channel=1 note=71 velocity=127 time=0
note_on channel=1 note=66 velocity=127 time=4
note_on channel=1 note=71 velocity=77 time=0
note_on channel=1 note=78 velocity=127 time=0
note_on channel=1 note=83 velocity=77 time=0
note_off channel=1 note=52 velocity=0 time=44
note_off channel=1 note=64 velocity=0 time=0
note_off channel=1 note=59 velocity=0 time=228
note_off channel=1 note=71 velocity=0 time=0
note_off channel=1 note=66 velocity=0 time=60
note_off channel=1 note=78 velocity=0 time=0
note_off channel=1 note=71 velocity=0 time=4
note_off channel=1 note=83 velocity=0 time=0
note_on channel=1 note=69 velocity=45 time=0
note_on channel=1 note=81 velocity=45 time=0
note_on channel=1 note=64 velocity=127 time=12
note_on channel=1 note=76 velocity=127 time=0
note_on channel=1 note=57 velocity=127 time=20
note_on channel=1 note=69 velocity=127 time=0
note_off channel=1 note=64 velocity=0 time=112
note_off channel=1 note=76 velocity=0 time=0
note_off channel=1 note=69 velocity=0 time=8
note_off channel=1 note=81 velocity=0 time=0
note_on channel=1 note=67 velocity=40 time=0
note_on channel=1 note=79 velocity=40 time=0
note_off channel=1 note=67 velocity=0 time=76
note_off channel=1 note=79 velocity=0 time=0
note_on channel=1 note=66 velocity=127 time=4
note_on channel=1 note=67 velocity=103 time=0
note_on channel=1 note=78 velocity=127 time=0
note_on channel=1 note=79 velocity=103 time=0
note_off channel=1 note=57 velocity=0 time=20
note_off channel=1 note=69 velocity=0 time=0
note_off channel=1 note=67 velocity=0 time=0
note_off channel=1 note=79 velocity=0 time=0
note_on channel=1 note=59 velocity=127 time=0
note_on channel=1 note=71 velocity=100 time=0
note_on channel=1 note=71 velocity=127 time=0
note_on channel=1 note=83 velocity=100 time=0
note_off channel=1 note=59 velocity=0 time=112
note_off channel=1 note=71 velocity=0 time=0
note_off channel=1 note=71 velocity=0 time=0
note_off channel=1 note=83 velocity=0 time=0
note_off channel=1 note=66 velocity=0 time=4
note_off channel=1 note=78 velocity=0 time=0
note_on channel=1 note=69 velocity=60 time=336
note_on channel=1 note=64 velocity=127 time=0
note_on channel=1 note=81 velocity=60 time=0
note_on channel=1 note=76 velocity=127 time=0
note_on channel=1 note=57 velocity=127 time=16
note_on channel=1 note=69 velocity=127 time=0
note_off channel=1 note=69 velocity=0 time=188
note_off channel=1 note=81 velocity=0 time=0
note_off channel=1 note=64 velocity=0 time=8
note_off channel=1 note=76 velocity=0 time=0
note_off channel=1 note=57 velocity=0 time=84
note_off channel=1 note=69 velocity=0 time=0
note_on channel=1 note=59 velocity=127 time=0
note_on channel=1 note=71 velocity=127 time=0
note_off channel=1 note=59 velocity=0 time=16
note_off channel=1 note=71 velocity=0 time=0
note_on channel=1 note=52 velocity=127 time=4
note_on channel=1 note=59 velocity=127 time=0
note_on channel=1 note=64 velocity=127 time=0
note_on channel=1 note=71 velocity=127 time=0
note_off channel=1 note=59 velocity=0 time=108
note_off channel=1 note=71 velocity=0 time=0
note_on channel=1 note=59 velocity=127 time=68
note_on channel=1 note=71 velocity=127 time=0
note_on channel=1 note=66 velocity=127 time=4
note_on channel=1 note=71 velocity=77 time=0
note_on channel=1 note=78 velocity=127 time=0
note_on channel=1 note=83 velocity=77 time=0
note_off channel=1 note=52 velocity=0 time=44
note_off channel=1 note=64 velocity=0 time=0
note_off channel=1 note=59 velocity=0 time=228
note_off channel=1 note=71 velocity=0 time=0
note_off channel=1 note=66 velocity=0 time=60
note_off channel=1 note=78 velocity=0 time=0
note_off channel=1 note=71 velocity=0 time=4
note_off channel=1 note=83 velocity=0 time=0
note_on channel=1 note=69 velocity=45 time=0
note_on channel=1 note=81 velocity=45 time=0
note_on channel=1 note=64 velocity=127 time=12
note_on channel=1 note=76 velocity=127 time=0
note_on channel=1 note=57 velocity=127 time=20
note_on channel=1 note=69 velocity=127 time=0
note_off channel=1 note=64 velocity=0 time=112
note_off channel=1 note=76 velocity=0 time=0
note_off channel=1 note=69 velocity=0 time=8
note_off channel=1 note=81 velocity=0 time=0
note_on channel=1 note=67 velocity=40 time=0
note_on channel=1 note=79 velocity=40 time=0
note_off channel=1 note=67 velocity=0 time=76
note_off channel=1 note=79 velocity=0 time=0
note_on channel=1 note=66 velocity=127 time=4
note_on channel=1 note=67 velocity=103 time=0
note_on channel=1 note=78 velocity=127 time=0
note_on channel=1 note=79 velocity=103 time=0
note_off channel=1 note=57 velocity=0 time=20
note_off channel=1 note=69 velocity=0 time=0
note_off channel=1 note=67 velocity=0 time=0
note_off channel=1 note=79 velocity=0 time=0
note_on channel=1 note=59 velocity=127 time=0
note_on channel=1 note=71 velocity=100 time=0
note_on channel=1 note=71 velocity=127 time=0
note_on channel=1 note=83 velocity=100 time=0
note_off channel=1 note=59 velocity=0 time=112
note_off channel=1 note=71 velocity=0 time=0
note_off channel=1 note=71 velocity=0 time=0
note_off channel=1 note=83 velocity=0 time=0
note_off channel=1 note=66 velocity=0 time=4
note_off channel=1 note=78 velocity=0 time=0
note_on channel=1 note=55 velocity=87 time=120
note_on channel=1 note=60 velocity=101 time=0
note_on channel=1 note=62 velocity=127 time=0
note_on channel=1 note=67 velocity=127 time=0
note_on channel=1 note=71 velocity=127 time=0
note_on channel=1 note=79 velocity=127 time=0
note_off channel=1 note=55 velocity=0 time=768
note_off channel=1 note=60 velocity=0 time=0
note_off channel=1 note=62 velocity=0 time=0
note_off channel=1 note=67 velocity=0 time=0
note_off channel=1 note=71 velocity=0 time=0
note_off channel=1 note=79 velocity=0 time=0
note_on channel=1 note=62 velocity=76 time=384
note_on channel=1 note=71 velocity=60 time=0
note_on channel=1 note=67 velocity=60 time=0
note_on channel=1 note=79 velocity=48 time=0
note_off channel=1 note=62 velocity=0 time=64
note_off channel=1 note=71 velocity=0 time=0
note_off channel=1 note=67 velocity=0 time=0
note_off channel=1 note=79 velocity=0 time=0
note_on channel=1 note=62 velocity=72 time=32
note_on channel=1 note=67 velocity=79 time=0
note_on channel=1 note=71 velocity=89 time=0
note_on channel=1 note=79 velocity=76 time=0
note_off channel=1 note=62 velocity=0 time=64
note_off channel=1 note=67 velocity=0 time=0
note_off channel=1 note=71 velocity=0 time=0
note_off channel=1 note=79 velocity=0 time=0
note_on channel=1 note=55 velocity=42 time=32
note_on channel=1 note=62 velocity=92 time=0
note_on channel=1 note=67 velocity=112 time=0
note_on channel=1 note=71 velocity=108 time=0
note_on channel=1 note=79 velocity=97 time=0
note_off channel=1 note=55 velocity=0 time=128
note_off channel=1 note=62 velocity=0 time=0
note_off channel=1 note=67 velocity=0 time=0
note_off channel=1 note=71 velocity=0 time=0
note_off channel=1 note=79 velocity=0 time=0
note_on channel=1 note=62 velocity=91 time=64
note_on channel=1 note=81 velocity=42 time=0
note_on channel=1 note=62 velocity=103 time=0
note_on channel=1 note=69 velocity=105 time=0
note_on channel=1 note=74 velocity=105 time=0
note_on channel=1 note=78 velocity=88 time=0
note_off channel=1 note=62 velocity=0 time=1028
note_off channel=1 note=81 velocity=0 time=0
note_off channel=1 note=62 velocity=0 time=0
note_off channel=1 note=69 velocity=0 time=0
note_off channel=1 note=74 velocity=0 time=0
note_off channel=1 note=78 velocity=0 time=0
note_on channel=1 note=57 velocity=127 time=508
note_on channel=1 note=64 velocity=127 time=0
note_on channel=1 note=81 velocity=34 time=0
note_on channel=1 note=57 velocity=77 time=0
note_on channel=1 note=64 velocity=84 time=0
note_off channel=1 note=57 velocity=0 time=1028
note_off channel=1 note=64 velocity=0 time=0
note_off channel=1 note=81 velocity=0 time=0
note_off channel=1 note=57 velocity=0 time=512
note_off channel=1 note=64 velocity=0 time=0
note_on channel=1 note=40 velocity=127 time=1532
note_on channel=1 note=64 velocity=127 time=0
note_on channel=1 note=52 velocity=127 time=0
note_on channel=1 note=59 velocity=127 time=4
note_off channel=1 note=40 velocity=0 time=176
note_off channel=1 note=52 velocity=0 time=12
note_off channel=1 note=59 velocity=0 time=8
note_off channel=1 note=64 velocity=0 time=4
note_on channel=1 note=50 velocity=127 time=412
note_on channel=1 note=57 velocity=127 time=0
note_on channel=1 note=40 velocity=127 time=4
note_on channel=1 note=62 velocity=127 time=0
note_off channel=1 note=57 velocity=0 time=84
note_on channel=1 note=57 velocity=127 time=0
note_off channel=1 note=50 velocity=0 time=84
note_off channel=1 note=57 velocity=0 time=4
note_on channel=1 note=50 velocity=127 time=0
note_off channel=1 note=62 velocity=0 time=8
note_on channel=1 note=57 velocity=127 time=0
note_on channel=1 note=62 velocity=127 time=4
note_off channel=1 note=50 velocity=0 time=176
note_off channel=1 note=57 velocity=0 time=12
note_off channel=1 note=62 velocity=0 time=4
note_off channel=1 note=40 velocity=0 time=28
note_on channel=1 note=49 velocity=127 time=340
note_on channel=1 note=62 velocity=127 time=4
note_on channel=1 note=57 velocity=127 time=0
note_on channel=1 note=40 velocity=127 time=0
note_off channel=1 note=57 velocity=0 time=96
note_on channel=1 note=57 velocity=127 time=4
note_on channel=1 note=40 velocity=127 time=60
note_off channel=1 note=40 velocity=0 time=8
note_on channel=1 note=66 velocity=127 time=24
note_off channel=1 note=49 velocity=0 time=192
note_off channel=1 note=66 velocity=0 time=0
note_off channel=1 note=62 velocity=0 time=12
note_off channel=1 note=57 velocity=0 time=0
note_off channel=1 note=40 velocity=0 time=136
note_on channel=1 note=59 velocity=127 time=236
note_on channel=1 note=52 velocity=127 time=0
note_on channel=1 note=40 velocity=127 time=0
note_on channel=1 note=64 velocity=127 time=20
note_off channel=1 note=59 velocity=0 time=60
note_on channel=1 note=59 velocity=127 time=4
note_off channel=1 note=40 velocity=0 time=48
note_off channel=1 note=52 velocity=0 time=24
note_off channel=1 note=64 velocity=0 time=4
note_on channel=1 note=64 velocity=127 time=28
note_on channel=1 note=68 velocity=127 time=8
note_off channel=1 note=68 velocity=0 time=144
note_off channel=1 note=64 velocity=0 time=12
note_off channel=1 note=59 velocity=0 time=8
note_on channel=1 note=59 velocity=127 time=24
note_on channel=1 note=52 velocity=127 time=0
note_on channel=1 note=40 velocity=127 time=0
note_on channel=1 note=64 velocity=127 time=20
note_off channel=1 note=59 velocity=0 time=60
note_on channel=1 note=59 velocity=127 time=4
note_off channel=1 note=64 velocity=0 time=104
note_on channel=1 note=64 velocity=127 time=0
note_on channel=1 note=68 velocity=127 time=8
note_off channel=1 note=68 velocity=0 time=144
note_off channel=1 note=64 velocity=0 time=12
note_off channel=1 note=52 velocity=0 time=4
note_off channel=1 note=59 velocity=0 time=4
note_on channel=1 note=59 velocity=127 time=24
note_on channel=1 note=52 velocity=127 time=0
note_on channel=1 note=40 velocity=127 time=0
note_on channel=1 note=64 velocity=127 time=20
note_off channel=1 note=59 velocity=0 time=60
note_on channel=1 note=59 velocity=127 time=4
note_off channel=1 note=40 velocity=0 time=8
note_on channel=1 note=40 velocity=127 time=76
note_on channel=1 note=64 velocity=127 time=0
note_on channel=1 note=52 velocity=127 time=0
note_on channel=1 note=59 velocity=127 time=4
note_off channel=1 note=64 velocity=0 time=16
note_off channel=1 note=40 velocity=0 time=160
note_off channel=1 note=52 velocity=0 time=8
note_off channel=1 note=59 velocity=0 time=4
note_off channel=1 note=52 velocity=0 time=0
note_off channel=1 note=59 velocity=0 time=8
note_off channel=1 note=64 velocity=0 time=4
note_off channel=1 note=40 velocity=0 time=104
note_on channel=1 note=50 velocity=127 time=308
note_on channel=1 note=57 velocity=127 time=0
note_on channel=1 note=40 velocity=127 time=4
note_on channel=1 note=62 velocity=127 time=0
note_off channel=1 note=57 velocity=0 time=84
note_on channel=1 note=57 velocity=127 time=0
note_off channel=1 note=50 velocity=0 time=84
note_off channel=1 note=57 velocity=0 time=4
note_on channel=1 note=50 velocity=127 time=0
note_off channel=1 note=62 velocity=0 time=8
note_on channel=1 note=57 velocity=127 time=0
note_on channel=1 note=62 velocity=127 time=4
note_off channel=1 note=50 velocity=0 time=176
note_off channel=1 note=57 velocity=0 time=12
note_off channel=1 note=62 velocity=0 time=4
note_off channel=1 note=40 velocity=0 time=28
note_on channel=1 note=49 velocity=127 time=340
note_on channel=1 note=62 velocity=127 time=4
note_on channel=1 note=57 velocity=127 time=0
note_on channel=1 note=40 velocity=127 time=0
note_off channel=1 note=57 velocity=0 time=96
note_on channel=1 note=57 velocity=127 time=4
note_on channel=1 note=40 velocity=127 time=60
note_off channel=1 note=40 velocity=0 time=8
note_off channel=1 note=40 velocity=0 time=0
note_on channel=1 note=66 velocity=127 time=24
note_off channel=1 note=49 velocity=0 time=192
note_off channel=1 note=66 velocity=0 time=0
note_off channel=1 note=62 velocity=0 time=12
note_off channel=1 note=57 velocity=0 time=0
note_on channel=1 note=52 velocity=127 time=372
note_on channel=1 note=59 velocity=127 time=4
note_on channel=1 note=57 velocity=127 time=164
note_on channel=1 note=73 velocity=127 time=0
note_on channel=1 note=69 velocity=127 time=0
note_on channel=1 note=64 velocity=127 time=0
note_off channel=1 note=52 velocity=0 time=24
note_off channel=1 note=59 velocity=0 time=8
note_off channel=1 note=64 velocity=0 time=232
note_off channel=1 note=73 velocity=0 time=8
note_off channel=1 note=69 velocity=0 time=12
note_on channel=1 note=52 velocity=127 time=0
note_on channel=1 note=68 velocity=127 time=0
note_on channel=1 note=71 velocity=127 time=0
note_on channel=1 note=59 velocity=127 time=0
note_on channel=1 note=64 velocity=127 time=0
note_off channel=1 note=57 velocity=0 time=4
note_off channel=1 note=59 velocity=0 time=248
note_off channel=1 note=71 velocity=0 time=16
note_off channel=1 note=64 velocity=0 time=0
note_off channel=1 note=52 velocity=0 time=24
note_off channel=1 note=68 velocity=127 time=4
note_on channel=1 note=52 velocity=127 time=16
note_on channel=1 note=57 velocity=127 time=0
note_on channel=1 note=73 velocity=127 time=8
note_on channel=1 note=69 velocity=127 time=0
note_on channel=1 note=78 velocity=127 time=0
note_on channel=1 note=64 velocity=127 time=4
note_on channel=1 note=40 velocity=127 time=160
note_on channel=1 note=64 velocity=127 time=0
note_on channel=1 note=52 velocity=127 time=0
note_on channel=1 note=59 velocity=127 time=4
note_off channel=1 note=52 velocity=0 time=16
note_off channel=1 note=57 velocity=0 time=0
note_off channel=1 note=78 velocity=0 time=4
note_off channel=1 note=64 velocity=0 time=0
note_off channel=1 note=69 velocity=0 time=20
note_off channel=1 note=73 velocity=0 time=4
note_off channel=1 note=40 velocity=0 time=132
note_off channel=1 note=52 velocity=0 time=12
note_off channel=1 note=59 velocity=0 time=8
note_off channel=1 note=64 velocity=0 time=4
note_on channel=1 note=50 velocity=127 time=412
note_on channel=1 note=57 velocity=127 time=0
note_on channel=1 note=40 velocity=127 time=4
note_on channel=1 note=62 velocity=127 time=0
note_off channel=1 note=57 velocity=0 time=84
note_on channel=1 note=57 velocity=127 time=0
note_off channel=1 note=50 velocity=0 time=84
note_off channel=1 note=57 velocity=0 time=4
note_on channel=1 note=50 velocity=127 time=0
note_off channel=1 note=62 velocity=0 time=8
note_on channel=1 note=57 velocity=127 time=0
note_on channel=1 note=62 velocity=127 time=4
note_off channel=1 note=50 velocity=0 time=176
note_off channel=1 note=57 velocity=0 time=12
note_off channel=1 note=62 velocity=0 time=4
note_off channel=1 note=40 velocity=0 time=28
note_on channel=1 note=49 velocity=127 time=340
note_on channel=1 note=62 velocity=127 time=4
note_on channel=1 note=57 velocity=127 time=0
note_on channel=1 note=40 velocity=127 time=0
note_off channel=1 note=57 velocity=0 time=96
note_on channel=1 note=57 velocity=127 time=4
note_on channel=1 note=40 velocity=127 time=60
note_off channel=1 note=40 velocity=0 time=8
note_on channel=1 note=66 velocity=127 time=24
note_off channel=1 note=49 velocity=0 time=192
note_off channel=1 note=66 velocity=0 time=0
note_off channel=1 note=62 velocity=0 time=12
note_off channel=1 note=57 velocity=0 time=0
note_off channel=1 note=40 velocity=0 time=136
note_on channel=1 note=59 velocity=127 time=236
note_on channel=1 note=52 velocity=127 time=0
note_on channel=1 note=40 velocity=127 time=0
note_on channel=1 note=64 velocity=127 time=20
note_off channel=1 note=59 velocity=0 time=60
note_on channel=1 note=59 velocity=127 time=4
note_off channel=1 note=40 velocity=0 time=48
note_off channel=1 note=52 velocity=0 time=24
note_off channel=1 note=64 velocity=0 time=4
note_on channel=1 note=64 velocity=127 time=28
note_on channel=1 note=68 velocity=127 time=8
note_off channel=1 note=68 velocity=0 time=144
note_off channel=1 note=64 velocity=0 time=12
note_off channel=1 note=59 velocity=0 time=8
note_on channel=1 note=59 velocity=127 time=24
note_on channel=1 note=52 velocity=127 time=0
note_on channel=1 note=40 velocity=127 time=0
note_on channel=1 note=64 velocity=127 time=20
note_off channel=1 note=59 velocity=0 time=60
note_on channel=1 note=59 velocity=127 time=4
note_off channel=1 note=64 velocity=0 time=104
note_on channel=1 note=64 velocity=127 time=0
note_on channel=1 note=68 velocity=127 time=8
note_off channel=1 note=68 velocity=0 time=144
note_off channel=1 note=64 velocity=0 time=12
note_off channel=1 note=52 velocity=0 time=4
note_off channel=1 note=59 velocity=0 time=4
note_on channel=1 note=59 velocity=127 time=24
note_on channel=1 note=52 velocity=127 time=0
note_on channel=1 note=40 velocity=127 time=0
note_on channel=1 note=64 velocity=127 time=20
note_off channel=1 note=59 velocity=0 time=60
note_on channel=1 note=59 velocity=127 time=4
note_off channel=1 note=40 velocity=0 time=8
note_on channel=1 note=40 velocity=127 time=76
note_on channel=1 note=64 velocity=127 time=0
note_on channel=1 note=52 velocity=127 time=0
note_on channel=1 note=59 velocity=127 time=4
note_off channel=1 note=64 velocity=0 time=16
note_off channel=1 note=40 velocity=0 time=160
note_off channel=1 note=52 velocity=0 time=8
note_off channel=1 note=59 velocity=0 time=4
note_off channel=1 note=52 velocity=0 time=0
note_off channel=1 note=59 velocity=0 time=8
note_off channel=1 note=64 velocity=0 time=4
note_off channel=1 note=40 velocity=0 time=104
note_on channel=1 note=50 velocity=127 time=308
note_on channel=1 note=57 velocity=127 time=0
note_on channel=1 note=40 velocity=127 time=4
note_on channel=1 note=62 velocity=127 time=0
note_off channel=1 note=57 velocity=0 time=84
note_on channel=1 note=57 velocity=127 time=0
note_off channel=1 note=50 velocity=0 time=84
note_off channel=1 note=57 velocity=0 time=4
note_on channel=1 note=50 velocity=127 time=0
note_off channel=1 note=62 velocity=0 time=8
note_on channel=1 note=57 velocity=127 time=0
note_on channel=1 note=62 velocity=127 time=4
note_off channel=1 note=50 velocity=0 time=176
note_off channel=1 note=57 velocity=0 time=12
note_off channel=1 note=62 velocity=0 time=4
note_off channel=1 note=40 velocity=0 time=28
note_on channel=1 note=49 velocity=127 time=340
note_on channel=1 note=62 velocity=127 time=4
note_on channel=1 note=57 velocity=127 time=0
note_on channel=1 note=40 velocity=127 time=0
note_off channel=1 note=57 velocity=0 time=96
note_on channel=1 note=57 velocity=127 time=4
note_on channel=1 note=40 velocity=127 time=60
note_off channel=1 note=40 velocity=0 time=8
note_on channel=1 note=49 velocity=127 time=0
note_on channel=1 note=62 velocity=127 time=0
note_on channel=1 note=57 velocity=127 time=0
note_on channel=1 note=66 velocity=127 time=24
note_off channel=1 note=49 velocity=0 time=192
note_off channel=1 note=49 velocity=0 time=0
note_off channel=1 note=66 velocity=0 time=0
note_off channel=1 note=62 velocity=0 time=12
note_off channel=1 note=57 velocity=0 time=0
note_off channel=1 note=62 velocity=0 time=0
note_off channel=1 note=57 velocity=0 time=0
note_off channel=1 note=40 velocity=0 time=136
note_on channel=1 note=52 velocity=127 time=236
note_on channel=1 note=59 velocity=127 time=4
note_on channel=1 note=57 velocity=127 time=164
note_on channel=1 note=73 velocity=127 time=0
note_on channel=1 note=69 velocity=127 time=0
note_on channel=1 note=64 velocity=127 time=0
note_off channel=1 note=52 velocity=0 time=24
note_off channel=1 note=59 velocity=0 time=8
note_off channel=1 note=64 velocity=0 time=232
note_off channel=1 note=73 velocity=0 time=8
note_off channel=1 note=69 velocity=0 time=12
note_on channel=1 note=52 velocity=127 time=0
note_on channel=1 note=68 velocity=127 time=0
note_on channel=1 note=71 velocity=127 time=0
note_on channel=1 note=59 velocity=127 time=0
note_on channel=1 note=64 velocity=127 time=0
note_off channel=1 note=57 velocity=0 time=4
note_off channel=1 note=59 velocity=0 time=248
note_off channel=1 note=71 velocity=0 time=16
note_off channel=1 note=64 velocity=0 time=0
note_off channel=1 note=52 velocity=0 time=24
note_off channel=1 note=68 velocity=127 time=4
note_on channel=1 note=52 velocity=127 time=16
note_on channel=1 note=57 velocity=127 time=0
note_on channel=1 note=73 velocity=127 time=8
note_on channel=1 note=69 velocity=127 time=0
note_on channel=1 note=78 velocity=127 time=0
note_on channel=1 note=64 velocity=127 time=4
note_on channel=1 note=40 velocity=127 time=160
note_on channel=1 note=64 velocity=127 time=0
note_on channel=1 note=52 velocity=127 time=0
note_on channel=1 note=59 velocity=127 time=4
note_off channel=1 note=52 velocity=0 time=16
note_off channel=1 note=57 velocity=0 time=0
note_off channel=1 note=78 velocity=0 time=4
note_off channel=1 note=64 velocity=0 time=0
note_off channel=1 note=69 velocity=0 time=20
note_off channel=1 note=73 velocity=0 time=4
note_off channel=1 note=40 velocity=0 time=132
note_off channel=1 note=52 velocity=0 time=12
note_off channel=1 note=59 velocity=0 time=8
note_off channel=1 note=64 velocity=0 time=4
note_on channel=1 note=50 velocity=127 time=412
note_on channel=1 note=57 velocity=127 time=0
note_on channel=1 note=40 velocity=127 time=4
note_on channel=1 note=62 velocity=127 time=0
note_off channel=1 note=57 velocity=0 time=84
note_on channel=1 note=57 velocity=127 time=0
note_off channel=1 note=50 velocity=0 time=84
note_off channel=1 note=57 velocity=0 time=4
note_on channel=1 note=50 velocity=127 time=0
note_off channel=1 note=62 velocity=0 time=8
note_on channel=1 note=57 velocity=127 time=0
note_on channel=1 note=62 velocity=127 time=4
note_off channel=1 note=50 velocity=0 time=176
note_off channel=1 note=57 velocity=0 time=12
note_off channel=1 note=62 velocity=0 time=4
note_off channel=1 note=40 velocity=0 time=28
note_on channel=1 note=49 velocity=127 time=340
note_on channel=1 note=62 velocity=127 time=4
note_on channel=1 note=57 velocity=127 time=0
note_on channel=1 note=40 velocity=127 time=0
note_off channel=1 note=57 velocity=0 time=96
note_on channel=1 note=57 velocity=127 time=4
note_on channel=1 note=40 velocity=127 time=60
note_off channel=1 note=40 velocity=0 time=8
note_on channel=1 note=66 velocity=127 time=24
note_off channel=1 note=49 velocity=0 time=192
note_off channel=1 note=66 velocity=0 time=0
note_off channel=1 note=62 velocity=0 time=12
note_off channel=1 note=57 velocity=0 time=0
note_off channel=1 note=40 velocity=0 time=136
note_on channel=1 note=59 velocity=127 time=236
note_on channel=1 note=52 velocity=127 time=0
note_on channel=1 note=40 velocity=127 time=0
note_on channel=1 note=64 velocity=127 time=20
note_off channel=1 note=59 velocity=0 time=60
note_on channel=1 note=59 velocity=127 time=4
note_off channel=1 note=40 velocity=0 time=48
note_off channel=1 note=52 velocity=0 time=24
note_off channel=1 note=64 velocity=0 time=4
note_on channel=1 note=64 velocity=127 time=28
note_on channel=1 note=68 velocity=127 time=8
note_off channel=1 note=68 velocity=0 time=144
note_off channel=1 note=64 velocity=0 time=12
note_off channel=1 note=59 velocity=0 time=8
note_on channel=1 note=59 velocity=127 time=24
note_on channel=1 note=52 velocity=127 time=0
note_on channel=1 note=40 velocity=127 time=0
note_on channel=1 note=64 velocity=127 time=20
note_off channel=1 note=59 velocity=0 time=60
note_on channel=1 note=59 velocity=127 time=4
note_off channel=1 note=64 velocity=0 time=104
note_on channel=1 note=64 velocity=127 time=0
note_on channel=1 note=68 velocity=127 time=8
note_off channel=1 note=68 velocity=0 time=144
note_off channel=1 note=64 velocity=0 time=12
note_off channel=1 note=52 velocity=0 time=4
note_off channel=1 note=59 velocity=0 time=4
note_on channel=1 note=59 velocity=127 time=24
note_on channel=1 note=52 velocity=127 time=0
note_on channel=1 note=40 velocity=127 time=0
note_on channel=1 note=64 velocity=127 time=20
note_off channel=1 note=59 velocity=0 time=60
note_on channel=1 note=59 velocity=127 time=4
note_off channel=1 note=40 velocity=0 time=8
note_on channel=1 note=40 velocity=127 time=76
note_on channel=1 note=64 velocity=127 time=0
note_on channel=1 note=52 velocity=127 time=0
note_on channel=1 note=59 velocity=127 time=4
note_off channel=1 note=64 velocity=0 time=16
note_off channel=1 note=40 velocity=0 time=160
note_off channel=1 note=52 velocity=0 time=8
note_off channel=1 note=59 velocity=0 time=4
note_off channel=1 note=52 velocity=0 time=0
note_off channel=1 note=59 velocity=0 time=8
note_off channel=1 note=64 velocity=0 time=4
note_off channel=1 note=40 velocity=0 time=104
note_on channel=1 note=50 velocity=127 time=308
note_on channel=1 note=57 velocity=127 time=0
note_on channel=1 note=40 velocity=127 time=4
note_on channel=1 note=62 velocity=127 time=0
note_off channel=1 note=57 velocity=0 time=84
note_on channel=1 note=57 velocity=127 time=0
note_off channel=1 note=50 velocity=0 time=84
note_off channel=1 note=57 velocity=0 time=4
note_on channel=1 note=50 velocity=127 time=0
note_off channel=1 note=62 velocity=0 time=8
note_on channel=1 note=57 velocity=127 time=0
note_on channel=1 note=62 velocity=127 time=4
note_off channel=1 note=50 velocity=0 time=176
note_off channel=1 note=57 velocity=0 time=12
note_off channel=1 note=62 velocity=0 time=4
note_off channel=1 note=40 velocity=0 time=28
note_on channel=1 note=49 velocity=127 time=340
note_on channel=1 note=62 velocity=127 time=4
note_on channel=1 note=57 velocity=127 time=0
note_on channel=1 note=40 velocity=127 time=0
note_off channel=1 note=57 velocity=0 time=96
note_on channel=1 note=57 velocity=127 time=4
note_on channel=1 note=40 velocity=127 time=60
note_off channel=1 note=40 velocity=0 time=8
note_on channel=1 note=49 velocity=127 time=0
note_on channel=1 note=62 velocity=127 time=0
note_on channel=1 note=57 velocity=127 time=0
note_on channel=1 note=66 velocity=127 time=24
note_off channel=1 note=49 velocity=0 time=192
note_off channel=1 note=49 velocity=0 time=0
note_off channel=1 note=66 velocity=0 time=0
note_off channel=1 note=62 velocity=0 time=12
note_off channel=1 note=57 velocity=0 time=0
note_off channel=1 note=62 velocity=0 time=0
note_off channel=1 note=57 velocity=0 time=0
note_off channel=1 note=40 velocity=0 time=136
note_on channel=1 note=52 velocity=127 time=236
note_on channel=1 note=59 velocity=127 time=4
note_on channel=1 note=57 velocity=127 time=164
note_on channel=1 note=73 velocity=127 time=0
note_on channel=1 note=69 velocity=127 time=0
note_on channel=1 note=64 velocity=127 time=0
note_off channel=1 note=52 velocity=0 time=24
note_off channel=1 note=59 velocity=0 time=8
note_off channel=1 note=64 velocity=0 time=232
note_off channel=1 note=73 velocity=0 time=8
note_off channel=1 note=69 velocity=0 time=12
note_on channel=1 note=52 velocity=127 time=0
note_on channel=1 note=68 velocity=127 time=0
note_on channel=1 note=71 velocity=127 time=0
note_on channel=1 note=59 velocity=127 time=0
note_on channel=1 note=64 velocity=127 time=0
note_off channel=1 note=57 velocity=0 time=4
note_off channel=1 note=59 velocity=0 time=248
note_off channel=1 note=71 velocity=0 time=16
note_off channel=1 note=64 velocity=0 time=0
note_off channel=1 note=52 velocity=0 time=24
note_off channel=1 note=68 velocity=127 time=4
note_on channel=1 note=52 velocity=127 time=16
note_on channel=1 note=57 velocity=127 time=0
note_on channel=1 note=73 velocity=127 time=8
note_on channel=1 note=69 velocity=127 time=0
note_on channel=1 note=78 velocity=127 time=0
note_on channel=1 note=64 velocity=127 time=4
note_off channel=1 note=52 velocity=0 time=180
note_off channel=1 note=57 velocity=0 time=0
note_off channel=1 note=78 velocity=0 time=4
note_off channel=1 note=64 velocity=0 time=0
note_off channel=1 note=69 velocity=0 time=20
note_off channel=1 note=73 velocity=0 time=4
<meta message end_of_track time=0>
<meta message track_name name='bass' time=0>
control_change channel=2 control=0 value=0 time=0
program_change channel=2 program=36 time=0
control_change channel=2 control=91 value=29 time=0
control_change channel=2 control=93 value=51 time=0
<meta message key_signature key='E' time=0>
note_on channel=2 note=40 velocity=127 time=1536
note_off channel=2 note=40 velocity=0 time=384
note_on channel=2 note=45 velocity=127 time=192
note_off channel=2 note=45 velocity=0 time=96
note_on channel=2 note=38 velocity=127 time=0
note_off channel=2 note=38 velocity=127 time=96
note_on channel=2 note=45 velocity=127 time=0
note_off channel=2 note=45 velocity=127 time=384
note_on channel=2 note=45 velocity=127 time=192
note_on channel=2 note=45 velocity=127 time=0
note_off channel=2 note=45 velocity=0 time=96
note_off channel=2 note=45 velocity=0 time=0
note_on channel=2 note=40 velocity=127 time=0
note_off channel=2 note=40 velocity=127 time=96
note_on channel=2 note=40 velocity=127 time=0
note_off channel=2 note=40 velocity=127 time=384
note_on channel=2 note=55 velocity=127 time=480
note_off channel=2 note=55 velocity=0 time=64
note_on channel=2 note=52 velocity=127 time=32
note_on channel=2 note=50 velocity=127 time=96
note_off channel=2 note=52 velocity=0 time=32
note_off channel=2 note=50 velocity=0 time=32
note_on channel=2 note=47 velocity=127 time=32
note_on channel=2 note=47 velocity=127 time=96
note_off channel=2 note=47 velocity=0 time=32
note_on channel=2 note=57 velocity=127 time=64
note_on channel=2 note=45 velocity=127 time=0
note_off channel=2 note=47 velocity=0 time=20
note_off channel=2 note=57 velocity=0 time=44
note_off channel=2 note=45 velocity=0 time=0
note_on channel=2 note=55 velocity=127 time=32
note_on channel=2 note=43 velocity=127 time=0
note_off channel=2 note=55 velocity=0 time=64
note_off channel=2 note=43 velocity=0 time=0
note_on channel=2 note=40 velocity=127 time=32
note_off channel=2 note=40 velocity=0 time=384
note_on channel=2 note=45 velocity=127 time=192
note_off channel=2 note=45 velocity=0 time=96
note_on channel=2 note=38 velocity=127 time=0
note_off channel=2 note=38 velocity=127 time=96
note_on channel=2 note=45 velocity=127 time=0
note_off channel=2 note=45 velocity=127 time=384
note_on channel=2 note=45 velocity=127 time=192
note_on channel=2 note=45 velocity=127 time=0
note_off channel=2 note=45 velocity=0 time=96
note_off channel=2 note=45 velocity=0 time=0
note_on channel=2 note=40 velocity=127 time=0
note_off channel=2 note=40 velocity=127 time=96
note_on channel=2 note=40 velocity=127 time=0
note_off channel=2 note=40 velocity=127 time=384
note_on channel=2 note=47 velocity=127 time=0
note_on channel=2 note=35 velocity=127 time=0
note_off channel=2 note=47 velocity=0 time=64
note_off channel=2 note=35 velocity=0 time=0
note_on channel=2 note=44 velocity=127 time=32
note_on channel=2 note=32 velocity=127 time=0
note_off channel=2 note=44 velocity=0 time=128
note_off channel=2 note=32 velocity=0 time=0
note_on channel=2 note=47 velocity=127 time=64
note_on channel=2 note=35 velocity=127 time=0
note_off channel=2 note=47 velocity=0 time=64
note_off channel=2 note=35 velocity=0 time=0
note_on channel=2 note=45 velocity=127 time=32
note_on channel=2 note=33 velocity=127 time=0
note_off channel=2 note=45 velocity=0 time=128
note_off channel=2 note=33 velocity=0 time=0
note_on channel=2 note=47 velocity=127 time=64
note_on channel=2 note=35 velocity=127 time=0
note_off channel=2 note=47 velocity=0 time=64
note_off channel=2 note=35 velocity=0 time=0
note_on channel=2 note=46 velocity=127 time=32
note_on channel=2 note=34 velocity=127 time=0
note_off channel=2 note=46 velocity=0 time=128
note_off channel=2 note=34 velocity=0 time=0
note_on channel=2 note=47 velocity=127 time=64
note_on channel=2 note=35 velocity=127 time=0
note_off channel=2 note=47 velocity=0 time=64
note_off channel=2 note=35 velocity=0 time=0
note_on channel=2 note=46 velocity=127 time=32
note_on channel=2 note=34 velocity=127 time=0
note_off channel=2 note=46 velocity=0 time=64
note_off channel=2 note=34 velocity=0 time=0
note_on channel=2 note=47 velocity=127 time=32
note_on channel=2 note=35 velocity=127 time=0
note_off channel=2 note=47 velocity=127 time=64
note_off channel=2 note=35 velocity=127 time=0
note_on channel=2 note=40 velocity=127 time=32
note_off channel=2 note=40 velocity=0 time=384
note_on channel=2 note=45 velocity=127 time=192
note_off channel=2 note=45 velocity=0 time=96
note_on channel=2 note=38 velocity=127 time=0
note_off channel=2 note=38 velocity=127 time=96
note_on channel=2 note=45 velocity=127 time=0
note_off channel=2 note=45 velocity=127 time=384
note_on channel=2 note=45 velocity=127 time=192
note_on channel=2 note=45 velocity=127 time=0
note_off channel=2 note=45 velocity=0 time=96
note_off channel=2 note=45 velocity=0 time=0
note_on channel=2 note=40 velocity=127 time=0
note_off channel=2 note=40 velocity=127 time=96
note_on channel=2 note=40 velocity=127 time=0
note_off channel=2 note=40 velocity=127 time=384
note_on channel=2 note=55 velocity=127 time=480
note_off channel=2 note=55 velocity=0 time=64
note_on channel=2 note=52 velocity=127 time=32
note_on channel=2 note=50 velocity=127 time=96
note_off channel=2 note=52 velocity=0 time=32
note_off channel=2 note=50 velocity=0 time=32
note_on channel=2 note=47 velocity=127 time=32
note_on channel=2 note=47 velocity=127 time=96
note_off channel=2 note=47 velocity=0 time=32
note_on channel=2 note=57 velocity=127 time=64
note_on channel=2 note=45 velocity=127 time=0
note_off channel=2 note=47 velocity=0 time=20
note_off channel=2 note=57 velocity=0 time=44
note_off channel=2 note=45 velocity=0 time=0
note_on channel=2 note=55 velocity=127 time=32
note_on channel=2 note=43 velocity=127 time=0
note_off channel=2 note=55 velocity=0 time=64
note_off channel=2 note=43 velocity=0 time=0
note_on channel=2 note=40 velocity=127 time=32
note_off channel=2 note=40 velocity=0 time=384
note_on channel=2 note=45 velocity=127 time=192
note_off channel=2 note=45 velocity=0 time=96
note_on channel=2 note=38 velocity=127 time=0
note_off channel=2 note=38 velocity=127 time=96
note_on channel=2 note=45 velocity=127 time=0
note_off channel=2 note=45 velocity=127 time=384
note_on channel=2 note=45 velocity=127 time=192
note_on channel=2 note=45 velocity=127 time=0
note_off channel=2 note=45 velocity=0 time=96
note_off channel=2 note=45 velocity=0 time=0
note_on channel=2 note=40 velocity=127 time=0
note_off channel=2 note=40 velocity=127 time=96
note_on channel=2 note=40 velocity=127 time=0
note_off channel=2 note=40 velocity=127 time=384
note_on channel=2 note=47 velocity=127 time=0
note_on channel=2 note=35 velocity=127 time=0
note_off channel=2 note=47 velocity=0 time=64
note_off channel=2 note=35 velocity=0 time=0
note_on channel=2 note=44 velocity=127 time=32
note_on channel=2 note=32 velocity=127 time=0
note_off channel=2 note=44 velocity=0 time=128
note_off channel=2 note=32 velocity=0 time=0
note_on channel=2 note=47 velocity=127 time=64
note_on channel=2 note=35 velocity=127 time=0
note_off channel=2 note=47 velocity=0 time=64
note_off channel=2 note=35 velocity=0 time=0
note_on channel=2 note=45 velocity=127 time=32
note_on channel=2 note=33 velocity=127 time=0
note_off channel=2 note=45 velocity=0 time=128
note_off channel=2 note=33 velocity=0 time=0
note_on channel=2 note=47 velocity=127 time=64
note_on channel=2 note=35 velocity=127 time=0
note_off channel=2 note=47 velocity=0 time=64
note_off channel=2 note=35 velocity=0 time=0
note_on channel=2 note=46 velocity=127 time=32
note_on channel=2 note=34 velocity=127 time=0
note_off channel=2 note=46 velocity=0 time=128
note_off channel=2 note=34 velocity=0 time=0
note_on channel=2 note=47 velocity=127 time=64
note_on channel=2 note=35 velocity=127 time=0
note_off channel=2 note=47 velocity=0 time=64
note_off channel=2 note=35 velocity=0 time=0
note_on channel=2 note=46 velocity=127 time=32
note_on channel=2 note=34 velocity=127 time=0
note_off channel=2 note=46 velocity=0 time=64
note_off channel=2 note=34 velocity=0 time=0
note_on channel=2 note=47 velocity=127 time=32
note_on channel=2 note=35 velocity=127 time=0
note_off channel=2 note=47 velocity=127 time=64
note_off channel=2 note=35 velocity=127 time=0
note_on channel=2 note=40 velocity=127 time=32
note_off channel=2 note=40 velocity=0 time=384
note_on channel=2 note=45 velocity=127 time=192
note_off channel=2 note=45 velocity=0 time=96
note_on channel=2 note=38 velocity=127 time=0
note_off channel=2 note=38 velocity=127 time=96
note_on channel=2 note=45 velocity=127 time=0
note_off channel=2 note=45 velocity=127 time=384
note_on channel=2 note=45 velocity=127 time=192
note_on channel=2 note=45 velocity=127 time=0
note_off channel=2 note=45 velocity=0 time=96
note_off channel=2 note=45 velocity=0 time=0
note_on channel=2 note=40 velocity=127 time=0
note_off channel=2 note=40 velocity=127 time=96
note_on channel=2 note=40 velocity=127 time=0
note_off channel=2 note=40 velocity=127 time=384
note_on channel=2 note=55 velocity=127 time=480
note_off channel=2 note=55 velocity=0 time=64
note_on channel=2 note=52 velocity=127 time=32
note_on channel=2 note=50 velocity=127 time=96
note_off channel=2 note=52 velocity=0 time=32
note_off channel=2 note=50 velocity=0 time=32
note_on channel=2 note=47 velocity=127 time=32
note_on channel=2 note=47 velocity=127 time=96
note_off channel=2 note=47 velocity=0 time=32
note_on channel=2 note=57 velocity=127 time=64
note_on channel=2 note=45 velocity=127 time=0
note_off channel=2 note=47 velocity=0 time=20
note_off channel=2 note=57 velocity=0 time=44
note_off channel=2 note=45 velocity=0 time=0
note_on channel=2 note=55 velocity=127 time=32
note_on channel=2 note=43 velocity=127 time=0
note_off channel=2 note=55 velocity=0 time=64
note_off channel=2 note=43 velocity=0 time=0
note_on channel=2 note=40 velocity=127 time=32
note_off channel=2 note=40 velocity=0 time=384
note_on channel=2 note=45 velocity=127 time=192
note_off channel=2 note=45 velocity=0 time=96
note_on channel=2 note=38 velocity=127 time=0
note_off channel=2 note=38 velocity=127 time=96
note_on channel=2 note=45 velocity=127 time=0
note_off channel=2 note=45 velocity=127 time=384
note_on channel=2 note=45 velocity=127 time=192
note_on channel=2 note=45 velocity=127 time=0
note_off channel=2 note=45 velocity=0 time=96
note_off channel=2 note=45 velocity=0 time=0
note_on channel=2 note=40 velocity=127 time=0
note_off channel=2 note=40 velocity=127 time=96
note_on channel=2 note=40 velocity=127 time=0
note_off channel=2 note=40 velocity=127 time=384
note_on channel=2 note=47 velocity=127 time=0
note_on channel=2 note=35 velocity=127 time=0
note_off channel=2 note=47 velocity=0 time=64
note_off channel=2 note=35 velocity=0 time=0
note_on channel=2 note=44 velocity=127 time=32
note_on channel=2 note=32 velocity=127 time=0
note_off channel=2 note=44 velocity=0 time=128
note_off channel=2 note=32 velocity=0 time=0
note_on channel=2 note=47 velocity=127 time=64
note_on channel=2 note=35 velocity=127 time=0
note_off channel=2 note=47 velocity=0 time=64
note_off channel=2 note=35 velocity=0 time=0
note_on channel=2 note=45 velocity=127 time=32
note_on channel=2 note=33 velocity=127 time=0
note_off channel=2 note=45 velocity=0 time=128
note_off channel=2 note=33 velocity=0 time=0
note_on channel=2 note=47 velocity=127 time=64
note_on channel=2 note=35 velocity=127 time=0
note_off channel=2 note=47 velocity=0 time=64
note_off channel=2 note=35 velocity=0 time=0
note_on channel=2 note=46 velocity=127 time=32
note_on channel=2 note=34 velocity=127 time=0
note_off channel=2 note=46 velocity=0 time=128
note_off channel=2 note=34 velocity=0 time=0
note_on channel=2 note=47 velocity=127 time=64
note_on channel=2 note=35 velocity=127 time=0
note_off channel=2 note=47 velocity=0 time=64
note_off channel=2 note=35 velocity=0 time=0
note_on channel=2 note=46 velocity=127 time=32
note_on channel=2 note=34 velocity=127 time=0
note_off channel=2 note=46 velocity=0 time=64
note_off channel=2 note=34 velocity=0 time=0
note_on channel=2 note=47 velocity=127 time=32
note_on channel=2 note=35 velocity=127 time=0
note_off channel=2 note=47 velocity=127 time=64
note_off channel=2 note=35 velocity=127 time=0
note_on channel=2 note=45 velocity=127 time=264
note_on channel=2 note=33 velocity=127 time=0
note_off channel=2 note=45 velocity=0 time=280
note_off channel=2 note=33 velocity=0 time=0
note_on channel=2 note=40 velocity=127 time=20
note_on channel=2 note=28 velocity=127 time=0
note_on channel=2 note=47 velocity=127 time=176
note_on channel=2 note=35 velocity=127 time=0
note_off channel=2 note=40 velocity=0 time=48
note_off channel=2 note=28 velocity=0 time=0
note_off channel=2 note=47 velocity=0 time=228
note_off channel=2 note=35 velocity=0 time=0
note_on channel=2 note=45 velocity=127 time=96
note_on channel=2 note=33 velocity=127 time=0
note_off channel=2 note=45 velocity=0 time=220
note_off channel=2 note=33 velocity=0 time=0
note_on channel=2 note=47 velocity=127 time=0
note_on channel=2 note=35 velocity=127 time=0
note_off channel=2 note=47 velocity=0 time=112
note_off channel=2 note=35 velocity=0 time=0
note_on channel=2 note=45 velocity=127 time=356
note_on channel=2 note=33 velocity=127 time=0
note_off channel=2 note=45 velocity=0 time=280
note_off channel=2 note=33 velocity=0 time=0
note_on channel=2 note=40 velocity=127 time=20
note_on channel=2 note=28 velocity=127 time=0
note_on channel=2 note=47 velocity=127 time=176
note_on channel=2 note=35 velocity=127 time=0
note_off channel=2 note=40 velocity=0 time=48
note_off channel=2 note=28 velocity=0 time=0
note_off channel=2 note=47 velocity=0 time=228
note_off channel=2 note=35 velocity=0 time=0
note_on channel=2 note=45 velocity=127 time=96
note_on channel=2 note=33 velocity=127 time=0
note_off channel=2 note=45 velocity=0 time=220
note_off channel=2 note=33 velocity=0 time=0
note_on channel=2 note=47 velocity=127 time=0
note_on channel=2 note=35 velocity=127 time=0
note_off channel=2 note=47 velocity=0 time=112
note_off channel=2 note=35 velocity=0 time=0
note_on channel=2 note=43 velocity=127 time=336
note_off channel=2 note=43 velocity=0 time=188
note_on channel=2 note=38 velocity=127 time=84
note_on channel=2 note=33 velocity=127 time=244
note_off channel=2 note=38 velocity=0 time=12
note_off channel=2 note=33 velocity=0 time=308
note_on channel=2 note=31 velocity=127 time=0
note_off channel=2 note=31 velocity=0 time=208
note_on channel=2 note=33 velocity=127 time=4
note_off channel=2 note=33 velocity=0 time=380
note_on channel=2 note=43 velocity=127 time=108
note_off channel=2 note=43 velocity=0 time=188
note_on channel=2 note=38 velocity=127 time=84
note_on channel=2 note=33 velocity=127 time=244
note_off channel=2 note=38 velocity=0 time=12
note_off channel=2 note=33 velocity=0 time=308
note_on channel=2 note=31 velocity=127 time=0
note_off channel=2 note=31 velocity=0 time=208
note_on channel=2 note=33 velocity=127 time=4
note_on channel=2 note=33 velocity=127 time=276
note_off channel=2 note=33 velocity=0 time=104
note_off channel=2 note=33 velocity=0 time=0
note_on channel=2 note=45 velocity=127 time=128
note_on channel=2 note=33 velocity=127 time=0
note_off channel=2 note=45 velocity=0 time=280
note_off channel=2 note=33 velocity=0 time=0
note_on channel=2 note=40 velocity=127 time=20
note_on channel=2 note=28 velocity=127 time=0
note_on channel=2 note=47 velocity=127 time=176
note_on channel=2 note=35 velocity=127 time=0
note_off channel=2 note=40 velocity=0 time=48
note_off channel=2 note=28 velocity=0 time=0
note_off channel=2 note=47 velocity=0 time=228
note_off channel=2 note=35 velocity=0 time=0
note_on channel=2 note=45 velocity=127 time=96
note_on channel=2 note=33 velocity=127 time=0
note_off channel=2 note=45 velocity=0 time=220
note_off channel=2 note=33 velocity=0 time=0
note_on channel=2 note=47 velocity=127 time=0
note_on channel=2 note=35 velocity=127 time=0
note_off channel=2 note=47 velocity=0 time=112
note_off channel=2 note=35 velocity=0 time=0
note_on channel=2 note=45 velocity=127 time=356
note_on channel=2 note=33 velocity=127 time=0
note_off channel=2 note=45 velocity=0 time=280
note_off channel=2 note=33 velocity=0 time=0
note_on channel=2 note=40 velocity=127 time=20
note_on channel=2 note=28 velocity=127 time=0
note_on channel=2 note=47 velocity=127 time=176
note_on channel=2 note=35 velocity=127 time=0
note_off channel=2 note=40 velocity=0 time=48
note_off channel=2 note=28 velocity=0 time=0
note_off channel=2 note=47 velocity=0 time=228
note_off channel=2 note=35 velocity=0 time=0
note_on channel=2 note=45 velocity=127 time=96
note_on channel=2 note=33 velocity=127 time=0
note_off channel=2 note=45 velocity=0 time=220
note_off channel=2 note=33 velocity=0 time=0
note_on channel=2 note=47 velocity=127 time=0
note_on channel=2 note=35 velocity=127 time=0
note_off channel=2 note=47 velocity=0 time=112
note_off channel=2 note=35 velocity=0 time=0
note_on channel=2 note=38 velocity=127 time=124
note_on channel=2 note=43 velocity=127 time=0
note_off channel=2 note=38 velocity=0 time=192
note_off channel=2 note=43 velocity=0 time=0
note_on channel=2 note=38 velocity=127 time=96
note_on channel=2 note=43 velocity=127 time=0
note_off channel=2 note=38 velocity=0 time=192
note_off channel=2 note=43 velocity=0 time=0
note_on channel=2 note=38 velocity=127 time=96
note_on channel=2 note=43 velocity=127 time=0
note_off channel=2 note=38 velocity=0 time=192
note_off channel=2 note=43 velocity=0 time=0
note_on channel=2 note=38 velocity=108 time=96
note_on channel=2 note=43 velocity=127 time=0
note_off channel=2 note=38 velocity=0 time=64
note_off channel=2 note=43 velocity=0 time=0
note_on channel=2 note=37 velocity=84 time=32
note_off channel=2 note=37 velocity=0 time=64
note_on channel=2 note=38 velocity=108 time=32
note_on channel=2 note=43 velocity=127 time=0
note_off channel=2 note=38 velocity=0 time=64
note_off channel=2 note=43 velocity=0 time=0
note_on channel=2 note=38 velocity=127 time=32
note_on channel=2 note=43 velocity=127 time=0
note_off channel=2 note=38 velocity=0 time=128
note_off channel=2 note=43 velocity=0 time=0
note_on channel=2 note=38 velocity=127 time=64
note_on channel=2 note=43 velocity=127 time=0
note_off channel=2 note=38 velocity=0 time=128
note_off channel=2 note=43 velocity=0 time=0
note_on channel=2 note=38 velocity=127 time=64
note_on channel=2 note=45 velocity=127 time=0
note_off channel=2 note=38 velocity=0 time=192
note_off channel=2 note=45 velocity=0 time=0
note_on channel=2 note=38 velocity=127 time=96
note_on channel=2 note=45 velocity=127 time=0
note_off channel=2 note=38 velocity=0 time=192
note_off channel=2 note=45 velocity=0 time=0
note_on channel=2 note=38 velocity=127 time=96
note_on channel=2 note=45 velocity=127 time=0
note_off channel=2 note=38 velocity=0 time=512
note_off channel=2 note=45 velocity=0 time=0
note_on channel=2 note=40 velocity=127 time=448
note_off channel=2 note=40 velocity=0 time=384
note_on channel=2 note=45 velocity=127 time=192
note_off channel=2 note=45 velocity=0 time=96
note_on channel=2 note=38 velocity=127 time=0
note_off channel=2 note=38 velocity=127 time=96
note_on channel=2 note=45 velocity=127 time=0
note_off channel=2 note=45 velocity=127 time=384
note_on channel=2 note=45 velocity=127 time=192
note_on channel=2 note=45 velocity=127 time=0
note_off channel=2 note=45 velocity=0 time=96
note_off channel=2 note=45 velocity=0 time=0
note_on channel=2 note=40 velocity=127 time=0
note_off channel=2 note=40 velocity=127 time=96
note_on channel=2 note=40 velocity=127 time=0
note_off channel=2 note=40 velocity=127 time=384
note_on channel=2 note=55 velocity=127 time=480
note_off channel=2 note=55 velocity=0 time=64
note_on channel=2 note=52 velocity=127 time=32
note_on channel=2 note=50 velocity=127 time=96
note_off channel=2 note=52 velocity=0 time=32
note_off channel=2 note=50 velocity=0 time=32
note_on channel=2 note=47 velocity=127 time=32
note_on channel=2 note=47 velocity=127 time=96
note_off channel=2 note=47 velocity=0 time=32
note_on channel=2 note=57 velocity=127 time=64
note_on channel=2 note=45 velocity=127 time=0
note_off channel=2 note=47 velocity=0 time=20
note_off channel=2 note=57 velocity=0 time=44
note_off channel=2 note=45 velocity=0 time=0
note_on channel=2 note=55 velocity=127 time=32
note_on channel=2 note=43 velocity=127 time=0
note_off channel=2 note=55 velocity=0 time=64
note_off channel=2 note=43 velocity=0 time=0
note_on channel=2 note=40 velocity=127 time=32
note_off channel=2 note=40 velocity=0 time=384
note_on channel=2 note=45 velocity=127 time=192
note_off channel=2 note=45 velocity=0 time=96
note_on channel=2 note=38 velocity=127 time=0
note_off channel=2 note=38 velocity=127 time=96
note_on channel=2 note=45 velocity=127 time=0
note_off channel=2 note=45 velocity=127 time=384
note_on channel=2 note=45 velocity=127 time=192
note_on channel=2 note=45 velocity=127 time=0
note_off channel=2 note=45 velocity=0 time=96
note_off channel=2 note=45 velocity=0 time=0
note_on channel=2 note=40 velocity=127 time=0
note_off channel=2 note=40 velocity=127 time=96
note_on channel=2 note=40 velocity=127 time=0
note_off channel=2 note=40 velocity=127 time=384
note_on channel=2 note=47 velocity=127 time=0
note_on channel=2 note=35 velocity=127 time=0
note_off channel=2 note=47 velocity=0 time=64
note_off channel=2 note=35 velocity=0 time=0
note_on channel=2 note=44 velocity=127 time=32
note_on channel=2 note=32 velocity=127 time=0
note_off channel=2 note=44 velocity=0 time=128
note_off channel=2 note=32 velocity=0 time=0
note_on channel=2 note=47 velocity=127 time=64
note_on channel=2 note=35 velocity=127 time=0
note_off channel=2 note=47 velocity=0 time=64
note_off channel=2 note=35 velocity=0 time=0
note_on channel=2 note=45 velocity=127 time=32
note_on channel=2 note=33 velocity=127 time=0
note_off channel=2 note=45 velocity=0 time=128
note_off channel=2 note=33 velocity=0 time=0
note_on channel=2 note=47 velocity=127 time=64
note_on channel=2 note=35 velocity=127 time=0
note_off channel=2 note=47 velocity=0 time=64
note_off channel=2 note=35 velocity=0 time=0
note_on channel=2 note=46 velocity=127 time=32
note_on channel=2 note=34 velocity=127 time=0
note_off channel=2 note=46 velocity=0 time=128
note_off channel=2 note=34 velocity=0 time=0
note_on channel=2 note=47 velocity=127 time=64
note_on channel=2 note=35 velocity=127 time=0
note_off channel=2 note=47 velocity=0 time=64
note_off channel=2 note=35 velocity=0 time=0
note_on channel=2 note=46 velocity=127 time=32
note_on channel=2 note=34 velocity=127 time=0
note_off channel=2 note=46 velocity=0 time=64
note_off channel=2 note=34 velocity=0 time=0
note_on channel=2 note=47 velocity=127 time=32
note_on channel=2 note=35 velocity=127 time=0
note_off channel=2 note=47 velocity=127 time=64
note_off channel=2 note=35 velocity=127 time=0
note_on channel=2 note=40 velocity=127 time=32
note_off channel=2 note=40 velocity=0 time=384
note_on channel=2 note=45 velocity=127 time=192
note_off channel=2 note=45 velocity=0 time=96
note_on channel=2 note=38 velocity=127 time=0
note_off channel=2 note=38 velocity=127 time=96
note_on channel=2 note=45 velocity=127 time=0
note_off channel=2 note=45 velocity=127 time=384
note_on channel=2 note=45 velocity=127 time=192
note_on channel=2 note=45 velocity=127 time=0
note_off channel=2 note=45 velocity=0 time=96
note_off channel=2 note=45 velocity=0 time=0
note_on channel=2 note=40 velocity=127 time=0
note_off channel=2 note=40 velocity=127 time=96
note_on channel=2 note=40 velocity=127 time=0
note_off channel=2 note=40 velocity=127 time=384
note_on channel=2 note=55 velocity=127 time=480
note_off channel=2 note=55 velocity=0 time=64
note_on channel=2 note=52 velocity=127 time=32
note_on channel=2 note=50 velocity=127 time=96
note_off channel=2 note=52 velocity=0 time=32
note_off channel=2 note=50 velocity=0 time=32
note_on channel=2 note=47 velocity=127 time=32
note_on channel=2 note=47 velocity=127 time=96
note_off channel=2 note=47 velocity=0 time=32
note_on channel=2 note=57 velocity=127 time=64
note_on channel=2 note=45 velocity=127 time=0
note_off channel=2 note=47 velocity=0 time=20
note_off channel=2 note=57 velocity=0 time=44
note_off channel=2 note=45 velocity=0 time=0
note_on channel=2 note=55 velocity=127 time=32
note_on channel=2 note=43 velocity=127 time=0
note_off channel=2 note=55 velocity=0 time=64
note_off channel=2 note=43 velocity=0 time=0
note_on channel=2 note=40 velocity=127 time=32
note_off channel=2 note=40 velocity=0 time=384
note_on channel=2 note=45 velocity=127 time=192
note_off channel=2 note=45 velocity=0 time=96
note_on channel=2 note=38 velocity=127 time=0
note_off channel=2 note=38 velocity=127 time=96
note_on channel=2 note=45 velocity=127 time=0
note_off channel=2 note=45 velocity=127 time=384
note_on channel=2 note=45 velocity=127 time=192
note_on channel=2 note=45 velocity=127 time=0
note_off channel=2 note=45 velocity=0 time=96
note_off channel=2 note=45 velocity=0 time=0
note_on channel=2 note=40 velocity=127 time=0
note_off channel=2 note=40 velocity=127 time=96
note_on channel=2 note=40 velocity=127 time=0
note_off channel=2 note=40 velocity=127 time=384
note_on channel=2 note=47 velocity=127 time=0
note_on channel=2 note=35 velocity=127 time=0
note_off channel=2 note=47 velocity=0 time=64
note_off channel=2 note=35 velocity=0 time=0
note_on channel=2 note=44 velocity=127 time=32
note_on channel=2 note=32 velocity=127 time=0
note_off channel=2 note=44 velocity=0 time=128
note_off channel=2 note=32 velocity=0 time=0
note_on channel=2 note=47 velocity=127 time=64
note_on channel=2 note=35 velocity=127 time=0
note_off channel=2 note=47 velocity=0 time=64
note_off channel=2 note=35 velocity=0 time=0
note_on channel=2 note=45 velocity=127 time=32
note_on channel=2 note=33 velocity=127 time=0
note_off channel=2 note=45 velocity=0 time=128
note_off channel=2 note=33 velocity=0 time=0
note_on channel=2 note=47 velocity=127 time=64
note_on channel=2 note=35 velocity=127 time=0
note_off channel=2 note=47 velocity=0 time=64
note_off channel=2 note=35 velocity=0 time=0
note_on channel=2 note=46 velocity=127 time=32
note_on channel=2 note=34 velocity=127 time=0
note_off channel=2 note=46 velocity=0 time=128
note_off channel=2 note=34 velocity=0 time=0
note_on channel=2 note=47 velocity=127 time=64
note_on channel=2 note=35 velocity=127 time=0
note_off channel=2 note=47 velocity=0 time=64
note_off channel=2 note=35 velocity=0 time=0
note_on channel=2 note=46 velocity=127 time=32
note_on channel=2 note=34 velocity=127 time=0
note_off channel=2 note=46 velocity=0 time=64
note_off channel=2 note=34 velocity=0 time=0
note_on channel=2 note=47 velocity=127 time=32
note_on channel=2 note=35 velocity=127 time=0
note_off channel=2 note=47 velocity=127 time=64
note_off channel=2 note=35 velocity=127 time=0
note_on channel=2 note=45 velocity=127 time=264
note_on channel=2 note=33 velocity=127 time=0
note_off channel=2 note=45 velocity=0 time=280
note_off channel=2 note=33 velocity=0 time=0
note_on channel=2 note=40 velocity=127 time=20
note_on channel=2 note=28 velocity=127 time=0
note_on channel=2 note=47 velocity=127 time=176
note_on channel=2 note=35 velocity=127 time=0
note_off channel=2 note=40 velocity=0 time=48
note_off channel=2 note=28 velocity=0 time=0
note_off channel=2 note=47 velocity=0 time=228
note_off channel=2 note=35 velocity=0 time=0
note_on channel=2 note=45 velocity=127 time=96
note_on channel=2 note=33 velocity=127 time=0
note_off channel=2 note=45 velocity=0 time=220
note_off channel=2 note=33 velocity=0 time=0
note_on channel=2 note=47 velocity=127 time=0
note_on channel=2 note=35 velocity=127 time=0
note_off channel=2 note=47 velocity=0 time=112
note_off channel=2 note=35 velocity=0 time=0
note_on channel=2 note=45 velocity=127 time=356
note_on channel=2 note=33 velocity=127 time=0
note_off channel=2 note=45 velocity=0 time=280
note_off channel=2 note=33 velocity=0 time=0
note_on channel=2 note=40 velocity=127 time=20
note_on channel=2 note=28 velocity=127 time=0
note_on channel=2 note=47 velocity=127 time=176
note_on channel=2 note=35 velocity=127 time=0
note_off channel=2 note=40 velocity=0 time=48
note_off channel=2 note=28 velocity=0 time=0
note_off channel=2 note=47 velocity=0 time=228
note_off channel=2 note=35 velocity=0 time=0
note_on channel=2 note=45 velocity=127 time=96
note_on channel=2 note=33 velocity=127 time=0
note_off channel=2 note=45 velocity=0 time=220
note_off channel=2 note=33 velocity=0 time=0
note_on channel=2 note=47 velocity=127 time=0
note_on channel=2 note=35 velocity=127 time=0
note_off channel=2 note=47 velocity=0 time=112
note_off channel=2 note=35 velocity=0 time=0
note_on channel=2 note=43 velocity=127 time=336
note_off channel=2 note=43 velocity=0 time=188
note_on channel=2 note=38 velocity=127 time=84
note_on channel=2 note=33 velocity=127 time=244
note_off channel=2 note=38 velocity=0 time=12
note_off channel=2 note=33 velocity=0 time=308
note_on channel=2 note=31 velocity=127 time=0
note_off channel=2 note=31 velocity=0 time=208
note_on channel=2 note=33 velocity=127 time=4
note_off channel=2 note=33 velocity=0 time=380
note_on channel=2 note=43 velocity=127 time=108
note_off channel=2 note=43 velocity=0 time=188
note_on channel=2 note=38 velocity=127 time=84
note_on channel=2 note=33 velocity=127 time=244
note_off channel=2 note=38 velocity=0 time=12
note_off channel=2 note=33 velocity=0 time=308
note_on channel=2 note=31 velocity=127 time=0
note_off channel=2 note=31 velocity=0 time=208
note_on channel=2 note=33 velocity=127 time=4
note_on channel=2 note=33 velocity=127 time=276
note_off channel=2 note=33 velocity=0 time=104
note_off channel=2 note=33 velocity=0 time=0
note_on channel=2 note=45 velocity=127 time=128
note_on channel=2 note=33 velocity=127 time=0
note_off channel=2 note=45 velocity=0 time=280
note_off channel=2 note=33 velocity=0 time=0
note_on channel=2 note=40 velocity=127 time=20
note_on channel=2 note=28 velocity=127 time=0
note_on channel=2 note=47 velocity=127 time=176
note_on channel=2 note=35 velocity=127 time=0
note_off channel=2 note=40 velocity=0 time=48
note_off channel=2 note=28 velocity=0 time=0
note_off channel=2 note=47 velocity=0 time=228
note_off channel=2 note=35 velocity=0 time=0
note_on channel=2 note=45 velocity=127 time=96
note_on channel=2 note=33 velocity=127 time=0
note_off channel=2 note=45 velocity=0 time=220
note_off channel=2 note=33 velocity=0 time=0
note_on channel=2 note=47 velocity=127 time=0
note_on channel=2 note=35 velocity=127 time=0
note_off channel=2 note=47 velocity=0 time=112
note_off channel=2 note=35 velocity=0 time=0
note_on channel=2 note=45 velocity=127 time=356
note_on channel=2 note=33 velocity=127 time=0
note_off channel=2 note=45 velocity=0 time=280
note_off channel=2 note=33 velocity=0 time=0
note_on channel=2 note=40 velocity=127 time=20
note_on channel=2 note=28 velocity=127 time=0
note_on channel=2 note=47 velocity=127 time=176
note_on channel=2 note=35 velocity=127 time=0
note_off channel=2 note=40 velocity=0 time=48
note_off channel=2 note=28 velocity=0 time=0
note_off channel=2 note=47 velocity=0 time=228
note_off channel=2 note=35 velocity=0 time=0
note_on channel=2 note=45 velocity=127 time=96
note_on channel=2 note=33 velocity=127 time=0
note_off channel=2 note=45 velocity=0 time=220
note_off channel=2 note=33 velocity=0 time=0
note_on channel=2 note=47 velocity=127 time=0
note_on channel=2 note=35 velocity=127 time=0
note_off channel=2 note=47 velocity=0 time=112
note_off channel=2 note=35 velocity=0 time=0
note_on channel=2 note=38 velocity=127 time=124
note_on channel=2 note=43 velocity=127 time=0
note_off channel=2 note=38 velocity=0 time=192
note_off channel=2 note=43 velocity=0 time=0
note_on channel=2 note=38 velocity=127 time=96
note_on channel=2 note=43 velocity=127 time=0
note_off channel=2 note=38 velocity=0 time=192
note_off channel=2 note=43 velocity=0 time=0
note_on channel=2 note=38 velocity=127 time=96
note_on channel=2 note=43 velocity=127 time=0
note_off channel=2 note=38 velocity=0 time=192
note_off channel=2 note=43 velocity=0 time=0
note_on channel=2 note=38 velocity=108 time=96
note_on channel=2 note=43 velocity=127 time=0
note_off channel=2 note=38 velocity=0 time=64
note_off channel=2 note=43 velocity=0 time=0
note_on channel=2 note=37 velocity=84 time=32
note_off channel=2 note=37 velocity=0 time=64
note_on channel=2 note=38 velocity=108 time=32
note_on channel=2 note=43 velocity=127 time=0
note_off channel=2 note=38 velocity=0 time=64
note_off channel=2 note=43 velocity=0 time=0
note_on channel=2 note=38 velocity=127 time=32
note_on channel=2 note=43 velocity=127 time=0
note_off channel=2 note=38 velocity=0 time=128
note_off channel=2 note=43 velocity=0 time=0
note_on channel=2 note=38 velocity=127 time=64
note_on channel=2 note=43 velocity=127 time=0
note_off channel=2 note=38 velocity=0 time=128
note_off channel=2 note=43 velocity=0 time=0
note_on channel=2 note=38 velocity=127 time=64
note_on channel=2 note=45 velocity=127 time=0
note_off channel=2 note=38 velocity=0 time=192
note_off channel=2 note=45 velocity=0 time=0
note_on channel=2 note=38 velocity=127 time=96
note_on channel=2 note=45 velocity=127 time=0
note_off channel=2 note=38 velocity=0 time=192
note_off channel=2 note=45 velocity=0 time=0
note_on channel=2 note=38 velocity=127 time=96
note_on channel=2 note=45 velocity=127 time=0
note_off channel=2 note=38 velocity=0 time=512
note_off channel=2 note=45 velocity=0 time=0
note_on channel=2 note=28 velocity=127 time=448
note_on channel=2 note=28 velocity=127 time=0
note_on channel=2 note=28 velocity=127 time=0
note_on channel=2 note=40 velocity=127 time=0
note_on channel=2 note=40 velocity=127 time=0
note_on channel=2 note=40 velocity=127 time=0
note_off channel=2 note=28 velocity=127 time=128
note_off channel=2 note=28 velocity=127 time=0
note_off channel=2 note=28 velocity=127 time=0
note_off channel=2 note=40 velocity=127 time=0
note_off channel=2 note=40 velocity=127 time=0
note_off channel=2 note=40 velocity=127 time=0
note_on channel=2 note=40 velocity=127 time=64
note_on channel=2 note=40 velocity=127 time=0
note_on channel=2 note=40 velocity=127 time=0
note_on channel=2 note=52 velocity=127 time=0
note_on channel=2 note=52 velocity=127 time=0
note_on channel=2 note=52 velocity=127 time=0
note_off channel=2 note=40 velocity=127 time=384
note_off channel=2 note=40 velocity=127 time=0
note_off channel=2 note=40 velocity=127 time=0
note_off channel=2 note=52 velocity=127 time=0
note_off channel=2 note=52 velocity=127 time=0
note_off channel=2 note=52 velocity=127 time=0
note_on channel=2 note=38 velocity=127 time=192
note_on channel=2 note=38 velocity=127 time=0
note_on channel=2 note=38 velocity=127 time=0
note_on channel=2 note=50 velocity=127 time=0
note_on channel=2 note=50 velocity=127 time=0
note_on channel=2 note=50 velocity=127 time=0
note_off channel=2 note=38 velocity=127 time=128
note_off channel=2 note=38 velocity=127 time=0
note_off channel=2 note=38 velocity=127 time=0
note_off channel=2 note=50 velocity=127 time=0
note_off channel=2 note=50 velocity=127 time=0
note_off channel=2 note=50 velocity=127 time=0
note_on channel=2 note=38 velocity=127 time=64
note_on channel=2 note=38 velocity=127 time=0
note_on channel=2 note=38 velocity=127 time=0
note_on channel=2 note=50 velocity=127 time=0
note_on channel=2 note=50 velocity=127 time=0
note_on channel=2 note=50 velocity=127 time=0
note_off channel=2 note=38 velocity=127 time=384
note_off channel=2 note=38 velocity=127 time=0
note_off channel=2 note=38 velocity=127 time=0
note_off channel=2 note=50 velocity=127 time=0
note_off channel=2 note=50 velocity=127 time=0
note_off channel=2 note=50 velocity=127 time=0
note_on channel=2 note=37 velocity=127 time=192
note_on channel=2 note=37 velocity=127 time=0
note_on channel=2 note=37 velocity=127 time=0
note_on channel=2 note=49 velocity=127 time=0
note_on channel=2 note=49 velocity=127 time=0
note_on channel=2 note=49 velocity=127 time=0
note_off channel=2 note=37 velocity=127 time=128
note_off channel=2 note=37 velocity=127 time=0
note_off channel=2 note=37 velocity=127 time=0
note_off channel=2 note=49 velocity=127 time=0
note_off channel=2 note=49 velocity=127 time=0
note_off channel=2 note=49 velocity=127 time=0
note_on channel=2 note=37 velocity=127 time=64
note_on channel=2 note=37 velocity=127 time=0
note_on channel=2 note=37 velocity=127 time=0
note_on channel=2 note=49 velocity=127 time=0
note_on channel=2 note=49 velocity=127 time=0
note_on channel=2 note=49 velocity=127 time=0
note_off channel=2 note=37 velocity=127 time=384
note_off channel=2 note=37 velocity=127 time=0
note_off channel=2 note=37 velocity=127 time=0
note_off channel=2 note=49 velocity=127 time=0
note_off channel=2 note=49 velocity=127 time=0
note_off channel=2 note=49 velocity=127 time=0
note_on channel=2 note=35 velocity=127 time=192
note_on channel=2 note=35 velocity=127 time=0
note_on channel=2 note=35 velocity=127 time=0
note_on channel=2 note=47 velocity=127 time=0
note_on channel=2 note=47 velocity=127 time=0
note_on channel=2 note=47 velocity=127 time=0
note_off channel=2 note=35 velocity=127 time=128
note_off channel=2 note=35 velocity=127 time=0
note_off channel=2 note=35 velocity=127 time=0
note_off channel=2 note=47 velocity=127 time=0
note_off channel=2 note=47 velocity=127 time=0
note_off channel=2 note=47 velocity=127 time=0
note_on channel=2 note=43 velocity=127 time=64
note_on channel=2 note=43 velocity=127 time=0
note_on channel=2 note=43 velocity=127 time=0
note_on channel=2 note=55 velocity=127 time=0
note_on channel=2 note=55 velocity=127 time=0
note_on channel=2 note=55 velocity=127 time=0
note_off channel=2 note=43 velocity=127 time=64
note_off channel=2 note=43 velocity=127 time=0
note_off channel=2 note=43 velocity=127 time=0
note_off channel=2 note=55 velocity=127 time=0
note_off channel=2 note=55 velocity=127 time=0
note_off channel=2 note=55 velocity=127 time=0
note_on channel=2 note=45 velocity=127 time=32
note_on channel=2 note=45 velocity=127 time=0
note_on channel=2 note=45 velocity=127 time=0
note_on channel=2 note=57 velocity=127 time=0
note_on channel=2 note=57 velocity=127 time=0
note_on channel=2 note=57 velocity=127 time=0
note_off channel=2 note=45 velocity=127 time=64
note_off channel=2 note=45 velocity=127 time=0
note_off channel=2 note=45 velocity=127 time=0
note_off channel=2 note=57 velocity=127 time=0
note_off channel=2 note=57 velocity=127 time=0
note_off channel=2 note=57 velocity=127 time=0
note_on channel=2 note=46 velocity=127 time=32
note_on channel=2 note=46 velocity=127 time=0
note_on channel=2 note=46 velocity=127 time=0
note_on channel=2 note=58 velocity=127 time=0
note_on channel=2 note=58 velocity=127 time=0
note_on channel=2 note=58 velocity=127 time=0
note_off channel=2 note=46 velocity=127 time=40
note_off channel=2 note=46 velocity=127 time=0
note_off channel=2 note=46 velocity=127 time=0
note_off channel=2 note=58 velocity=127 time=0
note_off channel=2 note=58 velocity=127 time=0
note_off channel=2 note=58 velocity=127 time=0
note_on channel=2 note=45 velocity=127 time=24
note_on channel=2 note=45 velocity=127 time=0
note_on channel=2 note=45 velocity=127 time=0
note_on channel=2 note=57 velocity=127 time=0
note_on channel=2 note=57 velocity=127 time=0
note_on channel=2 note=57 velocity=127 time=0
note_off channel=2 note=45 velocity=127 time=40
note_off channel=2 note=45 velocity=127 time=0
note_off channel=2 note=45 velocity=127 time=0
note_off channel=2 note=57 velocity=127 time=0
note_off channel=2 note=57 velocity=127 time=0
note_off channel=2 note=57 velocity=127 time=0
note_on channel=2 note=43 velocity=127 time=24
note_on channel=2 note=43 velocity=127 time=0
note_on channel=2 note=43 velocity=127 time=0
note_on channel=2 note=55 velocity=127 time=0
note_on channel=2 note=55 velocity=127 time=0
note_on channel=2 note=55 velocity=127 time=0
note_off channel=2 note=43 velocity=127 time=40
note_off channel=2 note=43 velocity=127 time=0
note_off channel=2 note=43 velocity=127 time=0
note_off channel=2 note=55 velocity=127 time=0
note_off channel=2 note=55 velocity=127 time=0
note_off channel=2 note=55 velocity=127 time=0
note_on channel=2 note=45 velocity=127 time=24
note_on channel=2 note=45 velocity=127 time=0
note_on channel=2 note=45 velocity=127 time=0
note_on channel=2 note=57 velocity=127 time=0
note_on channel=2 note=57 velocity=127 time=0
note_on channel=2 note=57 velocity=127 time=0
note_off channel=2 note=45 velocity=127 time=64
note_off channel=2 note=45 velocity=127 time=0
note_off channel=2 note=45 velocity=127 time=0
note_off channel=2 note=57 velocity=127 time=0
note_off channel=2 note=57 velocity=127 time=0
note_off channel=2 note=57 velocity=127 time=0
note_on channel=2 note=40 velocity=127 time=32
note_on channel=2 note=40 velocity=127 time=0
note_on channel=2 note=40 velocity=127 time=0
note_on channel=2 note=52 velocity=127 time=0
note_on channel=2 note=52 velocity=127 time=0
note_on channel=2 note=52 velocity=127 time=0
note_off channel=2 note=40 velocity=127 time=64
note_off channel=2 note=40 velocity=127 time=0
note_off channel=2 note=40 velocity=127 time=0
note_off channel=2 note=52 velocity=127 time=0
note_off channel=2 note=52 velocity=127 time=0
note_off channel=2 note=52 velocity=127 time=0
note_on channel=2 note=28 velocity=127 time=32
note_on channel=2 note=28 velocity=127 time=0
note_on channel=2 note=28 velocity=127 time=0
note_on channel=2 note=40 velocity=127 time=0
note_on channel=2 note=40 velocity=127 time=0
note_on channel=2 note=40 velocity=127 time=0
note_off channel=2 note=28 velocity=127 time=128
note_off channel=2 note=28 velocity=127 time=0
note_off channel=2 note=28 velocity=127 time=0
note_off channel=2 note=40 velocity=127 time=0
note_off channel=2 note=40 velocity=127 time=0
note_off channel=2 note=40 velocity=127 time=0
note_on channel=2 note=40 velocity=127 time=64
note_on channel=2 note=40 velocity=127 time=0
note_on channel=2 note=40 velocity=127 time=0
note_on channel=2 note=52 velocity=127 time=0
note_on channel=2 note=52 velocity=127 time=0
note_on channel=2 note=52 velocity=127 time=0
note_off channel=2 note=40 velocity=127 time=384
note_off channel=2 note=40 velocity=127 time=0
note_off channel=2 note=40 velocity=127 time=0
note_off channel=2 note=52 velocity=127 time=0
note_off channel=2 note=52 velocity=127 time=0
note_off channel=2 note=52 velocity=127 time=0
note_on channel=2 note=38 velocity=127 time=192
note_on channel=2 note=38 velocity=127 time=0
note_on channel=2 note=38 velocity=127 time=0
note_on channel=2 note=50 velocity=127 time=0
note_on channel=2 note=50 velocity=127 time=0
note_on channel=2 note=50 velocity=127 time=0
note_off channel=2 note=38 velocity=127 time=128
note_off channel=2 note=38 velocity=127 time=0
note_off channel=2 note=38 velocity=127 time=0
note_off channel=2 note=50 velocity=127 time=0
note_off channel=2 note=50 velocity=127 time=0
note_off channel=2 note=50 velocity=127 time=0
note_on channel=2 note=38 velocity=127 time=64
note_on channel=2 note=38 velocity=127 time=0
note_on channel=2 note=38 velocity=127 time=0
note_on channel=2 note=50 velocity=127 time=0
note_on channel=2 note=50 velocity=127 time=0
note_on channel=2 note=50 velocity=127 time=0
note_off channel=2 note=38 velocity=127 time=384
note_off channel=2 note=38 velocity=127 time=0
note_off channel=2 note=38 velocity=127 time=0
note_off channel=2 note=50 velocity=127 time=0
note_off channel=2 note=50 velocity=127 time=0
note_off channel=2 note=50 velocity=127 time=0
note_on channel=2 note=37 velocity=127 time=192
note_on channel=2 note=37 velocity=127 time=0
note_on channel=2 note=37 velocity=127 time=0
note_on channel=2 note=49 velocity=127 time=0
note_on channel=2 note=49 velocity=127 time=0
note_on channel=2 note=49 velocity=127 time=0
note_off channel=2 note=37 velocity=127 time=128
note_off channel=2 note=37 velocity=127 time=0
note_off channel=2 note=37 velocity=127 time=0
note_off channel=2 note=49 velocity=127 time=0
note_off channel=2 note=49 velocity=127 time=0
note_off channel=2 note=49 velocity=127 time=0
note_on channel=2 note=37 velocity=127 time=64
note_on channel=2 note=37 velocity=127 time=0
note_on channel=2 note=37 velocity=127 time=0
note_on channel=2 note=49 velocity=127 time=0
note_on channel=2 note=49 velocity=127 time=0
note_on channel=2 note=49 velocity=127 time=0
note_off channel=2 note=37 velocity=127 time=384
note_off channel=2 note=37 velocity=127 time=0
note_off channel=2 note=37 velocity=127 time=0
note_off channel=2 note=49 velocity=127 time=0
note_off channel=2 note=49 velocity=127 time=0
note_off channel=2 note=49 velocity=127 time=0
note_on channel=2 note=38 velocity=127 time=192
note_on channel=2 note=38 velocity=127 time=0
note_on channel=2 note=38 velocity=127 time=0
note_off channel=2 note=38 velocity=127 time=128
note_off channel=2 note=38 velocity=127 time=0
note_off channel=2 note=38 velocity=127 time=0
note_on channel=2 note=50 velocity=127 time=64
note_off channel=2 note=50 velocity=127 time=128
note_on channel=2 note=38 velocity=127 time=64
note_on channel=2 note=38 velocity=127 time=0
note_on channel=2 note=38 velocity=127 time=0
note_off channel=2 note=38 velocity=127 time=128
note_off channel=2 note=38 velocity=127 time=0
note_off channel=2 note=38 velocity=127 time=0
note_on channel=2 note=50 velocity=127 time=64
note_off channel=2 note=50 velocity=127 time=128
note_on channel=2 note=28 velocity=127 time=64
note_on channel=2 note=28 velocity=127 time=0
note_on channel=2 note=28 velocity=127 time=0
note_on channel=2 note=40 velocity=127 time=0
note_on channel=2 note=40 velocity=127 time=0
note_on channel=2 note=40 velocity=127 time=0
note_off channel=2 note=28 velocity=127 time=128
note_off channel=2 note=28 velocity=127 time=0
note_off channel=2 note=28 velocity=127 time=0
note_off channel=2 note=40 velocity=127 time=0
note_off channel=2 note=40 velocity=127 time=0
note_off channel=2 note=40 velocity=127 time=0
note_on channel=2 note=40 velocity=127 time=64
note_on channel=2 note=40 velocity=127 time=0
note_on channel=2 note=40 velocity=127 time=0
note_on channel=2 note=52 velocity=127 time=0
note_on channel=2 note=52 velocity=127 time=0
note_on channel=2 note=52 velocity=127 time=0
note_off channel=2 note=40 velocity=127 time=384
note_off channel=2 note=40 velocity=127 time=0
note_off channel=2 note=40 velocity=127 time=0
note_off channel=2 note=52 velocity=127 time=0
note_off channel=2 note=52 velocity=127 time=0
note_off channel=2 note=52 velocity=127 time=0
note_on channel=2 note=38 velocity=127 time=192
note_on channel=2 note=38 velocity=127 time=0
note_on channel=2 note=38 velocity=127 time=0
note_on channel=2 note=50 velocity=127 time=0
note_on channel=2 note=50 velocity=127 time=0
note_on channel=2 note=50 velocity=127 time=0
note_off channel=2 note=38 velocity=127 time=128
note_off channel=2 note=38 velocity=127 time=0
note_off channel=2 note=38 velocity=127 time=0
note_off channel=2 note=50 velocity=127 time=0
note_off channel=2 note=50 velocity=127 time=0
note_off channel=2 note=50 velocity=127 time=0
note_on channel=2 note=38 velocity=127 time=64
note_on channel=2 note=38 velocity=127 time=0
note_on channel=2 note=38 velocity=127 time=0
note_on channel=2 note=50 velocity=127 time=0
note_on channel=2 note=50 velocity=127 time=0
note_on channel=2 note=50 velocity=127 time=0
note_off channel=2 note=38 velocity=127 time=384
note_off channel=2 note=38 velocity=127 time=0
note_off channel=2 note=38 velocity=127 time=0
note_off channel=2 note=50 velocity=127 time=0
note_off channel=2 note=50 velocity=127 time=0
note_off channel=2 note=50 velocity=127 time=0
note_on channel=2 note=37 velocity=127 time=192
note_on channel=2 note=37 velocity=127 time=0
note_on channel=2 note=37 velocity=127 time=0
note_on channel=2 note=49 velocity=127 time=0
note_on channel=2 note=49 velocity=127 time=0
note_on channel=2 note=49 velocity=127 time=0
note_off channel=2 note=37 velocity=127 time=128
note_off channel=2 note=37 velocity=127 time=0
note_off channel=2 note=37 velocity=127 time=0
note_off channel=2 note=49 velocity=127 time=0
note_off channel=2 note=49 velocity=127 time=0
note_off channel=2 note=49 velocity=127 time=0
note_on channel=2 note=37 velocity=127 time=64
note_on channel=2 note=37 velocity=127 time=0
note_on channel=2 note=37 velocity=127 time=0
note_on channel=2 note=49 velocity=127 time=0
note_on channel=2 note=49 velocity=127 time=0
note_on channel=2 note=49 velocity=127 time=0
note_off channel=2 note=37 velocity=127 time=384
note_off channel=2 note=37 velocity=127 time=0
note_off channel=2 note=37 velocity=127 time=0
note_off channel=2 note=49 velocity=127 time=0
note_off channel=2 note=49 velocity=127 time=0
note_off channel=2 note=49 velocity=127 time=0
note_on channel=2 note=35 velocity=127 time=192
note_on channel=2 note=35 velocity=127 time=0
note_on channel=2 note=35 velocity=127 time=0
note_on channel=2 note=47 velocity=127 time=0
note_on channel=2 note=47 velocity=127 time=0
note_on channel=2 note=47 velocity=127 time=0
note_off channel=2 note=35 velocity=127 time=128
note_off channel=2 note=35 velocity=127 time=0
note_off channel=2 note=35 velocity=127 time=0
note_off channel=2 note=47 velocity=127 time=0
note_off channel=2 note=47 velocity=127 time=0
note_off channel=2 note=47 velocity=127 time=0
note_on channel=2 note=43 velocity=127 time=64
note_on channel=2 note=43 velocity=127 time=0
note_on channel=2 note=43 velocity=127 time=0
note_on channel=2 note=55 velocity=127 time=0
note_on channel=2 note=55 velocity=127 time=0
note_on channel=2 note=55 velocity=127 time=0
note_off channel=2 note=43 velocity=127 time=64
note_off channel=2 note=43 velocity=127 time=0
note_off channel=2 note=43 velocity=127 time=0
note_off channel=2 note=55 velocity=127 time=0
note_off channel=2 note=55 velocity=127 time=0
note_off channel=2 note=55 velocity=127 time=0
note_on channel=2 note=45 velocity=127 time=32
note_on channel=2 note=45 velocity=127 time=0
note_on channel=2 note=45 velocity=127 time=0
note_on channel=2 note=57 velocity=127 time=0
note_on channel=2 note=57 velocity=127 time=0
note_on channel=2 note=57 velocity=127 time=0
note_off channel=2 note=45 velocity=127 time=64
note_off channel=2 note=45 velocity=127 time=0
note_off channel=2 note=45 velocity=127 time=0
note_off channel=2 note=57 velocity=127 time=0
note_off channel=2 note=57 velocity=127 time=0
note_off channel=2 note=57 velocity=127 time=0
note_on channel=2 note=46 velocity=127 time=32
note_on channel=2 note=46 velocity=127 time=0
note_on channel=2 note=46 velocity=127 time=0
note_on channel=2 note=58 velocity=127 time=0
note_on channel=2 note=58 velocity=127 time=0
note_on channel=2 note=58 velocity=127 time=0
note_off channel=2 note=46 velocity=127 time=40
note_off channel=2 note=46 velocity=127 time=0
note_off channel=2 note=46 velocity=127 time=0
note_off channel=2 note=58 velocity=127 time=0
note_off channel=2 note=58 velocity=127 time=0
note_off channel=2 note=58 velocity=127 time=0
note_on channel=2 note=45 velocity=127 time=24
note_on channel=2 note=45 velocity=127 time=0
note_on channel=2 note=45 velocity=127 time=0
note_on channel=2 note=57 velocity=127 time=0
note_on channel=2 note=57 velocity=127 time=0
note_on channel=2 note=57 velocity=127 time=0
note_off channel=2 note=45 velocity=127 time=40
note_off channel=2 note=45 velocity=127 time=0
note_off channel=2 note=45 velocity=127 time=0
note_off channel=2 note=57 velocity=127 time=0
note_off channel=2 note=57 velocity=127 time=0
note_off channel=2 note=57 velocity=127 time=0
note_on channel=2 note=43 velocity=127 time=24
note_on channel=2 note=43 velocity=127 time=0
note_on channel=2 note=43 velocity=127 time=0
note_on channel=2 note=55 velocity=127 time=0
note_on channel=2 note=55 velocity=127 time=0
note_on channel=2 note=55 velocity=127 time=0
note_off channel=2 note=43 velocity=127 time=40
note_off channel=2 note=43 velocity=127 time=0
note_off channel=2 note=43 velocity=127 time=0
note_off channel=2 note=55 velocity=127 time=0
note_off channel=2 note=55 velocity=127 time=0
note_off channel=2 note=55 velocity=127 time=0
note_on channel=2 note=45 velocity=127 time=24
note_on channel=2 note=45 velocity=127 time=0
note_on channel=2 note=45 velocity=127 time=0
note_on channel=2 note=57 velocity=127 time=0
note_on channel=2 note=57 velocity=127 time=0
note_on channel=2 note=57 velocity=127 time=0
note_off channel=2 note=45 velocity=127 time=64
note_off channel=2 note=45 velocity=127 time=0
note_off channel=2 note=45 velocity=127 time=0
note_off channel=2 note=57 velocity=127 time=0
note_off channel=2 note=57 velocity=127 time=0
note_off channel=2 note=57 velocity=127 time=0
note_on channel=2 note=40 velocity=127 time=32
note_on channel=2 note=40 velocity=127 time=0
note_on channel=2 note=40 velocity=127 time=0
note_on channel=2 note=52 velocity=127 time=0
note_on channel=2 note=52 velocity=127 time=0
note_on channel=2 note=52 velocity=127 time=0
note_off channel=2 note=40 velocity=127 time=64
note_off channel=2 note=40 velocity=127 time=0
note_off channel=2 note=40 velocity=127 time=0
note_off channel=2 note=52 velocity=127 time=0
note_off channel=2 note=52 velocity=127 time=0
note_off channel=2 note=52 velocity=127 time=0
note_on channel=2 note=28 velocity=127 time=32
note_on channel=2 note=28 velocity=127 time=0
note_on channel=2 note=28 velocity=127 time=0
note_on channel=2 note=40 velocity=127 time=0
note_on channel=2 note=40 velocity=127 time=0
note_on channel=2 note=40 velocity=127 time=0
note_off channel=2 note=28 velocity=127 time=128
note_off channel=2 note=28 velocity=127 time=0
note_off channel=2 note=28 velocity=127 time=0
note_off channel=2 note=40 velocity=127 time=0
note_off channel=2 note=40 velocity=127 time=0
note_off channel=2 note=40 velocity=127 time=0
note_on channel=2 note=40 velocity=127 time=64
note_on channel=2 note=40 velocity=127 time=0
note_on channel=2 note=40 velocity=127 time=0
note_on channel=2 note=52 velocity=127 time=0
note_on channel=2 note=52 velocity=127 time=0
note_on channel=2 note=52 velocity=127 time=0
note_off channel=2 note=40 velocity=127 time=384
note_off channel=2 note=40 velocity=127 time=0
note_off channel=2 note=40 velocity=127 time=0
note_off channel=2 note=52 velocity=127 time=0
note_off channel=2 note=52 velocity=127 time=0
note_off channel=2 note=52 velocity=127 time=0
note_on channel=2 note=38 velocity=127 time=192
note_on channel=2 note=38 velocity=127 time=0
note_on channel=2 note=38 velocity=127 time=0
note_on channel=2 note=50 velocity=127 time=0
note_on channel=2 note=50 velocity=127 time=0
note_on channel=2 note=50 velocity=127 time=0
note_off channel=2 note=38 velocity=127 time=128
note_off channel=2 note=38 velocity=127 time=0
note_off channel=2 note=38 velocity=127 time=0
note_off channel=2 note=50 velocity=127 time=0
note_off channel=2 note=50 velocity=127 time=0
note_off channel=2 note=50 velocity=127 time=0
note_on channel=2 note=38 velocity=127 time=64
note_on channel=2 note=38 velocity=127 time=0
note_on channel=2 note=38 velocity=127 time=0
note_on channel=2 note=50 velocity=127 time=0
note_on channel=2 note=50 velocity=127 time=0
note_on channel=2 note=50 velocity=127 time=0
note_off channel=2 note=38 velocity=127 time=384
note_off channel=2 note=38 velocity=127 time=0
note_off channel=2 note=38 velocity=127 time=0
note_off channel=2 note=50 velocity=127 time=0
note_off channel=2 note=50 velocity=127 time=0
note_off channel=2 note=50 velocity=127 time=0
note_on channel=2 note=37 velocity=127 time=192
note_on channel=2 note=37 velocity=127 time=0
note_on channel=2 note=37 velocity=127 time=0
note_on channel=2 note=49 velocity=127 time=0
note_on channel=2 note=49 velocity=127 time=0
note_on channel=2 note=49 velocity=127 time=0
note_off channel=2 note=37 velocity=127 time=128
note_off channel=2 note=37 velocity=127 time=0
note_off channel=2 note=37 velocity=127 time=0
note_off channel=2 note=49 velocity=127 time=0
note_off channel=2 note=49 velocity=127 time=0
note_off channel=2 note=49 velocity=127 time=0
note_on channel=2 note=37 velocity=127 time=64
note_on channel=2 note=37 velocity=127 time=0
note_on channel=2 note=37 velocity=127 time=0
note_on channel=2 note=49 velocity=127 time=0
note_on channel=2 note=49 velocity=127 time=0
note_on channel=2 note=49 velocity=127 time=0
note_off channel=2 note=37 velocity=127 time=384
note_off channel=2 note=37 velocity=127 time=0
note_off channel=2 note=37 velocity=127 time=0
note_off channel=2 note=49 velocity=127 time=0
note_off channel=2 note=49 velocity=127 time=0
note_off channel=2 note=49 velocity=127 time=0
note_on channel=2 note=28 velocity=127 time=960
note_on channel=2 note=28 velocity=127 time=0
note_on channel=2 note=28 velocity=127 time=0
note_on channel=2 note=40 velocity=127 time=0
note_on channel=2 note=40 velocity=127 time=0
note_on channel=2 note=40 velocity=127 time=0
note_off channel=2 note=28 velocity=127 time=128
note_off channel=2 note=28 velocity=127 time=0
note_off channel=2 note=28 velocity=127 time=0
note_off channel=2 note=40 velocity=127 time=0
note_off channel=2 note=40 velocity=127 time=0
note_off channel=2 note=40 velocity=127 time=0
note_on channel=2 note=40 velocity=127 time=64
note_on channel=2 note=40 velocity=127 time=0
note_on channel=2 note=40 velocity=127 time=0
note_on channel=2 note=52 velocity=127 time=0
note_on channel=2 note=52 velocity=127 time=0
note_on channel=2 note=52 velocity=127 time=0
note_off channel=2 note=40 velocity=127 time=384
note_off channel=2 note=40 velocity=127 time=0
note_off channel=2 note=40 velocity=127 time=0
note_off channel=2 note=52 velocity=127 time=0
note_off channel=2 note=52 velocity=127 time=0
note_off channel=2 note=52 velocity=127 time=0
note_on channel=2 note=38 velocity=127 time=192
note_on channel=2 note=38 velocity=127 time=0
note_on channel=2 note=38 velocity=127 time=0
note_on channel=2 note=50 velocity=127 time=0
note_on channel=2 note=50 velocity=127 time=0
note_on channel=2 note=50 velocity=127 time=0
note_off channel=2 note=38 velocity=127 time=128
note_off channel=2 note=38 velocity=127 time=0
note_off channel=2 note=38 velocity=127 time=0
note_off channel=2 note=50 velocity=127 time=0
note_off channel=2 note=50 velocity=127 time=0
note_off channel=2 note=50 velocity=127 time=0
note_on channel=2 note=38 velocity=127 time=64
note_on channel=2 note=38 velocity=127 time=0
note_on channel=2 note=38 velocity=127 time=0
note_on channel=2 note=50 velocity=127 time=0
note_on channel=2 note=50 velocity=127 time=0
note_on channel=2 note=50 velocity=127 time=0
note_off channel=2 note=38 velocity=127 time=384
note_off channel=2 note=38 velocity=127 time=0
note_off channel=2 note=38 velocity=127 time=0
note_off channel=2 note=50 velocity=127 time=0
note_off channel=2 note=50 velocity=127 time=0
note_off channel=2 note=50 velocity=127 time=0
note_on channel=2 note=37 velocity=127 time=192
note_on channel=2 note=37 velocity=127 time=0
note_on channel=2 note=37 velocity=127 time=0
note_on channel=2 note=49 velocity=127 time=0
note_on channel=2 note=49 velocity=127 time=0
note_on channel=2 note=49 velocity=127 time=0
note_off channel=2 note=37 velocity=127 time=128
note_off channel=2 note=37 velocity=127 time=0
note_off channel=2 note=37 velocity=127 time=0
note_off channel=2 note=49 velocity=127 time=0
note_off channel=2 note=49 velocity=127 time=0
note_off channel=2 note=49 velocity=127 time=0
note_on channel=2 note=37 velocity=127 time=64
note_on channel=2 note=37 velocity=127 time=0
note_on channel=2 note=37 velocity=127 time=0
note_on channel=2 note=49 velocity=127 time=0
note_on channel=2 note=49 velocity=127 time=0
note_on channel=2 note=49 velocity=127 time=0
note_off channel=2 note=37 velocity=127 time=384
note_off channel=2 note=37 velocity=127 time=0
note_off channel=2 note=37 velocity=127 time=0
note_off channel=2 note=49 velocity=127 time=0
note_off channel=2 note=49 velocity=127 time=0
note_off channel=2 note=49 velocity=127 time=0
note_on channel=2 note=35 velocity=127 time=192
note_on channel=2 note=35 velocity=127 time=0
note_on channel=2 note=35 velocity=127 time=0
note_on channel=2 note=47 velocity=127 time=0
note_on channel=2 note=47 velocity=127 time=0
note_on channel=2 note=47 velocity=127 time=0
note_off channel=2 note=35 velocity=127 time=128
note_off channel=2 note=35 velocity=127 time=0
note_off channel=2 note=35 velocity=127 time=0
note_off channel=2 note=47 velocity=127 time=0
note_off channel=2 note=47 velocity=127 time=0
note_off channel=2 note=47 velocity=127 time=0
note_on channel=2 note=43 velocity=127 time=64
note_on channel=2 note=43 velocity=127 time=0
note_on channel=2 note=43 velocity=127 time=0
note_on channel=2 note=55 velocity=127 time=0
note_on channel=2 note=55 velocity=127 time=0
note_on channel=2 note=55 velocity=127 time=0
note_off channel=2 note=43 velocity=127 time=64
note_off channel=2 note=43 velocity=127 time=0
note_off channel=2 note=43 velocity=127 time=0
note_off channel=2 note=55 velocity=127 time=0
note_off channel=2 note=55 velocity=127 time=0
note_off channel=2 note=55 velocity=127 time=0
note_on channel=2 note=45 velocity=127 time=32
note_on channel=2 note=45 velocity=127 time=0
note_on channel=2 note=45 velocity=127 time=0
note_on channel=2 note=57 velocity=127 time=0
note_on channel=2 note=57 velocity=127 time=0
note_on channel=2 note=57 velocity=127 time=0
note_off channel=2 note=45 velocity=127 time=64
note_off channel=2 note=45 velocity=127 time=0
note_off channel=2 note=45 velocity=127 time=0
note_off channel=2 note=57 velocity=127 time=0
note_off channel=2 note=57 velocity=127 time=0
note_off channel=2 note=57 velocity=127 time=0
note_on channel=2 note=46 velocity=127 time=32
note_on channel=2 note=46 velocity=127 time=0
note_on channel=2 note=46 velocity=127 time=0
note_on channel=2 note=58 velocity=127 time=0
note_on channel=2 note=58 velocity=127 time=0
note_on channel=2 note=58 velocity=127 time=0
note_off channel=2 note=46 velocity=127 time=40
note_off channel=2 note=46 velocity=127 time=0
note_off channel=2 note=46 velocity=127 time=0
note_off channel=2 note=58 velocity=127 time=0
note_off channel=2 note=58 velocity=127 time=0
note_off channel=2 note=58 velocity=127 time=0
note_on channel=2 note=45 velocity=127 time=24
note_on channel=2 note=45 velocity=127 time=0
note_on channel=2 note=45 velocity=127 time=0
note_on channel=2 note=57 velocity=127 time=0
note_on channel=2 note=57 velocity=127 time=0
note_on channel=2 note=57 velocity=127 time=0
note_off channel=2 note=45 velocity=127 time=40
note_off channel=2 note=45 velocity=127 time=0
note_off channel=2 note=45 velocity=127 time=0
note_off channel=2 note=57 velocity=127 time=0
note_off channel=2 note=57 velocity=127 time=0
note_off channel=2 note=57 velocity=127 time=0
note_on channel=2 note=43 velocity=127 time=24
note_on channel=2 note=43 velocity=127 time=0
note_on channel=2 note=43 velocity=127 time=0
note_on channel=2 note=55 velocity=127 time=0
note_on channel=2 note=55 velocity=127 time=0
note_on channel=2 note=55 velocity=127 time=0
note_off channel=2 note=43 velocity=127 time=40
note_off channel=2 note=43 velocity=127 time=0
note_off channel=2 note=43 velocity=127 time=0
note_off channel=2 note=55 velocity=127 time=0
note_off channel=2 note=55 velocity=127 time=0
note_off channel=2 note=55 velocity=127 time=0
note_on channel=2 note=45 velocity=127 time=24
note_on channel=2 note=45 velocity=127 time=0
note_on channel=2 note=45 velocity=127 time=0
note_on channel=2 note=57 velocity=127 time=0
note_on channel=2 note=57 velocity=127 time=0
note_on channel=2 note=57 velocity=127 time=0
note_off channel=2 note=45 velocity=127 time=64
note_off channel=2 note=45 velocity=127 time=0
note_off channel=2 note=45 velocity=127 time=0
note_off channel=2 note=57 velocity=127 time=0
note_off channel=2 note=57 velocity=127 time=0
note_off channel=2 note=57 velocity=127 time=0
note_on channel=2 note=40 velocity=127 time=32
note_on channel=2 note=40 velocity=127 time=0
note_on channel=2 note=40 velocity=127 time=0
note_on channel=2 note=52 velocity=127 time=0
note_on channel=2 note=52 velocity=127 time=0
note_on channel=2 note=52 velocity=127 time=0
note_off channel=2 note=40 velocity=127 time=64
note_off channel=2 note=40 velocity=127 time=0
note_off channel=2 note=40 velocity=127 time=0
note_off channel=2 note=52 velocity=127 time=0
note_off channel=2 note=52 velocity=127 time=0
note_off channel=2 note=52 velocity=127 time=0
note_on channel=2 note=28 velocity=127 time=32
note_on channel=2 note=28 velocity=127 time=0
note_on channel=2 note=28 velocity=127 time=0
note_on channel=2 note=40 velocity=127 time=0
note_on channel=2 note=40 velocity=127 time=0
note_on channel=2 note=40 velocity=127 time=0
note_off channel=2 note=28 velocity=127 time=128
note_off channel=2 note=28 velocity=127 time=0
note_off channel=2 note=28 velocity=127 time=0
note_off channel=2 note=40 velocity=127 time=0
note_off channel=2 note=40 velocity=127 time=0
note_off channel=2 note=40 velocity=127 time=0
note_on channel=2 note=40 velocity=127 time=64
note_on channel=2 note=40 velocity=127 time=0
note_on channel=2 note=40 velocity=127 time=0
note_on channel=2 note=52 velocity=127 time=0
note_on channel=2 note=52 velocity=127 time=0
note_on channel=2 note=52 velocity=127 time=0
note_off channel=2 note=40 velocity=127 time=384
note_off channel=2 note=40 velocity=127 time=0
note_off channel=2 note=40 velocity=127 time=0
note_off channel=2 note=52 velocity=127 time=0
note_off channel=2 note=52 velocity=127 time=0
note_off channel=2 note=52 velocity=127 time=0
note_on channel=2 note=38 velocity=127 time=192
note_on channel=2 note=38 velocity=127 time=0
note_on channel=2 note=38 velocity=127 time=0
note_on channel=2 note=50 velocity=127 time=0
note_on channel=2 note=50 velocity=127 time=0
note_on channel=2 note=50 velocity=127 time=0
note_off channel=2 note=38 velocity=127 time=128
note_off channel=2 note=38 velocity=127 time=0
note_off channel=2 note=38 velocity=127 time=0
note_off channel=2 note=50 velocity=127 time=0
note_off channel=2 note=50 velocity=127 time=0
note_off channel=2 note=50 velocity=127 time=0
note_on channel=2 note=38 velocity=127 time=64
note_on channel=2 note=38 velocity=127 time=0
note_on channel=2 note=38 velocity=127 time=0
note_on channel=2 note=50 velocity=127 time=0
note_on channel=2 note=50 velocity=127 time=0
note_on channel=2 note=50 velocity=127 time=0
note_off channel=2 note=38 velocity=127 time=384
note_off channel=2 note=38 velocity=127 time=0
note_off channel=2 note=38 velocity=127 time=0
note_off channel=2 note=50 velocity=127 time=0
note_off channel=2 note=50 velocity=127 time=0
note_off channel=2 note=50 velocity=127 time=0
note_on channel=2 note=37 velocity=127 time=192
note_on channel=2 note=37 velocity=127 time=0
note_on channel=2 note=37 velocity=127 time=0
note_on channel=2 note=49 velocity=127 time=0
note_on channel=2 note=49 velocity=127 time=0
note_on channel=2 note=49 velocity=127 time=0
note_off channel=2 note=37 velocity=127 time=128
note_off channel=2 note=37 velocity=127 time=0
note_off channel=2 note=37 velocity=127 time=0
note_off channel=2 note=49 velocity=127 time=0
note_off channel=2 note=49 velocity=127 time=0
note_off channel=2 note=49 velocity=127 time=0
note_on channel=2 note=37 velocity=127 time=64
note_on channel=2 note=37 velocity=127 time=0
note_on channel=2 note=37 velocity=127 time=0
note_on channel=2 note=49 velocity=127 time=0
note_on channel=2 note=49 velocity=127 time=0
note_on channel=2 note=49 velocity=127 time=0
note_off channel=2 note=37 velocity=127 time=384
note_off channel=2 note=37 velocity=127 time=0
note_off channel=2 note=37 velocity=127 time=0
note_off channel=2 note=49 velocity=127 time=0
note_off channel=2 note=49 velocity=127 time=0
note_off channel=2 note=49 velocity=127 time=0
note_on channel=2 note=28 velocity=127 time=960
note_on channel=2 note=28 velocity=127 time=0
note_on channel=2 note=28 velocity=127 time=0
note_on channel=2 note=40 velocity=127 time=0
note_on channel=2 note=40 velocity=127 time=0
note_on channel=2 note=40 velocity=127 time=0
note_off channel=2 note=28 velocity=127 time=128
note_off channel=2 note=28 velocity=127 time=0
note_off channel=2 note=28 velocity=127 time=0
note_off channel=2 note=40 velocity=127 time=0
note_off channel=2 note=40 velocity=127 time=0
note_off channel=2 note=40 velocity=127 time=0
note_on channel=2 note=40 velocity=127 time=64
note_on channel=2 note=40 velocity=127 time=0
note_on channel=2 note=40 velocity=127 time=0
note_on channel=2 note=52 velocity=127 time=0
note_on channel=2 note=52 velocity=127 time=0
note_on channel=2 note=52 velocity=127 time=0
note_off channel=2 note=40 velocity=127 time=384
note_off channel=2 note=40 velocity=127 time=0
note_off channel=2 note=40 velocity=127 time=0
note_off channel=2 note=52 velocity=127 time=0
note_off channel=2 note=52 velocity=127 time=0
note_off channel=2 note=52 velocity=127 time=0
note_on channel=2 note=38 velocity=127 time=192
note_on channel=2 note=38 velocity=127 time=0
note_on channel=2 note=38 velocity=127 time=0
note_on channel=2 note=50 velocity=127 time=0
note_on channel=2 note=50 velocity=127 time=0
note_on channel=2 note=50 velocity=127 time=0
note_off channel=2 note=38 velocity=127 time=128
note_off channel=2 note=38 velocity=127 time=0
note_off channel=2 note=38 velocity=127 time=0
note_off channel=2 note=50 velocity=127 time=0
note_off channel=2 note=50 velocity=127 time=0
note_off channel=2 note=50 velocity=127 time=0
note_on channel=2 note=38 velocity=127 time=64
note_on channel=2 note=38 velocity=127 time=0
note_on channel=2 note=38 velocity=127 time=0
note_on channel=2 note=50 velocity=127 time=0
note_on channel=2 note=50 velocity=127 time=0
note_on channel=2 note=50 velocity=127 time=0
note_off channel=2 note=38 velocity=127 time=384
note_off channel=2 note=38 velocity=127 time=0
note_off channel=2 note=38 velocity=127 time=0
note_off channel=2 note=50 velocity=127 time=0
note_off channel=2 note=50 velocity=127 time=0
note_off channel=2 note=50 velocity=127 time=0
note_on channel=2 note=37 velocity=127 time=192
note_on channel=2 note=37 velocity=127 time=0
note_on channel=2 note=37 velocity=127 time=0
note_on channel=2 note=49 velocity=127 time=0
note_on channel=2 note=49 velocity=127 time=0
note_on channel=2 note=49 velocity=127 time=0
note_off channel=2 note=37 velocity=127 time=128
note_off channel=2 note=37 velocity=127 time=0
note_off channel=2 note=37 velocity=127 time=0
note_off channel=2 note=49 velocity=127 time=0
note_off channel=2 note=49 velocity=127 time=0
note_off channel=2 note=49 velocity=127 time=0
note_on channel=2 note=37 velocity=127 time=64
note_on channel=2 note=37 velocity=127 time=0
note_on channel=2 note=37 velocity=127 time=0
note_on channel=2 note=49 velocity=127 time=0
note_on channel=2 note=49 velocity=127 time=0
note_on channel=2 note=49 velocity=127 time=0
note_off channel=2 note=37 velocity=127 time=384
note_off channel=2 note=37 velocity=127 time=0
note_off channel=2 note=37 velocity=127 time=0
note_off channel=2 note=49 velocity=127 time=0
note_off channel=2 note=49 velocity=127 time=0
note_off channel=2 note=49 velocity=127 time=0
note_on channel=2 note=35 velocity=127 time=192
note_on channel=2 note=35 velocity=127 time=0
note_on channel=2 note=35 velocity=127 time=0
note_on channel=2 note=47 velocity=127 time=0
note_on channel=2 note=47 velocity=127 time=0
note_on channel=2 note=47 velocity=127 time=0
note_off channel=2 note=35 velocity=127 time=128
note_off channel=2 note=35 velocity=127 time=0
note_off channel=2 note=35 velocity=127 time=0
note_off channel=2 note=47 velocity=127 time=0
note_off channel=2 note=47 velocity=127 time=0
note_off channel=2 note=47 velocity=127 time=0
note_on channel=2 note=43 velocity=127 time=64
note_on channel=2 note=43 velocity=127 time=0
note_on channel=2 note=43 velocity=127 time=0
note_on channel=2 note=55 velocity=127 time=0
note_on channel=2 note=55 velocity=127 time=0
note_on channel=2 note=55 velocity=127 time=0
note_off channel=2 note=43 velocity=127 time=64
note_off channel=2 note=43 velocity=127 time=0
note_off channel=2 note=43 velocity=127 time=0
note_off channel=2 note=55 velocity=127 time=0
note_off channel=2 note=55 velocity=127 time=0
note_off channel=2 note=55 velocity=127 time=0
note_on channel=2 note=45 velocity=127 time=32
note_on channel=2 note=45 velocity=127 time=0
note_on channel=2 note=45 velocity=127 time=0
note_on channel=2 note=57 velocity=127 time=0
note_on channel=2 note=57 velocity=127 time=0
note_on channel=2 note=57 velocity=127 time=0
note_off channel=2 note=45 velocity=127 time=64
note_off channel=2 note=45 velocity=127 time=0
note_off channel=2 note=45 velocity=127 time=0
note_off channel=2 note=57 velocity=127 time=0
note_off channel=2 note=57 velocity=127 time=0
note_off channel=2 note=57 velocity=127 time=0
note_on channel=2 note=46 velocity=127 time=32
note_on channel=2 note=46 velocity=127 time=0
note_on channel=2 note=46 velocity=127 time=0
note_on channel=2 note=58 velocity=127 time=0
note_on channel=2 note=58 velocity=127 time=0
note_on channel=2 note=58 velocity=127 time=0
note_off channel=2 note=46 velocity=127 time=40
note_off channel=2 note=46 velocity=127 time=0
note_off channel=2 note=46 velocity=127 time=0
note_off channel=2 note=58 velocity=127 time=0
note_off channel=2 note=58 velocity=127 time=0
note_off channel=2 note=58 velocity=127 time=0
note_on channel=2 note=45 velocity=127 time=24
note_on channel=2 note=45 velocity=127 time=0
note_on channel=2 note=45 velocity=127 time=0
note_on channel=2 note=57 velocity=127 time=0
note_on channel=2 note=57 velocity=127 time=0
note_on channel=2 note=57 velocity=127 time=0
note_off channel=2 note=45 velocity=127 time=40
note_off channel=2 note=45 velocity=127 time=0
note_off channel=2 note=45 velocity=127 time=0
note_off channel=2 note=57 velocity=127 time=0
note_off channel=2 note=57 velocity=127 time=0
note_off channel=2 note=57 velocity=127 time=0
note_on channel=2 note=43 velocity=127 time=24
note_on channel=2 note=43 velocity=127 time=0
note_on channel=2 note=43 velocity=127 time=0
note_on channel=2 note=55 velocity=127 time=0
note_on channel=2 note=55 velocity=127 time=0
note_on channel=2 note=55 velocity=127 time=0
note_off channel=2 note=43 velocity=127 time=40
note_off channel=2 note=43 velocity=127 time=0
note_off channel=2 note=43 velocity=127 time=0
note_off channel=2 note=55 velocity=127 time=0
note_off channel=2 note=55 velocity=127 time=0
note_off channel=2 note=55 velocity=127 time=0
note_on channel=2 note=45 velocity=127 time=24
note_on channel=2 note=45 velocity=127 time=0
note_on channel=2 note=45 velocity=127 time=0
note_on channel=2 note=57 velocity=127 time=0
note_on channel=2 note=57 velocity=127 time=0
note_on channel=2 note=57 velocity=127 time=0
note_off channel=2 note=45 velocity=127 time=64
note_off channel=2 note=45 velocity=127 time=0
note_off channel=2 note=45 velocity=127 time=0
note_off channel=2 note=57 velocity=127 time=0
note_off channel=2 note=57 velocity=127 time=0
note_off channel=2 note=57 velocity=127 time=0
note_on channel=2 note=40 velocity=127 time=32
note_on channel=2 note=40 velocity=127 time=0
note_on channel=2 note=40 velocity=127 time=0
note_on channel=2 note=52 velocity=127 time=0
note_on channel=2 note=52 velocity=127 time=0
note_on channel=2 note=52 velocity=127 time=0
note_off channel=2 note=40 velocity=127 time=64
note_off channel=2 note=40 velocity=127 time=0
note_off channel=2 note=40 velocity=127 time=0
note_off channel=2 note=52 velocity=127 time=0
note_off channel=2 note=52 velocity=127 time=0
note_off channel=2 note=52 velocity=127 time=0
note_on channel=2 note=28 velocity=127 time=32
note_on channel=2 note=28 velocity=127 time=0
note_on channel=2 note=28 velocity=127 time=0
note_on channel=2 note=40 velocity=127 time=0
note_on channel=2 note=40 velocity=127 time=0
note_on channel=2 note=40 velocity=127 time=0
note_off channel=2 note=28 velocity=127 time=128
note_off channel=2 note=28 velocity=127 time=0
note_off channel=2 note=28 velocity=127 time=0
note_off channel=2 note=40 velocity=127 time=0
note_off channel=2 note=40 velocity=127 time=0
note_off channel=2 note=40 velocity=127 time=0
note_on channel=2 note=40 velocity=127 time=64
note_on channel=2 note=40 velocity=127 time=0
note_on channel=2 note=40 velocity=127 time=0
note_on channel=2 note=52 velocity=127 time=0
note_on channel=2 note=52 velocity=127 time=0
note_on channel=2 note=52 velocity=127 time=0
note_off channel=2 note=40 velocity=127 time=384
note_off channel=2 note=40 velocity=127 time=0
note_off channel=2 note=40 velocity=127 time=0
note_off channel=2 note=52 velocity=127 time=0
note_off channel=2 note=52 velocity=127 time=0
note_off channel=2 note=52 velocity=127 time=0
note_on channel=2 note=38 velocity=127 time=192
note_on channel=2 note=38 velocity=127 time=0
note_on channel=2 note=38 velocity=127 time=0
note_on channel=2 note=50 velocity=127 time=0
note_on channel=2 note=50 velocity=127 time=0
note_on channel=2 note=50 velocity=127 time=0
note_off channel=2 note=38 velocity=127 time=128
note_off channel=2 note=38 velocity=127 time=0
note_off channel=2 note=38 velocity=127 time=0
note_off channel=2 note=50 velocity=127 time=0
note_off channel=2 note=50 velocity=127 time=0
note_off channel=2 note=50 velocity=127 time=0
note_on channel=2 note=38 velocity=127 time=64
note_on channel=2 note=38 velocity=127 time=0
note_on channel=2 note=38 velocity=127 time=0
note_on channel=2 note=50 velocity=127 time=0
note_on channel=2 note=50 velocity=127 time=0
note_on channel=2 note=50 velocity=127 time=0
note_off channel=2 note=38 velocity=127 time=384
note_off channel=2 note=38 velocity=127 time=0
note_off channel=2 note=38 velocity=127 time=0
note_off channel=2 note=50 velocity=127 time=0
note_off channel=2 note=50 velocity=127 time=0
note_off channel=2 note=50 velocity=127 time=0
note_on channel=2 note=37 velocity=127 time=192
note_on channel=2 note=37 velocity=127 time=0
note_on channel=2 note=37 velocity=127 time=0
note_on channel=2 note=49 velocity=127 time=0
note_on channel=2 note=49 velocity=127 time=0
note_on channel=2 note=49 velocity=127 time=0
note_off channel=2 note=37 velocity=127 time=128
note_off channel=2 note=37 velocity=127 time=0
note_off channel=2 note=37 velocity=127 time=0
note_off channel=2 note=49 velocity=127 time=0
note_off channel=2 note=49 velocity=127 time=0
note_off channel=2 note=49 velocity=127 time=0
note_on channel=2 note=37 velocity=127 time=64
note_on channel=2 note=37 velocity=127 time=0
note_on channel=2 note=37 velocity=127 time=0
note_on channel=2 note=49 velocity=127 time=0
note_on channel=2 note=49 velocity=127 time=0
note_on channel=2 note=49 velocity=127 time=0
note_off channel=2 note=37 velocity=127 time=384
note_off channel=2 note=37 velocity=127 time=0
note_off channel=2 note=37 velocity=127 time=0
note_off channel=2 note=49 velocity=127 time=0
note_off channel=2 note=49 velocity=127 time=0
note_off channel=2 note=49 velocity=127 time=0
note_on channel=2 note=45 velocity=127 time=1192
note_on channel=2 note=33 velocity=127 time=0
note_off channel=2 note=45 velocity=0 time=280
note_off channel=2 note=33 velocity=0 time=0
note_on channel=2 note=40 velocity=127 time=20
note_on channel=2 note=28 velocity=127 time=0
note_on channel=2 note=47 velocity=127 time=176
note_on channel=2 note=35 velocity=127 time=0
note_off channel=2 note=40 velocity=0 time=48
note_off channel=2 note=28 velocity=0 time=0
note_off channel=2 note=47 velocity=0 time=228
note_off channel=2 note=35 velocity=0 time=0
note_on channel=2 note=45 velocity=127 time=96
note_on channel=2 note=33 velocity=127 time=0
note_off channel=2 note=45 velocity=0 time=220
note_off channel=2 note=33 velocity=0 time=0
note_on channel=2 note=47 velocity=127 time=0
note_on channel=2 note=35 velocity=127 time=0
note_off channel=2 note=47 velocity=0 time=112
note_off channel=2 note=35 velocity=0 time=0
note_on channel=2 note=45 velocity=127 time=356
note_on channel=2 note=33 velocity=127 time=0
note_off channel=2 note=45 velocity=0 time=280
note_off channel=2 note=33 velocity=0 time=0
note_on channel=2 note=40 velocity=127 time=20
note_on channel=2 note=28 velocity=127 time=0
note_on channel=2 note=47 velocity=127 time=176
note_on channel=2 note=35 velocity=127 time=0
note_off channel=2 note=40 velocity=0 time=48
note_off channel=2 note=28 velocity=0 time=0
note_off channel=2 note=47 velocity=0 time=228
note_off channel=2 note=35 velocity=0 time=0
note_on channel=2 note=45 velocity=127 time=96
note_on channel=2 note=33 velocity=127 time=0
note_off channel=2 note=45 velocity=0 time=220
note_off channel=2 note=33 velocity=0 time=0
note_on channel=2 note=47 velocity=127 time=0
note_on channel=2 note=35 velocity=127 time=0
note_off channel=2 note=47 velocity=0 time=112
note_off channel=2 note=35 velocity=0 time=0
note_on channel=2 note=43 velocity=127 time=336
note_off channel=2 note=43 velocity=0 time=188
note_on channel=2 note=38 velocity=127 time=84
note_on channel=2 note=33 velocity=127 time=244
note_off channel=2 note=38 velocity=0 time=12
note_off channel=2 note=33 velocity=0 time=308
note_on channel=2 note=31 velocity=127 time=0
note_off channel=2 note=31 velocity=0 time=208
note_on channel=2 note=33 velocity=127 time=4
note_off channel=2 note=33 velocity=0 time=380
note_on channel=2 note=43 velocity=127 time=108
note_off channel=2 note=43 velocity=0 time=188
note_on channel=2 note=38 velocity=127 time=84
note_on channel=2 note=33 velocity=127 time=244
note_off channel=2 note=38 velocity=0 time=12
note_off channel=2 note=33 velocity=0 time=308
note_on channel=2 note=31 velocity=127 time=0
note_off channel=2 note=31 velocity=0 time=208
note_on channel=2 note=33 velocity=127 time=4
note_on channel=2 note=33 velocity=127 time=276
note_off channel=2 note=33 velocity=0 time=104
note_off channel=2 note=33 velocity=0 time=0
note_on channel=2 note=45 velocity=127 time=128
note_on channel=2 note=33 velocity=127 time=0
note_off channel=2 note=45 velocity=0 time=280
note_off channel=2 note=33 velocity=0 time=0
note_on channel=2 note=40 velocity=127 time=20
note_on channel=2 note=28 velocity=127 time=0
note_on channel=2 note=47 velocity=127 time=176
note_on channel=2 note=35 velocity=127 time=0
note_off channel=2 note=40 velocity=0 time=48
note_off channel=2 note=28 velocity=0 time=0
note_off channel=2 note=47 velocity=0 time=228
note_off channel=2 note=35 velocity=0 time=0
note_on channel=2 note=45 velocity=127 time=96
note_on channel=2 note=33 velocity=127 time=0
note_off channel=2 note=45 velocity=0 time=220
note_off channel=2 note=33 velocity=0 time=0
note_on channel=2 note=47 velocity=127 time=0
note_on channel=2 note=35 velocity=127 time=0
note_off channel=2 note=47 velocity=0 time=112
note_off channel=2 note=35 velocity=0 time=0
note_on channel=2 note=45 velocity=127 time=356
note_on channel=2 note=33 velocity=127 time=0
note_off channel=2 note=45 velocity=0 time=280
note_off channel=2 note=33 velocity=0 time=0
note_on channel=2 note=40 velocity=127 time=20
note_on channel=2 note=28 velocity=127 time=0
note_on channel=2 note=47 velocity=127 time=176
note_on channel=2 note=35 velocity=127 time=0
note_off channel=2 note=40 velocity=0 time=48
note_off channel=2 note=28 velocity=0 time=0
note_off channel=2 note=47 velocity=0 time=228
note_off channel=2 note=35 velocity=0 time=0
note_on channel=2 note=45 velocity=127 time=96
note_on channel=2 note=33 velocity=127 time=0
note_off channel=2 note=45 velocity=0 time=220
note_off channel=2 note=33 velocity=0 time=0
note_on channel=2 note=47 velocity=127 time=0
note_on channel=2 note=35 velocity=127 time=0
note_off channel=2 note=47 velocity=0 time=112
note_off channel=2 note=35 velocity=0 time=0
note_on channel=2 note=38 velocity=127 time=124
note_on channel=2 note=43 velocity=127 time=0
note_off channel=2 note=38 velocity=0 time=192
note_off channel=2 note=43 velocity=0 time=0
note_on channel=2 note=38 velocity=127 time=96
note_on channel=2 note=43 velocity=127 time=0
note_off channel=2 note=38 velocity=0 time=192
note_off channel=2 note=43 velocity=0 time=0
note_on channel=2 note=38 velocity=127 time=96
note_on channel=2 note=43 velocity=127 time=0
note_off channel=2 note=38 velocity=0 time=192
note_off channel=2 note=43 velocity=0 time=0
note_on channel=2 note=38 velocity=108 time=96
note_on channel=2 note=43 velocity=127 time=0
note_off channel=2 note=38 velocity=0 time=64
note_off channel=2 note=43 velocity=0 time=0
note_on channel=2 note=37 velocity=84 time=32
note_off channel=2 note=37 velocity=0 time=64
note_on channel=2 note=38 velocity=108 time=32
note_on channel=2 note=43 velocity=127 time=0
note_off channel=2 note=38 velocity=0 time=64
note_off channel=2 note=43 velocity=0 time=0
note_on channel=2 note=38 velocity=127 time=32
note_on channel=2 note=43 velocity=127 time=0
note_off channel=2 note=38 velocity=0 time=128
note_off channel=2 note=43 velocity=0 time=0
note_on channel=2 note=38 velocity=127 time=64
note_on channel=2 note=43 velocity=127 time=0
note_off channel=2 note=38 velocity=0 time=128
note_off channel=2 note=43 velocity=0 time=0
note_on channel=2 note=45 velocity=127 time=64
note_on channel=2 note=50 velocity=127 time=0
note_on channel=2 note=54 velocity=127 time=0
note_off channel=2 note=45 velocity=0 time=192
note_off channel=2 note=50 velocity=0 time=0
note_off channel=2 note=54 velocity=0 time=0
note_on channel=2 note=45 velocity=127 time=96
note_on channel=2 note=50 velocity=127 time=0
note_on channel=2 note=54 velocity=127 time=0
note_off channel=2 note=45 velocity=0 time=192
note_off channel=2 note=50 velocity=0 time=0
note_off channel=2 note=54 velocity=0 time=0
note_on channel=2 note=38 velocity=127 time=96
note_on channel=2 note=45 velocity=127 time=0
note_on channel=2 note=50 velocity=127 time=0
note_off channel=2 note=38 velocity=0 time=768
note_off channel=2 note=45 velocity=0 time=0
note_off channel=2 note=50 velocity=0 time=0
note_on channel=2 note=28 velocity=127 time=192
note_on channel=2 note=40 velocity=127 time=0
note_off channel=2 note=28 velocity=0 time=64
note_off channel=2 note=40 velocity=0 time=0
note_on channel=2 note=38 velocity=127 time=32
note_on channel=2 note=50 velocity=127 time=0
note_off channel=2 note=38 velocity=0 time=64
note_off channel=2 note=50 velocity=0 time=0
note_on channel=2 note=37 velocity=127 time=32
note_on channel=2 note=49 velocity=127 time=0
note_off channel=2 note=37 velocity=0 time=64
note_off channel=2 note=49 velocity=0 time=0
note_on channel=2 note=35 velocity=127 time=32
note_on channel=2 note=47 velocity=127 time=0
note_off channel=2 note=35 velocity=0 time=64
note_off channel=2 note=47 velocity=0 time=0
note_on channel=2 note=37 velocity=127 time=32
note_on channel=2 note=49 velocity=127 time=0
note_off channel=2 note=37 velocity=0 time=64
note_off channel=2 note=49 velocity=0 time=0
note_on channel=2 note=31 velocity=127 time=32
note_on channel=2 note=43 velocity=127 time=0
note_off channel=2 note=31 velocity=0 time=128
note_off channel=2 note=43 velocity=0 time=0
note_on channel=2 note=35 velocity=127 time=64
note_on channel=2 note=47 velocity=127 time=0
note_off channel=2 note=35 velocity=0 time=64
note_off channel=2 note=47 velocity=0 time=0
note_on channel=2 note=33 velocity=127 time=32
note_on channel=2 note=45 velocity=127 time=0
note_off channel=2 note=33 velocity=0 time=128
note_off channel=2 note=45 velocity=0 time=0
note_on channel=2 note=35 velocity=127 time=64
note_on channel=2 note=47 velocity=127 time=0
note_off channel=2 note=35 velocity=0 time=64
note_off channel=2 note=47 velocity=0 time=0
note_on channel=2 note=34 velocity=127 time=32
note_on channel=2 note=46 velocity=127 time=0
note_off channel=2 note=34 velocity=0 time=128
note_off channel=2 note=46 velocity=0 time=0
note_on channel=2 note=35 velocity=127 time=64
note_on channel=2 note=47 velocity=127 time=0
note_off channel=2 note=35 velocity=0 time=64
note_off channel=2 note=47 velocity=0 time=0
note_on channel=2 note=35 velocity=127 time=32
note_on channel=2 note=47 velocity=127 time=0
note_off channel=2 note=35 velocity=0 time=128
note_off channel=2 note=47 velocity=0 time=0
note_on channel=2 note=28 velocity=127 time=64
note_on channel=2 note=40 velocity=127 time=0
note_off channel=2 note=28 velocity=0 time=64
note_off channel=2 note=40 velocity=0 time=0
note_on channel=2 note=38 velocity=127 time=32
note_on channel=2 note=50 velocity=127 time=0
note_off channel=2 note=38 velocity=0 time=64
note_off channel=2 note=50 velocity=0 time=0
note_on channel=2 note=37 velocity=127 time=32
note_on channel=2 note=49 velocity=127 time=0
note_off channel=2 note=37 velocity=0 time=64
note_off channel=2 note=49 velocity=0 time=0
note_on channel=2 note=35 velocity=127 time=32
note_on channel=2 note=47 velocity=127 time=0
note_off channel=2 note=35 velocity=0 time=64
note_off channel=2 note=47 velocity=0 time=0
note_on channel=2 note=37 velocity=127 time=32
note_on channel=2 note=49 velocity=127 time=0
note_off channel=2 note=37 velocity=0 time=64
note_off channel=2 note=49 velocity=0 time=0
note_on channel=2 note=31 velocity=127 time=32
note_on channel=2 note=43 velocity=127 time=0
note_off channel=2 note=31 velocity=0 time=128
note_off channel=2 note=43 velocity=0 time=0
note_on channel=2 note=35 velocity=127 time=64
note_on channel=2 note=47 velocity=127 time=0
note_off channel=2 note=35 velocity=0 time=64
note_off channel=2 note=47 velocity=0 time=0
note_on channel=2 note=33 velocity=127 time=32
note_on channel=2 note=45 velocity=127 time=0
note_off channel=2 note=33 velocity=0 time=128
note_off channel=2 note=45 velocity=0 time=0
note_on channel=2 note=35 velocity=127 time=64
note_on channel=2 note=47 velocity=127 time=0
note_off channel=2 note=35 velocity=0 time=64
note_off channel=2 note=47 velocity=0 time=0
note_on channel=2 note=34 velocity=127 time=32
note_on channel=2 note=46 velocity=127 time=0
note_off channel=2 note=34 velocity=0 time=128
note_off channel=2 note=46 velocity=0 time=0
note_on channel=2 note=35 velocity=127 time=64
note_on channel=2 note=47 velocity=127 time=0
note_off channel=2 note=35 velocity=0 time=64
note_off channel=2 note=47 velocity=0 time=0
note_on channel=2 note=35 velocity=127 time=32
note_on channel=2 note=47 velocity=127 time=0
note_off channel=2 note=35 velocity=0 time=128
note_off channel=2 note=47 velocity=0 time=0
note_on channel=2 note=28 velocity=127 time=64
note_on channel=2 note=40 velocity=127 time=0
note_off channel=2 note=28 velocity=0 time=64
note_off channel=2 note=40 velocity=0 time=0
note_on channel=2 note=38 velocity=127 time=32
note_on channel=2 note=50 velocity=127 time=0
note_off channel=2 note=38 velocity=0 time=64
note_off channel=2 note=50 velocity=0 time=0
note_on channel=2 note=37 velocity=127 time=32
note_on channel=2 note=49 velocity=127 time=0
note_off channel=2 note=37 velocity=0 time=64
note_off channel=2 note=49 velocity=0 time=0
note_on channel=2 note=35 velocity=127 time=32
note_on channel=2 note=47 velocity=127 time=0
note_off channel=2 note=35 velocity=0 time=64
note_off channel=2 note=47 velocity=0 time=0
note_on channel=2 note=37 velocity=127 time=32
note_on channel=2 note=49 velocity=127 time=0
note_off channel=2 note=37 velocity=0 time=64
note_off channel=2 note=49 velocity=0 time=0
note_on channel=2 note=31 velocity=127 time=32
note_on channel=2 note=43 velocity=127 time=0
note_off channel=2 note=31 velocity=0 time=128
note_off channel=2 note=43 velocity=0 time=0
note_on channel=2 note=35 velocity=127 time=64
note_on channel=2 note=47 velocity=127 time=0
note_off channel=2 note=35 velocity=0 time=64
note_off channel=2 note=47 velocity=0 time=0
note_on channel=2 note=33 velocity=127 time=32
note_on channel=2 note=45 velocity=127 time=0
note_off channel=2 note=33 velocity=0 time=128
note_off channel=2 note=45 velocity=0 time=0
note_on channel=2 note=35 velocity=127 time=64
note_on channel=2 note=47 velocity=127 time=0
note_off channel=2 note=35 velocity=0 time=64
note_off channel=2 note=47 velocity=0 time=0
note_on channel=2 note=34 velocity=127 time=32
note_on channel=2 note=46 velocity=127 time=0
note_off channel=2 note=34 velocity=0 time=128
note_off channel=2 note=46 velocity=0 time=0
note_on channel=2 note=35 velocity=127 time=64
note_on channel=2 note=47 velocity=127 time=0
note_off channel=2 note=35 velocity=0 time=64
note_off channel=2 note=47 velocity=0 time=0
note_on channel=2 note=35 velocity=127 time=32
note_on channel=2 note=47 velocity=127 time=0
note_off channel=2 note=35 velocity=0 time=128
note_off channel=2 note=47 velocity=0 time=0
note_on channel=2 note=28 velocity=127 time=64
note_on channel=2 note=40 velocity=127 time=0
note_off channel=2 note=28 velocity=0 time=64
note_off channel=2 note=40 velocity=0 time=0
note_on channel=2 note=38 velocity=127 time=32
note_on channel=2 note=50 velocity=127 time=0
note_off channel=2 note=38 velocity=0 time=64
note_off channel=2 note=50 velocity=0 time=0
note_on channel=2 note=37 velocity=127 time=32
note_on channel=2 note=49 velocity=127 time=0
note_off channel=2 note=37 velocity=0 time=64
note_off channel=2 note=49 velocity=0 time=0
note_on channel=2 note=35 velocity=127 time=32
note_on channel=2 note=47 velocity=127 time=0
note_off channel=2 note=35 velocity=0 time=64
note_off channel=2 note=47 velocity=0 time=0
note_on channel=2 note=37 velocity=127 time=32
note_on channel=2 note=49 velocity=127 time=0
note_off channel=2 note=37 velocity=0 time=64
note_off channel=2 note=49 velocity=0 time=0
note_on channel=2 note=31 velocity=127 time=32
note_on channel=2 note=43 velocity=127 time=0
note_off channel=2 note=31 velocity=0 time=128
note_off channel=2 note=43 velocity=0 time=0
note_on channel=2 note=35 velocity=127 time=64
note_on channel=2 note=47 velocity=127 time=0
note_off channel=2 note=35 velocity=0 time=64
note_off channel=2 note=47 velocity=0 time=0
note_on channel=2 note=33 velocity=127 time=32
note_on channel=2 note=45 velocity=127 time=0
note_off channel=2 note=33 velocity=0 time=128
note_off channel=2 note=45 velocity=0 time=0
note_on channel=2 note=35 velocity=127 time=64
note_on channel=2 note=47 velocity=127 time=0
note_off channel=2 note=35 velocity=0 time=64
note_off channel=2 note=47 velocity=0 time=0
note_on channel=2 note=34 velocity=127 time=32
note_on channel=2 note=46 velocity=127 time=0
note_off channel=2 note=34 velocity=0 time=128
note_off channel=2 note=46 velocity=0 time=0
note_on channel=2 note=35 velocity=127 time=64
note_on channel=2 note=47 velocity=127 time=0
note_off channel=2 note=35 velocity=0 time=64
note_off channel=2 note=47 velocity=0 time=0
note_on channel=2 note=35 velocity=127 time=32
note_on channel=2 note=47 velocity=127 time=0
note_off channel=2 note=35 velocity=0 time=128
note_off channel=2 note=47 velocity=0 time=0
note_on channel=2 note=33 velocity=127 time=64
note_on channel=2 note=45 velocity=127 time=0
note_off channel=2 note=33 velocity=0 time=64
note_off channel=2 note=45 velocity=0 time=0
note_on channel=2 note=43 velocity=127 time=32
note_on channel=2 note=55 velocity=127 time=0
note_off channel=2 note=43 velocity=0 time=64
note_off channel=2 note=55 velocity=0 time=0
note_on channel=2 note=42 velocity=127 time=32
note_on channel=2 note=54 velocity=127 time=0
note_off channel=2 note=42 velocity=0 time=64
note_off channel=2 note=54 velocity=0 time=0
note_on channel=2 note=40 velocity=127 time=32
note_on channel=2 note=52 velocity=127 time=0
note_off channel=2 note=40 velocity=0 time=64
note_off channel=2 note=52 velocity=0 time=0
note_on channel=2 note=42 velocity=127 time=32
note_on channel=2 note=54 velocity=127 time=0
note_off channel=2 note=42 velocity=0 time=64
note_off channel=2 note=54 velocity=0 time=0
note_on channel=2 note=36 velocity=127 time=32
note_on channel=2 note=48 velocity=127 time=0
note_off channel=2 note=36 velocity=0 time=128
note_off channel=2 note=48 velocity=0 time=0
note_on channel=2 note=40 velocity=127 time=64
note_on channel=2 note=52 velocity=127 time=0
note_off channel=2 note=40 velocity=0 time=64
note_off channel=2 note=52 velocity=0 time=0
note_on channel=2 note=38 velocity=127 time=32
note_on channel=2 note=50 velocity=127 time=0
note_off channel=2 note=38 velocity=0 time=128
note_off channel=2 note=50 velocity=0 time=0
note_on channel=2 note=40 velocity=127 time=64
note_on channel=2 note=52 velocity=127 time=0
note_off channel=2 note=40 velocity=0 time=64
note_off channel=2 note=52 velocity=0 time=0
note_on channel=2 note=39 velocity=127 time=32
note_on channel=2 note=51 velocity=127 time=0
note_off channel=2 note=39 velocity=0 time=128
note_off channel=2 note=51 velocity=0 time=0
note_on channel=2 note=40 velocity=127 time=64
note_on channel=2 note=52 velocity=127 time=0
note_off channel=2 note=40 velocity=0 time=64
note_off channel=2 note=52 velocity=0 time=0
note_on channel=2 note=40 velocity=127 time=32
note_on channel=2 note=52 velocity=127 time=0
note_off channel=2 note=40 velocity=0 time=128
note_off channel=2 note=52 velocity=0 time=0
note_on channel=2 note=33 velocity=127 time=64
note_on channel=2 note=45 velocity=127 time=0
note_off channel=2 note=33 velocity=0 time=64
note_off channel=2 note=45 velocity=0 time=0
note_on channel=2 note=43 velocity=127 time=32
note_on channel=2 note=55 velocity=127 time=0
note_off channel=2 note=43 velocity=0 time=64
note_off channel=2 note=55 velocity=0 time=0
note_on channel=2 note=42 velocity=127 time=32
note_on channel=2 note=54 velocity=127 time=0
note_off channel=2 note=42 velocity=0 time=64
note_off channel=2 note=54 velocity=0 time=0
note_on channel=2 note=40 velocity=127 time=32
note_on channel=2 note=52 velocity=127 time=0
note_off channel=2 note=40 velocity=0 time=64
note_off channel=2 note=52 velocity=0 time=0
note_on channel=2 note=42 velocity=127 time=32
note_on channel=2 note=54 velocity=127 time=0
note_off channel=2 note=42 velocity=0 time=64
note_off channel=2 note=54 velocity=0 time=0
note_on channel=2 note=36 velocity=127 time=32
note_on channel=2 note=48 velocity=127 time=0
note_off channel=2 note=36 velocity=0 time=128
note_off channel=2 note=48 velocity=0 time=0
note_on channel=2 note=40 velocity=127 time=64
note_on channel=2 note=52 velocity=127 time=0
note_off channel=2 note=40 velocity=0 time=64
note_off channel=2 note=52 velocity=0 time=0
note_on channel=2 note=38 velocity=127 time=32
note_on channel=2 note=50 velocity=127 time=0
note_off channel=2 note=38 velocity=0 time=128
note_off channel=2 note=50 velocity=0 time=0
note_on channel=2 note=40 velocity=127 time=64
note_on channel=2 note=52 velocity=127 time=0
note_off channel=2 note=40 velocity=0 time=64
note_off channel=2 note=52 velocity=0 time=0
note_on channel=2 note=39 velocity=127 time=32
note_on channel=2 note=51 velocity=127 time=0
note_off channel=2 note=39 velocity=0 time=128
note_off channel=2 note=51 velocity=0 time=0
note_on channel=2 note=40 velocity=127 time=64
note_on channel=2 note=52 velocity=127 time=0
note_off channel=2 note=40 velocity=0 time=64
note_off channel=2 note=52 velocity=0 time=0
note_on channel=2 note=40 velocity=127 time=32
note_on channel=2 note=52 velocity=127 time=0
note_off channel=2 note=40 velocity=0 time=128
note_off channel=2 note=52 velocity=0 time=0
note_on channel=2 note=28 velocity=127 time=64
note_on channel=2 note=40 velocity=127 time=0
note_off channel=2 note=28 velocity=0 time=64
note_off channel=2 note=40 velocity=0 time=0
note_on channel=2 note=38 velocity=127 time=32
note_on channel=2 note=50 velocity=127 time=0
note_off channel=2 note=38 velocity=0 time=64
note_off channel=2 note=50 velocity=0 time=0
note_on channel=2 note=37 velocity=127 time=32
note_on channel=2 note=49 velocity=127 time=0
note_off channel=2 note=37 velocity=0 time=64
note_off channel=2 note=49 velocity=0 time=0
note_on channel=2 note=35 velocity=127 time=32
note_on channel=2 note=47 velocity=127 time=0
note_off channel=2 note=35 velocity=0 time=64
note_off channel=2 note=47 velocity=0 time=0
note_on channel=2 note=37 velocity=127 time=32
note_on channel=2 note=49 velocity=127 time=0
note_off channel=2 note=37 velocity=0 time=64
note_off channel=2 note=49 velocity=0 time=0
note_on channel=2 note=31 velocity=127 time=32
note_on channel=2 note=43 velocity=127 time=0
note_off channel=2 note=31 velocity=0 time=128
note_off channel=2 note=43 velocity=0 time=0
note_on channel=2 note=35 velocity=127 time=64
note_on channel=2 note=47 velocity=127 time=0
note_off channel=2 note=35 velocity=0 time=64
note_off channel=2 note=47 velocity=0 time=0
note_on channel=2 note=33 velocity=127 time=32
note_on channel=2 note=45 velocity=127 time=0
note_off channel=2 note=33 velocity=0 time=128
note_off channel=2 note=45 velocity=0 time=0
note_on channel=2 note=35 velocity=127 time=64
note_on channel=2 note=47 velocity=127 time=0
note_off channel=2 note=35 velocity=0 time=64
note_off channel=2 note=47 velocity=0 time=0
note_on channel=2 note=34 velocity=127 time=32
note_on channel=2 note=46 velocity=127 time=0
note_off channel=2 note=34 velocity=0 time=128
note_off channel=2 note=46 velocity=0 time=0
note_on channel=2 note=35 velocity=127 time=64
note_on channel=2 note=47 velocity=127 time=0
note_off channel=2 note=35 velocity=0 time=64
note_off channel=2 note=47 velocity=0 time=0
note_on channel=2 note=35 velocity=127 time=32
note_on channel=2 note=47 velocity=127 time=0
note_off channel=2 note=35 velocity=0 time=128
note_off channel=2 note=47 velocity=0 time=0
note_on channel=2 note=28 velocity=127 time=64
note_on channel=2 note=40 velocity=127 time=0
note_off channel=2 note=28 velocity=0 time=64
note_off channel=2 note=40 velocity=0 time=0
note_on channel=2 note=38 velocity=127 time=32
note_on channel=2 note=50 velocity=127 time=0
note_off channel=2 note=38 velocity=0 time=64
note_off channel=2 note=50 velocity=0 time=0
note_on channel=2 note=37 velocity=127 time=32
note_on channel=2 note=49 velocity=127 time=0
note_off channel=2 note=37 velocity=0 time=64
note_off channel=2 note=49 velocity=0 time=0
note_on channel=2 note=35 velocity=127 time=32
note_on channel=2 note=47 velocity=127 time=0
note_off channel=2 note=35 velocity=0 time=64
note_off channel=2 note=47 velocity=0 time=0
note_on channel=2 note=37 velocity=127 time=32
note_on channel=2 note=49 velocity=127 time=0
note_off channel=2 note=37 velocity=0 time=64
note_off channel=2 note=49 velocity=0 time=0
note_on channel=2 note=31 velocity=127 time=32
note_on channel=2 note=43 velocity=127 time=0
note_off channel=2 note=31 velocity=0 time=128
note_off channel=2 note=43 velocity=0 time=0
note_on channel=2 note=35 velocity=127 time=64
note_on channel=2 note=47 velocity=127 time=0
note_off channel=2 note=35 velocity=0 time=64
note_off channel=2 note=47 velocity=0 time=0
note_on channel=2 note=33 velocity=127 time=32
note_on channel=2 note=45 velocity=127 time=0
note_off channel=2 note=33 velocity=0 time=128
note_off channel=2 note=45 velocity=0 time=0
note_on channel=2 note=35 velocity=127 time=64
note_on channel=2 note=47 velocity=127 time=0
note_off channel=2 note=35 velocity=0 time=64
note_off channel=2 note=47 velocity=0 time=0
note_on channel=2 note=34 velocity=127 time=32
note_on channel=2 note=46 velocity=127 time=0
note_off channel=2 note=34 velocity=0 time=128
note_off channel=2 note=46 velocity=0 time=0
note_on channel=2 note=35 velocity=127 time=64
note_on channel=2 note=47 velocity=127 time=0
note_off channel=2 note=35 velocity=0 time=64
note_off channel=2 note=47 velocity=0 time=0
note_on channel=2 note=35 velocity=127 time=32
note_on channel=2 note=47 velocity=127 time=0
note_off channel=2 note=35 velocity=0 time=128
note_off channel=2 note=47 velocity=0 time=0
note_on channel=2 note=45 velocity=127 time=296
note_on channel=2 note=33 velocity=127 time=0
note_off channel=2 note=45 velocity=0 time=280
note_off channel=2 note=33 velocity=0 time=0
note_on channel=2 note=40 velocity=127 time=20
note_on channel=2 note=28 velocity=127 time=0
note_on channel=2 note=47 velocity=127 time=176
note_on channel=2 note=35 velocity=127 time=0
note_off channel=2 note=40 velocity=0 time=48
note_off channel=2 note=28 velocity=0 time=0
note_off channel=2 note=47 velocity=0 time=228
note_off channel=2 note=35 velocity=0 time=0
note_on channel=2 note=45 velocity=127 time=96
note_on channel=2 note=33 velocity=127 time=0
note_off channel=2 note=45 velocity=0 time=220
note_off channel=2 note=33 velocity=0 time=0
note_on channel=2 note=47 velocity=127 time=0
note_on channel=2 note=35 velocity=127 time=0
note_off channel=2 note=47 velocity=0 time=112
note_off channel=2 note=35 velocity=0 time=0
note_on channel=2 note=45 velocity=127 time=356
note_on channel=2 note=33 velocity=127 time=0
note_off channel=2 note=45 velocity=0 time=280
note_off channel=2 note=33 velocity=0 time=0
note_on channel=2 note=40 velocity=127 time=20
note_on channel=2 note=28 velocity=127 time=0
note_on channel=2 note=47 velocity=127 time=176
note_on channel=2 note=35 velocity=127 time=0
note_off channel=2 note=40 velocity=0 time=48
note_off channel=2 note=28 velocity=0 time=0
note_off channel=2 note=47 velocity=0 time=228
note_off channel=2 note=35 velocity=0 time=0
note_on channel=2 note=45 velocity=127 time=96
note_on channel=2 note=33 velocity=127 time=0
note_off channel=2 note=45 velocity=0 time=220
note_off channel=2 note=33 velocity=0 time=0
note_on channel=2 note=47 velocity=127 time=0
note_on channel=2 note=35 velocity=127 time=0
note_off channel=2 note=47 velocity=0 time=112
note_off channel=2 note=35 velocity=0 time=0
note_on channel=2 note=43 velocity=127 time=336
note_off channel=2 note=43 velocity=0 time=188
note_on channel=2 note=38 velocity=127 time=84
note_on channel=2 note=33 velocity=127 time=244
note_off channel=2 note=38 velocity=0 time=12
note_off channel=2 note=33 velocity=0 time=308
note_on channel=2 note=31 velocity=127 time=0
note_off channel=2 note=31 velocity=0 time=208
note_on channel=2 note=33 velocity=127 time=4
note_on channel=2 note=33 velocity=127 time=276
note_off channel=2 note=33 velocity=0 time=104
note_off channel=2 note=33 velocity=0 time=0
note_on channel=2 note=43 velocity=127 time=108
note_off channel=2 note=43 velocity=0 time=188
note_on channel=2 note=38 velocity=127 time=84
note_on channel=2 note=33 velocity=127 time=244
note_off channel=2 note=38 velocity=0 time=12
note_off channel=2 note=33 velocity=0 time=308
note_on channel=2 note=31 velocity=127 time=0
note_off channel=2 note=31 velocity=0 time=208
note_on channel=2 note=33 velocity=127 time=4
note_on channel=2 note=33 velocity=127 time=276
note_off channel=2 note=33 velocity=0 time=104
note_off channel=2 note=33 velocity=0 time=0
note_on channel=2 note=45 velocity=127 time=128
note_on channel=2 note=33 velocity=127 time=0
note_off channel=2 note=45 velocity=0 time=280
note_off channel=2 note=33 velocity=0 time=0
note_on channel=2 note=40 velocity=127 time=20
note_on channel=2 note=28 velocity=127 time=0
note_on channel=2 note=47 velocity=127 time=176
note_on channel=2 note=35 velocity=127 time=0
note_off channel=2 note=40 velocity=0 time=48
note_off channel=2 note=28 velocity=0 time=0
note_off channel=2 note=47 velocity=0 time=228
note_off channel=2 note=35 velocity=0 time=0
note_on channel=2 note=45 velocity=127 time=96
note_on channel=2 note=33 velocity=127 time=0
note_off channel=2 note=45 velocity=0 time=220
note_off channel=2 note=33 velocity=0 time=0
note_on channel=2 note=47 velocity=127 time=0
note_on channel=2 note=35 velocity=127 time=0
note_off channel=2 note=47 velocity=0 time=112
note_off channel=2 note=35 velocity=0 time=0
note_on channel=2 note=45 velocity=127 time=356
note_on channel=2 note=33 velocity=127 time=0
note_off channel=2 note=45 velocity=0 time=280
note_off channel=2 note=33 velocity=0 time=0
note_on channel=2 note=40 velocity=127 time=20
note_on channel=2 note=28 velocity=127 time=0
note_on channel=2 note=47 velocity=127 time=176
note_on channel=2 note=35 velocity=127 time=0
note_off channel=2 note=40 velocity=0 time=48
note_off channel=2 note=28 velocity=0 time=0
note_off channel=2 note=47 velocity=0 time=228
note_off channel=2 note=35 velocity=0 time=0
note_on channel=2 note=45 velocity=127 time=96
note_on channel=2 note=33 velocity=127 time=0
note_off channel=2 note=45 velocity=0 time=220
note_off channel=2 note=33 velocity=0 time=0
note_on channel=2 note=47 velocity=127 time=0
note_on channel=2 note=35 velocity=127 time=0
note_off channel=2 note=47 velocity=0 time=112
note_off channel=2 note=35 velocity=0 time=0
note_on channel=2 note=38 velocity=127 time=124
note_off channel=2 note=38 velocity=0 time=768
note_on channel=2 note=38 velocity=114 time=384
note_off channel=2 note=38 velocity=0 time=64
note_on channel=2 note=38 velocity=108 time=32
note_off channel=2 note=38 velocity=0 time=64
note_on channel=2 note=31 velocity=64 time=32
note_off channel=2 note=31 velocity=0 time=128
note_on channel=2 note=38 velocity=127 time=64
note_on channel=2 note=38 velocity=127 time=0
note_off channel=2 note=38 velocity=0 time=1028
note_off channel=2 note=38 velocity=0 time=0
note_on channel=2 note=28 velocity=127 time=3580
note_on channel=2 note=28 velocity=127 time=0
note_on channel=2 note=28 velocity=127 time=0
note_on channel=2 note=40 velocity=127 time=0
note_on channel=2 note=40 velocity=127 time=0
note_on channel=2 note=40 velocity=127 time=0
note_off channel=2 note=28 velocity=127 time=128
note_off channel=2 note=28 velocity=127 time=0
note_off channel=2 note=28 velocity=127 time=0
note_off channel=2 note=40 velocity=127 time=0
note_off channel=2 note=40 velocity=127 time=0
note_off channel=2 note=40 velocity=127 time=0
note_on channel=2 note=40 velocity=127 time=64
note_on channel=2 note=40 velocity=127 time=0
note_on channel=2 note=40 velocity=127 time=0
note_on channel=2 note=52 velocity=127 time=0
note_on channel=2 note=52 velocity=127 time=0
note_on channel=2 note=52 velocity=127 time=0
note_off channel=2 note=40 velocity=127 time=384
note_off channel=2 note=40 velocity=127 time=0
note_off channel=2 note=40 velocity=127 time=0
note_off channel=2 note=52 velocity=127 time=0
note_off channel=2 note=52 velocity=127 time=0
note_off channel=2 note=52 velocity=127 time=0
note_on channel=2 note=38 velocity=127 time=192
note_on channel=2 note=38 velocity=127 time=0
note_on channel=2 note=38 velocity=127 time=0
note_on channel=2 note=50 velocity=127 time=0
note_on channel=2 note=50 velocity=127 time=0
note_on channel=2 note=50 velocity=127 time=0
note_off channel=2 note=38 velocity=127 time=128
note_off channel=2 note=38 velocity=127 time=0
note_off channel=2 note=38 velocity=127 time=0
note_off channel=2 note=50 velocity=127 time=0
note_off channel=2 note=50 velocity=127 time=0
note_off channel=2 note=50 velocity=127 time=0
note_on channel=2 note=38 velocity=127 time=64
note_on channel=2 note=38 velocity=127 time=0
note_on channel=2 note=38 velocity=127 time=0
note_on channel=2 note=50 velocity=127 time=0
note_on channel=2 note=50 velocity=127 time=0
note_on channel=2 note=50 velocity=127 time=0
note_off channel=2 note=38 velocity=127 time=384
note_off channel=2 note=38 velocity=127 time=0
note_off channel=2 note=38 velocity=127 time=0
note_off channel=2 note=50 velocity=127 time=0
note_off channel=2 note=50 velocity=127 time=0
note_off channel=2 note=50 velocity=127 time=0
note_on channel=2 note=37 velocity=127 time=192
note_on channel=2 note=37 velocity=127 time=0
note_on channel=2 note=37 velocity=127 time=0
note_on channel=2 note=49 velocity=127 time=0
note_on channel=2 note=49 velocity=127 time=0
note_on channel=2 note=49 velocity=127 time=0
note_off channel=2 note=37 velocity=127 time=128
note_off channel=2 note=37 velocity=127 time=0
note_off channel=2 note=37 velocity=127 time=0
note_off channel=2 note=49 velocity=127 time=0
note_off channel=2 note=49 velocity=127 time=0
note_off channel=2 note=49 velocity=127 time=0
note_on channel=2 note=37 velocity=127 time=64
note_on channel=2 note=37 velocity=127 time=0
note_on channel=2 note=37 velocity=127 time=0
note_on channel=2 note=49 velocity=127 time=0
note_on channel=2 note=49 velocity=127 time=0
note_on channel=2 note=49 velocity=127 time=0
note_off channel=2 note=37 velocity=127 time=384
note_off channel=2 note=37 velocity=127 time=0
note_off channel=2 note=37 velocity=127 time=0
note_off channel=2 note=49 velocity=127 time=0
note_off channel=2 note=49 velocity=127 time=0
note_off channel=2 note=49 velocity=127 time=0
note_on channel=2 note=35 velocity=127 time=192
note_on channel=2 note=35 velocity=127 time=0
note_on channel=2 note=35 velocity=127 time=0
note_on channel=2 note=47 velocity=127 time=0
note_on channel=2 note=47 velocity=127 time=0
note_on channel=2 note=47 velocity=127 time=0
note_off channel=2 note=35 velocity=127 time=128
note_off channel=2 note=35 velocity=127 time=0
note_off channel=2 note=35 velocity=127 time=0
note_off channel=2 note=47 velocity=127 time=0
note_off channel=2 note=47 velocity=127 time=0
note_off channel=2 note=47 velocity=127 time=0
note_on channel=2 note=43 velocity=127 time=64
note_on channel=2 note=43 velocity=127 time=0
note_on channel=2 note=43 velocity=127 time=0
note_on channel=2 note=55 velocity=127 time=0
note_on channel=2 note=55 velocity=127 time=0
note_on channel=2 note=55 velocity=127 time=0
note_off channel=2 note=43 velocity=127 time=64
note_off channel=2 note=43 velocity=127 time=0
note_off channel=2 note=43 velocity=127 time=0
note_off channel=2 note=55 velocity=127 time=0
note_off channel=2 note=55 velocity=127 time=0
note_off channel=2 note=55 velocity=127 time=0
note_on channel=2 note=45 velocity=127 time=32
note_on channel=2 note=45 velocity=127 time=0
note_on channel=2 note=45 velocity=127 time=0
note_on channel=2 note=57 velocity=127 time=0
note_on channel=2 note=57 velocity=127 time=0
note_on channel=2 note=57 velocity=127 time=0
note_off channel=2 note=45 velocity=127 time=64
note_off channel=2 note=45 velocity=127 time=0
note_off channel=2 note=45 velocity=127 time=0
note_off channel=2 note=57 velocity=127 time=0
note_off channel=2 note=57 velocity=127 time=0
note_off channel=2 note=57 velocity=127 time=0
note_on channel=2 note=46 velocity=127 time=32
note_on channel=2 note=46 velocity=127 time=0
note_on channel=2 note=46 velocity=127 time=0
note_on channel=2 note=58 velocity=127 time=0
note_on channel=2 note=58 velocity=127 time=0
note_on channel=2 note=58 velocity=127 time=0
note_off channel=2 note=46 velocity=127 time=40
note_off channel=2 note=46 velocity=127 time=0
note_off channel=2 note=46 velocity=127 time=0
note_off channel=2 note=58 velocity=127 time=0
note_off channel=2 note=58 velocity=127 time=0
note_off channel=2 note=58 velocity=127 time=0
note_on channel=2 note=45 velocity=127 time=24
note_on channel=2 note=45 velocity=127 time=0
note_on channel=2 note=45 velocity=127 time=0
note_on channel=2 note=57 velocity=127 time=0
note_on channel=2 note=57 velocity=127 time=0
note_on channel=2 note=57 velocity=127 time=0
note_off channel=2 note=45 velocity=127 time=40
note_off channel=2 note=45 velocity=127 time=0
note_off channel=2 note=45 velocity=127 time=0
note_off channel=2 note=57 velocity=127 time=0
note_off channel=2 note=57 velocity=127 time=0
note_off channel=2 note=57 velocity=127 time=0
note_on channel=2 note=43 velocity=127 time=24
note_on channel=2 note=43 velocity=127 time=0
note_on channel=2 note=43 velocity=127 time=0
note_on channel=2 note=55 velocity=127 time=0
note_on channel=2 note=55 velocity=127 time=0
note_on channel=2 note=55 velocity=127 time=0
note_off channel=2 note=43 velocity=127 time=40
note_off channel=2 note=43 velocity=127 time=0
note_off channel=2 note=43 velocity=127 time=0
note_off channel=2 note=55 velocity=127 time=0
note_off channel=2 note=55 velocity=127 time=0
note_off channel=2 note=55 velocity=127 time=0
note_on channel=2 note=45 velocity=127 time=24
note_on channel=2 note=45 velocity=127 time=0
note_on channel=2 note=45 velocity=127 time=0
note_on channel=2 note=57 velocity=127 time=0
note_on channel=2 note=57 velocity=127 time=0
note_on channel=2 note=57 velocity=127 time=0
note_off channel=2 note=45 velocity=127 time=64
note_off channel=2 note=45 velocity=127 time=0
note_off channel=2 note=45 velocity=127 time=0
note_off channel=2 note=57 velocity=127 time=0
note_off channel=2 note=57 velocity=127 time=0
note_off channel=2 note=57 velocity=127 time=0
note_on channel=2 note=40 velocity=127 time=32
note_on channel=2 note=40 velocity=127 time=0
note_on channel=2 note=40 velocity=127 time=0
note_on channel=2 note=52 velocity=127 time=0
note_on channel=2 note=52 velocity=127 time=0
note_on channel=2 note=52 velocity=127 time=0
note_off channel=2 note=40 velocity=127 time=64
note_off channel=2 note=40 velocity=127 time=0
note_off channel=2 note=40 velocity=127 time=0
note_off channel=2 note=52 velocity=127 time=0
note_off channel=2 note=52 velocity=127 time=0
note_off channel=2 note=52 velocity=127 time=0
note_on channel=2 note=28 velocity=127 time=32
note_on channel=2 note=28 velocity=127 time=0
note_on channel=2 note=28 velocity=127 time=0
note_on channel=2 note=40 velocity=127 time=0
note_on channel=2 note=40 velocity=127 time=0
note_on channel=2 note=40 velocity=127 time=0
note_off channel=2 note=28 velocity=127 time=128
note_off channel=2 note=28 velocity=127 time=0
note_off channel=2 note=28 velocity=127 time=0
note_off channel=2 note=40 velocity=127 time=0
note_off channel=2 note=40 velocity=127 time=0
note_off channel=2 note=40 velocity=127 time=0
note_on channel=2 note=40 velocity=127 time=64
note_on channel=2 note=40 velocity=127 time=0
note_on channel=2 note=40 velocity=127 time=0
note_on channel=2 note=52 velocity=127 time=0
note_on channel=2 note=52 velocity=127 time=0
note_on channel=2 note=52 velocity=127 time=0
note_off channel=2 note=40 velocity=127 time=384
note_off channel=2 note=40 velocity=127 time=0
note_off channel=2 note=40 velocity=127 time=0
note_off channel=2 note=52 velocity=127 time=0
note_off channel=2 note=52 velocity=127 time=0
note_off channel=2 note=52 velocity=127 time=0
note_on channel=2 note=38 velocity=127 time=192
note_on channel=2 note=38 velocity=127 time=0
note_on channel=2 note=38 velocity=127 time=0
note_on channel=2 note=50 velocity=127 time=0
note_on channel=2 note=50 velocity=127 time=0
note_on channel=2 note=50 velocity=127 time=0
note_off channel=2 note=38 velocity=127 time=128
note_off channel=2 note=38 velocity=127 time=0
note_off channel=2 note=38 velocity=127 time=0
note_off channel=2 note=50 velocity=127 time=0
note_off channel=2 note=50 velocity=127 time=0
note_off channel=2 note=50 velocity=127 time=0
note_on channel=2 note=38 velocity=127 time=64
note_on channel=2 note=38 velocity=127 time=0
note_on channel=2 note=38 velocity=127 time=0
note_on channel=2 note=50 velocity=127 time=0
note_on channel=2 note=50 velocity=127 time=0
note_on channel=2 note=50 velocity=127 time=0
note_off channel=2 note=38 velocity=127 time=384
note_off channel=2 note=38 velocity=127 time=0
note_off channel=2 note=38 velocity=127 time=0
note_off channel=2 note=50 velocity=127 time=0
note_off channel=2 note=50 velocity=127 time=0
note_off channel=2 note=50 velocity=127 time=0
note_on channel=2 note=37 velocity=127 time=192
note_on channel=2 note=37 velocity=127 time=0
note_on channel=2 note=37 velocity=127 time=0
note_on channel=2 note=49 velocity=127 time=0
note_on channel=2 note=49 velocity=127 time=0
note_on channel=2 note=49 velocity=127 time=0
note_off channel=2 note=37 velocity=127 time=128
note_off channel=2 note=37 velocity=127 time=0
note_off channel=2 note=37 velocity=127 time=0
note_off channel=2 note=49 velocity=127 time=0
note_off channel=2 note=49 velocity=127 time=0
note_off channel=2 note=49 velocity=127 time=0
note_on channel=2 note=37 velocity=127 time=64
note_on channel=2 note=37 velocity=127 time=0
note_on channel=2 note=37 velocity=127 time=0
note_on channel=2 note=49 velocity=127 time=0
note_on channel=2 note=49 velocity=127 time=0
note_on channel=2 note=49 velocity=127 time=0
note_off channel=2 note=37 velocity=127 time=384
note_off channel=2 note=37 velocity=127 time=0
note_off channel=2 note=37 velocity=127 time=0
note_off channel=2 note=49 velocity=127 time=0
note_off channel=2 note=49 velocity=127 time=0
note_off channel=2 note=49 velocity=127 time=0
note_on channel=2 note=38 velocity=127 time=192
note_on channel=2 note=38 velocity=127 time=0
note_on channel=2 note=38 velocity=127 time=0
note_off channel=2 note=38 velocity=127 time=128
note_off channel=2 note=38 velocity=127 time=0
note_off channel=2 note=38 velocity=127 time=0
note_on channel=2 note=50 velocity=127 time=64
note_off channel=2 note=50 velocity=127 time=128
note_on channel=2 note=38 velocity=127 time=64
note_on channel=2 note=38 velocity=127 time=0
note_on channel=2 note=38 velocity=127 time=0
note_off channel=2 note=38 velocity=127 time=128
note_off channel=2 note=38 velocity=127 time=0
note_off channel=2 note=38 velocity=127 time=0
note_on channel=2 note=50 velocity=127 time=64
note_off channel=2 note=50 velocity=127 time=128
note_on channel=2 note=28 velocity=127 time=64
note_on channel=2 note=28 velocity=127 time=0
note_on channel=2 note=28 velocity=127 time=0
note_on channel=2 note=40 velocity=127 time=0
note_on channel=2 note=40 velocity=127 time=0
note_on channel=2 note=40 velocity=127 time=0
note_off channel=2 note=28 velocity=127 time=128
note_off channel=2 note=28 velocity=127 time=0
note_off channel=2 note=28 velocity=127 time=0
note_off channel=2 note=40 velocity=127 time=0
note_off channel=2 note=40 velocity=127 time=0
note_off channel=2 note=40 velocity=127 time=0
note_on channel=2 note=40 velocity=127 time=64
note_on channel=2 note=40 velocity=127 time=0
note_on channel=2 note=40 velocity=127 time=0
note_on channel=2 note=52 velocity=127 time=0
note_on channel=2 note=52 velocity=127 time=0
note_on channel=2 note=52 velocity=127 time=0
note_off channel=2 note=40 velocity=127 time=384
note_off channel=2 note=40 velocity=127 time=0
note_off channel=2 note=40 velocity=127 time=0
note_off channel=2 note=52 velocity=127 time=0
note_off channel=2 note=52 velocity=127 time=0
note_off channel=2 note=52 velocity=127 time=0
note_on channel=2 note=38 velocity=127 time=192
note_on channel=2 note=38 velocity=127 time=0
note_on channel=2 note=38 velocity=127 time=0
note_on channel=2 note=50 velocity=127 time=0
note_on channel=2 note=50 velocity=127 time=0
note_on channel=2 note=50 velocity=127 time=0
note_off channel=2 note=38 velocity=127 time=128
note_off channel=2 note=38 velocity=127 time=0
note_off channel=2 note=38 velocity=127 time=0
note_off channel=2 note=50 velocity=127 time=0
note_off channel=2 note=50 velocity=127 time=0
note_off channel=2 note=50 velocity=127 time=0
note_on channel=2 note=38 velocity=127 time=64
note_on channel=2 note=38 velocity=127 time=0
note_on channel=2 note=38 velocity=127 time=0
note_on channel=2 note=50 velocity=127 time=0
note_on channel=2 note=50 velocity=127 time=0
note_on channel=2 note=50 velocity=127 time=0
note_off channel=2 note=38 velocity=127 time=384
note_off channel=2 note=38 velocity=127 time=0
note_off channel=2 note=38 velocity=127 time=0
note_off channel=2 note=50 velocity=127 time=0
note_off channel=2 note=50 velocity=127 time=0
note_off channel=2 note=50 velocity=127 time=0
note_on channel=2 note=37 velocity=127 time=192
note_on channel=2 note=37 velocity=127 time=0
note_on channel=2 note=37 velocity=127 time=0
note_on channel=2 note=49 velocity=127 time=0
note_on channel=2 note=49 velocity=127 time=0
note_on channel=2 note=49 velocity=127 time=0
note_off channel=2 note=37 velocity=127 time=128
note_off channel=2 note=37 velocity=127 time=0
note_off channel=2 note=37 velocity=127 time=0
note_off channel=2 note=49 velocity=127 time=0
note_off channel=2 note=49 velocity=127 time=0
note_off channel=2 note=49 velocity=127 time=0
note_on channel=2 note=37 velocity=127 time=64
note_on channel=2 note=37 velocity=127 time=0
note_on channel=2 note=37 velocity=127 time=0
note_on channel=2 note=49 velocity=127 time=0
note_on channel=2 note=49 velocity=127 time=0
note_on channel=2 note=49 velocity=127 time=0
note_off channel=2 note=37 velocity=127 time=384
note_off channel=2 note=37 velocity=127 time=0
note_off channel=2 note=37 velocity=127 time=0
note_off channel=2 note=49 velocity=127 time=0
note_off channel=2 note=49 velocity=127 time=0
note_off channel=2 note=49 velocity=127 time=0
note_on channel=2 note=35 velocity=127 time=192
note_on channel=2 note=35 velocity=127 time=0
note_on channel=2 note=35 velocity=127 time=0
note_on channel=2 note=47 velocity=127 time=0
note_on channel=2 note=47 velocity=127 time=0
note_on channel=2 note=47 velocity=127 time=0
note_off channel=2 note=35 velocity=127 time=128
note_off channel=2 note=35 velocity=127 time=0
note_off channel=2 note=35 velocity=127 time=0
note_off channel=2 note=47 velocity=127 time=0
note_off channel=2 note=47 velocity=127 time=0
note_off channel=2 note=47 velocity=127 time=0
note_on channel=2 note=43 velocity=127 time=64
note_on channel=2 note=43 velocity=127 time=0
note_on channel=2 note=43 velocity=127 time=0
note_on channel=2 note=55 velocity=127 time=0
note_on channel=2 note=55 velocity=127 time=0
note_on channel=2 note=55 velocity=127 time=0
note_off channel=2 note=43 velocity=127 time=64
note_off channel=2 note=43 velocity=127 time=0
note_off channel=2 note=43 velocity=127 time=0
note_off channel=2 note=55 velocity=127 time=0
note_off channel=2 note=55 velocity=127 time=0
note_off channel=2 note=55 velocity=127 time=0
note_on channel=2 note=45 velocity=127 time=32
note_on channel=2 note=45 velocity=127 time=0
note_on channel=2 note=45 velocity=127 time=0
note_on channel=2 note=57 velocity=127 time=0
note_on channel=2 note=57 velocity=127 time=0
note_on channel=2 note=57 velocity=127 time=0
note_off channel=2 note=45 velocity=127 time=64
note_off channel=2 note=45 velocity=127 time=0
note_off channel=2 note=45 velocity=127 time=0
note_off channel=2 note=57 velocity=127 time=0
note_off channel=2 note=57 velocity=127 time=0
note_off channel=2 note=57 velocity=127 time=0
note_on channel=2 note=46 velocity=127 time=32
note_on channel=2 note=46 velocity=127 time=0
note_on channel=2 note=46 velocity=127 time=0
note_on channel=2 note=58 velocity=127 time=0
note_on channel=2 note=58 velocity=127 time=0
note_on channel=2 note=58 velocity=127 time=0
note_off channel=2 note=46 velocity=127 time=40
note_off channel=2 note=46 velocity=127 time=0
note_off channel=2 note=46 velocity=127 time=0
note_off channel=2 note=58 velocity=127 time=0
note_off channel=2 note=58 velocity=127 time=0
note_off channel=2 note=58 velocity=127 time=0
note_on channel=2 note=45 velocity=127 time=24
note_on channel=2 note=45 velocity=127 time=0
note_on channel=2 note=45 velocity=127 time=0
note_on channel=2 note=57 velocity=127 time=0
note_on channel=2 note=57 velocity=127 time=0
note_on channel=2 note=57 velocity=127 time=0
note_off channel=2 note=45 velocity=127 time=40
note_off channel=2 note=45 velocity=127 time=0
note_off channel=2 note=45 velocity=127 time=0
note_off channel=2 note=57 velocity=127 time=0
note_off channel=2 note=57 velocity=127 time=0
note_off channel=2 note=57 velocity=127 time=0
note_on channel=2 note=43 velocity=127 time=24
note_on channel=2 note=43 velocity=127 time=0
note_on channel=2 note=43 velocity=127 time=0
note_on channel=2 note=55 velocity=127 time=0
note_on channel=2 note=55 velocity=127 time=0
note_on channel=2 note=55 velocity=127 time=0
note_off channel=2 note=43 velocity=127 time=40
note_off channel=2 note=43 velocity=127 time=0
note_off channel=2 note=43 velocity=127 time=0
note_off channel=2 note=55 velocity=127 time=0
note_off channel=2 note=55 velocity=127 time=0
note_off channel=2 note=55 velocity=127 time=0
note_on channel=2 note=45 velocity=127 time=24
note_on channel=2 note=45 velocity=127 time=0
note_on channel=2 note=45 velocity=127 time=0
note_on channel=2 note=57 velocity=127 time=0
note_on channel=2 note=57 velocity=127 time=0
note_on channel=2 note=57 velocity=127 time=0
note_off channel=2 note=45 velocity=127 time=64
note_off channel=2 note=45 velocity=127 time=0
note_off channel=2 note=45 velocity=127 time=0
note_off channel=2 note=57 velocity=127 time=0
note_off channel=2 note=57 velocity=127 time=0
note_off channel=2 note=57 velocity=127 time=0
note_on channel=2 note=40 velocity=127 time=32
note_on channel=2 note=40 velocity=127 time=0
note_on channel=2 note=40 velocity=127 time=0
note_on channel=2 note=52 velocity=127 time=0
note_on channel=2 note=52 velocity=127 time=0
note_on channel=2 note=52 velocity=127 time=0
note_off channel=2 note=40 velocity=127 time=64
note_off channel=2 note=40 velocity=127 time=0
note_off channel=2 note=40 velocity=127 time=0
note_off channel=2 note=52 velocity=127 time=0
note_off channel=2 note=52 velocity=127 time=0
note_off channel=2 note=52 velocity=127 time=0
note_on channel=2 note=28 velocity=127 time=32
note_on channel=2 note=28 velocity=127 time=0
note_on channel=2 note=28 velocity=127 time=0
note_on channel=2 note=40 velocity=127 time=0
note_on channel=2 note=40 velocity=127 time=0
note_on channel=2 note=40 velocity=127 time=0
note_off channel=2 note=28 velocity=127 time=128
note_off channel=2 note=28 velocity=127 time=0
note_off channel=2 note=28 velocity=127 time=0
note_off channel=2 note=40 velocity=127 time=0
note_off channel=2 note=40 velocity=127 time=0
note_off channel=2 note=40 velocity=127 time=0
note_on channel=2 note=40 velocity=127 time=64
note_on channel=2 note=40 velocity=127 time=0
note_on channel=2 note=40 velocity=127 time=0
note_on channel=2 note=52 velocity=127 time=0
note_on channel=2 note=52 velocity=127 time=0
note_on channel=2 note=52 velocity=127 time=0
note_off channel=2 note=40 velocity=127 time=384
note_off channel=2 note=40 velocity=127 time=0
note_off channel=2 note=40 velocity=127 time=0
note_off channel=2 note=52 velocity=127 time=0
note_off channel=2 note=52 velocity=127 time=0
note_off channel=2 note=52 velocity=127 time=0
note_on channel=2 note=38 velocity=127 time=192
note_on channel=2 note=38 velocity=127 time=0
note_on channel=2 note=38 velocity=127 time=0
note_on channel=2 note=50 velocity=127 time=0
note_on channel=2 note=50 velocity=127 time=0
note_on channel=2 note=50 velocity=127 time=0
note_off channel=2 note=38 velocity=127 time=128
note_off channel=2 note=38 velocity=127 time=0
note_off channel=2 note=38 velocity=127 time=0
note_off channel=2 note=50 velocity=127 time=0
note_off channel=2 note=50 velocity=127 time=0
note_off channel=2 note=50 velocity=127 time=0
note_on channel=2 note=38 velocity=127 time=64
note_on channel=2 note=38 velocity=127 time=0
note_on channel=2 note=38 velocity=127 time=0
note_on channel=2 note=50 velocity=127 time=0
note_on channel=2 note=50 velocity=127 time=0
note_on channel=2 note=50 velocity=127 time=0
note_off channel=2 note=38 velocity=127 time=384
note_off channel=2 note=38 velocity=127 time=0
note_off channel=2 note=38 velocity=127 time=0
note_off channel=2 note=50 velocity=127 time=0
note_off channel=2 note=50 velocity=127 time=0
note_off channel=2 note=50 velocity=127 time=0
note_on channel=2 note=37 velocity=127 time=192
note_on channel=2 note=37 velocity=127 time=0
note_on channel=2 note=37 velocity=127 time=0
note_on channel=2 note=49 velocity=127 time=0
note_on channel=2 note=49 velocity=127 time=0
note_on channel=2 note=49 velocity=127 time=0
note_off channel=2 note=37 velocity=127 time=128
note_off channel=2 note=37 velocity=127 time=0
note_off channel=2 note=37 velocity=127 time=0
note_off channel=2 note=49 velocity=127 time=0
note_off channel=2 note=49 velocity=127 time=0
note_off channel=2 note=49 velocity=127 time=0
note_on channel=2 note=37 velocity=127 time=64
note_on channel=2 note=37 velocity=127 time=0
note_on channel=2 note=37 velocity=127 time=0
note_on channel=2 note=49 velocity=127 time=0
note_on channel=2 note=49 velocity=127 time=0
note_on channel=2 note=49 velocity=127 time=0
note_off channel=2 note=37 velocity=127 time=384
note_off channel=2 note=37 velocity=127 time=0
note_off channel=2 note=37 velocity=127 time=0
note_off channel=2 note=49 velocity=127 time=0
note_off channel=2 note=49 velocity=127 time=0
note_off channel=2 note=49 velocity=127 time=0
note_on channel=2 note=38 velocity=127 time=192
note_on channel=2 note=38 velocity=127 time=0
note_on channel=2 note=38 velocity=127 time=0
note_off channel=2 note=38 velocity=127 time=128
note_off channel=2 note=38 velocity=127 time=0
note_off channel=2 note=38 velocity=127 time=0
note_on channel=2 note=50 velocity=127 time=64
note_off channel=2 note=50 velocity=127 time=128
note_on channel=2 note=38 velocity=127 time=64
note_on channel=2 note=38 velocity=127 time=0
note_on channel=2 note=38 velocity=127 time=0
note_off channel=2 note=38 velocity=127 time=128
note_off channel=2 note=38 velocity=127 time=0
note_off channel=2 note=38 velocity=127 time=0
note_on channel=2 note=50 velocity=127 time=64
note_off channel=2 note=50 velocity=127 time=128
note_on channel=2 note=28 velocity=127 time=64
note_on channel=2 note=28 velocity=127 time=0
note_on channel=2 note=28 velocity=127 time=0
note_on channel=2 note=40 velocity=127 time=0
note_on channel=2 note=40 velocity=127 time=0
note_on channel=2 note=40 velocity=127 time=0
note_off channel=2 note=28 velocity=127 time=128
note_off channel=2 note=28 velocity=127 time=0
note_off channel=2 note=28 velocity=127 time=0
note_off channel=2 note=40 velocity=127 time=0
note_off channel=2 note=40 velocity=127 time=0
note_off channel=2 note=40 velocity=127 time=0
note_on channel=2 note=40 velocity=127 time=64
note_on channel=2 note=40 velocity=127 time=0
note_on channel=2 note=40 velocity=127 time=0
note_on channel=2 note=52 velocity=127 time=0
note_on channel=2 note=52 velocity=127 time=0
note_on channel=2 note=52 velocity=127 time=0
note_off channel=2 note=40 velocity=127 time=384
note_off channel=2 note=40 velocity=127 time=0
note_off channel=2 note=40 velocity=127 time=0
note_off channel=2 note=52 velocity=127 time=0
note_off channel=2 note=52 velocity=127 time=0
note_off channel=2 note=52 velocity=127 time=0
note_on channel=2 note=38 velocity=127 time=192
note_on channel=2 note=38 velocity=127 time=0
note_on channel=2 note=38 velocity=127 time=0
note_on channel=2 note=50 velocity=127 time=0
note_on channel=2 note=50 velocity=127 time=0
note_on channel=2 note=50 velocity=127 time=0
note_off channel=2 note=38 velocity=127 time=128
note_off channel=2 note=38 velocity=127 time=0
note_off channel=2 note=38 velocity=127 time=0
note_off channel=2 note=50 velocity=127 time=0
note_off channel=2 note=50 velocity=127 time=0
note_off channel=2 note=50 velocity=127 time=0
note_on channel=2 note=38 velocity=127 time=64
note_on channel=2 note=38 velocity=127 time=0
note_on channel=2 note=38 velocity=127 time=0
note_on channel=2 note=50 velocity=127 time=0
note_on channel=2 note=50 velocity=127 time=0
note_on channel=2 note=50 velocity=127 time=0
note_off channel=2 note=38 velocity=127 time=384
note_off channel=2 note=38 velocity=127 time=0
note_off channel=2 note=38 velocity=127 time=0
note_off channel=2 note=50 velocity=127 time=0
note_off channel=2 note=50 velocity=127 time=0
note_off channel=2 note=50 velocity=127 time=0
note_on channel=2 note=37 velocity=127 time=192
note_on channel=2 note=37 velocity=127 time=0
note_on channel=2 note=37 velocity=127 time=0
note_on channel=2 note=49 velocity=127 time=0
note_on channel=2 note=49 velocity=127 time=0
note_on channel=2 note=49 velocity=127 time=0
note_off channel=2 note=37 velocity=127 time=128
note_off channel=2 note=37 velocity=127 time=0
note_off channel=2 note=37 velocity=127 time=0
note_off channel=2 note=49 velocity=127 time=0
note_off channel=2 note=49 velocity=127 time=0
note_off channel=2 note=49 velocity=127 time=0
note_on channel=2 note=37 velocity=127 time=64
note_on channel=2 note=37 velocity=127 time=0
note_on channel=2 note=37 velocity=127 time=0
note_on channel=2 note=49 velocity=127 time=0
note_on channel=2 note=49 velocity=127 time=0
note_on channel=2 note=49 velocity=127 time=0
note_off channel=2 note=37 velocity=127 time=384
note_off channel=2 note=37 velocity=127 time=0
note_off channel=2 note=37 velocity=127 time=0
note_off channel=2 note=49 velocity=127 time=0
note_off channel=2 note=49 velocity=127 time=0
note_off channel=2 note=49 velocity=127 time=0
note_on channel=2 note=35 velocity=127 time=192
note_on channel=2 note=35 velocity=127 time=0
note_on channel=2 note=35 velocity=127 time=0
note_on channel=2 note=47 velocity=127 time=0
note_on channel=2 note=47 velocity=127 time=0
note_on channel=2 note=47 velocity=127 time=0
note_off channel=2 note=35 velocity=127 time=128
note_off channel=2 note=35 velocity=127 time=0
note_off channel=2 note=35 velocity=127 time=0
note_off channel=2 note=47 velocity=127 time=0
note_off channel=2 note=47 velocity=127 time=0
note_off channel=2 note=47 velocity=127 time=0
note_on channel=2 note=43 velocity=127 time=64
note_on channel=2 note=43 velocity=127 time=0
note_on channel=2 note=43 velocity=127 time=0
note_on channel=2 note=55 velocity=127 time=0
note_on channel=2 note=55 velocity=127 time=0
note_on channel=2 note=55 velocity=127 time=0
note_off channel=2 note=43 velocity=127 time=64
note_off channel=2 note=43 velocity=127 time=0
note_off channel=2 note=43 velocity=127 time=0
note_off channel=2 note=55 velocity=127 time=0
note_off channel=2 note=55 velocity=127 time=0
note_off channel=2 note=55 velocity=127 time=0
note_on channel=2 note=45 velocity=127 time=32
note_on channel=2 note=45 velocity=127 time=0
note_on channel=2 note=45 velocity=127 time=0
note_on channel=2 note=57 velocity=127 time=0
note_on channel=2 note=57 velocity=127 time=0
note_on channel=2 note=57 velocity=127 time=0
note_off channel=2 note=45 velocity=127 time=64
note_off channel=2 note=45 velocity=127 time=0
note_off channel=2 note=45 velocity=127 time=0
note_off channel=2 note=57 velocity=127 time=0
note_off channel=2 note=57 velocity=127 time=0
note_off channel=2 note=57 velocity=127 time=0
note_on channel=2 note=46 velocity=127 time=32
note_on channel=2 note=46 velocity=127 time=0
note_on channel=2 note=46 velocity=127 time=0
note_on channel=2 note=58 velocity=127 time=0
note_on channel=2 note=58 velocity=127 time=0
note_on channel=2 note=58 velocity=127 time=0
note_off channel=2 note=46 velocity=127 time=40
note_off channel=2 note=46 velocity=127 time=0
note_off channel=2 note=46 velocity=127 time=0
note_off channel=2 note=58 velocity=127 time=0
note_off channel=2 note=58 velocity=127 time=0
note_off channel=2 note=58 velocity=127 time=0
note_on channel=2 note=45 velocity=127 time=24
note_on channel=2 note=45 velocity=127 time=0
note_on channel=2 note=45 velocity=127 time=0
note_on channel=2 note=57 velocity=127 time=0
note_on channel=2 note=57 velocity=127 time=0
note_on channel=2 note=57 velocity=127 time=0
note_off channel=2 note=45 velocity=127 time=40
note_off channel=2 note=45 velocity=127 time=0
note_off channel=2 note=45 velocity=127 time=0
note_off channel=2 note=57 velocity=127 time=0
note_off channel=2 note=57 velocity=127 time=0
note_off channel=2 note=57 velocity=127 time=0
note_on channel=2 note=43 velocity=127 time=24
note_on channel=2 note=43 velocity=127 time=0
note_on channel=2 note=43 velocity=127 time=0
note_on channel=2 note=55 velocity=127 time=0
note_on channel=2 note=55 velocity=127 time=0
note_on channel=2 note=55 velocity=127 time=0
note_off channel=2 note=43 velocity=127 time=40
note_off channel=2 note=43 velocity=127 time=0
note_off channel=2 note=43 velocity=127 time=0
note_off channel=2 note=55 velocity=127 time=0
note_off channel=2 note=55 velocity=127 time=0
note_off channel=2 note=55 velocity=127 time=0
note_on channel=2 note=45 velocity=127 time=24
note_on channel=2 note=45 velocity=127 time=0
note_on channel=2 note=45 velocity=127 time=0
note_on channel=2 note=57 velocity=127 time=0
note_on channel=2 note=57 velocity=127 time=0
note_on channel=2 note=57 velocity=127 time=0
note_off channel=2 note=45 velocity=127 time=64
note_off channel=2 note=45 velocity=127 time=0
note_off channel=2 note=45 velocity=127 time=0
note_off channel=2 note=57 velocity=127 time=0
note_off channel=2 note=57 velocity=127 time=0
note_off channel=2 note=57 velocity=127 time=0
note_on channel=2 note=40 velocity=127 time=32
note_on channel=2 note=40 velocity=127 time=0
note_on channel=2 note=40 velocity=127 time=0
note_on channel=2 note=52 velocity=127 time=0
note_on channel=2 note=52 velocity=127 time=0
note_on channel=2 note=52 velocity=127 time=0
note_off channel=2 note=40 velocity=127 time=64
note_off channel=2 note=40 velocity=127 time=0
note_off channel=2 note=40 velocity=127 time=0
note_off channel=2 note=52 velocity=127 time=0
note_off channel=2 note=52 velocity=127 time=0
note_off channel=2 note=52 velocity=127 time=0
note_on channel=2 note=28 velocity=127 time=32
note_on channel=2 note=28 velocity=127 time=0
note_on channel=2 note=28 velocity=127 time=0
note_on channel=2 note=40 velocity=127 time=0
note_on channel=2 note=40 velocity=127 time=0
note_on channel=2 note=40 velocity=127 time=0
note_off channel=2 note=28 velocity=127 time=128
note_off channel=2 note=28 velocity=127 time=0
note_off channel=2 note=28 velocity=127 time=0
note_off channel=2 note=40 velocity=127 time=0
note_off channel=2 note=40 velocity=127 time=0
note_off channel=2 note=40 velocity=127 time=0
note_on channel=2 note=40 velocity=127 time=64
note_on channel=2 note=40 velocity=127 time=0
note_on channel=2 note=40 velocity=127 time=0
note_on channel=2 note=52 velocity=127 time=0
note_on channel=2 note=52 velocity=127 time=0
note_on channel=2 note=52 velocity=127 time=0
note_off channel=2 note=40 velocity=127 time=384
note_off channel=2 note=40 velocity=127 time=0
note_off channel=2 note=40 velocity=127 time=0
note_off channel=2 note=52 velocity=127 time=0
note_off channel=2 note=52 velocity=127 time=0
note_off channel=2 note=52 velocity=127 time=0
note_on channel=2 note=38 velocity=127 time=192
note_on channel=2 note=38 velocity=127 time=0
note_on channel=2 note=38 velocity=127 time=0
note_on channel=2 note=50 velocity=127 time=0
note_on channel=2 note=50 velocity=127 time=0
note_on channel=2 note=50 velocity=127 time=0
note_off channel=2 note=38 velocity=127 time=128
note_off channel=2 note=38 velocity=127 time=0
note_off channel=2 note=38 velocity=127 time=0
note_off channel=2 note=50 velocity=127 time=0
note_off channel=2 note=50 velocity=127 time=0
note_off channel=2 note=50 velocity=127 time=0
note_on channel=2 note=38 velocity=127 time=64
note_on channel=2 note=38 velocity=127 time=0
note_on channel=2 note=38 velocity=127 time=0
note_on channel=2 note=50 velocity=127 time=0
note_on channel=2 note=50 velocity=127 time=0
note_on channel=2 note=50 velocity=127 time=0
note_off channel=2 note=38 velocity=127 time=384
note_off channel=2 note=38 velocity=127 time=0
note_off channel=2 note=38 velocity=127 time=0
note_off channel=2 note=50 velocity=127 time=0
note_off channel=2 note=50 velocity=127 time=0
note_off channel=2 note=50 velocity=127 time=0
note_on channel=2 note=37 velocity=127 time=192
note_on channel=2 note=37 velocity=127 time=0
note_on channel=2 note=37 velocity=127 time=0
note_on channel=2 note=49 velocity=127 time=0
note_on channel=2 note=49 velocity=127 time=0
note_on channel=2 note=49 velocity=127 time=0
note_off channel=2 note=37 velocity=127 time=128
note_off channel=2 note=37 velocity=127 time=0
note_off channel=2 note=37 velocity=127 time=0
note_off channel=2 note=49 velocity=127 time=0
note_off channel=2 note=49 velocity=127 time=0
note_off channel=2 note=49 velocity=127 time=0
note_on channel=2 note=37 velocity=127 time=64
note_on channel=2 note=37 velocity=127 time=0
note_on channel=2 note=37 velocity=127 time=0
note_on channel=2 note=49 velocity=127 time=0
note_on channel=2 note=49 velocity=127 time=0
note_on channel=2 note=49 velocity=127 time=0
note_off channel=2 note=37 velocity=127 time=384
note_off channel=2 note=37 velocity=127 time=0
note_off channel=2 note=37 velocity=127 time=0
note_off channel=2 note=49 velocity=127 time=0
note_off channel=2 note=49 velocity=127 time=0
note_off channel=2 note=49 velocity=127 time=0
note_on channel=2 note=38 velocity=127 time=192
note_on channel=2 note=38 velocity=127 time=0
note_on channel=2 note=38 velocity=127 time=0
note_off channel=2 note=38 velocity=127 time=128
note_off channel=2 note=38 velocity=127 time=0
note_off channel=2 note=38 velocity=127 time=0
note_on channel=2 note=50 velocity=127 time=64
note_off channel=2 note=50 velocity=127 time=128
note_on channel=2 note=38 velocity=127 time=64
note_on channel=2 note=38 velocity=127 time=0
note_on channel=2 note=38 velocity=127 time=0
note_off channel=2 note=38 velocity=127 time=128
note_off channel=2 note=38 velocity=127 time=0
note_off channel=2 note=38 velocity=127 time=0
note_on channel=2 note=50 velocity=127 time=64
note_off channel=2 note=50 velocity=127 time=128
<meta message end_of_track time=0>
<meta message track_name name='vocal' time=0>
control_change channel=3 control=0 value=0 time=0
program_change channel=3 program=81 time=0
control_change channel=3 control=91 value=63 time=0
control_change channel=3 control=93 value=70 time=0
<meta message key_signature key='E' time=0>
note_on channel=3 note=76 velocity=127 time=7680
note_on channel=3 note=76 velocity=127 time=0
note_on channel=3 note=76 velocity=127 time=0
note_on channel=3 note=76 velocity=127 time=0
note_on channel=3 note=76 velocity=127 time=0
note_off channel=3 note=76 velocity=127 time=64
note_off channel=3 note=76 velocity=127 time=0
note_off channel=3 note=76 velocity=127 time=0
note_off channel=3 note=76 velocity=127 time=0
note_off channel=3 note=76 velocity=127 time=0
note_on channel=3 note=76 velocity=127 time=32
note_on channel=3 note=76 velocity=127 time=0
note_on channel=3 note=76 velocity=127 time=0
note_on channel=3 note=76 velocity=127 time=0
note_on channel=3 note=76 velocity=127 time=0
note_off channel=3 note=76 velocity=127 time=128
note_off channel=3 note=76 velocity=127 time=0
note_off channel=3 note=76 velocity=127 time=0
note_off channel=3 note=76 velocity=127 time=0
note_off channel=3 note=76 velocity=127 time=0
note_on channel=3 note=76 velocity=127 time=64
note_on channel=3 note=76 velocity=127 time=0
note_on channel=3 note=76 velocity=127 time=0
note_on channel=3 note=76 velocity=127 time=0
note_on channel=3 note=76 velocity=127 time=0
note_off channel=3 note=76 velocity=127 time=256
note_off channel=3 note=76 velocity=127 time=0
note_off channel=3 note=76 velocity=127 time=0
note_off channel=3 note=76 velocity=127 time=0
note_off channel=3 note=76 velocity=127 time=0
note_on channel=3 note=74 velocity=127 time=320
note_on channel=3 note=74 velocity=127 time=0
note_on channel=3 note=74 velocity=127 time=0
note_on channel=3 note=74 velocity=127 time=0
note_on channel=3 note=74 velocity=127 time=0
note_off channel=3 note=74 velocity=127 time=64
note_off channel=3 note=74 velocity=127 time=0
note_off channel=3 note=74 velocity=127 time=0
note_off channel=3 note=74 velocity=127 time=0
note_off channel=3 note=74 velocity=127 time=0
note_on channel=3 note=74 velocity=127 time=32
note_on channel=3 note=74 velocity=127 time=0
note_on channel=3 note=74 velocity=127 time=0
note_on channel=3 note=74 velocity=127 time=0
note_on channel=3 note=74 velocity=127 time=0
note_off channel=3 note=74 velocity=127 time=64
note_off channel=3 note=74 velocity=127 time=0
note_off channel=3 note=74 velocity=127 time=0
note_off channel=3 note=74 velocity=127 time=0
note_off channel=3 note=74 velocity=127 time=0
note_on channel=3 note=74 velocity=127 time=32
note_on channel=3 note=74 velocity=127 time=0
note_on channel=3 note=74 velocity=127 time=0
note_on channel=3 note=74 velocity=127 time=0
note_on channel=3 note=74 velocity=127 time=0
note_off channel=3 note=74 velocity=127 time=64
note_off channel=3 note=74 velocity=127 time=0
note_off channel=3 note=74 velocity=127 time=0
note_off channel=3 note=74 velocity=127 time=0
note_off channel=3 note=74 velocity=127 time=0
note_on channel=3 note=74 velocity=127 time=32
note_on channel=3 note=74 velocity=127 time=0
note_on channel=3 note=74 velocity=127 time=0
note_on channel=3 note=74 velocity=127 time=0
note_on channel=3 note=74 velocity=127 time=0
note_off channel=3 note=74 velocity=127 time=256
note_off channel=3 note=74 velocity=127 time=0
note_off channel=3 note=74 velocity=127 time=0
note_off channel=3 note=74 velocity=127 time=0
note_off channel=3 note=74 velocity=127 time=0
note_on channel=3 note=76 velocity=127 time=224
note_on channel=3 note=76 velocity=127 time=0
note_on channel=3 note=76 velocity=127 time=0
note_on channel=3 note=76 velocity=127 time=0
note_on channel=3 note=76 velocity=127 time=0
note_off channel=3 note=76 velocity=127 time=64
note_off channel=3 note=76 velocity=127 time=0
note_off channel=3 note=76 velocity=127 time=0
note_off channel=3 note=76 velocity=127 time=0
note_off channel=3 note=76 velocity=127 time=0
note_on channel=3 note=76 velocity=127 time=32
note_on channel=3 note=76 velocity=127 time=0
note_on channel=3 note=76 velocity=127 time=0
note_on channel=3 note=76 velocity=127 time=0
note_on channel=3 note=76 velocity=127 time=0
note_off channel=3 note=76 velocity=127 time=64
note_off channel=3 note=76 velocity=127 time=0
note_off channel=3 note=76 velocity=127 time=0
note_off channel=3 note=76 velocity=127 time=0
note_off channel=3 note=76 velocity=127 time=0
note_on channel=3 note=76 velocity=127 time=32
note_on channel=3 note=76 velocity=127 time=0
note_on channel=3 note=76 velocity=127 time=0
note_on channel=3 note=76 velocity=127 time=0
note_on channel=3 note=76 velocity=127 time=0
note_off channel=3 note=76 velocity=127 time=64
note_off channel=3 note=76 velocity=127 time=0
note_off channel=3 note=76 velocity=127 time=0
note_off channel=3 note=76 velocity=127 time=0
note_off channel=3 note=76 velocity=127 time=0
note_on channel=3 note=76 velocity=127 time=32
note_on channel=3 note=76 velocity=127 time=0
note_on channel=3 note=76 velocity=127 time=0
note_on channel=3 note=76 velocity=127 time=0
note_on channel=3 note=76 velocity=127 time=0
note_off channel=3 note=76 velocity=127 time=128
note_off channel=3 note=76 velocity=127 time=0
note_off channel=3 note=76 velocity=127 time=0
note_off channel=3 note=76 velocity=127 time=0
note_off channel=3 note=76 velocity=127 time=0
note_on channel=3 note=71 velocity=127 time=64
note_on channel=3 note=71 velocity=127 time=0
note_on channel=3 note=71 velocity=127 time=0
note_on channel=3 note=71 velocity=127 time=0
note_on channel=3 note=71 velocity=127 time=0
note_off channel=3 note=71 velocity=127 time=128
note_off channel=3 note=71 velocity=127 time=0
note_off channel=3 note=71 velocity=127 time=0
note_off channel=3 note=71 velocity=127 time=0
note_off channel=3 note=71 velocity=127 time=0
note_on channel=3 note=69 velocity=127 time=64
note_on channel=3 note=69 velocity=127 time=0
note_on channel=3 note=69 velocity=127 time=0
note_on channel=3 note=69 velocity=127 time=0
note_on channel=3 note=69 velocity=127 time=0
note_off channel=3 note=69 velocity=127 time=64
note_off channel=3 note=69 velocity=127 time=0
note_off channel=3 note=69 velocity=127 time=0
note_off channel=3 note=69 velocity=127 time=0
note_off channel=3 note=69 velocity=127 time=0
note_on channel=3 note=68 velocity=127 time=32
note_on channel=3 note=68 velocity=127 time=0
note_on channel=3 note=68 velocity=127 time=0
note_on channel=3 note=68 velocity=127 time=0
note_on channel=3 note=68 velocity=127 time=0
note_off channel=3 note=68 velocity=127 time=64
note_off channel=3 note=68 velocity=127 time=0
note_off channel=3 note=68 velocity=127 time=0
note_off channel=3 note=68 velocity=127 time=0
note_off channel=3 note=68 velocity=127 time=0
note_on channel=3 note=71 velocity=127 time=32
note_on channel=3 note=71 velocity=127 time=0
note_on channel=3 note=71 velocity=127 time=0
note_on channel=3 note=71 velocity=127 time=0
note_on channel=3 note=71 velocity=127 time=0
note_off channel=3 note=71 velocity=127 time=128
note_off channel=3 note=71 velocity=127 time=0
note_off channel=3 note=71 velocity=127 time=0
note_off channel=3 note=71 velocity=127 time=0
note_off channel=3 note=71 velocity=127 time=0
note_on channel=3 note=69 velocity=127 time=64
note_on channel=3 note=69 velocity=127 time=0
note_on channel=3 note=69 velocity=127 time=0
note_on channel=3 note=69 velocity=127 time=0
note_on channel=3 note=69 velocity=127 time=0
note_off channel=3 note=69 velocity=127 time=128
note_off channel=3 note=69 velocity=127 time=0
note_off channel=3 note=69 velocity=127 time=0
note_off channel=3 note=69 velocity=127 time=0
note_off channel=3 note=69 velocity=127 time=0
note_on channel=3 note=64 velocity=127 time=64
note_on channel=3 note=64 velocity=127 time=0
note_on channel=3 note=64 velocity=127 time=0
note_on channel=3 note=64 velocity=127 time=0
note_on channel=3 note=64 velocity=127 time=0
note_off channel=3 note=64 velocity=127 time=256
note_off channel=3 note=64 velocity=127 time=0
note_off channel=3 note=64 velocity=127 time=0
note_off channel=3 note=64 velocity=127 time=0
note_off channel=3 note=64 velocity=127 time=0
note_on channel=3 note=74 velocity=127 time=128
note_on channel=3 note=74 velocity=127 time=0
note_on channel=3 note=74 velocity=127 time=0
note_on channel=3 note=74 velocity=127 time=0
note_on channel=3 note=74 velocity=127 time=0
note_off channel=3 note=74 velocity=127 time=128
note_off channel=3 note=74 velocity=127 time=0
note_off channel=3 note=74 velocity=127 time=0
note_off channel=3 note=74 velocity=127 time=0
note_off channel=3 note=74 velocity=127 time=0
note_on channel=3 note=74 velocity=127 time=64
note_on channel=3 note=74 velocity=127 time=0
note_on channel=3 note=74 velocity=127 time=0
note_on channel=3 note=74 velocity=127 time=0
note_on channel=3 note=74 velocity=127 time=0
note_off channel=3 note=74 velocity=127 time=256
note_off channel=3 note=74 velocity=127 time=0
note_off channel=3 note=74 velocity=127 time=0
note_off channel=3 note=74 velocity=127 time=0
note_off channel=3 note=74 velocity=127 time=0
note_on channel=3 note=74 velocity=127 time=224
note_on channel=3 note=74 velocity=127 time=0
note_on channel=3 note=74 velocity=127 time=0
note_on channel=3 note=74 velocity=127 time=0
note_on channel=3 note=74 velocity=127 time=0
note_off channel=3 note=74 velocity=127 time=64
note_off channel=3 note=74 velocity=127 time=0
note_off channel=3 note=74 velocity=127 time=0
note_off channel=3 note=74 velocity=127 time=0
note_off channel=3 note=74 velocity=127 time=0
note_on channel=3 note=74 velocity=127 time=32
note_on channel=3 note=74 velocity=127 time=0
note_on channel=3 note=74 velocity=127 time=0
note_on channel=3 note=74 velocity=127 time=0
note_on channel=3 note=74 velocity=127 time=0
note_off channel=3 note=74 velocity=127 time=64
note_off channel=3 note=74 velocity=127 time=0
note_off channel=3 note=74 velocity=127 time=0
note_off channel=3 note=74 velocity=127 time=0
note_off channel=3 note=74 velocity=127 time=0
note_on channel=3 note=74 velocity=127 time=32
note_on channel=3 note=74 velocity=127 time=0
note_on channel=3 note=74 velocity=127 time=0
note_on channel=3 note=74 velocity=127 time=0
note_on channel=3 note=74 velocity=127 time=0
note_off channel=3 note=74 velocity=127 time=256
note_off channel=3 note=74 velocity=127 time=0
note_off channel=3 note=74 velocity=127 time=0
note_off channel=3 note=74 velocity=127 time=0
note_off channel=3 note=74 velocity=127 time=0
note_on channel=3 note=71 velocity=127 time=416
note_on channel=3 note=71 velocity=127 time=0
note_on channel=3 note=71 velocity=127 time=0
note_on channel=3 note=71 velocity=127 time=0
note_on channel=3 note=71 velocity=127 time=0
note_off channel=3 note=71 velocity=127 time=128
note_off channel=3 note=71 velocity=127 time=0
note_off channel=3 note=71 velocity=127 time=0
note_off channel=3 note=71 velocity=127 time=0
note_off channel=3 note=71 velocity=127 time=0
note_on channel=3 note=71 velocity=127 time=64
note_on channel=3 note=71 velocity=127 time=0
note_on channel=3 note=71 velocity=127 time=0
note_on channel=3 note=71 velocity=127 time=0
note_on channel=3 note=71 velocity=127 time=0
note_off channel=3 note=71 velocity=127 time=128
note_off channel=3 note=71 velocity=127 time=0
note_off channel=3 note=71 velocity=127 time=0
note_off channel=3 note=71 velocity=127 time=0
note_off channel=3 note=71 velocity=127 time=0
note_on channel=3 note=71 velocity=127 time=64
note_on channel=3 note=71 velocity=127 time=0
note_on channel=3 note=71 velocity=127 time=0
note_on channel=3 note=71 velocity=127 time=0
note_on channel=3 note=71 velocity=127 time=0
note_off channel=3 note=71 velocity=127 time=128
note_off channel=3 note=71 velocity=127 time=0
note_off channel=3 note=71 velocity=127 time=0
note_off channel=3 note=71 velocity=127 time=0
note_off channel=3 note=71 velocity=127 time=0
note_on channel=3 note=74 velocity=127 time=64
note_on channel=3 note=74 velocity=127 time=0
note_on channel=3 note=74 velocity=127 time=0
note_on channel=3 note=74 velocity=127 time=0
note_on channel=3 note=74 velocity=127 time=0
note_off channel=3 note=74 velocity=127 time=64
note_off channel=3 note=74 velocity=127 time=0
note_off channel=3 note=74 velocity=127 time=0
note_off channel=3 note=74 velocity=127 time=0
note_off channel=3 note=74 velocity=127 time=0
note_on channel=3 note=73 velocity=127 time=32
note_on channel=3 note=73 velocity=127 time=0
note_on channel=3 note=73 velocity=127 time=0
note_on channel=3 note=73 velocity=127 time=0
note_on channel=3 note=73 velocity=127 time=0
note_off channel=3 note=73 velocity=127 time=64
note_off channel=3 note=73 velocity=127 time=0
note_off channel=3 note=73 velocity=127 time=0
note_off channel=3 note=73 velocity=127 time=0
note_off channel=3 note=73 velocity=127 time=0
note_on channel=3 note=71 velocity=127 time=32
note_on channel=3 note=71 velocity=127 time=0
note_on channel=3 note=71 velocity=127 time=0
note_on channel=3 note=71 velocity=127 time=0
note_on channel=3 note=71 velocity=127 time=0
note_off channel=3 note=71 velocity=127 time=64
note_off channel=3 note=71 velocity=127 time=0
note_off channel=3 note=71 velocity=127 time=0
note_off channel=3 note=71 velocity=127 time=0
note_off channel=3 note=71 velocity=127 time=0
note_on channel=3 note=71 velocity=127 time=32
note_on channel=3 note=71 velocity=127 time=0
note_on channel=3 note=71 velocity=127 time=0
note_on channel=3 note=71 velocity=127 time=0
note_on channel=3 note=71 velocity=127 time=0
note_off channel=3 note=71 velocity=127 time=128
note_off channel=3 note=71 velocity=127 time=0
note_off channel=3 note=71 velocity=127 time=0
note_off channel=3 note=71 velocity=127 time=0
note_off channel=3 note=71 velocity=127 time=0
note_on channel=3 note=71 velocity=127 time=64
note_on channel=3 note=71 velocity=127 time=0
note_on channel=3 note=71 velocity=127 time=0
note_on channel=3 note=71 velocity=127 time=0
note_on channel=3 note=71 velocity=127 time=0
note_off channel=3 note=71 velocity=127 time=64
note_off channel=3 note=71 velocity=127 time=0
note_off channel=3 note=71 velocity=127 time=0
note_off channel=3 note=71 velocity=127 time=0
note_off channel=3 note=71 velocity=127 time=0
note_on channel=3 note=71 velocity=127 time=32
note_on channel=3 note=71 velocity=127 time=0
note_on channel=3 note=71 velocity=127 time=0
note_on channel=3 note=71 velocity=127 time=0
note_on channel=3 note=71 velocity=127 time=0
note_off channel=3 note=71 velocity=127 time=128
note_off channel=3 note=71 velocity=127 time=0
note_off channel=3 note=71 velocity=127 time=0
note_off channel=3 note=71 velocity=127 time=0
note_off channel=3 note=71 velocity=127 time=0
note_on channel=3 note=74 velocity=127 time=64
note_on channel=3 note=74 velocity=127 time=0
note_on channel=3 note=74 velocity=127 time=0
note_on channel=3 note=74 velocity=127 time=0
note_on channel=3 note=74 velocity=127 time=0
note_off channel=3 note=74 velocity=127 time=64
note_off channel=3 note=74 velocity=127 time=0
note_off channel=3 note=74 velocity=127 time=0
note_off channel=3 note=74 velocity=127 time=0
note_off channel=3 note=74 velocity=127 time=0
note_on channel=3 note=74 velocity=127 time=32
note_on channel=3 note=74 velocity=127 time=0
note_on channel=3 note=74 velocity=127 time=0
note_on channel=3 note=74 velocity=127 time=0
note_on channel=3 note=74 velocity=127 time=0
note_off channel=3 note=74 velocity=127 time=64
note_off channel=3 note=74 velocity=127 time=0
note_off channel=3 note=74 velocity=127 time=0
note_off channel=3 note=74 velocity=127 time=0
note_off channel=3 note=74 velocity=127 time=0
note_on channel=3 note=74 velocity=127 time=32
note_on channel=3 note=74 velocity=127 time=0
note_on channel=3 note=74 velocity=127 time=0
note_on channel=3 note=74 velocity=127 time=0
note_on channel=3 note=74 velocity=127 time=0
note_off channel=3 note=74 velocity=127 time=64
note_off channel=3 note=74 velocity=127 time=0
note_off channel=3 note=74 velocity=127 time=0
note_off channel=3 note=74 velocity=127 time=0
note_off channel=3 note=74 velocity=127 time=0
note_on channel=3 note=74 velocity=127 time=32
note_on channel=3 note=74 velocity=127 time=0
note_on channel=3 note=74 velocity=127 time=0
note_on channel=3 note=74 velocity=127 time=0
note_on channel=3 note=74 velocity=127 time=0
note_off channel=3 note=74 velocity=127 time=64
note_off channel=3 note=74 velocity=127 time=0
note_off channel=3 note=74 velocity=127 time=0
note_off channel=3 note=74 velocity=127 time=0
note_off channel=3 note=74 velocity=127 time=0
note_on channel=3 note=74 velocity=127 time=32
note_on channel=3 note=74 velocity=127 time=0
note_on channel=3 note=74 velocity=127 time=0
note_on channel=3 note=74 velocity=127 time=0
note_on channel=3 note=74 velocity=127 time=0
note_off channel=3 note=74 velocity=127 time=128
note_off channel=3 note=74 velocity=127 time=0
note_off channel=3 note=74 velocity=127 time=0
note_off channel=3 note=74 velocity=127 time=0
note_off channel=3 note=74 velocity=127 time=0
note_on channel=3 note=69 velocity=127 time=64
note_on channel=3 note=69 velocity=127 time=0
note_on channel=3 note=69 velocity=127 time=0
note_on channel=3 note=69 velocity=127 time=0
note_on channel=3 note=69 velocity=127 time=0
note_off channel=3 note=69 velocity=127 time=64
note_off channel=3 note=69 velocity=127 time=0
note_off channel=3 note=69 velocity=127 time=0
note_off channel=3 note=69 velocity=127 time=0
note_off channel=3 note=69 velocity=127 time=0
note_on channel=3 note=67 velocity=127 time=32
note_on channel=3 note=67 velocity=127 time=0
note_on channel=3 note=67 velocity=127 time=0
note_on channel=3 note=67 velocity=127 time=0
note_on channel=3 note=67 velocity=127 time=0
note_off channel=3 note=67 velocity=127 time=64
note_off channel=3 note=67 velocity=127 time=0
note_off channel=3 note=67 velocity=127 time=0
note_off channel=3 note=67 velocity=127 time=0
note_off channel=3 note=67 velocity=127 time=0
note_on channel=3 note=69 velocity=127 time=32
note_on channel=3 note=69 velocity=127 time=0
note_on channel=3 note=69 velocity=127 time=0
note_on channel=3 note=69 velocity=127 time=0
note_on channel=3 note=69 velocity=127 time=0
note_off channel=3 note=69 velocity=127 time=64
note_off channel=3 note=69 velocity=127 time=0
note_off channel=3 note=69 velocity=127 time=0
note_off channel=3 note=69 velocity=127 time=0
note_off channel=3 note=69 velocity=127 time=0
note_on channel=3 note=67 velocity=127 time=32
note_on channel=3 note=67 velocity=127 time=0
note_on channel=3 note=67 velocity=127 time=0
note_on channel=3 note=67 velocity=127 time=0
note_on channel=3 note=67 velocity=127 time=0
note_off channel=3 note=67 velocity=127 time=64
note_off channel=3 note=67 velocity=127 time=0
note_off channel=3 note=67 velocity=127 time=0
note_off channel=3 note=67 velocity=127 time=0
note_off channel=3 note=67 velocity=127 time=0
note_on channel=3 note=71 velocity=127 time=32
note_on channel=3 note=71 velocity=127 time=0
note_on channel=3 note=71 velocity=127 time=0
note_on channel=3 note=71 velocity=127 time=0
note_on channel=3 note=71 velocity=127 time=0
note_off channel=3 note=71 velocity=127 time=128
note_off channel=3 note=71 velocity=127 time=0
note_off channel=3 note=71 velocity=127 time=0
note_off channel=3 note=71 velocity=127 time=0
note_off channel=3 note=71 velocity=127 time=0
note_on channel=3 note=67 velocity=127 time=64
note_on channel=3 note=67 velocity=127 time=0
note_on channel=3 note=67 velocity=127 time=0
note_on channel=3 note=67 velocity=127 time=0
note_on channel=3 note=67 velocity=127 time=0
note_on channel=3 note=64 velocity=127 time=96
note_on channel=3 note=64 velocity=127 time=0
note_on channel=3 note=64 velocity=127 time=0
note_on channel=3 note=64 velocity=127 time=0
note_on channel=3 note=64 velocity=127 time=0
note_off channel=3 note=67 velocity=127 time=160
note_off channel=3 note=67 velocity=127 time=0
note_off channel=3 note=67 velocity=127 time=0
note_off channel=3 note=67 velocity=127 time=0
note_off channel=3 note=67 velocity=127 time=0
note_off channel=3 note=64 velocity=127 time=32
note_off channel=3 note=64 velocity=127 time=0
note_off channel=3 note=64 velocity=127 time=0
note_off channel=3 note=64 velocity=127 time=0
note_off channel=3 note=64 velocity=127 time=0
note_on channel=3 note=71 velocity=127 time=192
note_on channel=3 note=71 velocity=127 time=0
note_on channel=3 note=71 velocity=127 time=0
note_on channel=3 note=71 velocity=127 time=0
note_on channel=3 note=71 velocity=127 time=0
note_off channel=3 note=71 velocity=127 time=64
note_off channel=3 note=71 velocity=127 time=0
note_off channel=3 note=71 velocity=127 time=0
note_off channel=3 note=71 velocity=127 time=0
note_off channel=3 note=71 velocity=127 time=0
note_on channel=3 note=71 velocity=127 time=32
note_on channel=3 note=71 velocity=127 time=0
note_on channel=3 note=71 velocity=127 time=0
note_on channel=3 note=71 velocity=127 time=0
note_on channel=3 note=71 velocity=127 time=0
note_off channel=3 note=71 velocity=127 time=64
note_off channel=3 note=71 velocity=127 time=0
note_off channel=3 note=71 velocity=127 time=0
note_off channel=3 note=71 velocity=127 time=0
note_off channel=3 note=71 velocity=127 time=0
note_on channel=3 note=71 velocity=127 time=32
note_on channel=3 note=71 velocity=127 time=0
note_on channel=3 note=71 velocity=127 time=0
note_on channel=3 note=71 velocity=127 time=0
note_on channel=3 note=71 velocity=127 time=0
note_off channel=3 note=71 velocity=127 time=64
note_off channel=3 note=71 velocity=127 time=0
note_off channel=3 note=71 velocity=127 time=0
note_off channel=3 note=71 velocity=127 time=0
note_off channel=3 note=71 velocity=127 time=0
note_on channel=3 note=69 velocity=127 time=32
note_on channel=3 note=69 velocity=127 time=0
note_on channel=3 note=69 velocity=127 time=0
note_on channel=3 note=69 velocity=127 time=0
note_on channel=3 note=69 velocity=127 time=0
note_off channel=3 note=69 velocity=127 time=128
note_off channel=3 note=69 velocity=127 time=0
note_off channel=3 note=69 velocity=127 time=0
note_off channel=3 note=69 velocity=127 time=0
note_off channel=3 note=69 velocity=127 time=0
note_on channel=3 note=71 velocity=127 time=64
note_on channel=3 note=71 velocity=127 time=0
note_on channel=3 note=71 velocity=127 time=0
note_on channel=3 note=71 velocity=127 time=0
note_on channel=3 note=71 velocity=127 time=0
note_off channel=3 note=71 velocity=127 time=64
note_off channel=3 note=71 velocity=127 time=0
note_off channel=3 note=71 velocity=127 time=0
note_off channel=3 note=71 velocity=127 time=0
note_off channel=3 note=71 velocity=127 time=0
note_on channel=3 note=71 velocity=127 time=32
note_on channel=3 note=71 velocity=127 time=0
note_on channel=3 note=71 velocity=127 time=0
note_on channel=3 note=71 velocity=127 time=0
note_on channel=3 note=71 velocity=127 time=0
note_off channel=3 note=71 velocity=127 time=64
note_off channel=3 note=71 velocity=127 time=0
note_off channel=3 note=71 velocity=127 time=0
note_off channel=3 note=71 velocity=127 time=0
note_off channel=3 note=71 velocity=127 time=0
note_on channel=3 note=74 velocity=127 time=32
note_on channel=3 note=74 velocity=127 time=0
note_on channel=3 note=74 velocity=127 time=0
note_on channel=3 note=74 velocity=127 time=0
note_on channel=3 note=74 velocity=127 time=0
note_off channel=3 note=74 velocity=127 time=64
note_off channel=3 note=74 velocity=127 time=0
note_off channel=3 note=74 velocity=127 time=0
note_off channel=3 note=74 velocity=127 time=0
note_off channel=3 note=74 velocity=127 time=0
note_on channel=3 note=74 velocity=127 time=32
note_on channel=3 note=74 velocity=127 time=0
note_on channel=3 note=74 velocity=127 time=0
note_on channel=3 note=74 velocity=127 time=0
note_on channel=3 note=74 velocity=127 time=0
note_off channel=3 note=74 velocity=127 time=64
note_off channel=3 note=74 velocity=127 time=0
note_off channel=3 note=74 velocity=127 time=0
note_off channel=3 note=74 velocity=127 time=0
note_off channel=3 note=74 velocity=127 time=0
note_on channel=3 note=74 velocity=127 time=32
note_on channel=3 note=74 velocity=127 time=0
note_on channel=3 note=74 velocity=127 time=0
note_on channel=3 note=74 velocity=127 time=0
note_on channel=3 note=74 velocity=127 time=0
note_off channel=3 note=74 velocity=127 time=128
note_off channel=3 note=74 velocity=127 time=0
note_off channel=3 note=74 velocity=127 time=0
note_off channel=3 note=74 velocity=127 time=0
note_off channel=3 note=74 velocity=127 time=0
note_on channel=3 note=76 velocity=127 time=160
note_on channel=3 note=76 velocity=127 time=0
note_on channel=3 note=76 velocity=127 time=0
note_on channel=3 note=76 velocity=127 time=0
note_on channel=3 note=76 velocity=127 time=0
note_off channel=3 note=76 velocity=127 time=64
note_off channel=3 note=76 velocity=127 time=0
note_off channel=3 note=76 velocity=127 time=0
note_off channel=3 note=76 velocity=127 time=0
note_off channel=3 note=76 velocity=127 time=0
note_on channel=3 note=76 velocity=127 time=32
note_on channel=3 note=76 velocity=127 time=0
note_on channel=3 note=76 velocity=127 time=0
note_on channel=3 note=76 velocity=127 time=0
note_on channel=3 note=76 velocity=127 time=0
note_off channel=3 note=76 velocity=127 time=128
note_off channel=3 note=76 velocity=127 time=0
note_off channel=3 note=76 velocity=127 time=0
note_off channel=3 note=76 velocity=127 time=0
note_off channel=3 note=76 velocity=127 time=0
note_on channel=3 note=76 velocity=127 time=256
note_on channel=3 note=76 velocity=127 time=0
note_on channel=3 note=76 velocity=127 time=0
note_on channel=3 note=76 velocity=127 time=0
note_on channel=3 note=76 velocity=127 time=0
note_off channel=3 note=76 velocity=127 time=128
note_off channel=3 note=76 velocity=127 time=0
note_off channel=3 note=76 velocity=127 time=0
note_off channel=3 note=76 velocity=127 time=0
note_off channel=3 note=76 velocity=127 time=0
note_on channel=3 note=76 velocity=127 time=64
note_on channel=3 note=76 velocity=127 time=0
note_on channel=3 note=76 velocity=127 time=0
note_on channel=3 note=76 velocity=127 time=0
note_on channel=3 note=76 velocity=127 time=0
note_off channel=3 note=76 velocity=127 time=256
note_off channel=3 note=76 velocity=127 time=0
note_off channel=3 note=76 velocity=127 time=0
note_off channel=3 note=76 velocity=127 time=0
note_off channel=3 note=76 velocity=127 time=0
note_on channel=3 note=74 velocity=127 time=320
note_on channel=3 note=74 velocity=127 time=0
note_on channel=3 note=74 velocity=127 time=0
note_on channel=3 note=74 velocity=127 time=0
note_on channel=3 note=74 velocity=127 time=0
note_off channel=3 note=74 velocity=127 time=128
note_off channel=3 note=74 velocity=127 time=0
note_off channel=3 note=74 velocity=127 time=0
note_off channel=3 note=74 velocity=127 time=0
note_off channel=3 note=74 velocity=127 time=0
note_on channel=3 note=76 velocity=127 time=64
note_on channel=3 note=76 velocity=127 time=0
note_on channel=3 note=76 velocity=127 time=0
note_on channel=3 note=76 velocity=127 time=0
note_on channel=3 note=76 velocity=127 time=0
note_off channel=3 note=76 velocity=127 time=128
note_off channel=3 note=76 velocity=127 time=0
note_off channel=3 note=76 velocity=127 time=0
note_off channel=3 note=76 velocity=127 time=0
note_off channel=3 note=76 velocity=127 time=0
note_on channel=3 note=71 velocity=127 time=64
note_on channel=3 note=71 velocity=127 time=0
note_on channel=3 note=71 velocity=127 time=0
note_on channel=3 note=71 velocity=127 time=0
note_on channel=3 note=71 velocity=127 time=0
note_off channel=3 note=71 velocity=127 time=128
note_off channel=3 note=71 velocity=127 time=0
note_off channel=3 note=71 velocity=127 time=0
note_off channel=3 note=71 velocity=127 time=0
note_off channel=3 note=71 velocity=127 time=0
note_on channel=3 note=71 velocity=127 time=64
note_on channel=3 note=71 velocity=127 time=0
note_on channel=3 note=71 velocity=127 time=0
note_on channel=3 note=71 velocity=127 time=0
note_on channel=3 note=71 velocity=127 time=0
note_off channel=3 note=71 velocity=127 time=64
note_off channel=3 note=71 velocity=127 time=0
note_off channel=3 note=71 velocity=127 time=0
note_off channel=3 note=71 velocity=127 time=0
note_off channel=3 note=71 velocity=127 time=0
note_on channel=3 note=71 velocity=127 time=32
note_on channel=3 note=71 velocity=127 time=0
note_on channel=3 note=71 velocity=127 time=0
note_on channel=3 note=71 velocity=127 time=0
note_on channel=3 note=71 velocity=127 time=0
note_off channel=3 note=71 velocity=127 time=64
note_off channel=3 note=71 velocity=127 time=0
note_off channel=3 note=71 velocity=127 time=0
note_off channel=3 note=71 velocity=127 time=0
note_off channel=3 note=71 velocity=127 time=0
note_on channel=3 note=71 velocity=127 time=32
note_on channel=3 note=71 velocity=127 time=0
note_on channel=3 note=71 velocity=127 time=0
note_on channel=3 note=71 velocity=127 time=0
note_on channel=3 note=71 velocity=127 time=0
note_off channel=3 note=71 velocity=127 time=64
note_off channel=3 note=71 velocity=127 time=0
note_off channel=3 note=71 velocity=127 time=0
note_off channel=3 note=71 velocity=127 time=0
note_off channel=3 note=71 velocity=127 time=0
note_on channel=3 note=71 velocity=127 time=32
note_on channel=3 note=71 velocity=127 time=0
note_on channel=3 note=71 velocity=127 time=0
note_on channel=3 note=71 velocity=127 time=0
note_on channel=3 note=71 velocity=127 time=0
note_off channel=3 note=71 velocity=127 time=64
note_off channel=3 note=71 velocity=127 time=0
note_off channel=3 note=71 velocity=127 time=0
note_off channel=3 note=71 velocity=127 time=0
note_off channel=3 note=71 velocity=127 time=0
note_on channel=3 note=71 velocity=127 time=32
note_on channel=3 note=71 velocity=127 time=0
note_on channel=3 note=71 velocity=127 time=0
note_on channel=3 note=71 velocity=127 time=0
note_on channel=3 note=71 velocity=127 time=0
note_off channel=3 note=71 velocity=127 time=64
note_off channel=3 note=71 velocity=127 time=0
note_off channel=3 note=71 velocity=127 time=0
note_off channel=3 note=71 velocity=127 time=0
note_off channel=3 note=71 velocity=127 time=0
note_on channel=3 note=71 velocity=127 time=32
note_on channel=3 note=71 velocity=127 time=0
note_on channel=3 note=71 velocity=127 time=0
note_on channel=3 note=71 velocity=127 time=0
note_on channel=3 note=71 velocity=127 time=0
note_off channel=3 note=71 velocity=127 time=64
note_off channel=3 note=71 velocity=127 time=0
note_off channel=3 note=71 velocity=127 time=0
note_off channel=3 note=71 velocity=127 time=0
note_off channel=3 note=71 velocity=127 time=0
note_on channel=3 note=71 velocity=127 time=32
note_on channel=3 note=71 velocity=127 time=0
note_on channel=3 note=71 velocity=127 time=0
note_on channel=3 note=71 velocity=127 time=0
note_on channel=3 note=71 velocity=127 time=0
note_off channel=3 note=71 velocity=127 time=64
note_off channel=3 note=71 velocity=127 time=0
note_off channel=3 note=71 velocity=127 time=0
note_off channel=3 note=71 velocity=127 time=0
note_off channel=3 note=71 velocity=127 time=0
note_on channel=3 note=71 velocity=127 time=32
note_on channel=3 note=71 velocity=127 time=0
note_on channel=3 note=71 velocity=127 time=0
note_on channel=3 note=71 velocity=127 time=0
note_on channel=3 note=71 velocity=127 time=0
note_off channel=3 note=71 velocity=127 time=64
note_off channel=3 note=71 velocity=127 time=0
note_off channel=3 note=71 velocity=127 time=0
note_off channel=3 note=71 velocity=127 time=0
note_off channel=3 note=71 velocity=127 time=0
note_on channel=3 note=74 velocity=127 time=32
note_on channel=3 note=74 velocity=127 time=0
note_on channel=3 note=74 velocity=127 time=0
note_on channel=3 note=74 velocity=127 time=0
note_on channel=3 note=74 velocity=127 time=0
note_off channel=3 note=74 velocity=127 time=64
note_off channel=3 note=74 velocity=127 time=0
note_off channel=3 note=74 velocity=127 time=0
note_off channel=3 note=74 velocity=127 time=0
note_off channel=3 note=74 velocity=127 time=0
note_on channel=3 note=74 velocity=127 time=32
note_on channel=3 note=74 velocity=127 time=0
note_on channel=3 note=74 velocity=127 time=0
note_on channel=3 note=74 velocity=127 time=0
note_on channel=3 note=74 velocity=127 time=0
note_off channel=3 note=74 velocity=127 time=64
note_off channel=3 note=74 velocity=127 time=0
note_off channel=3 note=74 velocity=127 time=0
note_off channel=3 note=74 velocity=127 time=0
note_off channel=3 note=74 velocity=127 time=0
note_on channel=3 note=71 velocity=127 time=32
note_on channel=3 note=71 velocity=127 time=0
note_on channel=3 note=71 velocity=127 time=0
note_on channel=3 note=71 velocity=127 time=0
note_on channel=3 note=71 velocity=127 time=0
note_off channel=3 note=71 velocity=127 time=128
note_off channel=3 note=71 velocity=127 time=0
note_off channel=3 note=71 velocity=127 time=0
note_off channel=3 note=71 velocity=127 time=0
note_off channel=3 note=71 velocity=127 time=0
note_on channel=3 note=71 velocity=127 time=160
note_on channel=3 note=71 velocity=127 time=0
note_on channel=3 note=71 velocity=127 time=0
note_on channel=3 note=71 velocity=127 time=0
note_on channel=3 note=71 velocity=127 time=0
note_off channel=3 note=71 velocity=127 time=64
note_off channel=3 note=71 velocity=127 time=0
note_off channel=3 note=71 velocity=127 time=0
note_off channel=3 note=71 velocity=127 time=0
note_off channel=3 note=71 velocity=127 time=0
note_on channel=3 note=74 velocity=127 time=32
note_on channel=3 note=74 velocity=127 time=0
note_on channel=3 note=74 velocity=127 time=0
note_on channel=3 note=74 velocity=127 time=0
note_on channel=3 note=74 velocity=127 time=0
note_off channel=3 note=74 velocity=127 time=128
note_off channel=3 note=74 velocity=127 time=0
note_off channel=3 note=74 velocity=127 time=0
note_off channel=3 note=74 velocity=127 time=0
note_off channel=3 note=74 velocity=127 time=0
note_on channel=3 note=71 velocity=127 time=64
note_on channel=3 note=71 velocity=127 time=0
note_on channel=3 note=71 velocity=127 time=0
note_on channel=3 note=71 velocity=127 time=0
note_on channel=3 note=71 velocity=127 time=0
note_off channel=3 note=71 velocity=127 time=256
note_off channel=3 note=71 velocity=127 time=0
note_off channel=3 note=71 velocity=127 time=0
note_off channel=3 note=71 velocity=127 time=0
note_off channel=3 note=71 velocity=127 time=0
note_on channel=3 note=71 velocity=127 time=896
note_on channel=3 note=71 velocity=127 time=0
note_on channel=3 note=71 velocity=127 time=0
note_on channel=3 note=71 velocity=127 time=0
note_on channel=3 note=71 velocity=127 time=0
note_off channel=3 note=71 velocity=127 time=64
note_off channel=3 note=71 velocity=127 time=0
note_off channel=3 note=71 velocity=127 time=0
note_off channel=3 note=71 velocity=127 time=0
note_off channel=3 note=71 velocity=127 time=0
note_on channel=3 note=71 velocity=127 time=32
note_on channel=3 note=71 velocity=127 time=0
note_on channel=3 note=71 velocity=127 time=0
note_on channel=3 note=71 velocity=127 time=0
note_on channel=3 note=71 velocity=127 time=0
note_off channel=3 note=71 velocity=127 time=192
note_off channel=3 note=71 velocity=127 time=0
note_off channel=3 note=71 velocity=127 time=0
note_off channel=3 note=71 velocity=127 time=0
note_off channel=3 note=71 velocity=127 time=0
note_on channel=3 note=74 velocity=127 time=96
note_on channel=3 note=74 velocity=127 time=0
note_on channel=3 note=74 velocity=127 time=0
note_on channel=3 note=74 velocity=127 time=0
note_on channel=3 note=74 velocity=127 time=0
note_on channel=3 note=71 velocity=127 time=96
note_on channel=3 note=71 velocity=127 time=0
note_on channel=3 note=71 velocity=127 time=0
note_on channel=3 note=71 velocity=127 time=0
note_on channel=3 note=71 velocity=127 time=0
note_off channel=3 note=74 velocity=127 time=160
note_off channel=3 note=74 velocity=127 time=0
note_off channel=3 note=74 velocity=127 time=0
note_off channel=3 note=74 velocity=127 time=0
note_off channel=3 note=74 velocity=127 time=0
note_off channel=3 note=71 velocity=127 time=32
note_off channel=3 note=71 velocity=127 time=0
note_off channel=3 note=71 velocity=127 time=0
note_off channel=3 note=71 velocity=127 time=0
note_off channel=3 note=71 velocity=127 time=0
note_on channel=3 note=76 velocity=127 time=864
note_on channel=3 note=76 velocity=127 time=0
note_on channel=3 note=76 velocity=127 time=0
note_on channel=3 note=76 velocity=127 time=0
note_on channel=3 note=76 velocity=127 time=0
note_off channel=3 note=76 velocity=127 time=64
note_off channel=3 note=76 velocity=127 time=0
note_off channel=3 note=76 velocity=127 time=0
note_off channel=3 note=76 velocity=127 time=0
note_off channel=3 note=76 velocity=127 time=0
note_on channel=3 note=76 velocity=127 time=32
note_on channel=3 note=76 velocity=127 time=0
note_on channel=3 note=76 velocity=127 time=0
note_on channel=3 note=76 velocity=127 time=0
note_on channel=3 note=76 velocity=127 time=0
note_off channel=3 note=76 velocity=127 time=192
note_off channel=3 note=76 velocity=127 time=0
note_off channel=3 note=76 velocity=127 time=0
note_off channel=3 note=76 velocity=127 time=0
note_off channel=3 note=76 velocity=127 time=0
note_on channel=3 note=71 velocity=127 time=96
note_on channel=3 note=71 velocity=127 time=0
note_on channel=3 note=71 velocity=127 time=0
note_on channel=3 note=71 velocity=127 time=0
note_on channel=3 note=71 velocity=127 time=0
note_off channel=3 note=71 velocity=127 time=256
note_off channel=3 note=71 velocity=127 time=0
note_off channel=3 note=71 velocity=127 time=0
note_off channel=3 note=71 velocity=127 time=0
note_off channel=3 note=71 velocity=127 time=0
note_on channel=3 note=71 velocity=127 time=896
note_on channel=3 note=71 velocity=127 time=0
note_on channel=3 note=71 velocity=127 time=0
note_on channel=3 note=71 velocity=127 time=0
note_on channel=3 note=71 velocity=127 time=0
note_off channel=3 note=71 velocity=127 time=64
note_off channel=3 note=71 velocity=127 time=0
note_off channel=3 note=71 velocity=127 time=0
note_off channel=3 note=71 velocity=127 time=0
note_off channel=3 note=71 velocity=127 time=0
note_on channel=3 note=71 velocity=127 time=32
note_on channel=3 note=71 velocity=127 time=0
note_on channel=3 note=71 velocity=127 time=0
note_on channel=3 note=71 velocity=127 time=0
note_on channel=3 note=71 velocity=127 time=0
note_off channel=3 note=71 velocity=127 time=192
note_off channel=3 note=71 velocity=127 time=0
note_off channel=3 note=71 velocity=127 time=0
note_off channel=3 note=71 velocity=127 time=0
note_off channel=3 note=71 velocity=127 time=0
note_on channel=3 note=74 velocity=127 time=96
note_on channel=3 note=74 velocity=127 time=0
note_on channel=3 note=74 velocity=127 time=0
note_on channel=3 note=74 velocity=127 time=0
note_on channel=3 note=74 velocity=127 time=0
note_off channel=3 note=74 velocity=127 time=256
note_off channel=3 note=74 velocity=127 time=0
note_off channel=3 note=74 velocity=127 time=0
note_off channel=3 note=74 velocity=127 time=0
note_off channel=3 note=74 velocity=127 time=0
note_on channel=3 note=69 velocity=127 time=1472
note_on channel=3 note=69 velocity=127 time=0
note_on channel=3 note=69 velocity=127 time=0
note_on channel=3 note=69 velocity=127 time=0
note_on channel=3 note=69 velocity=127 time=0
note_off channel=3 note=69 velocity=127 time=384
note_off channel=3 note=69 velocity=127 time=0
note_off channel=3 note=69 velocity=127 time=0
note_off channel=3 note=69 velocity=127 time=0
note_off channel=3 note=69 velocity=127 time=0
note_on channel=3 note=71 velocity=127 time=0
note_on channel=3 note=71 velocity=127 time=0
note_on channel=3 note=71 velocity=127 time=0
note_on channel=3 note=71 velocity=127 time=0
note_on channel=3 note=71 velocity=127 time=0
note_off channel=3 note=71 velocity=127 time=128
note_off channel=3 note=71 velocity=127 time=0
note_off channel=3 note=71 velocity=127 time=0
note_off channel=3 note=71 velocity=127 time=0
note_off channel=3 note=71 velocity=127 time=0
note_on channel=3 note=73 velocity=127 time=64
note_on channel=3 note=73 velocity=127 time=0
note_on channel=3 note=73 velocity=127 time=0
note_on channel=3 note=73 velocity=127 time=0
note_on channel=3 note=73 velocity=127 time=0
note_off channel=3 note=73 velocity=127 time=192
note_off channel=3 note=73 velocity=127 time=0
note_off channel=3 note=73 velocity=127 time=0
note_off channel=3 note=73 velocity=127 time=0
note_off channel=3 note=73 velocity=127 time=0
note_on channel=3 note=71 velocity=127 time=96
note_on channel=3 note=71 velocity=127 time=0
note_on channel=3 note=71 velocity=127 time=0
note_on channel=3 note=71 velocity=127 time=0
note_on channel=3 note=71 velocity=127 time=0
note_off channel=3 note=71 velocity=127 time=128
note_off channel=3 note=71 velocity=127 time=0
note_off channel=3 note=71 velocity=127 time=0
note_off channel=3 note=71 velocity=127 time=0
note_off channel=3 note=71 velocity=127 time=0
note_on channel=3 note=73 velocity=127 time=160
note_on channel=3 note=73 velocity=127 time=0
note_on channel=3 note=73 velocity=127 time=0
note_on channel=3 note=73 velocity=127 time=0
note_on channel=3 note=73 velocity=127 time=0
note_off channel=3 note=73 velocity=127 time=128
note_off channel=3 note=73 velocity=127 time=0
note_off channel=3 note=73 velocity=127 time=0
note_off channel=3 note=73 velocity=127 time=0
note_off channel=3 note=73 velocity=127 time=0
note_on channel=3 note=69 velocity=127 time=256
note_on channel=3 note=69 velocity=127 time=0
note_on channel=3 note=69 velocity=127 time=0
note_on channel=3 note=69 velocity=127 time=0
note_on channel=3 note=69 velocity=127 time=0
note_off channel=3 note=69 velocity=127 time=384
note_off channel=3 note=69 velocity=127 time=0
note_off channel=3 note=69 velocity=127 time=0
note_off channel=3 note=69 velocity=127 time=0
note_off channel=3 note=69 velocity=127 time=0
note_on channel=3 note=71 velocity=127 time=0
note_on channel=3 note=71 velocity=127 time=0
note_on channel=3 note=71 velocity=127 time=0
note_on channel=3 note=71 velocity=127 time=0
note_on channel=3 note=71 velocity=127 time=0
note_off channel=3 note=71 velocity=127 time=128
note_off channel=3 note=71 velocity=127 time=0
note_off channel=3 note=71 velocity=127 time=0
note_off channel=3 note=71 velocity=127 time=0
note_off channel=3 note=71 velocity=127 time=0
note_on channel=3 note=73 velocity=127 time=64
note_on channel=3 note=73 velocity=127 time=0
note_on channel=3 note=73 velocity=127 time=0
note_on channel=3 note=73 velocity=127 time=0
note_on channel=3 note=73 velocity=127 time=0
note_off channel=3 note=73 velocity=127 time=192
note_off channel=3 note=73 velocity=127 time=0
note_off channel=3 note=73 velocity=127 time=0
note_off channel=3 note=73 velocity=127 time=0
note_off channel=3 note=73 velocity=127 time=0
note_on channel=3 note=71 velocity=127 time=96
note_on channel=3 note=71 velocity=127 time=0
note_on channel=3 note=71 velocity=127 time=0
note_on channel=3 note=71 velocity=127 time=0
note_on channel=3 note=71 velocity=127 time=0
note_off channel=3 note=71 velocity=127 time=128
note_off channel=3 note=71 velocity=127 time=0
note_off channel=3 note=71 velocity=127 time=0
note_off channel=3 note=71 velocity=127 time=0
note_off channel=3 note=71 velocity=127 time=0
note_on channel=3 note=73 velocity=127 time=64
note_on channel=3 note=73 velocity=127 time=0
note_on channel=3 note=73 velocity=127 time=0
note_on channel=3 note=73 velocity=127 time=0
note_on channel=3 note=73 velocity=127 time=0
note_off channel=3 note=73 velocity=127 time=64
note_off channel=3 note=73 velocity=127 time=0
note_off channel=3 note=73 velocity=127 time=0
note_off channel=3 note=73 velocity=127 time=0
note_off channel=3 note=73 velocity=127 time=0
note_on channel=3 note=73 velocity=127 time=32
note_on channel=3 note=73 velocity=127 time=0
note_on channel=3 note=73 velocity=127 time=0
note_on channel=3 note=73 velocity=127 time=0
note_on channel=3 note=73 velocity=127 time=0
note_off channel=3 note=73 velocity=127 time=128
note_off channel=3 note=73 velocity=127 time=0
note_off channel=3 note=73 velocity=127 time=0
note_off channel=3 note=73 velocity=127 time=0
note_off channel=3 note=73 velocity=127 time=0
note_on channel=3 note=74 velocity=127 time=64
note_on channel=3 note=74 velocity=127 time=0
note_on channel=3 note=74 velocity=127 time=0
note_on channel=3 note=74 velocity=127 time=0
note_on channel=3 note=74 velocity=127 time=0
note_off channel=3 note=74 velocity=127 time=64
note_off channel=3 note=74 velocity=127 time=0
note_off channel=3 note=74 velocity=127 time=0
note_off channel=3 note=74 velocity=127 time=0
note_off channel=3 note=74 velocity=127 time=0
note_on channel=3 note=74 velocity=127 time=32
note_on channel=3 note=74 velocity=127 time=0
note_on channel=3 note=74 velocity=127 time=0
note_on channel=3 note=74 velocity=127 time=0
note_on channel=3 note=74 velocity=127 time=0
note_off channel=3 note=74 velocity=127 time=128
note_off channel=3 note=74 velocity=127 time=0
note_off channel=3 note=74 velocity=127 time=0
note_off channel=3 note=74 velocity=127 time=0
note_off channel=3 note=74 velocity=127 time=0
note_on channel=3 note=74 velocity=127 time=64
note_on channel=3 note=74 velocity=127 time=0
note_on channel=3 note=74 velocity=127 time=0
note_on channel=3 note=74 velocity=127 time=0
note_on channel=3 note=74 velocity=127 time=0
note_off channel=3 note=74 velocity=127 time=256
note_off channel=3 note=74 velocity=127 time=0
note_off channel=3 note=74 velocity=127 time=0
note_off channel=3 note=74 velocity=127 time=0
note_off channel=3 note=74 velocity=127 time=0
note_on channel=3 note=74 velocity=127 time=704
note_on channel=3 note=74 velocity=127 time=0
note_on channel=3 note=74 velocity=127 time=0
note_on channel=3 note=74 velocity=127 time=0
note_on channel=3 note=74 velocity=127 time=0
note_off channel=3 note=74 velocity=127 time=64
note_off channel=3 note=74 velocity=127 time=0
note_off channel=3 note=74 velocity=127 time=0
note_off channel=3 note=74 velocity=127 time=0
note_off channel=3 note=74 velocity=127 time=0
note_on channel=3 note=74 velocity=127 time=32
note_on channel=3 note=74 velocity=127 time=0
note_on channel=3 note=74 velocity=127 time=0
note_on channel=3 note=74 velocity=127 time=0
note_on channel=3 note=74 velocity=127 time=0
note_off channel=3 note=74 velocity=127 time=128
note_off channel=3 note=74 velocity=127 time=0
note_off channel=3 note=74 velocity=127 time=0
note_off channel=3 note=74 velocity=127 time=0
note_off channel=3 note=74 velocity=127 time=0
note_on channel=3 note=78 velocity=127 time=64
note_on channel=3 note=78 velocity=127 time=0
note_on channel=3 note=78 velocity=127 time=0
note_on channel=3 note=78 velocity=127 time=0
note_on channel=3 note=78 velocity=127 time=0
note_off channel=3 note=78 velocity=127 time=192
note_off channel=3 note=78 velocity=127 time=0
note_off channel=3 note=78 velocity=127 time=0
note_off channel=3 note=78 velocity=127 time=0
note_off channel=3 note=78 velocity=127 time=0
note_on channel=3 note=74 velocity=127 time=96
note_on channel=3 note=74 velocity=127 time=0
note_on channel=3 note=74 velocity=127 time=0
note_on channel=3 note=74 velocity=127 time=0
note_on channel=3 note=74 velocity=127 time=0
note_off channel=3 note=74 velocity=127 time=192
note_off channel=3 note=74 velocity=127 time=0
note_off channel=3 note=74 velocity=127 time=0
note_off channel=3 note=74 velocity=127 time=0
note_off channel=3 note=74 velocity=127 time=0
note_on channel=3 note=74 velocity=127 time=96
note_on channel=3 note=74 velocity=127 time=0
note_on channel=3 note=74 velocity=127 time=0
note_on channel=3 note=74 velocity=127 time=0
note_on channel=3 note=74 velocity=127 time=0
note_off channel=3 note=74 velocity=127 time=384
note_off channel=3 note=74 velocity=127 time=0
note_off channel=3 note=74 velocity=127 time=0
note_off channel=3 note=74 velocity=127 time=0
note_off channel=3 note=74 velocity=127 time=0
note_on channel=3 note=76 velocity=127 time=576
note_on channel=3 note=76 velocity=127 time=0
note_on channel=3 note=76 velocity=127 time=0
note_on channel=3 note=76 velocity=127 time=0
note_on channel=3 note=76 velocity=127 time=0
note_off channel=3 note=76 velocity=127 time=64
note_off channel=3 note=76 velocity=127 time=0
note_off channel=3 note=76 velocity=127 time=0
note_off channel=3 note=76 velocity=127 time=0
note_off channel=3 note=76 velocity=127 time=0
note_on channel=3 note=76 velocity=127 time=32
note_on channel=3 note=76 velocity=127 time=0
note_on channel=3 note=76 velocity=127 time=0
note_on channel=3 note=76 velocity=127 time=0
note_on channel=3 note=76 velocity=127 time=0
note_off channel=3 note=76 velocity=127 time=128
note_off channel=3 note=76 velocity=127 time=0
note_off channel=3 note=76 velocity=127 time=0
note_off channel=3 note=76 velocity=127 time=0
note_off channel=3 note=76 velocity=127 time=0
note_on channel=3 note=76 velocity=127 time=64
note_on channel=3 note=76 velocity=127 time=0
note_on channel=3 note=76 velocity=127 time=0
note_on channel=3 note=76 velocity=127 time=0
note_on channel=3 note=76 velocity=127 time=0
note_off channel=3 note=76 velocity=127 time=256
note_off channel=3 note=76 velocity=127 time=0
note_off channel=3 note=76 velocity=127 time=0
note_off channel=3 note=76 velocity=127 time=0
note_off channel=3 note=76 velocity=127 time=0
note_on channel=3 note=74 velocity=127 time=320
note_on channel=3 note=74 velocity=127 time=0
note_on channel=3 note=74 velocity=127 time=0
note_on channel=3 note=74 velocity=127 time=0
note_on channel=3 note=74 velocity=127 time=0
note_off channel=3 note=74 velocity=127 time=64
note_off channel=3 note=74 velocity=127 time=0
note_off channel=3 note=74 velocity=127 time=0
note_off channel=3 note=74 velocity=127 time=0
note_off channel=3 note=74 velocity=127 time=0
note_on channel=3 note=74 velocity=127 time=32
note_on channel=3 note=74 velocity=127 time=0
note_on channel=3 note=74 velocity=127 time=0
note_on channel=3 note=74 velocity=127 time=0
note_on channel=3 note=74 velocity=127 time=0
note_off channel=3 note=74 velocity=127 time=64
note_off channel=3 note=74 velocity=127 time=0
note_off channel=3 note=74 velocity=127 time=0
note_off channel=3 note=74 velocity=127 time=0
note_off channel=3 note=74 velocity=127 time=0
note_on channel=3 note=74 velocity=127 time=32
note_on channel=3 note=74 velocity=127 time=0
note_on channel=3 note=74 velocity=127 time=0
note_on channel=3 note=74 velocity=127 time=0
note_on channel=3 note=74 velocity=127 time=0
note_off channel=3 note=74 velocity=127 time=64
note_off channel=3 note=74 velocity=127 time=0
note_off channel=3 note=74 velocity=127 time=0
note_off channel=3 note=74 velocity=127 time=0
note_off channel=3 note=74 velocity=127 time=0
note_on channel=3 note=74 velocity=127 time=32
note_on channel=3 note=74 velocity=127 time=0
note_on channel=3 note=74 velocity=127 time=0
note_on channel=3 note=74 velocity=127 time=0
note_on channel=3 note=74 velocity=127 time=0
note_off channel=3 note=74 velocity=127 time=256
note_off channel=3 note=74 velocity=127 time=0
note_off channel=3 note=74 velocity=127 time=0
note_off channel=3 note=74 velocity=127 time=0
note_off channel=3 note=74 velocity=127 time=0
note_on channel=3 note=76 velocity=127 time=224
note_on channel=3 note=76 velocity=127 time=0
note_on channel=3 note=76 velocity=127 time=0
note_on channel=3 note=76 velocity=127 time=0
note_on channel=3 note=76 velocity=127 time=0
note_off channel=3 note=76 velocity=127 time=64
note_off channel=3 note=76 velocity=127 time=0
note_off channel=3 note=76 velocity=127 time=0
note_off channel=3 note=76 velocity=127 time=0
note_off channel=3 note=76 velocity=127 time=0
note_on channel=3 note=76 velocity=127 time=32
note_on channel=3 note=76 velocity=127 time=0
note_on channel=3 note=76 velocity=127 time=0
note_on channel=3 note=76 velocity=127 time=0
note_on channel=3 note=76 velocity=127 time=0
note_off channel=3 note=76 velocity=127 time=64
note_off channel=3 note=76 velocity=127 time=0
note_off channel=3 note=76 velocity=127 time=0
note_off channel=3 note=76 velocity=127 time=0
note_off channel=3 note=76 velocity=127 time=0
note_on channel=3 note=76 velocity=127 time=32
note_on channel=3 note=76 velocity=127 time=0
note_on channel=3 note=76 velocity=127 time=0
note_on channel=3 note=76 velocity=127 time=0
note_on channel=3 note=76 velocity=127 time=0
note_off channel=3 note=76 velocity=127 time=64
note_off channel=3 note=76 velocity=127 time=0
note_off channel=3 note=76 velocity=127 time=0
note_off channel=3 note=76 velocity=127 time=0
note_off channel=3 note=76 velocity=127 time=0
note_on channel=3 note=76 velocity=127 time=32
note_on channel=3 note=76 velocity=127 time=0
note_on channel=3 note=76 velocity=127 time=0
note_on channel=3 note=76 velocity=127 time=0
note_on channel=3 note=76 velocity=127 time=0
note_off channel=3 note=76 velocity=127 time=128
note_off channel=3 note=76 velocity=127 time=0
note_off channel=3 note=76 velocity=127 time=0
note_off channel=3 note=76 velocity=127 time=0
note_off channel=3 note=76 velocity=127 time=0
note_on channel=3 note=71 velocity=127 time=64
note_on channel=3 note=71 velocity=127 time=0
note_on channel=3 note=71 velocity=127 time=0
note_on channel=3 note=71 velocity=127 time=0
note_on channel=3 note=71 velocity=127 time=0
note_off channel=3 note=71 velocity=127 time=128
note_off channel=3 note=71 velocity=127 time=0
note_off channel=3 note=71 velocity=127 time=0
note_off channel=3 note=71 velocity=127 time=0
note_off channel=3 note=71 velocity=127 time=0
note_on channel=3 note=69 velocity=127 time=64
note_on channel=3 note=69 velocity=127 time=0
note_on channel=3 note=69 velocity=127 time=0
note_on channel=3 note=69 velocity=127 time=0
note_on channel=3 note=69 velocity=127 time=0
note_off channel=3 note=69 velocity=127 time=64
note_off channel=3 note=69 velocity=127 time=0
note_off channel=3 note=69 velocity=127 time=0
note_off channel=3 note=69 velocity=127 time=0
note_off channel=3 note=69 velocity=127 time=0
note_on channel=3 note=68 velocity=127 time=32
note_on channel=3 note=68 velocity=127 time=0
note_on channel=3 note=68 velocity=127 time=0
note_on channel=3 note=68 velocity=127 time=0
note_on channel=3 note=68 velocity=127 time=0
note_off channel=3 note=68 velocity=127 time=64
note_off channel=3 note=68 velocity=127 time=0
note_off channel=3 note=68 velocity=127 time=0
note_off channel=3 note=68 velocity=127 time=0
note_off channel=3 note=68 velocity=127 time=0
note_on channel=3 note=71 velocity=127 time=32
note_on channel=3 note=71 velocity=127 time=0
note_on channel=3 note=71 velocity=127 time=0
note_on channel=3 note=71 velocity=127 time=0
note_on channel=3 note=71 velocity=127 time=0
note_off channel=3 note=71 velocity=127 time=128
note_off channel=3 note=71 velocity=127 time=0
note_off channel=3 note=71 velocity=127 time=0
note_off channel=3 note=71 velocity=127 time=0
note_off channel=3 note=71 velocity=127 time=0
note_on channel=3 note=69 velocity=127 time=64
note_on channel=3 note=69 velocity=127 time=0
note_on channel=3 note=69 velocity=127 time=0
note_on channel=3 note=69 velocity=127 time=0
note_on channel=3 note=69 velocity=127 time=0
note_off channel=3 note=69 velocity=127 time=128
note_off channel=3 note=69 velocity=127 time=0
note_off channel=3 note=69 velocity=127 time=0
note_off channel=3 note=69 velocity=127 time=0
note_off channel=3 note=69 velocity=127 time=0
note_on channel=3 note=64 velocity=127 time=64
note_on channel=3 note=64 velocity=127 time=0
note_on channel=3 note=64 velocity=127 time=0
note_on channel=3 note=64 velocity=127 time=0
note_on channel=3 note=64 velocity=127 time=0
note_off channel=3 note=64 velocity=127 time=256
note_off channel=3 note=64 velocity=127 time=0
note_off channel=3 note=64 velocity=127 time=0
note_off channel=3 note=64 velocity=127 time=0
note_off channel=3 note=64 velocity=127 time=0
note_on channel=3 note=74 velocity=127 time=128
note_on channel=3 note=74 velocity=127 time=0
note_on channel=3 note=74 velocity=127 time=0
note_on channel=3 note=74 velocity=127 time=0
note_on channel=3 note=74 velocity=127 time=0
note_off channel=3 note=74 velocity=127 time=128
note_off channel=3 note=74 velocity=127 time=0
note_off channel=3 note=74 velocity=127 time=0
note_off channel=3 note=74 velocity=127 time=0
note_off channel=3 note=74 velocity=127 time=0
note_on channel=3 note=74 velocity=127 time=64
note_on channel=3 note=74 velocity=127 time=0
note_on channel=3 note=74 velocity=127 time=0
note_on channel=3 note=74 velocity=127 time=0
note_on channel=3 note=74 velocity=127 time=0
note_off channel=3 note=74 velocity=127 time=256
note_off channel=3 note=74 velocity=127 time=0
note_off channel=3 note=74 velocity=127 time=0
note_off channel=3 note=74 velocity=127 time=0
note_off channel=3 note=74 velocity=127 time=0
note_on channel=3 note=74 velocity=127 time=224
note_on channel=3 note=74 velocity=127 time=0
note_on channel=3 note=74 velocity=127 time=0
note_on channel=3 note=74 velocity=127 time=0
note_on channel=3 note=74 velocity=127 time=0
note_off channel=3 note=74 velocity=127 time=64
note_off channel=3 note=74 velocity=127 time=0
note_off channel=3 note=74 velocity=127 time=0
note_off channel=3 note=74 velocity=127 time=0
note_off channel=3 note=74 velocity=127 time=0
note_on channel=3 note=74 velocity=127 time=32
note_on channel=3 note=74 velocity=127 time=0
note_on channel=3 note=74 velocity=127 time=0
note_on channel=3 note=74 velocity=127 time=0
note_on channel=3 note=74 velocity=127 time=0
note_off channel=3 note=74 velocity=127 time=64
note_off channel=3 note=74 velocity=127 time=0
note_off channel=3 note=74 velocity=127 time=0
note_off channel=3 note=74 velocity=127 time=0
note_off channel=3 note=74 velocity=127 time=0
note_on channel=3 note=74 velocity=127 time=32
note_on channel=3 note=74 velocity=127 time=0
note_on channel=3 note=74 velocity=127 time=0
note_on channel=3 note=74 velocity=127 time=0
note_on channel=3 note=74 velocity=127 time=0
note_off channel=3 note=74 velocity=127 time=256
note_off channel=3 note=74 velocity=127 time=0
note_off channel=3 note=74 velocity=127 time=0
note_off channel=3 note=74 velocity=127 time=0
note_off channel=3 note=74 velocity=127 time=0
note_on channel=3 note=71 velocity=127 time=416
note_on channel=3 note=71 velocity=127 time=0
note_on channel=3 note=71 velocity=127 time=0
note_on channel=3 note=71 velocity=127 time=0
note_on channel=3 note=71 velocity=127 time=0
note_off channel=3 note=71 velocity=127 time=128
note_off channel=3 note=71 velocity=127 time=0
note_off channel=3 note=71 velocity=127 time=0
note_off channel=3 note=71 velocity=127 time=0
note_off channel=3 note=71 velocity=127 time=0
note_on channel=3 note=71 velocity=127 time=64
note_on channel=3 note=71 velocity=127 time=0
note_on channel=3 note=71 velocity=127 time=0
note_on channel=3 note=71 velocity=127 time=0
note_on channel=3 note=71 velocity=127 time=0
note_off channel=3 note=71 velocity=127 time=128
note_off channel=3 note=71 velocity=127 time=0
note_off channel=3 note=71 velocity=127 time=0
note_off channel=3 note=71 velocity=127 time=0
note_off channel=3 note=71 velocity=127 time=0
note_on channel=3 note=71 velocity=127 time=64
note_on channel=3 note=71 velocity=127 time=0
note_on channel=3 note=71 velocity=127 time=0
note_on channel=3 note=71 velocity=127 time=0
note_on channel=3 note=71 velocity=127 time=0
note_off channel=3 note=71 velocity=127 time=128
note_off channel=3 note=71 velocity=127 time=0
note_off channel=3 note=71 velocity=127 time=0
note_off channel=3 note=71 velocity=127 time=0
note_off channel=3 note=71 velocity=127 time=0
note_on channel=3 note=74 velocity=127 time=64
note_on channel=3 note=74 velocity=127 time=0
note_on channel=3 note=74 velocity=127 time=0
note_on channel=3 note=74 velocity=127 time=0
note_on channel=3 note=74 velocity=127 time=0
note_off channel=3 note=74 velocity=127 time=64
note_off channel=3 note=74 velocity=127 time=0
note_off channel=3 note=74 velocity=127 time=0
note_off channel=3 note=74 velocity=127 time=0
note_off channel=3 note=74 velocity=127 time=0
note_on channel=3 note=73 velocity=127 time=32
note_on channel=3 note=73 velocity=127 time=0
note_on channel=3 note=73 velocity=127 time=0
note_on channel=3 note=73 velocity=127 time=0
note_on channel=3 note=73 velocity=127 time=0
note_off channel=3 note=73 velocity=127 time=64
note_off channel=3 note=73 velocity=127 time=0
note_off channel=3 note=73 velocity=127 time=0
note_off channel=3 note=73 velocity=127 time=0
note_off channel=3 note=73 velocity=127 time=0
note_on channel=3 note=71 velocity=127 time=32
note_on channel=3 note=71 velocity=127 time=0
note_on channel=3 note=71 velocity=127 time=0
note_on channel=3 note=71 velocity=127 time=0
note_on channel=3 note=71 velocity=127 time=0
note_off channel=3 note=71 velocity=127 time=64
note_off channel=3 note=71 velocity=127 time=0
note_off channel=3 note=71 velocity=127 time=0
note_off channel=3 note=71 velocity=127 time=0
note_off channel=3 note=71 velocity=127 time=0
note_on channel=3 note=71 velocity=127 time=32
note_on channel=3 note=71 velocity=127 time=0
note_on channel=3 note=71 velocity=127 time=0
note_on channel=3 note=71 velocity=127 time=0
note_on channel=3 note=71 velocity=127 time=0
note_off channel=3 note=71 velocity=127 time=128
note_off channel=3 note=71 velocity=127 time=0
note_off channel=3 note=71 velocity=127 time=0
note_off channel=3 note=71 velocity=127 time=0
note_off channel=3 note=71 velocity=127 time=0
note_on channel=3 note=71 velocity=127 time=64
note_on channel=3 note=71 velocity=127 time=0
note_on channel=3 note=71 velocity=127 time=0
note_on channel=3 note=71 velocity=127 time=0
note_on channel=3 note=71 velocity=127 time=0
note_off channel=3 note=71 velocity=127 time=64
note_off channel=3 note=71 velocity=127 time=0
note_off channel=3 note=71 velocity=127 time=0
note_off channel=3 note=71 velocity=127 time=0
note_off channel=3 note=71 velocity=127 time=0
note_on channel=3 note=71 velocity=127 time=32
note_on channel=3 note=71 velocity=127 time=0
note_on channel=3 note=71 velocity=127 time=0
note_on channel=3 note=71 velocity=127 time=0
note_on channel=3 note=71 velocity=127 time=0
note_off channel=3 note=71 velocity=127 time=128
note_off channel=3 note=71 velocity=127 time=0
note_off channel=3 note=71 velocity=127 time=0
note_off channel=3 note=71 velocity=127 time=0
note_off channel=3 note=71 velocity=127 time=0
note_on channel=3 note=74 velocity=127 time=64
note_on channel=3 note=74 velocity=127 time=0
note_on channel=3 note=74 velocity=127 time=0
note_on channel=3 note=74 velocity=127 time=0
note_on channel=3 note=74 velocity=127 time=0
note_off channel=3 note=74 velocity=127 time=64
note_off channel=3 note=74 velocity=127 time=0
note_off channel=3 note=74 velocity=127 time=0
note_off channel=3 note=74 velocity=127 time=0
note_off channel=3 note=74 velocity=127 time=0
note_on channel=3 note=74 velocity=127 time=32
note_on channel=3 note=74 velocity=127 time=0
note_on channel=3 note=74 velocity=127 time=0
note_on channel=3 note=74 velocity=127 time=0
note_on channel=3 note=74 velocity=127 time=0
note_off channel=3 note=74 velocity=127 time=64
note_off channel=3 note=74 velocity=127 time=0
note_off channel=3 note=74 velocity=127 time=0
note_off channel=3 note=74 velocity=127 time=0
note_off channel=3 note=74 velocity=127 time=0
note_on channel=3 note=74 velocity=127 time=32
note_on channel=3 note=74 velocity=127 time=0
note_on channel=3 note=74 velocity=127 time=0
note_on channel=3 note=74 velocity=127 time=0
note_on channel=3 note=74 velocity=127 time=0
note_off channel=3 note=74 velocity=127 time=64
note_off channel=3 note=74 velocity=127 time=0
note_off channel=3 note=74 velocity=127 time=0
note_off channel=3 note=74 velocity=127 time=0
note_off channel=3 note=74 velocity=127 time=0
note_on channel=3 note=74 velocity=127 time=32
note_on channel=3 note=74 velocity=127 time=0
note_on channel=3 note=74 velocity=127 time=0
note_on channel=3 note=74 velocity=127 time=0
note_on channel=3 note=74 velocity=127 time=0
note_off channel=3 note=74 velocity=127 time=64
note_off channel=3 note=74 velocity=127 time=0
note_off channel=3 note=74 velocity=127 time=0
note_off channel=3 note=74 velocity=127 time=0
note_off channel=3 note=74 velocity=127 time=0
note_on channel=3 note=74 velocity=127 time=32
note_on channel=3 note=74 velocity=127 time=0
note_on channel=3 note=74 velocity=127 time=0
note_on channel=3 note=74 velocity=127 time=0
note_on channel=3 note=74 velocity=127 time=0
note_off channel=3 note=74 velocity=127 time=128
note_off channel=3 note=74 velocity=127 time=0
note_off channel=3 note=74 velocity=127 time=0
note_off channel=3 note=74 velocity=127 time=0
note_off channel=3 note=74 velocity=127 time=0
note_on channel=3 note=69 velocity=127 time=64
note_on channel=3 note=69 velocity=127 time=0
note_on channel=3 note=69 velocity=127 time=0
note_on channel=3 note=69 velocity=127 time=0
note_on channel=3 note=69 velocity=127 time=0
note_off channel=3 note=69 velocity=127 time=64
note_off channel=3 note=69 velocity=127 time=0
note_off channel=3 note=69 velocity=127 time=0
note_off channel=3 note=69 velocity=127 time=0
note_off channel=3 note=69 velocity=127 time=0
note_on channel=3 note=67 velocity=127 time=32
note_on channel=3 note=67 velocity=127 time=0
note_on channel=3 note=67 velocity=127 time=0
note_on channel=3 note=67 velocity=127 time=0
note_on channel=3 note=67 velocity=127 time=0
note_off channel=3 note=67 velocity=127 time=64
note_off channel=3 note=67 velocity=127 time=0
note_off channel=3 note=67 velocity=127 time=0
note_off channel=3 note=67 velocity=127 time=0
note_off channel=3 note=67 velocity=127 time=0
note_on channel=3 note=69 velocity=127 time=32
note_on channel=3 note=69 velocity=127 time=0
note_on channel=3 note=69 velocity=127 time=0
note_on channel=3 note=69 velocity=127 time=0
note_on channel=3 note=69 velocity=127 time=0
note_off channel=3 note=69 velocity=127 time=64
note_off channel=3 note=69 velocity=127 time=0
note_off channel=3 note=69 velocity=127 time=0
note_off channel=3 note=69 velocity=127 time=0
note_off channel=3 note=69 velocity=127 time=0
note_on channel=3 note=67 velocity=127 time=32
note_on channel=3 note=67 velocity=127 time=0
note_on channel=3 note=67 velocity=127 time=0
note_on channel=3 note=67 velocity=127 time=0
note_on channel=3 note=67 velocity=127 time=0
note_off channel=3 note=67 velocity=127 time=64
note_off channel=3 note=67 velocity=127 time=0
note_off channel=3 note=67 velocity=127 time=0
note_off channel=3 note=67 velocity=127 time=0
note_off channel=3 note=67 velocity=127 time=0
note_on channel=3 note=71 velocity=127 time=32
note_on channel=3 note=71 velocity=127 time=0
note_on channel=3 note=71 velocity=127 time=0
note_on channel=3 note=71 velocity=127 time=0
note_on channel=3 note=71 velocity=127 time=0
note_off channel=3 note=71 velocity=127 time=128
note_off channel=3 note=71 velocity=127 time=0
note_off channel=3 note=71 velocity=127 time=0
note_off channel=3 note=71 velocity=127 time=0
note_off channel=3 note=71 velocity=127 time=0
note_on channel=3 note=67 velocity=127 time=64
note_on channel=3 note=67 velocity=127 time=0
note_on channel=3 note=67 velocity=127 time=0
note_on channel=3 note=67 velocity=127 time=0
note_on channel=3 note=67 velocity=127 time=0
note_on channel=3 note=64 velocity=127 time=96
note_on channel=3 note=64 velocity=127 time=0
note_on channel=3 note=64 velocity=127 time=0
note_on channel=3 note=64 velocity=127 time=0
note_on channel=3 note=64 velocity=127 time=0
note_off channel=3 note=67 velocity=127 time=160
note_off channel=3 note=67 velocity=127 time=0
note_off channel=3 note=67 velocity=127 time=0
note_off channel=3 note=67 velocity=127 time=0
note_off channel=3 note=67 velocity=127 time=0
note_off channel=3 note=64 velocity=127 time=32
note_off channel=3 note=64 velocity=127 time=0
note_off channel=3 note=64 velocity=127 time=0
note_off channel=3 note=64 velocity=127 time=0
note_off channel=3 note=64 velocity=127 time=0
note_on channel=3 note=71 velocity=127 time=192
note_on channel=3 note=71 velocity=127 time=0
note_on channel=3 note=71 velocity=127 time=0
note_on channel=3 note=71 velocity=127 time=0
note_on channel=3 note=71 velocity=127 time=0
note_off channel=3 note=71 velocity=127 time=64
note_off channel=3 note=71 velocity=127 time=0
note_off channel=3 note=71 velocity=127 time=0
note_off channel=3 note=71 velocity=127 time=0
note_off channel=3 note=71 velocity=127 time=0
note_on channel=3 note=71 velocity=127 time=32
note_on channel=3 note=71 velocity=127 time=0
note_on channel=3 note=71 velocity=127 time=0
note_on channel=3 note=71 velocity=127 time=0
note_on channel=3 note=71 velocity=127 time=0
note_off channel=3 note=71 velocity=127 time=64
note_off channel=3 note=71 velocity=127 time=0
note_off channel=3 note=71 velocity=127 time=0
note_off channel=3 note=71 velocity=127 time=0
note_off channel=3 note=71 velocity=127 time=0
note_on channel=3 note=71 velocity=127 time=32
note_on channel=3 note=71 velocity=127 time=0
note_on channel=3 note=71 velocity=127 time=0
note_on channel=3 note=71 velocity=127 time=0
note_on channel=3 note=71 velocity=127 time=0
note_off channel=3 note=71 velocity=127 time=64
note_off channel=3 note=71 velocity=127 time=0
note_off channel=3 note=71 velocity=127 time=0
note_off channel=3 note=71 velocity=127 time=0
note_off channel=3 note=71 velocity=127 time=0
note_on channel=3 note=69 velocity=127 time=32
note_on channel=3 note=69 velocity=127 time=0
note_on channel=3 note=69 velocity=127 time=0
note_on channel=3 note=69 velocity=127 time=0
note_on channel=3 note=69 velocity=127 time=0
note_off channel=3 note=69 velocity=127 time=128
note_off channel=3 note=69 velocity=127 time=0
note_off channel=3 note=69 velocity=127 time=0
note_off channel=3 note=69 velocity=127 time=0
note_off channel=3 note=69 velocity=127 time=0
note_on channel=3 note=71 velocity=127 time=64
note_on channel=3 note=71 velocity=127 time=0
note_on channel=3 note=71 velocity=127 time=0
note_on channel=3 note=71 velocity=127 time=0
note_on channel=3 note=71 velocity=127 time=0
note_off channel=3 note=71 velocity=127 time=64
note_off channel=3 note=71 velocity=127 time=0
note_off channel=3 note=71 velocity=127 time=0
note_off channel=3 note=71 velocity=127 time=0
note_off channel=3 note=71 velocity=127 time=0
note_on channel=3 note=71 velocity=127 time=32
note_on channel=3 note=71 velocity=127 time=0
note_on channel=3 note=71 velocity=127 time=0
note_on channel=3 note=71 velocity=127 time=0
note_on channel=3 note=71 velocity=127 time=0
note_off channel=3 note=71 velocity=127 time=64
note_off channel=3 note=71 velocity=127 time=0
note_off channel=3 note=71 velocity=127 time=0
note_off channel=3 note=71 velocity=127 time=0
note_off channel=3 note=71 velocity=127 time=0
note_on channel=3 note=74 velocity=127 time=32
note_on channel=3 note=74 velocity=127 time=0
note_on channel=3 note=74 velocity=127 time=0
note_on channel=3 note=74 velocity=127 time=0
note_on channel=3 note=74 velocity=127 time=0
note_off channel=3 note=74 velocity=127 time=64
note_off channel=3 note=74 velocity=127 time=0
note_off channel=3 note=74 velocity=127 time=0
note_off channel=3 note=74 velocity=127 time=0
note_off channel=3 note=74 velocity=127 time=0
note_on channel=3 note=74 velocity=127 time=32
note_on channel=3 note=74 velocity=127 time=0
note_on channel=3 note=74 velocity=127 time=0
note_on channel=3 note=74 velocity=127 time=0
note_on channel=3 note=74 velocity=127 time=0
note_off channel=3 note=74 velocity=127 time=64
note_off channel=3 note=74 velocity=127 time=0
note_off channel=3 note=74 velocity=127 time=0
note_off channel=3 note=74 velocity=127 time=0
note_off channel=3 note=74 velocity=127 time=0
note_on channel=3 note=74 velocity=127 time=32
note_on channel=3 note=74 velocity=127 time=0
note_on channel=3 note=74 velocity=127 time=0
note_on channel=3 note=74 velocity=127 time=0
note_on channel=3 note=74 velocity=127 time=0
note_off channel=3 note=74 velocity=127 time=128
note_off channel=3 note=74 velocity=127 time=0
note_off channel=3 note=74 velocity=127 time=0
note_off channel=3 note=74 velocity=127 time=0
note_off channel=3 note=74 velocity=127 time=0
note_on channel=3 note=76 velocity=127 time=160
note_on channel=3 note=76 velocity=127 time=0
note_on channel=3 note=76 velocity=127 time=0
note_on channel=3 note=76 velocity=127 time=0
note_on channel=3 note=76 velocity=127 time=0
note_off channel=3 note=76 velocity=127 time=64
note_off channel=3 note=76 velocity=127 time=0
note_off channel=3 note=76 velocity=127 time=0
note_off channel=3 note=76 velocity=127 time=0
note_off channel=3 note=76 velocity=127 time=0
note_on channel=3 note=76 velocity=127 time=32
note_on channel=3 note=76 velocity=127 time=0
note_on channel=3 note=76 velocity=127 time=0
note_on channel=3 note=76 velocity=127 time=0
note_on channel=3 note=76 velocity=127 time=0
note_off channel=3 note=76 velocity=127 time=128
note_off channel=3 note=76 velocity=127 time=0
note_off channel=3 note=76 velocity=127 time=0
note_off channel=3 note=76 velocity=127 time=0
note_off channel=3 note=76 velocity=127 time=0
note_on channel=3 note=76 velocity=127 time=256
note_on channel=3 note=76 velocity=127 time=0
note_on channel=3 note=76 velocity=127 time=0
note_on channel=3 note=76 velocity=127 time=0
note_on channel=3 note=76 velocity=127 time=0
note_off channel=3 note=76 velocity=127 time=128
note_off channel=3 note=76 velocity=127 time=0
note_off channel=3 note=76 velocity=127 time=0
note_off channel=3 note=76 velocity=127 time=0
note_off channel=3 note=76 velocity=127 time=0
note_on channel=3 note=76 velocity=127 time=64
note_on channel=3 note=76 velocity=127 time=0
note_on channel=3 note=76 velocity=127 time=0
note_on channel=3 note=76 velocity=127 time=0
note_on channel=3 note=76 velocity=127 time=0
note_off channel=3 note=76 velocity=127 time=256
note_off channel=3 note=76 velocity=127 time=0
note_off channel=3 note=76 velocity=127 time=0
note_off channel=3 note=76 velocity=127 time=0
note_off channel=3 note=76 velocity=127 time=0
note_on channel=3 note=74 velocity=127 time=320
note_on channel=3 note=74 velocity=127 time=0
note_on channel=3 note=74 velocity=127 time=0
note_on channel=3 note=74 velocity=127 time=0
note_on channel=3 note=74 velocity=127 time=0
note_off channel=3 note=74 velocity=127 time=128
note_off channel=3 note=74 velocity=127 time=0
note_off channel=3 note=74 velocity=127 time=0
note_off channel=3 note=74 velocity=127 time=0
note_off channel=3 note=74 velocity=127 time=0
note_on channel=3 note=76 velocity=127 time=64
note_on channel=3 note=76 velocity=127 time=0
note_on channel=3 note=76 velocity=127 time=0
note_on channel=3 note=76 velocity=127 time=0
note_on channel=3 note=76 velocity=127 time=0
note_off channel=3 note=76 velocity=127 time=128
note_off channel=3 note=76 velocity=127 time=0
note_off channel=3 note=76 velocity=127 time=0
note_off channel=3 note=76 velocity=127 time=0
note_off channel=3 note=76 velocity=127 time=0
note_on channel=3 note=71 velocity=127 time=64
note_on channel=3 note=71 velocity=127 time=0
note_on channel=3 note=71 velocity=127 time=0
note_on channel=3 note=71 velocity=127 time=0
note_on channel=3 note=71 velocity=127 time=0
note_off channel=3 note=71 velocity=127 time=128
note_off channel=3 note=71 velocity=127 time=0
note_off channel=3 note=71 velocity=127 time=0
note_off channel=3 note=71 velocity=127 time=0
note_off channel=3 note=71 velocity=127 time=0
note_on channel=3 note=71 velocity=127 time=64
note_on channel=3 note=71 velocity=127 time=0
note_on channel=3 note=71 velocity=127 time=0
note_on channel=3 note=71 velocity=127 time=0
note_on channel=3 note=71 velocity=127 time=0
note_off channel=3 note=71 velocity=127 time=64
note_off channel=3 note=71 velocity=127 time=0
note_off channel=3 note=71 velocity=127 time=0
note_off channel=3 note=71 velocity=127 time=0
note_off channel=3 note=71 velocity=127 time=0
note_on channel=3 note=71 velocity=127 time=32
note_on channel=3 note=71 velocity=127 time=0
note_on channel=3 note=71 velocity=127 time=0
note_on channel=3 note=71 velocity=127 time=0
note_on channel=3 note=71 velocity=127 time=0
note_off channel=3 note=71 velocity=127 time=64
note_off channel=3 note=71 velocity=127 time=0
note_off channel=3 note=71 velocity=127 time=0
note_off channel=3 note=71 velocity=127 time=0
note_off channel=3 note=71 velocity=127 time=0
note_on channel=3 note=71 velocity=127 time=32
note_on channel=3 note=71 velocity=127 time=0
note_on channel=3 note=71 velocity=127 time=0
note_on channel=3 note=71 velocity=127 time=0
note_on channel=3 note=71 velocity=127 time=0
note_off channel=3 note=71 velocity=127 time=64
note_off channel=3 note=71 velocity=127 time=0
note_off channel=3 note=71 velocity=127 time=0
note_off channel=3 note=71 velocity=127 time=0
note_off channel=3 note=71 velocity=127 time=0
note_on channel=3 note=71 velocity=127 time=32
note_on channel=3 note=71 velocity=127 time=0
note_on channel=3 note=71 velocity=127 time=0
note_on channel=3 note=71 velocity=127 time=0
note_on channel=3 note=71 velocity=127 time=0
note_off channel=3 note=71 velocity=127 time=64
note_off channel=3 note=71 velocity=127 time=0
note_off channel=3 note=71 velocity=127 time=0
note_off channel=3 note=71 velocity=127 time=0
note_off channel=3 note=71 velocity=127 time=0
note_on channel=3 note=71 velocity=127 time=32
note_on channel=3 note=71 velocity=127 time=0
note_on channel=3 note=71 velocity=127 time=0
note_on channel=3 note=71 velocity=127 time=0
note_on channel=3 note=71 velocity=127 time=0
note_off channel=3 note=71 velocity=127 time=64
note_off channel=3 note=71 velocity=127 time=0
note_off channel=3 note=71 velocity=127 time=0
note_off channel=3 note=71 velocity=127 time=0
note_off channel=3 note=71 velocity=127 time=0
note_on channel=3 note=71 velocity=127 time=32
note_on channel=3 note=71 velocity=127 time=0
note_on channel=3 note=71 velocity=127 time=0
note_on channel=3 note=71 velocity=127 time=0
note_on channel=3 note=71 velocity=127 time=0
note_off channel=3 note=71 velocity=127 time=64
note_off channel=3 note=71 velocity=127 time=0
note_off channel=3 note=71 velocity=127 time=0
note_off channel=3 note=71 velocity=127 time=0
note_off channel=3 note=71 velocity=127 time=0
note_on channel=3 note=71 velocity=127 time=32
note_on channel=3 note=71 velocity=127 time=0
note_on channel=3 note=71 velocity=127 time=0
note_on channel=3 note=71 velocity=127 time=0
note_on channel=3 note=71 velocity=127 time=0
note_off channel=3 note=71 velocity=127 time=64
note_off channel=3 note=71 velocity=127 time=0
note_off channel=3 note=71 velocity=127 time=0
note_off channel=3 note=71 velocity=127 time=0
note_off channel=3 note=71 velocity=127 time=0
note_on channel=3 note=71 velocity=127 time=32
note_on channel=3 note=71 velocity=127 time=0
note_on channel=3 note=71 velocity=127 time=0
note_on channel=3 note=71 velocity=127 time=0
note_on channel=3 note=71 velocity=127 time=0
note_off channel=3 note=71 velocity=127 time=64
note_off channel=3 note=71 velocity=127 time=0
note_off channel=3 note=71 velocity=127 time=0
note_off channel=3 note=71 velocity=127 time=0
note_off channel=3 note=71 velocity=127 time=0
note_on channel=3 note=74 velocity=127 time=32
note_on channel=3 note=74 velocity=127 time=0
note_on channel=3 note=74 velocity=127 time=0
note_on channel=3 note=74 velocity=127 time=0
note_on channel=3 note=74 velocity=127 time=0
note_off channel=3 note=74 velocity=127 time=64
note_off channel=3 note=74 velocity=127 time=0
note_off channel=3 note=74 velocity=127 time=0
note_off channel=3 note=74 velocity=127 time=0
note_off channel=3 note=74 velocity=127 time=0
note_on channel=3 note=74 velocity=127 time=32
note_on channel=3 note=74 velocity=127 time=0
note_on channel=3 note=74 velocity=127 time=0
note_on channel=3 note=74 velocity=127 time=0
note_on channel=3 note=74 velocity=127 time=0
note_off channel=3 note=74 velocity=127 time=64
note_off channel=3 note=74 velocity=127 time=0
note_off channel=3 note=74 velocity=127 time=0
note_off channel=3 note=74 velocity=127 time=0
note_off channel=3 note=74 velocity=127 time=0
note_on channel=3 note=71 velocity=127 time=32
note_on channel=3 note=71 velocity=127 time=0
note_on channel=3 note=71 velocity=127 time=0
note_on channel=3 note=71 velocity=127 time=0
note_on channel=3 note=71 velocity=127 time=0
note_off channel=3 note=71 velocity=127 time=128
note_off channel=3 note=71 velocity=127 time=0
note_off channel=3 note=71 velocity=127 time=0
note_off channel=3 note=71 velocity=127 time=0
note_off channel=3 note=71 velocity=127 time=0
note_on channel=3 note=71 velocity=127 time=160
note_on channel=3 note=71 velocity=127 time=0
note_on channel=3 note=71 velocity=127 time=0
note_on channel=3 note=71 velocity=127 time=0
note_on channel=3 note=71 velocity=127 time=0
note_off channel=3 note=71 velocity=127 time=64
note_off channel=3 note=71 velocity=127 time=0
note_off channel=3 note=71 velocity=127 time=0
note_off channel=3 note=71 velocity=127 time=0
note_off channel=3 note=71 velocity=127 time=0
note_on channel=3 note=74 velocity=127 time=32
note_on channel=3 note=74 velocity=127 time=0
note_on channel=3 note=74 velocity=127 time=0
note_on channel=3 note=74 velocity=127 time=0
note_on channel=3 note=74 velocity=127 time=0
note_off channel=3 note=74 velocity=127 time=128
note_off channel=3 note=74 velocity=127 time=0
note_off channel=3 note=74 velocity=127 time=0
note_off channel=3 note=74 velocity=127 time=0
note_off channel=3 note=74 velocity=127 time=0
note_on channel=3 note=71 velocity=127 time=64
note_on channel=3 note=71 velocity=127 time=0
note_on channel=3 note=71 velocity=127 time=0
note_on channel=3 note=71 velocity=127 time=0
note_on channel=3 note=71 velocity=127 time=0
note_off channel=3 note=71 velocity=127 time=256
note_off channel=3 note=71 velocity=127 time=0
note_off channel=3 note=71 velocity=127 time=0
note_off channel=3 note=71 velocity=127 time=0
note_off channel=3 note=71 velocity=127 time=0
note_on channel=3 note=71 velocity=127 time=896
note_on channel=3 note=71 velocity=127 time=0
note_on channel=3 note=71 velocity=127 time=0
note_on channel=3 note=71 velocity=127 time=0
note_on channel=3 note=71 velocity=127 time=0
note_off channel=3 note=71 velocity=127 time=64
note_off channel=3 note=71 velocity=127 time=0
note_off channel=3 note=71 velocity=127 time=0
note_off channel=3 note=71 velocity=127 time=0
note_off channel=3 note=71 velocity=127 time=0
note_on channel=3 note=71 velocity=127 time=32
note_on channel=3 note=71 velocity=127 time=0
note_on channel=3 note=71 velocity=127 time=0
note_on channel=3 note=71 velocity=127 time=0
note_on channel=3 note=71 velocity=127 time=0
note_off channel=3 note=71 velocity=127 time=192
note_off channel=3 note=71 velocity=127 time=0
note_off channel=3 note=71 velocity=127 time=0
note_off channel=3 note=71 velocity=127 time=0
note_off channel=3 note=71 velocity=127 time=0
note_on channel=3 note=74 velocity=127 time=96
note_on channel=3 note=74 velocity=127 time=0
note_on channel=3 note=74 velocity=127 time=0
note_on channel=3 note=74 velocity=127 time=0
note_on channel=3 note=74 velocity=127 time=0
note_on channel=3 note=71 velocity=127 time=96
note_on channel=3 note=71 velocity=127 time=0
note_on channel=3 note=71 velocity=127 time=0
note_on channel=3 note=71 velocity=127 time=0
note_on channel=3 note=71 velocity=127 time=0
note_off channel=3 note=74 velocity=127 time=160
note_off channel=3 note=74 velocity=127 time=0
note_off channel=3 note=74 velocity=127 time=0
note_off channel=3 note=74 velocity=127 time=0
note_off channel=3 note=74 velocity=127 time=0
note_off channel=3 note=71 velocity=127 time=32
note_off channel=3 note=71 velocity=127 time=0
note_off channel=3 note=71 velocity=127 time=0
note_off channel=3 note=71 velocity=127 time=0
note_off channel=3 note=71 velocity=127 time=0
note_on channel=3 note=76 velocity=127 time=864
note_on channel=3 note=76 velocity=127 time=0
note_on channel=3 note=76 velocity=127 time=0
note_on channel=3 note=76 velocity=127 time=0
note_on channel=3 note=76 velocity=127 time=0
note_off channel=3 note=76 velocity=127 time=64
note_off channel=3 note=76 velocity=127 time=0
note_off channel=3 note=76 velocity=127 time=0
note_off channel=3 note=76 velocity=127 time=0
note_off channel=3 note=76 velocity=127 time=0
note_on channel=3 note=76 velocity=127 time=32
note_on channel=3 note=76 velocity=127 time=0
note_on channel=3 note=76 velocity=127 time=0
note_on channel=3 note=76 velocity=127 time=0
note_on channel=3 note=76 velocity=127 time=0
note_off channel=3 note=76 velocity=127 time=192
note_off channel=3 note=76 velocity=127 time=0
note_off channel=3 note=76 velocity=127 time=0
note_off channel=3 note=76 velocity=127 time=0
note_off channel=3 note=76 velocity=127 time=0
note_on channel=3 note=71 velocity=127 time=96
note_on channel=3 note=71 velocity=127 time=0
note_on channel=3 note=71 velocity=127 time=0
note_on channel=3 note=71 velocity=127 time=0
note_on channel=3 note=71 velocity=127 time=0
note_off channel=3 note=71 velocity=127 time=256
note_off channel=3 note=71 velocity=127 time=0
note_off channel=3 note=71 velocity=127 time=0
note_off channel=3 note=71 velocity=127 time=0
note_off channel=3 note=71 velocity=127 time=0
note_on channel=3 note=71 velocity=127 time=896
note_on channel=3 note=71 velocity=127 time=0
note_on channel=3 note=71 velocity=127 time=0
note_on channel=3 note=71 velocity=127 time=0
note_on channel=3 note=71 velocity=127 time=0
note_off channel=3 note=71 velocity=127 time=64
note_off channel=3 note=71 velocity=127 time=0
note_off channel=3 note=71 velocity=127 time=0
note_off channel=3 note=71 velocity=127 time=0
note_off channel=3 note=71 velocity=127 time=0
note_on channel=3 note=71 velocity=127 time=32
note_on channel=3 note=71 velocity=127 time=0
note_on channel=3 note=71 velocity=127 time=0
note_on channel=3 note=71 velocity=127 time=0
note_on channel=3 note=71 velocity=127 time=0
note_off channel=3 note=71 velocity=127 time=192
note_off channel=3 note=71 velocity=127 time=0
note_off channel=3 note=71 velocity=127 time=0
note_off channel=3 note=71 velocity=127 time=0
note_off channel=3 note=71 velocity=127 time=0
note_on channel=3 note=74 velocity=127 time=96
note_on channel=3 note=74 velocity=127 time=0
note_on channel=3 note=74 velocity=127 time=0
note_on channel=3 note=74 velocity=127 time=0
note_on channel=3 note=74 velocity=127 time=0
note_off channel=3 note=74 velocity=127 time=256
note_off channel=3 note=74 velocity=127 time=0
note_off channel=3 note=74 velocity=127 time=0
note_off channel=3 note=74 velocity=127 time=0
note_off channel=3 note=74 velocity=127 time=0
note_on channel=3 note=69 velocity=127 time=1472
note_on channel=3 note=69 velocity=127 time=0
note_on channel=3 note=69 velocity=127 time=0
note_on channel=3 note=69 velocity=127 time=0
note_on channel=3 note=69 velocity=127 time=0
note_off channel=3 note=69 velocity=127 time=384
note_off channel=3 note=69 velocity=127 time=0
note_off channel=3 note=69 velocity=127 time=0
note_off channel=3 note=69 velocity=127 time=0
note_off channel=3 note=69 velocity=127 time=0
note_on channel=3 note=71 velocity=127 time=0
note_on channel=3 note=71 velocity=127 time=0
note_on channel=3 note=71 velocity=127 time=0
note_on channel=3 note=71 velocity=127 time=0
note_on channel=3 note=71 velocity=127 time=0
note_off channel=3 note=71 velocity=127 time=128
note_off channel=3 note=71 velocity=127 time=0
note_off channel=3 note=71 velocity=127 time=0
note_off channel=3 note=71 velocity=127 time=0
note_off channel=3 note=71 velocity=127 time=0
note_on channel=3 note=73 velocity=127 time=64
note_on channel=3 note=73 velocity=127 time=0
note_on channel=3 note=73 velocity=127 time=0
note_on channel=3 note=73 velocity=127 time=0
note_on channel=3 note=73 velocity=127 time=0
note_off channel=3 note=73 velocity=127 time=192
note_off channel=3 note=73 velocity=127 time=0
note_off channel=3 note=73 velocity=127 time=0
note_off channel=3 note=73 velocity=127 time=0
note_off channel=3 note=73 velocity=127 time=0
note_on channel=3 note=71 velocity=127 time=96
note_on channel=3 note=71 velocity=127 time=0
note_on channel=3 note=71 velocity=127 time=0
note_on channel=3 note=71 velocity=127 time=0
note_on channel=3 note=71 velocity=127 time=0
note_off channel=3 note=71 velocity=127 time=128
note_off channel=3 note=71 velocity=127 time=0
note_off channel=3 note=71 velocity=127 time=0
note_off channel=3 note=71 velocity=127 time=0
note_off channel=3 note=71 velocity=127 time=0
note_on channel=3 note=73 velocity=127 time=160
note_on channel=3 note=73 velocity=127 time=0
note_on channel=3 note=73 velocity=127 time=0
note_on channel=3 note=73 velocity=127 time=0
note_on channel=3 note=73 velocity=127 time=0
note_off channel=3 note=73 velocity=127 time=128
note_off channel=3 note=73 velocity=127 time=0
note_off channel=3 note=73 velocity=127 time=0
note_off channel=3 note=73 velocity=127 time=0
note_off channel=3 note=73 velocity=127 time=0
note_on channel=3 note=69 velocity=127 time=256
note_on channel=3 note=69 velocity=127 time=0
note_on channel=3 note=69 velocity=127 time=0
note_on channel=3 note=69 velocity=127 time=0
note_on channel=3 note=69 velocity=127 time=0
note_off channel=3 note=69 velocity=127 time=384
note_off channel=3 note=69 velocity=127 time=0
note_off channel=3 note=69 velocity=127 time=0
note_off channel=3 note=69 velocity=127 time=0
note_off channel=3 note=69 velocity=127 time=0
note_on channel=3 note=71 velocity=127 time=0
note_on channel=3 note=71 velocity=127 time=0
note_on channel=3 note=71 velocity=127 time=0
note_on channel=3 note=71 velocity=127 time=0
note_on channel=3 note=71 velocity=127 time=0
note_off channel=3 note=71 velocity=127 time=128
note_off channel=3 note=71 velocity=127 time=0
note_off channel=3 note=71 velocity=127 time=0
note_off channel=3 note=71 velocity=127 time=0
note_off channel=3 note=71 velocity=127 time=0
note_on channel=3 note=73 velocity=127 time=64
note_on channel=3 note=73 velocity=127 time=0
note_on channel=3 note=73 velocity=127 time=0
note_on channel=3 note=73 velocity=127 time=0
note_on channel=3 note=73 velocity=127 time=0
note_off channel=3 note=73 velocity=127 time=192
note_off channel=3 note=73 velocity=127 time=0
note_off channel=3 note=73 velocity=127 time=0
note_off channel=3 note=73 velocity=127 time=0
note_off channel=3 note=73 velocity=127 time=0
note_on channel=3 note=71 velocity=127 time=96
note_on channel=3 note=71 velocity=127 time=0
note_on channel=3 note=71 velocity=127 time=0
note_on channel=3 note=71 velocity=127 time=0
note_on channel=3 note=71 velocity=127 time=0
note_off channel=3 note=71 velocity=127 time=128
note_off channel=3 note=71 velocity=127 time=0
note_off channel=3 note=71 velocity=127 time=0
note_off channel=3 note=71 velocity=127 time=0
note_off channel=3 note=71 velocity=127 time=0
note_on channel=3 note=73 velocity=127 time=64
note_on channel=3 note=73 velocity=127 time=0
note_on channel=3 note=73 velocity=127 time=0
note_on channel=3 note=73 velocity=127 time=0
note_on channel=3 note=73 velocity=127 time=0
note_off channel=3 note=73 velocity=127 time=64
note_off channel=3 note=73 velocity=127 time=0
note_off channel=3 note=73 velocity=127 time=0
note_off channel=3 note=73 velocity=127 time=0
note_off channel=3 note=73 velocity=127 time=0
note_on channel=3 note=73 velocity=127 time=32
note_on channel=3 note=73 velocity=127 time=0
note_on channel=3 note=73 velocity=127 time=0
note_on channel=3 note=73 velocity=127 time=0
note_on channel=3 note=73 velocity=127 time=0
note_off channel=3 note=73 velocity=127 time=128
note_off channel=3 note=73 velocity=127 time=0
note_off channel=3 note=73 velocity=127 time=0
note_off channel=3 note=73 velocity=127 time=0
note_off channel=3 note=73 velocity=127 time=0
note_on channel=3 note=74 velocity=127 time=64
note_on channel=3 note=74 velocity=127 time=0
note_on channel=3 note=74 velocity=127 time=0
note_on channel=3 note=74 velocity=127 time=0
note_on channel=3 note=74 velocity=127 time=0
note_off channel=3 note=74 velocity=127 time=64
note_off channel=3 note=74 velocity=127 time=0
note_off channel=3 note=74 velocity=127 time=0
note_off channel=3 note=74 velocity=127 time=0
note_off channel=3 note=74 velocity=127 time=0
note_on channel=3 note=74 velocity=127 time=32
note_on channel=3 note=74 velocity=127 time=0
note_on channel=3 note=74 velocity=127 time=0
note_on channel=3 note=74 velocity=127 time=0
note_on channel=3 note=74 velocity=127 time=0
note_off channel=3 note=74 velocity=127 time=128
note_off channel=3 note=74 velocity=127 time=0
note_off channel=3 note=74 velocity=127 time=0
note_off channel=3 note=74 velocity=127 time=0
note_off channel=3 note=74 velocity=127 time=0
note_on channel=3 note=74 velocity=127 time=64
note_on channel=3 note=74 velocity=127 time=0
note_on channel=3 note=74 velocity=127 time=0
note_on channel=3 note=74 velocity=127 time=0
note_on channel=3 note=74 velocity=127 time=0
note_off channel=3 note=74 velocity=127 time=256
note_off channel=3 note=74 velocity=127 time=0
note_off channel=3 note=74 velocity=127 time=0
note_off channel=3 note=74 velocity=127 time=0
note_off channel=3 note=74 velocity=127 time=0
note_on channel=3 note=74 velocity=127 time=704
note_on channel=3 note=74 velocity=127 time=0
note_on channel=3 note=74 velocity=127 time=0
note_on channel=3 note=74 velocity=127 time=0
note_on channel=3 note=74 velocity=127 time=0
note_off channel=3 note=74 velocity=127 time=64
note_off channel=3 note=74 velocity=127 time=0
note_off channel=3 note=74 velocity=127 time=0
note_off channel=3 note=74 velocity=127 time=0
note_off channel=3 note=74 velocity=127 time=0
note_on channel=3 note=74 velocity=127 time=32
note_on channel=3 note=74 velocity=127 time=0
note_on channel=3 note=74 velocity=127 time=0
note_on channel=3 note=74 velocity=127 time=0
note_on channel=3 note=74 velocity=127 time=0
note_off channel=3 note=74 velocity=127 time=128
note_off channel=3 note=74 velocity=127 time=0
note_off channel=3 note=74 velocity=127 time=0
note_off channel=3 note=74 velocity=127 time=0
note_off channel=3 note=74 velocity=127 time=0
note_on channel=3 note=78 velocity=127 time=64
note_on channel=3 note=78 velocity=127 time=0
note_on channel=3 note=78 velocity=127 time=0
note_on channel=3 note=78 velocity=127 time=0
note_on channel=3 note=78 velocity=127 time=0
note_off channel=3 note=78 velocity=127 time=192
note_off channel=3 note=78 velocity=127 time=0
note_off channel=3 note=78 velocity=127 time=0
note_off channel=3 note=78 velocity=127 time=0
note_off channel=3 note=78 velocity=127 time=0
note_on channel=3 note=74 velocity=127 time=96
note_on channel=3 note=74 velocity=127 time=0
note_on channel=3 note=74 velocity=127 time=0
note_on channel=3 note=74 velocity=127 time=0
note_on channel=3 note=74 velocity=127 time=0
note_off channel=3 note=74 velocity=127 time=192
note_off channel=3 note=74 velocity=127 time=0
note_off channel=3 note=74 velocity=127 time=0
note_off channel=3 note=74 velocity=127 time=0
note_off channel=3 note=74 velocity=127 time=0
note_on channel=3 note=74 velocity=127 time=96
note_on channel=3 note=74 velocity=127 time=0
note_on channel=3 note=74 velocity=127 time=0
note_on channel=3 note=74 velocity=127 time=0
note_on channel=3 note=74 velocity=127 time=0
note_off channel=3 note=74 velocity=127 time=384
note_off channel=3 note=74 velocity=127 time=0
note_off channel=3 note=74 velocity=127 time=0
note_off channel=3 note=74 velocity=127 time=0
note_off channel=3 note=74 velocity=127 time=0
note_on channel=3 note=71 velocity=127 time=24768
note_off channel=3 note=71 velocity=127 time=192
note_on channel=3 note=71 velocity=127 time=96
note_off channel=3 note=71 velocity=127 time=64
note_on channel=3 note=71 velocity=127 time=32
note_on channel=3 note=71 velocity=127 time=0
note_on channel=3 note=71 velocity=127 time=0
note_on channel=3 note=71 velocity=127 time=0
note_on channel=3 note=71 velocity=127 time=0
note_off channel=3 note=71 velocity=127 time=256
note_off channel=3 note=71 velocity=127 time=0
note_off channel=3 note=71 velocity=127 time=0
note_off channel=3 note=71 velocity=127 time=0
note_off channel=3 note=71 velocity=127 time=0
note_on channel=3 note=71 velocity=127 time=896
note_on channel=3 note=71 velocity=127 time=0
note_on channel=3 note=71 velocity=127 time=0
note_on channel=3 note=71 velocity=127 time=0
note_on channel=3 note=71 velocity=127 time=0
note_off channel=3 note=71 velocity=127 time=64
note_off channel=3 note=71 velocity=127 time=0
note_off channel=3 note=71 velocity=127 time=0
note_off channel=3 note=71 velocity=127 time=0
note_off channel=3 note=71 velocity=127 time=0
note_on channel=3 note=71 velocity=127 time=32
note_on channel=3 note=71 velocity=127 time=0
note_on channel=3 note=71 velocity=127 time=0
note_on channel=3 note=71 velocity=127 time=0
note_on channel=3 note=71 velocity=127 time=0
note_off channel=3 note=71 velocity=127 time=192
note_off channel=3 note=71 velocity=127 time=0
note_off channel=3 note=71 velocity=127 time=0
note_off channel=3 note=71 velocity=127 time=0
note_off channel=3 note=71 velocity=127 time=0
note_on channel=3 note=74 velocity=127 time=96
note_on channel=3 note=74 velocity=127 time=0
note_on channel=3 note=74 velocity=127 time=0
note_on channel=3 note=74 velocity=127 time=0
note_on channel=3 note=74 velocity=127 time=0
note_on channel=3 note=71 velocity=127 time=96
note_on channel=3 note=71 velocity=127 time=0
note_on channel=3 note=71 velocity=127 time=0
note_on channel=3 note=71 velocity=127 time=0
note_on channel=3 note=71 velocity=127 time=0
note_off channel=3 note=74 velocity=127 time=160
note_off channel=3 note=74 velocity=127 time=0
note_off channel=3 note=74 velocity=127 time=0
note_off channel=3 note=74 velocity=127 time=0
note_off channel=3 note=74 velocity=127 time=0
note_off channel=3 note=71 velocity=127 time=32
note_off channel=3 note=71 velocity=127 time=0
note_off channel=3 note=71 velocity=127 time=0
note_off channel=3 note=71 velocity=127 time=0
note_off channel=3 note=71 velocity=127 time=0
note_on channel=3 note=76 velocity=127 time=864
note_on channel=3 note=76 velocity=127 time=0
note_on channel=3 note=76 velocity=127 time=0
note_on channel=3 note=76 velocity=127 time=0
note_on channel=3 note=76 velocity=127 time=0
note_off channel=3 note=76 velocity=127 time=64
note_off channel=3 note=76 velocity=127 time=0
note_off channel=3 note=76 velocity=127 time=0
note_off channel=3 note=76 velocity=127 time=0
note_off channel=3 note=76 velocity=127 time=0
note_on channel=3 note=76 velocity=127 time=32
note_on channel=3 note=76 velocity=127 time=0
note_on channel=3 note=76 velocity=127 time=0
note_on channel=3 note=76 velocity=127 time=0
note_on channel=3 note=76 velocity=127 time=0
note_off channel=3 note=76 velocity=127 time=192
note_off channel=3 note=76 velocity=127 time=0
note_off channel=3 note=76 velocity=127 time=0
note_off channel=3 note=76 velocity=127 time=0
note_off channel=3 note=76 velocity=127 time=0
note_on channel=3 note=71 velocity=127 time=96
note_on channel=3 note=71 velocity=127 time=0
note_on channel=3 note=71 velocity=127 time=0
note_on channel=3 note=71 velocity=127 time=0
note_on channel=3 note=71 velocity=127 time=0
note_off channel=3 note=71 velocity=127 time=256
note_off channel=3 note=71 velocity=127 time=0
note_off channel=3 note=71 velocity=127 time=0
note_off channel=3 note=71 velocity=127 time=0
note_off channel=3 note=71 velocity=127 time=0
note_on channel=3 note=71 velocity=127 time=896
note_on channel=3 note=71 velocity=127 time=0
note_on channel=3 note=71 velocity=127 time=0
note_on channel=3 note=71 velocity=127 time=0
note_on channel=3 note=71 velocity=127 time=0
note_off channel=3 note=71 velocity=127 time=64
note_off channel=3 note=71 velocity=127 time=0
note_off channel=3 note=71 velocity=127 time=0
note_off channel=3 note=71 velocity=127 time=0
note_off channel=3 note=71 velocity=127 time=0
note_on channel=3 note=71 velocity=127 time=32
note_on channel=3 note=71 velocity=127 time=0
note_on channel=3 note=71 velocity=127 time=0
note_on channel=3 note=71 velocity=127 time=0
note_on channel=3 note=71 velocity=127 time=0
note_off channel=3 note=71 velocity=127 time=192
note_off channel=3 note=71 velocity=127 time=0
note_off channel=3 note=71 velocity=127 time=0
note_off channel=3 note=71 velocity=127 time=0
note_off channel=3 note=71 velocity=127 time=0
note_on channel=3 note=74 velocity=127 time=96
note_on channel=3 note=74 velocity=127 time=0
note_on channel=3 note=74 velocity=127 time=0
note_on channel=3 note=74 velocity=127 time=0
note_on channel=3 note=74 velocity=127 time=0
note_off channel=3 note=74 velocity=127 time=256
note_off channel=3 note=74 velocity=127 time=0
note_off channel=3 note=74 velocity=127 time=0
note_off channel=3 note=74 velocity=127 time=0
note_off channel=3 note=74 velocity=127 time=0
note_on channel=3 note=69 velocity=127 time=1472
note_on channel=3 note=69 velocity=127 time=0
note_on channel=3 note=69 velocity=127 time=0
note_on channel=3 note=69 velocity=127 time=0
note_on channel=3 note=69 velocity=127 time=0
note_off channel=3 note=69 velocity=127 time=384
note_off channel=3 note=69 velocity=127 time=0
note_off channel=3 note=69 velocity=127 time=0
note_off channel=3 note=69 velocity=127 time=0
note_off channel=3 note=69 velocity=127 time=0
note_on channel=3 note=71 velocity=127 time=0
note_on channel=3 note=71 velocity=127 time=0
note_on channel=3 note=71 velocity=127 time=0
note_on channel=3 note=71 velocity=127 time=0
note_on channel=3 note=71 velocity=127 time=0
note_off channel=3 note=71 velocity=127 time=128
note_off channel=3 note=71 velocity=127 time=0
note_off channel=3 note=71 velocity=127 time=0
note_off channel=3 note=71 velocity=127 time=0
note_off channel=3 note=71 velocity=127 time=0
note_on channel=3 note=73 velocity=127 time=64
note_on channel=3 note=73 velocity=127 time=0
note_on channel=3 note=73 velocity=127 time=0
note_on channel=3 note=73 velocity=127 time=0
note_on channel=3 note=73 velocity=127 time=0
note_off channel=3 note=73 velocity=127 time=192
note_off channel=3 note=73 velocity=127 time=0
note_off channel=3 note=73 velocity=127 time=0
note_off channel=3 note=73 velocity=127 time=0
note_off channel=3 note=73 velocity=127 time=0
note_on channel=3 note=71 velocity=127 time=96
note_on channel=3 note=71 velocity=127 time=0
note_on channel=3 note=71 velocity=127 time=0
note_on channel=3 note=71 velocity=127 time=0
note_on channel=3 note=71 velocity=127 time=0
note_off channel=3 note=71 velocity=127 time=128
note_off channel=3 note=71 velocity=127 time=0
note_off channel=3 note=71 velocity=127 time=0
note_off channel=3 note=71 velocity=127 time=0
note_off channel=3 note=71 velocity=127 time=0
note_on channel=3 note=73 velocity=127 time=160
note_on channel=3 note=73 velocity=127 time=0
note_on channel=3 note=73 velocity=127 time=0
note_on channel=3 note=73 velocity=127 time=0
note_on channel=3 note=73 velocity=127 time=0
note_off channel=3 note=73 velocity=127 time=128
note_off channel=3 note=73 velocity=127 time=0
note_off channel=3 note=73 velocity=127 time=0
note_off channel=3 note=73 velocity=127 time=0
note_off channel=3 note=73 velocity=127 time=0
note_on channel=3 note=69 velocity=127 time=256
note_on channel=3 note=69 velocity=127 time=0
note_on channel=3 note=69 velocity=127 time=0
note_on channel=3 note=69 velocity=127 time=0
note_on channel=3 note=69 velocity=127 time=0
note_off channel=3 note=69 velocity=127 time=384
note_off channel=3 note=69 velocity=127 time=0
note_off channel=3 note=69 velocity=127 time=0
note_off channel=3 note=69 velocity=127 time=0
note_off channel=3 note=69 velocity=127 time=0
note_on channel=3 note=71 velocity=127 time=0
note_on channel=3 note=71 velocity=127 time=0
note_on channel=3 note=71 velocity=127 time=0
note_on channel=3 note=71 velocity=127 time=0
note_on channel=3 note=71 velocity=127 time=0
note_off channel=3 note=71 velocity=127 time=128
note_off channel=3 note=71 velocity=127 time=0
note_off channel=3 note=71 velocity=127 time=0
note_off channel=3 note=71 velocity=127 time=0
note_off channel=3 note=71 velocity=127 time=0
note_on channel=3 note=73 velocity=127 time=64
note_on channel=3 note=73 velocity=127 time=0
note_on channel=3 note=73 velocity=127 time=0
note_on channel=3 note=73 velocity=127 time=0
note_on channel=3 note=73 velocity=127 time=0
note_off channel=3 note=73 velocity=127 time=192
note_off channel=3 note=73 velocity=127 time=0
note_off channel=3 note=73 velocity=127 time=0
note_off channel=3 note=73 velocity=127 time=0
note_off channel=3 note=73 velocity=127 time=0
note_on channel=3 note=71 velocity=127 time=96
note_on channel=3 note=71 velocity=127 time=0
note_on channel=3 note=71 velocity=127 time=0
note_on channel=3 note=71 velocity=127 time=0
note_on channel=3 note=71 velocity=127 time=0
note_off channel=3 note=71 velocity=127 time=128
note_off channel=3 note=71 velocity=127 time=0
note_off channel=3 note=71 velocity=127 time=0
note_off channel=3 note=71 velocity=127 time=0
note_off channel=3 note=71 velocity=127 time=0
note_on channel=3 note=73 velocity=127 time=64
note_on channel=3 note=73 velocity=127 time=0
note_on channel=3 note=73 velocity=127 time=0
note_on channel=3 note=73 velocity=127 time=0
note_on channel=3 note=73 velocity=127 time=0
note_off channel=3 note=73 velocity=127 time=64
note_off channel=3 note=73 velocity=127 time=0
note_off channel=3 note=73 velocity=127 time=0
note_off channel=3 note=73 velocity=127 time=0
note_off channel=3 note=73 velocity=127 time=0
note_on channel=3 note=73 velocity=127 time=32
note_on channel=3 note=73 velocity=127 time=0
note_on channel=3 note=73 velocity=127 time=0
note_on channel=3 note=73 velocity=127 time=0
note_on channel=3 note=73 velocity=127 time=0
note_off channel=3 note=73 velocity=127 time=128
note_off channel=3 note=73 velocity=127 time=0
note_off channel=3 note=73 velocity=127 time=0
note_off channel=3 note=73 velocity=127 time=0
note_off channel=3 note=73 velocity=127 time=0
note_on channel=3 note=74 velocity=127 time=64
note_on channel=3 note=74 velocity=127 time=0
note_on channel=3 note=74 velocity=127 time=0
note_on channel=3 note=74 velocity=127 time=0
note_on channel=3 note=74 velocity=127 time=0
note_off channel=3 note=74 velocity=127 time=64
note_off channel=3 note=74 velocity=127 time=0
note_off channel=3 note=74 velocity=127 time=0
note_off channel=3 note=74 velocity=127 time=0
note_off channel=3 note=74 velocity=127 time=0
note_on channel=3 note=74 velocity=127 time=32
note_on channel=3 note=74 velocity=127 time=0
note_on channel=3 note=74 velocity=127 time=0
note_on channel=3 note=74 velocity=127 time=0
note_on channel=3 note=74 velocity=127 time=0
note_off channel=3 note=74 velocity=127 time=128
note_off channel=3 note=74 velocity=127 time=0
note_off channel=3 note=74 velocity=127 time=0
note_off channel=3 note=74 velocity=127 time=0
note_off channel=3 note=74 velocity=127 time=0
note_on channel=3 note=74 velocity=127 time=64
note_on channel=3 note=74 velocity=127 time=0
note_on channel=3 note=74 velocity=127 time=0
note_on channel=3 note=74 velocity=127 time=0
note_on channel=3 note=74 velocity=127 time=0
note_off channel=3 note=74 velocity=127 time=256
note_off channel=3 note=74 velocity=127 time=0
note_off channel=3 note=74 velocity=127 time=0
note_off channel=3 note=74 velocity=127 time=0
note_off channel=3 note=74 velocity=127 time=0
note_on channel=3 note=74 velocity=127 time=704
note_on channel=3 note=74 velocity=127 time=0
note_on channel=3 note=74 velocity=127 time=0
note_on channel=3 note=74 velocity=127 time=0
note_on channel=3 note=74 velocity=127 time=0
note_off channel=3 note=74 velocity=127 time=64
note_off channel=3 note=74 velocity=127 time=0
note_off channel=3 note=74 velocity=127 time=0
note_off channel=3 note=74 velocity=127 time=0
note_off channel=3 note=74 velocity=127 time=0
note_on channel=3 note=74 velocity=127 time=32
note_on channel=3 note=74 velocity=127 time=0
note_on channel=3 note=74 velocity=127 time=0
note_on channel=3 note=74 velocity=127 time=0
note_on channel=3 note=74 velocity=127 time=0
note_off channel=3 note=74 velocity=127 time=128
note_off channel=3 note=74 velocity=127 time=0
note_off channel=3 note=74 velocity=127 time=0
note_off channel=3 note=74 velocity=127 time=0
note_off channel=3 note=74 velocity=127 time=0
note_on channel=3 note=76 velocity=127 time=13504
note_off channel=3 note=76 velocity=127 time=64
note_on channel=3 note=76 velocity=127 time=32
note_off channel=3 note=76 velocity=127 time=192
note_on channel=3 note=69 velocity=127 time=288
note_on channel=3 note=71 velocity=127 time=384
note_off channel=3 note=71 velocity=127 time=128
note_on channel=3 note=75 velocity=127 time=64
note_off channel=3 note=69 velocity=127 time=192
note_off channel=3 note=75 velocity=127 time=0
note_on channel=3 note=71 velocity=127 time=96
note_off channel=3 note=71 velocity=127 time=192
note_on channel=3 note=75 velocity=127 time=96
note_off channel=3 note=75 velocity=127 time=128
note_on channel=3 note=69 velocity=127 time=256
note_on channel=3 note=71 velocity=127 time=384
note_off channel=3 note=71 velocity=127 time=128
note_on channel=3 note=75 velocity=127 time=64
note_off channel=3 note=69 velocity=127 time=192
note_off channel=3 note=75 velocity=127 time=0
note_on channel=3 note=71 velocity=127 time=96
note_off channel=3 note=71 velocity=127 time=192
note_on channel=3 note=75 velocity=127 time=96
note_off channel=3 note=75 velocity=127 time=128
note_on channel=3 note=79 velocity=127 time=256
note_on channel=3 note=76 velocity=127 time=384
note_off channel=3 note=76 velocity=127 time=128
note_on channel=3 note=76 velocity=127 time=64
note_off channel=3 note=79 velocity=127 time=192
note_off channel=3 note=76 velocity=127 time=0
note_on channel=3 note=76 velocity=127 time=96
note_off channel=3 note=76 velocity=127 time=192
note_on channel=3 note=76 velocity=127 time=96
note_off channel=3 note=76 velocity=127 time=128
note_on channel=3 note=79 velocity=127 time=256
note_on channel=3 note=76 velocity=127 time=384
note_off channel=3 note=76 velocity=127 time=128
note_on channel=3 note=76 velocity=127 time=64
note_off channel=3 note=79 velocity=127 time=192
note_off channel=3 note=76 velocity=127 time=0
note_on channel=3 note=76 velocity=127 time=96
note_off channel=3 note=76 velocity=127 time=192
note_on channel=3 note=76 velocity=127 time=96
note_off channel=3 note=76 velocity=127 time=128
note_on channel=3 note=69 velocity=127 time=256
note_on channel=3 note=71 velocity=127 time=384
note_off channel=3 note=71 velocity=127 time=128
note_on channel=3 note=75 velocity=127 time=64
note_off channel=3 note=69 velocity=127 time=192
note_off channel=3 note=75 velocity=127 time=0
note_on channel=3 note=71 velocity=127 time=96
note_off channel=3 note=71 velocity=127 time=192
note_on channel=3 note=75 velocity=127 time=96
note_off channel=3 note=75 velocity=127 time=128
<meta message end_of_track time=0>
<meta message track_name name='work track' time=0>
control_change channel=1 control=0 value=0 time=0
program_change channel=1 program=29 time=0
control_change channel=1 control=10 value=31 time=0
control_change channel=1 control=91 value=15 time=0
control_change channel=1 control=93 value=80 time=0
<meta message key_signature key='E' time=0>
<meta message end_of_track time=0>
<meta message track_name name='lead_guit' time=0>
control_change channel=5 control=0 value=0 time=0
program_change channel=5 program=29 time=0
control_change channel=5 control=10 value=21 time=0
control_change channel=5 control=91 value=31 time=0
control_change channel=5 control=93 value=118 time=0
<meta message key_signature key='E' time=0>
note_on channel=5 note=52 velocity=100 time=56832
note_on channel=5 note=52 velocity=100 time=0
note_on channel=5 note=52 velocity=100 time=0
note_off channel=5 note=52 velocity=100 time=128
note_off channel=5 note=52 velocity=100 time=0
note_off channel=5 note=52 velocity=100 time=0
note_on channel=5 note=64 velocity=100 time=64
note_on channel=5 note=64 velocity=100 time=0
note_on channel=5 note=64 velocity=100 time=0
note_off channel=5 note=64 velocity=100 time=384
note_off channel=5 note=64 velocity=100 time=0
note_off channel=5 note=64 velocity=100 time=0
note_on channel=5 note=62 velocity=100 time=192
note_on channel=5 note=62 velocity=100 time=0
note_on channel=5 note=62 velocity=100 time=0
note_off channel=5 note=62 velocity=100 time=128
note_off channel=5 note=62 velocity=100 time=0
note_off channel=5 note=62 velocity=100 time=0
note_on channel=5 note=62 velocity=100 time=64
note_on channel=5 note=62 velocity=100 time=0
note_on channel=5 note=62 velocity=100 time=0
note_off channel=5 note=62 velocity=100 time=384
note_off channel=5 note=62 velocity=100 time=0
note_off channel=5 note=62 velocity=100 time=0
note_on channel=5 note=61 velocity=100 time=192
note_on channel=5 note=61 velocity=100 time=0
note_on channel=5 note=61 velocity=100 time=0
note_off channel=5 note=61 velocity=100 time=128
note_off channel=5 note=61 velocity=100 time=0
note_off channel=5 note=61 velocity=100 time=0
note_on channel=5 note=61 velocity=100 time=64
note_on channel=5 note=61 velocity=100 time=0
note_on channel=5 note=61 velocity=100 time=0
note_off channel=5 note=61 velocity=100 time=384
note_off channel=5 note=61 velocity=100 time=0
note_off channel=5 note=61 velocity=100 time=0
note_on channel=5 note=59 velocity=100 time=192
note_on channel=5 note=59 velocity=100 time=0
note_on channel=5 note=59 velocity=100 time=0
note_off channel=5 note=59 velocity=100 time=128
note_off channel=5 note=59 velocity=100 time=0
note_off channel=5 note=59 velocity=100 time=0
note_on channel=5 note=67 velocity=100 time=64
note_on channel=5 note=67 velocity=100 time=0
note_on channel=5 note=67 velocity=100 time=0
note_off channel=5 note=67 velocity=100 time=64
note_off channel=5 note=67 velocity=100 time=0
note_off channel=5 note=67 velocity=100 time=0
note_on channel=5 note=69 velocity=100 time=32
note_on channel=5 note=69 velocity=100 time=0
note_on channel=5 note=69 velocity=100 time=0
note_off channel=5 note=69 velocity=100 time=64
note_off channel=5 note=69 velocity=100 time=0
note_off channel=5 note=69 velocity=100 time=0
note_on channel=5 note=70 velocity=100 time=32
note_on channel=5 note=70 velocity=100 time=0
note_on channel=5 note=70 velocity=100 time=0
note_off channel=5 note=70 velocity=100 time=40
note_off channel=5 note=70 velocity=100 time=0
note_off channel=5 note=70 velocity=100 time=0
note_on channel=5 note=69 velocity=100 time=24
note_on channel=5 note=69 velocity=100 time=0
note_on channel=5 note=69 velocity=100 time=0
note_off channel=5 note=69 velocity=100 time=40
note_off channel=5 note=69 velocity=100 time=0
note_off channel=5 note=69 velocity=100 time=0
note_on channel=5 note=67 velocity=100 time=24
note_on channel=5 note=67 velocity=100 time=0
note_on channel=5 note=67 velocity=100 time=0
note_off channel=5 note=67 velocity=100 time=40
note_off channel=5 note=67 velocity=100 time=0
note_off channel=5 note=67 velocity=100 time=0
note_on channel=5 note=69 velocity=100 time=24
note_on channel=5 note=69 velocity=100 time=0
note_on channel=5 note=69 velocity=100 time=0
note_off channel=5 note=69 velocity=100 time=64
note_off channel=5 note=69 velocity=100 time=0
note_off channel=5 note=69 velocity=100 time=0
note_on channel=5 note=64 velocity=100 time=32
note_on channel=5 note=64 velocity=100 time=0
note_on channel=5 note=64 velocity=100 time=0
note_off channel=5 note=64 velocity=100 time=64
note_off channel=5 note=64 velocity=100 time=0
note_off channel=5 note=64 velocity=100 time=0
note_on channel=5 note=52 velocity=100 time=32
note_on channel=5 note=52 velocity=100 time=0
note_on channel=5 note=52 velocity=100 time=0
note_off channel=5 note=52 velocity=100 time=128
note_off channel=5 note=52 velocity=100 time=0
note_off channel=5 note=52 velocity=100 time=0
note_on channel=5 note=64 velocity=100 time=64
note_on channel=5 note=64 velocity=100 time=0
note_on channel=5 note=64 velocity=100 time=0
note_off channel=5 note=64 velocity=100 time=384
note_off channel=5 note=64 velocity=100 time=0
note_off channel=5 note=64 velocity=100 time=0
note_on channel=5 note=62 velocity=100 time=192
note_on channel=5 note=62 velocity=100 time=0
note_on channel=5 note=62 velocity=100 time=0
note_off channel=5 note=62 velocity=100 time=128
note_off channel=5 note=62 velocity=100 time=0
note_off channel=5 note=62 velocity=100 time=0
note_on channel=5 note=62 velocity=100 time=64
note_on channel=5 note=62 velocity=100 time=0
note_on channel=5 note=62 velocity=100 time=0
note_off channel=5 note=62 velocity=100 time=384
note_off channel=5 note=62 velocity=100 time=0
note_off channel=5 note=62 velocity=100 time=0
note_on channel=5 note=61 velocity=100 time=192
note_on channel=5 note=61 velocity=100 time=0
note_on channel=5 note=61 velocity=100 time=0
note_off channel=5 note=61 velocity=100 time=128
note_off channel=5 note=61 velocity=100 time=0
note_off channel=5 note=61 velocity=100 time=0
note_on channel=5 note=61 velocity=100 time=64
note_on channel=5 note=61 velocity=100 time=0
note_on channel=5 note=61 velocity=100 time=0
note_off channel=5 note=61 velocity=100 time=384
note_off channel=5 note=61 velocity=100 time=0
note_off channel=5 note=61 velocity=100 time=0
note_on channel=5 note=74 velocity=100 time=384
note_on channel=5 note=74 velocity=100 time=0
note_on channel=5 note=74 velocity=100 time=0
note_off channel=5 note=74 velocity=100 time=128
note_off channel=5 note=74 velocity=100 time=0
note_off channel=5 note=74 velocity=100 time=0
note_on channel=5 note=74 velocity=100 time=256
note_on channel=5 note=74 velocity=100 time=0
note_on channel=5 note=74 velocity=100 time=0
note_off channel=5 note=74 velocity=100 time=128
note_off channel=5 note=74 velocity=100 time=0
note_off channel=5 note=74 velocity=100 time=0
note_on channel=5 note=76 velocity=100 time=64
note_on channel=5 note=76 velocity=100 time=0
note_on channel=5 note=76 velocity=100 time=0
note_off channel=5 note=76 velocity=100 time=512
note_off channel=5 note=76 velocity=100 time=0
note_off channel=5 note=76 velocity=100 time=0
note_on channel=5 note=76 velocity=100 time=256
note_on channel=5 note=76 velocity=100 time=0
note_on channel=5 note=76 velocity=100 time=0
note_off channel=5 note=76 velocity=100 time=64
note_off channel=5 note=76 velocity=100 time=0
note_off channel=5 note=76 velocity=100 time=0
note_on channel=5 note=79 velocity=100 time=32
note_on channel=5 note=79 velocity=100 time=0
note_on channel=5 note=79 velocity=100 time=0
note_off channel=5 note=79 velocity=100 time=64
note_off channel=5 note=79 velocity=100 time=0
note_off channel=5 note=79 velocity=100 time=0
note_on channel=5 note=76 velocity=100 time=32
note_on channel=5 note=76 velocity=100 time=0
note_on channel=5 note=76 velocity=100 time=0
note_off channel=5 note=76 velocity=100 time=64
note_off channel=5 note=76 velocity=100 time=0
note_off channel=5 note=76 velocity=100 time=0
note_on channel=5 note=76 velocity=100 time=128
note_on channel=5 note=76 velocity=100 time=0
note_on channel=5 note=76 velocity=100 time=0
note_off channel=5 note=76 velocity=100 time=256
note_off channel=5 note=76 velocity=100 time=0
note_off channel=5 note=76 velocity=100 time=0
note_on channel=5 note=76 velocity=100 time=128
note_on channel=5 note=76 velocity=100 time=0
note_on channel=5 note=76 velocity=100 time=0
note_off channel=5 note=76 velocity=100 time=64
note_off channel=5 note=76 velocity=100 time=0
note_off channel=5 note=76 velocity=100 time=0
note_on channel=5 note=79 velocity=100 time=32
note_on channel=5 note=79 velocity=100 time=0
note_on channel=5 note=79 velocity=100 time=0
note_off channel=5 note=79 velocity=100 time=64
note_off channel=5 note=79 velocity=100 time=0
note_off channel=5 note=79 velocity=100 time=0
note_on channel=5 note=81 velocity=100 time=32
note_on channel=5 note=81 velocity=100 time=0
note_on channel=5 note=81 velocity=100 time=0
note_off channel=5 note=81 velocity=100 time=32
note_off channel=5 note=81 velocity=100 time=0
note_off channel=5 note=81 velocity=100 time=0
note_on channel=5 note=82 velocity=100 time=16
note_on channel=5 note=82 velocity=100 time=0
note_on channel=5 note=82 velocity=100 time=0
note_off channel=5 note=82 velocity=100 time=32
note_off channel=5 note=82 velocity=100 time=0
note_off channel=5 note=82 velocity=100 time=0
note_on channel=5 note=81 velocity=100 time=16
note_on channel=5 note=81 velocity=100 time=0
note_on channel=5 note=81 velocity=100 time=0
note_off channel=5 note=81 velocity=100 time=32
note_off channel=5 note=81 velocity=100 time=0
note_off channel=5 note=81 velocity=100 time=0
note_on channel=5 note=80 velocity=100 time=16
note_on channel=5 note=80 velocity=100 time=0
note_on channel=5 note=80 velocity=100 time=0
note_off channel=5 note=80 velocity=100 time=32
note_off channel=5 note=80 velocity=100 time=0
note_off channel=5 note=80 velocity=100 time=0
note_on channel=5 note=81 velocity=100 time=112
note_on channel=5 note=81 velocity=100 time=0
note_on channel=5 note=81 velocity=100 time=0
note_off channel=5 note=81 velocity=100 time=64
note_off channel=5 note=81 velocity=100 time=0
note_off channel=5 note=81 velocity=100 time=0
note_on channel=5 note=76 velocity=100 time=32
note_on channel=5 note=76 velocity=100 time=0
note_on channel=5 note=76 velocity=100 time=0
note_off channel=5 note=76 velocity=100 time=64
note_off channel=5 note=76 velocity=100 time=0
note_off channel=5 note=76 velocity=100 time=0
note_on channel=5 note=74 velocity=100 time=32
note_on channel=5 note=74 velocity=100 time=0
note_on channel=5 note=74 velocity=100 time=0
note_off channel=5 note=74 velocity=100 time=64
note_off channel=5 note=74 velocity=100 time=0
note_off channel=5 note=74 velocity=100 time=0
note_on channel=5 note=76 velocity=100 time=32
note_on channel=5 note=76 velocity=100 time=0
note_on channel=5 note=76 velocity=100 time=0
note_off channel=5 note=76 velocity=100 time=256
note_off channel=5 note=76 velocity=100 time=0
note_off channel=5 note=76 velocity=100 time=0
note_on channel=5 note=80 velocity=100 time=224
note_on channel=5 note=80 velocity=100 time=0
note_on channel=5 note=80 velocity=100 time=0
note_off channel=5 note=80 velocity=100 time=64
note_off channel=5 note=80 velocity=100 time=0
note_off channel=5 note=80 velocity=100 time=0
note_on channel=5 note=76 velocity=100 time=32
note_on channel=5 note=76 velocity=100 time=0
note_on channel=5 note=76 velocity=100 time=0
note_off channel=5 note=76 velocity=100 time=64
note_off channel=5 note=76 velocity=100 time=0
note_off channel=5 note=76 velocity=100 time=0
note_on channel=5 note=80 velocity=100 time=32
note_on channel=5 note=80 velocity=100 time=0
note_on channel=5 note=80 velocity=100 time=0
note_off channel=5 note=80 velocity=100 time=64
note_off channel=5 note=80 velocity=100 time=0
note_off channel=5 note=80 velocity=100 time=0
note_on channel=5 note=81 velocity=100 time=32
note_on channel=5 note=81 velocity=100 time=0
note_on channel=5 note=81 velocity=100 time=0
note_off channel=5 note=81 velocity=100 time=64
note_off channel=5 note=81 velocity=100 time=0
note_off channel=5 note=81 velocity=100 time=0
note_on channel=5 note=83 velocity=100 time=32
note_on channel=5 note=83 velocity=100 time=0
note_on channel=5 note=83 velocity=100 time=0
note_off channel=5 note=83 velocity=100 time=64
note_off channel=5 note=83 velocity=100 time=0
note_off channel=5 note=83 velocity=100 time=0
note_on channel=5 note=83 velocity=100 time=32
note_on channel=5 note=87 velocity=100 time=0
note_on channel=5 note=83 velocity=100 time=0
note_on channel=5 note=87 velocity=100 time=0
note_on channel=5 note=83 velocity=100 time=0
note_on channel=5 note=87 velocity=100 time=0
note_off channel=5 note=83 velocity=100 time=64
note_off channel=5 note=87 velocity=100 time=0
note_off channel=5 note=83 velocity=100 time=0
note_off channel=5 note=87 velocity=100 time=0
note_off channel=5 note=83 velocity=100 time=0
note_off channel=5 note=87 velocity=100 time=0
note_on channel=5 note=87 velocity=100 time=32
note_on channel=5 note=83 velocity=100 time=0
note_on channel=5 note=87 velocity=100 time=0
note_on channel=5 note=83 velocity=100 time=0
note_on channel=5 note=87 velocity=100 time=0
note_on channel=5 note=83 velocity=100 time=0
note_off channel=5 note=87 velocity=100 time=384
note_off channel=5 note=83 velocity=100 time=0
note_off channel=5 note=87 velocity=100 time=0
note_off channel=5 note=83 velocity=100 time=0
note_off channel=5 note=87 velocity=100 time=0
note_off channel=5 note=83 velocity=100 time=0
note_on channel=5 note=83 velocity=100 time=96
note_on channel=5 note=87 velocity=100 time=0
note_on channel=5 note=83 velocity=100 time=0
note_on channel=5 note=87 velocity=100 time=0
note_on channel=5 note=83 velocity=100 time=0
note_on channel=5 note=87 velocity=100 time=0
note_off channel=5 note=83 velocity=100 time=32
note_off channel=5 note=87 velocity=100 time=0
note_off channel=5 note=83 velocity=100 time=0
note_off channel=5 note=87 velocity=100 time=0
note_off channel=5 note=83 velocity=100 time=0
note_off channel=5 note=87 velocity=100 time=0
note_on channel=5 note=87 velocity=100 time=16
note_on channel=5 note=87 velocity=100 time=0
note_on channel=5 note=87 velocity=100 time=0
note_off channel=5 note=87 velocity=100 time=32
note_off channel=5 note=87 velocity=100 time=0
note_off channel=5 note=87 velocity=100 time=0
note_on channel=5 note=81 velocity=100 time=16
note_on channel=5 note=81 velocity=100 time=0
note_on channel=5 note=81 velocity=100 time=0
note_off channel=5 note=81 velocity=100 time=32
note_off channel=5 note=81 velocity=100 time=0
note_off channel=5 note=81 velocity=100 time=0
note_on channel=5 note=83 velocity=100 time=16
note_on channel=5 note=83 velocity=100 time=0
note_on channel=5 note=83 velocity=100 time=0
note_off channel=5 note=83 velocity=100 time=32
note_off channel=5 note=83 velocity=100 time=0
note_off channel=5 note=83 velocity=100 time=0
note_on channel=5 note=80 velocity=100 time=688
note_on channel=5 note=75 velocity=100 time=0
note_on channel=5 note=80 velocity=100 time=0
note_on channel=5 note=75 velocity=100 time=0
note_on channel=5 note=80 velocity=100 time=0
note_on channel=5 note=75 velocity=100 time=0
note_off channel=5 note=80 velocity=100 time=128
note_off channel=5 note=75 velocity=100 time=0
note_off channel=5 note=80 velocity=100 time=0
note_off channel=5 note=75 velocity=100 time=0
note_off channel=5 note=80 velocity=100 time=0
note_off channel=5 note=75 velocity=100 time=0
note_on channel=5 note=76 velocity=100 time=64
note_on channel=5 note=76 velocity=100 time=0
note_on channel=5 note=76 velocity=100 time=0
note_off channel=5 note=76 velocity=100 time=64
note_off channel=5 note=76 velocity=100 time=0
note_off channel=5 note=76 velocity=100 time=0
note_on channel=5 note=80 velocity=100 time=32
note_on channel=5 note=80 velocity=100 time=0
note_on channel=5 note=80 velocity=100 time=0
note_off channel=5 note=80 velocity=100 time=64
note_off channel=5 note=80 velocity=100 time=0
note_off channel=5 note=80 velocity=100 time=0
note_on channel=5 note=76 velocity=100 time=32
note_on channel=5 note=76 velocity=100 time=0
note_on channel=5 note=76 velocity=100 time=0
note_off channel=5 note=76 velocity=100 time=64
note_off channel=5 note=76 velocity=100 time=0
note_off channel=5 note=76 velocity=100 time=0
note_on channel=5 note=81 velocity=100 time=32
note_on channel=5 note=81 velocity=100 time=0
note_on channel=5 note=81 velocity=100 time=0
note_off channel=5 note=81 velocity=100 time=64
note_off channel=5 note=81 velocity=100 time=0
note_off channel=5 note=81 velocity=100 time=0
note_on channel=5 note=80 velocity=100 time=32
note_on channel=5 note=80 velocity=100 time=0
note_on channel=5 note=80 velocity=100 time=0
note_off channel=5 note=80 velocity=100 time=64
note_off channel=5 note=80 velocity=100 time=0
note_off channel=5 note=80 velocity=100 time=0
note_on channel=5 note=81 velocity=100 time=32
note_on channel=5 note=81 velocity=100 time=0
note_on channel=5 note=81 velocity=100 time=0
note_off channel=5 note=81 velocity=100 time=64
note_off channel=5 note=81 velocity=100 time=0
note_off channel=5 note=81 velocity=100 time=0
note_on channel=5 note=83 velocity=100 time=32
note_on channel=5 note=83 velocity=100 time=0
note_on channel=5 note=83 velocity=100 time=0
note_off channel=5 note=83 velocity=100 time=64
note_off channel=5 note=83 velocity=100 time=0
note_off channel=5 note=83 velocity=100 time=0
note_on channel=5 note=86 velocity=100 time=32
note_on channel=5 note=86 velocity=100 time=0
note_on channel=5 note=86 velocity=100 time=0
note_off channel=5 note=86 velocity=100 time=64
note_off channel=5 note=86 velocity=100 time=0
note_off channel=5 note=86 velocity=100 time=0
note_on channel=5 note=83 velocity=100 time=32
note_on channel=5 note=83 velocity=100 time=0
note_on channel=5 note=83 velocity=100 time=0
note_off channel=5 note=83 velocity=100 time=384
note_off channel=5 note=83 velocity=100 time=0
note_off channel=5 note=83 velocity=100 time=0
note_on channel=5 note=83 velocity=100 time=192
note_on channel=5 note=83 velocity=100 time=0
note_on channel=5 note=83 velocity=100 time=0
note_off channel=5 note=83 velocity=100 time=64
note_off channel=5 note=83 velocity=100 time=0
note_off channel=5 note=83 velocity=100 time=0
note_on channel=5 note=88 velocity=100 time=32
note_on channel=5 note=88 velocity=100 time=0
note_on channel=5 note=88 velocity=100 time=0
note_off channel=5 note=88 velocity=100 time=64
note_off channel=5 note=88 velocity=100 time=0
note_off channel=5 note=88 velocity=100 time=0
note_on channel=5 note=88 velocity=100 time=32
note_on channel=5 note=88 velocity=100 time=0
note_on channel=5 note=88 velocity=100 time=0
note_off channel=5 note=88 velocity=100 time=64
note_off channel=5 note=88 velocity=100 time=0
note_off channel=5 note=88 velocity=100 time=0
note_on channel=5 note=88 velocity=100 time=32
note_on channel=5 note=88 velocity=100 time=0
note_on channel=5 note=88 velocity=100 time=0
note_off channel=5 note=88 velocity=100 time=64
note_off channel=5 note=88 velocity=100 time=0
note_off channel=5 note=88 velocity=100 time=0
note_on channel=5 note=88 velocity=100 time=32
note_on channel=5 note=88 velocity=100 time=0
note_on channel=5 note=88 velocity=100 time=0
note_off channel=5 note=88 velocity=100 time=128
note_off channel=5 note=88 velocity=100 time=0
note_off channel=5 note=88 velocity=100 time=0
note_on channel=5 note=88 velocity=100 time=64
note_on channel=5 note=88 velocity=100 time=0
note_on channel=5 note=88 velocity=100 time=0
note_off channel=5 note=88 velocity=100 time=64
note_off channel=5 note=88 velocity=100 time=0
note_off channel=5 note=88 velocity=100 time=0
note_on channel=5 note=88 velocity=100 time=32
note_on channel=5 note=88 velocity=100 time=0
note_on channel=5 note=88 velocity=100 time=0
note_off channel=5 note=88 velocity=100 time=128
note_off channel=5 note=88 velocity=100 time=0
note_off channel=5 note=88 velocity=100 time=0
note_on channel=5 note=88 velocity=100 time=64
note_on channel=5 note=88 velocity=100 time=0
note_on channel=5 note=88 velocity=100 time=0
note_off channel=5 note=88 velocity=100 time=40
note_off channel=5 note=88 velocity=100 time=0
note_off channel=5 note=88 velocity=100 time=0
note_on channel=5 note=87 velocity=100 time=24
note_on channel=5 note=87 velocity=100 time=0
note_on channel=5 note=87 velocity=100 time=0
note_off channel=5 note=87 velocity=100 time=40
note_off channel=5 note=87 velocity=100 time=0
note_off channel=5 note=87 velocity=100 time=0
note_on channel=5 note=83 velocity=100 time=24
note_on channel=5 note=83 velocity=100 time=0
note_on channel=5 note=83 velocity=100 time=0
note_off channel=5 note=83 velocity=100 time=40
note_off channel=5 note=83 velocity=100 time=0
note_off channel=5 note=83 velocity=100 time=0
note_on channel=5 note=81 velocity=100 time=24
note_on channel=5 note=81 velocity=100 time=0
note_on channel=5 note=81 velocity=100 time=0
note_off channel=5 note=81 velocity=100 time=40
note_off channel=5 note=81 velocity=100 time=0
note_off channel=5 note=81 velocity=100 time=0
note_on channel=5 note=83 velocity=100 time=24
note_on channel=5 note=83 velocity=100 time=0
note_on channel=5 note=83 velocity=100 time=0
note_off channel=5 note=83 velocity=100 time=40
note_off channel=5 note=83 velocity=100 time=0
note_off channel=5 note=83 velocity=100 time=0
note_on channel=5 note=79 velocity=100 time=24
note_on channel=5 note=79 velocity=100 time=0
note_on channel=5 note=79 velocity=100 time=0
note_off channel=5 note=79 velocity=100 time=40
note_off channel=5 note=79 velocity=100 time=0
note_off channel=5 note=79 velocity=100 time=0
note_on channel=5 note=83 velocity=100 time=24
note_on channel=5 note=83 velocity=100 time=0
note_on channel=5 note=83 velocity=100 time=0
note_off channel=5 note=83 velocity=100 time=128
note_off channel=5 note=83 velocity=100 time=0
note_off channel=5 note=83 velocity=100 time=0
note_on channel=5 note=87 velocity=100 time=64
note_on channel=5 note=87 velocity=100 time=0
note_on channel=5 note=87 velocity=100 time=0
note_off channel=5 note=87 velocity=100 time=64
note_off channel=5 note=87 velocity=100 time=0
note_off channel=5 note=87 velocity=100 time=0
note_on channel=5 note=83 velocity=100 time=32
note_on channel=5 note=83 velocity=100 time=0
note_on channel=5 note=83 velocity=100 time=0
note_off channel=5 note=83 velocity=100 time=128
note_off channel=5 note=83 velocity=100 time=0
note_off channel=5 note=83 velocity=100 time=0
note_on channel=5 note=83 velocity=100 time=64
note_on channel=5 note=91 velocity=100 time=0
note_on channel=5 note=83 velocity=100 time=0
note_on channel=5 note=91 velocity=100 time=0
note_on channel=5 note=83 velocity=100 time=0
note_on channel=5 note=91 velocity=100 time=0
note_off channel=5 note=83 velocity=100 time=64
note_off channel=5 note=91 velocity=100 time=0
note_off channel=5 note=83 velocity=100 time=0
note_off channel=5 note=91 velocity=100 time=0
note_off channel=5 note=83 velocity=100 time=0
note_off channel=5 note=91 velocity=100 time=0
note_on channel=5 note=83 velocity=100 time=32
note_on channel=5 note=83 velocity=100 time=0
note_on channel=5 note=83 velocity=100 time=0
note_off channel=5 note=83 velocity=100 time=40
note_off channel=5 note=83 velocity=100 time=0
note_off channel=5 note=83 velocity=100 time=0
note_on channel=5 note=81 velocity=100 time=24
note_on channel=5 note=81 velocity=100 time=0
note_on channel=5 note=81 velocity=100 time=0
note_off channel=5 note=81 velocity=100 time=40
note_off channel=5 note=81 velocity=100 time=0
note_off channel=5 note=81 velocity=100 time=0
note_on channel=5 note=79 velocity=100 time=24
note_on channel=5 note=79 velocity=100 time=0
note_on channel=5 note=79 velocity=100 time=0
note_off channel=5 note=79 velocity=100 time=40
note_off channel=5 note=79 velocity=100 time=0
note_off channel=5 note=79 velocity=100 time=0
note_on channel=5 note=81 velocity=100 time=24
note_on channel=5 note=81 velocity=100 time=0
note_on channel=5 note=81 velocity=100 time=0
note_off channel=5 note=81 velocity=100 time=64
note_off channel=5 note=81 velocity=100 time=0
note_off channel=5 note=81 velocity=100 time=0
note_on channel=5 note=76 velocity=100 time=32
note_on channel=5 note=76 velocity=100 time=0
note_on channel=5 note=76 velocity=100 time=0
note_off channel=5 note=76 velocity=100 time=64
note_off channel=5 note=76 velocity=100 time=0
note_off channel=5 note=76 velocity=100 time=0
note_on channel=5 note=81 velocity=100 time=32
note_on channel=5 note=81 velocity=100 time=0
note_on channel=5 note=81 velocity=100 time=0
note_off channel=5 note=81 velocity=100 time=384
note_off channel=5 note=81 velocity=100 time=0
note_off channel=5 note=81 velocity=100 time=0
note_on channel=5 note=74 velocity=100 time=96
note_on channel=5 note=74 velocity=100 time=0
note_on channel=5 note=74 velocity=100 time=0
note_off channel=5 note=74 velocity=100 time=64
note_off channel=5 note=74 velocity=100 time=0
note_off channel=5 note=74 velocity=100 time=0
note_on channel=5 note=75 velocity=100 time=32
note_on channel=5 note=75 velocity=100 time=0
note_on channel=5 note=75 velocity=100 time=0
note_off channel=5 note=75 velocity=100 time=64
note_off channel=5 note=75 velocity=100 time=0
note_off channel=5 note=75 velocity=100 time=0
note_on channel=5 note=76 velocity=100 time=32
note_on channel=5 note=76 velocity=100 time=0
note_on channel=5 note=76 velocity=100 time=0
note_off channel=5 note=76 velocity=100 time=64
note_off channel=5 note=76 velocity=100 time=0
note_off channel=5 note=76 velocity=100 time=0
note_on channel=5 note=79 velocity=100 time=32
note_on channel=5 note=79 velocity=100 time=0
note_on channel=5 note=79 velocity=100 time=0
note_off channel=5 note=79 velocity=100 time=64
note_off channel=5 note=79 velocity=100 time=0
note_off channel=5 note=79 velocity=100 time=0
note_on channel=5 note=76 velocity=100 time=32
note_on channel=5 note=76 velocity=100 time=0
note_on channel=5 note=76 velocity=100 time=0
note_off channel=5 note=76 velocity=100 time=64
note_off channel=5 note=76 velocity=100 time=0
note_off channel=5 note=76 velocity=100 time=0
note_on channel=5 note=81 velocity=100 time=32
note_on channel=5 note=85 velocity=100 time=0
note_on channel=5 note=81 velocity=100 time=0
note_on channel=5 note=85 velocity=100 time=0
note_on channel=5 note=81 velocity=100 time=0
note_on channel=5 note=85 velocity=100 time=0
note_off channel=5 note=81 velocity=100 time=64
note_off channel=5 note=85 velocity=100 time=0
note_off channel=5 note=81 velocity=100 time=0
note_off channel=5 note=85 velocity=100 time=0
note_off channel=5 note=81 velocity=100 time=0
note_off channel=5 note=85 velocity=100 time=0
note_on channel=5 note=76 velocity=100 time=32
note_on channel=5 note=76 velocity=100 time=0
note_on channel=5 note=76 velocity=100 time=0
note_off channel=5 note=76 velocity=100 time=64
note_off channel=5 note=76 velocity=100 time=0
note_off channel=5 note=76 velocity=100 time=0
note_on channel=5 note=79 velocity=100 time=32
note_on channel=5 note=79 velocity=100 time=0
note_on channel=5 note=79 velocity=100 time=0
note_off channel=5 note=79 velocity=100 time=64
note_off channel=5 note=79 velocity=100 time=0
note_off channel=5 note=79 velocity=100 time=0
note_on channel=5 note=81 velocity=100 time=32
note_on channel=5 note=81 velocity=100 time=0
note_on channel=5 note=81 velocity=100 time=0
note_off channel=5 note=81 velocity=100 time=64
note_off channel=5 note=81 velocity=100 time=0
note_off channel=5 note=81 velocity=100 time=0
note_on channel=5 note=83 velocity=100 time=32
note_on channel=5 note=83 velocity=100 time=0
note_on channel=5 note=83 velocity=100 time=0
note_off channel=5 note=83 velocity=100 time=64
note_off channel=5 note=83 velocity=100 time=0
note_off channel=5 note=83 velocity=100 time=0
note_on channel=5 note=86 velocity=100 time=32
note_on channel=5 note=86 velocity=100 time=0
note_on channel=5 note=86 velocity=100 time=0
note_off channel=5 note=86 velocity=100 time=64
note_off channel=5 note=86 velocity=100 time=0
note_off channel=5 note=86 velocity=100 time=0
note_on channel=5 note=83 velocity=100 time=32
note_on channel=5 note=83 velocity=100 time=0
note_on channel=5 note=83 velocity=100 time=0
note_off channel=5 note=83 velocity=100 time=32
note_off channel=5 note=83 velocity=100 time=0
note_off channel=5 note=83 velocity=100 time=0
note_on channel=5 note=81 velocity=100 time=16
note_on channel=5 note=81 velocity=100 time=0
note_on channel=5 note=81 velocity=100 time=0
note_off channel=5 note=81 velocity=100 time=32
note_off channel=5 note=81 velocity=100 time=0
note_off channel=5 note=81 velocity=100 time=0
note_on channel=5 note=80 velocity=100 time=112
note_on channel=5 note=80 velocity=100 time=0
note_on channel=5 note=80 velocity=100 time=0
note_off channel=5 note=80 velocity=100 time=64
note_off channel=5 note=80 velocity=100 time=0
note_off channel=5 note=80 velocity=100 time=0
note_on channel=5 note=81 velocity=100 time=32
note_on channel=5 note=81 velocity=100 time=0
note_on channel=5 note=81 velocity=100 time=0
note_off channel=5 note=81 velocity=100 time=64
note_off channel=5 note=81 velocity=100 time=0
note_off channel=5 note=81 velocity=100 time=0
note_on channel=5 note=76 velocity=100 time=32
note_on channel=5 note=76 velocity=100 time=0
note_on channel=5 note=76 velocity=100 time=0
note_off channel=5 note=76 velocity=100 time=192
note_off channel=5 note=76 velocity=100 time=0
note_off channel=5 note=76 velocity=100 time=0
note_on channel=5 note=88 velocity=100 time=288
note_on channel=5 note=88 velocity=100 time=0
note_on channel=5 note=88 velocity=100 time=0
note_on channel=5 note=88 velocity=100 time=224
note_on channel=5 note=88 velocity=100 time=0
note_on channel=5 note=88 velocity=100 time=0
note_off channel=5 note=88 velocity=100 time=40
note_off channel=5 note=88 velocity=100 time=0
note_off channel=5 note=88 velocity=100 time=0
note_on channel=5 note=87 velocity=100 time=88
note_on channel=5 note=87 velocity=100 time=0
note_on channel=5 note=87 velocity=100 time=0
note_off channel=5 note=88 velocity=100 time=32
note_off channel=5 note=88 velocity=100 time=0
note_off channel=5 note=88 velocity=100 time=0
note_off channel=5 note=87 velocity=100 time=8
note_off channel=5 note=87 velocity=100 time=0
note_off channel=5 note=87 velocity=100 time=0
note_on channel=5 note=83 velocity=100 time=24
note_on channel=5 note=83 velocity=100 time=0
note_on channel=5 note=83 velocity=100 time=0
note_off channel=5 note=83 velocity=100 time=40
note_off channel=5 note=83 velocity=100 time=0
note_off channel=5 note=83 velocity=100 time=0
note_on channel=5 note=81 velocity=100 time=152
note_on channel=5 note=81 velocity=100 time=0
note_on channel=5 note=81 velocity=100 time=0
note_off channel=5 note=81 velocity=100 time=40
note_off channel=5 note=81 velocity=100 time=0
note_off channel=5 note=81 velocity=100 time=0
note_on channel=5 note=83 velocity=100 time=88
note_on channel=5 note=83 velocity=100 time=0
note_on channel=5 note=83 velocity=100 time=0
note_off channel=5 note=83 velocity=100 time=40
note_off channel=5 note=83 velocity=100 time=0
note_off channel=5 note=83 velocity=100 time=0
note_on channel=5 note=79 velocity=100 time=24
note_on channel=5 note=79 velocity=100 time=0
note_on channel=5 note=79 velocity=100 time=0
note_off channel=5 note=79 velocity=100 time=40
note_off channel=5 note=79 velocity=100 time=0
note_off channel=5 note=79 velocity=100 time=0
note_on channel=5 note=76 velocity=100 time=216
note_on channel=5 note=76 velocity=100 time=0
note_on channel=5 note=76 velocity=100 time=0
note_off channel=5 note=76 velocity=100 time=256
note_off channel=5 note=76 velocity=100 time=0
note_off channel=5 note=76 velocity=100 time=0
note_on channel=5 note=71 velocity=100 time=128
note_on channel=5 note=71 velocity=100 time=0
note_on channel=5 note=71 velocity=100 time=0
note_off channel=5 note=71 velocity=100 time=64
note_off channel=5 note=71 velocity=100 time=0
note_off channel=5 note=71 velocity=100 time=0
note_on channel=5 note=76 velocity=100 time=32
note_on channel=5 note=76 velocity=100 time=0
note_on channel=5 note=76 velocity=100 time=0
note_off channel=5 note=76 velocity=100 time=64
note_off channel=5 note=76 velocity=100 time=0
note_off channel=5 note=76 velocity=100 time=0
note_on channel=5 note=74 velocity=100 time=32
note_on channel=5 note=74 velocity=100 time=0
note_on channel=5 note=74 velocity=100 time=0
note_off channel=5 note=74 velocity=100 time=64
note_off channel=5 note=74 velocity=100 time=0
note_off channel=5 note=74 velocity=100 time=0
note_on channel=5 note=71 velocity=100 time=32
note_on channel=5 note=76 velocity=100 time=0
note_on channel=5 note=71 velocity=100 time=0
note_on channel=5 note=76 velocity=100 time=0
note_on channel=5 note=71 velocity=100 time=0
note_on channel=5 note=76 velocity=100 time=0
note_off channel=5 note=71 velocity=100 time=384
note_off channel=5 note=76 velocity=100 time=0
note_off channel=5 note=71 velocity=100 time=0
note_off channel=5 note=76 velocity=100 time=0
note_off channel=5 note=71 velocity=100 time=0
note_off channel=5 note=76 velocity=100 time=0
note_on channel=5 note=76 velocity=100 time=192
note_on channel=5 note=76 velocity=100 time=0
note_on channel=5 note=76 velocity=100 time=0
note_off channel=5 note=76 velocity=100 time=128
note_off channel=5 note=76 velocity=100 time=0
note_off channel=5 note=76 velocity=100 time=0
note_on channel=5 note=74 velocity=100 time=64
note_on channel=5 note=76 velocity=100 time=0
note_on channel=5 note=74 velocity=100 time=0
note_on channel=5 note=76 velocity=100 time=0
note_on channel=5 note=74 velocity=100 time=0
note_on channel=5 note=76 velocity=100 time=0
note_off channel=5 note=74 velocity=100 time=64
note_off channel=5 note=76 velocity=100 time=0
note_off channel=5 note=74 velocity=100 time=0
note_off channel=5 note=76 velocity=100 time=0
note_off channel=5 note=74 velocity=100 time=0
note_off channel=5 note=76 velocity=100 time=0
note_on channel=5 note=74 velocity=100 time=32
note_on channel=5 note=74 velocity=100 time=0
note_on channel=5 note=74 velocity=100 time=0
note_off channel=5 note=74 velocity=100 time=256
note_off channel=5 note=74 velocity=100 time=0
note_off channel=5 note=74 velocity=100 time=0
note_on channel=5 note=76 velocity=100 time=128
note_on channel=5 note=73 velocity=100 time=0
note_on channel=5 note=76 velocity=100 time=0
note_on channel=5 note=73 velocity=100 time=0
note_on channel=5 note=76 velocity=100 time=0
note_on channel=5 note=73 velocity=100 time=0
note_off channel=5 note=73 velocity=100 time=64
note_off channel=5 note=73 velocity=100 time=0
note_off channel=5 note=73 velocity=100 time=0
note_on channel=5 note=71 velocity=100 time=32
note_on channel=5 note=71 velocity=100 time=0
note_on channel=5 note=71 velocity=100 time=0
note_off channel=5 note=76 velocity=100 time=32
note_off channel=5 note=76 velocity=100 time=0
note_off channel=5 note=76 velocity=100 time=0
note_off channel=5 note=71 velocity=100 time=32
note_off channel=5 note=71 velocity=100 time=0
note_off channel=5 note=71 velocity=100 time=0
note_on channel=5 note=73 velocity=100 time=32
note_on channel=5 note=76 velocity=100 time=0
note_on channel=5 note=73 velocity=100 time=0
note_on channel=5 note=76 velocity=100 time=0
note_on channel=5 note=73 velocity=100 time=0
note_on channel=5 note=76 velocity=100 time=0
note_off channel=5 note=73 velocity=100 time=64
note_off channel=5 note=76 velocity=100 time=0
note_off channel=5 note=73 velocity=100 time=0
note_off channel=5 note=76 velocity=100 time=0
note_off channel=5 note=73 velocity=100 time=0
note_off channel=5 note=76 velocity=100 time=0
note_on channel=5 note=76 velocity=100 time=32
note_on channel=5 note=73 velocity=100 time=0
note_on channel=5 note=76 velocity=100 time=0
note_on channel=5 note=73 velocity=100 time=0
note_on channel=5 note=76 velocity=100 time=0
note_on channel=5 note=73 velocity=100 time=0
note_off channel=5 note=76 velocity=100 time=256
note_off channel=5 note=73 velocity=100 time=0
note_off channel=5 note=76 velocity=100 time=0
note_off channel=5 note=73 velocity=100 time=0
note_off channel=5 note=76 velocity=100 time=0
note_off channel=5 note=73 velocity=100 time=0
note_on channel=5 note=83 velocity=100 time=128
note_on channel=5 note=83 velocity=100 time=0
note_on channel=5 note=83 velocity=100 time=0
note_off channel=5 note=83 velocity=100 time=128
note_off channel=5 note=83 velocity=100 time=0
note_off channel=5 note=83 velocity=100 time=0
note_on channel=5 note=83 velocity=100 time=64
note_on channel=5 note=83 velocity=100 time=0
note_on channel=5 note=83 velocity=100 time=0
note_off channel=5 note=83 velocity=100 time=64
note_off channel=5 note=83 velocity=100 time=0
note_off channel=5 note=83 velocity=100 time=0
note_on channel=5 note=88 velocity=100 time=32
note_on channel=5 note=88 velocity=100 time=0
note_on channel=5 note=88 velocity=100 time=0
note_off channel=5 note=88 velocity=100 time=64
note_off channel=5 note=88 velocity=100 time=0
note_off channel=5 note=88 velocity=100 time=0
note_on channel=5 note=88 velocity=100 time=32
note_on channel=5 note=88 velocity=100 time=0
note_on channel=5 note=88 velocity=100 time=0
note_off channel=5 note=88 velocity=100 time=192
note_off channel=5 note=88 velocity=100 time=0
note_off channel=5 note=88 velocity=100 time=0
note_on channel=5 note=80 velocity=100 time=96
note_on channel=5 note=80 velocity=100 time=0
note_on channel=5 note=80 velocity=100 time=0
note_off channel=5 note=80 velocity=100 time=128
note_off channel=5 note=80 velocity=100 time=0
note_off channel=5 note=80 velocity=100 time=0
note_on channel=5 note=76 velocity=100 time=64
note_on channel=5 note=76 velocity=100 time=0
note_on channel=5 note=76 velocity=100 time=0
note_off channel=5 note=76 velocity=100 time=64
note_off channel=5 note=76 velocity=100 time=0
note_off channel=5 note=76 velocity=100 time=0
note_on channel=5 note=74 velocity=100 time=32
note_on channel=5 note=74 velocity=100 time=0
note_on channel=5 note=74 velocity=100 time=0
note_off channel=5 note=74 velocity=100 time=64
note_off channel=5 note=74 velocity=100 time=0
note_off channel=5 note=74 velocity=100 time=0
note_on channel=5 note=74 velocity=100 time=32
note_on channel=5 note=74 velocity=100 time=0
note_on channel=5 note=74 velocity=100 time=0
note_off channel=5 note=74 velocity=100 time=64
note_off channel=5 note=74 velocity=100 time=0
note_off channel=5 note=74 velocity=100 time=0
note_on channel=5 note=76 velocity=100 time=32
note_on channel=5 note=76 velocity=100 time=0
note_on channel=5 note=76 velocity=100 time=0
note_off channel=5 note=76 velocity=100 time=256
note_off channel=5 note=76 velocity=100 time=0
note_off channel=5 note=76 velocity=100 time=0
note_on channel=5 note=76 velocity=100 time=128
note_on channel=5 note=76 velocity=100 time=0
note_on channel=5 note=76 velocity=100 time=0
note_off channel=5 note=76 velocity=100 time=64
note_off channel=5 note=76 velocity=100 time=0
note_off channel=5 note=76 velocity=100 time=0
note_on channel=5 note=71 velocity=100 time=32
note_on channel=5 note=71 velocity=100 time=0
note_on channel=5 note=71 velocity=100 time=0
note_off channel=5 note=71 velocity=100 time=64
note_off channel=5 note=71 velocity=100 time=0
note_off channel=5 note=71 velocity=100 time=0
note_on channel=5 note=73 velocity=100 time=32
note_on channel=5 note=73 velocity=100 time=0
note_on channel=5 note=73 velocity=100 time=0
note_off channel=5 note=73 velocity=100 time=64
note_off channel=5 note=73 velocity=100 time=0
note_off channel=5 note=73 velocity=100 time=0
note_on channel=5 note=76 velocity=100 time=32
note_on channel=5 note=74 velocity=100 time=0
note_on channel=5 note=76 velocity=100 time=0
note_on channel=5 note=74 velocity=100 time=0
note_on channel=5 note=76 velocity=100 time=0
note_on channel=5 note=74 velocity=100 time=0
note_off channel=5 note=76 velocity=100 time=384
note_off channel=5 note=74 velocity=100 time=0
note_off channel=5 note=76 velocity=100 time=0
note_off channel=5 note=74 velocity=100 time=0
note_off channel=5 note=76 velocity=100 time=0
note_off channel=5 note=74 velocity=100 time=0
note_on channel=5 note=76 velocity=100 time=192
note_on channel=5 note=73 velocity=100 time=0
note_on channel=5 note=76 velocity=100 time=0
note_on channel=5 note=73 velocity=100 time=0
note_on channel=5 note=76 velocity=100 time=0
note_on channel=5 note=73 velocity=100 time=0
note_off channel=5 note=76 velocity=100 time=64
note_off channel=5 note=73 velocity=100 time=0
note_off channel=5 note=76 velocity=100 time=0
note_off channel=5 note=73 velocity=100 time=0
note_off channel=5 note=76 velocity=100 time=0
note_off channel=5 note=73 velocity=100 time=0
note_on channel=5 note=71 velocity=100 time=32
note_on channel=5 note=71 velocity=100 time=0
note_on channel=5 note=71 velocity=100 time=0
note_off channel=5 note=71 velocity=100 time=64
note_off channel=5 note=71 velocity=100 time=0
note_off channel=5 note=71 velocity=100 time=0
note_on channel=5 note=71 velocity=100 time=32
note_on channel=5 note=71 velocity=100 time=0
note_on channel=5 note=71 velocity=100 time=0
note_off channel=5 note=71 velocity=100 time=64
note_off channel=5 note=71 velocity=100 time=0
note_off channel=5 note=71 velocity=100 time=0
note_on channel=5 note=73 velocity=100 time=32
note_on channel=5 note=76 velocity=100 time=0
note_on channel=5 note=73 velocity=100 time=0
note_on channel=5 note=76 velocity=100 time=0
note_on channel=5 note=73 velocity=100 time=0
note_on channel=5 note=76 velocity=100 time=0
note_off channel=5 note=73 velocity=100 time=256
note_off channel=5 note=76 velocity=100 time=0
note_off channel=5 note=73 velocity=100 time=0
note_off channel=5 note=76 velocity=100 time=0
note_off channel=5 note=73 velocity=100 time=0
note_off channel=5 note=76 velocity=100 time=0
note_on channel=5 note=82 velocity=100 time=320
note_on channel=5 note=86 velocity=100 time=0
note_on channel=5 note=82 velocity=100 time=0
note_on channel=5 note=86 velocity=100 time=0
note_on channel=5 note=82 velocity=100 time=0
note_on channel=5 note=86 velocity=100 time=0
note_off channel=5 note=82 velocity=100 time=128
note_off channel=5 note=86 velocity=100 time=0
note_off channel=5 note=82 velocity=100 time=0
note_off channel=5 note=86 velocity=100 time=0
note_off channel=5 note=82 velocity=100 time=0
note_off channel=5 note=86 velocity=100 time=0
note_on channel=5 note=81 velocity=100 time=64
note_on channel=5 note=85 velocity=100 time=0
note_on channel=5 note=81 velocity=100 time=0
note_on channel=5 note=85 velocity=100 time=0
note_on channel=5 note=81 velocity=100 time=0
note_on channel=5 note=85 velocity=100 time=0
note_off channel=5 note=81 velocity=100 time=64
note_off channel=5 note=85 velocity=100 time=0
note_off channel=5 note=81 velocity=100 time=0
note_off channel=5 note=85 velocity=100 time=0
note_off channel=5 note=81 velocity=100 time=0
note_off channel=5 note=85 velocity=100 time=0
note_on channel=5 note=80 velocity=100 time=32
note_on channel=5 note=83 velocity=100 time=0
note_on channel=5 note=80 velocity=100 time=0
note_on channel=5 note=83 velocity=100 time=0
note_on channel=5 note=80 velocity=100 time=0
note_on channel=5 note=83 velocity=100 time=0
note_off channel=5 note=80 velocity=100 time=128
note_off channel=5 note=83 velocity=100 time=0
note_off channel=5 note=80 velocity=100 time=0
note_off channel=5 note=83 velocity=100 time=0
note_off channel=5 note=80 velocity=100 time=0
note_off channel=5 note=83 velocity=100 time=0
note_on channel=5 note=82 velocity=100 time=64
note_on channel=5 note=86 velocity=100 time=0
note_on channel=5 note=82 velocity=100 time=0
note_on channel=5 note=86 velocity=100 time=0
note_on channel=5 note=82 velocity=100 time=0
note_on channel=5 note=86 velocity=100 time=0
note_off channel=5 note=82 velocity=100 time=128
note_off channel=5 note=86 velocity=100 time=0
note_off channel=5 note=82 velocity=100 time=0
note_off channel=5 note=86 velocity=100 time=0
note_off channel=5 note=82 velocity=100 time=0
note_off channel=5 note=86 velocity=100 time=0
<meta message end_of_track time=0>
<meta message track_name name='lo_lead' time=0>
control_change channel=6 control=0 value=0 time=0
program_change channel=6 program=30 time=0
control_change channel=6 control=10 value=105 time=0
control_change channel=6 control=91 value=26 time=0
control_change channel=6 control=93 value=111 time=0
<meta message key_signature key='E' time=0>
note_on channel=6 note=40 velocity=100 time=56832
note_on channel=6 note=40 velocity=100 time=0
note_on channel=6 note=40 velocity=100 time=0
note_off channel=6 note=40 velocity=100 time=128
note_off channel=6 note=40 velocity=100 time=0
note_off channel=6 note=40 velocity=100 time=0
note_on channel=6 note=52 velocity=100 time=64
note_on channel=6 note=52 velocity=100 time=0
note_on channel=6 note=52 velocity=100 time=0
note_off channel=6 note=52 velocity=100 time=384
note_off channel=6 note=52 velocity=100 time=0
note_off channel=6 note=52 velocity=100 time=0
note_on channel=6 note=50 velocity=100 time=192
note_on channel=6 note=50 velocity=100 time=0
note_on channel=6 note=50 velocity=100 time=0
note_off channel=6 note=50 velocity=100 time=128
note_off channel=6 note=50 velocity=100 time=0
note_off channel=6 note=50 velocity=100 time=0
note_on channel=6 note=50 velocity=100 time=64
note_on channel=6 note=50 velocity=100 time=0
note_on channel=6 note=50 velocity=100 time=0
note_off channel=6 note=50 velocity=100 time=384
note_off channel=6 note=50 velocity=100 time=0
note_off channel=6 note=50 velocity=100 time=0
note_on channel=6 note=49 velocity=100 time=192
note_on channel=6 note=49 velocity=100 time=0
note_on channel=6 note=49 velocity=100 time=0
note_off channel=6 note=49 velocity=100 time=128
note_off channel=6 note=49 velocity=100 time=0
note_off channel=6 note=49 velocity=100 time=0
note_on channel=6 note=49 velocity=100 time=64
note_on channel=6 note=49 velocity=100 time=0
note_on channel=6 note=49 velocity=100 time=0
note_off channel=6 note=49 velocity=100 time=384
note_off channel=6 note=49 velocity=100 time=0
note_off channel=6 note=49 velocity=100 time=0
note_on channel=6 note=47 velocity=100 time=192
note_on channel=6 note=47 velocity=100 time=0
note_on channel=6 note=47 velocity=100 time=0
note_off channel=6 note=47 velocity=100 time=128
note_off channel=6 note=47 velocity=100 time=0
note_off channel=6 note=47 velocity=100 time=0
note_on channel=6 note=55 velocity=100 time=64
note_on channel=6 note=55 velocity=100 time=0
note_on channel=6 note=55 velocity=100 time=0
note_off channel=6 note=55 velocity=100 time=64
note_off channel=6 note=55 velocity=100 time=0
note_off channel=6 note=55 velocity=100 time=0
note_on channel=6 note=57 velocity=100 time=32
note_on channel=6 note=57 velocity=100 time=0
note_on channel=6 note=57 velocity=100 time=0
note_off channel=6 note=57 velocity=100 time=64
note_off channel=6 note=57 velocity=100 time=0
note_off channel=6 note=57 velocity=100 time=0
note_on channel=6 note=58 velocity=100 time=32
note_on channel=6 note=58 velocity=100 time=0
note_on channel=6 note=58 velocity=100 time=0
note_off channel=6 note=58 velocity=100 time=40
note_off channel=6 note=58 velocity=100 time=0
note_off channel=6 note=58 velocity=100 time=0
note_on channel=6 note=57 velocity=100 time=24
note_on channel=6 note=57 velocity=100 time=0
note_on channel=6 note=57 velocity=100 time=0
note_off channel=6 note=57 velocity=100 time=40
note_off channel=6 note=57 velocity=100 time=0
note_off channel=6 note=57 velocity=100 time=0
note_on channel=6 note=55 velocity=100 time=24
note_on channel=6 note=55 velocity=100 time=0
note_on channel=6 note=55 velocity=100 time=0
note_off channel=6 note=55 velocity=100 time=40
note_off channel=6 note=55 velocity=100 time=0
note_off channel=6 note=55 velocity=100 time=0
note_on channel=6 note=57 velocity=100 time=24
note_on channel=6 note=57 velocity=100 time=0
note_on channel=6 note=57 velocity=100 time=0
note_off channel=6 note=57 velocity=100 time=64
note_off channel=6 note=57 velocity=100 time=0
note_off channel=6 note=57 velocity=100 time=0
note_on channel=6 note=52 velocity=100 time=32
note_on channel=6 note=52 velocity=100 time=0
note_on channel=6 note=52 velocity=100 time=0
note_off channel=6 note=52 velocity=100 time=64
note_off channel=6 note=52 velocity=100 time=0
note_off channel=6 note=52 velocity=100 time=0
note_on channel=6 note=40 velocity=100 time=32
note_on channel=6 note=40 velocity=100 time=0
note_on channel=6 note=40 velocity=100 time=0
note_off channel=6 note=40 velocity=100 time=128
note_off channel=6 note=40 velocity=100 time=0
note_off channel=6 note=40 velocity=100 time=0
note_on channel=6 note=52 velocity=100 time=64
note_on channel=6 note=52 velocity=100 time=0
note_on channel=6 note=52 velocity=100 time=0
note_off channel=6 note=52 velocity=100 time=384
note_off channel=6 note=52 velocity=100 time=0
note_off channel=6 note=52 velocity=100 time=0
note_on channel=6 note=50 velocity=100 time=192
note_on channel=6 note=50 velocity=100 time=0
note_on channel=6 note=50 velocity=100 time=0
note_off channel=6 note=50 velocity=100 time=128
note_off channel=6 note=50 velocity=100 time=0
note_off channel=6 note=50 velocity=100 time=0
note_on channel=6 note=50 velocity=100 time=64
note_on channel=6 note=50 velocity=100 time=0
note_on channel=6 note=50 velocity=100 time=0
note_off channel=6 note=50 velocity=100 time=384
note_off channel=6 note=50 velocity=100 time=0
note_off channel=6 note=50 velocity=100 time=0
note_on channel=6 note=49 velocity=100 time=192
note_on channel=6 note=49 velocity=100 time=0
note_on channel=6 note=49 velocity=100 time=0
note_off channel=6 note=49 velocity=100 time=128
note_off channel=6 note=49 velocity=100 time=0
note_off channel=6 note=49 velocity=100 time=0
note_on channel=6 note=49 velocity=100 time=64
note_on channel=6 note=49 velocity=100 time=0
note_on channel=6 note=49 velocity=100 time=0
note_off channel=6 note=49 velocity=100 time=384
note_off channel=6 note=49 velocity=100 time=0
note_off channel=6 note=49 velocity=100 time=0
note_on channel=6 note=62 velocity=100 time=384
note_on channel=6 note=62 velocity=100 time=0
note_on channel=6 note=62 velocity=100 time=0
note_off channel=6 note=62 velocity=100 time=128
note_off channel=6 note=62 velocity=100 time=0
note_off channel=6 note=62 velocity=100 time=0
note_on channel=6 note=62 velocity=100 time=256
note_on channel=6 note=62 velocity=100 time=0
note_on channel=6 note=62 velocity=100 time=0
note_off channel=6 note=62 velocity=100 time=128
note_off channel=6 note=62 velocity=100 time=0
note_off channel=6 note=62 velocity=100 time=0
note_on channel=6 note=64 velocity=100 time=64
note_on channel=6 note=64 velocity=100 time=0
note_on channel=6 note=64 velocity=100 time=0
note_off channel=6 note=64 velocity=100 time=512
note_off channel=6 note=64 velocity=100 time=0
note_off channel=6 note=64 velocity=100 time=0
note_on channel=6 note=64 velocity=100 time=256
note_on channel=6 note=64 velocity=100 time=0
note_on channel=6 note=64 velocity=100 time=0
note_off channel=6 note=64 velocity=100 time=64
note_off channel=6 note=64 velocity=100 time=0
note_off channel=6 note=64 velocity=100 time=0
note_on channel=6 note=67 velocity=100 time=32
note_on channel=6 note=67 velocity=100 time=0
note_on channel=6 note=67 velocity=100 time=0
note_off channel=6 note=67 velocity=100 time=64
note_off channel=6 note=67 velocity=100 time=0
note_off channel=6 note=67 velocity=100 time=0
note_on channel=6 note=64 velocity=100 time=32
note_on channel=6 note=64 velocity=100 time=0
note_on channel=6 note=64 velocity=100 time=0
note_off channel=6 note=64 velocity=100 time=64
note_off channel=6 note=64 velocity=100 time=0
note_off channel=6 note=64 velocity=100 time=0
note_on channel=6 note=64 velocity=100 time=128
note_on channel=6 note=64 velocity=100 time=0
note_on channel=6 note=64 velocity=100 time=0
note_off channel=6 note=64 velocity=100 time=256
note_off channel=6 note=64 velocity=100 time=0
note_off channel=6 note=64 velocity=100 time=0
note_on channel=6 note=64 velocity=100 time=128
note_on channel=6 note=64 velocity=100 time=0
note_on channel=6 note=64 velocity=100 time=0
note_off channel=6 note=64 velocity=100 time=64
note_off channel=6 note=64 velocity=100 time=0
note_off channel=6 note=64 velocity=100 time=0
note_on channel=6 note=67 velocity=100 time=32
note_on channel=6 note=67 velocity=100 time=0
note_on channel=6 note=67 velocity=100 time=0
note_off channel=6 note=67 velocity=100 time=64
note_off channel=6 note=67 velocity=100 time=0
note_off channel=6 note=67 velocity=100 time=0
note_on channel=6 note=69 velocity=100 time=32
note_on channel=6 note=69 velocity=100 time=0
note_on channel=6 note=69 velocity=100 time=0
note_off channel=6 note=69 velocity=100 time=32
note_off channel=6 note=69 velocity=100 time=0
note_off channel=6 note=69 velocity=100 time=0
note_on channel=6 note=70 velocity=100 time=16
note_on channel=6 note=70 velocity=100 time=0
note_on channel=6 note=70 velocity=100 time=0
note_off channel=6 note=70 velocity=100 time=32
note_off channel=6 note=70 velocity=100 time=0
note_off channel=6 note=70 velocity=100 time=0
note_on channel=6 note=69 velocity=100 time=16
note_on channel=6 note=69 velocity=100 time=0
note_on channel=6 note=69 velocity=100 time=0
note_off channel=6 note=69 velocity=100 time=32
note_off channel=6 note=69 velocity=100 time=0
note_off channel=6 note=69 velocity=100 time=0
note_on channel=6 note=68 velocity=100 time=16
note_on channel=6 note=68 velocity=100 time=0
note_on channel=6 note=68 velocity=100 time=0
note_off channel=6 note=68 velocity=100 time=32
note_off channel=6 note=68 velocity=100 time=0
note_off channel=6 note=68 velocity=100 time=0
note_on channel=6 note=69 velocity=100 time=112
note_on channel=6 note=69 velocity=100 time=0
note_on channel=6 note=69 velocity=100 time=0
note_off channel=6 note=69 velocity=100 time=64
note_off channel=6 note=69 velocity=100 time=0
note_off channel=6 note=69 velocity=100 time=0
note_on channel=6 note=64 velocity=100 time=32
note_on channel=6 note=64 velocity=100 time=0
note_on channel=6 note=64 velocity=100 time=0
note_off channel=6 note=64 velocity=100 time=64
note_off channel=6 note=64 velocity=100 time=0
note_off channel=6 note=64 velocity=100 time=0
note_on channel=6 note=62 velocity=100 time=32
note_on channel=6 note=62 velocity=100 time=0
note_on channel=6 note=62 velocity=100 time=0
note_off channel=6 note=62 velocity=100 time=64
note_off channel=6 note=62 velocity=100 time=0
note_off channel=6 note=62 velocity=100 time=0
note_on channel=6 note=64 velocity=100 time=32
note_on channel=6 note=64 velocity=100 time=0
note_on channel=6 note=64 velocity=100 time=0
note_off channel=6 note=64 velocity=100 time=256
note_off channel=6 note=64 velocity=100 time=0
note_off channel=6 note=64 velocity=100 time=0
note_on channel=6 note=68 velocity=100 time=224
note_on channel=6 note=68 velocity=100 time=0
note_on channel=6 note=68 velocity=100 time=0
note_off channel=6 note=68 velocity=100 time=64
note_off channel=6 note=68 velocity=100 time=0
note_off channel=6 note=68 velocity=100 time=0
note_on channel=6 note=64 velocity=100 time=32
note_on channel=6 note=64 velocity=100 time=0
note_on channel=6 note=64 velocity=100 time=0
note_off channel=6 note=64 velocity=100 time=64
note_off channel=6 note=64 velocity=100 time=0
note_off channel=6 note=64 velocity=100 time=0
note_on channel=6 note=68 velocity=100 time=32
note_on channel=6 note=68 velocity=100 time=0
note_on channel=6 note=68 velocity=100 time=0
note_off channel=6 note=68 velocity=100 time=64
note_off channel=6 note=68 velocity=100 time=0
note_off channel=6 note=68 velocity=100 time=0
note_on channel=6 note=69 velocity=100 time=32
note_on channel=6 note=69 velocity=100 time=0
note_on channel=6 note=69 velocity=100 time=0
note_off channel=6 note=69 velocity=100 time=64
note_off channel=6 note=69 velocity=100 time=0
note_off channel=6 note=69 velocity=100 time=0
note_on channel=6 note=71 velocity=100 time=32
note_on channel=6 note=71 velocity=100 time=0
note_on channel=6 note=71 velocity=100 time=0
note_off channel=6 note=71 velocity=100 time=64
note_off channel=6 note=71 velocity=100 time=0
note_off channel=6 note=71 velocity=100 time=0
note_on channel=6 note=71 velocity=100 time=32
note_on channel=6 note=75 velocity=100 time=0
note_on channel=6 note=71 velocity=100 time=0
note_on channel=6 note=75 velocity=100 time=0
note_on channel=6 note=71 velocity=100 time=0
note_on channel=6 note=75 velocity=100 time=0
note_off channel=6 note=71 velocity=100 time=64
note_off channel=6 note=75 velocity=100 time=0
note_off channel=6 note=71 velocity=100 time=0
note_off channel=6 note=75 velocity=100 time=0
note_off channel=6 note=71 velocity=100 time=0
note_off channel=6 note=75 velocity=100 time=0
note_on channel=6 note=75 velocity=100 time=32
note_on channel=6 note=71 velocity=100 time=0
note_on channel=6 note=75 velocity=100 time=0
note_on channel=6 note=71 velocity=100 time=0
note_on channel=6 note=75 velocity=100 time=0
note_on channel=6 note=71 velocity=100 time=0
note_off channel=6 note=75 velocity=100 time=384
note_off channel=6 note=71 velocity=100 time=0
note_off channel=6 note=75 velocity=100 time=0
note_off channel=6 note=71 velocity=100 time=0
note_off channel=6 note=75 velocity=100 time=0
note_off channel=6 note=71 velocity=100 time=0
note_on channel=6 note=71 velocity=100 time=96
note_on channel=6 note=75 velocity=100 time=0
note_on channel=6 note=71 velocity=100 time=0
note_on channel=6 note=75 velocity=100 time=0
note_on channel=6 note=71 velocity=100 time=0
note_on channel=6 note=75 velocity=100 time=0
note_off channel=6 note=71 velocity=100 time=32
note_off channel=6 note=75 velocity=100 time=0
note_off channel=6 note=71 velocity=100 time=0
note_off channel=6 note=75 velocity=100 time=0
note_off channel=6 note=71 velocity=100 time=0
note_off channel=6 note=75 velocity=100 time=0
note_on channel=6 note=75 velocity=100 time=16
note_on channel=6 note=75 velocity=100 time=0
note_on channel=6 note=75 velocity=100 time=0
note_off channel=6 note=75 velocity=100 time=32
note_off channel=6 note=75 velocity=100 time=0
note_off channel=6 note=75 velocity=100 time=0
note_on channel=6 note=69 velocity=100 time=16
note_on channel=6 note=69 velocity=100 time=0
note_on channel=6 note=69 velocity=100 time=0
note_off channel=6 note=69 velocity=100 time=32
note_off channel=6 note=69 velocity=100 time=0
note_off channel=6 note=69 velocity=100 time=0
note_on channel=6 note=71 velocity=100 time=16
note_on channel=6 note=71 velocity=100 time=0
note_on channel=6 note=71 velocity=100 time=0
note_off channel=6 note=71 velocity=100 time=32
note_off channel=6 note=71 velocity=100 time=0
note_off channel=6 note=71 velocity=100 time=0
note_on channel=6 note=68 velocity=100 time=688
note_on channel=6 note=63 velocity=100 time=0
note_on channel=6 note=68 velocity=100 time=0
note_on channel=6 note=63 velocity=100 time=0
note_on channel=6 note=68 velocity=100 time=0
note_on channel=6 note=63 velocity=100 time=0
note_off channel=6 note=68 velocity=100 time=128
note_off channel=6 note=63 velocity=100 time=0
note_off channel=6 note=68 velocity=100 time=0
note_off channel=6 note=63 velocity=100 time=0
note_off channel=6 note=68 velocity=100 time=0
note_off channel=6 note=63 velocity=100 time=0
note_on channel=6 note=64 velocity=100 time=64
note_on channel=6 note=64 velocity=100 time=0
note_on channel=6 note=64 velocity=100 time=0
note_off channel=6 note=64 velocity=100 time=64
note_off channel=6 note=64 velocity=100 time=0
note_off channel=6 note=64 velocity=100 time=0
note_on channel=6 note=68 velocity=100 time=32
note_on channel=6 note=68 velocity=100 time=0
note_on channel=6 note=68 velocity=100 time=0
note_off channel=6 note=68 velocity=100 time=64
note_off channel=6 note=68 velocity=100 time=0
note_off channel=6 note=68 velocity=100 time=0
note_on channel=6 note=64 velocity=100 time=32
note_on channel=6 note=64 velocity=100 time=0
note_on channel=6 note=64 velocity=100 time=0
note_off channel=6 note=64 velocity=100 time=64
note_off channel=6 note=64 velocity=100 time=0
note_off channel=6 note=64 velocity=100 time=0
note_on channel=6 note=69 velocity=100 time=32
note_on channel=6 note=69 velocity=100 time=0
note_on channel=6 note=69 velocity=100 time=0
note_off channel=6 note=69 velocity=100 time=64
note_off channel=6 note=69 velocity=100 time=0
note_off channel=6 note=69 velocity=100 time=0
note_on channel=6 note=68 velocity=100 time=32
note_on channel=6 note=68 velocity=100 time=0
note_on channel=6 note=68 velocity=100 time=0
note_off channel=6 note=68 velocity=100 time=64
note_off channel=6 note=68 velocity=100 time=0
note_off channel=6 note=68 velocity=100 time=0
note_on channel=6 note=69 velocity=100 time=32
note_on channel=6 note=69 velocity=100 time=0
note_on channel=6 note=69 velocity=100 time=0
note_off channel=6 note=69 velocity=100 time=64
note_off channel=6 note=69 velocity=100 time=0
note_off channel=6 note=69 velocity=100 time=0
note_on channel=6 note=71 velocity=100 time=32
note_on channel=6 note=71 velocity=100 time=0
note_on channel=6 note=71 velocity=100 time=0
note_off channel=6 note=71 velocity=100 time=64
note_off channel=6 note=71 velocity=100 time=0
note_off channel=6 note=71 velocity=100 time=0
note_on channel=6 note=74 velocity=100 time=32
note_on channel=6 note=74 velocity=100 time=0
note_on channel=6 note=74 velocity=100 time=0
note_off channel=6 note=74 velocity=100 time=64
note_off channel=6 note=74 velocity=100 time=0
note_off channel=6 note=74 velocity=100 time=0
note_on channel=6 note=71 velocity=100 time=32
note_on channel=6 note=71 velocity=100 time=0
note_on channel=6 note=71 velocity=100 time=0
note_off channel=6 note=71 velocity=100 time=384
note_off channel=6 note=71 velocity=100 time=0
note_off channel=6 note=71 velocity=100 time=0
note_on channel=6 note=71 velocity=100 time=192
note_on channel=6 note=71 velocity=100 time=0
note_on channel=6 note=71 velocity=100 time=0
note_off channel=6 note=71 velocity=100 time=64
note_off channel=6 note=71 velocity=100 time=0
note_off channel=6 note=71 velocity=100 time=0
note_on channel=6 note=76 velocity=100 time=32
note_on channel=6 note=76 velocity=100 time=0
note_on channel=6 note=76 velocity=100 time=0
note_off channel=6 note=76 velocity=100 time=64
note_off channel=6 note=76 velocity=100 time=0
note_off channel=6 note=76 velocity=100 time=0
note_on channel=6 note=76 velocity=100 time=32
note_on channel=6 note=76 velocity=100 time=0
note_on channel=6 note=76 velocity=100 time=0
note_off channel=6 note=76 velocity=100 time=64
note_off channel=6 note=76 velocity=100 time=0
note_off channel=6 note=76 velocity=100 time=0
note_on channel=6 note=76 velocity=100 time=32
note_on channel=6 note=76 velocity=100 time=0
note_on channel=6 note=76 velocity=100 time=0
note_off channel=6 note=76 velocity=100 time=64
note_off channel=6 note=76 velocity=100 time=0
note_off channel=6 note=76 velocity=100 time=0
note_on channel=6 note=76 velocity=100 time=32
note_on channel=6 note=76 velocity=100 time=0
note_on channel=6 note=76 velocity=100 time=0
note_off channel=6 note=76 velocity=100 time=128
note_off channel=6 note=76 velocity=100 time=0
note_off channel=6 note=76 velocity=100 time=0
note_on channel=6 note=76 velocity=100 time=64
note_on channel=6 note=76 velocity=100 time=0
note_on channel=6 note=76 velocity=100 time=0
note_off channel=6 note=76 velocity=100 time=64
note_off channel=6 note=76 velocity=100 time=0
note_off channel=6 note=76 velocity=100 time=0
note_on channel=6 note=76 velocity=100 time=32
note_on channel=6 note=76 velocity=100 time=0
note_on channel=6 note=76 velocity=100 time=0
note_off channel=6 note=76 velocity=100 time=128
note_off channel=6 note=76 velocity=100 time=0
note_off channel=6 note=76 velocity=100 time=0
note_on channel=6 note=76 velocity=100 time=64
note_on channel=6 note=76 velocity=100 time=0
note_on channel=6 note=76 velocity=100 time=0
note_off channel=6 note=76 velocity=100 time=40
note_off channel=6 note=76 velocity=100 time=0
note_off channel=6 note=76 velocity=100 time=0
note_on channel=6 note=75 velocity=100 time=24
note_on channel=6 note=75 velocity=100 time=0
note_on channel=6 note=75 velocity=100 time=0
note_off channel=6 note=75 velocity=100 time=40
note_off channel=6 note=75 velocity=100 time=0
note_off channel=6 note=75 velocity=100 time=0
note_on channel=6 note=71 velocity=100 time=24
note_on channel=6 note=71 velocity=100 time=0
note_on channel=6 note=71 velocity=100 time=0
note_off channel=6 note=71 velocity=100 time=40
note_off channel=6 note=71 velocity=100 time=0
note_off channel=6 note=71 velocity=100 time=0
note_on channel=6 note=69 velocity=100 time=24
note_on channel=6 note=69 velocity=100 time=0
note_on channel=6 note=69 velocity=100 time=0
note_off channel=6 note=69 velocity=100 time=40
note_off channel=6 note=69 velocity=100 time=0
note_off channel=6 note=69 velocity=100 time=0
note_on channel=6 note=71 velocity=100 time=24
note_on channel=6 note=71 velocity=100 time=0
note_on channel=6 note=71 velocity=100 time=0
note_off channel=6 note=71 velocity=100 time=40
note_off channel=6 note=71 velocity=100 time=0
note_off channel=6 note=71 velocity=100 time=0
note_on channel=6 note=67 velocity=100 time=24
note_on channel=6 note=67 velocity=100 time=0
note_on channel=6 note=67 velocity=100 time=0
note_off channel=6 note=67 velocity=100 time=40
note_off channel=6 note=67 velocity=100 time=0
note_off channel=6 note=67 velocity=100 time=0
note_on channel=6 note=71 velocity=100 time=24
note_on channel=6 note=71 velocity=100 time=0
note_on channel=6 note=71 velocity=100 time=0
note_off channel=6 note=71 velocity=100 time=128
note_off channel=6 note=71 velocity=100 time=0
note_off channel=6 note=71 velocity=100 time=0
note_on channel=6 note=75 velocity=100 time=64
note_on channel=6 note=75 velocity=100 time=0
note_on channel=6 note=75 velocity=100 time=0
note_off channel=6 note=75 velocity=100 time=64
note_off channel=6 note=75 velocity=100 time=0
note_off channel=6 note=75 velocity=100 time=0
note_on channel=6 note=71 velocity=100 time=32
note_on channel=6 note=71 velocity=100 time=0
note_on channel=6 note=71 velocity=100 time=0
note_off channel=6 note=71 velocity=100 time=128
note_off channel=6 note=71 velocity=100 time=0
note_off channel=6 note=71 velocity=100 time=0
note_on channel=6 note=71 velocity=100 time=64
note_on channel=6 note=79 velocity=100 time=0
note_on channel=6 note=71 velocity=100 time=0
note_on channel=6 note=79 velocity=100 time=0
note_on channel=6 note=71 velocity=100 time=0
note_on channel=6 note=79 velocity=100 time=0
note_off channel=6 note=71 velocity=100 time=64
note_off channel=6 note=79 velocity=100 time=0
note_off channel=6 note=71 velocity=100 time=0
note_off channel=6 note=79 velocity=100 time=0
note_off channel=6 note=71 velocity=100 time=0
note_off channel=6 note=79 velocity=100 time=0
note_on channel=6 note=71 velocity=100 time=32
note_on channel=6 note=71 velocity=100 time=0
note_on channel=6 note=71 velocity=100 time=0
note_off channel=6 note=71 velocity=100 time=40
note_off channel=6 note=71 velocity=100 time=0
note_off channel=6 note=71 velocity=100 time=0
note_on channel=6 note=69 velocity=100 time=24
note_on channel=6 note=69 velocity=100 time=0
note_on channel=6 note=69 velocity=100 time=0
note_off channel=6 note=69 velocity=100 time=40
note_off channel=6 note=69 velocity=100 time=0
note_off channel=6 note=69 velocity=100 time=0
note_on channel=6 note=67 velocity=100 time=24
note_on channel=6 note=67 velocity=100 time=0
note_on channel=6 note=67 velocity=100 time=0
note_off channel=6 note=67 velocity=100 time=40
note_off channel=6 note=67 velocity=100 time=0
note_off channel=6 note=67 velocity=100 time=0
note_on channel=6 note=69 velocity=100 time=24
note_on channel=6 note=69 velocity=100 time=0
note_on channel=6 note=69 velocity=100 time=0
note_off channel=6 note=69 velocity=100 time=64
note_off channel=6 note=69 velocity=100 time=0
note_off channel=6 note=69 velocity=100 time=0
note_on channel=6 note=64 velocity=100 time=32
note_on channel=6 note=64 velocity=100 time=0
note_on channel=6 note=64 velocity=100 time=0
note_off channel=6 note=64 velocity=100 time=64
note_off channel=6 note=64 velocity=100 time=0
note_off channel=6 note=64 velocity=100 time=0
note_on channel=6 note=69 velocity=100 time=32
note_on channel=6 note=69 velocity=100 time=0
note_on channel=6 note=69 velocity=100 time=0
note_off channel=6 note=69 velocity=100 time=384
note_off channel=6 note=69 velocity=100 time=0
note_off channel=6 note=69 velocity=100 time=0
note_on channel=6 note=62 velocity=100 time=96
note_on channel=6 note=62 velocity=100 time=0
note_on channel=6 note=62 velocity=100 time=0
note_off channel=6 note=62 velocity=100 time=64
note_off channel=6 note=62 velocity=100 time=0
note_off channel=6 note=62 velocity=100 time=0
note_on channel=6 note=63 velocity=100 time=32
note_on channel=6 note=63 velocity=100 time=0
note_on channel=6 note=63 velocity=100 time=0
note_off channel=6 note=63 velocity=100 time=64
note_off channel=6 note=63 velocity=100 time=0
note_off channel=6 note=63 velocity=100 time=0
note_on channel=6 note=64 velocity=100 time=32
note_on channel=6 note=64 velocity=100 time=0
note_on channel=6 note=64 velocity=100 time=0
note_off channel=6 note=64 velocity=100 time=64
note_off channel=6 note=64 velocity=100 time=0
note_off channel=6 note=64 velocity=100 time=0
note_on channel=6 note=67 velocity=100 time=32
note_on channel=6 note=67 velocity=100 time=0
note_on channel=6 note=67 velocity=100 time=0
note_off channel=6 note=67 velocity=100 time=64
note_off channel=6 note=67 velocity=100 time=0
note_off channel=6 note=67 velocity=100 time=0
note_on channel=6 note=64 velocity=100 time=32
note_on channel=6 note=64 velocity=100 time=0
note_on channel=6 note=64 velocity=100 time=0
note_off channel=6 note=64 velocity=100 time=64
note_off channel=6 note=64 velocity=100 time=0
note_off channel=6 note=64 velocity=100 time=0
note_on channel=6 note=69 velocity=100 time=32
note_on channel=6 note=73 velocity=100 time=0
note_on channel=6 note=69 velocity=100 time=0
note_on channel=6 note=73 velocity=100 time=0
note_on channel=6 note=69 velocity=100 time=0
note_on channel=6 note=73 velocity=100 time=0
note_off channel=6 note=69 velocity=100 time=64
note_off channel=6 note=73 velocity=100 time=0
note_off channel=6 note=69 velocity=100 time=0
note_off channel=6 note=73 velocity=100 time=0
note_off channel=6 note=69 velocity=100 time=0
note_off channel=6 note=73 velocity=100 time=0
note_on channel=6 note=64 velocity=100 time=32
note_on channel=6 note=64 velocity=100 time=0
note_on channel=6 note=64 velocity=100 time=0
note_off channel=6 note=64 velocity=100 time=64
note_off channel=6 note=64 velocity=100 time=0
note_off channel=6 note=64 velocity=100 time=0
note_on channel=6 note=67 velocity=100 time=32
note_on channel=6 note=67 velocity=100 time=0
note_on channel=6 note=67 velocity=100 time=0
note_off channel=6 note=67 velocity=100 time=64
note_off channel=6 note=67 velocity=100 time=0
note_off channel=6 note=67 velocity=100 time=0
note_on channel=6 note=69 velocity=100 time=32
note_on channel=6 note=69 velocity=100 time=0
note_on channel=6 note=69 velocity=100 time=0
note_off channel=6 note=69 velocity=100 time=64
note_off channel=6 note=69 velocity=100 time=0
note_off channel=6 note=69 velocity=100 time=0
note_on channel=6 note=71 velocity=100 time=32
note_on channel=6 note=71 velocity=100 time=0
note_on channel=6 note=71 velocity=100 time=0
note_off channel=6 note=71 velocity=100 time=64
note_off channel=6 note=71 velocity=100 time=0
note_off channel=6 note=71 velocity=100 time=0
note_on channel=6 note=74 velocity=100 time=32
note_on channel=6 note=74 velocity=100 time=0
note_on channel=6 note=74 velocity=100 time=0
note_off channel=6 note=74 velocity=100 time=64
note_off channel=6 note=74 velocity=100 time=0
note_off channel=6 note=74 velocity=100 time=0
note_on channel=6 note=71 velocity=100 time=32
note_on channel=6 note=71 velocity=100 time=0
note_on channel=6 note=71 velocity=100 time=0
note_off channel=6 note=71 velocity=100 time=32
note_off channel=6 note=71 velocity=100 time=0
note_off channel=6 note=71 velocity=100 time=0
note_on channel=6 note=69 velocity=100 time=16
note_on channel=6 note=69 velocity=100 time=0
note_on channel=6 note=69 velocity=100 time=0
note_off channel=6 note=69 velocity=100 time=32
note_off channel=6 note=69 velocity=100 time=0
note_off channel=6 note=69 velocity=100 time=0
note_on channel=6 note=68 velocity=100 time=112
note_on channel=6 note=68 velocity=100 time=0
note_on channel=6 note=68 velocity=100 time=0
note_off channel=6 note=68 velocity=100 time=64
note_off channel=6 note=68 velocity=100 time=0
note_off channel=6 note=68 velocity=100 time=0
note_on channel=6 note=69 velocity=100 time=32
note_on channel=6 note=69 velocity=100 time=0
note_on channel=6 note=69 velocity=100 time=0
note_off channel=6 note=69 velocity=100 time=64
note_off channel=6 note=69 velocity=100 time=0
note_off channel=6 note=69 velocity=100 time=0
note_on channel=6 note=64 velocity=100 time=32
note_on channel=6 note=64 velocity=100 time=0
note_on channel=6 note=64 velocity=100 time=0
note_off channel=6 note=64 velocity=100 time=192
note_off channel=6 note=64 velocity=100 time=0
note_off channel=6 note=64 velocity=100 time=0
note_on channel=6 note=76 velocity=100 time=288
note_on channel=6 note=76 velocity=100 time=0
note_on channel=6 note=76 velocity=100 time=0
note_on channel=6 note=76 velocity=100 time=224
note_on channel=6 note=76 velocity=100 time=0
note_on channel=6 note=76 velocity=100 time=0
note_off channel=6 note=76 velocity=100 time=40
note_off channel=6 note=76 velocity=100 time=0
note_off channel=6 note=76 velocity=100 time=0
note_on channel=6 note=75 velocity=100 time=88
note_on channel=6 note=75 velocity=100 time=0
note_on channel=6 note=75 velocity=100 time=0
note_off channel=6 note=76 velocity=100 time=32
note_off channel=6 note=76 velocity=100 time=0
note_off channel=6 note=76 velocity=100 time=0
note_off channel=6 note=75 velocity=100 time=8
note_off channel=6 note=75 velocity=100 time=0
note_off channel=6 note=75 velocity=100 time=0
note_on channel=6 note=71 velocity=100 time=24
note_on channel=6 note=71 velocity=100 time=0
note_on channel=6 note=71 velocity=100 time=0
note_off channel=6 note=71 velocity=100 time=40
note_off channel=6 note=71 velocity=100 time=0
note_off channel=6 note=71 velocity=100 time=0
note_on channel=6 note=69 velocity=100 time=152
note_on channel=6 note=69 velocity=100 time=0
note_on channel=6 note=69 velocity=100 time=0
note_off channel=6 note=69 velocity=100 time=40
note_off channel=6 note=69 velocity=100 time=0
note_off channel=6 note=69 velocity=100 time=0
note_on channel=6 note=71 velocity=100 time=88
note_on channel=6 note=71 velocity=100 time=0
note_on channel=6 note=71 velocity=100 time=0
note_off channel=6 note=71 velocity=100 time=40
note_off channel=6 note=71 velocity=100 time=0
note_off channel=6 note=71 velocity=100 time=0
note_on channel=6 note=67 velocity=100 time=24
note_on channel=6 note=67 velocity=100 time=0
note_on channel=6 note=67 velocity=100 time=0
note_off channel=6 note=67 velocity=100 time=40
note_off channel=6 note=67 velocity=100 time=0
note_off channel=6 note=67 velocity=100 time=0
note_on channel=6 note=64 velocity=100 time=216
note_on channel=6 note=64 velocity=100 time=0
note_on channel=6 note=64 velocity=100 time=0
note_off channel=6 note=64 velocity=100 time=256
note_off channel=6 note=64 velocity=100 time=0
note_off channel=6 note=64 velocity=100 time=0
note_on channel=6 note=59 velocity=100 time=128
note_on channel=6 note=59 velocity=100 time=0
note_on channel=6 note=59 velocity=100 time=0
note_off channel=6 note=59 velocity=100 time=64
note_off channel=6 note=59 velocity=100 time=0
note_off channel=6 note=59 velocity=100 time=0
note_on channel=6 note=64 velocity=100 time=32
note_on channel=6 note=64 velocity=100 time=0
note_on channel=6 note=64 velocity=100 time=0
note_off channel=6 note=64 velocity=100 time=64
note_off channel=6 note=64 velocity=100 time=0
note_off channel=6 note=64 velocity=100 time=0
note_on channel=6 note=62 velocity=100 time=32
note_on channel=6 note=62 velocity=100 time=0
note_on channel=6 note=62 velocity=100 time=0
note_off channel=6 note=62 velocity=100 time=64
note_off channel=6 note=62 velocity=100 time=0
note_off channel=6 note=62 velocity=100 time=0
note_on channel=6 note=59 velocity=100 time=32
note_on channel=6 note=64 velocity=100 time=0
note_on channel=6 note=59 velocity=100 time=0
note_on channel=6 note=64 velocity=100 time=0
note_on channel=6 note=59 velocity=100 time=0
note_on channel=6 note=64 velocity=100 time=0
note_off channel=6 note=59 velocity=100 time=384
note_off channel=6 note=64 velocity=100 time=0
note_off channel=6 note=59 velocity=100 time=0
note_off channel=6 note=64 velocity=100 time=0
note_off channel=6 note=59 velocity=100 time=0
note_off channel=6 note=64 velocity=100 time=0
note_on channel=6 note=64 velocity=100 time=192
note_on channel=6 note=64 velocity=100 time=0
note_on channel=6 note=64 velocity=100 time=0
note_off channel=6 note=64 velocity=100 time=128
note_off channel=6 note=64 velocity=100 time=0
note_off channel=6 note=64 velocity=100 time=0
note_on channel=6 note=62 velocity=100 time=64
note_on channel=6 note=64 velocity=100 time=0
note_on channel=6 note=62 velocity=100 time=0
note_on channel=6 note=64 velocity=100 time=0
note_on channel=6 note=62 velocity=100 time=0
note_on channel=6 note=64 velocity=100 time=0
note_off channel=6 note=62 velocity=100 time=64
note_off channel=6 note=64 velocity=100 time=0
note_off channel=6 note=62 velocity=100 time=0
note_off channel=6 note=64 velocity=100 time=0
note_off channel=6 note=62 velocity=100 time=0
note_off channel=6 note=64 velocity=100 time=0
note_on channel=6 note=62 velocity=100 time=32
note_on channel=6 note=62 velocity=100 time=0
note_on channel=6 note=62 velocity=100 time=0
note_off channel=6 note=62 velocity=100 time=256
note_off channel=6 note=62 velocity=100 time=0
note_off channel=6 note=62 velocity=100 time=0
note_on channel=6 note=64 velocity=100 time=128
note_on channel=6 note=61 velocity=100 time=0
note_on channel=6 note=64 velocity=100 time=0
note_on channel=6 note=61 velocity=100 time=0
note_on channel=6 note=64 velocity=100 time=0
note_on channel=6 note=61 velocity=100 time=0
note_off channel=6 note=61 velocity=100 time=64
note_off channel=6 note=61 velocity=100 time=0
note_off channel=6 note=61 velocity=100 time=0
note_on channel=6 note=59 velocity=100 time=32
note_on channel=6 note=59 velocity=100 time=0
note_on channel=6 note=59 velocity=100 time=0
note_off channel=6 note=64 velocity=100 time=32
note_off channel=6 note=64 velocity=100 time=0
note_off channel=6 note=64 velocity=100 time=0
note_off channel=6 note=59 velocity=100 time=32
note_off channel=6 note=59 velocity=100 time=0
note_off channel=6 note=59 velocity=100 time=0
note_on channel=6 note=61 velocity=100 time=32
note_on channel=6 note=64 velocity=100 time=0
note_on channel=6 note=61 velocity=100 time=0
note_on channel=6 note=64 velocity=100 time=0
note_on channel=6 note=61 velocity=100 time=0
note_on channel=6 note=64 velocity=100 time=0
note_off channel=6 note=61 velocity=100 time=64
note_off channel=6 note=64 velocity=100 time=0
note_off channel=6 note=61 velocity=100 time=0
note_off channel=6 note=64 velocity=100 time=0
note_off channel=6 note=61 velocity=100 time=0
note_off channel=6 note=64 velocity=100 time=0
note_on channel=6 note=64 velocity=100 time=32
note_on channel=6 note=61 velocity=100 time=0
note_on channel=6 note=64 velocity=100 time=0
note_on channel=6 note=61 velocity=100 time=0
note_on channel=6 note=64 velocity=100 time=0
note_on channel=6 note=61 velocity=100 time=0
note_off channel=6 note=64 velocity=100 time=256
note_off channel=6 note=61 velocity=100 time=0
note_off channel=6 note=64 velocity=100 time=0
note_off channel=6 note=61 velocity=100 time=0
note_off channel=6 note=64 velocity=100 time=0
note_off channel=6 note=61 velocity=100 time=0
note_on channel=6 note=71 velocity=100 time=128
note_on channel=6 note=71 velocity=100 time=0
note_on channel=6 note=71 velocity=100 time=0
note_off channel=6 note=71 velocity=100 time=128
note_off channel=6 note=71 velocity=100 time=0
note_off channel=6 note=71 velocity=100 time=0
note_on channel=6 note=71 velocity=100 time=64
note_on channel=6 note=71 velocity=100 time=0
note_on channel=6 note=71 velocity=100 time=0
note_off channel=6 note=71 velocity=100 time=64
note_off channel=6 note=71 velocity=100 time=0
note_off channel=6 note=71 velocity=100 time=0
note_on channel=6 note=76 velocity=100 time=32
note_on channel=6 note=76 velocity=100 time=0
note_on channel=6 note=76 velocity=100 time=0
note_off channel=6 note=76 velocity=100 time=64
note_off channel=6 note=76 velocity=100 time=0
note_off channel=6 note=76 velocity=100 time=0
note_on channel=6 note=76 velocity=100 time=32
note_on channel=6 note=76 velocity=100 time=0
note_on channel=6 note=76 velocity=100 time=0
note_off channel=6 note=76 velocity=100 time=192
note_off channel=6 note=76 velocity=100 time=0
note_off channel=6 note=76 velocity=100 time=0
note_on channel=6 note=68 velocity=100 time=96
note_on channel=6 note=68 velocity=100 time=0
note_on channel=6 note=68 velocity=100 time=0
note_off channel=6 note=68 velocity=100 time=128
note_off channel=6 note=68 velocity=100 time=0
note_off channel=6 note=68 velocity=100 time=0
note_on channel=6 note=64 velocity=100 time=64
note_on channel=6 note=64 velocity=100 time=0
note_on channel=6 note=64 velocity=100 time=0
note_off channel=6 note=64 velocity=100 time=64
note_off channel=6 note=64 velocity=100 time=0
note_off channel=6 note=64 velocity=100 time=0
note_on channel=6 note=62 velocity=100 time=32
note_on channel=6 note=62 velocity=100 time=0
note_on channel=6 note=62 velocity=100 time=0
note_off channel=6 note=62 velocity=100 time=64
note_off channel=6 note=62 velocity=100 time=0
note_off channel=6 note=62 velocity=100 time=0
note_on channel=6 note=62 velocity=100 time=32
note_on channel=6 note=62 velocity=100 time=0
note_on channel=6 note=62 velocity=100 time=0
note_off channel=6 note=62 velocity=100 time=64
note_off channel=6 note=62 velocity=100 time=0
note_off channel=6 note=62 velocity=100 time=0
note_on channel=6 note=64 velocity=100 time=32
note_on channel=6 note=64 velocity=100 time=0
note_on channel=6 note=64 velocity=100 time=0
note_off channel=6 note=64 velocity=100 time=256
note_off channel=6 note=64 velocity=100 time=0
note_off channel=6 note=64 velocity=100 time=0
note_on channel=6 note=64 velocity=100 time=128
note_on channel=6 note=64 velocity=100 time=0
note_on channel=6 note=64 velocity=100 time=0
note_off channel=6 note=64 velocity=100 time=64
note_off channel=6 note=64 velocity=100 time=0
note_off channel=6 note=64 velocity=100 time=0
note_on channel=6 note=59 velocity=100 time=32
note_on channel=6 note=59 velocity=100 time=0
note_on channel=6 note=59 velocity=100 time=0
note_off channel=6 note=59 velocity=100 time=64
note_off channel=6 note=59 velocity=100 time=0
note_off channel=6 note=59 velocity=100 time=0
note_on channel=6 note=61 velocity=100 time=32
note_on channel=6 note=61 velocity=100 time=0
note_on channel=6 note=61 velocity=100 time=0
note_off channel=6 note=61 velocity=100 time=64
note_off channel=6 note=61 velocity=100 time=0
note_off channel=6 note=61 velocity=100 time=0
note_on channel=6 note=64 velocity=100 time=32
note_on channel=6 note=62 velocity=100 time=0
note_on channel=6 note=64 velocity=100 time=0
note_on channel=6 note=62 velocity=100 time=0
note_on channel=6 note=64 velocity=100 time=0
note_on channel=6 note=62 velocity=100 time=0
note_off channel=6 note=64 velocity=100 time=384
note_off channel=6 note=62 velocity=100 time=0
note_off channel=6 note=64 velocity=100 time=0
note_off channel=6 note=62 velocity=100 time=0
note_off channel=6 note=64 velocity=100 time=0
note_off channel=6 note=62 velocity=100 time=0
note_on channel=6 note=64 velocity=100 time=192
note_on channel=6 note=61 velocity=100 time=0
note_on channel=6 note=64 velocity=100 time=0
note_on channel=6 note=61 velocity=100 time=0
note_on channel=6 note=64 velocity=100 time=0
note_on channel=6 note=61 velocity=100 time=0
note_off channel=6 note=64 velocity=100 time=64
note_off channel=6 note=61 velocity=100 time=0
note_off channel=6 note=64 velocity=100 time=0
note_off channel=6 note=61 velocity=100 time=0
note_off channel=6 note=64 velocity=100 time=0
note_off channel=6 note=61 velocity=100 time=0
note_on channel=6 note=59 velocity=100 time=32
note_on channel=6 note=59 velocity=100 time=0
note_on channel=6 note=59 velocity=100 time=0
note_off channel=6 note=59 velocity=100 time=64
note_off channel=6 note=59 velocity=100 time=0
note_off channel=6 note=59 velocity=100 time=0
note_on channel=6 note=59 velocity=100 time=32
note_on channel=6 note=59 velocity=100 time=0
note_on channel=6 note=59 velocity=100 time=0
note_off channel=6 note=59 velocity=100 time=64
note_off channel=6 note=59 velocity=100 time=0
note_off channel=6 note=59 velocity=100 time=0
note_on channel=6 note=61 velocity=100 time=32
note_on channel=6 note=64 velocity=100 time=0
note_on channel=6 note=61 velocity=100 time=0
note_on channel=6 note=64 velocity=100 time=0
note_on channel=6 note=61 velocity=100 time=0
note_on channel=6 note=64 velocity=100 time=0
note_off channel=6 note=61 velocity=100 time=256
note_off channel=6 note=64 velocity=100 time=0
note_off channel=6 note=61 velocity=100 time=0
note_off channel=6 note=64 velocity=100 time=0
note_off channel=6 note=61 velocity=100 time=0
note_off channel=6 note=64 velocity=100 time=0
note_on channel=6 note=70 velocity=100 time=320
note_on channel=6 note=74 velocity=100 time=0
note_on channel=6 note=70 velocity=100 time=0
note_on channel=6 note=74 velocity=100 time=0
note_on channel=6 note=70 velocity=100 time=0
note_on channel=6 note=74 velocity=100 time=0
note_off channel=6 note=70 velocity=100 time=128
note_off channel=6 note=74 velocity=100 time=0
note_off channel=6 note=70 velocity=100 time=0
note_off channel=6 note=74 velocity=100 time=0
note_off channel=6 note=70 velocity=100 time=0
note_off channel=6 note=74 velocity=100 time=0
note_on channel=6 note=69 velocity=100 time=64
note_on channel=6 note=73 velocity=100 time=0
note_on channel=6 note=69 velocity=100 time=0
note_on channel=6 note=73 velocity=100 time=0
note_on channel=6 note=69 velocity=100 time=0
note_on channel=6 note=73 velocity=100 time=0
note_off channel=6 note=69 velocity=100 time=64
note_off channel=6 note=73 velocity=100 time=0
note_off channel=6 note=69 velocity=100 time=0
note_off channel=6 note=73 velocity=100 time=0
note_off channel=6 note=69 velocity=100 time=0
note_off channel=6 note=73 velocity=100 time=0
note_on channel=6 note=68 velocity=100 time=32
note_on channel=6 note=71 velocity=100 time=0
note_on channel=6 note=68 velocity=100 time=0
note_on channel=6 note=71 velocity=100 time=0
note_on channel=6 note=68 velocity=100 time=0
note_on channel=6 note=71 velocity=100 time=0
note_off channel=6 note=68 velocity=100 time=128
note_off channel=6 note=71 velocity=100 time=0
note_off channel=6 note=68 velocity=100 time=0
note_off channel=6 note=71 velocity=100 time=0
note_off channel=6 note=68 velocity=100 time=0
note_off channel=6 note=71 velocity=100 time=0
note_on channel=6 note=70 velocity=100 time=64
note_on channel=6 note=74 velocity=100 time=0
note_on channel=6 note=70 velocity=100 time=0
note_on channel=6 note=74 velocity=100 time=0
note_on channel=6 note=70 velocity=100 time=0
note_on channel=6 note=74 velocity=100 time=0
note_off channel=6 note=70 velocity=100 time=128
note_off channel=6 note=74 velocity=100 time=0
note_off channel=6 note=70 velocity=100 time=0
note_off channel=6 note=74 velocity=100 time=0
note_off channel=6 note=70 velocity=100 time=0
note_off channel=6 note=74 velocity=100 time=0
<meta message end_of_track time=0>
<meta message key_signature key='E' time=0>
<meta message end_of_track time=0>
<meta message key_signature key='E' time=0>
<meta message end_of_track time=0>
<meta message track_name name='met_drum' time=0>
control_change channel=9 control=0 value=0 time=0
program_change channel=9 program=10 time=0
control_change channel=9 control=91 value=47 time=0
control_change channel=9 control=93 value=118 time=0
<meta message key_signature key='E' time=0>
note_on channel=9 note=36 velocity=117 time=0
note_on channel=9 note=46 velocity=117 time=0
note_on channel=9 note=49 velocity=117 time=0
note_off channel=9 note=46 velocity=127 time=128
note_on channel=9 note=42 velocity=117 time=64
note_off channel=9 note=36 velocity=127 time=64
note_off channel=9 note=49 velocity=127 time=0
note_off channel=9 note=42 velocity=127 time=64
note_on channel=9 note=46 velocity=117 time=64
note_off channel=9 note=46 velocity=127 time=128
note_on channel=9 note=42 velocity=117 time=64
note_off channel=9 note=42 velocity=127 time=128
note_on channel=9 note=38 velocity=117 time=64
note_on channel=9 note=46 velocity=117 time=0
note_off channel=9 note=46 velocity=127 time=128
note_on channel=9 note=42 velocity=117 time=64
note_off channel=9 note=38 velocity=127 time=64
note_off channel=9 note=42 velocity=127 time=64
note_on channel=9 note=38 velocity=117 time=64
note_on channel=9 note=46 velocity=117 time=0
note_off channel=9 note=46 velocity=127 time=128
note_on channel=9 note=42 velocity=117 time=64
note_on channel=9 note=38 velocity=127 time=0
note_off channel=9 note=38 velocity=127 time=64
note_off channel=9 note=42 velocity=127 time=64
note_off channel=9 note=38 velocity=127 time=0
note_on channel=9 note=36 velocity=127 time=64
note_on channel=9 note=46 velocity=127 time=0
note_on channel=9 note=49 velocity=127 time=0
note_off channel=9 note=46 velocity=127 time=128
note_on channel=9 note=42 velocity=127 time=64
note_off channel=9 note=36 velocity=127 time=64
note_off channel=9 note=49 velocity=127 time=0
note_off channel=9 note=42 velocity=127 time=64
note_on channel=9 note=38 velocity=127 time=64
note_on channel=9 note=46 velocity=127 time=0
note_off channel=9 note=46 velocity=127 time=128
note_on channel=9 note=42 velocity=127 time=64
note_off channel=9 note=38 velocity=127 time=64
note_off channel=9 note=42 velocity=127 time=64
note_on channel=9 note=38 velocity=127 time=64
note_on channel=9 note=46 velocity=127 time=0
note_off channel=9 note=46 velocity=127 time=128
note_on channel=9 note=42 velocity=127 time=64
note_off channel=9 note=38 velocity=127 time=64
note_off channel=9 note=42 velocity=127 time=64
note_on channel=9 note=38 velocity=127 time=64
note_on channel=9 note=46 velocity=127 time=0
note_off channel=9 note=46 velocity=127 time=128
note_on channel=9 note=42 velocity=127 time=64
note_off channel=9 note=38 velocity=127 time=64
note_off channel=9 note=42 velocity=127 time=64
note_on channel=9 note=36 velocity=127 time=64
note_on channel=9 note=46 velocity=127 time=0
note_on channel=9 note=49 velocity=127 time=0
note_off channel=9 note=46 velocity=127 time=128
note_on channel=9 note=42 velocity=127 time=64
note_off channel=9 note=36 velocity=127 time=64
note_off channel=9 note=49 velocity=127 time=0
note_off channel=9 note=42 velocity=127 time=64
note_on channel=9 note=38 velocity=127 time=64
note_on channel=9 note=46 velocity=127 time=0
note_off channel=9 note=46 velocity=127 time=128
note_on channel=9 note=42 velocity=127 time=64
note_off channel=9 note=38 velocity=127 time=64
note_off channel=9 note=42 velocity=127 time=64
note_on channel=9 note=38 velocity=127 time=64
note_on channel=9 note=46 velocity=127 time=0
note_off channel=9 note=46 velocity=127 time=128
note_on channel=9 note=42 velocity=127 time=64
note_off channel=9 note=38 velocity=127 time=64
note_off channel=9 note=42 velocity=127 time=64
note_on channel=9 note=38 velocity=127 time=64
note_on channel=9 note=46 velocity=127 time=0
note_off channel=9 note=46 velocity=127 time=128
note_on channel=9 note=42 velocity=127 time=64
note_off channel=9 note=38 velocity=127 time=64
note_off channel=9 note=42 velocity=127 time=64
note_on channel=9 note=36 velocity=127 time=64
note_on channel=9 note=46 velocity=127 time=0
note_on channel=9 note=49 velocity=127 time=0
note_off channel=9 note=46 velocity=127 time=128
note_on channel=9 note=42 velocity=127 time=64
note_off channel=9 note=36 velocity=127 time=64
note_off channel=9 note=49 velocity=127 time=0
note_off channel=9 note=42 velocity=127 time=64
note_on channel=9 note=38 velocity=127 time=64
note_on channel=9 note=46 velocity=127 time=0
note_off channel=9 note=46 velocity=127 time=128
note_on channel=9 note=42 velocity=127 time=64
note_off channel=9 note=38 velocity=127 time=64
note_off channel=9 note=42 velocity=127 time=64
note_on channel=9 note=38 velocity=127 time=64
note_on channel=9 note=46 velocity=127 time=0
note_off channel=9 note=46 velocity=127 time=128
note_on channel=9 note=42 velocity=127 time=64
note_off channel=9 note=38 velocity=127 time=64
note_off channel=9 note=42 velocity=127 time=64
note_on channel=9 note=38 velocity=127 time=64
note_on channel=9 note=46 velocity=127 time=0
note_off channel=9 note=46 velocity=127 time=128
note_on channel=9 note=42 velocity=127 time=64
note_off channel=9 note=38 velocity=127 time=64
note_off channel=9 note=42 velocity=127 time=64
note_on channel=9 note=36 velocity=127 time=64
note_on channel=9 note=46 velocity=127 time=0
note_on channel=9 note=49 velocity=127 time=0
note_off channel=9 note=46 velocity=127 time=128
note_on channel=9 note=42 velocity=127 time=64
note_off channel=9 note=36 velocity=127 time=64
note_off channel=9 note=49 velocity=127 time=0
note_off channel=9 note=42 velocity=127 time=64
note_on channel=9 note=38 velocity=127 time=64
note_on channel=9 note=46 velocity=127 time=0
note_off channel=9 note=46 velocity=127 time=128
note_on channel=9 note=42 velocity=127 time=64
note_off channel=9 note=38 velocity=127 time=64
note_off channel=9 note=42 velocity=127 time=64
note_on channel=9 note=38 velocity=127 time=64
note_on channel=9 note=46 velocity=127 time=0
note_off channel=9 note=46 velocity=127 time=128
note_on channel=9 note=42 velocity=127 time=64
note_off channel=9 note=38 velocity=127 time=64
note_off channel=9 note=42 velocity=127 time=64
note_on channel=9 note=38 velocity=127 time=64
note_on channel=9 note=46 velocity=127 time=0
note_off channel=9 note=46 velocity=127 time=128
note_on channel=9 note=42 velocity=127 time=64
note_off channel=9 note=38 velocity=127 time=64
note_off channel=9 note=42 velocity=127 time=64
note_on channel=9 note=36 velocity=127 time=64
note_on channel=9 note=46 velocity=127 time=0
note_on channel=9 note=49 velocity=127 time=0
note_off channel=9 note=46 velocity=127 time=128
note_on channel=9 note=42 velocity=127 time=64
note_off channel=9 note=36 velocity=127 time=64
note_off channel=9 note=49 velocity=127 time=0
note_off channel=9 note=42 velocity=127 time=64
note_on channel=9 note=38 velocity=127 time=64
note_on channel=9 note=46 velocity=127 time=0
note_off channel=9 note=46 velocity=127 time=128
note_on channel=9 note=42 velocity=127 time=64
note_off channel=9 note=38 velocity=127 time=64
note_off channel=9 note=42 velocity=127 time=64
note_on channel=9 note=38 velocity=127 time=64
note_on channel=9 note=46 velocity=127 time=0
note_off channel=9 note=46 velocity=127 time=128
note_on channel=9 note=42 velocity=127 time=64
note_off channel=9 note=38 velocity=127 time=64
note_off channel=9 note=42 velocity=127 time=64
note_on channel=9 note=38 velocity=127 time=64
note_on channel=9 note=46 velocity=127 time=0
note_off channel=9 note=46 velocity=127 time=128
note_on channel=9 note=42 velocity=127 time=64
note_off channel=9 note=38 velocity=127 time=64
note_off channel=9 note=42 velocity=127 time=64
note_on channel=9 note=36 velocity=127 time=64
note_on channel=9 note=46 velocity=127 time=0
note_on channel=9 note=49 velocity=127 time=0
note_off channel=9 note=46 velocity=127 time=128
note_on channel=9 note=42 velocity=127 time=64
note_off channel=9 note=36 velocity=127 time=64
note_off channel=9 note=49 velocity=127 time=0
note_off channel=9 note=42 velocity=127 time=64
note_on channel=9 note=38 velocity=127 time=64
note_on channel=9 note=46 velocity=127 time=0
note_off channel=9 note=46 velocity=127 time=128
note_on channel=9 note=42 velocity=127 time=64
note_off channel=9 note=38 velocity=127 time=64
note_off channel=9 note=42 velocity=127 time=64
note_on channel=9 note=38 velocity=127 time=64
note_on channel=9 note=46 velocity=127 time=0
note_off channel=9 note=46 velocity=127 time=128
note_on channel=9 note=42 velocity=127 time=64
note_off channel=9 note=38 velocity=127 time=64
note_off channel=9 note=42 velocity=127 time=64
note_on channel=9 note=38 velocity=127 time=64
note_on channel=9 note=46 velocity=127 time=0
note_off channel=9 note=46 velocity=127 time=128
note_on channel=9 note=42 velocity=127 time=64
note_off channel=9 note=38 velocity=127 time=64
note_off channel=9 note=42 velocity=127 time=64
note_on channel=9 note=36 velocity=127 time=64
note_on channel=9 note=46 velocity=127 time=0
note_on channel=9 note=49 velocity=127 time=0
note_off channel=9 note=46 velocity=127 time=128
note_on channel=9 note=42 velocity=127 time=64
note_off channel=9 note=36 velocity=127 time=64
note_off channel=9 note=49 velocity=127 time=0
note_off channel=9 note=42 velocity=127 time=64
note_on channel=9 note=38 velocity=127 time=64
note_on channel=9 note=46 velocity=127 time=0
note_off channel=9 note=46 velocity=127 time=128
note_on channel=9 note=42 velocity=127 time=64
note_off channel=9 note=38 velocity=127 time=64
note_off channel=9 note=42 velocity=127 time=64
note_on channel=9 note=38 velocity=127 time=64
note_on channel=9 note=46 velocity=127 time=0
note_off channel=9 note=46 velocity=127 time=128
note_on channel=9 note=42 velocity=127 time=64
note_off channel=9 note=38 velocity=127 time=64
note_off channel=9 note=42 velocity=127 time=64
note_on channel=9 note=38 velocity=127 time=64
note_on channel=9 note=46 velocity=127 time=0
note_off channel=9 note=46 velocity=127 time=128
note_on channel=9 note=42 velocity=127 time=64
note_off channel=9 note=38 velocity=127 time=64
note_off channel=9 note=42 velocity=127 time=64
note_on channel=9 note=36 velocity=127 time=64
note_on channel=9 note=46 velocity=127 time=0
note_on channel=9 note=49 velocity=127 time=0
note_off channel=9 note=46 velocity=127 time=128
note_on channel=9 note=42 velocity=127 time=64
note_off channel=9 note=36 velocity=127 time=64
note_off channel=9 note=49 velocity=127 time=0
note_off channel=9 note=42 velocity=127 time=64
note_on channel=9 note=38 velocity=127 time=64
note_on channel=9 note=46 velocity=127 time=0
note_off channel=9 note=46 velocity=127 time=128
note_on channel=9 note=42 velocity=127 time=64
note_off channel=9 note=38 velocity=127 time=64
note_off channel=9 note=42 velocity=127 time=64
note_on channel=9 note=38 velocity=127 time=64
note_on channel=9 note=46 velocity=127 time=0
note_off channel=9 note=46 velocity=127 time=128
note_on channel=9 note=42 velocity=127 time=64
note_off channel=9 note=38 velocity=127 time=64
note_off channel=9 note=42 velocity=127 time=64
note_on channel=9 note=38 velocity=127 time=64
note_on channel=9 note=46 velocity=127 time=0
note_off channel=9 note=46 velocity=127 time=128
note_on channel=9 note=42 velocity=127 time=64
note_off channel=9 note=38 velocity=127 time=64
note_off channel=9 note=42 velocity=127 time=64
note_on channel=9 note=36 velocity=127 time=64
note_on channel=9 note=46 velocity=127 time=0
note_on channel=9 note=49 velocity=127 time=0
note_off channel=9 note=46 velocity=127 time=128
note_on channel=9 note=42 velocity=127 time=64
note_off channel=9 note=36 velocity=127 time=64
note_off channel=9 note=49 velocity=127 time=0
note_off channel=9 note=42 velocity=127 time=64
note_on channel=9 note=38 velocity=127 time=64
note_on channel=9 note=46 velocity=127 time=0
note_off channel=9 note=46 velocity=127 time=128
note_on channel=9 note=42 velocity=127 time=64
note_off channel=9 note=38 velocity=127 time=64
note_off channel=9 note=42 velocity=127 time=64
note_on channel=9 note=38 velocity=127 time=64
note_on channel=9 note=46 velocity=127 time=0
note_off channel=9 note=46 velocity=127 time=128
note_on channel=9 note=42 velocity=127 time=64
note_off channel=9 note=38 velocity=127 time=64
note_off channel=9 note=42 velocity=127 time=64
note_on channel=9 note=38 velocity=127 time=64
note_on channel=9 note=46 velocity=127 time=0
note_off channel=9 note=46 velocity=127 time=128
note_on channel=9 note=42 velocity=127 time=64
note_off channel=9 note=38 velocity=127 time=64
note_off channel=9 note=42 velocity=127 time=64
note_on channel=9 note=36 velocity=127 time=64
note_on channel=9 note=46 velocity=127 time=0
note_on channel=9 note=49 velocity=127 time=0
note_off channel=9 note=46 velocity=127 time=128
note_on channel=9 note=42 velocity=127 time=64
note_off channel=9 note=36 velocity=127 time=64
note_off channel=9 note=49 velocity=127 time=0
note_off channel=9 note=42 velocity=127 time=64
note_on channel=9 note=38 velocity=127 time=64
note_on channel=9 note=46 velocity=127 time=0
note_off channel=9 note=46 velocity=127 time=128
note_on channel=9 note=42 velocity=127 time=64
note_off channel=9 note=38 velocity=127 time=64
note_off channel=9 note=42 velocity=127 time=64
note_on channel=9 note=38 velocity=127 time=64
note_on channel=9 note=46 velocity=127 time=0
note_off channel=9 note=46 velocity=127 time=128
note_on channel=9 note=42 velocity=127 time=64
note_off channel=9 note=38 velocity=127 time=64
note_off channel=9 note=42 velocity=127 time=64
note_on channel=9 note=38 velocity=127 time=64
note_on channel=9 note=46 velocity=127 time=0
note_off channel=9 note=46 velocity=127 time=128
note_on channel=9 note=42 velocity=127 time=64
note_off channel=9 note=38 velocity=127 time=64
note_off channel=9 note=42 velocity=127 time=64
note_on channel=9 note=36 velocity=127 time=64
note_on channel=9 note=46 velocity=127 time=0
note_on channel=9 note=49 velocity=127 time=0
note_off channel=9 note=46 velocity=127 time=128
note_on channel=9 note=42 velocity=127 time=64
note_off channel=9 note=36 velocity=127 time=64
note_off channel=9 note=49 velocity=127 time=0
note_off channel=9 note=42 velocity=127 time=64
note_on channel=9 note=38 velocity=127 time=64
note_on channel=9 note=46 velocity=127 time=0
note_off channel=9 note=46 velocity=127 time=128
note_on channel=9 note=42 velocity=127 time=64
note_off channel=9 note=38 velocity=127 time=64
note_off channel=9 note=42 velocity=127 time=64
note_on channel=9 note=38 velocity=127 time=64
note_on channel=9 note=46 velocity=127 time=0
note_off channel=9 note=46 velocity=127 time=128
note_on channel=9 note=42 velocity=127 time=64
note_off channel=9 note=38 velocity=127 time=64
note_off channel=9 note=42 velocity=127 time=64
note_on channel=9 note=38 velocity=127 time=64
note_on channel=9 note=46 velocity=127 time=0
note_off channel=9 note=46 velocity=127 time=128
note_on channel=9 note=42 velocity=127 time=64
note_off channel=9 note=38 velocity=127 time=64
note_off channel=9 note=42 velocity=127 time=64
note_on channel=9 note=36 velocity=127 time=64
note_on channel=9 note=46 velocity=127 time=0
note_on channel=9 note=49 velocity=127 time=0
note_off channel=9 note=46 velocity=127 time=128
note_on channel=9 note=42 velocity=127 time=64
note_off channel=9 note=36 velocity=127 time=64
note_off channel=9 note=49 velocity=127 time=0
note_off channel=9 note=42 velocity=127 time=64
note_on channel=9 note=38 velocity=127 time=64
note_on channel=9 note=46 velocity=127 time=0
note_off channel=9 note=46 velocity=127 time=128
note_on channel=9 note=42 velocity=127 time=64
note_off channel=9 note=38 velocity=127 time=64
note_off channel=9 note=42 velocity=127 time=64
note_on channel=9 note=38 velocity=127 time=64
note_on channel=9 note=46 velocity=127 time=0
note_off channel=9 note=46 velocity=127 time=128
note_on channel=9 note=42 velocity=127 time=64
note_off channel=9 note=38 velocity=127 time=64
note_off channel=9 note=42 velocity=127 time=64
note_on channel=9 note=38 velocity=127 time=64
note_on channel=9 note=46 velocity=127 time=0
note_off channel=9 note=46 velocity=127 time=128
note_on channel=9 note=42 velocity=127 time=64
note_off channel=9 note=38 velocity=127 time=64
note_off channel=9 note=42 velocity=127 time=64
note_on channel=9 note=36 velocity=127 time=64
note_on channel=9 note=46 velocity=127 time=0
note_on channel=9 note=49 velocity=127 time=0
note_off channel=9 note=46 velocity=127 time=128
note_on channel=9 note=42 velocity=127 time=64
note_off channel=9 note=36 velocity=127 time=64
note_off channel=9 note=49 velocity=127 time=0
note_off channel=9 note=42 velocity=127 time=64
note_on channel=9 note=38 velocity=127 time=64
note_on channel=9 note=46 velocity=127 time=0
note_off channel=9 note=46 velocity=127 time=128
note_on channel=9 note=42 velocity=127 time=64
note_off channel=9 note=38 velocity=127 time=64
note_off channel=9 note=42 velocity=127 time=64
note_on channel=9 note=38 velocity=127 time=64
note_on channel=9 note=46 velocity=127 time=0
note_off channel=9 note=46 velocity=127 time=128
note_on channel=9 note=42 velocity=127 time=64
note_off channel=9 note=38 velocity=127 time=64
note_off channel=9 note=42 velocity=127 time=64
note_on channel=9 note=38 velocity=127 time=64
note_on channel=9 note=46 velocity=127 time=0
note_off channel=9 note=46 velocity=127 time=128
note_on channel=9 note=42 velocity=127 time=64
note_off channel=9 note=38 velocity=127 time=64
note_off channel=9 note=42 velocity=127 time=64
note_on channel=9 note=36 velocity=127 time=64
note_on channel=9 note=46 velocity=127 time=0
note_on channel=9 note=49 velocity=127 time=0
note_off channel=9 note=46 velocity=127 time=128
note_on channel=9 note=42 velocity=127 time=64
note_off channel=9 note=36 velocity=127 time=64
note_off channel=9 note=49 velocity=127 time=0
note_off channel=9 note=42 velocity=127 time=64
note_on channel=9 note=38 velocity=127 time=64
note_on channel=9 note=46 velocity=127 time=0
note_off channel=9 note=46 velocity=127 time=128
note_on channel=9 note=42 velocity=127 time=64
note_off channel=9 note=38 velocity=127 time=64
note_off channel=9 note=42 velocity=127 time=64
note_on channel=9 note=38 velocity=127 time=64
note_on channel=9 note=46 velocity=127 time=0
note_off channel=9 note=46 velocity=127 time=128
note_on channel=9 note=42 velocity=127 time=64
note_off channel=9 note=38 velocity=127 time=64
note_off channel=9 note=42 velocity=127 time=64
note_on channel=9 note=38 velocity=127 time=64
note_on channel=9 note=46 velocity=127 time=0
note_off channel=9 note=46 velocity=127 time=128
note_on channel=9 note=42 velocity=127 time=64
note_off channel=9 note=38 velocity=127 time=64
note_off channel=9 note=42 velocity=127 time=64
note_on channel=9 note=36 velocity=127 time=64
note_on channel=9 note=46 velocity=127 time=0
note_on channel=9 note=49 velocity=127 time=0
note_off channel=9 note=46 velocity=127 time=128
note_on channel=9 note=42 velocity=127 time=64
note_off channel=9 note=36 velocity=127 time=64
note_off channel=9 note=49 velocity=127 time=0
note_off channel=9 note=42 velocity=127 time=64
note_on channel=9 note=38 velocity=127 time=64
note_on channel=9 note=46 velocity=127 time=0
note_off channel=9 note=46 velocity=127 time=128
note_on channel=9 note=42 velocity=127 time=64
note_off channel=9 note=38 velocity=127 time=64
note_off channel=9 note=42 velocity=127 time=64
note_on channel=9 note=38 velocity=127 time=64
note_on channel=9 note=46 velocity=127 time=0
note_off channel=9 note=46 velocity=127 time=128
note_on channel=9 note=42 velocity=127 time=64
note_off channel=9 note=38 velocity=127 time=64
note_off channel=9 note=42 velocity=127 time=64
note_on channel=9 note=38 velocity=127 time=64
note_on channel=9 note=46 velocity=127 time=0
note_off channel=9 note=46 velocity=127 time=128
note_on channel=9 note=42 velocity=127 time=64
note_off channel=9 note=38 velocity=127 time=64
note_off channel=9 note=42 velocity=127 time=64
note_on channel=9 note=36 velocity=127 time=64
note_on channel=9 note=46 velocity=127 time=0
note_on channel=9 note=49 velocity=127 time=0
note_off channel=9 note=46 velocity=127 time=128
note_on channel=9 note=42 velocity=127 time=64
note_off channel=9 note=36 velocity=127 time=64
note_off channel=9 note=49 velocity=127 time=0
note_off channel=9 note=42 velocity=127 time=64
note_on channel=9 note=38 velocity=127 time=64
note_on channel=9 note=46 velocity=127 time=0
note_off channel=9 note=46 velocity=127 time=128
note_on channel=9 note=42 velocity=127 time=64
note_off channel=9 note=38 velocity=127 time=64
note_off channel=9 note=42 velocity=127 time=64
note_on channel=9 note=38 velocity=127 time=64
note_on channel=9 note=46 velocity=127 time=0
note_off channel=9 note=46 velocity=127 time=128
note_on channel=9 note=42 velocity=127 time=64
note_off channel=9 note=38 velocity=127 time=64
note_off channel=9 note=42 velocity=127 time=64
note_on channel=9 note=38 velocity=127 time=64
note_on channel=9 note=46 velocity=127 time=0
note_off channel=9 note=46 velocity=127 time=128
note_on channel=9 note=42 velocity=127 time=64
note_off channel=9 note=38 velocity=127 time=64
note_off channel=9 note=42 velocity=127 time=64
note_on channel=9 note=36 velocity=127 time=64
note_on channel=9 note=46 velocity=127 time=0
note_on channel=9 note=49 velocity=127 time=0
note_off channel=9 note=46 velocity=127 time=128
note_on channel=9 note=42 velocity=127 time=64
note_off channel=9 note=36 velocity=127 time=64
note_off channel=9 note=49 velocity=127 time=0
note_off channel=9 note=42 velocity=127 time=64
note_on channel=9 note=38 velocity=127 time=64
note_on channel=9 note=46 velocity=127 time=0
note_off channel=9 note=46 velocity=127 time=128
note_on channel=9 note=42 velocity=127 time=64
note_off channel=9 note=38 velocity=127 time=64
note_off channel=9 note=42 velocity=127 time=64
note_on channel=9 note=38 velocity=127 time=64
note_on channel=9 note=46 velocity=127 time=0
note_off channel=9 note=46 velocity=127 time=128
note_on channel=9 note=42 velocity=127 time=64
note_off channel=9 note=38 velocity=127 time=64
note_off channel=9 note=42 velocity=127 time=64
note_on channel=9 note=38 velocity=127 time=64
note_on channel=9 note=46 velocity=127 time=0
note_off channel=9 note=46 velocity=127 time=128
note_on channel=9 note=42 velocity=127 time=64
note_off channel=9 note=38 velocity=127 time=64
note_off channel=9 note=42 velocity=127 time=64
note_on channel=9 note=36 velocity=127 time=64
note_on channel=9 note=46 velocity=127 time=0
note_on channel=9 note=49 velocity=127 time=0
note_off channel=9 note=46 velocity=127 time=128
note_on channel=9 note=42 velocity=127 time=64
note_off channel=9 note=36 velocity=127 time=64
note_off channel=9 note=49 velocity=127 time=0
note_off channel=9 note=42 velocity=127 time=64
note_on channel=9 note=38 velocity=127 time=64
note_on channel=9 note=46 velocity=127 time=0
note_off channel=9 note=46 velocity=127 time=128
note_on channel=9 note=42 velocity=127 time=64
note_off channel=9 note=38 velocity=127 time=64
note_off channel=9 note=42 velocity=127 time=64
note_on channel=9 note=38 velocity=127 time=64
note_on channel=9 note=46 velocity=127 time=0
note_off channel=9 note=46 velocity=127 time=128
note_on channel=9 note=42 velocity=127 time=64
note_off channel=9 note=38 velocity=127 time=64
note_off channel=9 note=42 velocity=127 time=64
note_on channel=9 note=38 velocity=127 time=64
note_on channel=9 note=46 velocity=127 time=0
note_off channel=9 note=46 velocity=127 time=128
note_on channel=9 note=42 velocity=127 time=64
note_off channel=9 note=38 velocity=127 time=64
note_off channel=9 note=42 velocity=127 time=64
note_on channel=9 note=36 velocity=127 time=64
note_on channel=9 note=46 velocity=127 time=0
note_on channel=9 note=49 velocity=127 time=0
note_off channel=9 note=46 velocity=127 time=128
note_on channel=9 note=42 velocity=127 time=64
note_off channel=9 note=36 velocity=127 time=64
note_off channel=9 note=49 velocity=127 time=0
note_off channel=9 note=42 velocity=127 time=64
note_on channel=9 note=38 velocity=127 time=64
note_on channel=9 note=46 velocity=127 time=0
note_off channel=9 note=46 velocity=127 time=128
note_on channel=9 note=42 velocity=127 time=64
note_off channel=9 note=38 velocity=127 time=64
note_off channel=9 note=42 velocity=127 time=64
note_on channel=9 note=38 velocity=127 time=64
note_on channel=9 note=46 velocity=127 time=0
note_off channel=9 note=46 velocity=127 time=128
note_on channel=9 note=42 velocity=127 time=64
note_off channel=9 note=38 velocity=127 time=64
note_off channel=9 note=42 velocity=127 time=64
note_on channel=9 note=38 velocity=127 time=64
note_on channel=9 note=46 velocity=127 time=0
note_off channel=9 note=46 velocity=127 time=128
note_on channel=9 note=42 velocity=127 time=64
note_off channel=9 note=38 velocity=127 time=64
note_off channel=9 note=42 velocity=127 time=64
note_on channel=9 note=36 velocity=127 time=64
note_on channel=9 note=46 velocity=127 time=0
note_on channel=9 note=49 velocity=127 time=0
note_off channel=9 note=46 velocity=127 time=128
note_on channel=9 note=42 velocity=127 time=64
note_off channel=9 note=36 velocity=127 time=64
note_off channel=9 note=49 velocity=127 time=0
note_off channel=9 note=42 velocity=127 time=64
note_on channel=9 note=38 velocity=127 time=64
note_on channel=9 note=46 velocity=127 time=0
note_off channel=9 note=46 velocity=127 time=128
note_on channel=9 note=42 velocity=127 time=64
note_off channel=9 note=38 velocity=127 time=64
note_off channel=9 note=42 velocity=127 time=64
note_on channel=9 note=38 velocity=127 time=64
note_on channel=9 note=46 velocity=127 time=0
note_off channel=9 note=46 velocity=127 time=128
note_on channel=9 note=42 velocity=127 time=64
note_off channel=9 note=38 velocity=127 time=64
note_off channel=9 note=42 velocity=127 time=64
note_on channel=9 note=38 velocity=127 time=64
note_on channel=9 note=46 velocity=127 time=0
note_off channel=9 note=46 velocity=127 time=128
note_on channel=9 note=42 velocity=127 time=64
note_off channel=9 note=38 velocity=127 time=64
note_off channel=9 note=42 velocity=127 time=64
note_on channel=9 note=36 velocity=127 time=64
note_on channel=9 note=46 velocity=127 time=0
note_on channel=9 note=49 velocity=127 time=0
note_off channel=9 note=46 velocity=127 time=128
note_on channel=9 note=42 velocity=127 time=64
note_off channel=9 note=36 velocity=127 time=64
note_off channel=9 note=49 velocity=127 time=0
note_off channel=9 note=42 velocity=127 time=64
note_on channel=9 note=38 velocity=127 time=64
note_on channel=9 note=46 velocity=127 time=0
note_off channel=9 note=46 velocity=127 time=128
note_on channel=9 note=42 velocity=127 time=64
note_off channel=9 note=38 velocity=127 time=64
note_off channel=9 note=42 velocity=127 time=64
note_on channel=9 note=38 velocity=127 time=64
note_on channel=9 note=46 velocity=127 time=0
note_off channel=9 note=46 velocity=127 time=128
note_on channel=9 note=42 velocity=127 time=64
note_off channel=9 note=38 velocity=127 time=64
note_off channel=9 note=42 velocity=127 time=64
note_on channel=9 note=38 velocity=127 time=64
note_on channel=9 note=46 velocity=127 time=0
note_off channel=9 note=46 velocity=127 time=128
note_on channel=9 note=42 velocity=127 time=64
note_off channel=9 note=38 velocity=127 time=64
note_off channel=9 note=42 velocity=127 time=64
note_on channel=9 note=36 velocity=127 time=64
note_on channel=9 note=46 velocity=127 time=0
note_on channel=9 note=49 velocity=127 time=0
note_off channel=9 note=46 velocity=127 time=128
note_on channel=9 note=42 velocity=127 time=64
note_off channel=9 note=36 velocity=127 time=64
note_off channel=9 note=49 velocity=127 time=0
note_off channel=9 note=42 velocity=127 time=64
note_on channel=9 note=38 velocity=127 time=64
note_on channel=9 note=46 velocity=127 time=0
note_off channel=9 note=46 velocity=127 time=128
note_on channel=9 note=42 velocity=127 time=64
note_off channel=9 note=38 velocity=127 time=64
note_off channel=9 note=42 velocity=127 time=64
note_on channel=9 note=38 velocity=127 time=64
note_on channel=9 note=46 velocity=127 time=0
note_off channel=9 note=46 velocity=127 time=128
note_on channel=9 note=42 velocity=127 time=64
note_off channel=9 note=38 velocity=127 time=64
note_off channel=9 note=42 velocity=127 time=64
note_on channel=9 note=38 velocity=127 time=64
note_on channel=9 note=46 velocity=127 time=0
note_off channel=9 note=46 velocity=127 time=128
note_on channel=9 note=42 velocity=127 time=64
note_off channel=9 note=38 velocity=127 time=64
note_off channel=9 note=42 velocity=127 time=64
note_on channel=9 note=36 velocity=127 time=64
note_on channel=9 note=46 velocity=127 time=0
note_on channel=9 note=49 velocity=127 time=0
note_off channel=9 note=46 velocity=127 time=128
note_on channel=9 note=42 velocity=127 time=64
note_off channel=9 note=36 velocity=127 time=64
note_off channel=9 note=49 velocity=127 time=0
note_off channel=9 note=42 velocity=127 time=64
note_on channel=9 note=38 velocity=127 time=64
note_on channel=9 note=46 velocity=127 time=0
note_off channel=9 note=46 velocity=127 time=128
note_on channel=9 note=42 velocity=127 time=64
note_off channel=9 note=38 velocity=127 time=64
note_off channel=9 note=42 velocity=127 time=64
note_on channel=9 note=38 velocity=127 time=64
note_on channel=9 note=46 velocity=127 time=0
note_off channel=9 note=46 velocity=127 time=128
note_on channel=9 note=42 velocity=127 time=64
note_off channel=9 note=38 velocity=127 time=64
note_off channel=9 note=42 velocity=127 time=64
note_on channel=9 note=38 velocity=127 time=64
note_on channel=9 note=46 velocity=127 time=0
note_off channel=9 note=46 velocity=127 time=128
note_on channel=9 note=42 velocity=127 time=64
note_off channel=9 note=38 velocity=127 time=64
note_off channel=9 note=42 velocity=127 time=64
note_on channel=9 note=36 velocity=127 time=64
note_on channel=9 note=46 velocity=127 time=0
note_on channel=9 note=49 velocity=127 time=0
note_off channel=9 note=46 velocity=127 time=128
note_on channel=9 note=42 velocity=127 time=64
note_off channel=9 note=36 velocity=127 time=64
note_off channel=9 note=49 velocity=127 time=0
note_off channel=9 note=42 velocity=127 time=64
note_on channel=9 note=38 velocity=127 time=64
note_on channel=9 note=46 velocity=127 time=0
note_off channel=9 note=46 velocity=127 time=128
note_on channel=9 note=42 velocity=127 time=64
note_off channel=9 note=38 velocity=127 time=64
note_off channel=9 note=42 velocity=127 time=64
note_on channel=9 note=38 velocity=127 time=64
note_on channel=9 note=46 velocity=127 time=0
note_off channel=9 note=46 velocity=127 time=128
note_on channel=9 note=42 velocity=127 time=64
note_off channel=9 note=38 velocity=127 time=64
note_off channel=9 note=42 velocity=127 time=64
note_on channel=9 note=38 velocity=127 time=64
note_on channel=9 note=46 velocity=127 time=0
note_off channel=9 note=46 velocity=127 time=128
note_on channel=9 note=42 velocity=127 time=64
note_off channel=9 note=38 velocity=127 time=64
note_off channel=9 note=42 velocity=127 time=64
note_on channel=9 note=36 velocity=127 time=64
note_on channel=9 note=46 velocity=127 time=0
note_on channel=9 note=49 velocity=127 time=0
note_off channel=9 note=46 velocity=127 time=128
note_on channel=9 note=42 velocity=127 time=64
note_off channel=9 note=36 velocity=127 time=64
note_off channel=9 note=49 velocity=127 time=0
note_off channel=9 note=42 velocity=127 time=64
note_on channel=9 note=38 velocity=127 time=64
note_on channel=9 note=46 velocity=127 time=0
note_off channel=9 note=46 velocity=127 time=128
note_on channel=9 note=42 velocity=127 time=64
note_off channel=9 note=38 velocity=127 time=64
note_off channel=9 note=42 velocity=127 time=64
note_on channel=9 note=38 velocity=127 time=64
note_on channel=9 note=46 velocity=127 time=0
note_off channel=9 note=46 velocity=127 time=128
note_on channel=9 note=42 velocity=127 time=64
note_off channel=9 note=38 velocity=127 time=64
note_off channel=9 note=42 velocity=127 time=64
note_on channel=9 note=38 velocity=127 time=64
note_on channel=9 note=46 velocity=127 time=0
note_off channel=9 note=46 velocity=127 time=128
note_on channel=9 note=42 velocity=127 time=64
note_off channel=9 note=38 velocity=127 time=64
note_off channel=9 note=42 velocity=127 time=64
note_on channel=9 note=36 velocity=127 time=64
note_on channel=9 note=46 velocity=127 time=0
note_on channel=9 note=49 velocity=127 time=0
note_off channel=9 note=46 velocity=127 time=128
note_on channel=9 note=42 velocity=127 time=64
note_off channel=9 note=36 velocity=127 time=64
note_off channel=9 note=49 velocity=127 time=0
note_off channel=9 note=42 velocity=127 time=64
note_on channel=9 note=38 velocity=127 time=64
note_on channel=9 note=46 velocity=127 time=0
note_off channel=9 note=46 velocity=127 time=128
note_on channel=9 note=42 velocity=127 time=64
note_off channel=9 note=38 velocity=127 time=64
note_off channel=9 note=42 velocity=127 time=64
note_on channel=9 note=38 velocity=127 time=64
note_on channel=9 note=46 velocity=127 time=0
note_off channel=9 note=46 velocity=127 time=128
note_on channel=9 note=42 velocity=127 time=64
note_off channel=9 note=38 velocity=127 time=64
note_off channel=9 note=42 velocity=127 time=64
note_on channel=9 note=38 velocity=127 time=64
note_on channel=9 note=46 velocity=127 time=0
note_off channel=9 note=46 velocity=127 time=128
note_on channel=9 note=42 velocity=127 time=64
note_off channel=9 note=38 velocity=127 time=64
note_off channel=9 note=42 velocity=127 time=64
note_on channel=9 note=36 velocity=127 time=64
note_on channel=9 note=46 velocity=127 time=0
note_on channel=9 note=49 velocity=127 time=0
note_off channel=9 note=46 velocity=127 time=128
note_on channel=9 note=42 velocity=127 time=64
note_off channel=9 note=36 velocity=127 time=64
note_off channel=9 note=49 velocity=127 time=0
note_off channel=9 note=42 velocity=127 time=64
note_on channel=9 note=38 velocity=127 time=64
note_on channel=9 note=46 velocity=127 time=0
note_off channel=9 note=46 velocity=127 time=128
note_on channel=9 note=42 velocity=127 time=64
note_off channel=9 note=38 velocity=127 time=64
note_off channel=9 note=42 velocity=127 time=64
note_on channel=9 note=38 velocity=127 time=64
note_on channel=9 note=46 velocity=127 time=0
note_off channel=9 note=46 velocity=127 time=128
note_on channel=9 note=42 velocity=127 time=64
note_off channel=9 note=38 velocity=127 time=64
note_off channel=9 note=42 velocity=127 time=64
note_on channel=9 note=38 velocity=127 time=64
note_on channel=9 note=46 velocity=127 time=0
note_off channel=9 note=46 velocity=127 time=128
note_on channel=9 note=42 velocity=127 time=64
note_off channel=9 note=38 velocity=127 time=64
note_off channel=9 note=42 velocity=127 time=64
note_on channel=9 note=36 velocity=127 time=64
note_on channel=9 note=46 velocity=127 time=0
note_on channel=9 note=49 velocity=127 time=0
note_off channel=9 note=46 velocity=127 time=128
note_on channel=9 note=42 velocity=127 time=64
note_off channel=9 note=36 velocity=127 time=64
note_off channel=9 note=49 velocity=127 time=0
note_off channel=9 note=42 velocity=127 time=64
note_on channel=9 note=38 velocity=127 time=64
note_on channel=9 note=46 velocity=127 time=0
note_off channel=9 note=46 velocity=127 time=128
note_on channel=9 note=42 velocity=127 time=64
note_off channel=9 note=38 velocity=127 time=64
note_off channel=9 note=42 velocity=127 time=64
note_on channel=9 note=38 velocity=127 time=64
note_on channel=9 note=46 velocity=127 time=0
note_off channel=9 note=46 velocity=127 time=128
note_on channel=9 note=42 velocity=127 time=64
note_off channel=9 note=38 velocity=127 time=64
note_off channel=9 note=42 velocity=127 time=64
note_on channel=9 note=38 velocity=127 time=64
note_on channel=9 note=46 velocity=127 time=0
note_off channel=9 note=46 velocity=127 time=128
note_on channel=9 note=42 velocity=127 time=64
note_off channel=9 note=38 velocity=127 time=64
note_off channel=9 note=42 velocity=127 time=64
note_on channel=9 note=36 velocity=127 time=64
note_on channel=9 note=46 velocity=127 time=0
note_on channel=9 note=49 velocity=127 time=0
note_off channel=9 note=46 velocity=127 time=128
note_on channel=9 note=42 velocity=127 time=64
note_off channel=9 note=36 velocity=127 time=64
note_off channel=9 note=49 velocity=127 time=0
note_off channel=9 note=42 velocity=127 time=64
note_on channel=9 note=38 velocity=127 time=64
note_on channel=9 note=46 velocity=127 time=0
note_off channel=9 note=46 velocity=127 time=128
note_on channel=9 note=42 velocity=127 time=64
note_off channel=9 note=38 velocity=127 time=64
note_off channel=9 note=42 velocity=127 time=64
note_on channel=9 note=38 velocity=127 time=64
note_on channel=9 note=46 velocity=127 time=0
note_off channel=9 note=46 velocity=127 time=128
note_on channel=9 note=42 velocity=127 time=64
note_off channel=9 note=38 velocity=127 time=64
note_off channel=9 note=42 velocity=127 time=64
note_on channel=9 note=38 velocity=127 time=64
note_on channel=9 note=46 velocity=127 time=0
note_off channel=9 note=46 velocity=127 time=128
note_on channel=9 note=42 velocity=127 time=64
note_off channel=9 note=38 velocity=127 time=64
note_off channel=9 note=42 velocity=127 time=64
note_on channel=9 note=36 velocity=127 time=64
note_on channel=9 note=46 velocity=127 time=0
note_on channel=9 note=49 velocity=127 time=0
note_off channel=9 note=46 velocity=127 time=128
note_on channel=9 note=42 velocity=127 time=64
note_off channel=9 note=36 velocity=127 time=64
note_off channel=9 note=49 velocity=127 time=0
note_off channel=9 note=42 velocity=127 time=64
note_on channel=9 note=38 velocity=127 time=64
note_on channel=9 note=46 velocity=127 time=0
note_off channel=9 note=46 velocity=127 time=128
note_on channel=9 note=42 velocity=127 time=64
note_off channel=9 note=38 velocity=127 time=64
note_off channel=9 note=42 velocity=127 time=64
note_on channel=9 note=38 velocity=127 time=64
note_on channel=9 note=46 velocity=127 time=0
note_off channel=9 note=46 velocity=127 time=128
note_on channel=9 note=42 velocity=127 time=64
note_off channel=9 note=38 velocity=127 time=64
note_off channel=9 note=42 velocity=127 time=64
note_on channel=9 note=38 velocity=127 time=64
note_on channel=9 note=46 velocity=127 time=0
note_off channel=9 note=46 velocity=127 time=128
note_on channel=9 note=42 velocity=127 time=64
note_off channel=9 note=38 velocity=127 time=64
note_off channel=9 note=42 velocity=127 time=64
note_on channel=9 note=36 velocity=127 time=64
note_on channel=9 note=46 velocity=127 time=0
note_on channel=9 note=49 velocity=127 time=0
note_off channel=9 note=46 velocity=127 time=128
note_on channel=9 note=42 velocity=127 time=64
note_off channel=9 note=36 velocity=127 time=64
note_off channel=9 note=49 velocity=127 time=0
note_off channel=9 note=42 velocity=127 time=64
note_on channel=9 note=38 velocity=127 time=64
note_on channel=9 note=46 velocity=127 time=0
note_off channel=9 note=46 velocity=127 time=128
note_on channel=9 note=42 velocity=127 time=64
note_off channel=9 note=38 velocity=127 time=64
note_off channel=9 note=42 velocity=127 time=64
note_on channel=9 note=38 velocity=127 time=64
note_on channel=9 note=46 velocity=127 time=0
note_off channel=9 note=46 velocity=127 time=128
note_on channel=9 note=42 velocity=127 time=64
note_off channel=9 note=38 velocity=127 time=64
note_off channel=9 note=42 velocity=127 time=64
note_on channel=9 note=38 velocity=127 time=64
note_on channel=9 note=46 velocity=127 time=0
note_off channel=9 note=46 velocity=127 time=128
note_on channel=9 note=42 velocity=127 time=64
note_off channel=9 note=38 velocity=127 time=64
note_off channel=9 note=42 velocity=127 time=64
note_on channel=9 note=36 velocity=127 time=64
note_on channel=9 note=46 velocity=127 time=0
note_on channel=9 note=49 velocity=127 time=0
note_off channel=9 note=46 velocity=127 time=128
note_on channel=9 note=42 velocity=127 time=64
note_off channel=9 note=36 velocity=127 time=64
note_off channel=9 note=49 velocity=127 time=0
note_off channel=9 note=42 velocity=127 time=64
note_on channel=9 note=38 velocity=127 time=64
note_on channel=9 note=46 velocity=127 time=0
note_off channel=9 note=46 velocity=127 time=128
note_on channel=9 note=42 velocity=127 time=64
note_off channel=9 note=38 velocity=127 time=64
note_off channel=9 note=42 velocity=127 time=64
note_on channel=9 note=38 velocity=127 time=64
note_on channel=9 note=46 velocity=127 time=0
note_off channel=9 note=46 velocity=127 time=128
note_on channel=9 note=42 velocity=127 time=64
note_off channel=9 note=38 velocity=127 time=64
note_off channel=9 note=42 velocity=127 time=64
note_on channel=9 note=38 velocity=127 time=64
note_on channel=9 note=46 velocity=127 time=0
note_off channel=9 note=46 velocity=127 time=128
note_on channel=9 note=42 velocity=127 time=64
note_off channel=9 note=38 velocity=127 time=64
note_off channel=9 note=42 velocity=127 time=64
note_on channel=9 note=36 velocity=127 time=64
note_on channel=9 note=46 velocity=127 time=0
note_on channel=9 note=49 velocity=127 time=0
note_off channel=9 note=46 velocity=127 time=128
note_on channel=9 note=42 velocity=127 time=64
note_off channel=9 note=36 velocity=127 time=64
note_off channel=9 note=49 velocity=127 time=0
note_off channel=9 note=42 velocity=127 time=64
note_on channel=9 note=38 velocity=127 time=64
note_on channel=9 note=46 velocity=127 time=0
note_off channel=9 note=46 velocity=127 time=128
note_on channel=9 note=42 velocity=127 time=64
note_off channel=9 note=38 velocity=127 time=64
note_off channel=9 note=42 velocity=127 time=64
note_on channel=9 note=38 velocity=127 time=64
note_on channel=9 note=46 velocity=127 time=0
note_off channel=9 note=46 velocity=127 time=128
note_on channel=9 note=42 velocity=127 time=64
note_off channel=9 note=38 velocity=127 time=64
note_off channel=9 note=42 velocity=127 time=64
note_on channel=9 note=38 velocity=127 time=64
note_on channel=9 note=46 velocity=127 time=0
note_off channel=9 note=46 velocity=127 time=128
note_on channel=9 note=42 velocity=127 time=64
note_off channel=9 note=38 velocity=127 time=64
note_off channel=9 note=42 velocity=127 time=64
note_on channel=9 note=36 velocity=127 time=64
note_on channel=9 note=46 velocity=127 time=0
note_on channel=9 note=49 velocity=127 time=0
note_off channel=9 note=46 velocity=127 time=128
note_on channel=9 note=42 velocity=127 time=64
note_off channel=9 note=36 velocity=127 time=64
note_off channel=9 note=49 velocity=127 time=0
note_off channel=9 note=42 velocity=127 time=64
note_on channel=9 note=38 velocity=127 time=64
note_on channel=9 note=46 velocity=127 time=0
note_off channel=9 note=46 velocity=127 time=128
note_on channel=9 note=42 velocity=127 time=64
note_off channel=9 note=38 velocity=127 time=64
note_off channel=9 note=42 velocity=127 time=64
note_on channel=9 note=38 velocity=127 time=64
note_on channel=9 note=46 velocity=127 time=0
note_off channel=9 note=46 velocity=127 time=128
note_on channel=9 note=42 velocity=127 time=64
note_off channel=9 note=38 velocity=127 time=64
note_off channel=9 note=42 velocity=127 time=64
note_on channel=9 note=38 velocity=127 time=64
note_on channel=9 note=46 velocity=127 time=0
note_off channel=9 note=46 velocity=127 time=128
note_on channel=9 note=42 velocity=127 time=64
note_off channel=9 note=38 velocity=127 time=64
note_off channel=9 note=42 velocity=127 time=64
note_on channel=9 note=36 velocity=127 time=64
note_on channel=9 note=46 velocity=127 time=0
note_on channel=9 note=49 velocity=127 time=0
note_off channel=9 note=46 velocity=127 time=128
note_on channel=9 note=42 velocity=127 time=64
note_off channel=9 note=36 velocity=127 time=64
note_off channel=9 note=49 velocity=127 time=0
note_off channel=9 note=42 velocity=127 time=64
note_on channel=9 note=38 velocity=127 time=64
note_on channel=9 note=46 velocity=127 time=0
note_off channel=9 note=46 velocity=127 time=128
note_on channel=9 note=42 velocity=127 time=64
note_off channel=9 note=38 velocity=127 time=64
note_off channel=9 note=42 velocity=127 time=64
note_on channel=9 note=38 velocity=127 time=64
note_on channel=9 note=46 velocity=127 time=0
note_off channel=9 note=46 velocity=127 time=128
note_on channel=9 note=42 velocity=127 time=64
note_off channel=9 note=38 velocity=127 time=64
note_off channel=9 note=42 velocity=127 time=64
note_on channel=9 note=38 velocity=127 time=64
note_on channel=9 note=46 velocity=127 time=0
note_off channel=9 note=46 velocity=127 time=128
note_on channel=9 note=42 velocity=127 time=64
note_off channel=9 note=38 velocity=127 time=64
note_off channel=9 note=42 velocity=127 time=64
note_on channel=9 note=36 velocity=127 time=26176
note_on channel=9 note=46 velocity=127 time=0
note_on channel=9 note=49 velocity=127 time=0
note_off channel=9 note=46 velocity=127 time=128
note_on channel=9 note=42 velocity=127 time=64
note_off channel=9 note=36 velocity=127 time=64
note_off channel=9 note=49 velocity=127 time=0
note_off channel=9 note=42 velocity=127 time=64
note_on channel=9 note=38 velocity=127 time=64
note_on channel=9 note=46 velocity=127 time=0
note_off channel=9 note=46 velocity=127 time=128
note_on channel=9 note=42 velocity=127 time=64
note_off channel=9 note=38 velocity=127 time=64
note_off channel=9 note=42 velocity=127 time=64
note_on channel=9 note=38 velocity=127 time=64
note_on channel=9 note=46 velocity=127 time=0
note_off channel=9 note=46 velocity=127 time=128
note_on channel=9 note=42 velocity=127 time=64
note_off channel=9 note=38 velocity=127 time=64
note_off channel=9 note=42 velocity=127 time=64
note_on channel=9 note=38 velocity=127 time=64
note_on channel=9 note=46 velocity=127 time=0
note_off channel=9 note=46 velocity=127 time=128
note_on channel=9 note=42 velocity=127 time=64
note_off channel=9 note=38 velocity=127 time=64
note_off channel=9 note=42 velocity=127 time=64
note_on channel=9 note=36 velocity=127 time=64
note_on channel=9 note=46 velocity=127 time=0
note_on channel=9 note=49 velocity=127 time=0
note_off channel=9 note=46 velocity=127 time=128
note_on channel=9 note=42 velocity=127 time=64
note_off channel=9 note=36 velocity=127 time=64
note_off channel=9 note=49 velocity=127 time=0
note_off channel=9 note=42 velocity=127 time=64
note_on channel=9 note=38 velocity=127 time=64
note_on channel=9 note=46 velocity=127 time=0
note_off channel=9 note=46 velocity=127 time=128
note_on channel=9 note=42 velocity=127 time=64
note_off channel=9 note=38 velocity=127 time=64
note_off channel=9 note=42 velocity=127 time=64
note_on channel=9 note=38 velocity=127 time=64
note_on channel=9 note=46 velocity=127 time=0
note_off channel=9 note=46 velocity=127 time=128
note_on channel=9 note=42 velocity=127 time=64
note_off channel=9 note=38 velocity=127 time=64
note_off channel=9 note=42 velocity=127 time=64
note_on channel=9 note=38 velocity=127 time=64
note_on channel=9 note=46 velocity=127 time=0
note_off channel=9 note=46 velocity=127 time=128
note_on channel=9 note=42 velocity=127 time=64
note_off channel=9 note=38 velocity=127 time=64
note_off channel=9 note=42 velocity=127 time=64
note_on channel=9 note=36 velocity=127 time=64
note_on channel=9 note=46 velocity=127 time=0
note_on channel=9 note=49 velocity=127 time=0
note_off channel=9 note=46 velocity=127 time=128
note_on channel=9 note=42 velocity=127 time=64
note_off channel=9 note=36 velocity=127 time=64
note_off channel=9 note=49 velocity=127 time=0
note_off channel=9 note=42 velocity=127 time=64
note_on channel=9 note=38 velocity=127 time=64
note_on channel=9 note=46 velocity=127 time=0
note_off channel=9 note=46 velocity=127 time=128
note_on channel=9 note=42 velocity=127 time=64
note_off channel=9 note=38 velocity=127 time=64
note_off channel=9 note=42 velocity=127 time=64
note_on channel=9 note=38 velocity=127 time=64
note_on channel=9 note=46 velocity=127 time=0
note_off channel=9 note=46 velocity=127 time=128
note_on channel=9 note=42 velocity=127 time=64
note_off channel=9 note=38 velocity=127 time=64
note_off channel=9 note=42 velocity=127 time=64
note_on channel=9 note=38 velocity=127 time=64
note_on channel=9 note=46 velocity=127 time=0
note_off channel=9 note=46 velocity=127 time=128
note_on channel=9 note=42 velocity=127 time=64
note_off channel=9 note=38 velocity=127 time=64
note_off channel=9 note=42 velocity=127 time=64
note_on channel=9 note=36 velocity=127 time=64
note_on channel=9 note=46 velocity=127 time=0
note_on channel=9 note=49 velocity=127 time=0
note_off channel=9 note=46 velocity=127 time=128
note_on channel=9 note=42 velocity=127 time=64
note_off channel=9 note=36 velocity=127 time=64
note_off channel=9 note=49 velocity=127 time=0
note_off channel=9 note=42 velocity=127 time=64
note_on channel=9 note=38 velocity=127 time=64
note_on channel=9 note=46 velocity=127 time=0
note_off channel=9 note=46 velocity=127 time=128
note_on channel=9 note=42 velocity=127 time=64
note_off channel=9 note=38 velocity=127 time=64
note_off channel=9 note=42 velocity=127 time=64
note_on channel=9 note=38 velocity=127 time=64
note_on channel=9 note=46 velocity=127 time=0
note_off channel=9 note=46 velocity=127 time=128
note_on channel=9 note=42 velocity=127 time=64
note_off channel=9 note=38 velocity=127 time=64
note_off channel=9 note=42 velocity=127 time=64
note_on channel=9 note=38 velocity=127 time=64
note_on channel=9 note=46 velocity=127 time=0
note_off channel=9 note=46 velocity=127 time=128
note_on channel=9 note=42 velocity=127 time=64
note_off channel=9 note=38 velocity=127 time=64
note_off channel=9 note=42 velocity=127 time=64
note_on channel=9 note=36 velocity=127 time=64
note_on channel=9 note=46 velocity=127 time=0
note_on channel=9 note=49 velocity=127 time=0
note_off channel=9 note=46 velocity=127 time=128
note_on channel=9 note=42 velocity=127 time=64
note_off channel=9 note=36 velocity=127 time=64
note_off channel=9 note=49 velocity=127 time=0
note_off channel=9 note=42 velocity=127 time=64
note_on channel=9 note=38 velocity=127 time=64
note_on channel=9 note=46 velocity=127 time=0
note_off channel=9 note=46 velocity=127 time=128
note_on channel=9 note=42 velocity=127 time=64
note_off channel=9 note=38 velocity=127 time=64
note_off channel=9 note=42 velocity=127 time=64
note_on channel=9 note=38 velocity=127 time=64
note_on channel=9 note=46 velocity=127 time=0
note_off channel=9 note=46 velocity=127 time=128
note_on channel=9 note=42 velocity=127 time=64
note_off channel=9 note=38 velocity=127 time=64
note_off channel=9 note=42 velocity=127 time=64
note_on channel=9 note=38 velocity=127 time=64
note_on channel=9 note=46 velocity=127 time=0
note_off channel=9 note=46 velocity=127 time=128
note_on channel=9 note=42 velocity=127 time=64
note_off channel=9 note=38 velocity=127 time=64
note_off channel=9 note=42 velocity=127 time=64
note_on channel=9 note=36 velocity=127 time=64
note_on channel=9 note=46 velocity=127 time=0
note_on channel=9 note=49 velocity=127 time=0
note_off channel=9 note=46 velocity=127 time=128
note_on channel=9 note=42 velocity=127 time=64
note_off channel=9 note=36 velocity=127 time=64
note_off channel=9 note=49 velocity=127 time=0
note_off channel=9 note=42 velocity=127 time=64
note_on channel=9 note=38 velocity=127 time=64
note_on channel=9 note=46 velocity=127 time=0
note_off channel=9 note=46 velocity=127 time=128
note_on channel=9 note=42 velocity=127 time=64
note_off channel=9 note=38 velocity=127 time=64
note_off channel=9 note=42 velocity=127 time=64
note_on channel=9 note=38 velocity=127 time=64
note_on channel=9 note=46 velocity=127 time=0
note_off channel=9 note=46 velocity=127 time=128
note_on channel=9 note=42 velocity=127 time=64
note_off channel=9 note=38 velocity=127 time=64
note_off channel=9 note=42 velocity=127 time=64
note_on channel=9 note=38 velocity=127 time=64
note_on channel=9 note=46 velocity=127 time=0
note_off channel=9 note=46 velocity=127 time=128
note_on channel=9 note=42 velocity=127 time=64
note_off channel=9 note=38 velocity=127 time=64
note_off channel=9 note=42 velocity=127 time=64
note_on channel=9 note=36 velocity=127 time=64
note_on channel=9 note=46 velocity=127 time=0
note_on channel=9 note=49 velocity=127 time=0
note_off channel=9 note=46 velocity=127 time=128
note_on channel=9 note=42 velocity=127 time=64
note_off channel=9 note=36 velocity=127 time=64
note_off channel=9 note=49 velocity=127 time=0
note_off channel=9 note=42 velocity=127 time=64
note_on channel=9 note=38 velocity=127 time=64
note_on channel=9 note=46 velocity=127 time=0
note_off channel=9 note=46 velocity=127 time=128
note_on channel=9 note=42 velocity=127 time=64
note_off channel=9 note=38 velocity=127 time=64
note_off channel=9 note=42 velocity=127 time=64
note_on channel=9 note=38 velocity=127 time=64
note_on channel=9 note=46 velocity=127 time=0
note_off channel=9 note=46 velocity=127 time=128
note_on channel=9 note=42 velocity=127 time=64
note_off channel=9 note=38 velocity=127 time=64
note_off channel=9 note=42 velocity=127 time=64
note_on channel=9 note=38 velocity=127 time=64
note_on channel=9 note=46 velocity=127 time=0
note_off channel=9 note=46 velocity=127 time=128
note_on channel=9 note=42 velocity=127 time=64
note_off channel=9 note=38 velocity=127 time=64
note_off channel=9 note=42 velocity=127 time=64
<meta message end_of_track time=0>
<meta message track_name name='voc -bu' time=0>
control_change channel=10 control=0 value=0 time=0
program_change channel=10 program=48 time=0
control_change channel=10 control=91 value=21 time=0
control_change channel=10 control=93 value=121 time=0
<meta message key_signature key='E' time=0>
note_on channel=10 note=76 velocity=118 time=7680
note_on channel=10 note=76 velocity=118 time=0
note_on channel=10 note=76 velocity=118 time=0
note_on channel=10 note=76 velocity=118 time=0
note_on channel=10 note=76 velocity=118 time=0
note_on channel=10 note=64 velocity=118 time=0
note_on channel=10 note=64 velocity=118 time=0
note_on channel=10 note=64 velocity=118 time=0
note_on channel=10 note=64 velocity=118 time=0
note_on channel=10 note=64 velocity=118 time=0
note_off channel=10 note=76 velocity=118 time=64
note_off channel=10 note=76 velocity=118 time=0
note_off channel=10 note=76 velocity=118 time=0
note_off channel=10 note=76 velocity=118 time=0
note_off channel=10 note=76 velocity=118 time=0
note_off channel=10 note=64 velocity=118 time=0
note_off channel=10 note=64 velocity=118 time=0
note_off channel=10 note=64 velocity=118 time=0
note_off channel=10 note=64 velocity=118 time=0
note_off channel=10 note=64 velocity=118 time=0
note_on channel=10 note=76 velocity=118 time=32
note_on channel=10 note=76 velocity=118 time=0
note_on channel=10 note=76 velocity=118 time=0
note_on channel=10 note=76 velocity=118 time=0
note_on channel=10 note=76 velocity=118 time=0
note_on channel=10 note=64 velocity=118 time=0
note_on channel=10 note=64 velocity=118 time=0
note_on channel=10 note=64 velocity=118 time=0
note_on channel=10 note=64 velocity=118 time=0
note_on channel=10 note=64 velocity=118 time=0
note_off channel=10 note=76 velocity=118 time=128
note_off channel=10 note=76 velocity=118 time=0
note_off channel=10 note=76 velocity=118 time=0
note_off channel=10 note=76 velocity=118 time=0
note_off channel=10 note=76 velocity=118 time=0
note_off channel=10 note=64 velocity=118 time=0
note_off channel=10 note=64 velocity=118 time=0
note_off channel=10 note=64 velocity=118 time=0
note_off channel=10 note=64 velocity=118 time=0
note_off channel=10 note=64 velocity=118 time=0
note_on channel=10 note=76 velocity=118 time=64
note_on channel=10 note=76 velocity=118 time=0
note_on channel=10 note=76 velocity=118 time=0
note_on channel=10 note=76 velocity=118 time=0
note_on channel=10 note=76 velocity=118 time=0
note_on channel=10 note=64 velocity=118 time=0
note_on channel=10 note=64 velocity=118 time=0
note_on channel=10 note=64 velocity=118 time=0
note_on channel=10 note=64 velocity=118 time=0
note_on channel=10 note=64 velocity=118 time=0
note_off channel=10 note=76 velocity=118 time=256
note_off channel=10 note=76 velocity=118 time=0
note_off channel=10 note=76 velocity=118 time=0
note_off channel=10 note=76 velocity=118 time=0
note_off channel=10 note=76 velocity=118 time=0
note_off channel=10 note=64 velocity=118 time=0
note_off channel=10 note=64 velocity=118 time=0
note_off channel=10 note=64 velocity=118 time=0
note_off channel=10 note=64 velocity=118 time=0
note_off channel=10 note=64 velocity=118 time=0
note_on channel=10 note=74 velocity=118 time=320
note_on channel=10 note=74 velocity=118 time=0
note_on channel=10 note=74 velocity=118 time=0
note_on channel=10 note=74 velocity=118 time=0
note_on channel=10 note=74 velocity=118 time=0
note_on channel=10 note=62 velocity=118 time=0
note_on channel=10 note=62 velocity=118 time=0
note_on channel=10 note=62 velocity=118 time=0
note_on channel=10 note=62 velocity=118 time=0
note_on channel=10 note=62 velocity=118 time=0
note_off channel=10 note=74 velocity=118 time=64
note_off channel=10 note=74 velocity=118 time=0
note_off channel=10 note=74 velocity=118 time=0
note_off channel=10 note=74 velocity=118 time=0
note_off channel=10 note=74 velocity=118 time=0
note_off channel=10 note=62 velocity=118 time=0
note_off channel=10 note=62 velocity=118 time=0
note_off channel=10 note=62 velocity=118 time=0
note_off channel=10 note=62 velocity=118 time=0
note_off channel=10 note=62 velocity=118 time=0
note_on channel=10 note=74 velocity=118 time=32
note_on channel=10 note=74 velocity=118 time=0
note_on channel=10 note=74 velocity=118 time=0
note_on channel=10 note=74 velocity=118 time=0
note_on channel=10 note=74 velocity=118 time=0
note_on channel=10 note=62 velocity=118 time=0
note_on channel=10 note=62 velocity=118 time=0
note_on channel=10 note=62 velocity=118 time=0
note_on channel=10 note=62 velocity=118 time=0
note_on channel=10 note=62 velocity=118 time=0
note_off channel=10 note=74 velocity=118 time=64
note_off channel=10 note=74 velocity=118 time=0
note_off channel=10 note=74 velocity=118 time=0
note_off channel=10 note=74 velocity=118 time=0
note_off channel=10 note=74 velocity=118 time=0
note_off channel=10 note=62 velocity=118 time=0
note_off channel=10 note=62 velocity=118 time=0
note_off channel=10 note=62 velocity=118 time=0
note_off channel=10 note=62 velocity=118 time=0
note_off channel=10 note=62 velocity=118 time=0
note_on channel=10 note=74 velocity=118 time=32
note_on channel=10 note=74 velocity=118 time=0
note_on channel=10 note=74 velocity=118 time=0
note_on channel=10 note=74 velocity=118 time=0
note_on channel=10 note=74 velocity=118 time=0
note_on channel=10 note=62 velocity=118 time=0
note_on channel=10 note=62 velocity=118 time=0
note_on channel=10 note=62 velocity=118 time=0
note_on channel=10 note=62 velocity=118 time=0
note_on channel=10 note=62 velocity=118 time=0
note_off channel=10 note=74 velocity=118 time=64
note_off channel=10 note=74 velocity=118 time=0
note_off channel=10 note=74 velocity=118 time=0
note_off channel=10 note=74 velocity=118 time=0
note_off channel=10 note=74 velocity=118 time=0
note_off channel=10 note=62 velocity=118 time=0
note_off channel=10 note=62 velocity=118 time=0
note_off channel=10 note=62 velocity=118 time=0
note_off channel=10 note=62 velocity=118 time=0
note_off channel=10 note=62 velocity=118 time=0
note_on channel=10 note=74 velocity=118 time=32
note_on channel=10 note=74 velocity=118 time=0
note_on channel=10 note=74 velocity=118 time=0
note_on channel=10 note=74 velocity=118 time=0
note_on channel=10 note=74 velocity=118 time=0
note_on channel=10 note=62 velocity=118 time=0
note_on channel=10 note=62 velocity=118 time=0
note_on channel=10 note=62 velocity=118 time=0
note_on channel=10 note=62 velocity=118 time=0
note_on channel=10 note=62 velocity=118 time=0
note_off channel=10 note=74 velocity=118 time=256
note_off channel=10 note=74 velocity=118 time=0
note_off channel=10 note=74 velocity=118 time=0
note_off channel=10 note=74 velocity=118 time=0
note_off channel=10 note=74 velocity=118 time=0
note_off channel=10 note=62 velocity=118 time=0
note_off channel=10 note=62 velocity=118 time=0
note_off channel=10 note=62 velocity=118 time=0
note_off channel=10 note=62 velocity=118 time=0
note_off channel=10 note=62 velocity=118 time=0
note_on channel=10 note=76 velocity=118 time=224
note_on channel=10 note=76 velocity=118 time=0
note_on channel=10 note=76 velocity=118 time=0
note_on channel=10 note=76 velocity=118 time=0
note_on channel=10 note=76 velocity=118 time=0
note_on channel=10 note=64 velocity=118 time=0
note_on channel=10 note=64 velocity=118 time=0
note_on channel=10 note=64 velocity=118 time=0
note_on channel=10 note=64 velocity=118 time=0
note_on channel=10 note=64 velocity=118 time=0
note_off channel=10 note=76 velocity=118 time=64
note_off channel=10 note=76 velocity=118 time=0
note_off channel=10 note=76 velocity=118 time=0
note_off channel=10 note=76 velocity=118 time=0
note_off channel=10 note=76 velocity=118 time=0
note_off channel=10 note=64 velocity=118 time=0
note_off channel=10 note=64 velocity=118 time=0
note_off channel=10 note=64 velocity=118 time=0
note_off channel=10 note=64 velocity=118 time=0
note_off channel=10 note=64 velocity=118 time=0
note_on channel=10 note=76 velocity=118 time=32
note_on channel=10 note=76 velocity=118 time=0
note_on channel=10 note=76 velocity=118 time=0
note_on channel=10 note=76 velocity=118 time=0
note_on channel=10 note=76 velocity=118 time=0
note_on channel=10 note=64 velocity=118 time=0
note_on channel=10 note=64 velocity=118 time=0
note_on channel=10 note=64 velocity=118 time=0
note_on channel=10 note=64 velocity=118 time=0
note_on channel=10 note=64 velocity=118 time=0
note_off channel=10 note=76 velocity=118 time=64
note_off channel=10 note=76 velocity=118 time=0
note_off channel=10 note=76 velocity=118 time=0
note_off channel=10 note=76 velocity=118 time=0
note_off channel=10 note=76 velocity=118 time=0
note_off channel=10 note=64 velocity=118 time=0
note_off channel=10 note=64 velocity=118 time=0
note_off channel=10 note=64 velocity=118 time=0
note_off channel=10 note=64 velocity=118 time=0
note_off channel=10 note=64 velocity=118 time=0
note_on channel=10 note=76 velocity=118 time=32
note_on channel=10 note=76 velocity=118 time=0
note_on channel=10 note=76 velocity=118 time=0
note_on channel=10 note=76 velocity=118 time=0
note_on channel=10 note=76 velocity=118 time=0
note_on channel=10 note=64 velocity=118 time=0
note_on channel=10 note=64 velocity=118 time=0
note_on channel=10 note=64 velocity=118 time=0
note_on channel=10 note=64 velocity=118 time=0
note_on channel=10 note=64 velocity=118 time=0
note_off channel=10 note=76 velocity=118 time=64
note_off channel=10 note=76 velocity=118 time=0
note_off channel=10 note=76 velocity=118 time=0
note_off channel=10 note=76 velocity=118 time=0
note_off channel=10 note=76 velocity=118 time=0
note_off channel=10 note=64 velocity=118 time=0
note_off channel=10 note=64 velocity=118 time=0
note_off channel=10 note=64 velocity=118 time=0
note_off channel=10 note=64 velocity=118 time=0
note_off channel=10 note=64 velocity=118 time=0
note_on channel=10 note=76 velocity=118 time=32
note_on channel=10 note=76 velocity=118 time=0
note_on channel=10 note=76 velocity=118 time=0
note_on channel=10 note=76 velocity=118 time=0
note_on channel=10 note=76 velocity=118 time=0
note_on channel=10 note=64 velocity=118 time=0
note_on channel=10 note=64 velocity=118 time=0
note_on channel=10 note=64 velocity=118 time=0
note_on channel=10 note=64 velocity=118 time=0
note_on channel=10 note=64 velocity=118 time=0
note_off channel=10 note=76 velocity=118 time=128
note_off channel=10 note=76 velocity=118 time=0
note_off channel=10 note=76 velocity=118 time=0
note_off channel=10 note=76 velocity=118 time=0
note_off channel=10 note=76 velocity=118 time=0
note_off channel=10 note=64 velocity=118 time=0
note_off channel=10 note=64 velocity=118 time=0
note_off channel=10 note=64 velocity=118 time=0
note_off channel=10 note=64 velocity=118 time=0
note_off channel=10 note=64 velocity=118 time=0
note_on channel=10 note=71 velocity=118 time=64
note_on channel=10 note=71 velocity=118 time=0
note_on channel=10 note=71 velocity=118 time=0
note_on channel=10 note=71 velocity=118 time=0
note_on channel=10 note=71 velocity=118 time=0
note_on channel=10 note=59 velocity=118 time=0
note_on channel=10 note=59 velocity=118 time=0
note_on channel=10 note=59 velocity=118 time=0
note_on channel=10 note=59 velocity=118 time=0
note_on channel=10 note=59 velocity=118 time=0
note_off channel=10 note=71 velocity=118 time=128
note_off channel=10 note=71 velocity=118 time=0
note_off channel=10 note=71 velocity=118 time=0
note_off channel=10 note=71 velocity=118 time=0
note_off channel=10 note=71 velocity=118 time=0
note_off channel=10 note=59 velocity=118 time=0
note_off channel=10 note=59 velocity=118 time=0
note_off channel=10 note=59 velocity=118 time=0
note_off channel=10 note=59 velocity=118 time=0
note_off channel=10 note=59 velocity=118 time=0
note_on channel=10 note=69 velocity=118 time=64
note_on channel=10 note=69 velocity=118 time=0
note_on channel=10 note=69 velocity=118 time=0
note_on channel=10 note=69 velocity=118 time=0
note_on channel=10 note=69 velocity=118 time=0
note_on channel=10 note=57 velocity=118 time=0
note_on channel=10 note=57 velocity=118 time=0
note_on channel=10 note=57 velocity=118 time=0
note_on channel=10 note=57 velocity=118 time=0
note_on channel=10 note=57 velocity=118 time=0
note_off channel=10 note=69 velocity=118 time=64
note_off channel=10 note=69 velocity=118 time=0
note_off channel=10 note=69 velocity=118 time=0
note_off channel=10 note=69 velocity=118 time=0
note_off channel=10 note=69 velocity=118 time=0
note_off channel=10 note=57 velocity=118 time=0
note_off channel=10 note=57 velocity=118 time=0
note_off channel=10 note=57 velocity=118 time=0
note_off channel=10 note=57 velocity=118 time=0
note_off channel=10 note=57 velocity=118 time=0
note_on channel=10 note=68 velocity=118 time=32
note_on channel=10 note=68 velocity=118 time=0
note_on channel=10 note=68 velocity=118 time=0
note_on channel=10 note=68 velocity=118 time=0
note_on channel=10 note=68 velocity=118 time=0
note_on channel=10 note=56 velocity=118 time=0
note_on channel=10 note=56 velocity=118 time=0
note_on channel=10 note=56 velocity=118 time=0
note_on channel=10 note=56 velocity=118 time=0
note_on channel=10 note=56 velocity=118 time=0
note_off channel=10 note=68 velocity=118 time=64
note_off channel=10 note=68 velocity=118 time=0
note_off channel=10 note=68 velocity=118 time=0
note_off channel=10 note=68 velocity=118 time=0
note_off channel=10 note=68 velocity=118 time=0
note_off channel=10 note=56 velocity=118 time=0
note_off channel=10 note=56 velocity=118 time=0
note_off channel=10 note=56 velocity=118 time=0
note_off channel=10 note=56 velocity=118 time=0
note_off channel=10 note=56 velocity=118 time=0
note_on channel=10 note=71 velocity=118 time=32
note_on channel=10 note=71 velocity=118 time=0
note_on channel=10 note=71 velocity=118 time=0
note_on channel=10 note=71 velocity=118 time=0
note_on channel=10 note=71 velocity=118 time=0
note_on channel=10 note=59 velocity=118 time=0
note_on channel=10 note=59 velocity=118 time=0
note_on channel=10 note=59 velocity=118 time=0
note_on channel=10 note=59 velocity=118 time=0
note_on channel=10 note=59 velocity=118 time=0
note_off channel=10 note=71 velocity=118 time=128
note_off channel=10 note=71 velocity=118 time=0
note_off channel=10 note=71 velocity=118 time=0
note_off channel=10 note=71 velocity=118 time=0
note_off channel=10 note=71 velocity=118 time=0
note_off channel=10 note=59 velocity=118 time=0
note_off channel=10 note=59 velocity=118 time=0
note_off channel=10 note=59 velocity=118 time=0
note_off channel=10 note=59 velocity=118 time=0
note_off channel=10 note=59 velocity=118 time=0
note_on channel=10 note=69 velocity=118 time=64
note_on channel=10 note=69 velocity=118 time=0
note_on channel=10 note=69 velocity=118 time=0
note_on channel=10 note=69 velocity=118 time=0
note_on channel=10 note=69 velocity=118 time=0
note_on channel=10 note=57 velocity=118 time=0
note_on channel=10 note=57 velocity=118 time=0
note_on channel=10 note=57 velocity=118 time=0
note_on channel=10 note=57 velocity=118 time=0
note_on channel=10 note=57 velocity=118 time=0
note_off channel=10 note=69 velocity=118 time=128
note_off channel=10 note=69 velocity=118 time=0
note_off channel=10 note=69 velocity=118 time=0
note_off channel=10 note=69 velocity=118 time=0
note_off channel=10 note=69 velocity=118 time=0
note_off channel=10 note=57 velocity=118 time=0
note_off channel=10 note=57 velocity=118 time=0
note_off channel=10 note=57 velocity=118 time=0
note_off channel=10 note=57 velocity=118 time=0
note_off channel=10 note=57 velocity=118 time=0
note_on channel=10 note=64 velocity=118 time=64
note_on channel=10 note=64 velocity=118 time=0
note_on channel=10 note=64 velocity=118 time=0
note_on channel=10 note=64 velocity=118 time=0
note_on channel=10 note=64 velocity=118 time=0
note_on channel=10 note=52 velocity=118 time=0
note_on channel=10 note=52 velocity=118 time=0
note_on channel=10 note=52 velocity=118 time=0
note_on channel=10 note=52 velocity=118 time=0
note_on channel=10 note=52 velocity=118 time=0
note_off channel=10 note=64 velocity=118 time=256
note_off channel=10 note=64 velocity=118 time=0
note_off channel=10 note=64 velocity=118 time=0
note_off channel=10 note=64 velocity=118 time=0
note_off channel=10 note=64 velocity=118 time=0
note_off channel=10 note=52 velocity=118 time=0
note_off channel=10 note=52 velocity=118 time=0
note_off channel=10 note=52 velocity=118 time=0
note_off channel=10 note=52 velocity=118 time=0
note_off channel=10 note=52 velocity=118 time=0
note_on channel=10 note=74 velocity=118 time=128
note_on channel=10 note=74 velocity=118 time=0
note_on channel=10 note=74 velocity=118 time=0
note_on channel=10 note=74 velocity=118 time=0
note_on channel=10 note=74 velocity=118 time=0
note_on channel=10 note=62 velocity=118 time=0
note_on channel=10 note=62 velocity=118 time=0
note_on channel=10 note=62 velocity=118 time=0
note_on channel=10 note=62 velocity=118 time=0
note_on channel=10 note=62 velocity=118 time=0
note_off channel=10 note=74 velocity=118 time=128
note_off channel=10 note=74 velocity=118 time=0
note_off channel=10 note=74 velocity=118 time=0
note_off channel=10 note=74 velocity=118 time=0
note_off channel=10 note=74 velocity=118 time=0
note_off channel=10 note=62 velocity=118 time=0
note_off channel=10 note=62 velocity=118 time=0
note_off channel=10 note=62 velocity=118 time=0
note_off channel=10 note=62 velocity=118 time=0
note_off channel=10 note=62 velocity=118 time=0
note_on channel=10 note=74 velocity=118 time=64
note_on channel=10 note=74 velocity=118 time=0
note_on channel=10 note=74 velocity=118 time=0
note_on channel=10 note=74 velocity=118 time=0
note_on channel=10 note=74 velocity=118 time=0
note_on channel=10 note=62 velocity=118 time=0
note_on channel=10 note=62 velocity=118 time=0
note_on channel=10 note=62 velocity=118 time=0
note_on channel=10 note=62 velocity=118 time=0
note_on channel=10 note=62 velocity=118 time=0
note_off channel=10 note=74 velocity=118 time=256
note_off channel=10 note=74 velocity=118 time=0
note_off channel=10 note=74 velocity=118 time=0
note_off channel=10 note=74 velocity=118 time=0
note_off channel=10 note=74 velocity=118 time=0
note_off channel=10 note=62 velocity=118 time=0
note_off channel=10 note=62 velocity=118 time=0
note_off channel=10 note=62 velocity=118 time=0
note_off channel=10 note=62 velocity=118 time=0
note_off channel=10 note=62 velocity=118 time=0
note_on channel=10 note=74 velocity=118 time=224
note_on channel=10 note=74 velocity=118 time=0
note_on channel=10 note=74 velocity=118 time=0
note_on channel=10 note=74 velocity=118 time=0
note_on channel=10 note=74 velocity=118 time=0
note_on channel=10 note=62 velocity=118 time=0
note_on channel=10 note=62 velocity=118 time=0
note_on channel=10 note=62 velocity=118 time=0
note_on channel=10 note=62 velocity=118 time=0
note_on channel=10 note=62 velocity=118 time=0
note_off channel=10 note=74 velocity=118 time=64
note_off channel=10 note=74 velocity=118 time=0
note_off channel=10 note=74 velocity=118 time=0
note_off channel=10 note=74 velocity=118 time=0
note_off channel=10 note=74 velocity=118 time=0
note_off channel=10 note=62 velocity=118 time=0
note_off channel=10 note=62 velocity=118 time=0
note_off channel=10 note=62 velocity=118 time=0
note_off channel=10 note=62 velocity=118 time=0
note_off channel=10 note=62 velocity=118 time=0
note_on channel=10 note=74 velocity=118 time=32
note_on channel=10 note=74 velocity=118 time=0
note_on channel=10 note=74 velocity=118 time=0
note_on channel=10 note=74 velocity=118 time=0
note_on channel=10 note=74 velocity=118 time=0
note_on channel=10 note=62 velocity=118 time=0
note_on channel=10 note=62 velocity=118 time=0
note_on channel=10 note=62 velocity=118 time=0
note_on channel=10 note=62 velocity=118 time=0
note_on channel=10 note=62 velocity=118 time=0
note_off channel=10 note=74 velocity=118 time=64
note_off channel=10 note=74 velocity=118 time=0
note_off channel=10 note=74 velocity=118 time=0
note_off channel=10 note=74 velocity=118 time=0
note_off channel=10 note=74 velocity=118 time=0
note_off channel=10 note=62 velocity=118 time=0
note_off channel=10 note=62 velocity=118 time=0
note_off channel=10 note=62 velocity=118 time=0
note_off channel=10 note=62 velocity=118 time=0
note_off channel=10 note=62 velocity=118 time=0
note_on channel=10 note=74 velocity=118 time=32
note_on channel=10 note=74 velocity=118 time=0
note_on channel=10 note=74 velocity=118 time=0
note_on channel=10 note=74 velocity=118 time=0
note_on channel=10 note=74 velocity=118 time=0
note_on channel=10 note=62 velocity=118 time=0
note_on channel=10 note=62 velocity=118 time=0
note_on channel=10 note=62 velocity=118 time=0
note_on channel=10 note=62 velocity=118 time=0
note_on channel=10 note=62 velocity=118 time=0
note_off channel=10 note=74 velocity=118 time=256
note_off channel=10 note=74 velocity=118 time=0
note_off channel=10 note=74 velocity=118 time=0
note_off channel=10 note=74 velocity=118 time=0
note_off channel=10 note=74 velocity=118 time=0
note_off channel=10 note=62 velocity=118 time=0
note_off channel=10 note=62 velocity=118 time=0
note_off channel=10 note=62 velocity=118 time=0
note_off channel=10 note=62 velocity=118 time=0
note_off channel=10 note=62 velocity=118 time=0
note_on channel=10 note=71 velocity=118 time=416
note_on channel=10 note=71 velocity=118 time=0
note_on channel=10 note=71 velocity=118 time=0
note_on channel=10 note=71 velocity=118 time=0
note_on channel=10 note=71 velocity=118 time=0
note_on channel=10 note=59 velocity=118 time=0
note_on channel=10 note=59 velocity=118 time=0
note_on channel=10 note=59 velocity=118 time=0
note_on channel=10 note=59 velocity=118 time=0
note_on channel=10 note=59 velocity=118 time=0
note_off channel=10 note=71 velocity=118 time=128
note_off channel=10 note=71 velocity=118 time=0
note_off channel=10 note=71 velocity=118 time=0
note_off channel=10 note=71 velocity=118 time=0
note_off channel=10 note=71 velocity=118 time=0
note_off channel=10 note=59 velocity=118 time=0
note_off channel=10 note=59 velocity=118 time=0
note_off channel=10 note=59 velocity=118 time=0
note_off channel=10 note=59 velocity=118 time=0
note_off channel=10 note=59 velocity=118 time=0
note_on channel=10 note=71 velocity=118 time=64
note_on channel=10 note=71 velocity=118 time=0
note_on channel=10 note=71 velocity=118 time=0
note_on channel=10 note=71 velocity=118 time=0
note_on channel=10 note=71 velocity=118 time=0
note_on channel=10 note=59 velocity=118 time=0
note_on channel=10 note=59 velocity=118 time=0
note_on channel=10 note=59 velocity=118 time=0
note_on channel=10 note=59 velocity=118 time=0
note_on channel=10 note=59 velocity=118 time=0
note_off channel=10 note=71 velocity=118 time=128
note_off channel=10 note=71 velocity=118 time=0
note_off channel=10 note=71 velocity=118 time=0
note_off channel=10 note=71 velocity=118 time=0
note_off channel=10 note=71 velocity=118 time=0
note_off channel=10 note=59 velocity=118 time=0
note_off channel=10 note=59 velocity=118 time=0
note_off channel=10 note=59 velocity=118 time=0
note_off channel=10 note=59 velocity=118 time=0
note_off channel=10 note=59 velocity=118 time=0
note_on channel=10 note=71 velocity=118 time=64
note_on channel=10 note=71 velocity=118 time=0
note_on channel=10 note=71 velocity=118 time=0
note_on channel=10 note=71 velocity=118 time=0
note_on channel=10 note=71 velocity=118 time=0
note_on channel=10 note=59 velocity=118 time=0
note_on channel=10 note=59 velocity=118 time=0
note_on channel=10 note=59 velocity=118 time=0
note_on channel=10 note=59 velocity=118 time=0
note_on channel=10 note=59 velocity=118 time=0
note_off channel=10 note=71 velocity=118 time=128
note_off channel=10 note=71 velocity=118 time=0
note_off channel=10 note=71 velocity=118 time=0
note_off channel=10 note=71 velocity=118 time=0
note_off channel=10 note=71 velocity=118 time=0
note_off channel=10 note=59 velocity=118 time=0
note_off channel=10 note=59 velocity=118 time=0
note_off channel=10 note=59 velocity=118 time=0
note_off channel=10 note=59 velocity=118 time=0
note_off channel=10 note=59 velocity=118 time=0
note_on channel=10 note=74 velocity=118 time=64
note_on channel=10 note=74 velocity=118 time=0
note_on channel=10 note=74 velocity=118 time=0
note_on channel=10 note=74 velocity=118 time=0
note_on channel=10 note=74 velocity=118 time=0
note_on channel=10 note=62 velocity=118 time=0
note_on channel=10 note=62 velocity=118 time=0
note_on channel=10 note=62 velocity=118 time=0
note_on channel=10 note=62 velocity=118 time=0
note_on channel=10 note=62 velocity=118 time=0
note_off channel=10 note=74 velocity=118 time=64
note_off channel=10 note=74 velocity=118 time=0
note_off channel=10 note=74 velocity=118 time=0
note_off channel=10 note=74 velocity=118 time=0
note_off channel=10 note=74 velocity=118 time=0
note_off channel=10 note=62 velocity=118 time=0
note_off channel=10 note=62 velocity=118 time=0
note_off channel=10 note=62 velocity=118 time=0
note_off channel=10 note=62 velocity=118 time=0
note_off channel=10 note=62 velocity=118 time=0
note_on channel=10 note=73 velocity=118 time=32
note_on channel=10 note=73 velocity=118 time=0
note_on channel=10 note=73 velocity=118 time=0
note_on channel=10 note=73 velocity=118 time=0
note_on channel=10 note=73 velocity=118 time=0
note_on channel=10 note=61 velocity=118 time=0
note_on channel=10 note=61 velocity=118 time=0
note_on channel=10 note=61 velocity=118 time=0
note_on channel=10 note=61 velocity=118 time=0
note_on channel=10 note=61 velocity=118 time=0
note_off channel=10 note=73 velocity=118 time=64
note_off channel=10 note=73 velocity=118 time=0
note_off channel=10 note=73 velocity=118 time=0
note_off channel=10 note=73 velocity=118 time=0
note_off channel=10 note=73 velocity=118 time=0
note_off channel=10 note=61 velocity=118 time=0
note_off channel=10 note=61 velocity=118 time=0
note_off channel=10 note=61 velocity=118 time=0
note_off channel=10 note=61 velocity=118 time=0
note_off channel=10 note=61 velocity=118 time=0
note_on channel=10 note=71 velocity=118 time=32
note_on channel=10 note=71 velocity=118 time=0
note_on channel=10 note=71 velocity=118 time=0
note_on channel=10 note=71 velocity=118 time=0
note_on channel=10 note=71 velocity=118 time=0
note_on channel=10 note=59 velocity=118 time=0
note_on channel=10 note=59 velocity=118 time=0
note_on channel=10 note=59 velocity=118 time=0
note_on channel=10 note=59 velocity=118 time=0
note_on channel=10 note=59 velocity=118 time=0
note_off channel=10 note=71 velocity=118 time=64
note_off channel=10 note=71 velocity=118 time=0
note_off channel=10 note=71 velocity=118 time=0
note_off channel=10 note=71 velocity=118 time=0
note_off channel=10 note=71 velocity=118 time=0
note_off channel=10 note=59 velocity=118 time=0
note_off channel=10 note=59 velocity=118 time=0
note_off channel=10 note=59 velocity=118 time=0
note_off channel=10 note=59 velocity=118 time=0
note_off channel=10 note=59 velocity=118 time=0
note_on channel=10 note=71 velocity=118 time=32
note_on channel=10 note=71 velocity=118 time=0
note_on channel=10 note=71 velocity=118 time=0
note_on channel=10 note=71 velocity=118 time=0
note_on channel=10 note=71 velocity=118 time=0
note_on channel=10 note=59 velocity=118 time=0
note_on channel=10 note=59 velocity=118 time=0
note_on channel=10 note=59 velocity=118 time=0
note_on channel=10 note=59 velocity=118 time=0
note_on channel=10 note=59 velocity=118 time=0
note_off channel=10 note=71 velocity=118 time=128
note_off channel=10 note=71 velocity=118 time=0
note_off channel=10 note=71 velocity=118 time=0
note_off channel=10 note=71 velocity=118 time=0
note_off channel=10 note=71 velocity=118 time=0
note_off channel=10 note=59 velocity=118 time=0
note_off channel=10 note=59 velocity=118 time=0
note_off channel=10 note=59 velocity=118 time=0
note_off channel=10 note=59 velocity=118 time=0
note_off channel=10 note=59 velocity=118 time=0
note_on channel=10 note=71 velocity=118 time=64
note_on channel=10 note=71 velocity=118 time=0
note_on channel=10 note=71 velocity=118 time=0
note_on channel=10 note=71 velocity=118 time=0
note_on channel=10 note=71 velocity=118 time=0
note_on channel=10 note=59 velocity=118 time=0
note_on channel=10 note=59 velocity=118 time=0
note_on channel=10 note=59 velocity=118 time=0
note_on channel=10 note=59 velocity=118 time=0
note_on channel=10 note=59 velocity=118 time=0
note_off channel=10 note=71 velocity=118 time=64
note_off channel=10 note=71 velocity=118 time=0
note_off channel=10 note=71 velocity=118 time=0
note_off channel=10 note=71 velocity=118 time=0
note_off channel=10 note=71 velocity=118 time=0
note_off channel=10 note=59 velocity=118 time=0
note_off channel=10 note=59 velocity=118 time=0
note_off channel=10 note=59 velocity=118 time=0
note_off channel=10 note=59 velocity=118 time=0
note_off channel=10 note=59 velocity=118 time=0
note_on channel=10 note=71 velocity=118 time=32
note_on channel=10 note=71 velocity=118 time=0
note_on channel=10 note=71 velocity=118 time=0
note_on channel=10 note=71 velocity=118 time=0
note_on channel=10 note=71 velocity=118 time=0
note_on channel=10 note=59 velocity=118 time=0
note_on channel=10 note=59 velocity=118 time=0
note_on channel=10 note=59 velocity=118 time=0
note_on channel=10 note=59 velocity=118 time=0
note_on channel=10 note=59 velocity=118 time=0
note_off channel=10 note=71 velocity=118 time=128
note_off channel=10 note=71 velocity=118 time=0
note_off channel=10 note=71 velocity=118 time=0
note_off channel=10 note=71 velocity=118 time=0
note_off channel=10 note=71 velocity=118 time=0
note_off channel=10 note=59 velocity=118 time=0
note_off channel=10 note=59 velocity=118 time=0
note_off channel=10 note=59 velocity=118 time=0
note_off channel=10 note=59 velocity=118 time=0
note_off channel=10 note=59 velocity=118 time=0
note_on channel=10 note=74 velocity=118 time=64
note_on channel=10 note=74 velocity=118 time=0
note_on channel=10 note=74 velocity=118 time=0
note_on channel=10 note=74 velocity=118 time=0
note_on channel=10 note=74 velocity=118 time=0
note_on channel=10 note=62 velocity=118 time=0
note_on channel=10 note=62 velocity=118 time=0
note_on channel=10 note=62 velocity=118 time=0
note_on channel=10 note=62 velocity=118 time=0
note_on channel=10 note=62 velocity=118 time=0
note_off channel=10 note=74 velocity=118 time=64
note_off channel=10 note=74 velocity=118 time=0
note_off channel=10 note=74 velocity=118 time=0
note_off channel=10 note=74 velocity=118 time=0
note_off channel=10 note=74 velocity=118 time=0
note_off channel=10 note=62 velocity=118 time=0
note_off channel=10 note=62 velocity=118 time=0
note_off channel=10 note=62 velocity=118 time=0
note_off channel=10 note=62 velocity=118 time=0
note_off channel=10 note=62 velocity=118 time=0
note_on channel=10 note=74 velocity=118 time=32
note_on channel=10 note=74 velocity=118 time=0
note_on channel=10 note=74 velocity=118 time=0
note_on channel=10 note=74 velocity=118 time=0
note_on channel=10 note=74 velocity=118 time=0
note_on channel=10 note=62 velocity=118 time=0
note_on channel=10 note=62 velocity=118 time=0
note_on channel=10 note=62 velocity=118 time=0
note_on channel=10 note=62 velocity=118 time=0
note_on channel=10 note=62 velocity=118 time=0
note_off channel=10 note=74 velocity=118 time=64
note_off channel=10 note=74 velocity=118 time=0
note_off channel=10 note=74 velocity=118 time=0
note_off channel=10 note=74 velocity=118 time=0
note_off channel=10 note=74 velocity=118 time=0
note_off channel=10 note=62 velocity=118 time=0
note_off channel=10 note=62 velocity=118 time=0
note_off channel=10 note=62 velocity=118 time=0
note_off channel=10 note=62 velocity=118 time=0
note_off channel=10 note=62 velocity=118 time=0
note_on channel=10 note=74 velocity=118 time=32
note_on channel=10 note=74 velocity=118 time=0
note_on channel=10 note=74 velocity=118 time=0
note_on channel=10 note=74 velocity=118 time=0
note_on channel=10 note=74 velocity=118 time=0
note_on channel=10 note=62 velocity=118 time=0
note_on channel=10 note=62 velocity=118 time=0
note_on channel=10 note=62 velocity=118 time=0
note_on channel=10 note=62 velocity=118 time=0
note_on channel=10 note=62 velocity=118 time=0
note_off channel=10 note=74 velocity=118 time=64
note_off channel=10 note=74 velocity=118 time=0
note_off channel=10 note=74 velocity=118 time=0
note_off channel=10 note=74 velocity=118 time=0
note_off channel=10 note=74 velocity=118 time=0
note_off channel=10 note=62 velocity=118 time=0
note_off channel=10 note=62 velocity=118 time=0
note_off channel=10 note=62 velocity=118 time=0
note_off channel=10 note=62 velocity=118 time=0
note_off channel=10 note=62 velocity=118 time=0
note_on channel=10 note=74 velocity=118 time=32
note_on channel=10 note=74 velocity=118 time=0
note_on channel=10 note=74 velocity=118 time=0
note_on channel=10 note=74 velocity=118 time=0
note_on channel=10 note=74 velocity=118 time=0
note_on channel=10 note=62 velocity=118 time=0
note_on channel=10 note=62 velocity=118 time=0
note_on channel=10 note=62 velocity=118 time=0
note_on channel=10 note=62 velocity=118 time=0
note_on channel=10 note=62 velocity=118 time=0
note_off channel=10 note=74 velocity=118 time=64
note_off channel=10 note=74 velocity=118 time=0
note_off channel=10 note=74 velocity=118 time=0
note_off channel=10 note=74 velocity=118 time=0
note_off channel=10 note=74 velocity=118 time=0
note_off channel=10 note=62 velocity=118 time=0
note_off channel=10 note=62 velocity=118 time=0
note_off channel=10 note=62 velocity=118 time=0
note_off channel=10 note=62 velocity=118 time=0
note_off channel=10 note=62 velocity=118 time=0
note_on channel=10 note=74 velocity=118 time=32
note_on channel=10 note=74 velocity=118 time=0
note_on channel=10 note=74 velocity=118 time=0
note_on channel=10 note=74 velocity=118 time=0
note_on channel=10 note=74 velocity=118 time=0
note_on channel=10 note=62 velocity=118 time=0
note_on channel=10 note=62 velocity=118 time=0
note_on channel=10 note=62 velocity=118 time=0
note_on channel=10 note=62 velocity=118 time=0
note_on channel=10 note=62 velocity=118 time=0
note_off channel=10 note=74 velocity=118 time=128
note_off channel=10 note=74 velocity=118 time=0
note_off channel=10 note=74 velocity=118 time=0
note_off channel=10 note=74 velocity=118 time=0
note_off channel=10 note=74 velocity=118 time=0
note_off channel=10 note=62 velocity=118 time=0
note_off channel=10 note=62 velocity=118 time=0
note_off channel=10 note=62 velocity=118 time=0
note_off channel=10 note=62 velocity=118 time=0
note_off channel=10 note=62 velocity=118 time=0
note_on channel=10 note=69 velocity=118 time=64
note_on channel=10 note=69 velocity=118 time=0
note_on channel=10 note=69 velocity=118 time=0
note_on channel=10 note=69 velocity=118 time=0
note_on channel=10 note=69 velocity=118 time=0
note_on channel=10 note=57 velocity=118 time=0
note_on channel=10 note=57 velocity=118 time=0
note_on channel=10 note=57 velocity=118 time=0
note_on channel=10 note=57 velocity=118 time=0
note_on channel=10 note=57 velocity=118 time=0
note_off channel=10 note=69 velocity=118 time=64
note_off channel=10 note=69 velocity=118 time=0
note_off channel=10 note=69 velocity=118 time=0
note_off channel=10 note=69 velocity=118 time=0
note_off channel=10 note=69 velocity=118 time=0
note_off channel=10 note=57 velocity=118 time=0
note_off channel=10 note=57 velocity=118 time=0
note_off channel=10 note=57 velocity=118 time=0
note_off channel=10 note=57 velocity=118 time=0
note_off channel=10 note=57 velocity=118 time=0
note_on channel=10 note=67 velocity=118 time=32
note_on channel=10 note=67 velocity=118 time=0
note_on channel=10 note=67 velocity=118 time=0
note_on channel=10 note=67 velocity=118 time=0
note_on channel=10 note=67 velocity=118 time=0
note_on channel=10 note=55 velocity=118 time=0
note_on channel=10 note=55 velocity=118 time=0
note_on channel=10 note=55 velocity=118 time=0
note_on channel=10 note=55 velocity=118 time=0
note_on channel=10 note=55 velocity=118 time=0
note_off channel=10 note=67 velocity=118 time=64
note_off channel=10 note=67 velocity=118 time=0
note_off channel=10 note=67 velocity=118 time=0
note_off channel=10 note=67 velocity=118 time=0
note_off channel=10 note=67 velocity=118 time=0
note_off channel=10 note=55 velocity=118 time=0
note_off channel=10 note=55 velocity=118 time=0
note_off channel=10 note=55 velocity=118 time=0
note_off channel=10 note=55 velocity=118 time=0
note_off channel=10 note=55 velocity=118 time=0
note_on channel=10 note=69 velocity=118 time=32
note_on channel=10 note=69 velocity=118 time=0
note_on channel=10 note=69 velocity=118 time=0
note_on channel=10 note=69 velocity=118 time=0
note_on channel=10 note=69 velocity=118 time=0
note_on channel=10 note=57 velocity=118 time=0
note_on channel=10 note=57 velocity=118 time=0
note_on channel=10 note=57 velocity=118 time=0
note_on channel=10 note=57 velocity=118 time=0
note_on channel=10 note=57 velocity=118 time=0
note_off channel=10 note=69 velocity=118 time=64
note_off channel=10 note=69 velocity=118 time=0
note_off channel=10 note=69 velocity=118 time=0
note_off channel=10 note=69 velocity=118 time=0
note_off channel=10 note=69 velocity=118 time=0
note_off channel=10 note=57 velocity=118 time=0
note_off channel=10 note=57 velocity=118 time=0
note_off channel=10 note=57 velocity=118 time=0
note_off channel=10 note=57 velocity=118 time=0
note_off channel=10 note=57 velocity=118 time=0
note_on channel=10 note=67 velocity=118 time=32
note_on channel=10 note=67 velocity=118 time=0
note_on channel=10 note=67 velocity=118 time=0
note_on channel=10 note=67 velocity=118 time=0
note_on channel=10 note=67 velocity=118 time=0
note_on channel=10 note=55 velocity=118 time=0
note_on channel=10 note=55 velocity=118 time=0
note_on channel=10 note=55 velocity=118 time=0
note_on channel=10 note=55 velocity=118 time=0
note_on channel=10 note=55 velocity=118 time=0
note_off channel=10 note=67 velocity=118 time=64
note_off channel=10 note=67 velocity=118 time=0
note_off channel=10 note=67 velocity=118 time=0
note_off channel=10 note=67 velocity=118 time=0
note_off channel=10 note=67 velocity=118 time=0
note_off channel=10 note=55 velocity=118 time=0
note_off channel=10 note=55 velocity=118 time=0
note_off channel=10 note=55 velocity=118 time=0
note_off channel=10 note=55 velocity=118 time=0
note_off channel=10 note=55 velocity=118 time=0
note_on channel=10 note=71 velocity=118 time=32
note_on channel=10 note=71 velocity=118 time=0
note_on channel=10 note=71 velocity=118 time=0
note_on channel=10 note=71 velocity=118 time=0
note_on channel=10 note=71 velocity=118 time=0
note_on channel=10 note=59 velocity=118 time=0
note_on channel=10 note=59 velocity=118 time=0
note_on channel=10 note=59 velocity=118 time=0
note_on channel=10 note=59 velocity=118 time=0
note_on channel=10 note=59 velocity=118 time=0
note_off channel=10 note=71 velocity=118 time=128
note_off channel=10 note=71 velocity=118 time=0
note_off channel=10 note=71 velocity=118 time=0
note_off channel=10 note=71 velocity=118 time=0
note_off channel=10 note=71 velocity=118 time=0
note_off channel=10 note=59 velocity=118 time=0
note_off channel=10 note=59 velocity=118 time=0
note_off channel=10 note=59 velocity=118 time=0
note_off channel=10 note=59 velocity=118 time=0
note_off channel=10 note=59 velocity=118 time=0
note_on channel=10 note=67 velocity=118 time=64
note_on channel=10 note=67 velocity=118 time=0
note_on channel=10 note=67 velocity=118 time=0
note_on channel=10 note=67 velocity=118 time=0
note_on channel=10 note=67 velocity=118 time=0
note_on channel=10 note=55 velocity=118 time=0
note_on channel=10 note=55 velocity=118 time=0
note_on channel=10 note=55 velocity=118 time=0
note_on channel=10 note=55 velocity=118 time=0
note_on channel=10 note=55 velocity=118 time=0
note_on channel=10 note=64 velocity=118 time=96
note_on channel=10 note=64 velocity=118 time=0
note_on channel=10 note=64 velocity=118 time=0
note_on channel=10 note=64 velocity=118 time=0
note_on channel=10 note=64 velocity=118 time=0
note_on channel=10 note=52 velocity=118 time=0
note_on channel=10 note=52 velocity=118 time=0
note_on channel=10 note=52 velocity=118 time=0
note_on channel=10 note=52 velocity=118 time=0
note_on channel=10 note=52 velocity=118 time=0
note_off channel=10 note=67 velocity=118 time=160
note_off channel=10 note=67 velocity=118 time=0
note_off channel=10 note=67 velocity=118 time=0
note_off channel=10 note=67 velocity=118 time=0
note_off channel=10 note=67 velocity=118 time=0
note_off channel=10 note=55 velocity=118 time=0
note_off channel=10 note=55 velocity=118 time=0
note_off channel=10 note=55 velocity=118 time=0
note_off channel=10 note=55 velocity=118 time=0
note_off channel=10 note=55 velocity=118 time=0
note_off channel=10 note=64 velocity=118 time=32
note_off channel=10 note=64 velocity=118 time=0
note_off channel=10 note=64 velocity=118 time=0
note_off channel=10 note=64 velocity=118 time=0
note_off channel=10 note=64 velocity=118 time=0
note_off channel=10 note=52 velocity=118 time=0
note_off channel=10 note=52 velocity=118 time=0
note_off channel=10 note=52 velocity=118 time=0
note_off channel=10 note=52 velocity=118 time=0
note_off channel=10 note=52 velocity=118 time=0
note_on channel=10 note=71 velocity=118 time=192
note_on channel=10 note=71 velocity=118 time=0
note_on channel=10 note=71 velocity=118 time=0
note_on channel=10 note=71 velocity=118 time=0
note_on channel=10 note=71 velocity=118 time=0
note_on channel=10 note=59 velocity=118 time=0
note_on channel=10 note=59 velocity=118 time=0
note_on channel=10 note=59 velocity=118 time=0
note_on channel=10 note=59 velocity=118 time=0
note_on channel=10 note=59 velocity=118 time=0
note_off channel=10 note=71 velocity=118 time=64
note_off channel=10 note=71 velocity=118 time=0
note_off channel=10 note=71 velocity=118 time=0
note_off channel=10 note=71 velocity=118 time=0
note_off channel=10 note=71 velocity=118 time=0
note_off channel=10 note=59 velocity=118 time=0
note_off channel=10 note=59 velocity=118 time=0
note_off channel=10 note=59 velocity=118 time=0
note_off channel=10 note=59 velocity=118 time=0
note_off channel=10 note=59 velocity=118 time=0
note_on channel=10 note=71 velocity=118 time=32
note_on channel=10 note=71 velocity=118 time=0
note_on channel=10 note=71 velocity=118 time=0
note_on channel=10 note=71 velocity=118 time=0
note_on channel=10 note=71 velocity=118 time=0
note_on channel=10 note=59 velocity=118 time=0
note_on channel=10 note=59 velocity=118 time=0
note_on channel=10 note=59 velocity=118 time=0
note_on channel=10 note=59 velocity=118 time=0
note_on channel=10 note=59 velocity=118 time=0
note_off channel=10 note=71 velocity=118 time=64
note_off channel=10 note=71 velocity=118 time=0
note_off channel=10 note=71 velocity=118 time=0
note_off channel=10 note=71 velocity=118 time=0
note_off channel=10 note=71 velocity=118 time=0
note_off channel=10 note=59 velocity=118 time=0
note_off channel=10 note=59 velocity=118 time=0
note_off channel=10 note=59 velocity=118 time=0
note_off channel=10 note=59 velocity=118 time=0
note_off channel=10 note=59 velocity=118 time=0
note_on channel=10 note=71 velocity=118 time=32
note_on channel=10 note=71 velocity=118 time=0
note_on channel=10 note=71 velocity=118 time=0
note_on channel=10 note=71 velocity=118 time=0
note_on channel=10 note=71 velocity=118 time=0
note_on channel=10 note=59 velocity=118 time=0
note_on channel=10 note=59 velocity=118 time=0
note_on channel=10 note=59 velocity=118 time=0
note_on channel=10 note=59 velocity=118 time=0
note_on channel=10 note=59 velocity=118 time=0
note_off channel=10 note=71 velocity=118 time=64
note_off channel=10 note=71 velocity=118 time=0
note_off channel=10 note=71 velocity=118 time=0
note_off channel=10 note=71 velocity=118 time=0
note_off channel=10 note=71 velocity=118 time=0
note_off channel=10 note=59 velocity=118 time=0
note_off channel=10 note=59 velocity=118 time=0
note_off channel=10 note=59 velocity=118 time=0
note_off channel=10 note=59 velocity=118 time=0
note_off channel=10 note=59 velocity=118 time=0
note_on channel=10 note=69 velocity=118 time=32
note_on channel=10 note=69 velocity=118 time=0
note_on channel=10 note=69 velocity=118 time=0
note_on channel=10 note=69 velocity=118 time=0
note_on channel=10 note=69 velocity=118 time=0
note_on channel=10 note=57 velocity=118 time=0
note_on channel=10 note=57 velocity=118 time=0
note_on channel=10 note=57 velocity=118 time=0
note_on channel=10 note=57 velocity=118 time=0
note_on channel=10 note=57 velocity=118 time=0
note_off channel=10 note=69 velocity=118 time=128
note_off channel=10 note=69 velocity=118 time=0
note_off channel=10 note=69 velocity=118 time=0
note_off channel=10 note=69 velocity=118 time=0
note_off channel=10 note=69 velocity=118 time=0
note_off channel=10 note=57 velocity=118 time=0
note_off channel=10 note=57 velocity=118 time=0
note_off channel=10 note=57 velocity=118 time=0
note_off channel=10 note=57 velocity=118 time=0
note_off channel=10 note=57 velocity=118 time=0
note_on channel=10 note=71 velocity=118 time=64
note_on channel=10 note=71 velocity=118 time=0
note_on channel=10 note=71 velocity=118 time=0
note_on channel=10 note=71 velocity=118 time=0
note_on channel=10 note=71 velocity=118 time=0
note_on channel=10 note=59 velocity=118 time=0
note_on channel=10 note=59 velocity=118 time=0
note_on channel=10 note=59 velocity=118 time=0
note_on channel=10 note=59 velocity=118 time=0
note_on channel=10 note=59 velocity=118 time=0
note_off channel=10 note=71 velocity=118 time=64
note_off channel=10 note=71 velocity=118 time=0
note_off channel=10 note=71 velocity=118 time=0
note_off channel=10 note=71 velocity=118 time=0
note_off channel=10 note=71 velocity=118 time=0
note_off channel=10 note=59 velocity=118 time=0
note_off channel=10 note=59 velocity=118 time=0
note_off channel=10 note=59 velocity=118 time=0
note_off channel=10 note=59 velocity=118 time=0
note_off channel=10 note=59 velocity=118 time=0
note_on channel=10 note=71 velocity=118 time=32
note_on channel=10 note=71 velocity=118 time=0
note_on channel=10 note=71 velocity=118 time=0
note_on channel=10 note=71 velocity=118 time=0
note_on channel=10 note=71 velocity=118 time=0
note_on channel=10 note=59 velocity=118 time=0
note_on channel=10 note=59 velocity=118 time=0
note_on channel=10 note=59 velocity=118 time=0
note_on channel=10 note=59 velocity=118 time=0
note_on channel=10 note=59 velocity=118 time=0
note_off channel=10 note=71 velocity=118 time=64
note_off channel=10 note=71 velocity=118 time=0
note_off channel=10 note=71 velocity=118 time=0
note_off channel=10 note=71 velocity=118 time=0
note_off channel=10 note=71 velocity=118 time=0
note_off channel=10 note=59 velocity=118 time=0
note_off channel=10 note=59 velocity=118 time=0
note_off channel=10 note=59 velocity=118 time=0
note_off channel=10 note=59 velocity=118 time=0
note_off channel=10 note=59 velocity=118 time=0
note_on channel=10 note=74 velocity=118 time=32
note_on channel=10 note=74 velocity=118 time=0
note_on channel=10 note=74 velocity=118 time=0
note_on channel=10 note=74 velocity=118 time=0
note_on channel=10 note=74 velocity=118 time=0
note_on channel=10 note=62 velocity=118 time=0
note_on channel=10 note=62 velocity=118 time=0
note_on channel=10 note=62 velocity=118 time=0
note_on channel=10 note=62 velocity=118 time=0
note_on channel=10 note=62 velocity=118 time=0
note_off channel=10 note=74 velocity=118 time=64
note_off channel=10 note=74 velocity=118 time=0
note_off channel=10 note=74 velocity=118 time=0
note_off channel=10 note=74 velocity=118 time=0
note_off channel=10 note=74 velocity=118 time=0
note_off channel=10 note=62 velocity=118 time=0
note_off channel=10 note=62 velocity=118 time=0
note_off channel=10 note=62 velocity=118 time=0
note_off channel=10 note=62 velocity=118 time=0
note_off channel=10 note=62 velocity=118 time=0
note_on channel=10 note=74 velocity=118 time=32
note_on channel=10 note=74 velocity=118 time=0
note_on channel=10 note=74 velocity=118 time=0
note_on channel=10 note=74 velocity=118 time=0
note_on channel=10 note=74 velocity=118 time=0
note_on channel=10 note=62 velocity=118 time=0
note_on channel=10 note=62 velocity=118 time=0
note_on channel=10 note=62 velocity=118 time=0
note_on channel=10 note=62 velocity=118 time=0
note_on channel=10 note=62 velocity=118 time=0
note_off channel=10 note=74 velocity=118 time=64
note_off channel=10 note=74 velocity=118 time=0
note_off channel=10 note=74 velocity=118 time=0
note_off channel=10 note=74 velocity=118 time=0
note_off channel=10 note=74 velocity=118 time=0
note_off channel=10 note=62 velocity=118 time=0
note_off channel=10 note=62 velocity=118 time=0
note_off channel=10 note=62 velocity=118 time=0
note_off channel=10 note=62 velocity=118 time=0
note_off channel=10 note=62 velocity=118 time=0
note_on channel=10 note=74 velocity=118 time=32
note_on channel=10 note=74 velocity=118 time=0
note_on channel=10 note=74 velocity=118 time=0
note_on channel=10 note=74 velocity=118 time=0
note_on channel=10 note=74 velocity=118 time=0
note_on channel=10 note=62 velocity=118 time=0
note_on channel=10 note=62 velocity=118 time=0
note_on channel=10 note=62 velocity=118 time=0
note_on channel=10 note=62 velocity=118 time=0
note_on channel=10 note=62 velocity=118 time=0
note_off channel=10 note=74 velocity=118 time=128
note_off channel=10 note=74 velocity=118 time=0
note_off channel=10 note=74 velocity=118 time=0
note_off channel=10 note=74 velocity=118 time=0
note_off channel=10 note=74 velocity=118 time=0
note_off channel=10 note=62 velocity=118 time=0
note_off channel=10 note=62 velocity=118 time=0
note_off channel=10 note=62 velocity=118 time=0
note_off channel=10 note=62 velocity=118 time=0
note_off channel=10 note=62 velocity=118 time=0
note_on channel=10 note=76 velocity=118 time=160
note_on channel=10 note=76 velocity=118 time=0
note_on channel=10 note=76 velocity=118 time=0
note_on channel=10 note=76 velocity=118 time=0
note_on channel=10 note=76 velocity=118 time=0
note_on channel=10 note=64 velocity=118 time=0
note_on channel=10 note=64 velocity=118 time=0
note_on channel=10 note=64 velocity=118 time=0
note_on channel=10 note=64 velocity=118 time=0
note_on channel=10 note=64 velocity=118 time=0
note_off channel=10 note=76 velocity=118 time=64
note_off channel=10 note=76 velocity=118 time=0
note_off channel=10 note=76 velocity=118 time=0
note_off channel=10 note=76 velocity=118 time=0
note_off channel=10 note=76 velocity=118 time=0
note_off channel=10 note=64 velocity=118 time=0
note_off channel=10 note=64 velocity=118 time=0
note_off channel=10 note=64 velocity=118 time=0
note_off channel=10 note=64 velocity=118 time=0
note_off channel=10 note=64 velocity=118 time=0
note_on channel=10 note=76 velocity=118 time=32
note_on channel=10 note=76 velocity=118 time=0
note_on channel=10 note=76 velocity=118 time=0
note_on channel=10 note=76 velocity=118 time=0
note_on channel=10 note=76 velocity=118 time=0
note_on channel=10 note=64 velocity=118 time=0
note_on channel=10 note=64 velocity=118 time=0
note_on channel=10 note=64 velocity=118 time=0
note_on channel=10 note=64 velocity=118 time=0
note_on channel=10 note=64 velocity=118 time=0
note_off channel=10 note=76 velocity=118 time=128
note_off channel=10 note=76 velocity=118 time=0
note_off channel=10 note=76 velocity=118 time=0
note_off channel=10 note=76 velocity=118 time=0
note_off channel=10 note=76 velocity=118 time=0
note_off channel=10 note=64 velocity=118 time=0
note_off channel=10 note=64 velocity=118 time=0
note_off channel=10 note=64 velocity=118 time=0
note_off channel=10 note=64 velocity=118 time=0
note_off channel=10 note=64 velocity=118 time=0
note_on channel=10 note=76 velocity=118 time=256
note_on channel=10 note=76 velocity=118 time=0
note_on channel=10 note=76 velocity=118 time=0
note_on channel=10 note=76 velocity=118 time=0
note_on channel=10 note=76 velocity=118 time=0
note_on channel=10 note=64 velocity=118 time=0
note_on channel=10 note=64 velocity=118 time=0
note_on channel=10 note=64 velocity=118 time=0
note_on channel=10 note=64 velocity=118 time=0
note_on channel=10 note=64 velocity=118 time=0
note_off channel=10 note=76 velocity=118 time=128
note_off channel=10 note=76 velocity=118 time=0
note_off channel=10 note=76 velocity=118 time=0
note_off channel=10 note=76 velocity=118 time=0
note_off channel=10 note=76 velocity=118 time=0
note_off channel=10 note=64 velocity=118 time=0
note_off channel=10 note=64 velocity=118 time=0
note_off channel=10 note=64 velocity=118 time=0
note_off channel=10 note=64 velocity=118 time=0
note_off channel=10 note=64 velocity=118 time=0
note_on channel=10 note=76 velocity=118 time=64
note_on channel=10 note=76 velocity=118 time=0
note_on channel=10 note=76 velocity=118 time=0
note_on channel=10 note=76 velocity=118 time=0
note_on channel=10 note=76 velocity=118 time=0
note_on channel=10 note=64 velocity=118 time=0
note_on channel=10 note=64 velocity=118 time=0
note_on channel=10 note=64 velocity=118 time=0
note_on channel=10 note=64 velocity=118 time=0
note_on channel=10 note=64 velocity=118 time=0
note_off channel=10 note=76 velocity=118 time=256
note_off channel=10 note=76 velocity=118 time=0
note_off channel=10 note=76 velocity=118 time=0
note_off channel=10 note=76 velocity=118 time=0
note_off channel=10 note=76 velocity=118 time=0
note_off channel=10 note=64 velocity=118 time=0
note_off channel=10 note=64 velocity=118 time=0
note_off channel=10 note=64 velocity=118 time=0
note_off channel=10 note=64 velocity=118 time=0
note_off channel=10 note=64 velocity=118 time=0
note_on channel=10 note=74 velocity=118 time=320
note_on channel=10 note=74 velocity=118 time=0
note_on channel=10 note=74 velocity=118 time=0
note_on channel=10 note=74 velocity=118 time=0
note_on channel=10 note=74 velocity=118 time=0
note_on channel=10 note=62 velocity=118 time=0
note_on channel=10 note=62 velocity=118 time=0
note_on channel=10 note=62 velocity=118 time=0
note_on channel=10 note=62 velocity=118 time=0
note_on channel=10 note=62 velocity=118 time=0
note_off channel=10 note=74 velocity=118 time=128
note_off channel=10 note=74 velocity=118 time=0
note_off channel=10 note=74 velocity=118 time=0
note_off channel=10 note=74 velocity=118 time=0
note_off channel=10 note=74 velocity=118 time=0
note_off channel=10 note=62 velocity=118 time=0
note_off channel=10 note=62 velocity=118 time=0
note_off channel=10 note=62 velocity=118 time=0
note_off channel=10 note=62 velocity=118 time=0
note_off channel=10 note=62 velocity=118 time=0
note_on channel=10 note=76 velocity=118 time=64
note_on channel=10 note=76 velocity=118 time=0
note_on channel=10 note=76 velocity=118 time=0
note_on channel=10 note=76 velocity=118 time=0
note_on channel=10 note=76 velocity=118 time=0
note_on channel=10 note=64 velocity=118 time=0
note_on channel=10 note=64 velocity=118 time=0
note_on channel=10 note=64 velocity=118 time=0
note_on channel=10 note=64 velocity=118 time=0
note_on channel=10 note=64 velocity=118 time=0
note_off channel=10 note=76 velocity=118 time=128
note_off channel=10 note=76 velocity=118 time=0
note_off channel=10 note=76 velocity=118 time=0
note_off channel=10 note=76 velocity=118 time=0
note_off channel=10 note=76 velocity=118 time=0
note_off channel=10 note=64 velocity=118 time=0
note_off channel=10 note=64 velocity=118 time=0
note_off channel=10 note=64 velocity=118 time=0
note_off channel=10 note=64 velocity=118 time=0
note_off channel=10 note=64 velocity=118 time=0
note_on channel=10 note=71 velocity=118 time=64
note_on channel=10 note=71 velocity=118 time=0
note_on channel=10 note=71 velocity=118 time=0
note_on channel=10 note=71 velocity=118 time=0
note_on channel=10 note=71 velocity=118 time=0
note_on channel=10 note=59 velocity=118 time=0
note_on channel=10 note=59 velocity=118 time=0
note_on channel=10 note=59 velocity=118 time=0
note_on channel=10 note=59 velocity=118 time=0
note_on channel=10 note=59 velocity=118 time=0
note_off channel=10 note=71 velocity=118 time=128
note_off channel=10 note=71 velocity=118 time=0
note_off channel=10 note=71 velocity=118 time=0
note_off channel=10 note=71 velocity=118 time=0
note_off channel=10 note=71 velocity=118 time=0
note_off channel=10 note=59 velocity=118 time=0
note_off channel=10 note=59 velocity=118 time=0
note_off channel=10 note=59 velocity=118 time=0
note_off channel=10 note=59 velocity=118 time=0
note_off channel=10 note=59 velocity=118 time=0
note_on channel=10 note=71 velocity=118 time=64
note_on channel=10 note=71 velocity=118 time=0
note_on channel=10 note=71 velocity=118 time=0
note_on channel=10 note=71 velocity=118 time=0
note_on channel=10 note=71 velocity=118 time=0
note_on channel=10 note=59 velocity=118 time=0
note_on channel=10 note=59 velocity=118 time=0
note_on channel=10 note=59 velocity=118 time=0
note_on channel=10 note=59 velocity=118 time=0
note_on channel=10 note=59 velocity=118 time=0
note_off channel=10 note=71 velocity=118 time=64
note_off channel=10 note=71 velocity=118 time=0
note_off channel=10 note=71 velocity=118 time=0
note_off channel=10 note=71 velocity=118 time=0
note_off channel=10 note=71 velocity=118 time=0
note_off channel=10 note=59 velocity=118 time=0
note_off channel=10 note=59 velocity=118 time=0
note_off channel=10 note=59 velocity=118 time=0
note_off channel=10 note=59 velocity=118 time=0
note_off channel=10 note=59 velocity=118 time=0
note_on channel=10 note=71 velocity=118 time=32
note_on channel=10 note=71 velocity=118 time=0
note_on channel=10 note=71 velocity=118 time=0
note_on channel=10 note=71 velocity=118 time=0
note_on channel=10 note=71 velocity=118 time=0
note_on channel=10 note=59 velocity=118 time=0
note_on channel=10 note=59 velocity=118 time=0
note_on channel=10 note=59 velocity=118 time=0
note_on channel=10 note=59 velocity=118 time=0
note_on channel=10 note=59 velocity=118 time=0
note_off channel=10 note=71 velocity=118 time=64
note_off channel=10 note=71 velocity=118 time=0
note_off channel=10 note=71 velocity=118 time=0
note_off channel=10 note=71 velocity=118 time=0
note_off channel=10 note=71 velocity=118 time=0
note_off channel=10 note=59 velocity=118 time=0
note_off channel=10 note=59 velocity=118 time=0
note_off channel=10 note=59 velocity=118 time=0
note_off channel=10 note=59 velocity=118 time=0
note_off channel=10 note=59 velocity=118 time=0
note_on channel=10 note=71 velocity=118 time=32
note_on channel=10 note=71 velocity=118 time=0
note_on channel=10 note=71 velocity=118 time=0
note_on channel=10 note=71 velocity=118 time=0
note_on channel=10 note=71 velocity=118 time=0
note_on channel=10 note=59 velocity=118 time=0
note_on channel=10 note=59 velocity=118 time=0
note_on channel=10 note=59 velocity=118 time=0
note_on channel=10 note=59 velocity=118 time=0
note_on channel=10 note=59 velocity=118 time=0
note_off channel=10 note=71 velocity=118 time=64
note_off channel=10 note=71 velocity=118 time=0
note_off channel=10 note=71 velocity=118 time=0
note_off channel=10 note=71 velocity=118 time=0
note_off channel=10 note=71 velocity=118 time=0
note_off channel=10 note=59 velocity=118 time=0
note_off channel=10 note=59 velocity=118 time=0
note_off channel=10 note=59 velocity=118 time=0
note_off channel=10 note=59 velocity=118 time=0
note_off channel=10 note=59 velocity=118 time=0
note_on channel=10 note=71 velocity=118 time=32
note_on channel=10 note=71 velocity=118 time=0
note_on channel=10 note=71 velocity=118 time=0
note_on channel=10 note=71 velocity=118 time=0
note_on channel=10 note=71 velocity=118 time=0
note_on channel=10 note=59 velocity=118 time=0
note_on channel=10 note=59 velocity=118 time=0
note_on channel=10 note=59 velocity=118 time=0
note_on channel=10 note=59 velocity=118 time=0
note_on channel=10 note=59 velocity=118 time=0
note_off channel=10 note=71 velocity=118 time=64
note_off channel=10 note=71 velocity=118 time=0
note_off channel=10 note=71 velocity=118 time=0
note_off channel=10 note=71 velocity=118 time=0
note_off channel=10 note=71 velocity=118 time=0
note_off channel=10 note=59 velocity=118 time=0
note_off channel=10 note=59 velocity=118 time=0
note_off channel=10 note=59 velocity=118 time=0
note_off channel=10 note=59 velocity=118 time=0
note_off channel=10 note=59 velocity=118 time=0
note_on channel=10 note=71 velocity=118 time=32
note_on channel=10 note=71 velocity=118 time=0
note_on channel=10 note=71 velocity=118 time=0
note_on channel=10 note=71 velocity=118 time=0
note_on channel=10 note=71 velocity=118 time=0
note_on channel=10 note=59 velocity=118 time=0
note_on channel=10 note=59 velocity=118 time=0
note_on channel=10 note=59 velocity=118 time=0
note_on channel=10 note=59 velocity=118 time=0
note_on channel=10 note=59 velocity=118 time=0
note_off channel=10 note=71 velocity=118 time=64
note_off channel=10 note=71 velocity=118 time=0
note_off channel=10 note=71 velocity=118 time=0
note_off channel=10 note=71 velocity=118 time=0
note_off channel=10 note=71 velocity=118 time=0
note_off channel=10 note=59 velocity=118 time=0
note_off channel=10 note=59 velocity=118 time=0
note_off channel=10 note=59 velocity=118 time=0
note_off channel=10 note=59 velocity=118 time=0
note_off channel=10 note=59 velocity=118 time=0
note_on channel=10 note=71 velocity=118 time=32
note_on channel=10 note=71 velocity=118 time=0
note_on channel=10 note=71 velocity=118 time=0
note_on channel=10 note=71 velocity=118 time=0
note_on channel=10 note=71 velocity=118 time=0
note_on channel=10 note=59 velocity=118 time=0
note_on channel=10 note=59 velocity=118 time=0
note_on channel=10 note=59 velocity=118 time=0
note_on channel=10 note=59 velocity=118 time=0
note_on channel=10 note=59 velocity=118 time=0
note_off channel=10 note=71 velocity=118 time=64
note_off channel=10 note=71 velocity=118 time=0
note_off channel=10 note=71 velocity=118 time=0
note_off channel=10 note=71 velocity=118 time=0
note_off channel=10 note=71 velocity=118 time=0
note_off channel=10 note=59 velocity=118 time=0
note_off channel=10 note=59 velocity=118 time=0
note_off channel=10 note=59 velocity=118 time=0
note_off channel=10 note=59 velocity=118 time=0
note_off channel=10 note=59 velocity=118 time=0
note_on channel=10 note=71 velocity=118 time=32
note_on channel=10 note=71 velocity=118 time=0
note_on channel=10 note=71 velocity=118 time=0
note_on channel=10 note=71 velocity=118 time=0
note_on channel=10 note=71 velocity=118 time=0
note_on channel=10 note=59 velocity=118 time=0
note_on channel=10 note=59 velocity=118 time=0
note_on channel=10 note=59 velocity=118 time=0
note_on channel=10 note=59 velocity=118 time=0
note_on channel=10 note=59 velocity=118 time=0
note_off channel=10 note=71 velocity=118 time=64
note_off channel=10 note=71 velocity=118 time=0
note_off channel=10 note=71 velocity=118 time=0
note_off channel=10 note=71 velocity=118 time=0
note_off channel=10 note=71 velocity=118 time=0
note_off channel=10 note=59 velocity=118 time=0
note_off channel=10 note=59 velocity=118 time=0
note_off channel=10 note=59 velocity=118 time=0
note_off channel=10 note=59 velocity=118 time=0
note_off channel=10 note=59 velocity=118 time=0
note_on channel=10 note=71 velocity=118 time=32
note_on channel=10 note=71 velocity=118 time=0
note_on channel=10 note=71 velocity=118 time=0
note_on channel=10 note=71 velocity=118 time=0
note_on channel=10 note=71 velocity=118 time=0
note_on channel=10 note=59 velocity=118 time=0
note_on channel=10 note=59 velocity=118 time=0
note_on channel=10 note=59 velocity=118 time=0
note_on channel=10 note=59 velocity=118 time=0
note_on channel=10 note=59 velocity=118 time=0
note_off channel=10 note=71 velocity=118 time=64
note_off channel=10 note=71 velocity=118 time=0
note_off channel=10 note=71 velocity=118 time=0
note_off channel=10 note=71 velocity=118 time=0
note_off channel=10 note=71 velocity=118 time=0
note_off channel=10 note=59 velocity=118 time=0
note_off channel=10 note=59 velocity=118 time=0
note_off channel=10 note=59 velocity=118 time=0
note_off channel=10 note=59 velocity=118 time=0
note_off channel=10 note=59 velocity=118 time=0
note_on channel=10 note=74 velocity=118 time=32
note_on channel=10 note=74 velocity=118 time=0
note_on channel=10 note=74 velocity=118 time=0
note_on channel=10 note=74 velocity=118 time=0
note_on channel=10 note=74 velocity=118 time=0
note_on channel=10 note=62 velocity=118 time=0
note_on channel=10 note=62 velocity=118 time=0
note_on channel=10 note=62 velocity=118 time=0
note_on channel=10 note=62 velocity=118 time=0
note_on channel=10 note=62 velocity=118 time=0
note_off channel=10 note=74 velocity=118 time=64
note_off channel=10 note=74 velocity=118 time=0
note_off channel=10 note=74 velocity=118 time=0
note_off channel=10 note=74 velocity=118 time=0
note_off channel=10 note=74 velocity=118 time=0
note_off channel=10 note=62 velocity=118 time=0
note_off channel=10 note=62 velocity=118 time=0
note_off channel=10 note=62 velocity=118 time=0
note_off channel=10 note=62 velocity=118 time=0
note_off channel=10 note=62 velocity=118 time=0
note_on channel=10 note=74 velocity=118 time=32
note_on channel=10 note=74 velocity=118 time=0
note_on channel=10 note=74 velocity=118 time=0
note_on channel=10 note=74 velocity=118 time=0
note_on channel=10 note=74 velocity=118 time=0
note_on channel=10 note=62 velocity=118 time=0
note_on channel=10 note=62 velocity=118 time=0
note_on channel=10 note=62 velocity=118 time=0
note_on channel=10 note=62 velocity=118 time=0
note_on channel=10 note=62 velocity=118 time=0
note_off channel=10 note=74 velocity=118 time=64
note_off channel=10 note=74 velocity=118 time=0
note_off channel=10 note=74 velocity=118 time=0
note_off channel=10 note=74 velocity=118 time=0
note_off channel=10 note=74 velocity=118 time=0
note_off channel=10 note=62 velocity=118 time=0
note_off channel=10 note=62 velocity=118 time=0
note_off channel=10 note=62 velocity=118 time=0
note_off channel=10 note=62 velocity=118 time=0
note_off channel=10 note=62 velocity=118 time=0
note_on channel=10 note=71 velocity=118 time=32
note_on channel=10 note=71 velocity=118 time=0
note_on channel=10 note=71 velocity=118 time=0
note_on channel=10 note=71 velocity=118 time=0
note_on channel=10 note=71 velocity=118 time=0
note_on channel=10 note=59 velocity=118 time=0
note_on channel=10 note=59 velocity=118 time=0
note_on channel=10 note=59 velocity=118 time=0
note_on channel=10 note=59 velocity=118 time=0
note_on channel=10 note=59 velocity=118 time=0
note_off channel=10 note=71 velocity=118 time=128
note_off channel=10 note=71 velocity=118 time=0
note_off channel=10 note=71 velocity=118 time=0
note_off channel=10 note=71 velocity=118 time=0
note_off channel=10 note=71 velocity=118 time=0
note_off channel=10 note=59 velocity=118 time=0
note_off channel=10 note=59 velocity=118 time=0
note_off channel=10 note=59 velocity=118 time=0
note_off channel=10 note=59 velocity=118 time=0
note_off channel=10 note=59 velocity=118 time=0
note_on channel=10 note=71 velocity=118 time=160
note_on channel=10 note=71 velocity=118 time=0
note_on channel=10 note=71 velocity=118 time=0
note_on channel=10 note=71 velocity=118 time=0
note_on channel=10 note=71 velocity=118 time=0
note_on channel=10 note=59 velocity=118 time=0
note_on channel=10 note=59 velocity=118 time=0
note_on channel=10 note=59 velocity=118 time=0
note_on channel=10 note=59 velocity=118 time=0
note_on channel=10 note=59 velocity=118 time=0
note_off channel=10 note=71 velocity=118 time=64
note_off channel=10 note=71 velocity=118 time=0
note_off channel=10 note=71 velocity=118 time=0
note_off channel=10 note=71 velocity=118 time=0
note_off channel=10 note=71 velocity=118 time=0
note_off channel=10 note=59 velocity=118 time=0
note_off channel=10 note=59 velocity=118 time=0
note_off channel=10 note=59 velocity=118 time=0
note_off channel=10 note=59 velocity=118 time=0
note_off channel=10 note=59 velocity=118 time=0
note_on channel=10 note=74 velocity=118 time=32
note_on channel=10 note=74 velocity=118 time=0
note_on channel=10 note=74 velocity=118 time=0
note_on channel=10 note=74 velocity=118 time=0
note_on channel=10 note=74 velocity=118 time=0
note_on channel=10 note=62 velocity=118 time=0
note_on channel=10 note=62 velocity=118 time=0
note_on channel=10 note=62 velocity=118 time=0
note_on channel=10 note=62 velocity=118 time=0
note_on channel=10 note=62 velocity=118 time=0
note_off channel=10 note=74 velocity=118 time=128
note_off channel=10 note=74 velocity=118 time=0
note_off channel=10 note=74 velocity=118 time=0
note_off channel=10 note=74 velocity=118 time=0
note_off channel=10 note=74 velocity=118 time=0
note_off channel=10 note=62 velocity=118 time=0
note_off channel=10 note=62 velocity=118 time=0
note_off channel=10 note=62 velocity=118 time=0
note_off channel=10 note=62 velocity=118 time=0
note_off channel=10 note=62 velocity=118 time=0
note_on channel=10 note=71 velocity=118 time=64
note_on channel=10 note=71 velocity=118 time=0
note_on channel=10 note=71 velocity=118 time=0
note_on channel=10 note=71 velocity=118 time=0
note_on channel=10 note=71 velocity=118 time=0
note_on channel=10 note=59 velocity=118 time=0
note_on channel=10 note=59 velocity=118 time=0
note_on channel=10 note=59 velocity=118 time=0
note_on channel=10 note=59 velocity=118 time=0
note_on channel=10 note=59 velocity=118 time=0
note_off channel=10 note=71 velocity=118 time=256
note_off channel=10 note=71 velocity=118 time=0
note_off channel=10 note=71 velocity=118 time=0
note_off channel=10 note=71 velocity=118 time=0
note_off channel=10 note=71 velocity=118 time=0
note_off channel=10 note=59 velocity=118 time=0
note_off channel=10 note=59 velocity=118 time=0
note_off channel=10 note=59 velocity=118 time=0
note_off channel=10 note=59 velocity=118 time=0
note_off channel=10 note=59 velocity=118 time=0
note_on channel=10 note=71 velocity=118 time=896
note_on channel=10 note=71 velocity=118 time=0
note_on channel=10 note=71 velocity=118 time=0
note_on channel=10 note=71 velocity=118 time=0
note_on channel=10 note=71 velocity=118 time=0
note_on channel=10 note=59 velocity=118 time=0
note_on channel=10 note=59 velocity=118 time=0
note_on channel=10 note=59 velocity=118 time=0
note_on channel=10 note=59 velocity=118 time=0
note_on channel=10 note=59 velocity=118 time=0
note_off channel=10 note=71 velocity=118 time=64
note_off channel=10 note=71 velocity=118 time=0
note_off channel=10 note=71 velocity=118 time=0
note_off channel=10 note=71 velocity=118 time=0
note_off channel=10 note=71 velocity=118 time=0
note_off channel=10 note=59 velocity=118 time=0
note_off channel=10 note=59 velocity=118 time=0
note_off channel=10 note=59 velocity=118 time=0
note_off channel=10 note=59 velocity=118 time=0
note_off channel=10 note=59 velocity=118 time=0
note_on channel=10 note=71 velocity=118 time=32
note_on channel=10 note=71 velocity=118 time=0
note_on channel=10 note=71 velocity=118 time=0
note_on channel=10 note=71 velocity=118 time=0
note_on channel=10 note=71 velocity=118 time=0
note_on channel=10 note=59 velocity=118 time=0
note_on channel=10 note=59 velocity=118 time=0
note_on channel=10 note=59 velocity=118 time=0
note_on channel=10 note=59 velocity=118 time=0
note_on channel=10 note=59 velocity=118 time=0
note_off channel=10 note=71 velocity=118 time=192
note_off channel=10 note=71 velocity=118 time=0
note_off channel=10 note=71 velocity=118 time=0
note_off channel=10 note=71 velocity=118 time=0
note_off channel=10 note=71 velocity=118 time=0
note_off channel=10 note=59 velocity=118 time=0
note_off channel=10 note=59 velocity=118 time=0
note_off channel=10 note=59 velocity=118 time=0
note_off channel=10 note=59 velocity=118 time=0
note_off channel=10 note=59 velocity=118 time=0
note_on channel=10 note=74 velocity=118 time=96
note_on channel=10 note=74 velocity=118 time=0
note_on channel=10 note=74 velocity=118 time=0
note_on channel=10 note=74 velocity=118 time=0
note_on channel=10 note=74 velocity=118 time=0
note_on channel=10 note=62 velocity=118 time=0
note_on channel=10 note=62 velocity=118 time=0
note_on channel=10 note=62 velocity=118 time=0
note_on channel=10 note=62 velocity=118 time=0
note_on channel=10 note=62 velocity=118 time=0
note_on channel=10 note=71 velocity=118 time=96
note_on channel=10 note=71 velocity=118 time=0
note_on channel=10 note=71 velocity=118 time=0
note_on channel=10 note=71 velocity=118 time=0
note_on channel=10 note=71 velocity=118 time=0
note_on channel=10 note=59 velocity=118 time=0
note_on channel=10 note=59 velocity=118 time=0
note_on channel=10 note=59 velocity=118 time=0
note_on channel=10 note=59 velocity=118 time=0
note_on channel=10 note=59 velocity=118 time=0
note_off channel=10 note=74 velocity=118 time=160
note_off channel=10 note=74 velocity=118 time=0
note_off channel=10 note=74 velocity=118 time=0
note_off channel=10 note=74 velocity=118 time=0
note_off channel=10 note=74 velocity=118 time=0
note_off channel=10 note=62 velocity=118 time=0
note_off channel=10 note=62 velocity=118 time=0
note_off channel=10 note=62 velocity=118 time=0
note_off channel=10 note=62 velocity=118 time=0
note_off channel=10 note=62 velocity=118 time=0
note_off channel=10 note=71 velocity=118 time=32
note_off channel=10 note=71 velocity=118 time=0
note_off channel=10 note=71 velocity=118 time=0
note_off channel=10 note=71 velocity=118 time=0
note_off channel=10 note=71 velocity=118 time=0
note_off channel=10 note=59 velocity=118 time=0
note_off channel=10 note=59 velocity=118 time=0
note_off channel=10 note=59 velocity=118 time=0
note_off channel=10 note=59 velocity=118 time=0
note_off channel=10 note=59 velocity=118 time=0
note_on channel=10 note=76 velocity=118 time=864
note_on channel=10 note=76 velocity=118 time=0
note_on channel=10 note=76 velocity=118 time=0
note_on channel=10 note=76 velocity=118 time=0
note_on channel=10 note=76 velocity=118 time=0
note_on channel=10 note=64 velocity=118 time=0
note_on channel=10 note=64 velocity=118 time=0
note_on channel=10 note=64 velocity=118 time=0
note_on channel=10 note=64 velocity=118 time=0
note_on channel=10 note=64 velocity=118 time=0
note_off channel=10 note=76 velocity=118 time=64
note_off channel=10 note=76 velocity=118 time=0
note_off channel=10 note=76 velocity=118 time=0
note_off channel=10 note=76 velocity=118 time=0
note_off channel=10 note=76 velocity=118 time=0
note_off channel=10 note=64 velocity=118 time=0
note_off channel=10 note=64 velocity=118 time=0
note_off channel=10 note=64 velocity=118 time=0
note_off channel=10 note=64 velocity=118 time=0
note_off channel=10 note=64 velocity=118 time=0
note_on channel=10 note=76 velocity=118 time=32
note_on channel=10 note=76 velocity=118 time=0
note_on channel=10 note=76 velocity=118 time=0
note_on channel=10 note=76 velocity=118 time=0
note_on channel=10 note=76 velocity=118 time=0
note_on channel=10 note=64 velocity=118 time=0
note_on channel=10 note=64 velocity=118 time=0
note_on channel=10 note=64 velocity=118 time=0
note_on channel=10 note=64 velocity=118 time=0
note_on channel=10 note=64 velocity=118 time=0
note_off channel=10 note=76 velocity=118 time=192
note_off channel=10 note=76 velocity=118 time=0
note_off channel=10 note=76 velocity=118 time=0
note_off channel=10 note=76 velocity=118 time=0
note_off channel=10 note=76 velocity=118 time=0
note_off channel=10 note=64 velocity=118 time=0
note_off channel=10 note=64 velocity=118 time=0
note_off channel=10 note=64 velocity=118 time=0
note_off channel=10 note=64 velocity=118 time=0
note_off channel=10 note=64 velocity=118 time=0
note_on channel=10 note=71 velocity=118 time=96
note_on channel=10 note=71 velocity=118 time=0
note_on channel=10 note=71 velocity=118 time=0
note_on channel=10 note=71 velocity=118 time=0
note_on channel=10 note=71 velocity=118 time=0
note_on channel=10 note=59 velocity=118 time=0
note_on channel=10 note=59 velocity=118 time=0
note_on channel=10 note=59 velocity=118 time=0
note_on channel=10 note=59 velocity=118 time=0
note_on channel=10 note=59 velocity=118 time=0
note_off channel=10 note=71 velocity=118 time=256
note_off channel=10 note=71 velocity=118 time=0
note_off channel=10 note=71 velocity=118 time=0
note_off channel=10 note=71 velocity=118 time=0
note_off channel=10 note=71 velocity=118 time=0
note_off channel=10 note=59 velocity=118 time=0
note_off channel=10 note=59 velocity=118 time=0
note_off channel=10 note=59 velocity=118 time=0
note_off channel=10 note=59 velocity=118 time=0
note_off channel=10 note=59 velocity=118 time=0
note_on channel=10 note=71 velocity=118 time=896
note_on channel=10 note=71 velocity=118 time=0
note_on channel=10 note=71 velocity=118 time=0
note_on channel=10 note=71 velocity=118 time=0
note_on channel=10 note=71 velocity=118 time=0
note_on channel=10 note=59 velocity=118 time=0
note_on channel=10 note=59 velocity=118 time=0
note_on channel=10 note=59 velocity=118 time=0
note_on channel=10 note=59 velocity=118 time=0
note_on channel=10 note=59 velocity=118 time=0
note_off channel=10 note=71 velocity=118 time=64
note_off channel=10 note=71 velocity=118 time=0
note_off channel=10 note=71 velocity=118 time=0
note_off channel=10 note=71 velocity=118 time=0
note_off channel=10 note=71 velocity=118 time=0
note_off channel=10 note=59 velocity=118 time=0
note_off channel=10 note=59 velocity=118 time=0
note_off channel=10 note=59 velocity=118 time=0
note_off channel=10 note=59 velocity=118 time=0
note_off channel=10 note=59 velocity=118 time=0
note_on channel=10 note=71 velocity=118 time=32
note_on channel=10 note=71 velocity=118 time=0
note_on channel=10 note=71 velocity=118 time=0
note_on channel=10 note=71 velocity=118 time=0
note_on channel=10 note=71 velocity=118 time=0
note_on channel=10 note=59 velocity=118 time=0
note_on channel=10 note=59 velocity=118 time=0
note_on channel=10 note=59 velocity=118 time=0
note_on channel=10 note=59 velocity=118 time=0
note_on channel=10 note=59 velocity=118 time=0
note_off channel=10 note=71 velocity=118 time=192
note_off channel=10 note=71 velocity=118 time=0
note_off channel=10 note=71 velocity=118 time=0
note_off channel=10 note=71 velocity=118 time=0
note_off channel=10 note=71 velocity=118 time=0
note_off channel=10 note=59 velocity=118 time=0
note_off channel=10 note=59 velocity=118 time=0
note_off channel=10 note=59 velocity=118 time=0
note_off channel=10 note=59 velocity=118 time=0
note_off channel=10 note=59 velocity=118 time=0
note_on channel=10 note=74 velocity=118 time=96
note_on channel=10 note=74 velocity=118 time=0
note_on channel=10 note=74 velocity=118 time=0
note_on channel=10 note=74 velocity=118 time=0
note_on channel=10 note=74 velocity=118 time=0
note_on channel=10 note=62 velocity=118 time=0
note_on channel=10 note=62 velocity=118 time=0
note_on channel=10 note=62 velocity=118 time=0
note_on channel=10 note=62 velocity=118 time=0
note_on channel=10 note=62 velocity=118 time=0
note_off channel=10 note=74 velocity=118 time=256
note_off channel=10 note=74 velocity=118 time=0
note_off channel=10 note=74 velocity=118 time=0
note_off channel=10 note=74 velocity=118 time=0
note_off channel=10 note=74 velocity=118 time=0
note_off channel=10 note=62 velocity=118 time=0
note_off channel=10 note=62 velocity=118 time=0
note_off channel=10 note=62 velocity=118 time=0
note_off channel=10 note=62 velocity=118 time=0
note_off channel=10 note=62 velocity=118 time=0
note_on channel=10 note=69 velocity=118 time=1472
note_on channel=10 note=69 velocity=118 time=0
note_on channel=10 note=69 velocity=118 time=0
note_on channel=10 note=69 velocity=118 time=0
note_on channel=10 note=69 velocity=118 time=0
note_on channel=10 note=57 velocity=118 time=0
note_on channel=10 note=57 velocity=118 time=0
note_on channel=10 note=57 velocity=118 time=0
note_on channel=10 note=57 velocity=118 time=0
note_on channel=10 note=57 velocity=118 time=0
note_off channel=10 note=69 velocity=118 time=384
note_off channel=10 note=69 velocity=118 time=0
note_off channel=10 note=69 velocity=118 time=0
note_off channel=10 note=69 velocity=118 time=0
note_off channel=10 note=69 velocity=118 time=0
note_off channel=10 note=57 velocity=118 time=0
note_off channel=10 note=57 velocity=118 time=0
note_off channel=10 note=57 velocity=118 time=0
note_off channel=10 note=57 velocity=118 time=0
note_off channel=10 note=57 velocity=118 time=0
note_on channel=10 note=71 velocity=118 time=0
note_on channel=10 note=71 velocity=118 time=0
note_on channel=10 note=71 velocity=118 time=0
note_on channel=10 note=71 velocity=118 time=0
note_on channel=10 note=71 velocity=118 time=0
note_on channel=10 note=59 velocity=118 time=0
note_on channel=10 note=59 velocity=118 time=0
note_on channel=10 note=59 velocity=118 time=0
note_on channel=10 note=59 velocity=118 time=0
note_on channel=10 note=59 velocity=118 time=0
note_off channel=10 note=71 velocity=118 time=128
note_off channel=10 note=71 velocity=118 time=0
note_off channel=10 note=71 velocity=118 time=0
note_off channel=10 note=71 velocity=118 time=0
note_off channel=10 note=71 velocity=118 time=0
note_off channel=10 note=59 velocity=118 time=0
note_off channel=10 note=59 velocity=118 time=0
note_off channel=10 note=59 velocity=118 time=0
note_off channel=10 note=59 velocity=118 time=0
note_off channel=10 note=59 velocity=118 time=0
note_on channel=10 note=73 velocity=118 time=64
note_on channel=10 note=73 velocity=118 time=0
note_on channel=10 note=73 velocity=118 time=0
note_on channel=10 note=73 velocity=118 time=0
note_on channel=10 note=73 velocity=118 time=0
note_on channel=10 note=61 velocity=118 time=0
note_on channel=10 note=61 velocity=118 time=0
note_on channel=10 note=61 velocity=118 time=0
note_on channel=10 note=61 velocity=118 time=0
note_on channel=10 note=61 velocity=118 time=0
note_off channel=10 note=73 velocity=118 time=192
note_off channel=10 note=73 velocity=118 time=0
note_off channel=10 note=73 velocity=118 time=0
note_off channel=10 note=73 velocity=118 time=0
note_off channel=10 note=73 velocity=118 time=0
note_off channel=10 note=61 velocity=118 time=0
note_off channel=10 note=61 velocity=118 time=0
note_off channel=10 note=61 velocity=118 time=0
note_off channel=10 note=61 velocity=118 time=0
note_off channel=10 note=61 velocity=118 time=0
note_on channel=10 note=71 velocity=118 time=96
note_on channel=10 note=71 velocity=118 time=0
note_on channel=10 note=71 velocity=118 time=0
note_on channel=10 note=71 velocity=118 time=0
note_on channel=10 note=71 velocity=118 time=0
note_on channel=10 note=59 velocity=118 time=0
note_on channel=10 note=59 velocity=118 time=0
note_on channel=10 note=59 velocity=118 time=0
note_on channel=10 note=59 velocity=118 time=0
note_on channel=10 note=59 velocity=118 time=0
note_off channel=10 note=71 velocity=118 time=128
note_off channel=10 note=71 velocity=118 time=0
note_off channel=10 note=71 velocity=118 time=0
note_off channel=10 note=71 velocity=118 time=0
note_off channel=10 note=71 velocity=118 time=0
note_off channel=10 note=59 velocity=118 time=0
note_off channel=10 note=59 velocity=118 time=0
note_off channel=10 note=59 velocity=118 time=0
note_off channel=10 note=59 velocity=118 time=0
note_off channel=10 note=59 velocity=118 time=0
note_on channel=10 note=73 velocity=118 time=160
note_on channel=10 note=73 velocity=118 time=0
note_on channel=10 note=73 velocity=118 time=0
note_on channel=10 note=73 velocity=118 time=0
note_on channel=10 note=73 velocity=118 time=0
note_on channel=10 note=61 velocity=118 time=0
note_on channel=10 note=61 velocity=118 time=0
note_on channel=10 note=61 velocity=118 time=0
note_on channel=10 note=61 velocity=118 time=0
note_on channel=10 note=61 velocity=118 time=0
note_off channel=10 note=73 velocity=118 time=128
note_off channel=10 note=73 velocity=118 time=0
note_off channel=10 note=73 velocity=118 time=0
note_off channel=10 note=73 velocity=118 time=0
note_off channel=10 note=73 velocity=118 time=0
note_off channel=10 note=61 velocity=118 time=0
note_off channel=10 note=61 velocity=118 time=0
note_off channel=10 note=61 velocity=118 time=0
note_off channel=10 note=61 velocity=118 time=0
note_off channel=10 note=61 velocity=118 time=0
note_on channel=10 note=69 velocity=118 time=256
note_on channel=10 note=69 velocity=118 time=0
note_on channel=10 note=69 velocity=118 time=0
note_on channel=10 note=69 velocity=118 time=0
note_on channel=10 note=69 velocity=118 time=0
note_on channel=10 note=57 velocity=118 time=0
note_on channel=10 note=57 velocity=118 time=0
note_on channel=10 note=57 velocity=118 time=0
note_on channel=10 note=57 velocity=118 time=0
note_on channel=10 note=57 velocity=118 time=0
note_off channel=10 note=69 velocity=118 time=384
note_off channel=10 note=69 velocity=118 time=0
note_off channel=10 note=69 velocity=118 time=0
note_off channel=10 note=69 velocity=118 time=0
note_off channel=10 note=69 velocity=118 time=0
note_off channel=10 note=57 velocity=118 time=0
note_off channel=10 note=57 velocity=118 time=0
note_off channel=10 note=57 velocity=118 time=0
note_off channel=10 note=57 velocity=118 time=0
note_off channel=10 note=57 velocity=118 time=0
note_on channel=10 note=71 velocity=118 time=0
note_on channel=10 note=71 velocity=118 time=0
note_on channel=10 note=71 velocity=118 time=0
note_on channel=10 note=71 velocity=118 time=0
note_on channel=10 note=71 velocity=118 time=0
note_on channel=10 note=59 velocity=118 time=0
note_on channel=10 note=59 velocity=118 time=0
note_on channel=10 note=59 velocity=118 time=0
note_on channel=10 note=59 velocity=118 time=0
note_on channel=10 note=59 velocity=118 time=0
note_off channel=10 note=71 velocity=118 time=128
note_off channel=10 note=71 velocity=118 time=0
note_off channel=10 note=71 velocity=118 time=0
note_off channel=10 note=71 velocity=118 time=0
note_off channel=10 note=71 velocity=118 time=0
note_off channel=10 note=59 velocity=118 time=0
note_off channel=10 note=59 velocity=118 time=0
note_off channel=10 note=59 velocity=118 time=0
note_off channel=10 note=59 velocity=118 time=0
note_off channel=10 note=59 velocity=118 time=0
note_on channel=10 note=73 velocity=118 time=64
note_on channel=10 note=73 velocity=118 time=0
note_on channel=10 note=73 velocity=118 time=0
note_on channel=10 note=73 velocity=118 time=0
note_on channel=10 note=73 velocity=118 time=0
note_on channel=10 note=61 velocity=118 time=0
note_on channel=10 note=61 velocity=118 time=0
note_on channel=10 note=61 velocity=118 time=0
note_on channel=10 note=61 velocity=118 time=0
note_on channel=10 note=61 velocity=118 time=0
note_off channel=10 note=73 velocity=118 time=192
note_off channel=10 note=73 velocity=118 time=0
note_off channel=10 note=73 velocity=118 time=0
note_off channel=10 note=73 velocity=118 time=0
note_off channel=10 note=73 velocity=118 time=0
note_off channel=10 note=61 velocity=118 time=0
note_off channel=10 note=61 velocity=118 time=0
note_off channel=10 note=61 velocity=118 time=0
note_off channel=10 note=61 velocity=118 time=0
note_off channel=10 note=61 velocity=118 time=0
note_on channel=10 note=71 velocity=118 time=96
note_on channel=10 note=71 velocity=118 time=0
note_on channel=10 note=71 velocity=118 time=0
note_on channel=10 note=71 velocity=118 time=0
note_on channel=10 note=71 velocity=118 time=0
note_on channel=10 note=59 velocity=118 time=0
note_on channel=10 note=59 velocity=118 time=0
note_on channel=10 note=59 velocity=118 time=0
note_on channel=10 note=59 velocity=118 time=0
note_on channel=10 note=59 velocity=118 time=0
note_off channel=10 note=71 velocity=118 time=128
note_off channel=10 note=71 velocity=118 time=0
note_off channel=10 note=71 velocity=118 time=0
note_off channel=10 note=71 velocity=118 time=0
note_off channel=10 note=71 velocity=118 time=0
note_off channel=10 note=59 velocity=118 time=0
note_off channel=10 note=59 velocity=118 time=0
note_off channel=10 note=59 velocity=118 time=0
note_off channel=10 note=59 velocity=118 time=0
note_off channel=10 note=59 velocity=118 time=0
note_on channel=10 note=73 velocity=118 time=64
note_on channel=10 note=73 velocity=118 time=0
note_on channel=10 note=73 velocity=118 time=0
note_on channel=10 note=73 velocity=118 time=0
note_on channel=10 note=73 velocity=118 time=0
note_on channel=10 note=61 velocity=118 time=0
note_on channel=10 note=61 velocity=118 time=0
note_on channel=10 note=61 velocity=118 time=0
note_on channel=10 note=61 velocity=118 time=0
note_on channel=10 note=61 velocity=118 time=0
note_off channel=10 note=73 velocity=118 time=64
note_off channel=10 note=73 velocity=118 time=0
note_off channel=10 note=73 velocity=118 time=0
note_off channel=10 note=73 velocity=118 time=0
note_off channel=10 note=73 velocity=118 time=0
note_off channel=10 note=61 velocity=118 time=0
note_off channel=10 note=61 velocity=118 time=0
note_off channel=10 note=61 velocity=118 time=0
note_off channel=10 note=61 velocity=118 time=0
note_off channel=10 note=61 velocity=118 time=0
note_on channel=10 note=73 velocity=118 time=32
note_on channel=10 note=73 velocity=118 time=0
note_on channel=10 note=73 velocity=118 time=0
note_on channel=10 note=73 velocity=118 time=0
note_on channel=10 note=73 velocity=118 time=0
note_on channel=10 note=61 velocity=118 time=0
note_on channel=10 note=61 velocity=118 time=0
note_on channel=10 note=61 velocity=118 time=0
note_on channel=10 note=61 velocity=118 time=0
note_on channel=10 note=61 velocity=118 time=0
note_off channel=10 note=73 velocity=118 time=128
note_off channel=10 note=73 velocity=118 time=0
note_off channel=10 note=73 velocity=118 time=0
note_off channel=10 note=73 velocity=118 time=0
note_off channel=10 note=73 velocity=118 time=0
note_off channel=10 note=61 velocity=118 time=0
note_off channel=10 note=61 velocity=118 time=0
note_off channel=10 note=61 velocity=118 time=0
note_off channel=10 note=61 velocity=118 time=0
note_off channel=10 note=61 velocity=118 time=0
note_on channel=10 note=74 velocity=118 time=64
note_on channel=10 note=74 velocity=118 time=0
note_on channel=10 note=74 velocity=118 time=0
note_on channel=10 note=74 velocity=118 time=0
note_on channel=10 note=74 velocity=118 time=0
note_on channel=10 note=62 velocity=118 time=0
note_on channel=10 note=62 velocity=118 time=0
note_on channel=10 note=62 velocity=118 time=0
note_on channel=10 note=62 velocity=118 time=0
note_on channel=10 note=62 velocity=118 time=0
note_off channel=10 note=74 velocity=118 time=64
note_off channel=10 note=74 velocity=118 time=0
note_off channel=10 note=74 velocity=118 time=0
note_off channel=10 note=74 velocity=118 time=0
note_off channel=10 note=74 velocity=118 time=0
note_off channel=10 note=62 velocity=118 time=0
note_off channel=10 note=62 velocity=118 time=0
note_off channel=10 note=62 velocity=118 time=0
note_off channel=10 note=62 velocity=118 time=0
note_off channel=10 note=62 velocity=118 time=0
note_on channel=10 note=74 velocity=118 time=32
note_on channel=10 note=74 velocity=118 time=0
note_on channel=10 note=74 velocity=118 time=0
note_on channel=10 note=74 velocity=118 time=0
note_on channel=10 note=74 velocity=118 time=0
note_on channel=10 note=62 velocity=118 time=0
note_on channel=10 note=62 velocity=118 time=0
note_on channel=10 note=62 velocity=118 time=0
note_on channel=10 note=62 velocity=118 time=0
note_on channel=10 note=62 velocity=118 time=0
note_off channel=10 note=74 velocity=118 time=128
note_off channel=10 note=74 velocity=118 time=0
note_off channel=10 note=74 velocity=118 time=0
note_off channel=10 note=74 velocity=118 time=0
note_off channel=10 note=74 velocity=118 time=0
note_off channel=10 note=62 velocity=118 time=0
note_off channel=10 note=62 velocity=118 time=0
note_off channel=10 note=62 velocity=118 time=0
note_off channel=10 note=62 velocity=118 time=0
note_off channel=10 note=62 velocity=118 time=0
note_on channel=10 note=74 velocity=118 time=64
note_on channel=10 note=74 velocity=118 time=0
note_on channel=10 note=74 velocity=118 time=0
note_on channel=10 note=74 velocity=118 time=0
note_on channel=10 note=74 velocity=118 time=0
note_on channel=10 note=62 velocity=118 time=0
note_on channel=10 note=62 velocity=118 time=0
note_on channel=10 note=62 velocity=118 time=0
note_on channel=10 note=62 velocity=118 time=0
note_on channel=10 note=62 velocity=118 time=0
note_off channel=10 note=74 velocity=118 time=256
note_off channel=10 note=74 velocity=118 time=0
note_off channel=10 note=74 velocity=118 time=0
note_off channel=10 note=74 velocity=118 time=0
note_off channel=10 note=74 velocity=118 time=0
note_off channel=10 note=62 velocity=118 time=0
note_off channel=10 note=62 velocity=118 time=0
note_off channel=10 note=62 velocity=118 time=0
note_off channel=10 note=62 velocity=118 time=0
note_off channel=10 note=62 velocity=118 time=0
note_on channel=10 note=74 velocity=118 time=704
note_on channel=10 note=74 velocity=118 time=0
note_on channel=10 note=74 velocity=118 time=0
note_on channel=10 note=74 velocity=118 time=0
note_on channel=10 note=74 velocity=118 time=0
note_on channel=10 note=62 velocity=118 time=0
note_on channel=10 note=62 velocity=118 time=0
note_on channel=10 note=62 velocity=118 time=0
note_on channel=10 note=62 velocity=118 time=0
note_on channel=10 note=62 velocity=118 time=0
note_off channel=10 note=74 velocity=118 time=64
note_off channel=10 note=74 velocity=118 time=0
note_off channel=10 note=74 velocity=118 time=0
note_off channel=10 note=74 velocity=118 time=0
note_off channel=10 note=74 velocity=118 time=0
note_off channel=10 note=62 velocity=118 time=0
note_off channel=10 note=62 velocity=118 time=0
note_off channel=10 note=62 velocity=118 time=0
note_off channel=10 note=62 velocity=118 time=0
note_off channel=10 note=62 velocity=118 time=0
note_on channel=10 note=74 velocity=118 time=32
note_on channel=10 note=74 velocity=118 time=0
note_on channel=10 note=74 velocity=118 time=0
note_on channel=10 note=74 velocity=118 time=0
note_on channel=10 note=74 velocity=118 time=0
note_on channel=10 note=62 velocity=118 time=0
note_on channel=10 note=62 velocity=118 time=0
note_on channel=10 note=62 velocity=118 time=0
note_on channel=10 note=62 velocity=118 time=0
note_on channel=10 note=62 velocity=118 time=0
note_off channel=10 note=74 velocity=118 time=128
note_off channel=10 note=74 velocity=118 time=0
note_off channel=10 note=74 velocity=118 time=0
note_off channel=10 note=74 velocity=118 time=0
note_off channel=10 note=74 velocity=118 time=0
note_off channel=10 note=62 velocity=118 time=0
note_off channel=10 note=62 velocity=118 time=0
note_off channel=10 note=62 velocity=118 time=0
note_off channel=10 note=62 velocity=118 time=0
note_off channel=10 note=62 velocity=118 time=0
note_on channel=10 note=78 velocity=118 time=64
note_on channel=10 note=78 velocity=118 time=0
note_on channel=10 note=78 velocity=118 time=0
note_on channel=10 note=78 velocity=118 time=0
note_on channel=10 note=78 velocity=118 time=0
note_on channel=10 note=66 velocity=118 time=0
note_on channel=10 note=66 velocity=118 time=0
note_on channel=10 note=66 velocity=118 time=0
note_on channel=10 note=66 velocity=118 time=0
note_on channel=10 note=66 velocity=118 time=0
note_off channel=10 note=78 velocity=118 time=192
note_off channel=10 note=78 velocity=118 time=0
note_off channel=10 note=78 velocity=118 time=0
note_off channel=10 note=78 velocity=118 time=0
note_off channel=10 note=78 velocity=118 time=0
note_off channel=10 note=66 velocity=118 time=0
note_off channel=10 note=66 velocity=118 time=0
note_off channel=10 note=66 velocity=118 time=0
note_off channel=10 note=66 velocity=118 time=0
note_off channel=10 note=66 velocity=118 time=0
note_on channel=10 note=74 velocity=118 time=96
note_on channel=10 note=74 velocity=118 time=0
note_on channel=10 note=74 velocity=118 time=0
note_on channel=10 note=74 velocity=118 time=0
note_on channel=10 note=74 velocity=118 time=0
note_on channel=10 note=62 velocity=118 time=0
note_on channel=10 note=62 velocity=118 time=0
note_on channel=10 note=62 velocity=118 time=0
note_on channel=10 note=62 velocity=118 time=0
note_on channel=10 note=62 velocity=118 time=0
note_off channel=10 note=74 velocity=118 time=192
note_off channel=10 note=74 velocity=118 time=0
note_off channel=10 note=74 velocity=118 time=0
note_off channel=10 note=74 velocity=118 time=0
note_off channel=10 note=74 velocity=118 time=0
note_off channel=10 note=62 velocity=118 time=0
note_off channel=10 note=62 velocity=118 time=0
note_off channel=10 note=62 velocity=118 time=0
note_off channel=10 note=62 velocity=118 time=0
note_off channel=10 note=62 velocity=118 time=0
note_on channel=10 note=74 velocity=118 time=96
note_on channel=10 note=74 velocity=118 time=0
note_on channel=10 note=74 velocity=118 time=0
note_on channel=10 note=74 velocity=118 time=0
note_on channel=10 note=74 velocity=118 time=0
note_on channel=10 note=62 velocity=118 time=0
note_on channel=10 note=62 velocity=118 time=0
note_on channel=10 note=62 velocity=118 time=0
note_on channel=10 note=62 velocity=118 time=0
note_on channel=10 note=62 velocity=118 time=0
note_off channel=10 note=74 velocity=118 time=384
note_off channel=10 note=74 velocity=118 time=0
note_off channel=10 note=74 velocity=118 time=0
note_off channel=10 note=74 velocity=118 time=0
note_off channel=10 note=74 velocity=118 time=0
note_off channel=10 note=62 velocity=118 time=0
note_off channel=10 note=62 velocity=118 time=0
note_off channel=10 note=62 velocity=118 time=0
note_off channel=10 note=62 velocity=118 time=0
note_off channel=10 note=62 velocity=118 time=0
note_on channel=10 note=76 velocity=118 time=576
note_on channel=10 note=76 velocity=118 time=0
note_on channel=10 note=76 velocity=118 time=0
note_on channel=10 note=76 velocity=118 time=0
note_on channel=10 note=76 velocity=118 time=0
note_on channel=10 note=64 velocity=118 time=0
note_on channel=10 note=64 velocity=118 time=0
note_on channel=10 note=64 velocity=118 time=0
note_on channel=10 note=64 velocity=118 time=0
note_on channel=10 note=64 velocity=118 time=0
note_off channel=10 note=76 velocity=118 time=64
note_off channel=10 note=76 velocity=118 time=0
note_off channel=10 note=76 velocity=118 time=0
note_off channel=10 note=76 velocity=118 time=0
note_off channel=10 note=76 velocity=118 time=0
note_off channel=10 note=64 velocity=118 time=0
note_off channel=10 note=64 velocity=118 time=0
note_off channel=10 note=64 velocity=118 time=0
note_off channel=10 note=64 velocity=118 time=0
note_off channel=10 note=64 velocity=118 time=0
note_on channel=10 note=76 velocity=118 time=32
note_on channel=10 note=76 velocity=118 time=0
note_on channel=10 note=76 velocity=118 time=0
note_on channel=10 note=76 velocity=118 time=0
note_on channel=10 note=76 velocity=118 time=0
note_on channel=10 note=64 velocity=118 time=0
note_on channel=10 note=64 velocity=118 time=0
note_on channel=10 note=64 velocity=118 time=0
note_on channel=10 note=64 velocity=118 time=0
note_on channel=10 note=64 velocity=118 time=0
note_off channel=10 note=76 velocity=118 time=128
note_off channel=10 note=76 velocity=118 time=0
note_off channel=10 note=76 velocity=118 time=0
note_off channel=10 note=76 velocity=118 time=0
note_off channel=10 note=76 velocity=118 time=0
note_off channel=10 note=64 velocity=118 time=0
note_off channel=10 note=64 velocity=118 time=0
note_off channel=10 note=64 velocity=118 time=0
note_off channel=10 note=64 velocity=118 time=0
note_off channel=10 note=64 velocity=118 time=0
note_on channel=10 note=76 velocity=118 time=64
note_on channel=10 note=76 velocity=118 time=0
note_on channel=10 note=76 velocity=118 time=0
note_on channel=10 note=76 velocity=118 time=0
note_on channel=10 note=76 velocity=118 time=0
note_on channel=10 note=64 velocity=118 time=0
note_on channel=10 note=64 velocity=118 time=0
note_on channel=10 note=64 velocity=118 time=0
note_on channel=10 note=64 velocity=118 time=0
note_on channel=10 note=64 velocity=118 time=0
note_off channel=10 note=76 velocity=118 time=256
note_off channel=10 note=76 velocity=118 time=0
note_off channel=10 note=76 velocity=118 time=0
note_off channel=10 note=76 velocity=118 time=0
note_off channel=10 note=76 velocity=118 time=0
note_off channel=10 note=64 velocity=118 time=0
note_off channel=10 note=64 velocity=118 time=0
note_off channel=10 note=64 velocity=118 time=0
note_off channel=10 note=64 velocity=118 time=0
note_off channel=10 note=64 velocity=118 time=0
note_on channel=10 note=74 velocity=118 time=320
note_on channel=10 note=74 velocity=118 time=0
note_on channel=10 note=74 velocity=118 time=0
note_on channel=10 note=74 velocity=118 time=0
note_on channel=10 note=74 velocity=118 time=0
note_on channel=10 note=62 velocity=118 time=0
note_on channel=10 note=62 velocity=118 time=0
note_on channel=10 note=62 velocity=118 time=0
note_on channel=10 note=62 velocity=118 time=0
note_on channel=10 note=62 velocity=118 time=0
note_off channel=10 note=74 velocity=118 time=64
note_off channel=10 note=74 velocity=118 time=0
note_off channel=10 note=74 velocity=118 time=0
note_off channel=10 note=74 velocity=118 time=0
note_off channel=10 note=74 velocity=118 time=0
note_off channel=10 note=62 velocity=118 time=0
note_off channel=10 note=62 velocity=118 time=0
note_off channel=10 note=62 velocity=118 time=0
note_off channel=10 note=62 velocity=118 time=0
note_off channel=10 note=62 velocity=118 time=0
note_on channel=10 note=74 velocity=118 time=32
note_on channel=10 note=74 velocity=118 time=0
note_on channel=10 note=74 velocity=118 time=0
note_on channel=10 note=74 velocity=118 time=0
note_on channel=10 note=74 velocity=118 time=0
note_on channel=10 note=62 velocity=118 time=0
note_on channel=10 note=62 velocity=118 time=0
note_on channel=10 note=62 velocity=118 time=0
note_on channel=10 note=62 velocity=118 time=0
note_on channel=10 note=62 velocity=118 time=0
note_off channel=10 note=74 velocity=118 time=64
note_off channel=10 note=74 velocity=118 time=0
note_off channel=10 note=74 velocity=118 time=0
note_off channel=10 note=74 velocity=118 time=0
note_off channel=10 note=74 velocity=118 time=0
note_off channel=10 note=62 velocity=118 time=0
note_off channel=10 note=62 velocity=118 time=0
note_off channel=10 note=62 velocity=118 time=0
note_off channel=10 note=62 velocity=118 time=0
note_off channel=10 note=62 velocity=118 time=0
note_on channel=10 note=74 velocity=118 time=32
note_on channel=10 note=74 velocity=118 time=0
note_on channel=10 note=74 velocity=118 time=0
note_on channel=10 note=74 velocity=118 time=0
note_on channel=10 note=74 velocity=118 time=0
note_on channel=10 note=62 velocity=118 time=0
note_on channel=10 note=62 velocity=118 time=0
note_on channel=10 note=62 velocity=118 time=0
note_on channel=10 note=62 velocity=118 time=0
note_on channel=10 note=62 velocity=118 time=0
note_off channel=10 note=74 velocity=118 time=64
note_off channel=10 note=74 velocity=118 time=0
note_off channel=10 note=74 velocity=118 time=0
note_off channel=10 note=74 velocity=118 time=0
note_off channel=10 note=74 velocity=118 time=0
note_off channel=10 note=62 velocity=118 time=0
note_off channel=10 note=62 velocity=118 time=0
note_off channel=10 note=62 velocity=118 time=0
note_off channel=10 note=62 velocity=118 time=0
note_off channel=10 note=62 velocity=118 time=0
note_on channel=10 note=74 velocity=118 time=32
note_on channel=10 note=74 velocity=118 time=0
note_on channel=10 note=74 velocity=118 time=0
note_on channel=10 note=74 velocity=118 time=0
note_on channel=10 note=74 velocity=118 time=0
note_on channel=10 note=62 velocity=118 time=0
note_on channel=10 note=62 velocity=118 time=0
note_on channel=10 note=62 velocity=118 time=0
note_on channel=10 note=62 velocity=118 time=0
note_on channel=10 note=62 velocity=118 time=0
note_off channel=10 note=74 velocity=118 time=256
note_off channel=10 note=74 velocity=118 time=0
note_off channel=10 note=74 velocity=118 time=0
note_off channel=10 note=74 velocity=118 time=0
note_off channel=10 note=74 velocity=118 time=0
note_off channel=10 note=62 velocity=118 time=0
note_off channel=10 note=62 velocity=118 time=0
note_off channel=10 note=62 velocity=118 time=0
note_off channel=10 note=62 velocity=118 time=0
note_off channel=10 note=62 velocity=118 time=0
note_on channel=10 note=76 velocity=118 time=224
note_on channel=10 note=76 velocity=118 time=0
note_on channel=10 note=76 velocity=118 time=0
note_on channel=10 note=76 velocity=118 time=0
note_on channel=10 note=76 velocity=118 time=0
note_on channel=10 note=64 velocity=118 time=0
note_on channel=10 note=64 velocity=118 time=0
note_on channel=10 note=64 velocity=118 time=0
note_on channel=10 note=64 velocity=118 time=0
note_on channel=10 note=64 velocity=118 time=0
note_off channel=10 note=76 velocity=118 time=64
note_off channel=10 note=76 velocity=118 time=0
note_off channel=10 note=76 velocity=118 time=0
note_off channel=10 note=76 velocity=118 time=0
note_off channel=10 note=76 velocity=118 time=0
note_off channel=10 note=64 velocity=118 time=0
note_off channel=10 note=64 velocity=118 time=0
note_off channel=10 note=64 velocity=118 time=0
note_off channel=10 note=64 velocity=118 time=0
note_off channel=10 note=64 velocity=118 time=0
note_on channel=10 note=76 velocity=118 time=32
note_on channel=10 note=76 velocity=118 time=0
note_on channel=10 note=76 velocity=118 time=0
note_on channel=10 note=76 velocity=118 time=0
note_on channel=10 note=76 velocity=118 time=0
note_on channel=10 note=64 velocity=118 time=0
note_on channel=10 note=64 velocity=118 time=0
note_on channel=10 note=64 velocity=118 time=0
note_on channel=10 note=64 velocity=118 time=0
note_on channel=10 note=64 velocity=118 time=0
note_off channel=10 note=76 velocity=118 time=64
note_off channel=10 note=76 velocity=118 time=0
note_off channel=10 note=76 velocity=118 time=0
note_off channel=10 note=76 velocity=118 time=0
note_off channel=10 note=76 velocity=118 time=0
note_off channel=10 note=64 velocity=118 time=0
note_off channel=10 note=64 velocity=118 time=0
note_off channel=10 note=64 velocity=118 time=0
note_off channel=10 note=64 velocity=118 time=0
note_off channel=10 note=64 velocity=118 time=0
note_on channel=10 note=76 velocity=118 time=32
note_on channel=10 note=76 velocity=118 time=0
note_on channel=10 note=76 velocity=118 time=0
note_on channel=10 note=76 velocity=118 time=0
note_on channel=10 note=76 velocity=118 time=0
note_on channel=10 note=64 velocity=118 time=0
note_on channel=10 note=64 velocity=118 time=0
note_on channel=10 note=64 velocity=118 time=0
note_on channel=10 note=64 velocity=118 time=0
note_on channel=10 note=64 velocity=118 time=0
note_off channel=10 note=76 velocity=118 time=64
note_off channel=10 note=76 velocity=118 time=0
note_off channel=10 note=76 velocity=118 time=0
note_off channel=10 note=76 velocity=118 time=0
note_off channel=10 note=76 velocity=118 time=0
note_off channel=10 note=64 velocity=118 time=0
note_off channel=10 note=64 velocity=118 time=0
note_off channel=10 note=64 velocity=118 time=0
note_off channel=10 note=64 velocity=118 time=0
note_off channel=10 note=64 velocity=118 time=0
note_on channel=10 note=76 velocity=118 time=32
note_on channel=10 note=76 velocity=118 time=0
note_on channel=10 note=76 velocity=118 time=0
note_on channel=10 note=76 velocity=118 time=0
note_on channel=10 note=76 velocity=118 time=0
note_on channel=10 note=64 velocity=118 time=0
note_on channel=10 note=64 velocity=118 time=0
note_on channel=10 note=64 velocity=118 time=0
note_on channel=10 note=64 velocity=118 time=0
note_on channel=10 note=64 velocity=118 time=0
note_off channel=10 note=76 velocity=118 time=128
note_off channel=10 note=76 velocity=118 time=0
note_off channel=10 note=76 velocity=118 time=0
note_off channel=10 note=76 velocity=118 time=0
note_off channel=10 note=76 velocity=118 time=0
note_off channel=10 note=64 velocity=118 time=0
note_off channel=10 note=64 velocity=118 time=0
note_off channel=10 note=64 velocity=118 time=0
note_off channel=10 note=64 velocity=118 time=0
note_off channel=10 note=64 velocity=118 time=0
note_on channel=10 note=71 velocity=118 time=64
note_on channel=10 note=71 velocity=118 time=0
note_on channel=10 note=71 velocity=118 time=0
note_on channel=10 note=71 velocity=118 time=0
note_on channel=10 note=71 velocity=118 time=0
note_on channel=10 note=59 velocity=118 time=0
note_on channel=10 note=59 velocity=118 time=0
note_on channel=10 note=59 velocity=118 time=0
note_on channel=10 note=59 velocity=118 time=0
note_on channel=10 note=59 velocity=118 time=0
note_off channel=10 note=71 velocity=118 time=128
note_off channel=10 note=71 velocity=118 time=0
note_off channel=10 note=71 velocity=118 time=0
note_off channel=10 note=71 velocity=118 time=0
note_off channel=10 note=71 velocity=118 time=0
note_off channel=10 note=59 velocity=118 time=0
note_off channel=10 note=59 velocity=118 time=0
note_off channel=10 note=59 velocity=118 time=0
note_off channel=10 note=59 velocity=118 time=0
note_off channel=10 note=59 velocity=118 time=0
note_on channel=10 note=69 velocity=118 time=64
note_on channel=10 note=69 velocity=118 time=0
note_on channel=10 note=69 velocity=118 time=0
note_on channel=10 note=69 velocity=118 time=0
note_on channel=10 note=69 velocity=118 time=0
note_on channel=10 note=57 velocity=118 time=0
note_on channel=10 note=57 velocity=118 time=0
note_on channel=10 note=57 velocity=118 time=0
note_on channel=10 note=57 velocity=118 time=0
note_on channel=10 note=57 velocity=118 time=0
note_off channel=10 note=69 velocity=118 time=64
note_off channel=10 note=69 velocity=118 time=0
note_off channel=10 note=69 velocity=118 time=0
note_off channel=10 note=69 velocity=118 time=0
note_off channel=10 note=69 velocity=118 time=0
note_off channel=10 note=57 velocity=118 time=0
note_off channel=10 note=57 velocity=118 time=0
note_off channel=10 note=57 velocity=118 time=0
note_off channel=10 note=57 velocity=118 time=0
note_off channel=10 note=57 velocity=118 time=0
note_on channel=10 note=68 velocity=118 time=32
note_on channel=10 note=68 velocity=118 time=0
note_on channel=10 note=68 velocity=118 time=0
note_on channel=10 note=68 velocity=118 time=0
note_on channel=10 note=68 velocity=118 time=0
note_on channel=10 note=56 velocity=118 time=0
note_on channel=10 note=56 velocity=118 time=0
note_on channel=10 note=56 velocity=118 time=0
note_on channel=10 note=56 velocity=118 time=0
note_on channel=10 note=56 velocity=118 time=0
note_off channel=10 note=68 velocity=118 time=64
note_off channel=10 note=68 velocity=118 time=0
note_off channel=10 note=68 velocity=118 time=0
note_off channel=10 note=68 velocity=118 time=0
note_off channel=10 note=68 velocity=118 time=0
note_off channel=10 note=56 velocity=118 time=0
note_off channel=10 note=56 velocity=118 time=0
note_off channel=10 note=56 velocity=118 time=0
note_off channel=10 note=56 velocity=118 time=0
note_off channel=10 note=56 velocity=118 time=0
note_on channel=10 note=71 velocity=118 time=32
note_on channel=10 note=71 velocity=118 time=0
note_on channel=10 note=71 velocity=118 time=0
note_on channel=10 note=71 velocity=118 time=0
note_on channel=10 note=71 velocity=118 time=0
note_on channel=10 note=59 velocity=118 time=0
note_on channel=10 note=59 velocity=118 time=0
note_on channel=10 note=59 velocity=118 time=0
note_on channel=10 note=59 velocity=118 time=0
note_on channel=10 note=59 velocity=118 time=0
note_off channel=10 note=71 velocity=118 time=128
note_off channel=10 note=71 velocity=118 time=0
note_off channel=10 note=71 velocity=118 time=0
note_off channel=10 note=71 velocity=118 time=0
note_off channel=10 note=71 velocity=118 time=0
note_off channel=10 note=59 velocity=118 time=0
note_off channel=10 note=59 velocity=118 time=0
note_off channel=10 note=59 velocity=118 time=0
note_off channel=10 note=59 velocity=118 time=0
note_off channel=10 note=59 velocity=118 time=0
note_on channel=10 note=69 velocity=118 time=64
note_on channel=10 note=69 velocity=118 time=0
note_on channel=10 note=69 velocity=118 time=0
note_on channel=10 note=69 velocity=118 time=0
note_on channel=10 note=69 velocity=118 time=0
note_on channel=10 note=57 velocity=118 time=0
note_on channel=10 note=57 velocity=118 time=0
note_on channel=10 note=57 velocity=118 time=0
note_on channel=10 note=57 velocity=118 time=0
note_on channel=10 note=57 velocity=118 time=0
note_off channel=10 note=69 velocity=118 time=128
note_off channel=10 note=69 velocity=118 time=0
note_off channel=10 note=69 velocity=118 time=0
note_off channel=10 note=69 velocity=118 time=0
note_off channel=10 note=69 velocity=118 time=0
note_off channel=10 note=57 velocity=118 time=0
note_off channel=10 note=57 velocity=118 time=0
note_off channel=10 note=57 velocity=118 time=0
note_off channel=10 note=57 velocity=118 time=0
note_off channel=10 note=57 velocity=118 time=0
note_on channel=10 note=64 velocity=118 time=64
note_on channel=10 note=64 velocity=118 time=0
note_on channel=10 note=64 velocity=118 time=0
note_on channel=10 note=64 velocity=118 time=0
note_on channel=10 note=64 velocity=118 time=0
note_on channel=10 note=52 velocity=118 time=0
note_on channel=10 note=52 velocity=118 time=0
note_on channel=10 note=52 velocity=118 time=0
note_on channel=10 note=52 velocity=118 time=0
note_on channel=10 note=52 velocity=118 time=0
note_off channel=10 note=64 velocity=118 time=256
note_off channel=10 note=64 velocity=118 time=0
note_off channel=10 note=64 velocity=118 time=0
note_off channel=10 note=64 velocity=118 time=0
note_off channel=10 note=64 velocity=118 time=0
note_off channel=10 note=52 velocity=118 time=0
note_off channel=10 note=52 velocity=118 time=0
note_off channel=10 note=52 velocity=118 time=0
note_off channel=10 note=52 velocity=118 time=0
note_off channel=10 note=52 velocity=118 time=0
note_on channel=10 note=74 velocity=118 time=128
note_on channel=10 note=74 velocity=118 time=0
note_on channel=10 note=74 velocity=118 time=0
note_on channel=10 note=74 velocity=118 time=0
note_on channel=10 note=74 velocity=118 time=0
note_on channel=10 note=62 velocity=118 time=0
note_on channel=10 note=62 velocity=118 time=0
note_on channel=10 note=62 velocity=118 time=0
note_on channel=10 note=62 velocity=118 time=0
note_on channel=10 note=62 velocity=118 time=0
note_off channel=10 note=74 velocity=118 time=128
note_off channel=10 note=74 velocity=118 time=0
note_off channel=10 note=74 velocity=118 time=0
note_off channel=10 note=74 velocity=118 time=0
note_off channel=10 note=74 velocity=118 time=0
note_off channel=10 note=62 velocity=118 time=0
note_off channel=10 note=62 velocity=118 time=0
note_off channel=10 note=62 velocity=118 time=0
note_off channel=10 note=62 velocity=118 time=0
note_off channel=10 note=62 velocity=118 time=0
note_on channel=10 note=74 velocity=118 time=64
note_on channel=10 note=74 velocity=118 time=0
note_on channel=10 note=74 velocity=118 time=0
note_on channel=10 note=74 velocity=118 time=0
note_on channel=10 note=74 velocity=118 time=0
note_on channel=10 note=62 velocity=118 time=0
note_on channel=10 note=62 velocity=118 time=0
note_on channel=10 note=62 velocity=118 time=0
note_on channel=10 note=62 velocity=118 time=0
note_on channel=10 note=62 velocity=118 time=0
note_off channel=10 note=74 velocity=118 time=256
note_off channel=10 note=74 velocity=118 time=0
note_off channel=10 note=74 velocity=118 time=0
note_off channel=10 note=74 velocity=118 time=0
note_off channel=10 note=74 velocity=118 time=0
note_off channel=10 note=62 velocity=118 time=0
note_off channel=10 note=62 velocity=118 time=0
note_off channel=10 note=62 velocity=118 time=0
note_off channel=10 note=62 velocity=118 time=0
note_off channel=10 note=62 velocity=118 time=0
note_on channel=10 note=74 velocity=118 time=224
note_on channel=10 note=74 velocity=118 time=0
note_on channel=10 note=74 velocity=118 time=0
note_on channel=10 note=74 velocity=118 time=0
note_on channel=10 note=74 velocity=118 time=0
note_on channel=10 note=62 velocity=118 time=0
note_on channel=10 note=62 velocity=118 time=0
note_on channel=10 note=62 velocity=118 time=0
note_on channel=10 note=62 velocity=118 time=0
note_on channel=10 note=62 velocity=118 time=0
note_off channel=10 note=74 velocity=118 time=64
note_off channel=10 note=74 velocity=118 time=0
note_off channel=10 note=74 velocity=118 time=0
note_off channel=10 note=74 velocity=118 time=0
note_off channel=10 note=74 velocity=118 time=0
note_off channel=10 note=62 velocity=118 time=0
note_off channel=10 note=62 velocity=118 time=0
note_off channel=10 note=62 velocity=118 time=0
note_off channel=10 note=62 velocity=118 time=0
note_off channel=10 note=62 velocity=118 time=0
note_on channel=10 note=74 velocity=118 time=32
note_on channel=10 note=74 velocity=118 time=0
note_on channel=10 note=74 velocity=118 time=0
note_on channel=10 note=74 velocity=118 time=0
note_on channel=10 note=74 velocity=118 time=0
note_on channel=10 note=62 velocity=118 time=0
note_on channel=10 note=62 velocity=118 time=0
note_on channel=10 note=62 velocity=118 time=0
note_on channel=10 note=62 velocity=118 time=0
note_on channel=10 note=62 velocity=118 time=0
note_off channel=10 note=74 velocity=118 time=64
note_off channel=10 note=74 velocity=118 time=0
note_off channel=10 note=74 velocity=118 time=0
note_off channel=10 note=74 velocity=118 time=0
note_off channel=10 note=74 velocity=118 time=0
note_off channel=10 note=62 velocity=118 time=0
note_off channel=10 note=62 velocity=118 time=0
note_off channel=10 note=62 velocity=118 time=0
note_off channel=10 note=62 velocity=118 time=0
note_off channel=10 note=62 velocity=118 time=0
note_on channel=10 note=74 velocity=118 time=32
note_on channel=10 note=74 velocity=118 time=0
note_on channel=10 note=74 velocity=118 time=0
note_on channel=10 note=74 velocity=118 time=0
note_on channel=10 note=74 velocity=118 time=0
note_on channel=10 note=62 velocity=118 time=0
note_on channel=10 note=62 velocity=118 time=0
note_on channel=10 note=62 velocity=118 time=0
note_on channel=10 note=62 velocity=118 time=0
note_on channel=10 note=62 velocity=118 time=0
note_off channel=10 note=74 velocity=118 time=256
note_off channel=10 note=74 velocity=118 time=0
note_off channel=10 note=74 velocity=118 time=0
note_off channel=10 note=74 velocity=118 time=0
note_off channel=10 note=74 velocity=118 time=0
note_off channel=10 note=62 velocity=118 time=0
note_off channel=10 note=62 velocity=118 time=0
note_off channel=10 note=62 velocity=118 time=0
note_off channel=10 note=62 velocity=118 time=0
note_off channel=10 note=62 velocity=118 time=0
note_on channel=10 note=71 velocity=118 time=416
note_on channel=10 note=71 velocity=118 time=0
note_on channel=10 note=71 velocity=118 time=0
note_on channel=10 note=71 velocity=118 time=0
note_on channel=10 note=71 velocity=118 time=0
note_on channel=10 note=59 velocity=118 time=0
note_on channel=10 note=59 velocity=118 time=0
note_on channel=10 note=59 velocity=118 time=0
note_on channel=10 note=59 velocity=118 time=0
note_on channel=10 note=59 velocity=118 time=0
note_off channel=10 note=71 velocity=118 time=128
note_off channel=10 note=71 velocity=118 time=0
note_off channel=10 note=71 velocity=118 time=0
note_off channel=10 note=71 velocity=118 time=0
note_off channel=10 note=71 velocity=118 time=0
note_off channel=10 note=59 velocity=118 time=0
note_off channel=10 note=59 velocity=118 time=0
note_off channel=10 note=59 velocity=118 time=0
note_off channel=10 note=59 velocity=118 time=0
note_off channel=10 note=59 velocity=118 time=0
note_on channel=10 note=71 velocity=118 time=64
note_on channel=10 note=71 velocity=118 time=0
note_on channel=10 note=71 velocity=118 time=0
note_on channel=10 note=71 velocity=118 time=0
note_on channel=10 note=71 velocity=118 time=0
note_on channel=10 note=59 velocity=118 time=0
note_on channel=10 note=59 velocity=118 time=0
note_on channel=10 note=59 velocity=118 time=0
note_on channel=10 note=59 velocity=118 time=0
note_on channel=10 note=59 velocity=118 time=0
note_off channel=10 note=71 velocity=118 time=128
note_off channel=10 note=71 velocity=118 time=0
note_off channel=10 note=71 velocity=118 time=0
note_off channel=10 note=71 velocity=118 time=0
note_off channel=10 note=71 velocity=118 time=0
note_off channel=10 note=59 velocity=118 time=0
note_off channel=10 note=59 velocity=118 time=0
note_off channel=10 note=59 velocity=118 time=0
note_off channel=10 note=59 velocity=118 time=0
note_off channel=10 note=59 velocity=118 time=0
note_on channel=10 note=71 velocity=118 time=64
note_on channel=10 note=71 velocity=118 time=0
note_on channel=10 note=71 velocity=118 time=0
note_on channel=10 note=71 velocity=118 time=0
note_on channel=10 note=71 velocity=118 time=0
note_on channel=10 note=59 velocity=118 time=0
note_on channel=10 note=59 velocity=118 time=0
note_on channel=10 note=59 velocity=118 time=0
note_on channel=10 note=59 velocity=118 time=0
note_on channel=10 note=59 velocity=118 time=0
note_off channel=10 note=71 velocity=118 time=128
note_off channel=10 note=71 velocity=118 time=0
note_off channel=10 note=71 velocity=118 time=0
note_off channel=10 note=71 velocity=118 time=0
note_off channel=10 note=71 velocity=118 time=0
note_off channel=10 note=59 velocity=118 time=0
note_off channel=10 note=59 velocity=118 time=0
note_off channel=10 note=59 velocity=118 time=0
note_off channel=10 note=59 velocity=118 time=0
note_off channel=10 note=59 velocity=118 time=0
note_on channel=10 note=74 velocity=118 time=64
note_on channel=10 note=74 velocity=118 time=0
note_on channel=10 note=74 velocity=118 time=0
note_on channel=10 note=74 velocity=118 time=0
note_on channel=10 note=74 velocity=118 time=0
note_on channel=10 note=62 velocity=118 time=0
note_on channel=10 note=62 velocity=118 time=0
note_on channel=10 note=62 velocity=118 time=0
note_on channel=10 note=62 velocity=118 time=0
note_on channel=10 note=62 velocity=118 time=0
note_off channel=10 note=74 velocity=118 time=64
note_off channel=10 note=74 velocity=118 time=0
note_off channel=10 note=74 velocity=118 time=0
note_off channel=10 note=74 velocity=118 time=0
note_off channel=10 note=74 velocity=118 time=0
note_off channel=10 note=62 velocity=118 time=0
note_off channel=10 note=62 velocity=118 time=0
note_off channel=10 note=62 velocity=118 time=0
note_off channel=10 note=62 velocity=118 time=0
note_off channel=10 note=62 velocity=118 time=0
note_on channel=10 note=73 velocity=118 time=32
note_on channel=10 note=73 velocity=118 time=0
note_on channel=10 note=73 velocity=118 time=0
note_on channel=10 note=73 velocity=118 time=0
note_on channel=10 note=73 velocity=118 time=0
note_on channel=10 note=61 velocity=118 time=0
note_on channel=10 note=61 velocity=118 time=0
note_on channel=10 note=61 velocity=118 time=0
note_on channel=10 note=61 velocity=118 time=0
note_on channel=10 note=61 velocity=118 time=0
note_off channel=10 note=73 velocity=118 time=64
note_off channel=10 note=73 velocity=118 time=0
note_off channel=10 note=73 velocity=118 time=0
note_off channel=10 note=73 velocity=118 time=0
note_off channel=10 note=73 velocity=118 time=0
note_off channel=10 note=61 velocity=118 time=0
note_off channel=10 note=61 velocity=118 time=0
note_off channel=10 note=61 velocity=118 time=0
note_off channel=10 note=61 velocity=118 time=0
note_off channel=10 note=61 velocity=118 time=0
note_on channel=10 note=71 velocity=118 time=32
note_on channel=10 note=71 velocity=118 time=0
note_on channel=10 note=71 velocity=118 time=0
note_on channel=10 note=71 velocity=118 time=0
note_on channel=10 note=71 velocity=118 time=0
note_on channel=10 note=59 velocity=118 time=0
note_on channel=10 note=59 velocity=118 time=0
note_on channel=10 note=59 velocity=118 time=0
note_on channel=10 note=59 velocity=118 time=0
note_on channel=10 note=59 velocity=118 time=0
note_off channel=10 note=71 velocity=118 time=64
note_off channel=10 note=71 velocity=118 time=0
note_off channel=10 note=71 velocity=118 time=0
note_off channel=10 note=71 velocity=118 time=0
note_off channel=10 note=71 velocity=118 time=0
note_off channel=10 note=59 velocity=118 time=0
note_off channel=10 note=59 velocity=118 time=0
note_off channel=10 note=59 velocity=118 time=0
note_off channel=10 note=59 velocity=118 time=0
note_off channel=10 note=59 velocity=118 time=0
note_on channel=10 note=71 velocity=118 time=32
note_on channel=10 note=71 velocity=118 time=0
note_on channel=10 note=71 velocity=118 time=0
note_on channel=10 note=71 velocity=118 time=0
note_on channel=10 note=71 velocity=118 time=0
note_on channel=10 note=59 velocity=118 time=0
note_on channel=10 note=59 velocity=118 time=0
note_on channel=10 note=59 velocity=118 time=0
note_on channel=10 note=59 velocity=118 time=0
note_on channel=10 note=59 velocity=118 time=0
note_off channel=10 note=71 velocity=118 time=128
note_off channel=10 note=71 velocity=118 time=0
note_off channel=10 note=71 velocity=118 time=0
note_off channel=10 note=71 velocity=118 time=0
note_off channel=10 note=71 velocity=118 time=0
note_off channel=10 note=59 velocity=118 time=0
note_off channel=10 note=59 velocity=118 time=0
note_off channel=10 note=59 velocity=118 time=0
note_off channel=10 note=59 velocity=118 time=0
note_off channel=10 note=59 velocity=118 time=0
note_on channel=10 note=71 velocity=118 time=64
note_on channel=10 note=71 velocity=118 time=0
note_on channel=10 note=71 velocity=118 time=0
note_on channel=10 note=71 velocity=118 time=0
note_on channel=10 note=71 velocity=118 time=0
note_on channel=10 note=59 velocity=118 time=0
note_on channel=10 note=59 velocity=118 time=0
note_on channel=10 note=59 velocity=118 time=0
note_on channel=10 note=59 velocity=118 time=0
note_on channel=10 note=59 velocity=118 time=0
note_off channel=10 note=71 velocity=118 time=64
note_off channel=10 note=71 velocity=118 time=0
note_off channel=10 note=71 velocity=118 time=0
note_off channel=10 note=71 velocity=118 time=0
note_off channel=10 note=71 velocity=118 time=0
note_off channel=10 note=59 velocity=118 time=0
note_off channel=10 note=59 velocity=118 time=0
note_off channel=10 note=59 velocity=118 time=0
note_off channel=10 note=59 velocity=118 time=0
note_off channel=10 note=59 velocity=118 time=0
note_on channel=10 note=71 velocity=118 time=32
note_on channel=10 note=71 velocity=118 time=0
note_on channel=10 note=71 velocity=118 time=0
note_on channel=10 note=71 velocity=118 time=0
note_on channel=10 note=71 velocity=118 time=0
note_on channel=10 note=59 velocity=118 time=0
note_on channel=10 note=59 velocity=118 time=0
note_on channel=10 note=59 velocity=118 time=0
note_on channel=10 note=59 velocity=118 time=0
note_on channel=10 note=59 velocity=118 time=0
note_off channel=10 note=71 velocity=118 time=128
note_off channel=10 note=71 velocity=118 time=0
note_off channel=10 note=71 velocity=118 time=0
note_off channel=10 note=71 velocity=118 time=0
note_off channel=10 note=71 velocity=118 time=0
note_off channel=10 note=59 velocity=118 time=0
note_off channel=10 note=59 velocity=118 time=0
note_off channel=10 note=59 velocity=118 time=0
note_off channel=10 note=59 velocity=118 time=0
note_off channel=10 note=59 velocity=118 time=0
note_on channel=10 note=74 velocity=118 time=64
note_on channel=10 note=74 velocity=118 time=0
note_on channel=10 note=74 velocity=118 time=0
note_on channel=10 note=74 velocity=118 time=0
note_on channel=10 note=74 velocity=118 time=0
note_on channel=10 note=62 velocity=118 time=0
note_on channel=10 note=62 velocity=118 time=0
note_on channel=10 note=62 velocity=118 time=0
note_on channel=10 note=62 velocity=118 time=0
note_on channel=10 note=62 velocity=118 time=0
note_off channel=10 note=74 velocity=118 time=64
note_off channel=10 note=74 velocity=118 time=0
note_off channel=10 note=74 velocity=118 time=0
note_off channel=10 note=74 velocity=118 time=0
note_off channel=10 note=74 velocity=118 time=0
note_off channel=10 note=62 velocity=118 time=0
note_off channel=10 note=62 velocity=118 time=0
note_off channel=10 note=62 velocity=118 time=0
note_off channel=10 note=62 velocity=118 time=0
note_off channel=10 note=62 velocity=118 time=0
note_on channel=10 note=74 velocity=118 time=32
note_on channel=10 note=74 velocity=118 time=0
note_on channel=10 note=74 velocity=118 time=0
note_on channel=10 note=74 velocity=118 time=0
note_on channel=10 note=74 velocity=118 time=0
note_on channel=10 note=62 velocity=118 time=0
note_on channel=10 note=62 velocity=118 time=0
note_on channel=10 note=62 velocity=118 time=0
note_on channel=10 note=62 velocity=118 time=0
note_on channel=10 note=62 velocity=118 time=0
note_off channel=10 note=74 velocity=118 time=64
note_off channel=10 note=74 velocity=118 time=0
note_off channel=10 note=74 velocity=118 time=0
note_off channel=10 note=74 velocity=118 time=0
note_off channel=10 note=74 velocity=118 time=0
note_off channel=10 note=62 velocity=118 time=0
note_off channel=10 note=62 velocity=118 time=0
note_off channel=10 note=62 velocity=118 time=0
note_off channel=10 note=62 velocity=118 time=0
note_off channel=10 note=62 velocity=118 time=0
note_on channel=10 note=74 velocity=118 time=32
note_on channel=10 note=74 velocity=118 time=0
note_on channel=10 note=74 velocity=118 time=0
note_on channel=10 note=74 velocity=118 time=0
note_on channel=10 note=74 velocity=118 time=0
note_on channel=10 note=62 velocity=118 time=0
note_on channel=10 note=62 velocity=118 time=0
note_on channel=10 note=62 velocity=118 time=0
note_on channel=10 note=62 velocity=118 time=0
note_on channel=10 note=62 velocity=118 time=0
note_off channel=10 note=74 velocity=118 time=64
note_off channel=10 note=74 velocity=118 time=0
note_off channel=10 note=74 velocity=118 time=0
note_off channel=10 note=74 velocity=118 time=0
note_off channel=10 note=74 velocity=118 time=0
note_off channel=10 note=62 velocity=118 time=0
note_off channel=10 note=62 velocity=118 time=0
note_off channel=10 note=62 velocity=118 time=0
note_off channel=10 note=62 velocity=118 time=0
note_off channel=10 note=62 velocity=118 time=0
note_on channel=10 note=74 velocity=118 time=32
note_on channel=10 note=74 velocity=118 time=0
note_on channel=10 note=74 velocity=118 time=0
note_on channel=10 note=74 velocity=118 time=0
note_on channel=10 note=74 velocity=118 time=0
note_on channel=10 note=62 velocity=118 time=0
note_on channel=10 note=62 velocity=118 time=0
note_on channel=10 note=62 velocity=118 time=0
note_on channel=10 note=62 velocity=118 time=0
note_on channel=10 note=62 velocity=118 time=0
note_off channel=10 note=74 velocity=118 time=64
note_off channel=10 note=74 velocity=118 time=0
note_off channel=10 note=74 velocity=118 time=0
note_off channel=10 note=74 velocity=118 time=0
note_off channel=10 note=74 velocity=118 time=0
note_off channel=10 note=62 velocity=118 time=0
note_off channel=10 note=62 velocity=118 time=0
note_off channel=10 note=62 velocity=118 time=0
note_off channel=10 note=62 velocity=118 time=0
note_off channel=10 note=62 velocity=118 time=0
note_on channel=10 note=74 velocity=118 time=32
note_on channel=10 note=74 velocity=118 time=0
note_on channel=10 note=74 velocity=118 time=0
note_on channel=10 note=74 velocity=118 time=0
note_on channel=10 note=74 velocity=118 time=0
note_on channel=10 note=62 velocity=118 time=0
note_on channel=10 note=62 velocity=118 time=0
note_on channel=10 note=62 velocity=118 time=0
note_on channel=10 note=62 velocity=118 time=0
note_on channel=10 note=62 velocity=118 time=0
note_off channel=10 note=74 velocity=118 time=128
note_off channel=10 note=74 velocity=118 time=0
note_off channel=10 note=74 velocity=118 time=0
note_off channel=10 note=74 velocity=118 time=0
note_off channel=10 note=74 velocity=118 time=0
note_off channel=10 note=62 velocity=118 time=0
note_off channel=10 note=62 velocity=118 time=0
note_off channel=10 note=62 velocity=118 time=0
note_off channel=10 note=62 velocity=118 time=0
note_off channel=10 note=62 velocity=118 time=0
note_on channel=10 note=69 velocity=118 time=64
note_on channel=10 note=69 velocity=118 time=0
note_on channel=10 note=69 velocity=118 time=0
note_on channel=10 note=69 velocity=118 time=0
note_on channel=10 note=69 velocity=118 time=0
note_on channel=10 note=57 velocity=118 time=0
note_on channel=10 note=57 velocity=118 time=0
note_on channel=10 note=57 velocity=118 time=0
note_on channel=10 note=57 velocity=118 time=0
note_on channel=10 note=57 velocity=118 time=0
note_off channel=10 note=69 velocity=118 time=64
note_off channel=10 note=69 velocity=118 time=0
note_off channel=10 note=69 velocity=118 time=0
note_off channel=10 note=69 velocity=118 time=0
note_off channel=10 note=69 velocity=118 time=0
note_off channel=10 note=57 velocity=118 time=0
note_off channel=10 note=57 velocity=118 time=0
note_off channel=10 note=57 velocity=118 time=0
note_off channel=10 note=57 velocity=118 time=0
note_off channel=10 note=57 velocity=118 time=0
note_on channel=10 note=67 velocity=118 time=32
note_on channel=10 note=67 velocity=118 time=0
note_on channel=10 note=67 velocity=118 time=0
note_on channel=10 note=67 velocity=118 time=0
note_on channel=10 note=67 velocity=118 time=0
note_on channel=10 note=55 velocity=118 time=0
note_on channel=10 note=55 velocity=118 time=0
note_on channel=10 note=55 velocity=118 time=0
note_on channel=10 note=55 velocity=118 time=0
note_on channel=10 note=55 velocity=118 time=0
note_off channel=10 note=67 velocity=118 time=64
note_off channel=10 note=67 velocity=118 time=0
note_off channel=10 note=67 velocity=118 time=0
note_off channel=10 note=67 velocity=118 time=0
note_off channel=10 note=67 velocity=118 time=0
note_off channel=10 note=55 velocity=118 time=0
note_off channel=10 note=55 velocity=118 time=0
note_off channel=10 note=55 velocity=118 time=0
note_off channel=10 note=55 velocity=118 time=0
note_off channel=10 note=55 velocity=118 time=0
note_on channel=10 note=69 velocity=118 time=32
note_on channel=10 note=69 velocity=118 time=0
note_on channel=10 note=69 velocity=118 time=0
note_on channel=10 note=69 velocity=118 time=0
note_on channel=10 note=69 velocity=118 time=0
note_on channel=10 note=57 velocity=118 time=0
note_on channel=10 note=57 velocity=118 time=0
note_on channel=10 note=57 velocity=118 time=0
note_on channel=10 note=57 velocity=118 time=0
note_on channel=10 note=57 velocity=118 time=0
note_off channel=10 note=69 velocity=118 time=64
note_off channel=10 note=69 velocity=118 time=0
note_off channel=10 note=69 velocity=118 time=0
note_off channel=10 note=69 velocity=118 time=0
note_off channel=10 note=69 velocity=118 time=0
note_off channel=10 note=57 velocity=118 time=0
note_off channel=10 note=57 velocity=118 time=0
note_off channel=10 note=57 velocity=118 time=0
note_off channel=10 note=57 velocity=118 time=0
note_off channel=10 note=57 velocity=118 time=0
note_on channel=10 note=67 velocity=118 time=32
note_on channel=10 note=67 velocity=118 time=0
note_on channel=10 note=67 velocity=118 time=0
note_on channel=10 note=67 velocity=118 time=0
note_on channel=10 note=67 velocity=118 time=0
note_on channel=10 note=55 velocity=118 time=0
note_on channel=10 note=55 velocity=118 time=0
note_on channel=10 note=55 velocity=118 time=0
note_on channel=10 note=55 velocity=118 time=0
note_on channel=10 note=55 velocity=118 time=0
note_off channel=10 note=67 velocity=118 time=64
note_off channel=10 note=67 velocity=118 time=0
note_off channel=10 note=67 velocity=118 time=0
note_off channel=10 note=67 velocity=118 time=0
note_off channel=10 note=67 velocity=118 time=0
note_off channel=10 note=55 velocity=118 time=0
note_off channel=10 note=55 velocity=118 time=0
note_off channel=10 note=55 velocity=118 time=0
note_off channel=10 note=55 velocity=118 time=0
note_off channel=10 note=55 velocity=118 time=0
note_on channel=10 note=71 velocity=118 time=32
note_on channel=10 note=71 velocity=118 time=0
note_on channel=10 note=71 velocity=118 time=0
note_on channel=10 note=71 velocity=118 time=0
note_on channel=10 note=71 velocity=118 time=0
note_on channel=10 note=59 velocity=118 time=0
note_on channel=10 note=59 velocity=118 time=0
note_on channel=10 note=59 velocity=118 time=0
note_on channel=10 note=59 velocity=118 time=0
note_on channel=10 note=59 velocity=118 time=0
note_off channel=10 note=71 velocity=118 time=128
note_off channel=10 note=71 velocity=118 time=0
note_off channel=10 note=71 velocity=118 time=0
note_off channel=10 note=71 velocity=118 time=0
note_off channel=10 note=71 velocity=118 time=0
note_off channel=10 note=59 velocity=118 time=0
note_off channel=10 note=59 velocity=118 time=0
note_off channel=10 note=59 velocity=118 time=0
note_off channel=10 note=59 velocity=118 time=0
note_off channel=10 note=59 velocity=118 time=0
note_on channel=10 note=67 velocity=118 time=64
note_on channel=10 note=67 velocity=118 time=0
note_on channel=10 note=67 velocity=118 time=0
note_on channel=10 note=67 velocity=118 time=0
note_on channel=10 note=67 velocity=118 time=0
note_on channel=10 note=55 velocity=118 time=0
note_on channel=10 note=55 velocity=118 time=0
note_on channel=10 note=55 velocity=118 time=0
note_on channel=10 note=55 velocity=118 time=0
note_on channel=10 note=55 velocity=118 time=0
note_on channel=10 note=64 velocity=118 time=96
note_on channel=10 note=64 velocity=118 time=0
note_on channel=10 note=64 velocity=118 time=0
note_on channel=10 note=64 velocity=118 time=0
note_on channel=10 note=64 velocity=118 time=0
note_on channel=10 note=52 velocity=118 time=0
note_on channel=10 note=52 velocity=118 time=0
note_on channel=10 note=52 velocity=118 time=0
note_on channel=10 note=52 velocity=118 time=0
note_on channel=10 note=52 velocity=118 time=0
note_off channel=10 note=67 velocity=118 time=160
note_off channel=10 note=67 velocity=118 time=0
note_off channel=10 note=67 velocity=118 time=0
note_off channel=10 note=67 velocity=118 time=0
note_off channel=10 note=67 velocity=118 time=0
note_off channel=10 note=55 velocity=118 time=0
note_off channel=10 note=55 velocity=118 time=0
note_off channel=10 note=55 velocity=118 time=0
note_off channel=10 note=55 velocity=118 time=0
note_off channel=10 note=55 velocity=118 time=0
note_off channel=10 note=64 velocity=118 time=32
note_off channel=10 note=64 velocity=118 time=0
note_off channel=10 note=64 velocity=118 time=0
note_off channel=10 note=64 velocity=118 time=0
note_off channel=10 note=64 velocity=118 time=0
note_off channel=10 note=52 velocity=118 time=0
note_off channel=10 note=52 velocity=118 time=0
note_off channel=10 note=52 velocity=118 time=0
note_off channel=10 note=52 velocity=118 time=0
note_off channel=10 note=52 velocity=118 time=0
note_on channel=10 note=71 velocity=118 time=192
note_on channel=10 note=71 velocity=118 time=0
note_on channel=10 note=71 velocity=118 time=0
note_on channel=10 note=71 velocity=118 time=0
note_on channel=10 note=71 velocity=118 time=0
note_on channel=10 note=59 velocity=118 time=0
note_on channel=10 note=59 velocity=118 time=0
note_on channel=10 note=59 velocity=118 time=0
note_on channel=10 note=59 velocity=118 time=0
note_on channel=10 note=59 velocity=118 time=0
note_off channel=10 note=71 velocity=118 time=64
note_off channel=10 note=71 velocity=118 time=0
note_off channel=10 note=71 velocity=118 time=0
note_off channel=10 note=71 velocity=118 time=0
note_off channel=10 note=71 velocity=118 time=0
note_off channel=10 note=59 velocity=118 time=0
note_off channel=10 note=59 velocity=118 time=0
note_off channel=10 note=59 velocity=118 time=0
note_off channel=10 note=59 velocity=118 time=0
note_off channel=10 note=59 velocity=118 time=0
note_on channel=10 note=71 velocity=118 time=32
note_on channel=10 note=71 velocity=118 time=0
note_on channel=10 note=71 velocity=118 time=0
note_on channel=10 note=71 velocity=118 time=0
note_on channel=10 note=71 velocity=118 time=0
note_on channel=10 note=59 velocity=118 time=0
note_on channel=10 note=59 velocity=118 time=0
note_on channel=10 note=59 velocity=118 time=0
note_on channel=10 note=59 velocity=118 time=0
note_on channel=10 note=59 velocity=118 time=0
note_off channel=10 note=71 velocity=118 time=64
note_off channel=10 note=71 velocity=118 time=0
note_off channel=10 note=71 velocity=118 time=0
note_off channel=10 note=71 velocity=118 time=0
note_off channel=10 note=71 velocity=118 time=0
note_off channel=10 note=59 velocity=118 time=0
note_off channel=10 note=59 velocity=118 time=0
note_off channel=10 note=59 velocity=118 time=0
note_off channel=10 note=59 velocity=118 time=0
note_off channel=10 note=59 velocity=118 time=0
note_on channel=10 note=71 velocity=118 time=32
note_on channel=10 note=71 velocity=118 time=0
note_on channel=10 note=71 velocity=118 time=0
note_on channel=10 note=71 velocity=118 time=0
note_on channel=10 note=71 velocity=118 time=0
note_on channel=10 note=59 velocity=118 time=0
note_on channel=10 note=59 velocity=118 time=0
note_on channel=10 note=59 velocity=118 time=0
note_on channel=10 note=59 velocity=118 time=0
note_on channel=10 note=59 velocity=118 time=0
note_off channel=10 note=71 velocity=118 time=64
note_off channel=10 note=71 velocity=118 time=0
note_off channel=10 note=71 velocity=118 time=0
note_off channel=10 note=71 velocity=118 time=0
note_off channel=10 note=71 velocity=118 time=0
note_off channel=10 note=59 velocity=118 time=0
note_off channel=10 note=59 velocity=118 time=0
note_off channel=10 note=59 velocity=118 time=0
note_off channel=10 note=59 velocity=118 time=0
note_off channel=10 note=59 velocity=118 time=0
note_on channel=10 note=69 velocity=118 time=32
note_on channel=10 note=69 velocity=118 time=0
note_on channel=10 note=69 velocity=118 time=0
note_on channel=10 note=69 velocity=118 time=0
note_on channel=10 note=69 velocity=118 time=0
note_on channel=10 note=57 velocity=118 time=0
note_on channel=10 note=57 velocity=118 time=0
note_on channel=10 note=57 velocity=118 time=0
note_on channel=10 note=57 velocity=118 time=0
note_on channel=10 note=57 velocity=118 time=0
note_off channel=10 note=69 velocity=118 time=128
note_off channel=10 note=69 velocity=118 time=0
note_off channel=10 note=69 velocity=118 time=0
note_off channel=10 note=69 velocity=118 time=0
note_off channel=10 note=69 velocity=118 time=0
note_off channel=10 note=57 velocity=118 time=0
note_off channel=10 note=57 velocity=118 time=0
note_off channel=10 note=57 velocity=118 time=0
note_off channel=10 note=57 velocity=118 time=0
note_off channel=10 note=57 velocity=118 time=0
note_on channel=10 note=71 velocity=118 time=64
note_on channel=10 note=71 velocity=118 time=0
note_on channel=10 note=71 velocity=118 time=0
note_on channel=10 note=71 velocity=118 time=0
note_on channel=10 note=71 velocity=118 time=0
note_on channel=10 note=59 velocity=118 time=0
note_on channel=10 note=59 velocity=118 time=0
note_on channel=10 note=59 velocity=118 time=0
note_on channel=10 note=59 velocity=118 time=0
note_on channel=10 note=59 velocity=118 time=0
note_off channel=10 note=71 velocity=118 time=64
note_off channel=10 note=71 velocity=118 time=0
note_off channel=10 note=71 velocity=118 time=0
note_off channel=10 note=71 velocity=118 time=0
note_off channel=10 note=71 velocity=118 time=0
note_off channel=10 note=59 velocity=118 time=0
note_off channel=10 note=59 velocity=118 time=0
note_off channel=10 note=59 velocity=118 time=0
note_off channel=10 note=59 velocity=118 time=0
note_off channel=10 note=59 velocity=118 time=0
note_on channel=10 note=71 velocity=118 time=32
note_on channel=10 note=71 velocity=118 time=0
note_on channel=10 note=71 velocity=118 time=0
note_on channel=10 note=71 velocity=118 time=0
note_on channel=10 note=71 velocity=118 time=0
note_on channel=10 note=59 velocity=118 time=0
note_on channel=10 note=59 velocity=118 time=0
note_on channel=10 note=59 velocity=118 time=0
note_on channel=10 note=59 velocity=118 time=0
note_on channel=10 note=59 velocity=118 time=0
note_off channel=10 note=71 velocity=118 time=64
note_off channel=10 note=71 velocity=118 time=0
note_off channel=10 note=71 velocity=118 time=0
note_off channel=10 note=71 velocity=118 time=0
note_off channel=10 note=71 velocity=118 time=0
note_off channel=10 note=59 velocity=118 time=0
note_off channel=10 note=59 velocity=118 time=0
note_off channel=10 note=59 velocity=118 time=0
note_off channel=10 note=59 velocity=118 time=0
note_off channel=10 note=59 velocity=118 time=0
note_on channel=10 note=74 velocity=118 time=32
note_on channel=10 note=74 velocity=118 time=0
note_on channel=10 note=74 velocity=118 time=0
note_on channel=10 note=74 velocity=118 time=0
note_on channel=10 note=74 velocity=118 time=0
note_on channel=10 note=62 velocity=118 time=0
note_on channel=10 note=62 velocity=118 time=0
note_on channel=10 note=62 velocity=118 time=0
note_on channel=10 note=62 velocity=118 time=0
note_on channel=10 note=62 velocity=118 time=0
note_off channel=10 note=74 velocity=118 time=64
note_off channel=10 note=74 velocity=118 time=0
note_off channel=10 note=74 velocity=118 time=0
note_off channel=10 note=74 velocity=118 time=0
note_off channel=10 note=74 velocity=118 time=0
note_off channel=10 note=62 velocity=118 time=0
note_off channel=10 note=62 velocity=118 time=0
note_off channel=10 note=62 velocity=118 time=0
note_off channel=10 note=62 velocity=118 time=0
note_off channel=10 note=62 velocity=118 time=0
note_on channel=10 note=74 velocity=118 time=32
note_on channel=10 note=74 velocity=118 time=0
note_on channel=10 note=74 velocity=118 time=0
note_on channel=10 note=74 velocity=118 time=0
note_on channel=10 note=74 velocity=118 time=0
note_on channel=10 note=62 velocity=118 time=0
note_on channel=10 note=62 velocity=118 time=0
note_on channel=10 note=62 velocity=118 time=0
note_on channel=10 note=62 velocity=118 time=0
note_on channel=10 note=62 velocity=118 time=0
note_off channel=10 note=74 velocity=118 time=64
note_off channel=10 note=74 velocity=118 time=0
note_off channel=10 note=74 velocity=118 time=0
note_off channel=10 note=74 velocity=118 time=0
note_off channel=10 note=74 velocity=118 time=0
note_off channel=10 note=62 velocity=118 time=0
note_off channel=10 note=62 velocity=118 time=0
note_off channel=10 note=62 velocity=118 time=0
note_off channel=10 note=62 velocity=118 time=0
note_off channel=10 note=62 velocity=118 time=0
note_on channel=10 note=74 velocity=118 time=32
note_on channel=10 note=74 velocity=118 time=0
note_on channel=10 note=74 velocity=118 time=0
note_on channel=10 note=74 velocity=118 time=0
note_on channel=10 note=74 velocity=118 time=0
note_on channel=10 note=62 velocity=118 time=0
note_on channel=10 note=62 velocity=118 time=0
note_on channel=10 note=62 velocity=118 time=0
note_on channel=10 note=62 velocity=118 time=0
note_on channel=10 note=62 velocity=118 time=0
note_off channel=10 note=74 velocity=118 time=128
note_off channel=10 note=74 velocity=118 time=0
note_off channel=10 note=74 velocity=118 time=0
note_off channel=10 note=74 velocity=118 time=0
note_off channel=10 note=74 velocity=118 time=0
note_off channel=10 note=62 velocity=118 time=0
note_off channel=10 note=62 velocity=118 time=0
note_off channel=10 note=62 velocity=118 time=0
note_off channel=10 note=62 velocity=118 time=0
note_off channel=10 note=62 velocity=118 time=0
note_on channel=10 note=76 velocity=118 time=160
note_on channel=10 note=76 velocity=118 time=0
note_on channel=10 note=76 velocity=118 time=0
note_on channel=10 note=76 velocity=118 time=0
note_on channel=10 note=76 velocity=118 time=0
note_on channel=10 note=64 velocity=118 time=0
note_on channel=10 note=64 velocity=118 time=0
note_on channel=10 note=64 velocity=118 time=0
note_on channel=10 note=64 velocity=118 time=0
note_on channel=10 note=64 velocity=118 time=0
note_off channel=10 note=76 velocity=118 time=64
note_off channel=10 note=76 velocity=118 time=0
note_off channel=10 note=76 velocity=118 time=0
note_off channel=10 note=76 velocity=118 time=0
note_off channel=10 note=76 velocity=118 time=0
note_off channel=10 note=64 velocity=118 time=0
note_off channel=10 note=64 velocity=118 time=0
note_off channel=10 note=64 velocity=118 time=0
note_off channel=10 note=64 velocity=118 time=0
note_off channel=10 note=64 velocity=118 time=0
note_on channel=10 note=76 velocity=118 time=32
note_on channel=10 note=76 velocity=118 time=0
note_on channel=10 note=76 velocity=118 time=0
note_on channel=10 note=76 velocity=118 time=0
note_on channel=10 note=76 velocity=118 time=0
note_on channel=10 note=64 velocity=118 time=0
note_on channel=10 note=64 velocity=118 time=0
note_on channel=10 note=64 velocity=118 time=0
note_on channel=10 note=64 velocity=118 time=0
note_on channel=10 note=64 velocity=118 time=0
note_off channel=10 note=76 velocity=118 time=128
note_off channel=10 note=76 velocity=118 time=0
note_off channel=10 note=76 velocity=118 time=0
note_off channel=10 note=76 velocity=118 time=0
note_off channel=10 note=76 velocity=118 time=0
note_off channel=10 note=64 velocity=118 time=0
note_off channel=10 note=64 velocity=118 time=0
note_off channel=10 note=64 velocity=118 time=0
note_off channel=10 note=64 velocity=118 time=0
note_off channel=10 note=64 velocity=118 time=0
note_on channel=10 note=76 velocity=118 time=256
note_on channel=10 note=76 velocity=118 time=0
note_on channel=10 note=76 velocity=118 time=0
note_on channel=10 note=76 velocity=118 time=0
note_on channel=10 note=76 velocity=118 time=0
note_on channel=10 note=64 velocity=118 time=0
note_on channel=10 note=64 velocity=118 time=0
note_on channel=10 note=64 velocity=118 time=0
note_on channel=10 note=64 velocity=118 time=0
note_on channel=10 note=64 velocity=118 time=0
note_off channel=10 note=76 velocity=118 time=128
note_off channel=10 note=76 velocity=118 time=0
note_off channel=10 note=76 velocity=118 time=0
note_off channel=10 note=76 velocity=118 time=0
note_off channel=10 note=76 velocity=118 time=0
note_off channel=10 note=64 velocity=118 time=0
note_off channel=10 note=64 velocity=118 time=0
note_off channel=10 note=64 velocity=118 time=0
note_off channel=10 note=64 velocity=118 time=0
note_off channel=10 note=64 velocity=118 time=0
note_on channel=10 note=76 velocity=118 time=64
note_on channel=10 note=76 velocity=118 time=0
note_on channel=10 note=76 velocity=118 time=0
note_on channel=10 note=76 velocity=118 time=0
note_on channel=10 note=76 velocity=118 time=0
note_on channel=10 note=64 velocity=118 time=0
note_on channel=10 note=64 velocity=118 time=0
note_on channel=10 note=64 velocity=118 time=0
note_on channel=10 note=64 velocity=118 time=0
note_on channel=10 note=64 velocity=118 time=0
note_off channel=10 note=76 velocity=118 time=256
note_off channel=10 note=76 velocity=118 time=0
note_off channel=10 note=76 velocity=118 time=0
note_off channel=10 note=76 velocity=118 time=0
note_off channel=10 note=76 velocity=118 time=0
note_off channel=10 note=64 velocity=118 time=0
note_off channel=10 note=64 velocity=118 time=0
note_off channel=10 note=64 velocity=118 time=0
note_off channel=10 note=64 velocity=118 time=0
note_off channel=10 note=64 velocity=118 time=0
note_on channel=10 note=74 velocity=118 time=320
note_on channel=10 note=74 velocity=118 time=0
note_on channel=10 note=74 velocity=118 time=0
note_on channel=10 note=74 velocity=118 time=0
note_on channel=10 note=74 velocity=118 time=0
note_on channel=10 note=62 velocity=118 time=0
note_on channel=10 note=62 velocity=118 time=0
note_on channel=10 note=62 velocity=118 time=0
note_on channel=10 note=62 velocity=118 time=0
note_on channel=10 note=62 velocity=118 time=0
note_off channel=10 note=74 velocity=118 time=128
note_off channel=10 note=74 velocity=118 time=0
note_off channel=10 note=74 velocity=118 time=0
note_off channel=10 note=74 velocity=118 time=0
note_off channel=10 note=74 velocity=118 time=0
note_off channel=10 note=62 velocity=118 time=0
note_off channel=10 note=62 velocity=118 time=0
note_off channel=10 note=62 velocity=118 time=0
note_off channel=10 note=62 velocity=118 time=0
note_off channel=10 note=62 velocity=118 time=0
note_on channel=10 note=76 velocity=118 time=64
note_on channel=10 note=76 velocity=118 time=0
note_on channel=10 note=76 velocity=118 time=0
note_on channel=10 note=76 velocity=118 time=0
note_on channel=10 note=76 velocity=118 time=0
note_on channel=10 note=64 velocity=118 time=0
note_on channel=10 note=64 velocity=118 time=0
note_on channel=10 note=64 velocity=118 time=0
note_on channel=10 note=64 velocity=118 time=0
note_on channel=10 note=64 velocity=118 time=0
note_off channel=10 note=76 velocity=118 time=128
note_off channel=10 note=76 velocity=118 time=0
note_off channel=10 note=76 velocity=118 time=0
note_off channel=10 note=76 velocity=118 time=0
note_off channel=10 note=76 velocity=118 time=0
note_off channel=10 note=64 velocity=118 time=0
note_off channel=10 note=64 velocity=118 time=0
note_off channel=10 note=64 velocity=118 time=0
note_off channel=10 note=64 velocity=118 time=0
note_off channel=10 note=64 velocity=118 time=0
note_on channel=10 note=71 velocity=118 time=64
note_on channel=10 note=71 velocity=118 time=0
note_on channel=10 note=71 velocity=118 time=0
note_on channel=10 note=71 velocity=118 time=0
note_on channel=10 note=71 velocity=118 time=0
note_on channel=10 note=59 velocity=118 time=0
note_on channel=10 note=59 velocity=118 time=0
note_on channel=10 note=59 velocity=118 time=0
note_on channel=10 note=59 velocity=118 time=0
note_on channel=10 note=59 velocity=118 time=0
note_off channel=10 note=71 velocity=118 time=128
note_off channel=10 note=71 velocity=118 time=0
note_off channel=10 note=71 velocity=118 time=0
note_off channel=10 note=71 velocity=118 time=0
note_off channel=10 note=71 velocity=118 time=0
note_off channel=10 note=59 velocity=118 time=0
note_off channel=10 note=59 velocity=118 time=0
note_off channel=10 note=59 velocity=118 time=0
note_off channel=10 note=59 velocity=118 time=0
note_off channel=10 note=59 velocity=118 time=0
note_on channel=10 note=71 velocity=118 time=64
note_on channel=10 note=71 velocity=118 time=0
note_on channel=10 note=71 velocity=118 time=0
note_on channel=10 note=71 velocity=118 time=0
note_on channel=10 note=71 velocity=118 time=0
note_on channel=10 note=59 velocity=118 time=0
note_on channel=10 note=59 velocity=118 time=0
note_on channel=10 note=59 velocity=118 time=0
note_on channel=10 note=59 velocity=118 time=0
note_on channel=10 note=59 velocity=118 time=0
note_off channel=10 note=71 velocity=118 time=64
note_off channel=10 note=71 velocity=118 time=0
note_off channel=10 note=71 velocity=118 time=0
note_off channel=10 note=71 velocity=118 time=0
note_off channel=10 note=71 velocity=118 time=0
note_off channel=10 note=59 velocity=118 time=0
note_off channel=10 note=59 velocity=118 time=0
note_off channel=10 note=59 velocity=118 time=0
note_off channel=10 note=59 velocity=118 time=0
note_off channel=10 note=59 velocity=118 time=0
note_on channel=10 note=71 velocity=118 time=32
note_on channel=10 note=71 velocity=118 time=0
note_on channel=10 note=71 velocity=118 time=0
note_on channel=10 note=71 velocity=118 time=0
note_on channel=10 note=71 velocity=118 time=0
note_on channel=10 note=59 velocity=118 time=0
note_on channel=10 note=59 velocity=118 time=0
note_on channel=10 note=59 velocity=118 time=0
note_on channel=10 note=59 velocity=118 time=0
note_on channel=10 note=59 velocity=118 time=0
note_off channel=10 note=71 velocity=118 time=64
note_off channel=10 note=71 velocity=118 time=0
note_off channel=10 note=71 velocity=118 time=0
note_off channel=10 note=71 velocity=118 time=0
note_off channel=10 note=71 velocity=118 time=0
note_off channel=10 note=59 velocity=118 time=0
note_off channel=10 note=59 velocity=118 time=0
note_off channel=10 note=59 velocity=118 time=0
note_off channel=10 note=59 velocity=118 time=0
note_off channel=10 note=59 velocity=118 time=0
note_on channel=10 note=71 velocity=118 time=32
note_on channel=10 note=71 velocity=118 time=0
note_on channel=10 note=71 velocity=118 time=0
note_on channel=10 note=71 velocity=118 time=0
note_on channel=10 note=71 velocity=118 time=0
note_on channel=10 note=59 velocity=118 time=0
note_on channel=10 note=59 velocity=118 time=0
note_on channel=10 note=59 velocity=118 time=0
note_on channel=10 note=59 velocity=118 time=0
note_on channel=10 note=59 velocity=118 time=0
note_off channel=10 note=71 velocity=118 time=64
note_off channel=10 note=71 velocity=118 time=0
note_off channel=10 note=71 velocity=118 time=0
note_off channel=10 note=71 velocity=118 time=0
note_off channel=10 note=71 velocity=118 time=0
note_off channel=10 note=59 velocity=118 time=0
note_off channel=10 note=59 velocity=118 time=0
note_off channel=10 note=59 velocity=118 time=0
note_off channel=10 note=59 velocity=118 time=0
note_off channel=10 note=59 velocity=118 time=0
note_on channel=10 note=71 velocity=118 time=32
note_on channel=10 note=71 velocity=118 time=0
note_on channel=10 note=71 velocity=118 time=0
note_on channel=10 note=71 velocity=118 time=0
note_on channel=10 note=71 velocity=118 time=0
note_on channel=10 note=59 velocity=118 time=0
note_on channel=10 note=59 velocity=118 time=0
note_on channel=10 note=59 velocity=118 time=0
note_on channel=10 note=59 velocity=118 time=0
note_on channel=10 note=59 velocity=118 time=0
note_off channel=10 note=71 velocity=118 time=64
note_off channel=10 note=71 velocity=118 time=0
note_off channel=10 note=71 velocity=118 time=0
note_off channel=10 note=71 velocity=118 time=0
note_off channel=10 note=71 velocity=118 time=0
note_off channel=10 note=59 velocity=118 time=0
note_off channel=10 note=59 velocity=118 time=0
note_off channel=10 note=59 velocity=118 time=0
note_off channel=10 note=59 velocity=118 time=0
note_off channel=10 note=59 velocity=118 time=0
note_on channel=10 note=71 velocity=118 time=32
note_on channel=10 note=71 velocity=118 time=0
note_on channel=10 note=71 velocity=118 time=0
note_on channel=10 note=71 velocity=118 time=0
note_on channel=10 note=71 velocity=118 time=0
note_on channel=10 note=59 velocity=118 time=0
note_on channel=10 note=59 velocity=118 time=0
note_on channel=10 note=59 velocity=118 time=0
note_on channel=10 note=59 velocity=118 time=0
note_on channel=10 note=59 velocity=118 time=0
note_off channel=10 note=71 velocity=118 time=64
note_off channel=10 note=71 velocity=118 time=0
note_off channel=10 note=71 velocity=118 time=0
note_off channel=10 note=71 velocity=118 time=0
note_off channel=10 note=71 velocity=118 time=0
note_off channel=10 note=59 velocity=118 time=0
note_off channel=10 note=59 velocity=118 time=0
note_off channel=10 note=59 velocity=118 time=0
note_off channel=10 note=59 velocity=118 time=0
note_off channel=10 note=59 velocity=118 time=0
note_on channel=10 note=71 velocity=118 time=32
note_on channel=10 note=71 velocity=118 time=0
note_on channel=10 note=71 velocity=118 time=0
note_on channel=10 note=71 velocity=118 time=0
note_on channel=10 note=71 velocity=118 time=0
note_on channel=10 note=59 velocity=118 time=0
note_on channel=10 note=59 velocity=118 time=0
note_on channel=10 note=59 velocity=118 time=0
note_on channel=10 note=59 velocity=118 time=0
note_on channel=10 note=59 velocity=118 time=0
note_off channel=10 note=71 velocity=118 time=64
note_off channel=10 note=71 velocity=118 time=0
note_off channel=10 note=71 velocity=118 time=0
note_off channel=10 note=71 velocity=118 time=0
note_off channel=10 note=71 velocity=118 time=0
note_off channel=10 note=59 velocity=118 time=0
note_off channel=10 note=59 velocity=118 time=0
note_off channel=10 note=59 velocity=118 time=0
note_off channel=10 note=59 velocity=118 time=0
note_off channel=10 note=59 velocity=118 time=0
note_on channel=10 note=71 velocity=118 time=32
note_on channel=10 note=71 velocity=118 time=0
note_on channel=10 note=71 velocity=118 time=0
note_on channel=10 note=71 velocity=118 time=0
note_on channel=10 note=71 velocity=118 time=0
note_on channel=10 note=59 velocity=118 time=0
note_on channel=10 note=59 velocity=118 time=0
note_on channel=10 note=59 velocity=118 time=0
note_on channel=10 note=59 velocity=118 time=0
note_on channel=10 note=59 velocity=118 time=0
note_off channel=10 note=71 velocity=118 time=64
note_off channel=10 note=71 velocity=118 time=0
note_off channel=10 note=71 velocity=118 time=0
note_off channel=10 note=71 velocity=118 time=0
note_off channel=10 note=71 velocity=118 time=0
note_off channel=10 note=59 velocity=118 time=0
note_off channel=10 note=59 velocity=118 time=0
note_off channel=10 note=59 velocity=118 time=0
note_off channel=10 note=59 velocity=118 time=0
note_off channel=10 note=59 velocity=118 time=0
note_on channel=10 note=71 velocity=118 time=32
note_on channel=10 note=71 velocity=118 time=0
note_on channel=10 note=71 velocity=118 time=0
note_on channel=10 note=71 velocity=118 time=0
note_on channel=10 note=71 velocity=118 time=0
note_on channel=10 note=59 velocity=118 time=0
note_on channel=10 note=59 velocity=118 time=0
note_on channel=10 note=59 velocity=118 time=0
note_on channel=10 note=59 velocity=118 time=0
note_on channel=10 note=59 velocity=118 time=0
note_off channel=10 note=71 velocity=118 time=64
note_off channel=10 note=71 velocity=118 time=0
note_off channel=10 note=71 velocity=118 time=0
note_off channel=10 note=71 velocity=118 time=0
note_off channel=10 note=71 velocity=118 time=0
note_off channel=10 note=59 velocity=118 time=0
note_off channel=10 note=59 velocity=118 time=0
note_off channel=10 note=59 velocity=118 time=0
note_off channel=10 note=59 velocity=118 time=0
note_off channel=10 note=59 velocity=118 time=0
note_on channel=10 note=74 velocity=118 time=32
note_on channel=10 note=74 velocity=118 time=0
note_on channel=10 note=74 velocity=118 time=0
note_on channel=10 note=74 velocity=118 time=0
note_on channel=10 note=74 velocity=118 time=0
note_on channel=10 note=62 velocity=118 time=0
note_on channel=10 note=62 velocity=118 time=0
note_on channel=10 note=62 velocity=118 time=0
note_on channel=10 note=62 velocity=118 time=0
note_on channel=10 note=62 velocity=118 time=0
note_off channel=10 note=74 velocity=118 time=64
note_off channel=10 note=74 velocity=118 time=0
note_off channel=10 note=74 velocity=118 time=0
note_off channel=10 note=74 velocity=118 time=0
note_off channel=10 note=74 velocity=118 time=0
note_off channel=10 note=62 velocity=118 time=0
note_off channel=10 note=62 velocity=118 time=0
note_off channel=10 note=62 velocity=118 time=0
note_off channel=10 note=62 velocity=118 time=0
note_off channel=10 note=62 velocity=118 time=0
note_on channel=10 note=74 velocity=118 time=32
note_on channel=10 note=74 velocity=118 time=0
note_on channel=10 note=74 velocity=118 time=0
note_on channel=10 note=74 velocity=118 time=0
note_on channel=10 note=74 velocity=118 time=0
note_on channel=10 note=62 velocity=118 time=0
note_on channel=10 note=62 velocity=118 time=0
note_on channel=10 note=62 velocity=118 time=0
note_on channel=10 note=62 velocity=118 time=0
note_on channel=10 note=62 velocity=118 time=0
note_off channel=10 note=74 velocity=118 time=64
note_off channel=10 note=74 velocity=118 time=0
note_off channel=10 note=74 velocity=118 time=0
note_off channel=10 note=74 velocity=118 time=0
note_off channel=10 note=74 velocity=118 time=0
note_off channel=10 note=62 velocity=118 time=0
note_off channel=10 note=62 velocity=118 time=0
note_off channel=10 note=62 velocity=118 time=0
note_off channel=10 note=62 velocity=118 time=0
note_off channel=10 note=62 velocity=118 time=0
note_on channel=10 note=71 velocity=118 time=32
note_on channel=10 note=71 velocity=118 time=0
note_on channel=10 note=71 velocity=118 time=0
note_on channel=10 note=71 velocity=118 time=0
note_on channel=10 note=71 velocity=118 time=0
note_on channel=10 note=59 velocity=118 time=0
note_on channel=10 note=59 velocity=118 time=0
note_on channel=10 note=59 velocity=118 time=0
note_on channel=10 note=59 velocity=118 time=0
note_on channel=10 note=59 velocity=118 time=0
note_off channel=10 note=71 velocity=118 time=128
note_off channel=10 note=71 velocity=118 time=0
note_off channel=10 note=71 velocity=118 time=0
note_off channel=10 note=71 velocity=118 time=0
note_off channel=10 note=71 velocity=118 time=0
note_off channel=10 note=59 velocity=118 time=0
note_off channel=10 note=59 velocity=118 time=0
note_off channel=10 note=59 velocity=118 time=0
note_off channel=10 note=59 velocity=118 time=0
note_off channel=10 note=59 velocity=118 time=0
note_on channel=10 note=71 velocity=118 time=160
note_on channel=10 note=71 velocity=118 time=0
note_on channel=10 note=71 velocity=118 time=0
note_on channel=10 note=71 velocity=118 time=0
note_on channel=10 note=71 velocity=118 time=0
note_on channel=10 note=59 velocity=118 time=0
note_on channel=10 note=59 velocity=118 time=0
note_on channel=10 note=59 velocity=118 time=0
note_on channel=10 note=59 velocity=118 time=0
note_on channel=10 note=59 velocity=118 time=0
note_off channel=10 note=71 velocity=118 time=64
note_off channel=10 note=71 velocity=118 time=0
note_off channel=10 note=71 velocity=118 time=0
note_off channel=10 note=71 velocity=118 time=0
note_off channel=10 note=71 velocity=118 time=0
note_off channel=10 note=59 velocity=118 time=0
note_off channel=10 note=59 velocity=118 time=0
note_off channel=10 note=59 velocity=118 time=0
note_off channel=10 note=59 velocity=118 time=0
note_off channel=10 note=59 velocity=118 time=0
note_on channel=10 note=74 velocity=118 time=32
note_on channel=10 note=74 velocity=118 time=0
note_on channel=10 note=74 velocity=118 time=0
note_on channel=10 note=74 velocity=118 time=0
note_on channel=10 note=74 velocity=118 time=0
note_on channel=10 note=62 velocity=118 time=0
note_on channel=10 note=62 velocity=118 time=0
note_on channel=10 note=62 velocity=118 time=0
note_on channel=10 note=62 velocity=118 time=0
note_on channel=10 note=62 velocity=118 time=0
note_off channel=10 note=74 velocity=118 time=128
note_off channel=10 note=74 velocity=118 time=0
note_off channel=10 note=74 velocity=118 time=0
note_off channel=10 note=74 velocity=118 time=0
note_off channel=10 note=74 velocity=118 time=0
note_off channel=10 note=62 velocity=118 time=0
note_off channel=10 note=62 velocity=118 time=0
note_off channel=10 note=62 velocity=118 time=0
note_off channel=10 note=62 velocity=118 time=0
note_off channel=10 note=62 velocity=118 time=0
note_on channel=10 note=71 velocity=118 time=64
note_on channel=10 note=71 velocity=118 time=0
note_on channel=10 note=71 velocity=118 time=0
note_on channel=10 note=71 velocity=118 time=0
note_on channel=10 note=71 velocity=118 time=0
note_on channel=10 note=59 velocity=118 time=0
note_on channel=10 note=59 velocity=118 time=0
note_on channel=10 note=59 velocity=118 time=0
note_on channel=10 note=59 velocity=118 time=0
note_on channel=10 note=59 velocity=118 time=0
note_off channel=10 note=71 velocity=118 time=256
note_off channel=10 note=71 velocity=118 time=0
note_off channel=10 note=71 velocity=118 time=0
note_off channel=10 note=71 velocity=118 time=0
note_off channel=10 note=71 velocity=118 time=0
note_off channel=10 note=59 velocity=118 time=0
note_off channel=10 note=59 velocity=118 time=0
note_off channel=10 note=59 velocity=118 time=0
note_off channel=10 note=59 velocity=118 time=0
note_off channel=10 note=59 velocity=118 time=0
note_on channel=10 note=71 velocity=118 time=896
note_on channel=10 note=71 velocity=118 time=0
note_on channel=10 note=71 velocity=118 time=0
note_on channel=10 note=71 velocity=118 time=0
note_on channel=10 note=71 velocity=118 time=0
note_on channel=10 note=59 velocity=118 time=0
note_on channel=10 note=59 velocity=118 time=0
note_on channel=10 note=59 velocity=118 time=0
note_on channel=10 note=59 velocity=118 time=0
note_on channel=10 note=59 velocity=118 time=0
note_off channel=10 note=71 velocity=118 time=64
note_off channel=10 note=71 velocity=118 time=0
note_off channel=10 note=71 velocity=118 time=0
note_off channel=10 note=71 velocity=118 time=0
note_off channel=10 note=71 velocity=118 time=0
note_off channel=10 note=59 velocity=118 time=0
note_off channel=10 note=59 velocity=118 time=0
note_off channel=10 note=59 velocity=118 time=0
note_off channel=10 note=59 velocity=118 time=0
note_off channel=10 note=59 velocity=118 time=0
note_on channel=10 note=71 velocity=118 time=32
note_on channel=10 note=71 velocity=118 time=0
note_on channel=10 note=71 velocity=118 time=0
note_on channel=10 note=71 velocity=118 time=0
note_on channel=10 note=71 velocity=118 time=0
note_on channel=10 note=59 velocity=118 time=0
note_on channel=10 note=59 velocity=118 time=0
note_on channel=10 note=59 velocity=118 time=0
note_on channel=10 note=59 velocity=118 time=0
note_on channel=10 note=59 velocity=118 time=0
note_off channel=10 note=71 velocity=118 time=192
note_off channel=10 note=71 velocity=118 time=0
note_off channel=10 note=71 velocity=118 time=0
note_off channel=10 note=71 velocity=118 time=0
note_off channel=10 note=71 velocity=118 time=0
note_off channel=10 note=59 velocity=118 time=0
note_off channel=10 note=59 velocity=118 time=0
note_off channel=10 note=59 velocity=118 time=0
note_off channel=10 note=59 velocity=118 time=0
note_off channel=10 note=59 velocity=118 time=0
note_on channel=10 note=74 velocity=118 time=96
note_on channel=10 note=74 velocity=118 time=0
note_on channel=10 note=74 velocity=118 time=0
note_on channel=10 note=74 velocity=118 time=0
note_on channel=10 note=74 velocity=118 time=0
note_on channel=10 note=62 velocity=118 time=0
note_on channel=10 note=62 velocity=118 time=0
note_on channel=10 note=62 velocity=118 time=0
note_on channel=10 note=62 velocity=118 time=0
note_on channel=10 note=62 velocity=118 time=0
note_on channel=10 note=71 velocity=118 time=96
note_on channel=10 note=71 velocity=118 time=0
note_on channel=10 note=71 velocity=118 time=0
note_on channel=10 note=71 velocity=118 time=0
note_on channel=10 note=71 velocity=118 time=0
note_on channel=10 note=59 velocity=118 time=0
note_on channel=10 note=59 velocity=118 time=0
note_on channel=10 note=59 velocity=118 time=0
note_on channel=10 note=59 velocity=118 time=0
note_on channel=10 note=59 velocity=118 time=0
note_off channel=10 note=74 velocity=118 time=160
note_off channel=10 note=74 velocity=118 time=0
note_off channel=10 note=74 velocity=118 time=0
note_off channel=10 note=74 velocity=118 time=0
note_off channel=10 note=74 velocity=118 time=0
note_off channel=10 note=62 velocity=118 time=0
note_off channel=10 note=62 velocity=118 time=0
note_off channel=10 note=62 velocity=118 time=0
note_off channel=10 note=62 velocity=118 time=0
note_off channel=10 note=62 velocity=118 time=0
note_off channel=10 note=71 velocity=118 time=32
note_off channel=10 note=71 velocity=118 time=0
note_off channel=10 note=71 velocity=118 time=0
note_off channel=10 note=71 velocity=118 time=0
note_off channel=10 note=71 velocity=118 time=0
note_off channel=10 note=59 velocity=118 time=0
note_off channel=10 note=59 velocity=118 time=0
note_off channel=10 note=59 velocity=118 time=0
note_off channel=10 note=59 velocity=118 time=0
note_off channel=10 note=59 velocity=118 time=0
note_on channel=10 note=76 velocity=118 time=864
note_on channel=10 note=76 velocity=118 time=0
note_on channel=10 note=76 velocity=118 time=0
note_on channel=10 note=76 velocity=118 time=0
note_on channel=10 note=76 velocity=118 time=0
note_on channel=10 note=64 velocity=118 time=0
note_on channel=10 note=64 velocity=118 time=0
note_on channel=10 note=64 velocity=118 time=0
note_on channel=10 note=64 velocity=118 time=0
note_on channel=10 note=64 velocity=118 time=0
note_off channel=10 note=76 velocity=118 time=64
note_off channel=10 note=76 velocity=118 time=0
note_off channel=10 note=76 velocity=118 time=0
note_off channel=10 note=76 velocity=118 time=0
note_off channel=10 note=76 velocity=118 time=0
note_off channel=10 note=64 velocity=118 time=0
note_off channel=10 note=64 velocity=118 time=0
note_off channel=10 note=64 velocity=118 time=0
note_off channel=10 note=64 velocity=118 time=0
note_off channel=10 note=64 velocity=118 time=0
note_on channel=10 note=76 velocity=118 time=32
note_on channel=10 note=76 velocity=118 time=0
note_on channel=10 note=76 velocity=118 time=0
note_on channel=10 note=76 velocity=118 time=0
note_on channel=10 note=76 velocity=118 time=0
note_on channel=10 note=64 velocity=118 time=0
note_on channel=10 note=64 velocity=118 time=0
note_on channel=10 note=64 velocity=118 time=0
note_on channel=10 note=64 velocity=118 time=0
note_on channel=10 note=64 velocity=118 time=0
note_off channel=10 note=76 velocity=118 time=192
note_off channel=10 note=76 velocity=118 time=0
note_off channel=10 note=76 velocity=118 time=0
note_off channel=10 note=76 velocity=118 time=0
note_off channel=10 note=76 velocity=118 time=0
note_off channel=10 note=64 velocity=118 time=0
note_off channel=10 note=64 velocity=118 time=0
note_off channel=10 note=64 velocity=118 time=0
note_off channel=10 note=64 velocity=118 time=0
note_off channel=10 note=64 velocity=118 time=0
note_on channel=10 note=71 velocity=118 time=96
note_on channel=10 note=71 velocity=118 time=0
note_on channel=10 note=71 velocity=118 time=0
note_on channel=10 note=71 velocity=118 time=0
note_on channel=10 note=71 velocity=118 time=0
note_on channel=10 note=59 velocity=118 time=0
note_on channel=10 note=59 velocity=118 time=0
note_on channel=10 note=59 velocity=118 time=0
note_on channel=10 note=59 velocity=118 time=0
note_on channel=10 note=59 velocity=118 time=0
note_off channel=10 note=71 velocity=118 time=256
note_off channel=10 note=71 velocity=118 time=0
note_off channel=10 note=71 velocity=118 time=0
note_off channel=10 note=71 velocity=118 time=0
note_off channel=10 note=71 velocity=118 time=0
note_off channel=10 note=59 velocity=118 time=0
note_off channel=10 note=59 velocity=118 time=0
note_off channel=10 note=59 velocity=118 time=0
note_off channel=10 note=59 velocity=118 time=0
note_off channel=10 note=59 velocity=118 time=0
note_on channel=10 note=71 velocity=118 time=896
note_on channel=10 note=71 velocity=118 time=0
note_on channel=10 note=71 velocity=118 time=0
note_on channel=10 note=71 velocity=118 time=0
note_on channel=10 note=71 velocity=118 time=0
note_on channel=10 note=59 velocity=118 time=0
note_on channel=10 note=59 velocity=118 time=0
note_on channel=10 note=59 velocity=118 time=0
note_on channel=10 note=59 velocity=118 time=0
note_on channel=10 note=59 velocity=118 time=0
note_off channel=10 note=71 velocity=118 time=64
note_off channel=10 note=71 velocity=118 time=0
note_off channel=10 note=71 velocity=118 time=0
note_off channel=10 note=71 velocity=118 time=0
note_off channel=10 note=71 velocity=118 time=0
note_off channel=10 note=59 velocity=118 time=0
note_off channel=10 note=59 velocity=118 time=0
note_off channel=10 note=59 velocity=118 time=0
note_off channel=10 note=59 velocity=118 time=0
note_off channel=10 note=59 velocity=118 time=0
note_on channel=10 note=71 velocity=118 time=32
note_on channel=10 note=71 velocity=118 time=0
note_on channel=10 note=71 velocity=118 time=0
note_on channel=10 note=71 velocity=118 time=0
note_on channel=10 note=71 velocity=118 time=0
note_on channel=10 note=59 velocity=118 time=0
note_on channel=10 note=59 velocity=118 time=0
note_on channel=10 note=59 velocity=118 time=0
note_on channel=10 note=59 velocity=118 time=0
note_on channel=10 note=59 velocity=118 time=0
note_off channel=10 note=71 velocity=118 time=192
note_off channel=10 note=71 velocity=118 time=0
note_off channel=10 note=71 velocity=118 time=0
note_off channel=10 note=71 velocity=118 time=0
note_off channel=10 note=71 velocity=118 time=0
note_off channel=10 note=59 velocity=118 time=0
note_off channel=10 note=59 velocity=118 time=0
note_off channel=10 note=59 velocity=118 time=0
note_off channel=10 note=59 velocity=118 time=0
note_off channel=10 note=59 velocity=118 time=0
note_on channel=10 note=74 velocity=118 time=96
note_on channel=10 note=74 velocity=118 time=0
note_on channel=10 note=74 velocity=118 time=0
note_on channel=10 note=74 velocity=118 time=0
note_on channel=10 note=74 velocity=118 time=0
note_on channel=10 note=62 velocity=118 time=0
note_on channel=10 note=62 velocity=118 time=0
note_on channel=10 note=62 velocity=118 time=0
note_on channel=10 note=62 velocity=118 time=0
note_on channel=10 note=62 velocity=118 time=0
note_off channel=10 note=74 velocity=118 time=256
note_off channel=10 note=74 velocity=118 time=0
note_off channel=10 note=74 velocity=118 time=0
note_off channel=10 note=74 velocity=118 time=0
note_off channel=10 note=74 velocity=118 time=0
note_off channel=10 note=62 velocity=118 time=0
note_off channel=10 note=62 velocity=118 time=0
note_off channel=10 note=62 velocity=118 time=0
note_off channel=10 note=62 velocity=118 time=0
note_off channel=10 note=62 velocity=118 time=0
note_on channel=10 note=69 velocity=118 time=1472
note_on channel=10 note=69 velocity=118 time=0
note_on channel=10 note=69 velocity=118 time=0
note_on channel=10 note=69 velocity=118 time=0
note_on channel=10 note=69 velocity=118 time=0
note_on channel=10 note=57 velocity=118 time=0
note_on channel=10 note=57 velocity=118 time=0
note_on channel=10 note=57 velocity=118 time=0
note_on channel=10 note=57 velocity=118 time=0
note_on channel=10 note=57 velocity=118 time=0
note_off channel=10 note=69 velocity=118 time=384
note_off channel=10 note=69 velocity=118 time=0
note_off channel=10 note=69 velocity=118 time=0
note_off channel=10 note=69 velocity=118 time=0
note_off channel=10 note=69 velocity=118 time=0
note_off channel=10 note=57 velocity=118 time=0
note_off channel=10 note=57 velocity=118 time=0
note_off channel=10 note=57 velocity=118 time=0
note_off channel=10 note=57 velocity=118 time=0
note_off channel=10 note=57 velocity=118 time=0
note_on channel=10 note=71 velocity=118 time=0
note_on channel=10 note=71 velocity=118 time=0
note_on channel=10 note=71 velocity=118 time=0
note_on channel=10 note=71 velocity=118 time=0
note_on channel=10 note=71 velocity=118 time=0
note_on channel=10 note=59 velocity=118 time=0
note_on channel=10 note=59 velocity=118 time=0
note_on channel=10 note=59 velocity=118 time=0
note_on channel=10 note=59 velocity=118 time=0
note_on channel=10 note=59 velocity=118 time=0
note_off channel=10 note=71 velocity=118 time=128
note_off channel=10 note=71 velocity=118 time=0
note_off channel=10 note=71 velocity=118 time=0
note_off channel=10 note=71 velocity=118 time=0
note_off channel=10 note=71 velocity=118 time=0
note_off channel=10 note=59 velocity=118 time=0
note_off channel=10 note=59 velocity=118 time=0
note_off channel=10 note=59 velocity=118 time=0
note_off channel=10 note=59 velocity=118 time=0
note_off channel=10 note=59 velocity=118 time=0
note_on channel=10 note=73 velocity=118 time=64
note_on channel=10 note=73 velocity=118 time=0
note_on channel=10 note=73 velocity=118 time=0
note_on channel=10 note=73 velocity=118 time=0
note_on channel=10 note=73 velocity=118 time=0
note_on channel=10 note=61 velocity=118 time=0
note_on channel=10 note=61 velocity=118 time=0
note_on channel=10 note=61 velocity=118 time=0
note_on channel=10 note=61 velocity=118 time=0
note_on channel=10 note=61 velocity=118 time=0
note_off channel=10 note=73 velocity=118 time=192
note_off channel=10 note=73 velocity=118 time=0
note_off channel=10 note=73 velocity=118 time=0
note_off channel=10 note=73 velocity=118 time=0
note_off channel=10 note=73 velocity=118 time=0
note_off channel=10 note=61 velocity=118 time=0
note_off channel=10 note=61 velocity=118 time=0
note_off channel=10 note=61 velocity=118 time=0
note_off channel=10 note=61 velocity=118 time=0
note_off channel=10 note=61 velocity=118 time=0
note_on channel=10 note=71 velocity=118 time=96
note_on channel=10 note=71 velocity=118 time=0
note_on channel=10 note=71 velocity=118 time=0
note_on channel=10 note=71 velocity=118 time=0
note_on channel=10 note=71 velocity=118 time=0
note_on channel=10 note=59 velocity=118 time=0
note_on channel=10 note=59 velocity=118 time=0
note_on channel=10 note=59 velocity=118 time=0
note_on channel=10 note=59 velocity=118 time=0
note_on channel=10 note=59 velocity=118 time=0
note_off channel=10 note=71 velocity=118 time=128
note_off channel=10 note=71 velocity=118 time=0
note_off channel=10 note=71 velocity=118 time=0
note_off channel=10 note=71 velocity=118 time=0
note_off channel=10 note=71 velocity=118 time=0
note_off channel=10 note=59 velocity=118 time=0
note_off channel=10 note=59 velocity=118 time=0
note_off channel=10 note=59 velocity=118 time=0
note_off channel=10 note=59 velocity=118 time=0
note_off channel=10 note=59 velocity=118 time=0
note_on channel=10 note=73 velocity=118 time=160
note_on channel=10 note=73 velocity=118 time=0
note_on channel=10 note=73 velocity=118 time=0
note_on channel=10 note=73 velocity=118 time=0
note_on channel=10 note=73 velocity=118 time=0
note_on channel=10 note=61 velocity=118 time=0
note_on channel=10 note=61 velocity=118 time=0
note_on channel=10 note=61 velocity=118 time=0
note_on channel=10 note=61 velocity=118 time=0
note_on channel=10 note=61 velocity=118 time=0
note_off channel=10 note=73 velocity=118 time=128
note_off channel=10 note=73 velocity=118 time=0
note_off channel=10 note=73 velocity=118 time=0
note_off channel=10 note=73 velocity=118 time=0
note_off channel=10 note=73 velocity=118 time=0
note_off channel=10 note=61 velocity=118 time=0
note_off channel=10 note=61 velocity=118 time=0
note_off channel=10 note=61 velocity=118 time=0
note_off channel=10 note=61 velocity=118 time=0
note_off channel=10 note=61 velocity=118 time=0
note_on channel=10 note=69 velocity=118 time=256
note_on channel=10 note=69 velocity=118 time=0
note_on channel=10 note=69 velocity=118 time=0
note_on channel=10 note=69 velocity=118 time=0
note_on channel=10 note=69 velocity=118 time=0
note_on channel=10 note=57 velocity=118 time=0
note_on channel=10 note=57 velocity=118 time=0
note_on channel=10 note=57 velocity=118 time=0
note_on channel=10 note=57 velocity=118 time=0
note_on channel=10 note=57 velocity=118 time=0
note_off channel=10 note=69 velocity=118 time=384
note_off channel=10 note=69 velocity=118 time=0
note_off channel=10 note=69 velocity=118 time=0
note_off channel=10 note=69 velocity=118 time=0
note_off channel=10 note=69 velocity=118 time=0
note_off channel=10 note=57 velocity=118 time=0
note_off channel=10 note=57 velocity=118 time=0
note_off channel=10 note=57 velocity=118 time=0
note_off channel=10 note=57 velocity=118 time=0
note_off channel=10 note=57 velocity=118 time=0
note_on channel=10 note=71 velocity=118 time=0
note_on channel=10 note=71 velocity=118 time=0
note_on channel=10 note=71 velocity=118 time=0
note_on channel=10 note=71 velocity=118 time=0
note_on channel=10 note=71 velocity=118 time=0
note_on channel=10 note=59 velocity=118 time=0
note_on channel=10 note=59 velocity=118 time=0
note_on channel=10 note=59 velocity=118 time=0
note_on channel=10 note=59 velocity=118 time=0
note_on channel=10 note=59 velocity=118 time=0
note_off channel=10 note=71 velocity=118 time=128
note_off channel=10 note=71 velocity=118 time=0
note_off channel=10 note=71 velocity=118 time=0
note_off channel=10 note=71 velocity=118 time=0
note_off channel=10 note=71 velocity=118 time=0
note_off channel=10 note=59 velocity=118 time=0
note_off channel=10 note=59 velocity=118 time=0
note_off channel=10 note=59 velocity=118 time=0
note_off channel=10 note=59 velocity=118 time=0
note_off channel=10 note=59 velocity=118 time=0
note_on channel=10 note=73 velocity=118 time=64
note_on channel=10 note=73 velocity=118 time=0
note_on channel=10 note=73 velocity=118 time=0
note_on channel=10 note=73 velocity=118 time=0
note_on channel=10 note=73 velocity=118 time=0
note_on channel=10 note=61 velocity=118 time=0
note_on channel=10 note=61 velocity=118 time=0
note_on channel=10 note=61 velocity=118 time=0
note_on channel=10 note=61 velocity=118 time=0
note_on channel=10 note=61 velocity=118 time=0
note_off channel=10 note=73 velocity=118 time=192
note_off channel=10 note=73 velocity=118 time=0
note_off channel=10 note=73 velocity=118 time=0
note_off channel=10 note=73 velocity=118 time=0
note_off channel=10 note=73 velocity=118 time=0
note_off channel=10 note=61 velocity=118 time=0
note_off channel=10 note=61 velocity=118 time=0
note_off channel=10 note=61 velocity=118 time=0
note_off channel=10 note=61 velocity=118 time=0
note_off channel=10 note=61 velocity=118 time=0
note_on channel=10 note=71 velocity=118 time=96
note_on channel=10 note=71 velocity=118 time=0
note_on channel=10 note=71 velocity=118 time=0
note_on channel=10 note=71 velocity=118 time=0
note_on channel=10 note=71 velocity=118 time=0
note_on channel=10 note=59 velocity=118 time=0
note_on channel=10 note=59 velocity=118 time=0
note_on channel=10 note=59 velocity=118 time=0
note_on channel=10 note=59 velocity=118 time=0
note_on channel=10 note=59 velocity=118 time=0
note_off channel=10 note=71 velocity=118 time=128
note_off channel=10 note=71 velocity=118 time=0
note_off channel=10 note=71 velocity=118 time=0
note_off channel=10 note=71 velocity=118 time=0
note_off channel=10 note=71 velocity=118 time=0
note_off channel=10 note=59 velocity=118 time=0
note_off channel=10 note=59 velocity=118 time=0
note_off channel=10 note=59 velocity=118 time=0
note_off channel=10 note=59 velocity=118 time=0
note_off channel=10 note=59 velocity=118 time=0
note_on channel=10 note=73 velocity=118 time=64
note_on channel=10 note=73 velocity=118 time=0
note_on channel=10 note=73 velocity=118 time=0
note_on channel=10 note=73 velocity=118 time=0
note_on channel=10 note=73 velocity=118 time=0
note_on channel=10 note=61 velocity=118 time=0
note_on channel=10 note=61 velocity=118 time=0
note_on channel=10 note=61 velocity=118 time=0
note_on channel=10 note=61 velocity=118 time=0
note_on channel=10 note=61 velocity=118 time=0
note_off channel=10 note=73 velocity=118 time=64
note_off channel=10 note=73 velocity=118 time=0
note_off channel=10 note=73 velocity=118 time=0
note_off channel=10 note=73 velocity=118 time=0
note_off channel=10 note=73 velocity=118 time=0
note_off channel=10 note=61 velocity=118 time=0
note_off channel=10 note=61 velocity=118 time=0
note_off channel=10 note=61 velocity=118 time=0
note_off channel=10 note=61 velocity=118 time=0
note_off channel=10 note=61 velocity=118 time=0
note_on channel=10 note=73 velocity=118 time=32
note_on channel=10 note=73 velocity=118 time=0
note_on channel=10 note=73 velocity=118 time=0
note_on channel=10 note=73 velocity=118 time=0
note_on channel=10 note=73 velocity=118 time=0
note_on channel=10 note=61 velocity=118 time=0
note_on channel=10 note=61 velocity=118 time=0
note_on channel=10 note=61 velocity=118 time=0
note_on channel=10 note=61 velocity=118 time=0
note_on channel=10 note=61 velocity=118 time=0
note_off channel=10 note=73 velocity=118 time=128
note_off channel=10 note=73 velocity=118 time=0
note_off channel=10 note=73 velocity=118 time=0
note_off channel=10 note=73 velocity=118 time=0
note_off channel=10 note=73 velocity=118 time=0
note_off channel=10 note=61 velocity=118 time=0
note_off channel=10 note=61 velocity=118 time=0
note_off channel=10 note=61 velocity=118 time=0
note_off channel=10 note=61 velocity=118 time=0
note_off channel=10 note=61 velocity=118 time=0
note_on channel=10 note=74 velocity=118 time=64
note_on channel=10 note=74 velocity=118 time=0
note_on channel=10 note=74 velocity=118 time=0
note_on channel=10 note=74 velocity=118 time=0
note_on channel=10 note=74 velocity=118 time=0
note_on channel=10 note=62 velocity=118 time=0
note_on channel=10 note=62 velocity=118 time=0
note_on channel=10 note=62 velocity=118 time=0
note_on channel=10 note=62 velocity=118 time=0
note_on channel=10 note=62 velocity=118 time=0
note_off channel=10 note=74 velocity=118 time=64
note_off channel=10 note=74 velocity=118 time=0
note_off channel=10 note=74 velocity=118 time=0
note_off channel=10 note=74 velocity=118 time=0
note_off channel=10 note=74 velocity=118 time=0
note_off channel=10 note=62 velocity=118 time=0
note_off channel=10 note=62 velocity=118 time=0
note_off channel=10 note=62 velocity=118 time=0
note_off channel=10 note=62 velocity=118 time=0
note_off channel=10 note=62 velocity=118 time=0
note_on channel=10 note=74 velocity=118 time=32
note_on channel=10 note=74 velocity=118 time=0
note_on channel=10 note=74 velocity=118 time=0
note_on channel=10 note=74 velocity=118 time=0
note_on channel=10 note=74 velocity=118 time=0
note_on channel=10 note=62 velocity=118 time=0
note_on channel=10 note=62 velocity=118 time=0
note_on channel=10 note=62 velocity=118 time=0
note_on channel=10 note=62 velocity=118 time=0
note_on channel=10 note=62 velocity=118 time=0
note_off channel=10 note=74 velocity=118 time=128
note_off channel=10 note=74 velocity=118 time=0
note_off channel=10 note=74 velocity=118 time=0
note_off channel=10 note=74 velocity=118 time=0
note_off channel=10 note=74 velocity=118 time=0
note_off channel=10 note=62 velocity=118 time=0
note_off channel=10 note=62 velocity=118 time=0
note_off channel=10 note=62 velocity=118 time=0
note_off channel=10 note=62 velocity=118 time=0
note_off channel=10 note=62 velocity=118 time=0
note_on channel=10 note=74 velocity=118 time=64
note_on channel=10 note=74 velocity=118 time=0
note_on channel=10 note=74 velocity=118 time=0
note_on channel=10 note=74 velocity=118 time=0
note_on channel=10 note=74 velocity=118 time=0
note_on channel=10 note=62 velocity=118 time=0
note_on channel=10 note=62 velocity=118 time=0
note_on channel=10 note=62 velocity=118 time=0
note_on channel=10 note=62 velocity=118 time=0
note_on channel=10 note=62 velocity=118 time=0
note_off channel=10 note=74 velocity=118 time=256
note_off channel=10 note=74 velocity=118 time=0
note_off channel=10 note=74 velocity=118 time=0
note_off channel=10 note=74 velocity=118 time=0
note_off channel=10 note=74 velocity=118 time=0
note_off channel=10 note=62 velocity=118 time=0
note_off channel=10 note=62 velocity=118 time=0
note_off channel=10 note=62 velocity=118 time=0
note_off channel=10 note=62 velocity=118 time=0
note_off channel=10 note=62 velocity=118 time=0
note_on channel=10 note=74 velocity=118 time=704
note_on channel=10 note=74 velocity=118 time=0
note_on channel=10 note=74 velocity=118 time=0
note_on channel=10 note=74 velocity=118 time=0
note_on channel=10 note=74 velocity=118 time=0
note_on channel=10 note=62 velocity=118 time=0
note_on channel=10 note=62 velocity=118 time=0
note_on channel=10 note=62 velocity=118 time=0
note_on channel=10 note=62 velocity=118 time=0
note_on channel=10 note=62 velocity=118 time=0
note_off channel=10 note=74 velocity=118 time=64
note_off channel=10 note=74 velocity=118 time=0
note_off channel=10 note=74 velocity=118 time=0
note_off channel=10 note=74 velocity=118 time=0
note_off channel=10 note=74 velocity=118 time=0
note_off channel=10 note=62 velocity=118 time=0
note_off channel=10 note=62 velocity=118 time=0
note_off channel=10 note=62 velocity=118 time=0
note_off channel=10 note=62 velocity=118 time=0
note_off channel=10 note=62 velocity=118 time=0
note_on channel=10 note=74 velocity=118 time=32
note_on channel=10 note=74 velocity=118 time=0
note_on channel=10 note=74 velocity=118 time=0
note_on channel=10 note=74 velocity=118 time=0
note_on channel=10 note=74 velocity=118 time=0
note_on channel=10 note=62 velocity=118 time=0
note_on channel=10 note=62 velocity=118 time=0
note_on channel=10 note=62 velocity=118 time=0
note_on channel=10 note=62 velocity=118 time=0
note_on channel=10 note=62 velocity=118 time=0
note_off channel=10 note=74 velocity=118 time=128
note_off channel=10 note=74 velocity=118 time=0
note_off channel=10 note=74 velocity=118 time=0
note_off channel=10 note=74 velocity=118 time=0
note_off channel=10 note=74 velocity=118 time=0
note_off channel=10 note=62 velocity=118 time=0
note_off channel=10 note=62 velocity=118 time=0
note_off channel=10 note=62 velocity=118 time=0
note_off channel=10 note=62 velocity=118 time=0
note_off channel=10 note=62 velocity=118 time=0
note_on channel=10 note=78 velocity=118 time=64
note_on channel=10 note=78 velocity=118 time=0
note_on channel=10 note=78 velocity=118 time=0
note_on channel=10 note=78 velocity=118 time=0
note_on channel=10 note=78 velocity=118 time=0
note_on channel=10 note=66 velocity=118 time=0
note_on channel=10 note=66 velocity=118 time=0
note_on channel=10 note=66 velocity=118 time=0
note_on channel=10 note=66 velocity=118 time=0
note_on channel=10 note=66 velocity=118 time=0
note_off channel=10 note=78 velocity=118 time=192
note_off channel=10 note=78 velocity=118 time=0
note_off channel=10 note=78 velocity=118 time=0
note_off channel=10 note=78 velocity=118 time=0
note_off channel=10 note=78 velocity=118 time=0
note_off channel=10 note=66 velocity=118 time=0
note_off channel=10 note=66 velocity=118 time=0
note_off channel=10 note=66 velocity=118 time=0
note_off channel=10 note=66 velocity=118 time=0
note_off channel=10 note=66 velocity=118 time=0
note_on channel=10 note=74 velocity=118 time=96
note_on channel=10 note=74 velocity=118 time=0
note_on channel=10 note=74 velocity=118 time=0
note_on channel=10 note=74 velocity=118 time=0
note_on channel=10 note=74 velocity=118 time=0
note_on channel=10 note=62 velocity=118 time=0
note_on channel=10 note=62 velocity=118 time=0
note_on channel=10 note=62 velocity=118 time=0
note_on channel=10 note=62 velocity=118 time=0
note_on channel=10 note=62 velocity=118 time=0
note_off channel=10 note=74 velocity=118 time=192
note_off channel=10 note=74 velocity=118 time=0
note_off channel=10 note=74 velocity=118 time=0
note_off channel=10 note=74 velocity=118 time=0
note_off channel=10 note=74 velocity=118 time=0
note_off channel=10 note=62 velocity=118 time=0
note_off channel=10 note=62 velocity=118 time=0
note_off channel=10 note=62 velocity=118 time=0
note_off channel=10 note=62 velocity=118 time=0
note_off channel=10 note=62 velocity=118 time=0
note_on channel=10 note=74 velocity=118 time=96
note_on channel=10 note=74 velocity=118 time=0
note_on channel=10 note=74 velocity=118 time=0
note_on channel=10 note=74 velocity=118 time=0
note_on channel=10 note=74 velocity=118 time=0
note_on channel=10 note=62 velocity=118 time=0
note_on channel=10 note=62 velocity=118 time=0
note_on channel=10 note=62 velocity=118 time=0
note_on channel=10 note=62 velocity=118 time=0
note_on channel=10 note=62 velocity=118 time=0
note_off channel=10 note=74 velocity=118 time=384
note_off channel=10 note=74 velocity=118 time=0
note_off channel=10 note=74 velocity=118 time=0
note_off channel=10 note=74 velocity=118 time=0
note_off channel=10 note=74 velocity=118 time=0
note_off channel=10 note=62 velocity=118 time=0
note_off channel=10 note=62 velocity=118 time=0
note_off channel=10 note=62 velocity=118 time=0
note_off channel=10 note=62 velocity=118 time=0
note_off channel=10 note=62 velocity=118 time=0
note_on channel=10 note=71 velocity=118 time=25152
note_on channel=10 note=71 velocity=118 time=0
note_on channel=10 note=71 velocity=118 time=0
note_on channel=10 note=71 velocity=118 time=0
note_on channel=10 note=71 velocity=118 time=0
note_on channel=10 note=59 velocity=118 time=0
note_on channel=10 note=59 velocity=118 time=0
note_on channel=10 note=59 velocity=118 time=0
note_on channel=10 note=59 velocity=118 time=0
note_on channel=10 note=59 velocity=118 time=0
note_off channel=10 note=71 velocity=118 time=256
note_off channel=10 note=71 velocity=118 time=0
note_off channel=10 note=71 velocity=118 time=0
note_off channel=10 note=71 velocity=118 time=0
note_off channel=10 note=71 velocity=118 time=0
note_off channel=10 note=59 velocity=118 time=0
note_off channel=10 note=59 velocity=118 time=0
note_off channel=10 note=59 velocity=118 time=0
note_off channel=10 note=59 velocity=118 time=0
note_off channel=10 note=59 velocity=118 time=0
note_on channel=10 note=71 velocity=118 time=896
note_on channel=10 note=71 velocity=118 time=0
note_on channel=10 note=71 velocity=118 time=0
note_on channel=10 note=71 velocity=118 time=0
note_on channel=10 note=71 velocity=118 time=0
note_on channel=10 note=59 velocity=118 time=0
note_on channel=10 note=59 velocity=118 time=0
note_on channel=10 note=59 velocity=118 time=0
note_on channel=10 note=59 velocity=118 time=0
note_on channel=10 note=59 velocity=118 time=0
note_off channel=10 note=71 velocity=118 time=64
note_off channel=10 note=71 velocity=118 time=0
note_off channel=10 note=71 velocity=118 time=0
note_off channel=10 note=71 velocity=118 time=0
note_off channel=10 note=71 velocity=118 time=0
note_off channel=10 note=59 velocity=118 time=0
note_off channel=10 note=59 velocity=118 time=0
note_off channel=10 note=59 velocity=118 time=0
note_off channel=10 note=59 velocity=118 time=0
note_off channel=10 note=59 velocity=118 time=0
note_on channel=10 note=71 velocity=118 time=32
note_on channel=10 note=71 velocity=118 time=0
note_on channel=10 note=71 velocity=118 time=0
note_on channel=10 note=71 velocity=118 time=0
note_on channel=10 note=71 velocity=118 time=0
note_on channel=10 note=59 velocity=118 time=0
note_on channel=10 note=59 velocity=118 time=0
note_on channel=10 note=59 velocity=118 time=0
note_on channel=10 note=59 velocity=118 time=0
note_on channel=10 note=59 velocity=118 time=0
note_off channel=10 note=71 velocity=118 time=192
note_off channel=10 note=71 velocity=118 time=0
note_off channel=10 note=71 velocity=118 time=0
note_off channel=10 note=71 velocity=118 time=0
note_off channel=10 note=71 velocity=118 time=0
note_off channel=10 note=59 velocity=118 time=0
note_off channel=10 note=59 velocity=118 time=0
note_off channel=10 note=59 velocity=118 time=0
note_off channel=10 note=59 velocity=118 time=0
note_off channel=10 note=59 velocity=118 time=0
note_on channel=10 note=74 velocity=118 time=96
note_on channel=10 note=74 velocity=118 time=0
note_on channel=10 note=74 velocity=118 time=0
note_on channel=10 note=74 velocity=118 time=0
note_on channel=10 note=74 velocity=118 time=0
note_on channel=10 note=62 velocity=118 time=0
note_on channel=10 note=62 velocity=118 time=0
note_on channel=10 note=62 velocity=118 time=0
note_on channel=10 note=62 velocity=118 time=0
note_on channel=10 note=62 velocity=118 time=0
note_on channel=10 note=71 velocity=118 time=96
note_on channel=10 note=71 velocity=118 time=0
note_on channel=10 note=71 velocity=118 time=0
note_on channel=10 note=71 velocity=118 time=0
note_on channel=10 note=71 velocity=118 time=0
note_on channel=10 note=59 velocity=118 time=0
note_on channel=10 note=59 velocity=118 time=0
note_on channel=10 note=59 velocity=118 time=0
note_on channel=10 note=59 velocity=118 time=0
note_on channel=10 note=59 velocity=118 time=0
note_off channel=10 note=74 velocity=118 time=160
note_off channel=10 note=74 velocity=118 time=0
note_off channel=10 note=74 velocity=118 time=0
note_off channel=10 note=74 velocity=118 time=0
note_off channel=10 note=74 velocity=118 time=0
note_off channel=10 note=62 velocity=118 time=0
note_off channel=10 note=62 velocity=118 time=0
note_off channel=10 note=62 velocity=118 time=0
note_off channel=10 note=62 velocity=118 time=0
note_off channel=10 note=62 velocity=118 time=0
note_off channel=10 note=71 velocity=118 time=32
note_off channel=10 note=71 velocity=118 time=0
note_off channel=10 note=71 velocity=118 time=0
note_off channel=10 note=71 velocity=118 time=0
note_off channel=10 note=71 velocity=118 time=0
note_off channel=10 note=59 velocity=118 time=0
note_off channel=10 note=59 velocity=118 time=0
note_off channel=10 note=59 velocity=118 time=0
note_off channel=10 note=59 velocity=118 time=0
note_off channel=10 note=59 velocity=118 time=0
note_on channel=10 note=76 velocity=118 time=864
note_on channel=10 note=76 velocity=118 time=0
note_on channel=10 note=76 velocity=118 time=0
note_on channel=10 note=76 velocity=118 time=0
note_on channel=10 note=76 velocity=118 time=0
note_on channel=10 note=64 velocity=118 time=0
note_on channel=10 note=64 velocity=118 time=0
note_on channel=10 note=64 velocity=118 time=0
note_on channel=10 note=64 velocity=118 time=0
note_on channel=10 note=64 velocity=118 time=0
note_off channel=10 note=76 velocity=118 time=64
note_off channel=10 note=76 velocity=118 time=0
note_off channel=10 note=76 velocity=118 time=0
note_off channel=10 note=76 velocity=118 time=0
note_off channel=10 note=76 velocity=118 time=0
note_off channel=10 note=64 velocity=118 time=0
note_off channel=10 note=64 velocity=118 time=0
note_off channel=10 note=64 velocity=118 time=0
note_off channel=10 note=64 velocity=118 time=0
note_off channel=10 note=64 velocity=118 time=0
note_on channel=10 note=76 velocity=118 time=32
note_on channel=10 note=76 velocity=118 time=0
note_on channel=10 note=76 velocity=118 time=0
note_on channel=10 note=76 velocity=118 time=0
note_on channel=10 note=76 velocity=118 time=0
note_on channel=10 note=64 velocity=118 time=0
note_on channel=10 note=64 velocity=118 time=0
note_on channel=10 note=64 velocity=118 time=0
note_on channel=10 note=64 velocity=118 time=0
note_on channel=10 note=64 velocity=118 time=0
note_off channel=10 note=76 velocity=118 time=192
note_off channel=10 note=76 velocity=118 time=0
note_off channel=10 note=76 velocity=118 time=0
note_off channel=10 note=76 velocity=118 time=0
note_off channel=10 note=76 velocity=118 time=0
note_off channel=10 note=64 velocity=118 time=0
note_off channel=10 note=64 velocity=118 time=0
note_off channel=10 note=64 velocity=118 time=0
note_off channel=10 note=64 velocity=118 time=0
note_off channel=10 note=64 velocity=118 time=0
note_on channel=10 note=71 velocity=118 time=96
note_on channel=10 note=71 velocity=118 time=0
note_on channel=10 note=71 velocity=118 time=0
note_on channel=10 note=71 velocity=118 time=0
note_on channel=10 note=71 velocity=118 time=0
note_on channel=10 note=59 velocity=118 time=0
note_on channel=10 note=59 velocity=118 time=0
note_on channel=10 note=59 velocity=118 time=0
note_on channel=10 note=59 velocity=118 time=0
note_on channel=10 note=59 velocity=118 time=0
note_off channel=10 note=71 velocity=118 time=256
note_off channel=10 note=71 velocity=118 time=0
note_off channel=10 note=71 velocity=118 time=0
note_off channel=10 note=71 velocity=118 time=0
note_off channel=10 note=71 velocity=118 time=0
note_off channel=10 note=59 velocity=118 time=0
note_off channel=10 note=59 velocity=118 time=0
note_off channel=10 note=59 velocity=118 time=0
note_off channel=10 note=59 velocity=118 time=0
note_off channel=10 note=59 velocity=118 time=0
note_on channel=10 note=71 velocity=118 time=896
note_on channel=10 note=71 velocity=118 time=0
note_on channel=10 note=71 velocity=118 time=0
note_on channel=10 note=71 velocity=118 time=0
note_on channel=10 note=71 velocity=118 time=0
note_on channel=10 note=59 velocity=118 time=0
note_on channel=10 note=59 velocity=118 time=0
note_on channel=10 note=59 velocity=118 time=0
note_on channel=10 note=59 velocity=118 time=0
note_on channel=10 note=59 velocity=118 time=0
note_off channel=10 note=71 velocity=118 time=64
note_off channel=10 note=71 velocity=118 time=0
note_off channel=10 note=71 velocity=118 time=0
note_off channel=10 note=71 velocity=118 time=0
note_off channel=10 note=71 velocity=118 time=0
note_off channel=10 note=59 velocity=118 time=0
note_off channel=10 note=59 velocity=118 time=0
note_off channel=10 note=59 velocity=118 time=0
note_off channel=10 note=59 velocity=118 time=0
note_off channel=10 note=59 velocity=118 time=0
note_on channel=10 note=71 velocity=118 time=32
note_on channel=10 note=71 velocity=118 time=0
note_on channel=10 note=71 velocity=118 time=0
note_on channel=10 note=71 velocity=118 time=0
note_on channel=10 note=71 velocity=118 time=0
note_on channel=10 note=59 velocity=118 time=0
note_on channel=10 note=59 velocity=118 time=0
note_on channel=10 note=59 velocity=118 time=0
note_on channel=10 note=59 velocity=118 time=0
note_on channel=10 note=59 velocity=118 time=0
note_off channel=10 note=71 velocity=118 time=192
note_off channel=10 note=71 velocity=118 time=0
note_off channel=10 note=71 velocity=118 time=0
note_off channel=10 note=71 velocity=118 time=0
note_off channel=10 note=71 velocity=118 time=0
note_off channel=10 note=59 velocity=118 time=0
note_off channel=10 note=59 velocity=118 time=0
note_off channel=10 note=59 velocity=118 time=0
note_off channel=10 note=59 velocity=118 time=0
note_off channel=10 note=59 velocity=118 time=0
note_on channel=10 note=74 velocity=118 time=96
note_on channel=10 note=74 velocity=118 time=0
note_on channel=10 note=74 velocity=118 time=0
note_on channel=10 note=74 velocity=118 time=0
note_on channel=10 note=74 velocity=118 time=0
note_on channel=10 note=62 velocity=118 time=0
note_on channel=10 note=62 velocity=118 time=0
note_on channel=10 note=62 velocity=118 time=0
note_on channel=10 note=62 velocity=118 time=0
note_on channel=10 note=62 velocity=118 time=0
note_off channel=10 note=74 velocity=118 time=256
note_off channel=10 note=74 velocity=118 time=0
note_off channel=10 note=74 velocity=118 time=0
note_off channel=10 note=74 velocity=118 time=0
note_off channel=10 note=74 velocity=118 time=0
note_off channel=10 note=62 velocity=118 time=0
note_off channel=10 note=62 velocity=118 time=0
note_off channel=10 note=62 velocity=118 time=0
note_off channel=10 note=62 velocity=118 time=0
note_off channel=10 note=62 velocity=118 time=0
note_on channel=10 note=69 velocity=118 time=1472
note_on channel=10 note=69 velocity=118 time=0
note_on channel=10 note=69 velocity=118 time=0
note_on channel=10 note=69 velocity=118 time=0
note_on channel=10 note=69 velocity=118 time=0
note_on channel=10 note=57 velocity=118 time=0
note_on channel=10 note=57 velocity=118 time=0
note_on channel=10 note=57 velocity=118 time=0
note_on channel=10 note=57 velocity=118 time=0
note_on channel=10 note=57 velocity=118 time=0
note_off channel=10 note=69 velocity=118 time=384
note_off channel=10 note=69 velocity=118 time=0
note_off channel=10 note=69 velocity=118 time=0
note_off channel=10 note=69 velocity=118 time=0
note_off channel=10 note=69 velocity=118 time=0
note_off channel=10 note=57 velocity=118 time=0
note_off channel=10 note=57 velocity=118 time=0
note_off channel=10 note=57 velocity=118 time=0
note_off channel=10 note=57 velocity=118 time=0
note_off channel=10 note=57 velocity=118 time=0
note_on channel=10 note=71 velocity=118 time=0
note_on channel=10 note=71 velocity=118 time=0
note_on channel=10 note=71 velocity=118 time=0
note_on channel=10 note=71 velocity=118 time=0
note_on channel=10 note=71 velocity=118 time=0
note_on channel=10 note=59 velocity=118 time=0
note_on channel=10 note=59 velocity=118 time=0
note_on channel=10 note=59 velocity=118 time=0
note_on channel=10 note=59 velocity=118 time=0
note_on channel=10 note=59 velocity=118 time=0
note_off channel=10 note=71 velocity=118 time=128
note_off channel=10 note=71 velocity=118 time=0
note_off channel=10 note=71 velocity=118 time=0
note_off channel=10 note=71 velocity=118 time=0
note_off channel=10 note=71 velocity=118 time=0
note_off channel=10 note=59 velocity=118 time=0
note_off channel=10 note=59 velocity=118 time=0
note_off channel=10 note=59 velocity=118 time=0
note_off channel=10 note=59 velocity=118 time=0
note_off channel=10 note=59 velocity=118 time=0
note_on channel=10 note=73 velocity=118 time=64
note_on channel=10 note=73 velocity=118 time=0
note_on channel=10 note=73 velocity=118 time=0
note_on channel=10 note=73 velocity=118 time=0
note_on channel=10 note=73 velocity=118 time=0
note_on channel=10 note=61 velocity=118 time=0
note_on channel=10 note=61 velocity=118 time=0
note_on channel=10 note=61 velocity=118 time=0
note_on channel=10 note=61 velocity=118 time=0
note_on channel=10 note=61 velocity=118 time=0
note_off channel=10 note=73 velocity=118 time=192
note_off channel=10 note=73 velocity=118 time=0
note_off channel=10 note=73 velocity=118 time=0
note_off channel=10 note=73 velocity=118 time=0
note_off channel=10 note=73 velocity=118 time=0
note_off channel=10 note=61 velocity=118 time=0
note_off channel=10 note=61 velocity=118 time=0
note_off channel=10 note=61 velocity=118 time=0
note_off channel=10 note=61 velocity=118 time=0
note_off channel=10 note=61 velocity=118 time=0
note_on channel=10 note=71 velocity=118 time=96
note_on channel=10 note=71 velocity=118 time=0
note_on channel=10 note=71 velocity=118 time=0
note_on channel=10 note=71 velocity=118 time=0
note_on channel=10 note=71 velocity=118 time=0
note_on channel=10 note=59 velocity=118 time=0
note_on channel=10 note=59 velocity=118 time=0
note_on channel=10 note=59 velocity=118 time=0
note_on channel=10 note=59 velocity=118 time=0
note_on channel=10 note=59 velocity=118 time=0
note_off channel=10 note=71 velocity=118 time=128
note_off channel=10 note=71 velocity=118 time=0
note_off channel=10 note=71 velocity=118 time=0
note_off channel=10 note=71 velocity=118 time=0
note_off channel=10 note=71 velocity=118 time=0
note_off channel=10 note=59 velocity=118 time=0
note_off channel=10 note=59 velocity=118 time=0
note_off channel=10 note=59 velocity=118 time=0
note_off channel=10 note=59 velocity=118 time=0
note_off channel=10 note=59 velocity=118 time=0
note_on channel=10 note=73 velocity=118 time=160
note_on channel=10 note=73 velocity=118 time=0
note_on channel=10 note=73 velocity=118 time=0
note_on channel=10 note=73 velocity=118 time=0
note_on channel=10 note=73 velocity=118 time=0
note_on channel=10 note=61 velocity=118 time=0
note_on channel=10 note=61 velocity=118 time=0
note_on channel=10 note=61 velocity=118 time=0
note_on channel=10 note=61 velocity=118 time=0
note_on channel=10 note=61 velocity=118 time=0
note_off channel=10 note=73 velocity=118 time=128
note_off channel=10 note=73 velocity=118 time=0
note_off channel=10 note=73 velocity=118 time=0
note_off channel=10 note=73 velocity=118 time=0
note_off channel=10 note=73 velocity=118 time=0
note_off channel=10 note=61 velocity=118 time=0
note_off channel=10 note=61 velocity=118 time=0
note_off channel=10 note=61 velocity=118 time=0
note_off channel=10 note=61 velocity=118 time=0
note_off channel=10 note=61 velocity=118 time=0
note_on channel=10 note=69 velocity=118 time=256
note_on channel=10 note=69 velocity=118 time=0
note_on channel=10 note=69 velocity=118 time=0
note_on channel=10 note=69 velocity=118 time=0
note_on channel=10 note=69 velocity=118 time=0
note_on channel=10 note=57 velocity=118 time=0
note_on channel=10 note=57 velocity=118 time=0
note_on channel=10 note=57 velocity=118 time=0
note_on channel=10 note=57 velocity=118 time=0
note_on channel=10 note=57 velocity=118 time=0
note_off channel=10 note=69 velocity=118 time=384
note_off channel=10 note=69 velocity=118 time=0
note_off channel=10 note=69 velocity=118 time=0
note_off channel=10 note=69 velocity=118 time=0
note_off channel=10 note=69 velocity=118 time=0
note_off channel=10 note=57 velocity=118 time=0
note_off channel=10 note=57 velocity=118 time=0
note_off channel=10 note=57 velocity=118 time=0
note_off channel=10 note=57 velocity=118 time=0
note_off channel=10 note=57 velocity=118 time=0
note_on channel=10 note=71 velocity=118 time=0
note_on channel=10 note=71 velocity=118 time=0
note_on channel=10 note=71 velocity=118 time=0
note_on channel=10 note=71 velocity=118 time=0
note_on channel=10 note=71 velocity=118 time=0
note_on channel=10 note=59 velocity=118 time=0
note_on channel=10 note=59 velocity=118 time=0
note_on channel=10 note=59 velocity=118 time=0
note_on channel=10 note=59 velocity=118 time=0
note_on channel=10 note=59 velocity=118 time=0
note_off channel=10 note=71 velocity=118 time=128
note_off channel=10 note=71 velocity=118 time=0
note_off channel=10 note=71 velocity=118 time=0
note_off channel=10 note=71 velocity=118 time=0
note_off channel=10 note=71 velocity=118 time=0
note_off channel=10 note=59 velocity=118 time=0
note_off channel=10 note=59 velocity=118 time=0
note_off channel=10 note=59 velocity=118 time=0
note_off channel=10 note=59 velocity=118 time=0
note_off channel=10 note=59 velocity=118 time=0
note_on channel=10 note=73 velocity=118 time=64
note_on channel=10 note=73 velocity=118 time=0
note_on channel=10 note=73 velocity=118 time=0
note_on channel=10 note=73 velocity=118 time=0
note_on channel=10 note=73 velocity=118 time=0
note_on channel=10 note=61 velocity=118 time=0
note_on channel=10 note=61 velocity=118 time=0
note_on channel=10 note=61 velocity=118 time=0
note_on channel=10 note=61 velocity=118 time=0
note_on channel=10 note=61 velocity=118 time=0
note_off channel=10 note=73 velocity=118 time=192
note_off channel=10 note=73 velocity=118 time=0
note_off channel=10 note=73 velocity=118 time=0
note_off channel=10 note=73 velocity=118 time=0
note_off channel=10 note=73 velocity=118 time=0
note_off channel=10 note=61 velocity=118 time=0
note_off channel=10 note=61 velocity=118 time=0
note_off channel=10 note=61 velocity=118 time=0
note_off channel=10 note=61 velocity=118 time=0
note_off channel=10 note=61 velocity=118 time=0
note_on channel=10 note=71 velocity=118 time=96
note_on channel=10 note=71 velocity=118 time=0
note_on channel=10 note=71 velocity=118 time=0
note_on channel=10 note=71 velocity=118 time=0
note_on channel=10 note=71 velocity=118 time=0
note_on channel=10 note=59 velocity=118 time=0
note_on channel=10 note=59 velocity=118 time=0
note_on channel=10 note=59 velocity=118 time=0
note_on channel=10 note=59 velocity=118 time=0
note_on channel=10 note=59 velocity=118 time=0
note_off channel=10 note=71 velocity=118 time=128
note_off channel=10 note=71 velocity=118 time=0
note_off channel=10 note=71 velocity=118 time=0
note_off channel=10 note=71 velocity=118 time=0
note_off channel=10 note=71 velocity=118 time=0
note_off channel=10 note=59 velocity=118 time=0
note_off channel=10 note=59 velocity=118 time=0
note_off channel=10 note=59 velocity=118 time=0
note_off channel=10 note=59 velocity=118 time=0
note_off channel=10 note=59 velocity=118 time=0
note_on channel=10 note=73 velocity=118 time=64
note_on channel=10 note=73 velocity=118 time=0
note_on channel=10 note=73 velocity=118 time=0
note_on channel=10 note=73 velocity=118 time=0
note_on channel=10 note=73 velocity=118 time=0
note_on channel=10 note=61 velocity=118 time=0
note_on channel=10 note=61 velocity=118 time=0
note_on channel=10 note=61 velocity=118 time=0
note_on channel=10 note=61 velocity=118 time=0
note_on channel=10 note=61 velocity=118 time=0
note_off channel=10 note=73 velocity=118 time=64
note_off channel=10 note=73 velocity=118 time=0
note_off channel=10 note=73 velocity=118 time=0
note_off channel=10 note=73 velocity=118 time=0
note_off channel=10 note=73 velocity=118 time=0
note_off channel=10 note=61 velocity=118 time=0
note_off channel=10 note=61 velocity=118 time=0
note_off channel=10 note=61 velocity=118 time=0
note_off channel=10 note=61 velocity=118 time=0
note_off channel=10 note=61 velocity=118 time=0
note_on channel=10 note=73 velocity=118 time=32
note_on channel=10 note=73 velocity=118 time=0
note_on channel=10 note=73 velocity=118 time=0
note_on channel=10 note=73 velocity=118 time=0
note_on channel=10 note=73 velocity=118 time=0
note_on channel=10 note=61 velocity=118 time=0
note_on channel=10 note=61 velocity=118 time=0
note_on channel=10 note=61 velocity=118 time=0
note_on channel=10 note=61 velocity=118 time=0
note_on channel=10 note=61 velocity=118 time=0
note_off channel=10 note=73 velocity=118 time=128
note_off channel=10 note=73 velocity=118 time=0
note_off channel=10 note=73 velocity=118 time=0
note_off channel=10 note=73 velocity=118 time=0
note_off channel=10 note=73 velocity=118 time=0
note_off channel=10 note=61 velocity=118 time=0
note_off channel=10 note=61 velocity=118 time=0
note_off channel=10 note=61 velocity=118 time=0
note_off channel=10 note=61 velocity=118 time=0
note_off channel=10 note=61 velocity=118 time=0
note_on channel=10 note=74 velocity=118 time=64
note_on channel=10 note=74 velocity=118 time=0
note_on channel=10 note=74 velocity=118 time=0
note_on channel=10 note=74 velocity=118 time=0
note_on channel=10 note=74 velocity=118 time=0
note_on channel=10 note=62 velocity=118 time=0
note_on channel=10 note=62 velocity=118 time=0
note_on channel=10 note=62 velocity=118 time=0
note_on channel=10 note=62 velocity=118 time=0
note_on channel=10 note=62 velocity=118 time=0
note_off channel=10 note=74 velocity=118 time=64
note_off channel=10 note=74 velocity=118 time=0
note_off channel=10 note=74 velocity=118 time=0
note_off channel=10 note=74 velocity=118 time=0
note_off channel=10 note=74 velocity=118 time=0
note_off channel=10 note=62 velocity=118 time=0
note_off channel=10 note=62 velocity=118 time=0
note_off channel=10 note=62 velocity=118 time=0
note_off channel=10 note=62 velocity=118 time=0
note_off channel=10 note=62 velocity=118 time=0
note_on channel=10 note=74 velocity=118 time=32
note_on channel=10 note=74 velocity=118 time=0
note_on channel=10 note=74 velocity=118 time=0
note_on channel=10 note=74 velocity=118 time=0
note_on channel=10 note=74 velocity=118 time=0
note_on channel=10 note=62 velocity=118 time=0
note_on channel=10 note=62 velocity=118 time=0
note_on channel=10 note=62 velocity=118 time=0
note_on channel=10 note=62 velocity=118 time=0
note_on channel=10 note=62 velocity=118 time=0
note_off channel=10 note=74 velocity=118 time=128
note_off channel=10 note=74 velocity=118 time=0
note_off channel=10 note=74 velocity=118 time=0
note_off channel=10 note=74 velocity=118 time=0
note_off channel=10 note=74 velocity=118 time=0
note_off channel=10 note=62 velocity=118 time=0
note_off channel=10 note=62 velocity=118 time=0
note_off channel=10 note=62 velocity=118 time=0
note_off channel=10 note=62 velocity=118 time=0
note_off channel=10 note=62 velocity=118 time=0
note_on channel=10 note=74 velocity=118 time=64
note_on channel=10 note=74 velocity=118 time=0
note_on channel=10 note=74 velocity=118 time=0
note_on channel=10 note=74 velocity=118 time=0
note_on channel=10 note=74 velocity=118 time=0
note_on channel=10 note=62 velocity=118 time=0
note_on channel=10 note=62 velocity=118 time=0
note_on channel=10 note=62 velocity=118 time=0
note_on channel=10 note=62 velocity=118 time=0
note_on channel=10 note=62 velocity=118 time=0
note_off channel=10 note=74 velocity=118 time=256
note_off channel=10 note=74 velocity=118 time=0
note_off channel=10 note=74 velocity=118 time=0
note_off channel=10 note=74 velocity=118 time=0
note_off channel=10 note=74 velocity=118 time=0
note_off channel=10 note=62 velocity=118 time=0
note_off channel=10 note=62 velocity=118 time=0
note_off channel=10 note=62 velocity=118 time=0
note_off channel=10 note=62 velocity=118 time=0
note_off channel=10 note=62 velocity=118 time=0
note_on channel=10 note=74 velocity=118 time=704
note_on channel=10 note=74 velocity=118 time=0
note_on channel=10 note=74 velocity=118 time=0
note_on channel=10 note=74 velocity=118 time=0
note_on channel=10 note=74 velocity=118 time=0
note_on channel=10 note=62 velocity=118 time=0
note_on channel=10 note=62 velocity=118 time=0
note_on channel=10 note=62 velocity=118 time=0
note_on channel=10 note=62 velocity=118 time=0
note_on channel=10 note=62 velocity=118 time=0
note_off channel=10 note=74 velocity=118 time=64
note_off channel=10 note=74 velocity=118 time=0
note_off channel=10 note=74 velocity=118 time=0
note_off channel=10 note=74 velocity=118 time=0
note_off channel=10 note=74 velocity=118 time=0
note_off channel=10 note=62 velocity=118 time=0
note_off channel=10 note=62 velocity=118 time=0
note_off channel=10 note=62 velocity=118 time=0
note_off channel=10 note=62 velocity=118 time=0
note_off channel=10 note=62 velocity=118 time=0
note_on channel=10 note=74 velocity=118 time=32
note_on channel=10 note=74 velocity=118 time=0
note_on channel=10 note=74 velocity=118 time=0
note_on channel=10 note=74 velocity=118 time=0
note_on channel=10 note=74 velocity=118 time=0
note_on channel=10 note=62 velocity=118 time=0
note_on channel=10 note=62 velocity=118 time=0
note_on channel=10 note=62 velocity=118 time=0
note_on channel=10 note=62 velocity=118 time=0
note_on channel=10 note=62 velocity=118 time=0
note_off channel=10 note=74 velocity=118 time=128
note_off channel=10 note=74 velocity=118 time=0
note_off channel=10 note=74 velocity=118 time=0
note_off channel=10 note=74 velocity=118 time=0
note_off channel=10 note=74 velocity=118 time=0
note_off channel=10 note=62 velocity=118 time=0
note_off channel=10 note=62 velocity=118 time=0
note_off channel=10 note=62 velocity=118 time=0
note_off channel=10 note=62 velocity=118 time=0
note_off channel=10 note=62 velocity=118 time=0
note_on channel=10 note=76 velocity=118 time=13504
note_off channel=10 note=76 velocity=118 time=64
note_on channel=10 note=76 velocity=118 time=32
note_off channel=10 note=76 velocity=118 time=192
note_on channel=10 note=69 velocity=118 time=288
note_on channel=10 note=71 velocity=118 time=384
note_off channel=10 note=71 velocity=118 time=128
note_on channel=10 note=75 velocity=118 time=64
note_off channel=10 note=69 velocity=118 time=192
note_off channel=10 note=75 velocity=118 time=0
note_on channel=10 note=71 velocity=118 time=96
note_off channel=10 note=71 velocity=118 time=192
note_on channel=10 note=75 velocity=118 time=96
note_off channel=10 note=75 velocity=118 time=128
note_on channel=10 note=69 velocity=118 time=256
note_on channel=10 note=71 velocity=118 time=384
note_off channel=10 note=71 velocity=118 time=128
note_on channel=10 note=75 velocity=118 time=64
note_off channel=10 note=69 velocity=118 time=192
note_off channel=10 note=75 velocity=118 time=0
note_on channel=10 note=71 velocity=118 time=96
note_off channel=10 note=71 velocity=118 time=192
note_on channel=10 note=75 velocity=118 time=96
note_off channel=10 note=75 velocity=118 time=128
note_on channel=10 note=79 velocity=118 time=256
note_on channel=10 note=76 velocity=118 time=384
note_off channel=10 note=76 velocity=118 time=128
note_on channel=10 note=76 velocity=118 time=64
note_off channel=10 note=79 velocity=118 time=192
note_off channel=10 note=76 velocity=118 time=0
note_on channel=10 note=76 velocity=118 time=96
note_off channel=10 note=76 velocity=118 time=192
note_on channel=10 note=76 velocity=118 time=96
note_off channel=10 note=76 velocity=118 time=128
note_on channel=10 note=79 velocity=118 time=256
note_on channel=10 note=76 velocity=118 time=384
note_off channel=10 note=76 velocity=118 time=128
note_on channel=10 note=76 velocity=118 time=64
note_off channel=10 note=79 velocity=118 time=192
note_off channel=10 note=76 velocity=118 time=0
note_on channel=10 note=76 velocity=118 time=96
note_off channel=10 note=76 velocity=118 time=192
note_on channel=10 note=76 velocity=118 time=96
note_off channel=10 note=76 velocity=118 time=128
note_on channel=10 note=69 velocity=118 time=256
note_on channel=10 note=71 velocity=118 time=384
note_off channel=10 note=71 velocity=118 time=128
note_on channel=10 note=75 velocity=118 time=64
note_off channel=10 note=69 velocity=118 time=192
note_off channel=10 note=75 velocity=118 time=0
note_on channel=10 note=71 velocity=118 time=96
note_off channel=10 note=71 velocity=118 time=192
note_on channel=10 note=75 velocity=118 time=96
note_off channel=10 note=75 velocity=118 time=128
note_on channel=10 note=69 velocity=118 time=256
note_on channel=10 note=71 velocity=118 time=384
note_off channel=10 note=71 velocity=118 time=128
note_on channel=10 note=75 velocity=118 time=64
note_off channel=10 note=69 velocity=118 time=192
note_off channel=10 note=75 velocity=118 time=0
note_on channel=10 note=71 velocity=118 time=96
note_off channel=10 note=71 velocity=118 time=192
note_on channel=10 note=75 velocity=118 time=96
note_off channel=10 note=75 velocity=118 time=128
<meta message end_of_track time=0>
<meta message key_signature key='E' time=0>
<meta message end_of_track time=0>
<meta message key_signature key='E' time=0>
<meta message end_of_track time=0>
<meta message key_signature key='E' time=0>
<meta message end_of_track time=0>
<meta message key_signature key='E' time=0>
<meta message end_of_track time=0>
<meta message key_signature key='E' time=0>
<meta message end_of_track time=0>
<meta message key_signature key='C' time=0>
<meta message end_of_track time=0>
<meta message key_signature key='C' time=0>
<meta message end_of_track time=0>
control_change channel=1 control=0 value=0 time=0
program_change channel=1 program=29 time=0
control_change channel=1 control=10 value=31 time=0
control_change channel=1 control=91 value=15 time=0
control_change channel=1 control=93 value=80 time=0
<meta message key_signature key='C' time=0>
<meta message end_of_track time=0>
<meta message key_signature key='C' time=0>
<meta message end_of_track time=0>
<meta message key_signature key='C' time=0>
<meta message end_of_track time=0>
