<meta message time_signature numerator=4 denominator=4 clocks_per_click=96 notated_32nd_notes_per_beat=8 time=0>
<meta message sequencer_specific data=(0, 0, 65) time=0>
<meta message set_tempo tempo=632911 time=0>
<meta message end_of_track time=0>
<meta message track_name name='main guitar' time=0>
control_change channel=0 control=0 value=0 time=0
program_change channel=0 program=30 time=0
control_change channel=0 control=10 value=89 time=0
control_change channel=0 control=91 value=21 time=0
control_change channel=0 control=93 value=63 time=0
<meta message key_signature key='E' time=0>
note_on channel=0 note=52 velocity=127 time=1516
note_on channel=0 note=47 velocity=127 time=0
note_on channel=0 note=64 velocity=32 time=0
note_on channel=0 note=56 velocity=127 time=0
note_on channel=0 note=40 velocity=80 time=0
note_on channel=0 note=64 velocity=127 time=0
note_on channel=0 note=59 velocity=127 time=0
note_on channel=0 note=76 velocity=32 time=0
note_on channel=0 note=71 velocity=127 time=0
note_on channel=0 note=68 velocity=127 time=0
note_on channel=0 note=52 velocity=80 time=0
note_on channel=0 note=59 velocity=127 time=0
note_off channel=0 note=52 velocity=0 time=384
note_off channel=0 note=47 velocity=0 time=0
note_off channel=0 note=64 velocity=0 time=0
note_off channel=0 note=56 velocity=0 time=0
note_off channel=0 note=40 velocity=0 time=0
note_off channel=0 note=64 velocity=0 time=0
note_off channel=0 note=59 velocity=0 time=0
note_off channel=0 note=76 velocity=0 time=0
note_off channel=0 note=71 velocity=0 time=0
note_off channel=0 note=68 velocity=0 time=0
note_off channel=0 note=52 velocity=0 time=0
note_off channel=0 note=59 velocity=0 time=0
note_on channel=0 note=50 velocity=127 time=189
note_on channel=0 note=62 velocity=127 time=4
note_on channel=0 note=57 velocity=127 time=0
note_on channel=0 note=66 velocity=127 time=0
note_on channel=0 note=62 velocity=127 time=0
note_on channel=0 note=74 velocity=127 time=0
note_on channel=0 note=69 velocity=127 time=0
note_on channel=0 note=78 velocity=127 time=0
note_off channel=0 note=50 velocity=0 time=96
note_off channel=0 note=62 velocity=0 time=0
note_off channel=0 note=57 velocity=0 time=0
note_off channel=0 note=66 velocity=0 time=0
note_off channel=0 note=62 velocity=0 time=0
note_off channel=0 note=74 velocity=0 time=0
note_off channel=0 note=69 velocity=0 time=0
note_off channel=0 note=78 velocity=0 time=0
note_on channel=0 note=66 velocity=78 time=0
note_on channel=0 note=62 velocity=127 time=0
note_on channel=0 note=57 velocity=100 time=0
note_on channel=0 note=50 velocity=100 time=0
note_on channel=0 note=78 velocity=78 time=0
note_on channel=0 note=74 velocity=127 time=0
note_on channel=0 note=69 velocity=100 time=0
note_on channel=0 note=62 velocity=100 time=0
note_off channel=0 note=66 velocity=0 time=96
note_off channel=0 note=62 velocity=0 time=0
note_off channel=0 note=57 velocity=100 time=0
note_off channel=0 note=50 velocity=100 time=0
note_off channel=0 note=78 velocity=0 time=0
note_off channel=0 note=74 velocity=0 time=0
note_off channel=0 note=69 velocity=100 time=0
note_off channel=0 note=62 velocity=100 time=0
note_on channel=0 note=62 velocity=127 time=0
note_on channel=0 note=66 velocity=127 time=0
note_on channel=0 note=57 velocity=100 time=0
note_on channel=0 note=50 velocity=100 time=0
note_on channel=0 note=74 velocity=127 time=0
note_on channel=0 note=78 velocity=127 time=0
note_on channel=0 note=69 velocity=100 time=0
note_on channel=0 note=62 velocity=100 time=0
note_off channel=0 note=62 velocity=0 time=384
note_off channel=0 note=66 velocity=0 time=0
note_off channel=0 note=57 velocity=100 time=0
note_off channel=0 note=50 velocity=100 time=0
note_off channel=0 note=74 velocity=0 time=0
note_off channel=0 note=78 velocity=0 time=0
note_off channel=0 note=69 velocity=100 time=0
note_off channel=0 note=62 velocity=100 time=0
note_on channel=0 note=45 velocity=127 time=188
note_on channel=0 note=61 velocity=127 time=2
note_on channel=0 note=52 velocity=127 time=0
note_on channel=0 note=57 velocity=127 time=0
note_on channel=0 note=57 velocity=127 time=0
note_on channel=0 note=73 velocity=127 time=0
note_on channel=0 note=64 velocity=127 time=0
note_on channel=0 note=69 velocity=127 time=0
note_off channel=0 note=45 velocity=0 time=96
note_off channel=0 note=61 velocity=0 time=0
note_off channel=0 note=52 velocity=0 time=0
note_off channel=0 note=57 velocity=0 time=0
note_off channel=0 note=57 velocity=0 time=0
note_off channel=0 note=73 velocity=0 time=0
note_off channel=0 note=64 velocity=0 time=0
note_off channel=0 note=69 velocity=0 time=0
note_on channel=0 note=45 velocity=127 time=0
note_on channel=0 note=52 velocity=100 time=0
note_on channel=0 note=57 velocity=100 time=0
note_on channel=0 note=61 velocity=100 time=0
note_on channel=0 note=57 velocity=127 time=0
note_on channel=0 note=64 velocity=100 time=0
note_on channel=0 note=69 velocity=100 time=0
note_on channel=0 note=73 velocity=100 time=0
note_off channel=0 note=45 velocity=0 time=96
note_off channel=0 note=52 velocity=100 time=0
note_off channel=0 note=57 velocity=100 time=0
note_off channel=0 note=61 velocity=100 time=0
note_off channel=0 note=57 velocity=0 time=0
note_off channel=0 note=64 velocity=100 time=0
note_off channel=0 note=69 velocity=100 time=0
note_off channel=0 note=73 velocity=100 time=0
note_on channel=0 note=45 velocity=127 time=0
note_on channel=0 note=61 velocity=127 time=0
note_on channel=0 note=64 velocity=127 time=0
note_on channel=0 note=57 velocity=100 time=0
note_on channel=0 note=52 velocity=100 time=0
note_on channel=0 note=57 velocity=127 time=0
note_on channel=0 note=73 velocity=127 time=0
note_on channel=0 note=76 velocity=127 time=0
note_on channel=0 note=69 velocity=100 time=0
note_on channel=0 note=64 velocity=100 time=0
note_off channel=0 note=45 velocity=0 time=384
note_off channel=0 note=61 velocity=0 time=0
note_off channel=0 note=64 velocity=0 time=0
note_off channel=0 note=57 velocity=100 time=0
note_off channel=0 note=52 velocity=100 time=0
note_off channel=0 note=57 velocity=0 time=0
note_off channel=0 note=73 velocity=0 time=0
note_off channel=0 note=76 velocity=0 time=0
note_off channel=0 note=69 velocity=100 time=0
note_off channel=0 note=64 velocity=100 time=0
note_on channel=0 note=79 velocity=127 time=471
note_on channel=0 note=67 velocity=127 time=25
note_off channel=0 note=79 velocity=0 time=64
note_off channel=0 note=67 velocity=0 time=0
note_on channel=0 note=76 velocity=127 time=32
note_on channel=0 note=64 velocity=127 time=1
note_on channel=0 note=74 velocity=127 time=95
note_on channel=0 note=62 velocity=127 time=2
note_off channel=0 note=76 velocity=0 time=32
note_off channel=0 note=64 velocity=0 time=0
note_off channel=0 note=74 velocity=0 time=32
note_off channel=0 note=62 velocity=0 time=0
note_on channel=0 note=71 velocity=127 time=31
note_on channel=0 note=59 velocity=127 time=0
note_on channel=0 note=71 velocity=127 time=95
note_on channel=0 note=59 velocity=127 time=0
note_off channel=0 note=71 velocity=0 time=32
note_off channel=0 note=59 velocity=0 time=0
note_on channel=0 note=69 velocity=127 time=63
note_on channel=0 note=57 velocity=127 time=0
note_off channel=0 note=71 velocity=0 time=12
note_off channel=0 note=59 velocity=0 time=8
note_off channel=0 note=69 velocity=0 time=44
note_off channel=0 note=57 velocity=0 time=0
note_on channel=0 note=67 velocity=127 time=31
note_on channel=0 note=55 velocity=127 time=0
note_off channel=0 note=67 velocity=0 time=64
note_off channel=0 note=55 velocity=0 time=0
note_on channel=0 note=52 velocity=127 time=32
note_on channel=0 note=47 velocity=127 time=0
note_on channel=0 note=64 velocity=32 time=0
note_on channel=0 note=59 velocity=127 time=0
note_on channel=0 note=56 velocity=127 time=0
note_on channel=0 note=40 velocity=80 time=0
note_off channel=0 note=52 velocity=0 time=384
note_off channel=0 note=47 velocity=0 time=0
note_off channel=0 note=64 velocity=0 time=0
note_off channel=0 note=59 velocity=0 time=0
note_off channel=0 note=56 velocity=0 time=0
note_off channel=0 note=40 velocity=0 time=0
note_on channel=0 note=50 velocity=127 time=190
note_on channel=0 note=62 velocity=127 time=5
note_on channel=0 note=57 velocity=127 time=0
note_on channel=0 note=66 velocity=127 time=0
note_off channel=0 note=50 velocity=0 time=96
note_off channel=0 note=62 velocity=0 time=0
note_off channel=0 note=57 velocity=0 time=0
note_off channel=0 note=66 velocity=0 time=0
note_on channel=0 note=66 velocity=78 time=0
note_on channel=0 note=62 velocity=127 time=0
note_on channel=0 note=57 velocity=100 time=0
note_on channel=0 note=50 velocity=100 time=0
note_off channel=0 note=66 velocity=0 time=96
note_off channel=0 note=62 velocity=0 time=0
note_off channel=0 note=57 velocity=100 time=0
note_off channel=0 note=50 velocity=100 time=0
note_on channel=0 note=62 velocity=127 time=0
note_on channel=0 note=66 velocity=127 time=0
note_on channel=0 note=57 velocity=100 time=0
note_on channel=0 note=50 velocity=100 time=0
note_off channel=0 note=62 velocity=0 time=384
note_off channel=0 note=66 velocity=0 time=0
note_off channel=0 note=57 velocity=100 time=0
note_off channel=0 note=50 velocity=100 time=0
note_on channel=0 note=45 velocity=127 time=190
note_on channel=0 note=61 velocity=127 time=5
note_on channel=0 note=52 velocity=127 time=0
note_on channel=0 note=57 velocity=127 time=0
note_off channel=0 note=45 velocity=0 time=96
note_off channel=0 note=61 velocity=0 time=0
note_off channel=0 note=52 velocity=0 time=0
note_off channel=0 note=57 velocity=0 time=0
note_on channel=0 note=45 velocity=127 time=0
note_on channel=0 note=52 velocity=100 time=0
note_on channel=0 note=57 velocity=100 time=0
note_on channel=0 note=61 velocity=100 time=0
note_off channel=0 note=45 velocity=0 time=96
note_off channel=0 note=52 velocity=100 time=0
note_off channel=0 note=57 velocity=100 time=0
note_off channel=0 note=61 velocity=100 time=0
note_on channel=0 note=45 velocity=127 time=0
note_on channel=0 note=61 velocity=127 time=0
note_on channel=0 note=64 velocity=127 time=0
note_on channel=0 note=57 velocity=100 time=0
note_on channel=0 note=52 velocity=100 time=0
note_off channel=0 note=45 velocity=0 time=384
note_off channel=0 note=61 velocity=0 time=0
note_off channel=0 note=64 velocity=0 time=0
note_off channel=0 note=57 velocity=100 time=0
note_off channel=0 note=52 velocity=100 time=0
note_on channel=0 note=59 velocity=117 time=0
note_on channel=0 note=47 velocity=117 time=0
note_on channel=0 note=71 velocity=117 time=0
note_off channel=0 note=59 velocity=0 time=64
note_off channel=0 note=47 velocity=0 time=0
note_off channel=0 note=71 velocity=0 time=0
note_on channel=0 note=56 velocity=127 time=31
note_on channel=0 note=44 velocity=127 time=0
note_on channel=0 note=68 velocity=127 time=0
note_off channel=0 note=56 velocity=0 time=128
note_off channel=0 note=44 velocity=0 time=0
note_off channel=0 note=68 velocity=0 time=0
note_on channel=0 note=59 velocity=109 time=63
note_on channel=0 note=47 velocity=109 time=1
note_on channel=0 note=71 velocity=109 time=0
note_off channel=0 note=59 velocity=0 time=64
note_off channel=0 note=47 velocity=0 time=0
note_off channel=0 note=71 velocity=0 time=0
note_on channel=0 note=57 velocity=97 time=32
note_on channel=0 note=45 velocity=97 time=0
note_on channel=0 note=69 velocity=97 time=0
note_off channel=0 note=57 velocity=0 time=128
note_off channel=0 note=45 velocity=0 time=0
note_off channel=0 note=69 velocity=0 time=0
note_on channel=0 note=59 velocity=111 time=62
note_on channel=0 note=47 velocity=111 time=1
note_on channel=0 note=71 velocity=111 time=0
note_off channel=0 note=59 velocity=0 time=64
note_off channel=0 note=47 velocity=0 time=0
note_off channel=0 note=71 velocity=0 time=0
note_on channel=0 note=58 velocity=108 time=32
note_on channel=0 note=46 velocity=108 time=0
note_on channel=0 note=70 velocity=108 time=0
note_off channel=0 note=58 velocity=0 time=128
note_off channel=0 note=46 velocity=0 time=0
note_off channel=0 note=70 velocity=0 time=0
note_on channel=0 note=59 velocity=103 time=62
note_on channel=0 note=47 velocity=103 time=1
note_on channel=0 note=71 velocity=103 time=0
note_off channel=0 note=59 velocity=0 time=64
note_off channel=0 note=47 velocity=0 time=0
note_off channel=0 note=71 velocity=0 time=0
note_on channel=0 note=58 velocity=119 time=32
note_on channel=0 note=46 velocity=119 time=0
note_on channel=0 note=70 velocity=119 time=0
note_off channel=0 note=58 velocity=0 time=64
note_off channel=0 note=46 velocity=0 time=0
note_off channel=0 note=70 velocity=0 time=0
note_on channel=0 note=59 velocity=100 time=31
note_on channel=0 note=47 velocity=100 time=0
note_on channel=0 note=71 velocity=100 time=0
note_off channel=0 note=59 velocity=100 time=64
note_off channel=0 note=47 velocity=100 time=0
note_off channel=0 note=71 velocity=100 time=0
note_on channel=0 note=52 velocity=127 time=31
note_on channel=0 note=47 velocity=127 time=1
note_on channel=0 note=64 velocity=32 time=0
note_on channel=0 note=56 velocity=127 time=0
note_on channel=0 note=40 velocity=80 time=0
note_on channel=0 note=64 velocity=127 time=0
note_on channel=0 note=59 velocity=127 time=0
note_on channel=0 note=76 velocity=32 time=0
note_on channel=0 note=71 velocity=127 time=0
note_on channel=0 note=68 velocity=127 time=0
note_on channel=0 note=52 velocity=80 time=0
note_on channel=0 note=59 velocity=127 time=0
note_off channel=0 note=52 velocity=0 time=384
note_off channel=0 note=47 velocity=0 time=0
note_off channel=0 note=64 velocity=0 time=0
note_off channel=0 note=56 velocity=0 time=0
note_off channel=0 note=40 velocity=0 time=0
note_off channel=0 note=64 velocity=0 time=0
note_off channel=0 note=59 velocity=0 time=0
note_off channel=0 note=76 velocity=0 time=0
note_off channel=0 note=71 velocity=0 time=0
note_off channel=0 note=68 velocity=0 time=0
note_off channel=0 note=52 velocity=0 time=0
note_off channel=0 note=59 velocity=0 time=0
note_on channel=0 note=50 velocity=127 time=190
note_on channel=0 note=62 velocity=127 time=6
note_on channel=0 note=57 velocity=127 time=0
note_on channel=0 note=66 velocity=127 time=0
note_on channel=0 note=62 velocity=127 time=0
note_on channel=0 note=74 velocity=127 time=0
note_on channel=0 note=69 velocity=127 time=0
note_on channel=0 note=78 velocity=127 time=0
note_off channel=0 note=50 velocity=0 time=96
note_off channel=0 note=62 velocity=0 time=0
note_off channel=0 note=57 velocity=0 time=0
note_off channel=0 note=66 velocity=0 time=0
note_off channel=0 note=62 velocity=0 time=0
note_off channel=0 note=74 velocity=0 time=0
note_off channel=0 note=69 velocity=0 time=0
note_off channel=0 note=78 velocity=0 time=0
note_on channel=0 note=66 velocity=78 time=0
note_on channel=0 note=62 velocity=127 time=0
note_on channel=0 note=57 velocity=100 time=0
note_on channel=0 note=50 velocity=100 time=0
note_on channel=0 note=78 velocity=78 time=0
note_on channel=0 note=74 velocity=127 time=0
note_on channel=0 note=69 velocity=100 time=0
note_on channel=0 note=62 velocity=100 time=0
note_off channel=0 note=66 velocity=0 time=96
note_off channel=0 note=62 velocity=0 time=0
note_off channel=0 note=57 velocity=100 time=0
note_off channel=0 note=50 velocity=100 time=0
note_off channel=0 note=78 velocity=0 time=0
note_off channel=0 note=74 velocity=0 time=0
note_off channel=0 note=69 velocity=100 time=0
note_off channel=0 note=62 velocity=100 time=0
note_on channel=0 note=62 velocity=127 time=0
note_on channel=0 note=66 velocity=127 time=0
note_on channel=0 note=57 velocity=100 time=0
note_on channel=0 note=50 velocity=100 time=0
note_on channel=0 note=74 velocity=127 time=0
note_on channel=0 note=78 velocity=127 time=0
note_on channel=0 note=69 velocity=100 time=0
note_on channel=0 note=62 velocity=100 time=0
note_off channel=0 note=62 velocity=0 time=384
note_off channel=0 note=66 velocity=0 time=0
note_off channel=0 note=57 velocity=100 time=0
note_off channel=0 note=50 velocity=100 time=0
note_off channel=0 note=74 velocity=0 time=0
note_off channel=0 note=78 velocity=0 time=0
note_off channel=0 note=69 velocity=100 time=0
note_off channel=0 note=62 velocity=100 time=0
note_on channel=0 note=45 velocity=127 time=189
note_on channel=0 note=61 velocity=127 time=4
note_on channel=0 note=52 velocity=127 time=0
note_on channel=0 note=57 velocity=127 time=0
note_on channel=0 note=57 velocity=127 time=0
note_on channel=0 note=73 velocity=127 time=0
note_on channel=0 note=64 velocity=127 time=0
note_on channel=0 note=69 velocity=127 time=0
note_off channel=0 note=45 velocity=0 time=96
note_off channel=0 note=61 velocity=0 time=0
note_off channel=0 note=52 velocity=0 time=0
note_off channel=0 note=57 velocity=0 time=0
note_off channel=0 note=57 velocity=0 time=0
note_off channel=0 note=73 velocity=0 time=0
note_off channel=0 note=64 velocity=0 time=0
note_off channel=0 note=69 velocity=0 time=0
note_on channel=0 note=45 velocity=127 time=0
note_on channel=0 note=52 velocity=100 time=0
note_on channel=0 note=57 velocity=100 time=0
note_on channel=0 note=61 velocity=100 time=0
note_on channel=0 note=57 velocity=127 time=0
note_on channel=0 note=64 velocity=100 time=0
note_on channel=0 note=69 velocity=100 time=0
note_on channel=0 note=73 velocity=100 time=0
note_off channel=0 note=45 velocity=0 time=96
note_off channel=0 note=52 velocity=100 time=0
note_off channel=0 note=57 velocity=100 time=0
note_off channel=0 note=61 velocity=100 time=0
note_off channel=0 note=57 velocity=0 time=0
note_off channel=0 note=64 velocity=100 time=0
note_off channel=0 note=69 velocity=100 time=0
note_off channel=0 note=73 velocity=100 time=0
note_on channel=0 note=45 velocity=127 time=0
note_on channel=0 note=61 velocity=127 time=0
note_on channel=0 note=64 velocity=127 time=0
note_on channel=0 note=57 velocity=100 time=0
note_on channel=0 note=52 velocity=100 time=0
note_on channel=0 note=57 velocity=127 time=0
note_on channel=0 note=73 velocity=127 time=0
note_on channel=0 note=76 velocity=127 time=0
note_on channel=0 note=69 velocity=100 time=0
note_on channel=0 note=64 velocity=100 time=0
note_off channel=0 note=45 velocity=0 time=384
note_off channel=0 note=61 velocity=0 time=0
note_off channel=0 note=64 velocity=0 time=0
note_off channel=0 note=57 velocity=100 time=0
note_off channel=0 note=52 velocity=100 time=0
note_off channel=0 note=57 velocity=0 time=0
note_off channel=0 note=73 velocity=0 time=0
note_off channel=0 note=76 velocity=0 time=0
note_off channel=0 note=69 velocity=100 time=0
note_off channel=0 note=64 velocity=100 time=0
note_on channel=0 note=79 velocity=127 time=472
note_on channel=0 note=67 velocity=127 time=39
note_off channel=0 note=79 velocity=0 time=64
note_off channel=0 note=67 velocity=0 time=0
note_on channel=0 note=76 velocity=127 time=32
note_on channel=0 note=64 velocity=127 time=2
note_on channel=0 note=74 velocity=127 time=95
note_on channel=0 note=62 velocity=127 time=5
note_off channel=0 note=76 velocity=0 time=32
note_off channel=0 note=64 velocity=0 time=0
note_off channel=0 note=74 velocity=0 time=32
note_off channel=0 note=62 velocity=0 time=0
note_on channel=0 note=71 velocity=127 time=31
note_on channel=0 note=59 velocity=127 time=1
note_on channel=0 note=71 velocity=127 time=95
note_on channel=0 note=59 velocity=127 time=1
note_off channel=0 note=71 velocity=0 time=32
note_off channel=0 note=59 velocity=0 time=0
note_on channel=0 note=69 velocity=127 time=63
note_on channel=0 note=57 velocity=127 time=0
note_off channel=0 note=71 velocity=0 time=12
note_off channel=0 note=59 velocity=0 time=8
note_off channel=0 note=69 velocity=0 time=44
note_off channel=0 note=57 velocity=0 time=0
note_on channel=0 note=67 velocity=127 time=31
note_on channel=0 note=55 velocity=127 time=0
note_off channel=0 note=67 velocity=0 time=64
note_off channel=0 note=55 velocity=0 time=0
note_on channel=0 note=52 velocity=127 time=31
note_on channel=0 note=47 velocity=127 time=0
note_on channel=0 note=64 velocity=32 time=0
note_on channel=0 note=59 velocity=127 time=0
note_on channel=0 note=56 velocity=127 time=0
note_on channel=0 note=40 velocity=80 time=0
note_off channel=0 note=52 velocity=0 time=384
note_off channel=0 note=47 velocity=0 time=0
note_off channel=0 note=64 velocity=0 time=0
note_off channel=0 note=59 velocity=0 time=0
note_off channel=0 note=56 velocity=0 time=0
note_off channel=0 note=40 velocity=0 time=0
note_on channel=0 note=50 velocity=127 time=191
note_on channel=0 note=62 velocity=127 time=1
note_on channel=0 note=57 velocity=127 time=0
note_on channel=0 note=66 velocity=127 time=0
note_off channel=0 note=50 velocity=0 time=96
note_off channel=0 note=62 velocity=0 time=0
note_off channel=0 note=57 velocity=0 time=0
note_off channel=0 note=66 velocity=0 time=0
note_on channel=0 note=66 velocity=78 time=0
note_on channel=0 note=62 velocity=127 time=0
note_on channel=0 note=57 velocity=100 time=0
note_on channel=0 note=50 velocity=100 time=0
note_off channel=0 note=66 velocity=0 time=96
note_off channel=0 note=62 velocity=0 time=0
note_off channel=0 note=57 velocity=100 time=0
note_off channel=0 note=50 velocity=100 time=0
note_on channel=0 note=62 velocity=127 time=0
note_on channel=0 note=66 velocity=127 time=0
note_on channel=0 note=57 velocity=100 time=0
note_on channel=0 note=50 velocity=100 time=0
note_off channel=0 note=62 velocity=0 time=384
note_off channel=0 note=66 velocity=0 time=0
note_off channel=0 note=57 velocity=100 time=0
note_off channel=0 note=50 velocity=100 time=0
note_on channel=0 note=45 velocity=127 time=191
note_on channel=0 note=61 velocity=127 time=3
note_on channel=0 note=52 velocity=127 time=0
note_on channel=0 note=57 velocity=127 time=0
note_off channel=0 note=45 velocity=0 time=96
note_off channel=0 note=61 velocity=0 time=0
note_off channel=0 note=52 velocity=0 time=0
note_off channel=0 note=57 velocity=0 time=0
note_on channel=0 note=45 velocity=127 time=0
note_on channel=0 note=52 velocity=100 time=0
note_on channel=0 note=57 velocity=100 time=0
note_on channel=0 note=61 velocity=100 time=0
note_off channel=0 note=45 velocity=0 time=96
note_off channel=0 note=52 velocity=100 time=0
note_off channel=0 note=57 velocity=100 time=0
note_off channel=0 note=61 velocity=100 time=0
note_on channel=0 note=45 velocity=127 time=0
note_on channel=0 note=61 velocity=127 time=0
note_on channel=0 note=64 velocity=127 time=0
note_on channel=0 note=57 velocity=100 time=0
note_on channel=0 note=52 velocity=100 time=0
note_off channel=0 note=45 velocity=0 time=384
note_off channel=0 note=61 velocity=0 time=0
note_off channel=0 note=64 velocity=0 time=0
note_off channel=0 note=57 velocity=100 time=0
note_off channel=0 note=52 velocity=100 time=0
note_on channel=0 note=59 velocity=117 time=0
note_on channel=0 note=47 velocity=117 time=0
note_on channel=0 note=71 velocity=117 time=0
note_off channel=0 note=59 velocity=0 time=64
note_off channel=0 note=47 velocity=0 time=0
note_off channel=0 note=71 velocity=0 time=0
note_on channel=0 note=56 velocity=127 time=31
note_on channel=0 note=44 velocity=127 time=0
note_on channel=0 note=68 velocity=127 time=0
note_off channel=0 note=56 velocity=0 time=128
note_off channel=0 note=44 velocity=0 time=0
note_off channel=0 note=68 velocity=0 time=0
note_on channel=0 note=59 velocity=109 time=64
note_on channel=0 note=47 velocity=109 time=2
note_on channel=0 note=71 velocity=109 time=0
note_off channel=0 note=59 velocity=0 time=64
note_off channel=0 note=47 velocity=0 time=0
note_off channel=0 note=71 velocity=0 time=0
note_on channel=0 note=57 velocity=97 time=31
note_on channel=0 note=45 velocity=97 time=0
note_on channel=0 note=69 velocity=97 time=0
note_off channel=0 note=57 velocity=0 time=128
note_off channel=0 note=45 velocity=0 time=0
note_off channel=0 note=69 velocity=0 time=0
note_on channel=0 note=59 velocity=111 time=64
note_on channel=0 note=47 velocity=111 time=1
note_on channel=0 note=71 velocity=111 time=0
note_off channel=0 note=59 velocity=0 time=64
note_off channel=0 note=47 velocity=0 time=0
note_off channel=0 note=71 velocity=0 time=0
note_on channel=0 note=58 velocity=108 time=31
note_on channel=0 note=46 velocity=108 time=0
note_on channel=0 note=70 velocity=108 time=0
note_off channel=0 note=58 velocity=0 time=128
note_off channel=0 note=46 velocity=0 time=0
note_off channel=0 note=70 velocity=0 time=0
note_on channel=0 note=59 velocity=103 time=64
note_on channel=0 note=47 velocity=103 time=0
note_on channel=0 note=71 velocity=103 time=0
note_off channel=0 note=59 velocity=0 time=64
note_off channel=0 note=47 velocity=0 time=0
note_off channel=0 note=71 velocity=0 time=0
note_on channel=0 note=58 velocity=119 time=31
note_on channel=0 note=46 velocity=119 time=0
note_on channel=0 note=70 velocity=119 time=0
note_off channel=0 note=58 velocity=0 time=64
note_off channel=0 note=46 velocity=0 time=0
note_off channel=0 note=70 velocity=0 time=0
note_on channel=0 note=59 velocity=100 time=32
note_on channel=0 note=47 velocity=100 time=1
note_on channel=0 note=71 velocity=100 time=0
note_off channel=0 note=59 velocity=100 time=64
note_off channel=0 note=47 velocity=100 time=0
note_off channel=0 note=71 velocity=100 time=0
note_on channel=0 note=52 velocity=127 time=31
note_on channel=0 note=47 velocity=127 time=2
note_on channel=0 note=64 velocity=32 time=0
note_on channel=0 note=56 velocity=127 time=0
note_on channel=0 note=40 velocity=80 time=0
note_on channel=0 note=64 velocity=127 time=0
note_on channel=0 note=59 velocity=127 time=0
note_on channel=0 note=76 velocity=32 time=0
note_on channel=0 note=71 velocity=127 time=0
note_on channel=0 note=68 velocity=127 time=0
note_on channel=0 note=52 velocity=80 time=0
note_on channel=0 note=59 velocity=127 time=0
note_off channel=0 note=52 velocity=0 time=384
note_off channel=0 note=47 velocity=0 time=0
note_off channel=0 note=64 velocity=0 time=0
note_off channel=0 note=56 velocity=0 time=0
note_off channel=0 note=40 velocity=0 time=0
note_off channel=0 note=64 velocity=0 time=0
note_off channel=0 note=59 velocity=0 time=0
note_off channel=0 note=76 velocity=0 time=0
note_off channel=0 note=71 velocity=0 time=0
note_off channel=0 note=68 velocity=0 time=0
note_off channel=0 note=52 velocity=0 time=0
note_off channel=0 note=59 velocity=0 time=0
note_on channel=0 note=50 velocity=127 time=191
note_on channel=0 note=62 velocity=127 time=26
note_on channel=0 note=57 velocity=127 time=0
note_on channel=0 note=66 velocity=127 time=0
note_on channel=0 note=62 velocity=127 time=0
note_on channel=0 note=74 velocity=127 time=0
note_on channel=0 note=69 velocity=127 time=0
note_on channel=0 note=78 velocity=127 time=0
note_off channel=0 note=50 velocity=0 time=96
note_off channel=0 note=62 velocity=0 time=0
note_off channel=0 note=57 velocity=0 time=0
note_off channel=0 note=66 velocity=0 time=0
note_off channel=0 note=62 velocity=0 time=0
note_off channel=0 note=74 velocity=0 time=0
note_off channel=0 note=69 velocity=0 time=0
note_off channel=0 note=78 velocity=0 time=0
note_on channel=0 note=66 velocity=78 time=0
note_on channel=0 note=62 velocity=127 time=0
note_on channel=0 note=57 velocity=100 time=0
note_on channel=0 note=50 velocity=100 time=0
note_on channel=0 note=78 velocity=78 time=0
note_on channel=0 note=74 velocity=127 time=0
note_on channel=0 note=69 velocity=100 time=0
note_on channel=0 note=62 velocity=100 time=0
note_off channel=0 note=66 velocity=0 time=96
note_off channel=0 note=62 velocity=0 time=0
note_off channel=0 note=57 velocity=100 time=0
note_off channel=0 note=50 velocity=100 time=0
note_off channel=0 note=78 velocity=0 time=0
note_off channel=0 note=74 velocity=0 time=0
note_off channel=0 note=69 velocity=100 time=0
note_off channel=0 note=62 velocity=100 time=0
note_on channel=0 note=62 velocity=127 time=0
note_on channel=0 note=66 velocity=127 time=0
note_on channel=0 note=57 velocity=100 time=0
note_on channel=0 note=50 velocity=100 time=0
note_on channel=0 note=74 velocity=127 time=0
note_on channel=0 note=78 velocity=127 time=0
note_on channel=0 note=69 velocity=100 time=0
note_on channel=0 note=62 velocity=100 time=0
note_off channel=0 note=62 velocity=0 time=384
note_off channel=0 note=66 velocity=0 time=0
note_off channel=0 note=57 velocity=100 time=0
note_off channel=0 note=50 velocity=100 time=0
note_off channel=0 note=74 velocity=0 time=0
note_off channel=0 note=78 velocity=0 time=0
note_off channel=0 note=69 velocity=100 time=0
note_off channel=0 note=62 velocity=100 time=0
note_on channel=0 note=45 velocity=127 time=190
note_on channel=0 note=61 velocity=127 time=47
note_on channel=0 note=52 velocity=127 time=0
note_on channel=0 note=57 velocity=127 time=0
note_on channel=0 note=57 velocity=127 time=0
note_on channel=0 note=73 velocity=127 time=0
note_on channel=0 note=64 velocity=127 time=0
note_on channel=0 note=69 velocity=127 time=0
note_off channel=0 note=45 velocity=0 time=96
note_off channel=0 note=61 velocity=0 time=0
note_off channel=0 note=52 velocity=0 time=0
note_off channel=0 note=57 velocity=0 time=0
note_off channel=0 note=57 velocity=0 time=0
note_off channel=0 note=73 velocity=0 time=0
note_off channel=0 note=64 velocity=0 time=0
note_off channel=0 note=69 velocity=0 time=0
note_on channel=0 note=45 velocity=127 time=0
note_on channel=0 note=52 velocity=100 time=0
note_on channel=0 note=57 velocity=100 time=0
note_on channel=0 note=61 velocity=100 time=0
note_on channel=0 note=57 velocity=127 time=0
note_on channel=0 note=64 velocity=100 time=0
note_on channel=0 note=69 velocity=100 time=0
note_on channel=0 note=73 velocity=100 time=0
note_off channel=0 note=45 velocity=0 time=96
note_off channel=0 note=52 velocity=100 time=0
note_off channel=0 note=57 velocity=100 time=0
note_off channel=0 note=61 velocity=100 time=0
note_off channel=0 note=57 velocity=0 time=0
note_off channel=0 note=64 velocity=100 time=0
note_off channel=0 note=69 velocity=100 time=0
note_off channel=0 note=73 velocity=100 time=0
note_on channel=0 note=45 velocity=127 time=0
note_on channel=0 note=61 velocity=127 time=0
note_on channel=0 note=64 velocity=127 time=0
note_on channel=0 note=57 velocity=100 time=0
note_on channel=0 note=52 velocity=100 time=0
note_on channel=0 note=57 velocity=127 time=0
note_on channel=0 note=73 velocity=127 time=0
note_on channel=0 note=76 velocity=127 time=0
note_on channel=0 note=69 velocity=100 time=0
note_on channel=0 note=64 velocity=100 time=0
note_off channel=0 note=45 velocity=0 time=384
note_off channel=0 note=61 velocity=0 time=0
note_off channel=0 note=64 velocity=0 time=0
note_off channel=0 note=57 velocity=100 time=0
note_off channel=0 note=52 velocity=100 time=0
note_off channel=0 note=57 velocity=0 time=0
note_off channel=0 note=73 velocity=0 time=0
note_off channel=0 note=76 velocity=0 time=0
note_off channel=0 note=69 velocity=100 time=0
note_off channel=0 note=64 velocity=100 time=0
note_on channel=0 note=79 velocity=127 time=473
note_on channel=0 note=67 velocity=127 time=106
note_off channel=0 note=79 velocity=0 time=64
note_off channel=0 note=67 velocity=0 time=0
note_on channel=0 note=76 velocity=127 time=30
note_on channel=0 note=64 velocity=127 time=4
note_on channel=0 note=74 velocity=127 time=92
note_on channel=0 note=62 velocity=127 time=11
note_off channel=0 note=76 velocity=0 time=32
note_off channel=0 note=64 velocity=0 time=0
note_off channel=0 note=74 velocity=0 time=32
note_off channel=0 note=62 velocity=0 time=0
note_on channel=0 note=71 velocity=127 time=31
note_on channel=0 note=59 velocity=127 time=2
note_on channel=0 note=71 velocity=127 time=92
note_on channel=0 note=59 velocity=127 time=5
note_off channel=0 note=71 velocity=0 time=32
note_off channel=0 note=59 velocity=0 time=0
note_on channel=0 note=69 velocity=127 time=61
note_on channel=0 note=57 velocity=127 time=1
note_off channel=0 note=71 velocity=0 time=12
note_off channel=0 note=59 velocity=0 time=8
note_off channel=0 note=69 velocity=0 time=44
note_off channel=0 note=57 velocity=0 time=0
note_on channel=0 note=67 velocity=127 time=31
note_on channel=0 note=55 velocity=127 time=0
note_off channel=0 note=67 velocity=0 time=64
note_off channel=0 note=55 velocity=0 time=0
note_on channel=0 note=52 velocity=127 time=30
note_on channel=0 note=47 velocity=127 time=0
note_on channel=0 note=64 velocity=32 time=0
note_on channel=0 note=59 velocity=127 time=0
note_on channel=0 note=56 velocity=127 time=0
note_on channel=0 note=40 velocity=80 time=0
note_off channel=0 note=52 velocity=0 time=384
note_off channel=0 note=47 velocity=0 time=0
note_off channel=0 note=64 velocity=0 time=0
note_off channel=0 note=59 velocity=0 time=0
note_off channel=0 note=56 velocity=0 time=0
note_off channel=0 note=40 velocity=0 time=0
note_on channel=0 note=50 velocity=127 time=185
note_on channel=0 note=62 velocity=127 time=14
note_on channel=0 note=57 velocity=127 time=0
note_on channel=0 note=66 velocity=127 time=0
note_off channel=0 note=50 velocity=0 time=96
note_off channel=0 note=62 velocity=0 time=0
note_off channel=0 note=57 velocity=0 time=0
note_off channel=0 note=66 velocity=0 time=0
note_on channel=0 note=66 velocity=78 time=0
note_on channel=0 note=62 velocity=127 time=0
note_on channel=0 note=57 velocity=100 time=0
note_on channel=0 note=50 velocity=100 time=0
note_off channel=0 note=66 velocity=0 time=96
note_off channel=0 note=62 velocity=0 time=0
note_off channel=0 note=57 velocity=100 time=0
note_off channel=0 note=50 velocity=100 time=0
note_on channel=0 note=62 velocity=127 time=0
note_on channel=0 note=66 velocity=127 time=0
note_on channel=0 note=57 velocity=100 time=0
note_on channel=0 note=50 velocity=100 time=0
note_off channel=0 note=62 velocity=0 time=384
note_off channel=0 note=66 velocity=0 time=0
note_off channel=0 note=57 velocity=100 time=0
note_off channel=0 note=50 velocity=100 time=0
note_on channel=0 note=45 velocity=127 time=185
note_on channel=0 note=61 velocity=127 time=36
note_on channel=0 note=52 velocity=127 time=0
note_on channel=0 note=57 velocity=127 time=0
note_off channel=0 note=45 velocity=0 time=96
note_off channel=0 note=61 velocity=0 time=0
note_off channel=0 note=52 velocity=0 time=0
note_off channel=0 note=57 velocity=0 time=0
note_on channel=0 note=45 velocity=127 time=0
note_on channel=0 note=52 velocity=100 time=0
note_on channel=0 note=57 velocity=100 time=0
note_on channel=0 note=61 velocity=100 time=0
note_off channel=0 note=45 velocity=0 time=96
note_off channel=0 note=52 velocity=100 time=0
note_off channel=0 note=57 velocity=100 time=0
note_off channel=0 note=61 velocity=100 time=0
note_on channel=0 note=45 velocity=127 time=0
note_on channel=0 note=61 velocity=127 time=0
note_on channel=0 note=64 velocity=127 time=0
note_on channel=0 note=57 velocity=100 time=0
note_on channel=0 note=52 velocity=100 time=0
note_off channel=0 note=45 velocity=0 time=384
note_off channel=0 note=61 velocity=0 time=0
note_off channel=0 note=64 velocity=0 time=0
note_off channel=0 note=57 velocity=100 time=0
note_off channel=0 note=52 velocity=100 time=0
note_on channel=0 note=59 velocity=117 time=0
note_on channel=0 note=47 velocity=117 time=0
note_on channel=0 note=71 velocity=117 time=0
note_off channel=0 note=59 velocity=0 time=64
note_off channel=0 note=47 velocity=0 time=0
note_off channel=0 note=71 velocity=0 time=0
note_on channel=0 note=56 velocity=127 time=31
note_on channel=0 note=44 velocity=127 time=7
note_on channel=0 note=68 velocity=127 time=0
note_off channel=0 note=56 velocity=0 time=128
note_off channel=0 note=44 velocity=0 time=0
note_off channel=0 note=68 velocity=0 time=0
note_on channel=0 note=59 velocity=109 time=62
note_on channel=0 note=47 velocity=109 time=14
note_on channel=0 note=71 velocity=109 time=0
note_off channel=0 note=59 velocity=0 time=64
note_off channel=0 note=47 velocity=0 time=0
note_off channel=0 note=71 velocity=0 time=0
note_on channel=0 note=57 velocity=97 time=30
note_on channel=0 note=45 velocity=97 time=6
note_on channel=0 note=69 velocity=97 time=0
note_off channel=0 note=57 velocity=0 time=128
note_off channel=0 note=45 velocity=0 time=0
note_off channel=0 note=69 velocity=0 time=0
note_on channel=0 note=59 velocity=111 time=62
note_on channel=0 note=47 velocity=111 time=12
note_on channel=0 note=71 velocity=111 time=0
note_off channel=0 note=59 velocity=0 time=64
note_off channel=0 note=47 velocity=0 time=0
note_off channel=0 note=71 velocity=0 time=0
note_on channel=0 note=58 velocity=108 time=31
note_on channel=0 note=46 velocity=108 time=5
note_on channel=0 note=70 velocity=108 time=0
note_off channel=0 note=58 velocity=0 time=128
note_off channel=0 note=46 velocity=0 time=0
note_off channel=0 note=70 velocity=0 time=0
note_on channel=0 note=59 velocity=103 time=62
note_on channel=0 note=47 velocity=103 time=9
note_on channel=0 note=71 velocity=103 time=0
note_off channel=0 note=59 velocity=0 time=64
note_off channel=0 note=47 velocity=0 time=0
note_off channel=0 note=71 velocity=0 time=0
note_on channel=0 note=58 velocity=119 time=31
note_on channel=0 note=46 velocity=119 time=3
note_on channel=0 note=70 velocity=119 time=0
note_off channel=0 note=58 velocity=0 time=64
note_off channel=0 note=46 velocity=0 time=0
note_off channel=0 note=70 velocity=0 time=0
note_on channel=0 note=59 velocity=100 time=31
note_on channel=0 note=47 velocity=100 time=2
note_on channel=0 note=71 velocity=100 time=0
note_off channel=0 note=59 velocity=100 time=64
note_off channel=0 note=47 velocity=100 time=0
note_off channel=0 note=71 velocity=100 time=0
note_on channel=0 note=69 velocity=101 time=27
note_on channel=0 note=76 velocity=127 time=1
note_off channel=0 note=69 velocity=0 time=4
note_off channel=0 note=76 velocity=0 time=0
note_on channel=0 note=69 velocity=45 time=212
note_on channel=0 note=64 velocity=127 time=1
note_on channel=0 note=81 velocity=45 time=0
note_on channel=0 note=76 velocity=127 time=0
note_on channel=0 note=57 velocity=127 time=15
note_on channel=0 note=69 velocity=127 time=0
note_off channel=0 note=69 velocity=0 time=188
note_off channel=0 note=81 velocity=0 time=0
note_off channel=0 note=64 velocity=0 time=8
note_off channel=0 note=76 velocity=0 time=0
note_off channel=0 note=57 velocity=0 time=84
note_off channel=0 note=69 velocity=0 time=0
note_on channel=0 note=59 velocity=110 time=0
note_on channel=0 note=71 velocity=110 time=0
note_off channel=0 note=59 velocity=0 time=16
note_off channel=0 note=71 velocity=0 time=0
note_on channel=0 note=52 velocity=127 time=3
note_on channel=0 note=59 velocity=124 time=0
note_on channel=0 note=64 velocity=127 time=0
note_on channel=0 note=71 velocity=124 time=0
note_off channel=0 note=59 velocity=0 time=108
note_off channel=0 note=71 velocity=0 time=0
note_on channel=0 note=59 velocity=127 time=67
note_on channel=0 note=71 velocity=127 time=1
note_on channel=0 note=66 velocity=127 time=3
note_on channel=0 note=71 velocity=58 time=0
note_on channel=0 note=78 velocity=127 time=0
note_on channel=0 note=83 velocity=58 time=0
note_off channel=0 note=52 velocity=0 time=44
note_off channel=0 note=64 velocity=0 time=0
note_off channel=0 note=59 velocity=0 time=228
note_off channel=0 note=71 velocity=0 time=0
note_off channel=0 note=66 velocity=0 time=60
note_off channel=0 note=78 velocity=0 time=0
note_off channel=0 note=71 velocity=0 time=4
note_off channel=0 note=83 velocity=0 time=0
note_on channel=0 note=69 velocity=34 time=0
note_on channel=0 note=81 velocity=34 time=0
note_on channel=0 note=64 velocity=121 time=11
note_on channel=0 note=76 velocity=121 time=0
note_on channel=0 note=57 velocity=127 time=19
note_on channel=0 note=69 velocity=127 time=0
note_off channel=0 note=64 velocity=0 time=112
note_off channel=0 note=76 velocity=0 time=0
note_off channel=0 note=69 velocity=0 time=8
note_off channel=0 note=81 velocity=0 time=0
note_on channel=0 note=67 velocity=30 time=0
note_on channel=0 note=79 velocity=30 time=0
note_off channel=0 note=67 velocity=0 time=76
note_off channel=0 note=79 velocity=0 time=0
note_on channel=0 note=66 velocity=127 time=3
note_on channel=0 note=67 velocity=77 time=0
note_on channel=0 note=78 velocity=127 time=0
note_on channel=0 note=79 velocity=77 time=0
note_off channel=0 note=57 velocity=0 time=20
note_off channel=0 note=69 velocity=0 time=0
note_off channel=0 note=67 velocity=0 time=0
note_off channel=0 note=79 velocity=0 time=0
note_on channel=0 note=59 velocity=127 time=0
note_on channel=0 note=71 velocity=75 time=0
note_on channel=0 note=71 velocity=127 time=0
note_on channel=0 note=83 velocity=75 time=0
note_off channel=0 note=59 velocity=0 time=112
note_off channel=0 note=71 velocity=0 time=0
note_off channel=0 note=71 velocity=0 time=0
note_off channel=0 note=83 velocity=0 time=0
note_off channel=0 note=66 velocity=0 time=4
note_off channel=0 note=78 velocity=0 time=0
note_on channel=0 note=69 velocity=45 time=329
note_on channel=0 note=64 velocity=127 time=49
note_on channel=0 note=81 velocity=45 time=0
note_on channel=0 note=76 velocity=127 time=0
note_on channel=0 note=57 velocity=127 time=15
note_on channel=0 note=69 velocity=127 time=3
note_off channel=0 note=69 velocity=0 time=188
note_off channel=0 note=81 velocity=0 time=0
note_off channel=0 note=64 velocity=0 time=8
note_off channel=0 note=76 velocity=0 time=0
note_off channel=0 note=57 velocity=0 time=84
note_off channel=0 note=69 velocity=0 time=0
note_on channel=0 note=59 velocity=110 time=0
note_on channel=0 note=71 velocity=110 time=0
note_off channel=0 note=59 velocity=0 time=16
note_off channel=0 note=71 velocity=0 time=0
note_on channel=0 note=52 velocity=127 time=4
note_on channel=0 note=59 velocity=124 time=0
note_on channel=0 note=64 velocity=127 time=0
note_on channel=0 note=71 velocity=124 time=0
note_off channel=0 note=59 velocity=0 time=108
note_off channel=0 note=71 velocity=0 time=0
note_on channel=0 note=59 velocity=127 time=66
note_on channel=0 note=71 velocity=127 time=12
note_on channel=0 note=66 velocity=127 time=3
note_on channel=0 note=71 velocity=58 time=0
note_on channel=0 note=78 velocity=127 time=0
note_on channel=0 note=83 velocity=58 time=0
note_off channel=0 note=52 velocity=0 time=44
note_off channel=0 note=64 velocity=0 time=0
note_off channel=0 note=59 velocity=0 time=228
note_off channel=0 note=71 velocity=0 time=0
note_off channel=0 note=66 velocity=0 time=60
note_off channel=0 note=78 velocity=0 time=0
note_off channel=0 note=71 velocity=0 time=4
note_off channel=0 note=83 velocity=0 time=0
note_on channel=0 note=69 velocity=34 time=0
note_on channel=0 note=81 velocity=34 time=0
note_on channel=0 note=64 velocity=121 time=12
note_on channel=0 note=76 velocity=121 time=2
note_on channel=0 note=57 velocity=127 time=19
note_on channel=0 note=69 velocity=127 time=3
note_off channel=0 note=64 velocity=0 time=112
note_off channel=0 note=76 velocity=0 time=0
note_off channel=0 note=69 velocity=0 time=8
note_off channel=0 note=81 velocity=0 time=0
note_on channel=0 note=67 velocity=30 time=0
note_on channel=0 note=79 velocity=30 time=0
note_off channel=0 note=67 velocity=0 time=76
note_off channel=0 note=79 velocity=0 time=0
note_on channel=0 note=66 velocity=127 time=3
note_on channel=0 note=67 velocity=77 time=0
note_on channel=0 note=78 velocity=127 time=0
note_on channel=0 note=79 velocity=77 time=0
note_off channel=0 note=57 velocity=0 time=20
note_off channel=0 note=69 velocity=0 time=0
note_off channel=0 note=67 velocity=0 time=0
note_off channel=0 note=79 velocity=0 time=0
note_on channel=0 note=59 velocity=127 time=0
note_on channel=0 note=71 velocity=75 time=0
note_on channel=0 note=71 velocity=127 time=0
note_on channel=0 note=83 velocity=75 time=0
note_off channel=0 note=59 velocity=0 time=112
note_off channel=0 note=71 velocity=0 time=0
note_off channel=0 note=71 velocity=0 time=0
note_off channel=0 note=83 velocity=0 time=0
note_off channel=0 note=66 velocity=0 time=4
note_off channel=0 note=78 velocity=0 time=0
note_on channel=0 note=74 velocity=24 time=260
note_on channel=0 note=67 velocity=127 time=42
note_on channel=0 note=79 velocity=127 time=7
note_on channel=0 note=62 velocity=127 time=35
note_off channel=0 note=79 velocity=0 time=112
note_off channel=0 note=74 velocity=0 time=8
note_off channel=0 note=67 velocity=0 time=120
note_off channel=0 note=62 velocity=0 time=32
note_on channel=0 note=62 velocity=127 time=1
note_on channel=0 note=78 velocity=127 time=15
note_on channel=0 note=74 velocity=127 time=0
note_on channel=0 note=69 velocity=127 time=12
note_off channel=0 note=69 velocity=0 time=108
note_off channel=0 note=78 velocity=0 time=8
note_off channel=0 note=74 velocity=0 time=12
note_off channel=0 note=62 velocity=0 time=120
note_on channel=0 note=62 velocity=126 time=2
note_on channel=0 note=57 velocity=127 time=11
note_on channel=0 note=69 velocity=127 time=11
note_off channel=0 note=62 velocity=0 time=28
note_on channel=0 note=64 velocity=125 time=1
note_off channel=0 note=57 velocity=0 time=228
note_off channel=0 note=64 velocity=0 time=36
note_on channel=0 note=55 velocity=127 time=3
note_on channel=0 note=60 velocity=127 time=15
note_off channel=0 note=60 velocity=0 time=0
note_off channel=0 note=55 velocity=0 time=116
note_off channel=0 note=69 velocity=0 time=12
note_on channel=0 note=69 velocity=127 time=2
note_on channel=0 note=57 velocity=127 time=11
note_on channel=0 note=64 velocity=127 time=6
note_on channel=0 note=57 velocity=127 time=276
note_off channel=0 note=69 velocity=0 time=80
note_off channel=0 note=64 velocity=0 time=4
note_on channel=0 note=79 velocity=127 time=33
note_off channel=0 note=57 velocity=0 time=4
note_on channel=0 note=74 velocity=127 time=2
note_on channel=0 note=55 velocity=127 time=0
note_on channel=0 note=62 velocity=127 time=7
note_on channel=0 note=67 velocity=127 time=26
note_off channel=0 note=55 velocity=0 time=96
note_off channel=0 note=74 velocity=0 time=20
note_off channel=0 note=79 velocity=0 time=4
note_off channel=0 note=57 velocity=0 time=128
note_off channel=0 note=67 velocity=0 time=0
note_on channel=0 note=78 velocity=127 time=28
note_on channel=0 note=74 velocity=127 time=3
note_on channel=0 note=69 velocity=127 time=0
note_on channel=0 note=62 velocity=100 time=4
note_off channel=0 note=62 velocity=100 time=128
note_off channel=0 note=69 velocity=0 time=20
note_off channel=0 note=78 velocity=0 time=20
note_off channel=0 note=74 velocity=0 time=24
note_off channel=0 note=62 velocity=0 time=84
note_on channel=0 note=64 velocity=109 time=0
note_on channel=0 note=57 velocity=127 time=11
note_on channel=0 note=69 velocity=127 time=22
note_off channel=0 note=64 velocity=0 time=276
note_off channel=0 note=57 velocity=0 time=0
note_on channel=0 note=55 velocity=127 time=9
note_off channel=0 note=55 velocity=0 time=144
note_off channel=0 note=69 velocity=0 time=8
note_on channel=0 note=69 velocity=103 time=6
note_on channel=0 note=58 velocity=127 time=0
note_on channel=0 note=65 velocity=127 time=12
note_off channel=0 note=58 velocity=0 time=60
note_on channel=0 note=57 velocity=127 time=1
note_off channel=0 note=65 velocity=0 time=24
note_on channel=0 note=64 velocity=127 time=3
note_off channel=0 note=69 velocity=0 time=376
note_off channel=0 note=64 velocity=0 time=0
note_on channel=0 note=69 velocity=45 time=34
note_on channel=0 note=64 velocity=127 time=4
note_on channel=0 note=81 velocity=45 time=0
note_on channel=0 note=76 velocity=127 time=0
note_on channel=0 note=57 velocity=127 time=15
note_on channel=0 note=69 velocity=127 time=2
note_off channel=0 note=57 velocity=0 time=16
note_off channel=0 note=69 velocity=0 time=172
note_off channel=0 note=81 velocity=0 time=0
note_off channel=0 note=64 velocity=0 time=8
note_off channel=0 note=76 velocity=0 time=0
note_off channel=0 note=57 velocity=0 time=84
note_off channel=0 note=69 velocity=0 time=0
note_on channel=0 note=59 velocity=110 time=0
note_on channel=0 note=71 velocity=110 time=0
note_off channel=0 note=59 velocity=0 time=16
note_off channel=0 note=71 velocity=0 time=0
note_on channel=0 note=52 velocity=127 time=4
note_on channel=0 note=59 velocity=124 time=0
note_on channel=0 note=64 velocity=127 time=0
note_on channel=0 note=71 velocity=124 time=0
note_off channel=0 note=59 velocity=0 time=108
note_off channel=0 note=71 velocity=0 time=0
note_on channel=0 note=59 velocity=127 time=66
note_on channel=0 note=71 velocity=127 time=10
note_on channel=0 note=66 velocity=127 time=4
note_on channel=0 note=71 velocity=58 time=0
note_on channel=0 note=78 velocity=127 time=0
note_on channel=0 note=83 velocity=58 time=0
note_off channel=0 note=52 velocity=0 time=44
note_off channel=0 note=64 velocity=0 time=0
note_off channel=0 note=59 velocity=0 time=228
note_off channel=0 note=71 velocity=0 time=0
note_off channel=0 note=66 velocity=0 time=60
note_off channel=0 note=78 velocity=0 time=0
note_off channel=0 note=71 velocity=0 time=4
note_off channel=0 note=83 velocity=0 time=0
note_on channel=0 note=69 velocity=34 time=0
note_on channel=0 note=81 velocity=34 time=0
note_on channel=0 note=64 velocity=121 time=11
note_on channel=0 note=76 velocity=121 time=2
note_on channel=0 note=57 velocity=127 time=19
note_on channel=0 note=69 velocity=127 time=3
note_off channel=0 note=64 velocity=0 time=112
note_off channel=0 note=76 velocity=0 time=0
note_off channel=0 note=69 velocity=0 time=8
note_off channel=0 note=81 velocity=0 time=0
note_on channel=0 note=67 velocity=30 time=0
note_on channel=0 note=79 velocity=30 time=0
note_off channel=0 note=67 velocity=0 time=76
note_off channel=0 note=79 velocity=0 time=0
note_on channel=0 note=66 velocity=127 time=4
note_on channel=0 note=67 velocity=77 time=0
note_on channel=0 note=78 velocity=127 time=0
note_on channel=0 note=79 velocity=77 time=0
note_off channel=0 note=57 velocity=0 time=20
note_off channel=0 note=69 velocity=0 time=0
note_off channel=0 note=67 velocity=0 time=0
note_off channel=0 note=79 velocity=0 time=0
note_on channel=0 note=59 velocity=127 time=0
note_on channel=0 note=71 velocity=75 time=0
note_on channel=0 note=71 velocity=127 time=0
note_on channel=0 note=83 velocity=75 time=0
note_off channel=0 note=59 velocity=0 time=112
note_off channel=0 note=71 velocity=0 time=0
note_off channel=0 note=71 velocity=0 time=0
note_off channel=0 note=83 velocity=0 time=0
note_off channel=0 note=66 velocity=0 time=4
note_off channel=0 note=78 velocity=0 time=0
note_on channel=0 note=69 velocity=45 time=328
note_on channel=0 note=64 velocity=127 time=69
note_on channel=0 note=81 velocity=45 time=0
note_on channel=0 note=76 velocity=127 time=0
note_on channel=0 note=57 velocity=127 time=16
note_on channel=0 note=69 velocity=127 time=1
note_off channel=0 note=69 velocity=0 time=188
note_off channel=0 note=81 velocity=0 time=0
note_off channel=0 note=64 velocity=0 time=8
note_off channel=0 note=76 velocity=0 time=0
note_off channel=0 note=57 velocity=0 time=84
note_off channel=0 note=69 velocity=0 time=0
note_on channel=0 note=59 velocity=110 time=0
note_on channel=0 note=71 velocity=110 time=0
note_off channel=0 note=59 velocity=0 time=16
note_off channel=0 note=71 velocity=0 time=0
note_on channel=0 note=52 velocity=127 time=3
note_on channel=0 note=59 velocity=124 time=0
note_on channel=0 note=64 velocity=127 time=0
note_on channel=0 note=71 velocity=124 time=0
note_off channel=0 note=59 velocity=0 time=108
note_off channel=0 note=71 velocity=0 time=0
note_on channel=0 note=59 velocity=127 time=66
note_on channel=0 note=71 velocity=127 time=2
note_on channel=0 note=66 velocity=127 time=4
note_on channel=0 note=71 velocity=58 time=0
note_on channel=0 note=78 velocity=127 time=0
note_on channel=0 note=83 velocity=58 time=0
note_off channel=0 note=52 velocity=0 time=44
note_off channel=0 note=64 velocity=0 time=0
note_off channel=0 note=59 velocity=0 time=228
note_off channel=0 note=71 velocity=0 time=0
note_off channel=0 note=66 velocity=0 time=60
note_off channel=0 note=78 velocity=0 time=0
note_off channel=0 note=71 velocity=0 time=4
note_off channel=0 note=83 velocity=0 time=0
note_on channel=0 note=69 velocity=34 time=0
note_on channel=0 note=81 velocity=34 time=0
note_on channel=0 note=64 velocity=121 time=11
note_on channel=0 note=76 velocity=121 time=0
note_on channel=0 note=57 velocity=127 time=19
note_on channel=0 note=69 velocity=127 time=1
note_off channel=0 note=64 velocity=0 time=112
note_off channel=0 note=76 velocity=0 time=0
note_off channel=0 note=69 velocity=0 time=8
note_off channel=0 note=81 velocity=0 time=0
note_on channel=0 note=67 velocity=30 time=0
note_on channel=0 note=79 velocity=30 time=0
note_off channel=0 note=67 velocity=0 time=76
note_off channel=0 note=79 velocity=0 time=0
note_on channel=0 note=66 velocity=127 time=4
note_on channel=0 note=67 velocity=77 time=0
note_on channel=0 note=78 velocity=127 time=0
note_on channel=0 note=79 velocity=77 time=0
note_off channel=0 note=57 velocity=0 time=20
note_off channel=0 note=69 velocity=0 time=0
note_off channel=0 note=67 velocity=0 time=0
note_off channel=0 note=79 velocity=0 time=0
note_on channel=0 note=59 velocity=127 time=0
note_on channel=0 note=71 velocity=75 time=0
note_on channel=0 note=71 velocity=127 time=0
note_on channel=0 note=83 velocity=75 time=0
note_off channel=0 note=59 velocity=0 time=112
note_off channel=0 note=71 velocity=0 time=0
note_off channel=0 note=71 velocity=0 time=0
note_off channel=0 note=83 velocity=0 time=0
note_off channel=0 note=66 velocity=0 time=4
note_off channel=0 note=78 velocity=0 time=0
note_on channel=0 note=50 velocity=76 time=116
note_on channel=0 note=55 velocity=127 time=0
note_on channel=0 note=67 velocity=89 time=0
note_on channel=0 note=62 velocity=95 time=0
note_on channel=0 note=59 velocity=127 time=0
note_off channel=0 note=50 velocity=0 time=192
note_off channel=0 note=55 velocity=0 time=0
note_off channel=0 note=67 velocity=0 time=0
note_off channel=0 note=62 velocity=0 time=0
note_off channel=0 note=59 velocity=0 time=0
note_on channel=0 note=50 velocity=76 time=93
note_on channel=0 note=55 velocity=127 time=60
note_on channel=0 note=67 velocity=89 time=0
note_on channel=0 note=62 velocity=95 time=0
note_on channel=0 note=59 velocity=127 time=0
note_off channel=0 note=50 velocity=0 time=192
note_off channel=0 note=55 velocity=0 time=0
note_off channel=0 note=67 velocity=0 time=0
note_off channel=0 note=62 velocity=0 time=0
note_off channel=0 note=59 velocity=0 time=0
note_on channel=0 note=50 velocity=76 time=93
note_on channel=0 note=55 velocity=127 time=39
note_on channel=0 note=67 velocity=89 time=0
note_on channel=0 note=62 velocity=95 time=0
note_on channel=0 note=59 velocity=127 time=0
note_off channel=0 note=50 velocity=0 time=192
note_off channel=0 note=55 velocity=0 time=0
note_off channel=0 note=67 velocity=0 time=0
note_off channel=0 note=62 velocity=0 time=0
note_off channel=0 note=59 velocity=0 time=0
note_on channel=0 note=50 velocity=54 time=94
note_on channel=0 note=55 velocity=124 time=36
note_on channel=0 note=59 velocity=127 time=0
note_on channel=0 note=62 velocity=65 time=0
note_on channel=0 note=67 velocity=65 time=0
note_off channel=0 note=50 velocity=0 time=64
note_off channel=0 note=55 velocity=0 time=0
note_off channel=0 note=59 velocity=0 time=0
note_off channel=0 note=62 velocity=0 time=0
note_off channel=0 note=67 velocity=0 time=0
note_on channel=0 note=59 velocity=39 time=31
note_on channel=0 note=67 velocity=65 time=10
note_on channel=0 note=49 velocity=42 time=0
note_off channel=0 note=59 velocity=0 time=64
note_off channel=0 note=67 velocity=0 time=0
note_off channel=0 note=49 velocity=0 time=0
note_on channel=0 note=50 velocity=54 time=31
note_on channel=0 note=59 velocity=121 time=9
note_on channel=0 note=55 velocity=107 time=0
note_on channel=0 note=62 velocity=69 time=0
note_on channel=0 note=67 velocity=71 time=0
note_off channel=0 note=50 velocity=0 time=64
note_off channel=0 note=59 velocity=0 time=0
note_off channel=0 note=55 velocity=0 time=0
note_off channel=0 note=62 velocity=0 time=0
note_off channel=0 note=67 velocity=0 time=0
note_on channel=0 note=50 velocity=64 time=32
note_on channel=0 note=55 velocity=118 time=8
note_on channel=0 note=59 velocity=127 time=0
note_on channel=0 note=62 velocity=66 time=0
note_on channel=0 note=67 velocity=63 time=0
note_off channel=0 note=50 velocity=0 time=128
note_off channel=0 note=55 velocity=0 time=0
note_off channel=0 note=59 velocity=0 time=0
note_off channel=0 note=62 velocity=0 time=0
note_off channel=0 note=67 velocity=0 time=0
note_on channel=0 note=50 velocity=68 time=62
note_on channel=0 note=55 velocity=127 time=14
note_on channel=0 note=59 velocity=127 time=0
note_on channel=0 note=62 velocity=89 time=0
note_on channel=0 note=67 velocity=107 time=0
note_off channel=0 note=50 velocity=0 time=128
note_off channel=0 note=55 velocity=0 time=0
note_off channel=0 note=59 velocity=0 time=0
note_off channel=0 note=62 velocity=0 time=0
note_off channel=0 note=67 velocity=0 time=0
note_on channel=0 note=50 velocity=127 time=63
note_on channel=0 note=66 velocity=127 time=10
note_on channel=0 note=57 velocity=127 time=0
note_on channel=0 note=62 velocity=121 time=0
note_off channel=0 note=50 velocity=0 time=192
note_off channel=0 note=66 velocity=0 time=0
note_off channel=0 note=57 velocity=0 time=0
note_off channel=0 note=62 velocity=0 time=0
note_on channel=0 note=50 velocity=127 time=95
note_on channel=0 note=62 velocity=107 time=9
note_on channel=0 note=66 velocity=107 time=0
note_on channel=0 note=57 velocity=127 time=0
note_off channel=0 note=50 velocity=0 time=192
note_off channel=0 note=62 velocity=0 time=0
note_off channel=0 note=66 velocity=0 time=0
note_off channel=0 note=57 velocity=0 time=0
note_on channel=0 note=50 velocity=127 time=95
note_on channel=0 note=62 velocity=104 time=1
note_on channel=0 note=66 velocity=118 time=0
note_on channel=0 note=57 velocity=127 time=0
note_off channel=0 note=50 velocity=0 time=512
note_off channel=0 note=62 velocity=0 time=0
note_off channel=0 note=66 velocity=0 time=0
note_off channel=0 note=57 velocity=0 time=0
note_on channel=0 note=52 velocity=127 time=444
note_on channel=0 note=47 velocity=127 time=37
note_on channel=0 note=64 velocity=32 time=0
note_on channel=0 note=56 velocity=127 time=0
note_on channel=0 note=40 velocity=80 time=0
note_on channel=0 note=64 velocity=127 time=0
note_on channel=0 note=59 velocity=127 time=0
note_on channel=0 note=76 velocity=32 time=0
note_on channel=0 note=71 velocity=127 time=0
note_on channel=0 note=68 velocity=127 time=0
note_on channel=0 note=52 velocity=80 time=0
note_on channel=0 note=59 velocity=127 time=0
note_off channel=0 note=52 velocity=0 time=384
note_off channel=0 note=47 velocity=0 time=0
note_off channel=0 note=64 velocity=0 time=0
note_off channel=0 note=56 velocity=0 time=0
note_off channel=0 note=40 velocity=0 time=0
note_off channel=0 note=64 velocity=0 time=0
note_off channel=0 note=59 velocity=0 time=0
note_off channel=0 note=76 velocity=0 time=0
note_off channel=0 note=71 velocity=0 time=0
note_off channel=0 note=68 velocity=0 time=0
note_off channel=0 note=52 velocity=0 time=0
note_off channel=0 note=59 velocity=0 time=0
note_on channel=0 note=50 velocity=127 time=189
note_on channel=0 note=62 velocity=127 time=38
note_on channel=0 note=57 velocity=127 time=0
note_on channel=0 note=66 velocity=127 time=0
note_on channel=0 note=62 velocity=127 time=0
note_on channel=0 note=74 velocity=127 time=0
note_on channel=0 note=69 velocity=127 time=0
note_on channel=0 note=78 velocity=127 time=0
note_off channel=0 note=50 velocity=0 time=96
note_off channel=0 note=62 velocity=0 time=0
note_off channel=0 note=57 velocity=0 time=0
note_off channel=0 note=66 velocity=0 time=0
note_off channel=0 note=62 velocity=0 time=0
note_off channel=0 note=74 velocity=0 time=0
note_off channel=0 note=69 velocity=0 time=0
note_off channel=0 note=78 velocity=0 time=0
note_on channel=0 note=66 velocity=78 time=0
note_on channel=0 note=62 velocity=127 time=0
note_on channel=0 note=57 velocity=100 time=0
note_on channel=0 note=50 velocity=100 time=0
note_on channel=0 note=78 velocity=78 time=0
note_on channel=0 note=74 velocity=127 time=0
note_on channel=0 note=69 velocity=100 time=0
note_on channel=0 note=62 velocity=100 time=0
note_off channel=0 note=66 velocity=0 time=96
note_off channel=0 note=62 velocity=0 time=0
note_off channel=0 note=57 velocity=100 time=0
note_off channel=0 note=50 velocity=100 time=0
note_off channel=0 note=78 velocity=0 time=0
note_off channel=0 note=74 velocity=0 time=0
note_off channel=0 note=69 velocity=100 time=0
note_off channel=0 note=62 velocity=100 time=0
note_on channel=0 note=62 velocity=127 time=0
note_on channel=0 note=66 velocity=127 time=0
note_on channel=0 note=57 velocity=100 time=0
note_on channel=0 note=50 velocity=100 time=0
note_on channel=0 note=74 velocity=127 time=0
note_on channel=0 note=78 velocity=127 time=0
note_on channel=0 note=69 velocity=100 time=0
note_on channel=0 note=62 velocity=100 time=0
note_off channel=0 note=62 velocity=0 time=384
note_off channel=0 note=66 velocity=0 time=0
note_off channel=0 note=57 velocity=100 time=0
note_off channel=0 note=50 velocity=100 time=0
note_off channel=0 note=74 velocity=0 time=0
note_off channel=0 note=78 velocity=0 time=0
note_off channel=0 note=69 velocity=100 time=0
note_off channel=0 note=62 velocity=100 time=0
note_on channel=0 note=45 velocity=127 time=189
note_on channel=0 note=61 velocity=127 time=75
note_on channel=0 note=52 velocity=127 time=0
note_on channel=0 note=57 velocity=127 time=0
note_on channel=0 note=57 velocity=127 time=0
note_on channel=0 note=73 velocity=127 time=0
note_on channel=0 note=64 velocity=127 time=0
note_on channel=0 note=69 velocity=127 time=0
note_off channel=0 note=45 velocity=0 time=96
note_off channel=0 note=61 velocity=0 time=0
note_off channel=0 note=52 velocity=0 time=0
note_off channel=0 note=57 velocity=0 time=0
note_off channel=0 note=57 velocity=0 time=0
note_off channel=0 note=73 velocity=0 time=0
note_off channel=0 note=64 velocity=0 time=0
note_off channel=0 note=69 velocity=0 time=0
note_on channel=0 note=45 velocity=127 time=0
note_on channel=0 note=52 velocity=100 time=0
note_on channel=0 note=57 velocity=100 time=0
note_on channel=0 note=61 velocity=100 time=0
note_on channel=0 note=57 velocity=127 time=0
note_on channel=0 note=64 velocity=100 time=0
note_on channel=0 note=69 velocity=100 time=0
note_on channel=0 note=73 velocity=100 time=0
note_off channel=0 note=45 velocity=0 time=96
note_off channel=0 note=52 velocity=100 time=0
note_off channel=0 note=57 velocity=100 time=0
note_off channel=0 note=61 velocity=100 time=0
note_off channel=0 note=57 velocity=0 time=0
note_off channel=0 note=64 velocity=100 time=0
note_off channel=0 note=69 velocity=100 time=0
note_off channel=0 note=73 velocity=100 time=0
note_on channel=0 note=45 velocity=127 time=0
note_on channel=0 note=61 velocity=127 time=0
note_on channel=0 note=64 velocity=127 time=0
note_on channel=0 note=57 velocity=100 time=0
note_on channel=0 note=52 velocity=100 time=0
note_on channel=0 note=57 velocity=127 time=0
note_on channel=0 note=73 velocity=127 time=0
note_on channel=0 note=76 velocity=127 time=0
note_on channel=0 note=69 velocity=100 time=0
note_on channel=0 note=64 velocity=100 time=0
note_off channel=0 note=45 velocity=0 time=384
note_off channel=0 note=61 velocity=0 time=0
note_off channel=0 note=64 velocity=0 time=0
note_off channel=0 note=57 velocity=100 time=0
note_off channel=0 note=52 velocity=100 time=0
note_off channel=0 note=57 velocity=0 time=0
note_off channel=0 note=73 velocity=0 time=0
note_off channel=0 note=76 velocity=0 time=0
note_off channel=0 note=69 velocity=100 time=0
note_off channel=0 note=64 velocity=100 time=0
note_on channel=0 note=79 velocity=127 time=469
note_on channel=0 note=67 velocity=127 time=199
note_off channel=0 note=79 velocity=0 time=64
note_off channel=0 note=67 velocity=0 time=0
note_on channel=0 note=76 velocity=127 time=30
note_on channel=0 note=64 velocity=127 time=5
note_on channel=0 note=74 velocity=127 time=92
note_on channel=0 note=62 velocity=127 time=11
note_off channel=0 note=76 velocity=0 time=32
note_off channel=0 note=64 velocity=0 time=0
note_off channel=0 note=74 velocity=0 time=32
note_off channel=0 note=62 velocity=0 time=0
note_on channel=0 note=71 velocity=127 time=31
note_on channel=0 note=59 velocity=127 time=3
note_on channel=0 note=71 velocity=127 time=92
note_on channel=0 note=59 velocity=127 time=8
note_off channel=0 note=71 velocity=0 time=32
note_off channel=0 note=59 velocity=0 time=0
note_on channel=0 note=69 velocity=127 time=61
note_on channel=0 note=57 velocity=127 time=5
note_off channel=0 note=71 velocity=0 time=12
note_off channel=0 note=59 velocity=0 time=8
note_off channel=0 note=69 velocity=0 time=44
note_off channel=0 note=57 velocity=0 time=0
note_on channel=0 note=67 velocity=127 time=31
note_on channel=0 note=55 velocity=127 time=2
note_off channel=0 note=67 velocity=0 time=64
note_off channel=0 note=55 velocity=0 time=0
note_on channel=0 note=52 velocity=127 time=30
note_on channel=0 note=47 velocity=127 time=2
note_on channel=0 note=64 velocity=32 time=0
note_on channel=0 note=59 velocity=127 time=0
note_on channel=0 note=56 velocity=127 time=0
note_on channel=0 note=40 velocity=80 time=0
note_off channel=0 note=52 velocity=0 time=384
note_off channel=0 note=47 velocity=0 time=0
note_off channel=0 note=64 velocity=0 time=0
note_off channel=0 note=59 velocity=0 time=0
note_off channel=0 note=56 velocity=0 time=0
note_off channel=0 note=40 velocity=0 time=0
note_on channel=0 note=50 velocity=127 time=184
note_on channel=0 note=62 velocity=127 time=0
note_on channel=0 note=57 velocity=127 time=0
note_on channel=0 note=66 velocity=127 time=0
note_off channel=0 note=50 velocity=0 time=96
note_off channel=0 note=62 velocity=0 time=0
note_off channel=0 note=57 velocity=0 time=0
note_off channel=0 note=66 velocity=0 time=0
note_on channel=0 note=66 velocity=78 time=0
note_on channel=0 note=62 velocity=127 time=0
note_on channel=0 note=57 velocity=100 time=0
note_on channel=0 note=50 velocity=100 time=0
note_off channel=0 note=66 velocity=0 time=96
note_off channel=0 note=62 velocity=0 time=0
note_off channel=0 note=57 velocity=100 time=0
note_off channel=0 note=50 velocity=100 time=0
note_on channel=0 note=62 velocity=127 time=0
note_on channel=0 note=66 velocity=127 time=0
note_on channel=0 note=57 velocity=100 time=0
note_on channel=0 note=50 velocity=100 time=0
note_off channel=0 note=62 velocity=0 time=384
note_off channel=0 note=66 velocity=0 time=0
note_off channel=0 note=57 velocity=100 time=0
note_off channel=0 note=50 velocity=100 time=0
note_on channel=0 note=45 velocity=127 time=184
note_on channel=0 note=61 velocity=127 time=45
note_on channel=0 note=52 velocity=127 time=0
note_on channel=0 note=57 velocity=127 time=0
note_off channel=0 note=45 velocity=0 time=96
note_off channel=0 note=61 velocity=0 time=0
note_off channel=0 note=52 velocity=0 time=0
note_off channel=0 note=57 velocity=0 time=0
note_on channel=0 note=45 velocity=127 time=0
note_on channel=0 note=52 velocity=100 time=0
note_on channel=0 note=57 velocity=100 time=0
note_on channel=0 note=61 velocity=100 time=0
note_off channel=0 note=45 velocity=0 time=96
note_off channel=0 note=52 velocity=100 time=0
note_off channel=0 note=57 velocity=100 time=0
note_off channel=0 note=61 velocity=100 time=0
note_on channel=0 note=45 velocity=127 time=0
note_on channel=0 note=61 velocity=127 time=0
note_on channel=0 note=64 velocity=127 time=0
note_on channel=0 note=57 velocity=100 time=0
note_on channel=0 note=52 velocity=100 time=0
note_off channel=0 note=45 velocity=0 time=384
note_off channel=0 note=61 velocity=0 time=0
note_off channel=0 note=64 velocity=0 time=0
note_off channel=0 note=57 velocity=100 time=0
note_off channel=0 note=52 velocity=100 time=0
note_on channel=0 note=59 velocity=117 time=0
note_on channel=0 note=47 velocity=117 time=0
note_on channel=0 note=71 velocity=117 time=0
note_off channel=0 note=59 velocity=0 time=64
note_off channel=0 note=47 velocity=0 time=0
note_off channel=0 note=71 velocity=0 time=0
note_on channel=0 note=56 velocity=127 time=30
note_on channel=0 note=44 velocity=127 time=13
note_on channel=0 note=68 velocity=127 time=0
note_off channel=0 note=56 velocity=0 time=128
note_off channel=0 note=44 velocity=0 time=0
note_off channel=0 note=68 velocity=0 time=0
note_on channel=0 note=59 velocity=109 time=61
note_on channel=0 note=47 velocity=109 time=31
note_on channel=0 note=71 velocity=109 time=0
note_off channel=0 note=59 velocity=0 time=64
note_off channel=0 note=47 velocity=0 time=0
note_off channel=0 note=71 velocity=0 time=0
note_on channel=0 note=57 velocity=97 time=30
note_on channel=0 note=45 velocity=97 time=17
note_on channel=0 note=69 velocity=97 time=0
note_off channel=0 note=57 velocity=0 time=128
note_off channel=0 note=45 velocity=0 time=0
note_off channel=0 note=69 velocity=0 time=0
note_on channel=0 note=59 velocity=111 time=62
note_on channel=0 note=47 velocity=111 time=39
note_on channel=0 note=71 velocity=111 time=0
note_off channel=0 note=59 velocity=0 time=64
note_off channel=0 note=47 velocity=0 time=0
note_off channel=0 note=71 velocity=0 time=0
note_on channel=0 note=58 velocity=108 time=30
note_on channel=0 note=46 velocity=108 time=20
note_on channel=0 note=70 velocity=108 time=0
note_off channel=0 note=58 velocity=0 time=128
note_off channel=0 note=46 velocity=0 time=0
note_off channel=0 note=70 velocity=0 time=0
note_on channel=0 note=59 velocity=103 time=62
note_on channel=0 note=47 velocity=103 time=42
note_on channel=0 note=71 velocity=103 time=0
note_off channel=0 note=59 velocity=0 time=64
note_off channel=0 note=47 velocity=0 time=0
note_off channel=0 note=71 velocity=0 time=0
note_on channel=0 note=58 velocity=119 time=31
note_on channel=0 note=46 velocity=119 time=21
note_on channel=0 note=70 velocity=119 time=0
note_off channel=0 note=58 velocity=0 time=64
note_off channel=0 note=46 velocity=0 time=0
note_off channel=0 note=70 velocity=0 time=0
note_on channel=0 note=59 velocity=100 time=31
note_on channel=0 note=47 velocity=100 time=20
note_on channel=0 note=71 velocity=100 time=0
note_off channel=0 note=59 velocity=100 time=64
note_off channel=0 note=47 velocity=100 time=0
note_off channel=0 note=71 velocity=100 time=0
note_on channel=0 note=52 velocity=127 time=31
note_on channel=0 note=47 velocity=127 time=20
note_on channel=0 note=64 velocity=32 time=0
note_on channel=0 note=56 velocity=127 time=0
note_on channel=0 note=40 velocity=80 time=0
note_on channel=0 note=64 velocity=127 time=0
note_on channel=0 note=59 velocity=127 time=0
note_on channel=0 note=76 velocity=32 time=0
note_on channel=0 note=71 velocity=127 time=0
note_on channel=0 note=68 velocity=127 time=0
note_on channel=0 note=52 velocity=80 time=0
note_on channel=0 note=59 velocity=127 time=0
note_off channel=0 note=52 velocity=0 time=384
note_off channel=0 note=47 velocity=0 time=0
note_off channel=0 note=64 velocity=0 time=0
note_off channel=0 note=56 velocity=0 time=0
note_off channel=0 note=40 velocity=0 time=0
note_off channel=0 note=64 velocity=0 time=0
note_off channel=0 note=59 velocity=0 time=0
note_off channel=0 note=76 velocity=0 time=0
note_off channel=0 note=71 velocity=0 time=0
note_off channel=0 note=68 velocity=0 time=0
note_off channel=0 note=52 velocity=0 time=0
note_off channel=0 note=59 velocity=0 time=0
note_on channel=0 note=50 velocity=127 time=188
note_on channel=0 note=62 velocity=127 time=96
note_on channel=0 note=57 velocity=127 time=0
note_on channel=0 note=66 velocity=127 time=0
note_on channel=0 note=62 velocity=127 time=0
note_on channel=0 note=74 velocity=127 time=0
note_on channel=0 note=69 velocity=127 time=0
note_on channel=0 note=78 velocity=127 time=0
note_off channel=0 note=50 velocity=0 time=96
note_off channel=0 note=62 velocity=0 time=0
note_off channel=0 note=57 velocity=0 time=0
note_off channel=0 note=66 velocity=0 time=0
note_off channel=0 note=62 velocity=0 time=0
note_off channel=0 note=74 velocity=0 time=0
note_off channel=0 note=69 velocity=0 time=0
note_off channel=0 note=78 velocity=0 time=0
note_on channel=0 note=66 velocity=78 time=0
note_on channel=0 note=62 velocity=127 time=0
note_on channel=0 note=57 velocity=100 time=0
note_on channel=0 note=50 velocity=100 time=0
note_on channel=0 note=78 velocity=78 time=0
note_on channel=0 note=74 velocity=127 time=0
note_on channel=0 note=69 velocity=100 time=0
note_on channel=0 note=62 velocity=100 time=0
note_off channel=0 note=66 velocity=0 time=96
note_off channel=0 note=62 velocity=0 time=0
note_off channel=0 note=57 velocity=100 time=0
note_off channel=0 note=50 velocity=100 time=0
note_off channel=0 note=78 velocity=0 time=0
note_off channel=0 note=74 velocity=0 time=0
note_off channel=0 note=69 velocity=100 time=0
note_off channel=0 note=62 velocity=100 time=0
note_on channel=0 note=62 velocity=127 time=0
note_on channel=0 note=66 velocity=127 time=0
note_on channel=0 note=57 velocity=100 time=0
note_on channel=0 note=50 velocity=100 time=0
note_on channel=0 note=74 velocity=127 time=0
note_on channel=0 note=78 velocity=127 time=0
note_on channel=0 note=69 velocity=100 time=0
note_on channel=0 note=62 velocity=100 time=0
note_off channel=0 note=62 velocity=0 time=384
note_off channel=0 note=66 velocity=0 time=0
note_off channel=0 note=57 velocity=100 time=0
note_off channel=0 note=50 velocity=100 time=0
note_off channel=0 note=74 velocity=0 time=0
note_off channel=0 note=78 velocity=0 time=0
note_off channel=0 note=69 velocity=100 time=0
note_off channel=0 note=62 velocity=100 time=0
note_on channel=0 note=45 velocity=127 time=189
note_on channel=0 note=61 velocity=127 time=37
note_on channel=0 note=52 velocity=127 time=0
note_on channel=0 note=57 velocity=127 time=0
note_on channel=0 note=57 velocity=127 time=0
note_on channel=0 note=73 velocity=127 time=0
note_on channel=0 note=64 velocity=127 time=0
note_on channel=0 note=69 velocity=127 time=0
note_off channel=0 note=45 velocity=0 time=96
note_off channel=0 note=61 velocity=0 time=0
note_off channel=0 note=52 velocity=0 time=0
note_off channel=0 note=57 velocity=0 time=0
note_off channel=0 note=57 velocity=0 time=0
note_off channel=0 note=73 velocity=0 time=0
note_off channel=0 note=64 velocity=0 time=0
note_off channel=0 note=69 velocity=0 time=0
note_on channel=0 note=45 velocity=127 time=0
note_on channel=0 note=52 velocity=100 time=0
note_on channel=0 note=57 velocity=100 time=0
note_on channel=0 note=61 velocity=100 time=0
note_on channel=0 note=57 velocity=127 time=0
note_on channel=0 note=64 velocity=100 time=0
note_on channel=0 note=69 velocity=100 time=0
note_on channel=0 note=73 velocity=100 time=0
note_off channel=0 note=45 velocity=0 time=96
note_off channel=0 note=52 velocity=100 time=0
note_off channel=0 note=57 velocity=100 time=0
note_off channel=0 note=61 velocity=100 time=0
note_off channel=0 note=57 velocity=0 time=0
note_off channel=0 note=64 velocity=100 time=0
note_off channel=0 note=69 velocity=100 time=0
note_off channel=0 note=73 velocity=100 time=0
note_on channel=0 note=45 velocity=127 time=0
note_on channel=0 note=61 velocity=127 time=0
note_on channel=0 note=64 velocity=127 time=0
note_on channel=0 note=57 velocity=100 time=0
note_on channel=0 note=52 velocity=100 time=0
note_on channel=0 note=57 velocity=127 time=0
note_on channel=0 note=73 velocity=127 time=0
note_on channel=0 note=76 velocity=127 time=0
note_on channel=0 note=69 velocity=100 time=0
note_on channel=0 note=64 velocity=100 time=0
note_off channel=0 note=45 velocity=0 time=384
note_off channel=0 note=61 velocity=0 time=0
note_off channel=0 note=64 velocity=0 time=0
note_off channel=0 note=57 velocity=100 time=0
note_off channel=0 note=52 velocity=100 time=0
note_off channel=0 note=57 velocity=0 time=0
note_off channel=0 note=73 velocity=0 time=0
note_off channel=0 note=76 velocity=0 time=0
note_off channel=0 note=69 velocity=100 time=0
note_off channel=0 note=64 velocity=100 time=0
note_on channel=0 note=79 velocity=127 time=476
note_on channel=0 note=67 velocity=127 time=82
note_off channel=0 note=79 velocity=0 time=64
note_off channel=0 note=67 velocity=0 time=0
note_on channel=0 note=76 velocity=127 time=31
note_on channel=0 note=64 velocity=127 time=10
note_on channel=0 note=74 velocity=127 time=95
note_on channel=0 note=62 velocity=127 time=27
note_off channel=0 note=76 velocity=0 time=32
note_off channel=0 note=64 velocity=0 time=0
note_off channel=0 note=74 velocity=0 time=32
note_off channel=0 note=62 velocity=0 time=0
note_on channel=0 note=71 velocity=127 time=31
note_on channel=0 note=59 velocity=127 time=7
note_on channel=0 note=71 velocity=127 time=95
note_on channel=0 note=59 velocity=127 time=14
note_off channel=0 note=71 velocity=0 time=32
note_off channel=0 note=59 velocity=0 time=0
note_on channel=0 note=69 velocity=127 time=64
note_on channel=0 note=57 velocity=127 time=3
note_off channel=0 note=71 velocity=0 time=12
note_off channel=0 note=59 velocity=0 time=8
note_off channel=0 note=69 velocity=0 time=44
note_off channel=0 note=57 velocity=0 time=0
note_on channel=0 note=67 velocity=127 time=32
note_on channel=0 note=55 velocity=127 time=0
note_off channel=0 note=67 velocity=0 time=64
note_off channel=0 note=55 velocity=0 time=0
note_on channel=0 note=52 velocity=127 time=31
note_on channel=0 note=47 velocity=127 time=0
note_on channel=0 note=64 velocity=32 time=0
note_on channel=0 note=59 velocity=127 time=0
note_on channel=0 note=56 velocity=127 time=0
note_on channel=0 note=40 velocity=80 time=0
note_off channel=0 note=52 velocity=0 time=384
note_off channel=0 note=47 velocity=0 time=0
note_off channel=0 note=64 velocity=0 time=0
note_off channel=0 note=59 velocity=0 time=0
note_off channel=0 note=56 velocity=0 time=0
note_off channel=0 note=40 velocity=0 time=0
note_on channel=0 note=50 velocity=127 time=192
note_on channel=0 note=62 velocity=127 time=26
note_on channel=0 note=57 velocity=127 time=0
note_on channel=0 note=66 velocity=127 time=0
note_off channel=0 note=50 velocity=0 time=96
note_off channel=0 note=62 velocity=0 time=0
note_off channel=0 note=57 velocity=0 time=0
note_off channel=0 note=66 velocity=0 time=0
note_on channel=0 note=66 velocity=78 time=0
note_on channel=0 note=62 velocity=127 time=0
note_on channel=0 note=57 velocity=100 time=0
note_on channel=0 note=50 velocity=100 time=0
note_off channel=0 note=66 velocity=0 time=96
note_off channel=0 note=62 velocity=0 time=0
note_off channel=0 note=57 velocity=100 time=0
note_off channel=0 note=50 velocity=100 time=0
note_on channel=0 note=62 velocity=127 time=0
note_on channel=0 note=66 velocity=127 time=0
note_on channel=0 note=57 velocity=100 time=0
note_on channel=0 note=50 velocity=100 time=0
note_off channel=0 note=62 velocity=0 time=384
note_off channel=0 note=66 velocity=0 time=0
note_off channel=0 note=57 velocity=100 time=0
note_off channel=0 note=50 velocity=100 time=0
note_on channel=0 note=45 velocity=127 time=191
note_on channel=0 note=61 velocity=127 time=49
note_on channel=0 note=52 velocity=127 time=0
note_on channel=0 note=57 velocity=127 time=0
note_off channel=0 note=45 velocity=0 time=96
note_off channel=0 note=61 velocity=0 time=0
note_off channel=0 note=52 velocity=0 time=0
note_off channel=0 note=57 velocity=0 time=0
note_on channel=0 note=45 velocity=127 time=0
note_on channel=0 note=52 velocity=100 time=0
note_on channel=0 note=57 velocity=100 time=0
note_on channel=0 note=61 velocity=100 time=0
note_off channel=0 note=45 velocity=0 time=96
note_off channel=0 note=52 velocity=100 time=0
note_off channel=0 note=57 velocity=100 time=0
note_off channel=0 note=61 velocity=100 time=0
note_on channel=0 note=45 velocity=127 time=0
note_on channel=0 note=61 velocity=127 time=0
note_on channel=0 note=64 velocity=127 time=0
note_on channel=0 note=57 velocity=100 time=0
note_on channel=0 note=52 velocity=100 time=0
note_off channel=0 note=45 velocity=0 time=384
note_off channel=0 note=61 velocity=0 time=0
note_off channel=0 note=64 velocity=0 time=0
note_off channel=0 note=57 velocity=100 time=0
note_off channel=0 note=52 velocity=100 time=0
note_on channel=0 note=59 velocity=117 time=0
note_on channel=0 note=47 velocity=117 time=0
note_on channel=0 note=71 velocity=117 time=0
note_off channel=0 note=59 velocity=0 time=64
note_off channel=0 note=47 velocity=0 time=0
note_off channel=0 note=71 velocity=0 time=0
note_on channel=0 note=56 velocity=127 time=32
note_on channel=0 note=44 velocity=127 time=8
note_on channel=0 note=68 velocity=127 time=0
note_off channel=0 note=56 velocity=0 time=128
note_off channel=0 note=44 velocity=0 time=0
note_off channel=0 note=68 velocity=0 time=0
note_on channel=0 note=59 velocity=109 time=63
note_on channel=0 note=47 velocity=109 time=14
note_on channel=0 note=71 velocity=109 time=0
note_off channel=0 note=59 velocity=0 time=64
note_off channel=0 note=47 velocity=0 time=0
note_off channel=0 note=71 velocity=0 time=0
note_on channel=0 note=57 velocity=97 time=32
note_on channel=0 note=45 velocity=97 time=6
note_on channel=0 note=69 velocity=97 time=0
note_off channel=0 note=57 velocity=0 time=128
note_off channel=0 note=45 velocity=0 time=0
note_off channel=0 note=69 velocity=0 time=0
note_on channel=0 note=59 velocity=111 time=63
note_on channel=0 note=47 velocity=111 time=9
note_on channel=0 note=71 velocity=111 time=0
note_off channel=0 note=59 velocity=0 time=64
note_off channel=0 note=47 velocity=0 time=0
note_off channel=0 note=71 velocity=0 time=0
note_on channel=0 note=58 velocity=108 time=32
note_on channel=0 note=46 velocity=108 time=3
note_on channel=0 note=70 velocity=108 time=0
note_off channel=0 note=58 velocity=0 time=128
note_off channel=0 note=46 velocity=0 time=0
note_off channel=0 note=70 velocity=0 time=0
note_on channel=0 note=59 velocity=103 time=63
note_on channel=0 note=47 velocity=103 time=3
note_on channel=0 note=71 velocity=103 time=0
note_off channel=0 note=59 velocity=0 time=64
note_off channel=0 note=47 velocity=0 time=0
note_off channel=0 note=71 velocity=0 time=0
note_on channel=0 note=58 velocity=119 time=32
note_on channel=0 note=46 velocity=119 time=0
note_on channel=0 note=70 velocity=119 time=0
note_off channel=0 note=58 velocity=0 time=64
note_off channel=0 note=46 velocity=0 time=0
note_off channel=0 note=70 velocity=0 time=0
note_on channel=0 note=59 velocity=100 time=31
note_on channel=0 note=47 velocity=100 time=0
note_on channel=0 note=71 velocity=100 time=0
note_off channel=0 note=59 velocity=100 time=64
note_off channel=0 note=47 velocity=100 time=0
note_off channel=0 note=71 velocity=100 time=0
note_on channel=0 note=69 velocity=101 time=27
note_on channel=0 note=76 velocity=127 time=0
note_off channel=0 note=69 velocity=0 time=4
note_off channel=0 note=76 velocity=0 time=0
note_on channel=0 note=69 velocity=45 time=214
note_on channel=0 note=64 velocity=127 time=5
note_on channel=0 note=81 velocity=45 time=0
note_on channel=0 note=76 velocity=127 time=0
note_on channel=0 note=57 velocity=127 time=16
note_on channel=0 note=69 velocity=127 time=1
note_off channel=0 note=69 velocity=0 time=188
note_off channel=0 note=81 velocity=0 time=0
note_off channel=0 note=64 velocity=0 time=8
note_off channel=0 note=76 velocity=0 time=0
note_off channel=0 note=57 velocity=0 time=84
note_off channel=0 note=69 velocity=0 time=0
note_on channel=0 note=59 velocity=110 time=0
note_on channel=0 note=71 velocity=110 time=0
note_off channel=0 note=59 velocity=0 time=16
note_off channel=0 note=71 velocity=0 time=0
note_on channel=0 note=52 velocity=127 time=3
note_on channel=0 note=59 velocity=124 time=0
note_on channel=0 note=64 velocity=127 time=0
note_on channel=0 note=71 velocity=124 time=0
note_off channel=0 note=59 velocity=0 time=108
note_off channel=0 note=71 velocity=0 time=0
note_on channel=0 note=59 velocity=127 time=67
note_on channel=0 note=71 velocity=127 time=8
note_on channel=0 note=66 velocity=127 time=4
note_on channel=0 note=71 velocity=58 time=0
note_on channel=0 note=78 velocity=127 time=0
note_on channel=0 note=83 velocity=58 time=0
note_off channel=0 note=52 velocity=0 time=44
note_off channel=0 note=64 velocity=0 time=0
note_off channel=0 note=59 velocity=0 time=228
note_off channel=0 note=71 velocity=0 time=0
note_off channel=0 note=66 velocity=0 time=60
note_off channel=0 note=78 velocity=0 time=0
note_off channel=0 note=71 velocity=0 time=4
note_off channel=0 note=83 velocity=0 time=0
note_on channel=0 note=69 velocity=34 time=0
note_on channel=0 note=81 velocity=34 time=0
note_on channel=0 note=64 velocity=121 time=12
note_on channel=0 note=76 velocity=121 time=1
note_on channel=0 note=57 velocity=127 time=19
note_on channel=0 note=69 velocity=127 time=3
note_off channel=0 note=64 velocity=0 time=112
note_off channel=0 note=76 velocity=0 time=0
note_off channel=0 note=69 velocity=0 time=8
note_off channel=0 note=81 velocity=0 time=0
note_on channel=0 note=67 velocity=30 time=0
note_on channel=0 note=79 velocity=30 time=0
note_off channel=0 note=67 velocity=0 time=76
note_off channel=0 note=79 velocity=0 time=0
note_on channel=0 note=66 velocity=127 time=4
note_on channel=0 note=67 velocity=77 time=0
note_on channel=0 note=78 velocity=127 time=0
note_on channel=0 note=79 velocity=77 time=0
note_off channel=0 note=57 velocity=0 time=20
note_off channel=0 note=69 velocity=0 time=0
note_off channel=0 note=67 velocity=0 time=0
note_off channel=0 note=79 velocity=0 time=0
note_on channel=0 note=59 velocity=127 time=0
note_on channel=0 note=71 velocity=75 time=0
note_on channel=0 note=71 velocity=127 time=0
note_on channel=0 note=83 velocity=75 time=0
note_off channel=0 note=59 velocity=0 time=112
note_off channel=0 note=71 velocity=0 time=0
note_off channel=0 note=71 velocity=0 time=0
note_off channel=0 note=83 velocity=0 time=0
note_off channel=0 note=66 velocity=0 time=4
note_off channel=0 note=78 velocity=0 time=0
note_on channel=0 note=69 velocity=45 time=333
note_on channel=0 note=64 velocity=127 time=75
note_on channel=0 note=81 velocity=45 time=0
note_on channel=0 note=76 velocity=127 time=0
note_on channel=0 note=57 velocity=127 time=15
note_on channel=0 note=69 velocity=127 time=2
note_off channel=0 note=69 velocity=0 time=188
note_off channel=0 note=81 velocity=0 time=0
note_off channel=0 note=64 velocity=0 time=8
note_off channel=0 note=76 velocity=0 time=0
note_off channel=0 note=57 velocity=0 time=84
note_off channel=0 note=69 velocity=0 time=0
note_on channel=0 note=59 velocity=110 time=0
note_on channel=0 note=71 velocity=110 time=0
note_off channel=0 note=59 velocity=0 time=16
note_off channel=0 note=71 velocity=0 time=0
note_on channel=0 note=52 velocity=127 time=3
note_on channel=0 note=59 velocity=124 time=0
note_on channel=0 note=64 velocity=127 time=0
note_on channel=0 note=71 velocity=124 time=0
note_off channel=0 note=59 velocity=0 time=108
note_off channel=0 note=71 velocity=0 time=0
note_on channel=0 note=59 velocity=127 time=67
note_on channel=0 note=71 velocity=127 time=4
note_on channel=0 note=66 velocity=127 time=3
note_on channel=0 note=71 velocity=58 time=0
note_on channel=0 note=78 velocity=127 time=0
note_on channel=0 note=83 velocity=58 time=0
note_off channel=0 note=52 velocity=0 time=44
note_off channel=0 note=64 velocity=0 time=0
note_off channel=0 note=59 velocity=0 time=228
note_off channel=0 note=71 velocity=0 time=0
note_off channel=0 note=66 velocity=0 time=60
note_off channel=0 note=78 velocity=0 time=0
note_off channel=0 note=71 velocity=0 time=4
note_off channel=0 note=83 velocity=0 time=0
note_on channel=0 note=69 velocity=34 time=0
note_on channel=0 note=81 velocity=34 time=0
note_on channel=0 note=64 velocity=121 time=12
note_on channel=0 note=76 velocity=121 time=0
note_on channel=0 note=57 velocity=127 time=19
note_on channel=0 note=69 velocity=127 time=0
note_off channel=0 note=64 velocity=0 time=112
note_off channel=0 note=76 velocity=0 time=0
note_off channel=0 note=69 velocity=0 time=8
note_off channel=0 note=81 velocity=0 time=0
note_on channel=0 note=67 velocity=30 time=0
note_on channel=0 note=79 velocity=30 time=0
note_off channel=0 note=67 velocity=0 time=76
note_off channel=0 note=79 velocity=0 time=0
note_on channel=0 note=66 velocity=127 time=3
note_on channel=0 note=67 velocity=77 time=0
note_on channel=0 note=78 velocity=127 time=0
note_on channel=0 note=79 velocity=77 time=0
note_off channel=0 note=57 velocity=0 time=20
note_off channel=0 note=69 velocity=0 time=0
note_off channel=0 note=67 velocity=0 time=0
note_off channel=0 note=79 velocity=0 time=0
note_on channel=0 note=59 velocity=127 time=0
note_on channel=0 note=71 velocity=75 time=0
note_on channel=0 note=71 velocity=127 time=0
note_on channel=0 note=83 velocity=75 time=0
note_off channel=0 note=59 velocity=0 time=112
note_off channel=0 note=71 velocity=0 time=0
note_off channel=0 note=71 velocity=0 time=0
note_off channel=0 note=83 velocity=0 time=0
note_off channel=0 note=66 velocity=0 time=4
note_off channel=0 note=78 velocity=0 time=0
note_on channel=0 note=74 velocity=24 time=260
note_on channel=0 note=67 velocity=127 time=71
note_on channel=0 note=79 velocity=127 time=13
note_on channel=0 note=62 velocity=127 time=37
note_off channel=0 note=79 velocity=0 time=112
note_off channel=0 note=74 velocity=0 time=8
note_off channel=0 note=67 velocity=0 time=120
note_off channel=0 note=62 velocity=0 time=32
note_on channel=0 note=62 velocity=127 time=11
note_on channel=0 note=78 velocity=127 time=16
note_on channel=0 note=74 velocity=127 time=2
note_on channel=0 note=69 velocity=127 time=12
note_off channel=0 note=69 velocity=0 time=108
note_off channel=0 note=78 velocity=0 time=8
note_off channel=0 note=74 velocity=0 time=12
note_off channel=0 note=62 velocity=0 time=120
note_on channel=0 note=62 velocity=126 time=5
note_on channel=0 note=57 velocity=127 time=12
note_on channel=0 note=69 velocity=127 time=13
note_off channel=0 note=62 velocity=0 time=28
note_on channel=0 note=64 velocity=125 time=1
note_off channel=0 note=57 velocity=0 time=228
note_off channel=0 note=64 velocity=0 time=36
note_on channel=0 note=55 velocity=127 time=4
note_on channel=0 note=60 velocity=127 time=16
note_off channel=0 note=60 velocity=0 time=0
note_off channel=0 note=55 velocity=0 time=116
note_off channel=0 note=69 velocity=0 time=12
note_on channel=0 note=69 velocity=127 time=6
note_on channel=0 note=57 velocity=127 time=12
note_on channel=0 note=64 velocity=127 time=9
note_on channel=0 note=57 velocity=127 time=279
note_off channel=0 note=69 velocity=0 time=80
note_off channel=0 note=64 velocity=0 time=4
note_on channel=0 note=79 velocity=127 time=74
note_off channel=0 note=57 velocity=0 time=4
note_on channel=0 note=74 velocity=127 time=0
note_on channel=0 note=55 velocity=127 time=0
note_on channel=0 note=62 velocity=127 time=8
note_on channel=0 note=67 velocity=127 time=26
note_off channel=0 note=55 velocity=0 time=96
note_off channel=0 note=74 velocity=0 time=20
note_off channel=0 note=79 velocity=0 time=4
note_off channel=0 note=57 velocity=0 time=128
note_off channel=0 note=67 velocity=0 time=0
note_on channel=0 note=78 velocity=127 time=30
note_on channel=0 note=74 velocity=127 time=1
note_on channel=0 note=69 velocity=127 time=0
note_on channel=0 note=62 velocity=100 time=3
note_off channel=0 note=62 velocity=100 time=128
note_off channel=0 note=69 velocity=0 time=20
note_off channel=0 note=78 velocity=0 time=20
note_off channel=0 note=74 velocity=0 time=24
note_off channel=0 note=62 velocity=0 time=84
note_on channel=0 note=64 velocity=109 time=0
note_on channel=0 note=57 velocity=127 time=12
note_on channel=0 note=69 velocity=127 time=23
note_off channel=0 note=64 velocity=0 time=276
note_off channel=0 note=57 velocity=0 time=0
note_on channel=0 note=55 velocity=127 time=11
note_off channel=0 note=55 velocity=0 time=144
note_off channel=0 note=69 velocity=0 time=8
note_on channel=0 note=69 velocity=103 time=7
note_on channel=0 note=58 velocity=127 time=0
note_on channel=0 note=65 velocity=127 time=12
note_off channel=0 note=58 velocity=0 time=60
note_on channel=0 note=57 velocity=127 time=0
note_off channel=0 note=65 velocity=0 time=24
note_on channel=0 note=64 velocity=127 time=3
note_off channel=0 note=69 velocity=0 time=376
note_off channel=0 note=64 velocity=0 time=0
note_on channel=0 note=69 velocity=45 time=35
note_on channel=0 note=64 velocity=127 time=0
note_on channel=0 note=81 velocity=45 time=0
note_on channel=0 note=76 velocity=127 time=0
note_on channel=0 note=57 velocity=127 time=15
note_on channel=0 note=69 velocity=127 time=0
note_off channel=0 note=57 velocity=0 time=16
note_off channel=0 note=69 velocity=0 time=172
note_off channel=0 note=81 velocity=0 time=0
note_off channel=0 note=64 velocity=0 time=8
note_off channel=0 note=76 velocity=0 time=0
note_off channel=0 note=57 velocity=0 time=84
note_off channel=0 note=69 velocity=0 time=0
note_on channel=0 note=59 velocity=110 time=0
note_on channel=0 note=71 velocity=110 time=0
note_off channel=0 note=59 velocity=0 time=16
note_off channel=0 note=71 velocity=0 time=0
note_on channel=0 note=52 velocity=127 time=4
note_on channel=0 note=59 velocity=124 time=0
note_on channel=0 note=64 velocity=127 time=0
note_on channel=0 note=71 velocity=124 time=0
note_off channel=0 note=59 velocity=0 time=108
note_off channel=0 note=71 velocity=0 time=0
note_on channel=0 note=59 velocity=127 time=67
note_on channel=0 note=71 velocity=127 time=1
note_on channel=0 note=66 velocity=127 time=3
note_on channel=0 note=71 velocity=58 time=0
note_on channel=0 note=78 velocity=127 time=0
note_on channel=0 note=83 velocity=58 time=0
note_off channel=0 note=52 velocity=0 time=44
note_off channel=0 note=64 velocity=0 time=0
note_off channel=0 note=59 velocity=0 time=228
note_off channel=0 note=71 velocity=0 time=0
note_off channel=0 note=66 velocity=0 time=60
note_off channel=0 note=78 velocity=0 time=0
note_off channel=0 note=71 velocity=0 time=4
note_off channel=0 note=83 velocity=0 time=0
note_on channel=0 note=69 velocity=34 time=0
note_on channel=0 note=81 velocity=34 time=0
note_on channel=0 note=64 velocity=121 time=12
note_on channel=0 note=76 velocity=121 time=0
note_on channel=0 note=57 velocity=127 time=19
note_on channel=0 note=69 velocity=127 time=1
note_off channel=0 note=64 velocity=0 time=112
note_off channel=0 note=76 velocity=0 time=0
note_off channel=0 note=69 velocity=0 time=8
note_off channel=0 note=81 velocity=0 time=0
note_on channel=0 note=67 velocity=30 time=0
note_on channel=0 note=79 velocity=30 time=0
note_off channel=0 note=67 velocity=0 time=76
note_off channel=0 note=79 velocity=0 time=0
note_on channel=0 note=66 velocity=127 time=3
note_on channel=0 note=67 velocity=77 time=0
note_on channel=0 note=78 velocity=127 time=0
note_on channel=0 note=79 velocity=77 time=0
note_off channel=0 note=57 velocity=0 time=20
note_off channel=0 note=69 velocity=0 time=0
note_off channel=0 note=67 velocity=0 time=0
note_off channel=0 note=79 velocity=0 time=0
note_on channel=0 note=59 velocity=127 time=0
note_on channel=0 note=71 velocity=75 time=0
note_on channel=0 note=71 velocity=127 time=0
note_on channel=0 note=83 velocity=75 time=0
note_off channel=0 note=59 velocity=0 time=112
note_off channel=0 note=71 velocity=0 time=0
note_off channel=0 note=71 velocity=0 time=0
note_off channel=0 note=83 velocity=0 time=0
note_off channel=0 note=66 velocity=0 time=4
note_off channel=0 note=78 velocity=0 time=0
note_on channel=0 note=69 velocity=45 time=333
note_on channel=0 note=64 velocity=127 time=5
note_on channel=0 note=81 velocity=45 time=0
note_on channel=0 note=76 velocity=127 time=0
note_on channel=0 note=57 velocity=127 time=15
note_on channel=0 note=69 velocity=127 time=2
note_off channel=0 note=69 velocity=0 time=188
note_off channel=0 note=81 velocity=0 time=0
note_off channel=0 note=64 velocity=0 time=8
note_off channel=0 note=76 velocity=0 time=0
note_off channel=0 note=57 velocity=0 time=84
note_off channel=0 note=69 velocity=0 time=0
note_on channel=0 note=59 velocity=110 time=0
note_on channel=0 note=71 velocity=110 time=0
note_off channel=0 note=59 velocity=0 time=16
note_off channel=0 note=71 velocity=0 time=0
note_on channel=0 note=52 velocity=127 time=4
note_on channel=0 note=59 velocity=124 time=0
note_on channel=0 note=64 velocity=127 time=0
note_on channel=0 note=71 velocity=124 time=0
note_off channel=0 note=59 velocity=0 time=108
note_off channel=0 note=71 velocity=0 time=0
note_on channel=0 note=59 velocity=127 time=67
note_on channel=0 note=71 velocity=127 time=16
note_on channel=0 note=66 velocity=127 time=4
note_on channel=0 note=71 velocity=58 time=1
note_on channel=0 note=78 velocity=127 time=0
note_on channel=0 note=83 velocity=58 time=0
note_off channel=0 note=52 velocity=0 time=44
note_off channel=0 note=64 velocity=0 time=0
note_off channel=0 note=59 velocity=0 time=228
note_off channel=0 note=71 velocity=0 time=0
note_off channel=0 note=66 velocity=0 time=60
note_off channel=0 note=78 velocity=0 time=0
note_off channel=0 note=71 velocity=0 time=4
note_off channel=0 note=83 velocity=0 time=0
note_on channel=0 note=69 velocity=34 time=0
note_on channel=0 note=81 velocity=34 time=0
note_on channel=0 note=64 velocity=121 time=11
note_on channel=0 note=76 velocity=121 time=3
note_on channel=0 note=57 velocity=127 time=19
note_on channel=0 note=69 velocity=127 time=6
note_off channel=0 note=64 velocity=0 time=112
note_off channel=0 note=76 velocity=0 time=0
note_off channel=0 note=69 velocity=0 time=8
note_off channel=0 note=81 velocity=0 time=0
note_on channel=0 note=67 velocity=30 time=0
note_on channel=0 note=79 velocity=30 time=0
note_off channel=0 note=67 velocity=0 time=76
note_off channel=0 note=79 velocity=0 time=0
note_on channel=0 note=66 velocity=127 time=4
note_on channel=0 note=67 velocity=77 time=1
note_on channel=0 note=78 velocity=127 time=0
note_on channel=0 note=79 velocity=77 time=0
note_off channel=0 note=57 velocity=0 time=20
note_off channel=0 note=69 velocity=0 time=0
note_off channel=0 note=67 velocity=0 time=0
note_off channel=0 note=79 velocity=0 time=0
note_on channel=0 note=59 velocity=127 time=0
note_on channel=0 note=71 velocity=75 time=0
note_on channel=0 note=71 velocity=127 time=0
note_on channel=0 note=83 velocity=75 time=0
note_off channel=0 note=59 velocity=0 time=112
note_off channel=0 note=71 velocity=0 time=0
note_off channel=0 note=71 velocity=0 time=0
note_off channel=0 note=83 velocity=0 time=0
note_off channel=0 note=66 velocity=0 time=4
note_off channel=0 note=78 velocity=0 time=0
note_on channel=0 note=50 velocity=76 time=118
note_on channel=0 note=55 velocity=127 time=0
note_on channel=0 note=67 velocity=89 time=0
note_on channel=0 note=62 velocity=95 time=0
note_on channel=0 note=59 velocity=127 time=0
note_off channel=0 note=50 velocity=0 time=192
note_off channel=0 note=55 velocity=0 time=0
note_off channel=0 note=67 velocity=0 time=0
note_off channel=0 note=62 velocity=0 time=0
note_off channel=0 note=59 velocity=0 time=0
note_on channel=0 note=50 velocity=76 time=94
note_on channel=0 note=55 velocity=127 time=97
note_on channel=0 note=67 velocity=89 time=0
note_on channel=0 note=62 velocity=95 time=0
note_on channel=0 note=59 velocity=127 time=0
note_off channel=0 note=50 velocity=0 time=192
note_off channel=0 note=55 velocity=0 time=0
note_off channel=0 note=67 velocity=0 time=0
note_off channel=0 note=62 velocity=0 time=0
note_off channel=0 note=59 velocity=0 time=0
note_on channel=0 note=50 velocity=76 time=94
note_on channel=0 note=55 velocity=127 time=46
note_on channel=0 note=67 velocity=89 time=0
note_on channel=0 note=62 velocity=95 time=0
note_on channel=0 note=59 velocity=127 time=0
note_off channel=0 note=50 velocity=0 time=192
note_off channel=0 note=55 velocity=0 time=0
note_off channel=0 note=67 velocity=0 time=0
note_off channel=0 note=62 velocity=0 time=0
note_off channel=0 note=59 velocity=0 time=0
note_on channel=0 note=50 velocity=54 time=94
note_on channel=0 note=55 velocity=124 time=34
note_on channel=0 note=59 velocity=127 time=0
note_on channel=0 note=62 velocity=65 time=0
note_on channel=0 note=67 velocity=65 time=0
note_off channel=0 note=50 velocity=0 time=64
note_off channel=0 note=55 velocity=0 time=0
note_off channel=0 note=59 velocity=0 time=0
note_off channel=0 note=62 velocity=0 time=0
note_off channel=0 note=67 velocity=0 time=0
note_on channel=0 note=59 velocity=39 time=31
note_on channel=0 note=67 velocity=65 time=7
note_on channel=0 note=49 velocity=42 time=0
note_off channel=0 note=59 velocity=0 time=64
note_off channel=0 note=67 velocity=0 time=0
note_off channel=0 note=49 velocity=0 time=0
note_on channel=0 note=50 velocity=54 time=31
note_on channel=0 note=59 velocity=121 time=0
note_on channel=0 note=55 velocity=107 time=0
note_on channel=0 note=62 velocity=69 time=0
note_on channel=0 note=67 velocity=71 time=0
note_off channel=0 note=50 velocity=0 time=64
note_off channel=0 note=59 velocity=0 time=0
note_off channel=0 note=55 velocity=0 time=0
note_off channel=0 note=62 velocity=0 time=0
note_off channel=0 note=67 velocity=0 time=0
note_on channel=0 note=50 velocity=64 time=31
note_on channel=0 note=55 velocity=118 time=8
note_on channel=0 note=59 velocity=127 time=0
note_on channel=0 note=62 velocity=66 time=0
note_on channel=0 note=67 velocity=63 time=0
note_off channel=0 note=50 velocity=0 time=128
note_off channel=0 note=55 velocity=0 time=0
note_off channel=0 note=59 velocity=0 time=0
note_off channel=0 note=62 velocity=0 time=0
note_off channel=0 note=67 velocity=0 time=0
note_on channel=0 note=50 velocity=68 time=62
note_on channel=0 note=55 velocity=127 time=0
note_on channel=0 note=59 velocity=127 time=0
note_on channel=0 note=62 velocity=89 time=0
note_on channel=0 note=67 velocity=107 time=0
note_off channel=0 note=50 velocity=0 time=128
note_off channel=0 note=55 velocity=0 time=0
note_off channel=0 note=59 velocity=0 time=0
note_off channel=0 note=62 velocity=0 time=0
note_off channel=0 note=67 velocity=0 time=0
note_on channel=0 note=50 velocity=127 time=62
note_on channel=0 note=66 velocity=127 time=6
note_on channel=0 note=57 velocity=127 time=0
note_on channel=0 note=62 velocity=121 time=0
note_off channel=0 note=50 velocity=0 time=192
note_off channel=0 note=66 velocity=0 time=0
note_off channel=0 note=57 velocity=0 time=0
note_off channel=0 note=62 velocity=0 time=0
note_on channel=0 note=50 velocity=127 time=93
note_on channel=0 note=62 velocity=107 time=14
note_on channel=0 note=66 velocity=107 time=0
note_on channel=0 note=57 velocity=127 time=0
note_off channel=0 note=50 velocity=0 time=192
note_off channel=0 note=62 velocity=0 time=0
note_off channel=0 note=66 velocity=0 time=0
note_off channel=0 note=57 velocity=0 time=0
note_on channel=0 note=50 velocity=127 time=94
note_on channel=0 note=62 velocity=104 time=13
note_on channel=0 note=66 velocity=118 time=0
note_on channel=0 note=57 velocity=127 time=0
note_off channel=0 note=50 velocity=0 time=512
note_off channel=0 note=62 velocity=0 time=0
note_off channel=0 note=66 velocity=0 time=0
note_off channel=0 note=57 velocity=0 time=0
note_on channel=0 note=64 velocity=127 time=439
note_on channel=0 note=52 velocity=127 time=67
note_on channel=0 note=59 velocity=127 time=3
note_off channel=0 note=52 velocity=0 time=188
note_off channel=0 note=59 velocity=0 time=8
note_off channel=0 note=64 velocity=0 time=4
note_on channel=0 note=50 velocity=127 time=401
note_on channel=0 note=57 velocity=127 time=100
note_on channel=0 note=40 velocity=127 time=3
note_on channel=0 note=62 velocity=121 time=0
note_off channel=0 note=57 velocity=0 time=84
note_on channel=0 note=57 velocity=127 time=0
note_off channel=0 note=50 velocity=0 time=84
note_off channel=0 note=57 velocity=0 time=4
note_on channel=0 note=50 velocity=127 time=0
note_off channel=0 note=62 velocity=0 time=8
note_on channel=0 note=57 velocity=127 time=0
note_on channel=0 note=62 velocity=127 time=4
note_off channel=0 note=50 velocity=0 time=176
note_off channel=0 note=57 velocity=0 time=12
note_off channel=0 note=62 velocity=0 time=4
note_off channel=0 note=40 velocity=0 time=28
note_on channel=0 note=49 velocity=127 time=330
note_on channel=0 note=62 velocity=126 time=41
note_on channel=0 note=57 velocity=127 time=0
note_on channel=0 note=40 velocity=127 time=0
note_off channel=0 note=57 velocity=0 time=96
note_on channel=0 note=57 velocity=127 time=3
note_on channel=0 note=40 velocity=127 time=58
note_off channel=0 note=40 velocity=0 time=8
note_on channel=0 note=66 velocity=122 time=34
note_off channel=0 note=49 velocity=0 time=192
note_off channel=0 note=66 velocity=0 time=0
note_off channel=0 note=62 velocity=0 time=12
note_off channel=0 note=57 velocity=0 time=0
note_off channel=0 note=40 velocity=0 time=136
note_on channel=0 note=59 velocity=127 time=235
note_on channel=0 note=52 velocity=127 time=108
note_on channel=0 note=40 velocity=127 time=0
note_on channel=0 note=64 velocity=127 time=19
note_off channel=0 note=59 velocity=0 time=60
note_on channel=0 note=59 velocity=127 time=19
note_off channel=0 note=40 velocity=0 time=48
note_off channel=0 note=52 velocity=0 time=24
note_off channel=0 note=64 velocity=0 time=4
note_on channel=0 note=64 velocity=127 time=30
note_on channel=0 note=68 velocity=127 time=31
note_off channel=0 note=68 velocity=0 time=144
note_off channel=0 note=64 velocity=0 time=12
note_off channel=0 note=59 velocity=0 time=8
note_on channel=0 note=59 velocity=127 time=30
note_on channel=0 note=52 velocity=127 time=21
note_on channel=0 note=40 velocity=127 time=0
note_on channel=0 note=64 velocity=127 time=19
note_off channel=0 note=59 velocity=0 time=60
note_on channel=0 note=59 velocity=127 time=22
note_off channel=0 note=64 velocity=0 time=104
note_on channel=0 note=64 velocity=127 time=3
note_on channel=0 note=68 velocity=127 time=8
note_off channel=0 note=68 velocity=0 time=144
note_off channel=0 note=64 velocity=0 time=12
note_off channel=0 note=52 velocity=0 time=4
note_off channel=0 note=59 velocity=0 time=4
note_on channel=0 note=59 velocity=127 time=31
note_on channel=0 note=52 velocity=127 time=23
note_on channel=0 note=40 velocity=127 time=0
note_on channel=0 note=64 velocity=127 time=19
note_off channel=0 note=59 velocity=0 time=60
note_on channel=0 note=59 velocity=127 time=23
note_off channel=0 note=40 velocity=0 time=8
note_on channel=0 note=40 velocity=127 time=79
note_on channel=0 note=64 velocity=127 time=78
note_on channel=0 note=52 velocity=127 time=0
note_on channel=0 note=59 velocity=127 time=4
note_off channel=0 note=64 velocity=0 time=16
note_off channel=0 note=40 velocity=0 time=160
note_off channel=0 note=52 velocity=0 time=8
note_off channel=0 note=59 velocity=0 time=4
note_off channel=0 note=52 velocity=0 time=0
note_off channel=0 note=59 velocity=0 time=8
note_off channel=0 note=64 velocity=0 time=4
note_off channel=0 note=40 velocity=0 time=104
note_on channel=0 note=50 velocity=127 time=309
note_on channel=0 note=57 velocity=127 time=271
note_on channel=0 note=40 velocity=127 time=3
note_on channel=0 note=62 velocity=121 time=2
note_off channel=0 note=57 velocity=0 time=84
note_on channel=0 note=57 velocity=127 time=0
note_off channel=0 note=50 velocity=0 time=84
note_off channel=0 note=57 velocity=0 time=4
note_on channel=0 note=50 velocity=127 time=0
note_off channel=0 note=62 velocity=0 time=8
note_on channel=0 note=57 velocity=127 time=0
note_on channel=0 note=62 velocity=127 time=4
note_off channel=0 note=50 velocity=0 time=176
note_off channel=0 note=57 velocity=0 time=12
note_off channel=0 note=62 velocity=0 time=4
note_off channel=0 note=40 velocity=0 time=28
note_on channel=0 note=49 velocity=127 time=344
note_on channel=0 note=62 velocity=126 time=163
note_on channel=0 note=57 velocity=127 time=0
note_off channel=0 note=57 velocity=0 time=96
note_on channel=0 note=57 velocity=127 time=3
note_on channel=0 note=40 velocity=127 time=61
note_off channel=0 note=40 velocity=0 time=8
note_on channel=0 note=66 velocity=122 time=31
note_off channel=0 note=49 velocity=0 time=192
note_off channel=0 note=66 velocity=0 time=0
note_off channel=0 note=62 velocity=0 time=12
note_off channel=0 note=57 velocity=0 time=0
note_on channel=0 note=52 velocity=127 time=377
note_on channel=0 note=59 velocity=127 time=108
note_on channel=0 note=57 velocity=127 time=163
note_on channel=0 note=73 velocity=127 time=80
note_on channel=0 note=69 velocity=127 time=0
note_on channel=0 note=64 velocity=127 time=0
note_off channel=0 note=52 velocity=0 time=24
note_off channel=0 note=59 velocity=0 time=8
note_off channel=0 note=64 velocity=0 time=232
note_off channel=0 note=73 velocity=0 time=8
note_off channel=0 note=69 velocity=0 time=12
note_on channel=0 note=52 velocity=127 time=0
note_on channel=0 note=68 velocity=100 time=0
note_on channel=0 note=71 velocity=127 time=0
note_on channel=0 note=59 velocity=127 time=0
note_on channel=0 note=64 velocity=127 time=0
note_off channel=0 note=57 velocity=0 time=4
note_off channel=0 note=59 velocity=0 time=248
note_off channel=0 note=71 velocity=0 time=16
note_off channel=0 note=64 velocity=0 time=0
note_off channel=0 note=52 velocity=0 time=24
note_off channel=0 note=68 velocity=100 time=4
note_on channel=0 note=52 velocity=127 time=16
note_on channel=0 note=57 velocity=127 time=8
note_on channel=0 note=73 velocity=127 time=7
note_on channel=0 note=69 velocity=127 time=4
note_on channel=0 note=78 velocity=127 time=0
note_on channel=0 note=64 velocity=127 time=3
note_on channel=0 note=40 velocity=127 time=158
note_on channel=0 note=64 velocity=127 time=90
note_on channel=0 note=52 velocity=127 time=0
note_on channel=0 note=59 velocity=127 time=4
note_off channel=0 note=52 velocity=0 time=16
note_off channel=0 note=57 velocity=0 time=0
note_off channel=0 note=78 velocity=0 time=4
note_off channel=0 note=64 velocity=0 time=0
note_off channel=0 note=69 velocity=0 time=20
note_off channel=0 note=73 velocity=0 time=4
note_off channel=0 note=40 velocity=0 time=132
note_off channel=0 note=52 velocity=0 time=12
note_off channel=0 note=59 velocity=0 time=8
note_off channel=0 note=64 velocity=0 time=4
note_on channel=0 note=50 velocity=127 time=408
note_on channel=0 note=57 velocity=127 time=283
note_on channel=0 note=40 velocity=127 time=3
note_on channel=0 note=62 velocity=121 time=1
note_off channel=0 note=57 velocity=0 time=84
note_on channel=0 note=57 velocity=127 time=0
note_off channel=0 note=50 velocity=0 time=84
note_off channel=0 note=57 velocity=0 time=4
note_on channel=0 note=50 velocity=127 time=0
note_off channel=0 note=62 velocity=0 time=8
note_on channel=0 note=57 velocity=127 time=0
note_on channel=0 note=62 velocity=127 time=4
note_off channel=0 note=50 velocity=0 time=176
note_off channel=0 note=57 velocity=0 time=12
note_off channel=0 note=62 velocity=0 time=4
note_off channel=0 note=40 velocity=0 time=28
note_on channel=0 note=49 velocity=127 time=333
note_on channel=0 note=62 velocity=126 time=60
note_on channel=0 note=57 velocity=127 time=0
note_on channel=0 note=40 velocity=127 time=0
note_off channel=0 note=57 velocity=0 time=96
note_on channel=0 note=57 velocity=127 time=3
note_on channel=0 note=40 velocity=127 time=58
note_off channel=0 note=40 velocity=0 time=8
note_on channel=0 note=66 velocity=122 time=8
note_off channel=0 note=49 velocity=0 time=192
note_off channel=0 note=66 velocity=0 time=0
note_off channel=0 note=62 velocity=0 time=12
note_off channel=0 note=57 velocity=0 time=0
note_off channel=0 note=40 velocity=0 time=136
note_on channel=0 note=59 velocity=127 time=223
note_on channel=0 note=52 velocity=127 time=148
note_on channel=0 note=40 velocity=127 time=0
note_on channel=0 note=64 velocity=127 time=19
note_off channel=0 note=59 velocity=0 time=60
note_on channel=0 note=59 velocity=127 time=14
note_off channel=0 note=40 velocity=0 time=48
note_off channel=0 note=52 velocity=0 time=24
note_off channel=0 note=64 velocity=0 time=4
note_on channel=0 note=64 velocity=127 time=24
note_on channel=0 note=68 velocity=127 time=17
note_off channel=0 note=68 velocity=0 time=144
note_off channel=0 note=64 velocity=0 time=12
note_off channel=0 note=59 velocity=0 time=8
note_on channel=0 note=59 velocity=127 time=15
note_on channel=0 note=52 velocity=127 time=21
note_on channel=0 note=40 velocity=127 time=0
note_on channel=0 note=64 velocity=127 time=19
note_off channel=0 note=59 velocity=0 time=60
note_on channel=0 note=59 velocity=127 time=14
note_off channel=0 note=64 velocity=0 time=104
note_on channel=0 note=64 velocity=127 time=3
note_on channel=0 note=68 velocity=127 time=7
note_off channel=0 note=68 velocity=0 time=144
note_off channel=0 note=64 velocity=0 time=12
note_off channel=0 note=52 velocity=0 time=4
note_off channel=0 note=59 velocity=0 time=4
note_on channel=0 note=59 velocity=127 time=15
note_on channel=0 note=52 velocity=127 time=21
note_on channel=0 note=40 velocity=127 time=0
note_on channel=0 note=64 velocity=127 time=19
note_off channel=0 note=59 velocity=0 time=60
note_on channel=0 note=59 velocity=127 time=13
note_off channel=0 note=40 velocity=0 time=8
note_on channel=0 note=40 velocity=127 time=70
note_on channel=0 note=64 velocity=127 time=58
note_on channel=0 note=52 velocity=127 time=0
note_on channel=0 note=59 velocity=127 time=3
note_off channel=0 note=64 velocity=0 time=16
note_off channel=0 note=40 velocity=0 time=160
note_off channel=0 note=52 velocity=0 time=8
note_off channel=0 note=59 velocity=0 time=4
note_off channel=0 note=52 velocity=0 time=0
note_off channel=0 note=59 velocity=0 time=8
note_off channel=0 note=64 velocity=0 time=4
note_off channel=0 note=40 velocity=0 time=104
note_on channel=0 note=50 velocity=127 time=295
note_on channel=0 note=57 velocity=127 time=37
note_on channel=0 note=40 velocity=127 time=4
note_on channel=0 note=62 velocity=121 time=1
note_off channel=0 note=57 velocity=0 time=84
note_on channel=0 note=57 velocity=127 time=0
note_off channel=0 note=50 velocity=0 time=84
note_off channel=0 note=57 velocity=0 time=4
note_on channel=0 note=50 velocity=127 time=0
note_off channel=0 note=62 velocity=0 time=8
note_on channel=0 note=57 velocity=127 time=0
note_on channel=0 note=62 velocity=127 time=3
note_off channel=0 note=50 velocity=0 time=176
note_off channel=0 note=57 velocity=0 time=12
note_off channel=0 note=62 velocity=0 time=4
note_off channel=0 note=40 velocity=0 time=28
note_on channel=0 note=49 velocity=127 time=329
note_on channel=0 note=62 velocity=126 time=112
note_on channel=0 note=57 velocity=127 time=0
note_on channel=0 note=40 velocity=127 time=0
note_off channel=0 note=57 velocity=0 time=96
note_on channel=0 note=57 velocity=127 time=4
note_on channel=0 note=40 velocity=127 time=58
note_off channel=0 note=40 velocity=0 time=8
note_on channel=0 note=66 velocity=122 time=27
note_off channel=0 note=49 velocity=0 time=192
note_off channel=0 note=66 velocity=0 time=0
note_off channel=0 note=62 velocity=0 time=12
note_off channel=0 note=57 velocity=0 time=0
note_off channel=0 note=40 velocity=0 time=136
note_on channel=0 note=52 velocity=127 time=229
note_on channel=0 note=59 velocity=127 time=7
note_on channel=0 note=57 velocity=127 time=159
note_on channel=0 note=73 velocity=127 time=31
note_on channel=0 note=69 velocity=127 time=0
note_on channel=0 note=64 velocity=127 time=0
note_off channel=0 note=52 velocity=0 time=24
note_off channel=0 note=59 velocity=0 time=8
note_off channel=0 note=64 velocity=0 time=232
note_off channel=0 note=73 velocity=0 time=8
note_off channel=0 note=69 velocity=0 time=12
note_on channel=0 note=52 velocity=127 time=0
note_on channel=0 note=68 velocity=100 time=0
note_on channel=0 note=71 velocity=127 time=0
note_on channel=0 note=59 velocity=127 time=0
note_on channel=0 note=64 velocity=127 time=0
note_off channel=0 note=57 velocity=0 time=4
note_off channel=0 note=59 velocity=0 time=248
note_off channel=0 note=71 velocity=0 time=16
note_off channel=0 note=64 velocity=0 time=0
note_off channel=0 note=52 velocity=0 time=24
note_off channel=0 note=68 velocity=100 time=4
note_on channel=0 note=52 velocity=127 time=15
note_on channel=0 note=57 velocity=127 time=4
note_on channel=0 note=73 velocity=127 time=7
note_on channel=0 note=69 velocity=127 time=2
note_on channel=0 note=78 velocity=127 time=0
note_on channel=0 note=64 velocity=127 time=4
note_on channel=0 note=40 velocity=127 time=156
note_on channel=0 note=64 velocity=127 time=36
note_on channel=0 note=52 velocity=127 time=0
note_on channel=0 note=59 velocity=127 time=3
note_off channel=0 note=52 velocity=0 time=16
note_off channel=0 note=57 velocity=0 time=0
note_off channel=0 note=78 velocity=0 time=4
note_off channel=0 note=64 velocity=0 time=0
note_off channel=0 note=69 velocity=0 time=20
note_off channel=0 note=73 velocity=0 time=4
note_off channel=0 note=40 velocity=0 time=132
note_off channel=0 note=52 velocity=0 time=12
note_off channel=0 note=59 velocity=0 time=8
note_off channel=0 note=64 velocity=0 time=4
note_on channel=0 note=50 velocity=127 time=401
note_on channel=0 note=57 velocity=127 time=81
note_on channel=0 note=40 velocity=127 time=4
note_on channel=0 note=62 velocity=121 time=1
note_off channel=0 note=57 velocity=0 time=84
note_on channel=0 note=57 velocity=127 time=0
note_off channel=0 note=50 velocity=0 time=84
note_off channel=0 note=57 velocity=0 time=4
note_on channel=0 note=50 velocity=127 time=0
note_off channel=0 note=62 velocity=0 time=8
note_on channel=0 note=57 velocity=127 time=0
note_on channel=0 note=62 velocity=127 time=3
note_off channel=0 note=50 velocity=0 time=176
note_off channel=0 note=57 velocity=0 time=12
note_off channel=0 note=62 velocity=0 time=4
note_off channel=0 note=40 velocity=0 time=28
note_on channel=0 note=49 velocity=127 time=328
note_on channel=0 note=62 velocity=126 time=38
note_on channel=0 note=57 velocity=127 time=0
note_on channel=0 note=40 velocity=127 time=0
note_off channel=0 note=57 velocity=0 time=96
note_on channel=0 note=57 velocity=127 time=4
note_on channel=0 note=40 velocity=127 time=59
note_off channel=0 note=40 velocity=0 time=8
note_on channel=0 note=66 velocity=122 time=41
note_off channel=0 note=49 velocity=0 time=192
note_off channel=0 note=66 velocity=0 time=0
note_off channel=0 note=62 velocity=0 time=12
note_off channel=0 note=57 velocity=0 time=0
note_off channel=0 note=40 velocity=0 time=136
note_on channel=0 note=59 velocity=127 time=236
note_on channel=0 note=52 velocity=127 time=49
note_on channel=0 note=40 velocity=127 time=0
note_on channel=0 note=64 velocity=127 time=19
note_off channel=0 note=59 velocity=0 time=60
note_on channel=0 note=59 velocity=127 time=3
note_off channel=0 note=40 velocity=0 time=48
note_off channel=0 note=52 velocity=0 time=24
note_off channel=0 note=64 velocity=0 time=4
note_on channel=0 note=64 velocity=127 time=27
note_on channel=0 note=68 velocity=127 time=5
note_off channel=0 note=68 velocity=0 time=144
note_off channel=0 note=64 velocity=0 time=12
note_off channel=0 note=59 velocity=0 time=8
note_on channel=0 note=59 velocity=127 time=22
note_on channel=0 note=52 velocity=127 time=3
note_on channel=0 note=40 velocity=127 time=0
note_on channel=0 note=64 velocity=127 time=19
note_off channel=0 note=59 velocity=0 time=60
note_on channel=0 note=59 velocity=127 time=0
note_off channel=0 note=64 velocity=0 time=104
note_on channel=0 note=64 velocity=127 time=0
note_on channel=0 note=68 velocity=127 time=7
note_off channel=0 note=68 velocity=0 time=144
note_off channel=0 note=64 velocity=0 time=12
note_off channel=0 note=52 velocity=0 time=4
note_off channel=0 note=59 velocity=0 time=4
note_on channel=0 note=59 velocity=127 time=21
note_on channel=0 note=52 velocity=127 time=4
note_on channel=0 note=40 velocity=127 time=0
note_on channel=0 note=64 velocity=127 time=19
note_off channel=0 note=59 velocity=0 time=60
note_on channel=0 note=59 velocity=127 time=0
note_off channel=0 note=40 velocity=0 time=8
note_on channel=0 note=40 velocity=127 time=72
note_on channel=0 note=64 velocity=127 time=14
note_on channel=0 note=52 velocity=127 time=0
note_on channel=0 note=59 velocity=127 time=4
note_off channel=0 note=64 velocity=0 time=16
note_off channel=0 note=40 velocity=0 time=160
note_off channel=0 note=52 velocity=0 time=8
note_off channel=0 note=59 velocity=0 time=4
note_off channel=0 note=52 velocity=0 time=0
note_off channel=0 note=59 velocity=0 time=8
note_off channel=0 note=64 velocity=0 time=4
note_off channel=0 note=40 velocity=0 time=104
note_on channel=0 note=50 velocity=127 time=298
note_on channel=0 note=57 velocity=127 time=102
note_on channel=0 note=40 velocity=127 time=3
note_on channel=0 note=62 velocity=121 time=3
note_off channel=0 note=57 velocity=0 time=84
note_on channel=0 note=57 velocity=127 time=0
note_off channel=0 note=50 velocity=0 time=84
note_off channel=0 note=57 velocity=0 time=4
note_on channel=0 note=50 velocity=127 time=0
note_off channel=0 note=62 velocity=0 time=8
note_on channel=0 note=57 velocity=127 time=0
note_on channel=0 note=62 velocity=127 time=4
note_off channel=0 note=50 velocity=0 time=176
note_off channel=0 note=57 velocity=0 time=12
note_off channel=0 note=62 velocity=0 time=4
note_off channel=0 note=40 velocity=0 time=28
note_on channel=0 note=49 velocity=127 time=335
note_on channel=0 note=62 velocity=126 time=350
note_on channel=0 note=57 velocity=127 time=3
note_on channel=0 note=40 velocity=127 time=0
note_off channel=0 note=57 velocity=0 time=96
note_on channel=0 note=57 velocity=127 time=3
note_on channel=0 note=40 velocity=127 time=61
note_off channel=0 note=40 velocity=0 time=8
note_on channel=0 note=66 velocity=122 time=65
note_off channel=0 note=49 velocity=0 time=192
note_off channel=0 note=66 velocity=0 time=0
note_off channel=0 note=62 velocity=0 time=12
note_off channel=0 note=57 velocity=0 time=0
note_off channel=0 note=40 velocity=0 time=136
note_on channel=0 note=52 velocity=127 time=248
note_on channel=0 note=59 velocity=127 time=95
note_on channel=0 note=57 velocity=127 time=164
note_on channel=0 note=73 velocity=127 time=34
note_on channel=0 note=69 velocity=127 time=0
note_on channel=0 note=64 velocity=127 time=0
note_off channel=0 note=52 velocity=0 time=24
note_off channel=0 note=59 velocity=0 time=8
note_off channel=0 note=64 velocity=0 time=232
note_off channel=0 note=73 velocity=0 time=8
note_off channel=0 note=69 velocity=0 time=12
note_on channel=0 note=52 velocity=127 time=0
note_on channel=0 note=68 velocity=100 time=0
note_on channel=0 note=71 velocity=127 time=0
note_on channel=0 note=59 velocity=127 time=0
note_on channel=0 note=64 velocity=127 time=0
note_off channel=0 note=57 velocity=0 time=4
note_off channel=0 note=59 velocity=0 time=248
note_off channel=0 note=71 velocity=0 time=16
note_off channel=0 note=64 velocity=0 time=0
note_off channel=0 note=52 velocity=0 time=24
note_off channel=0 note=68 velocity=100 time=4
note_on channel=0 note=52 velocity=127 time=15
note_on channel=0 note=57 velocity=127 time=3
note_on channel=0 note=73 velocity=127 time=7
note_on channel=0 note=69 velocity=127 time=1
note_on channel=0 note=78 velocity=127 time=0
note_on channel=0 note=64 velocity=127 time=3
note_on channel=0 note=40 velocity=127 time=160
note_on channel=0 note=64 velocity=127 time=39
note_on channel=0 note=52 velocity=127 time=0
note_on channel=0 note=59 velocity=127 time=4
note_off channel=0 note=52 velocity=0 time=16
note_off channel=0 note=57 velocity=0 time=0
note_off channel=0 note=78 velocity=0 time=4
note_off channel=0 note=64 velocity=0 time=0
note_off channel=0 note=69 velocity=0 time=20
note_off channel=0 note=73 velocity=0 time=4
note_off channel=0 note=40 velocity=0 time=132
note_off channel=0 note=52 velocity=0 time=12
note_off channel=0 note=59 velocity=0 time=8
note_off channel=0 note=64 velocity=0 time=4
note_on channel=0 note=50 velocity=127 time=411
note_on channel=0 note=57 velocity=127 time=93
note_on channel=0 note=40 velocity=127 time=3
note_on channel=0 note=62 velocity=121 time=0
note_off channel=0 note=57 velocity=0 time=84
note_on channel=0 note=57 velocity=127 time=0
note_off channel=0 note=50 velocity=0 time=84
note_off channel=0 note=57 velocity=0 time=4
note_on channel=0 note=50 velocity=127 time=0
note_off channel=0 note=62 velocity=0 time=8
note_on channel=0 note=57 velocity=127 time=0
note_on channel=0 note=62 velocity=127 time=4
note_off channel=0 note=50 velocity=0 time=176
note_off channel=0 note=57 velocity=0 time=12
note_off channel=0 note=62 velocity=0 time=4
note_off channel=0 note=40 velocity=0 time=28
note_on channel=0 note=49 velocity=127 time=339
note_on channel=0 note=62 velocity=126 time=81
note_on channel=0 note=57 velocity=127 time=1
note_on channel=0 note=40 velocity=127 time=0
note_off channel=0 note=57 velocity=0 time=96
note_on channel=0 note=57 velocity=127 time=3
note_on channel=0 note=40 velocity=127 time=58
note_off channel=0 note=40 velocity=0 time=8
note_on channel=0 note=66 velocity=122 time=3
note_off channel=0 note=49 velocity=0 time=192
note_off channel=0 note=66 velocity=0 time=0
note_off channel=0 note=62 velocity=0 time=12
note_off channel=0 note=57 velocity=0 time=0
note_off channel=0 note=40 velocity=0 time=136
note_on channel=0 note=59 velocity=127 time=224
note_on channel=0 note=52 velocity=127 time=32
note_on channel=0 note=40 velocity=127 time=0
note_on channel=0 note=64 velocity=127 time=20
note_off channel=0 note=59 velocity=0 time=60
note_on channel=0 note=59 velocity=127 time=6
note_off channel=0 note=40 velocity=0 time=48
note_off channel=0 note=52 velocity=0 time=24
note_off channel=0 note=64 velocity=0 time=4
note_on channel=0 note=64 velocity=127 time=28
note_on channel=0 note=68 velocity=127 time=11
note_off channel=0 note=68 velocity=0 time=144
note_off channel=0 note=64 velocity=0 time=12
note_off channel=0 note=59 velocity=0 time=8
note_on channel=0 note=59 velocity=127 time=24
note_on channel=0 note=52 velocity=127 time=2
note_on channel=0 note=40 velocity=127 time=0
note_on channel=0 note=64 velocity=127 time=20
note_off channel=0 note=59 velocity=0 time=60
note_on channel=0 note=59 velocity=127 time=6
note_off channel=0 note=64 velocity=0 time=104
note_on channel=0 note=64 velocity=127 time=0
note_on channel=0 note=68 velocity=127 time=7
note_off channel=0 note=68 velocity=0 time=144
note_off channel=0 note=64 velocity=0 time=12
note_off channel=0 note=52 velocity=0 time=4
note_off channel=0 note=59 velocity=0 time=4
note_on channel=0 note=59 velocity=127 time=24
note_on channel=0 note=52 velocity=127 time=1
note_on channel=0 note=40 velocity=127 time=0
note_on channel=0 note=64 velocity=127 time=20
note_off channel=0 note=59 velocity=0 time=60
note_on channel=0 note=59 velocity=127 time=3
note_off channel=0 note=40 velocity=0 time=8
note_on channel=0 note=40 velocity=127 time=75
note_on channel=0 note=64 velocity=127 time=8
note_on channel=0 note=52 velocity=127 time=0
note_on channel=0 note=59 velocity=127 time=3
note_off channel=0 note=64 velocity=0 time=16
note_off channel=0 note=40 velocity=0 time=160
note_off channel=0 note=52 velocity=0 time=8
note_off channel=0 note=59 velocity=0 time=4
note_off channel=0 note=52 velocity=0 time=0
note_off channel=0 note=59 velocity=0 time=8
note_off channel=0 note=64 velocity=0 time=4
note_off channel=0 note=40 velocity=0 time=104
note_on channel=0 note=50 velocity=127 time=305
note_on channel=0 note=57 velocity=127 time=193
note_on channel=0 note=40 velocity=127 time=4
note_on channel=0 note=62 velocity=121 time=4
note_off channel=0 note=57 velocity=0 time=84
note_on channel=0 note=57 velocity=127 time=0
note_off channel=0 note=50 velocity=0 time=84
note_off channel=0 note=57 velocity=0 time=4
note_on channel=0 note=50 velocity=127 time=0
note_off channel=0 note=62 velocity=0 time=8
note_on channel=0 note=57 velocity=127 time=0
note_on channel=0 note=62 velocity=127 time=3
note_off channel=0 note=50 velocity=0 time=176
note_off channel=0 note=57 velocity=0 time=12
note_off channel=0 note=62 velocity=0 time=4
note_off channel=0 note=40 velocity=0 time=28
note_on channel=0 note=49 velocity=127 time=332
note_on channel=0 note=62 velocity=126 time=374
note_on channel=0 note=57 velocity=127 time=3
note_on channel=0 note=40 velocity=127 time=0
note_off channel=0 note=57 velocity=0 time=96
note_on channel=0 note=57 velocity=127 time=4
note_on channel=0 note=40 velocity=127 time=54
note_off channel=0 note=40 velocity=0 time=8
note_on channel=0 note=66 velocity=122 time=30
note_off channel=0 note=49 velocity=0 time=192
note_off channel=0 note=66 velocity=0 time=0
note_off channel=0 note=62 velocity=0 time=12
note_off channel=0 note=57 velocity=0 time=0
note_off channel=0 note=40 velocity=0 time=136
note_on channel=0 note=52 velocity=127 time=210
note_on channel=0 note=59 velocity=127 time=88
note_on channel=0 note=57 velocity=127 time=158
note_on channel=0 note=73 velocity=127 time=2
note_on channel=0 note=69 velocity=127 time=0
note_on channel=0 note=64 velocity=127 time=0
note_off channel=0 note=52 velocity=0 time=24
note_off channel=0 note=59 velocity=0 time=8
note_off channel=0 note=64 velocity=0 time=232
note_off channel=0 note=73 velocity=0 time=8
note_off channel=0 note=69 velocity=0 time=12
note_on channel=0 note=52 velocity=127 time=0
note_on channel=0 note=68 velocity=100 time=0
note_on channel=0 note=71 velocity=127 time=0
note_on channel=0 note=59 velocity=127 time=0
note_on channel=0 note=64 velocity=127 time=0
note_off channel=0 note=57 velocity=0 time=4
note_off channel=0 note=59 velocity=0 time=248
note_off channel=0 note=71 velocity=0 time=16
note_off channel=0 note=64 velocity=0 time=0
note_off channel=0 note=52 velocity=0 time=24
note_off channel=0 note=68 velocity=100 time=4
note_on channel=0 note=52 velocity=127 time=15
note_on channel=0 note=57 velocity=127 time=0
note_on channel=0 note=73 velocity=127 time=7
note_on channel=0 note=69 velocity=127 time=0
note_on channel=0 note=78 velocity=127 time=0
note_on channel=0 note=64 velocity=127 time=4
note_off channel=0 note=52 velocity=0 time=180
note_off channel=0 note=57 velocity=0 time=0
note_off channel=0 note=78 velocity=0 time=4
note_off channel=0 note=64 velocity=0 time=0
note_off channel=0 note=69 velocity=0 time=20
note_off channel=0 note=73 velocity=0 time=4
note_on channel=0 note=69 velocity=45 time=162
note_on channel=0 note=64 velocity=127 time=7
note_on channel=0 note=81 velocity=45 time=0
note_on channel=0 note=76 velocity=127 time=0
note_on channel=0 note=57 velocity=127 time=15
note_on channel=0 note=69 velocity=127 time=0
note_off channel=0 note=69 velocity=0 time=188
note_off channel=0 note=81 velocity=0 time=0
note_off channel=0 note=64 velocity=0 time=8
note_off channel=0 note=76 velocity=0 time=0
note_off channel=0 note=57 velocity=0 time=84
note_off channel=0 note=69 velocity=0 time=0
note_on channel=0 note=59 velocity=110 time=0
note_on channel=0 note=71 velocity=110 time=0
note_off channel=0 note=59 velocity=0 time=16
note_off channel=0 note=71 velocity=0 time=0
note_on channel=0 note=52 velocity=127 time=4
note_on channel=0 note=59 velocity=124 time=0
note_on channel=0 note=64 velocity=127 time=0
note_on channel=0 note=71 velocity=124 time=0
note_off channel=0 note=59 velocity=0 time=108
note_off channel=0 note=71 velocity=0 time=0
note_on channel=0 note=59 velocity=127 time=65
note_on channel=0 note=71 velocity=127 time=3
note_on channel=0 note=66 velocity=127 time=3
note_on channel=0 note=71 velocity=58 time=0
note_on channel=0 note=78 velocity=127 time=0
note_on channel=0 note=83 velocity=58 time=0
note_off channel=0 note=52 velocity=0 time=44
note_off channel=0 note=64 velocity=0 time=0
note_off channel=0 note=59 velocity=0 time=228
note_off channel=0 note=71 velocity=0 time=0
note_off channel=0 note=66 velocity=0 time=60
note_off channel=0 note=78 velocity=0 time=0
note_off channel=0 note=71 velocity=0 time=4
note_off channel=0 note=83 velocity=0 time=0
note_on channel=0 note=69 velocity=34 time=0
note_on channel=0 note=81 velocity=34 time=0
note_on channel=0 note=64 velocity=121 time=11
note_on channel=0 note=76 velocity=121 time=1
note_on channel=0 note=57 velocity=127 time=19
note_on channel=0 note=69 velocity=127 time=4
note_off channel=0 note=64 velocity=0 time=112
note_off channel=0 note=76 velocity=0 time=0
note_off channel=0 note=69 velocity=0 time=8
note_off channel=0 note=81 velocity=0 time=0
note_on channel=0 note=67 velocity=30 time=0
note_on channel=0 note=79 velocity=30 time=0
note_off channel=0 note=67 velocity=0 time=76
note_off channel=0 note=79 velocity=0 time=0
note_on channel=0 note=66 velocity=127 time=3
note_on channel=0 note=67 velocity=77 time=0
note_on channel=0 note=78 velocity=127 time=0
note_on channel=0 note=79 velocity=77 time=0
note_off channel=0 note=57 velocity=0 time=20
note_off channel=0 note=69 velocity=0 time=0
note_off channel=0 note=67 velocity=0 time=0
note_off channel=0 note=79 velocity=0 time=0
note_on channel=0 note=59 velocity=127 time=0
note_on channel=0 note=71 velocity=75 time=0
note_on channel=0 note=71 velocity=127 time=0
note_on channel=0 note=83 velocity=75 time=0
note_off channel=0 note=59 velocity=0 time=112
note_off channel=0 note=71 velocity=0 time=0
note_off channel=0 note=71 velocity=0 time=0
note_off channel=0 note=83 velocity=0 time=0
note_off channel=0 note=66 velocity=0 time=4
note_off channel=0 note=78 velocity=0 time=0
note_on channel=0 note=69 velocity=45 time=325
note_on channel=0 note=64 velocity=127 time=272
note_on channel=0 note=81 velocity=45 time=0
note_on channel=0 note=76 velocity=127 time=0
note_on channel=0 note=57 velocity=127 time=15
note_on channel=0 note=69 velocity=127 time=15
note_off channel=0 note=69 velocity=0 time=188
note_off channel=0 note=81 velocity=0 time=0
note_off channel=0 note=64 velocity=0 time=8
note_off channel=0 note=76 velocity=0 time=0
note_off channel=0 note=57 velocity=0 time=84
note_off channel=0 note=69 velocity=0 time=0
note_on channel=0 note=59 velocity=110 time=0
note_on channel=0 note=71 velocity=110 time=0
note_off channel=0 note=59 velocity=0 time=16
note_off channel=0 note=71 velocity=0 time=0
note_on channel=0 note=52 velocity=127 time=4
note_on channel=0 note=59 velocity=124 time=4
note_on channel=0 note=64 velocity=127 time=0
note_on channel=0 note=71 velocity=124 time=0
note_off channel=0 note=59 velocity=0 time=108
note_off channel=0 note=71 velocity=0 time=0
note_on channel=0 note=59 velocity=127 time=66
note_on channel=0 note=71 velocity=127 time=63
note_on channel=0 note=66 velocity=127 time=4
note_on channel=0 note=71 velocity=58 time=3
note_on channel=0 note=78 velocity=127 time=0
note_on channel=0 note=83 velocity=58 time=0
note_off channel=0 note=52 velocity=0 time=44
note_off channel=0 note=64 velocity=0 time=0
note_off channel=0 note=59 velocity=0 time=228
note_off channel=0 note=71 velocity=0 time=0
note_off channel=0 note=66 velocity=0 time=60
note_off channel=0 note=78 velocity=0 time=0
note_off channel=0 note=71 velocity=0 time=4
note_off channel=0 note=83 velocity=0 time=0
note_on channel=0 note=69 velocity=34 time=0
note_on channel=0 note=81 velocity=34 time=0
note_on channel=0 note=64 velocity=121 time=11
note_on channel=0 note=76 velocity=121 time=9
note_on channel=0 note=57 velocity=127 time=19
note_on channel=0 note=69 velocity=127 time=16
note_off channel=0 note=64 velocity=0 time=112
note_off channel=0 note=76 velocity=0 time=0
note_off channel=0 note=69 velocity=0 time=8
note_off channel=0 note=81 velocity=0 time=0
note_on channel=0 note=67 velocity=30 time=0
note_on channel=0 note=79 velocity=30 time=0
note_off channel=0 note=67 velocity=0 time=76
note_off channel=0 note=79 velocity=0 time=0
note_on channel=0 note=66 velocity=127 time=4
note_on channel=0 note=67 velocity=77 time=3
note_on channel=0 note=78 velocity=127 time=0
note_on channel=0 note=79 velocity=77 time=0
note_off channel=0 note=57 velocity=0 time=20
note_off channel=0 note=69 velocity=0 time=0
note_off channel=0 note=67 velocity=0 time=0
note_off channel=0 note=79 velocity=0 time=0
note_on channel=0 note=59 velocity=127 time=0
note_on channel=0 note=71 velocity=75 time=0
note_on channel=0 note=71 velocity=127 time=0
note_on channel=0 note=83 velocity=75 time=0
note_off channel=0 note=59 velocity=0 time=112
note_off channel=0 note=71 velocity=0 time=0
note_off channel=0 note=71 velocity=0 time=0
note_off channel=0 note=83 velocity=0 time=0
note_off channel=0 note=66 velocity=0 time=4
note_off channel=0 note=78 velocity=0 time=0
note_on channel=0 note=74 velocity=24 time=258
note_on channel=0 note=67 velocity=127 time=106
note_on channel=0 note=79 velocity=127 time=4
note_on channel=0 note=62 velocity=127 time=33
note_off channel=0 note=79 velocity=0 time=112
note_off channel=0 note=74 velocity=0 time=8
note_off channel=0 note=67 velocity=0 time=120
note_off channel=0 note=62 velocity=0 time=32
note_on channel=0 note=62 velocity=127 time=5
note_on channel=0 note=78 velocity=127 time=15
note_on channel=0 note=74 velocity=127 time=5
note_on channel=0 note=69 velocity=127 time=11
note_off channel=0 note=69 velocity=0 time=108
note_off channel=0 note=78 velocity=0 time=8
note_off channel=0 note=74 velocity=0 time=12
note_off channel=0 note=62 velocity=0 time=120
note_on channel=0 note=62 velocity=126 time=0
note_on channel=0 note=57 velocity=127 time=9
note_on channel=0 note=69 velocity=127 time=7
note_off channel=0 note=62 velocity=0 time=28
note_on channel=0 note=64 velocity=125 time=4
note_off channel=0 note=57 velocity=0 time=228
note_off channel=0 note=64 velocity=0 time=36
note_on channel=0 note=55 velocity=127 time=4
note_on channel=0 note=60 velocity=127 time=13
note_off channel=0 note=60 velocity=0 time=0
note_off channel=0 note=55 velocity=0 time=116
note_off channel=0 note=69 velocity=0 time=12
note_on channel=0 note=69 velocity=127 time=3
note_on channel=0 note=57 velocity=127 time=10
note_on channel=0 note=64 velocity=127 time=1
note_on channel=0 note=57 velocity=127 time=270
note_off channel=0 note=69 velocity=0 time=80
note_off channel=0 note=64 velocity=0 time=4
note_on channel=0 note=79 velocity=127 time=76
note_off channel=0 note=57 velocity=0 time=4
note_on channel=0 note=74 velocity=127 time=11
note_on channel=0 note=55 velocity=127 time=0
note_on channel=0 note=62 velocity=127 time=7
note_on channel=0 note=67 velocity=127 time=26
note_off channel=0 note=55 velocity=0 time=96
note_off channel=0 note=74 velocity=0 time=20
note_off channel=0 note=79 velocity=0 time=4
note_off channel=0 note=57 velocity=0 time=128
note_off channel=0 note=67 velocity=0 time=0
note_on channel=0 note=78 velocity=127 time=29
note_on channel=0 note=74 velocity=127 time=0
note_on channel=0 note=69 velocity=127 time=0
note_on channel=0 note=62 velocity=100 time=4
note_off channel=0 note=62 velocity=100 time=128
note_off channel=0 note=69 velocity=0 time=20
note_off channel=0 note=78 velocity=0 time=20
note_off channel=0 note=74 velocity=0 time=24
note_off channel=0 note=62 velocity=0 time=84
note_on channel=0 note=64 velocity=109 time=0
note_on channel=0 note=57 velocity=127 time=11
note_on channel=0 note=69 velocity=127 time=24
note_off channel=0 note=64 velocity=0 time=276
note_off channel=0 note=57 velocity=0 time=0
note_on channel=0 note=55 velocity=127 time=13
note_off channel=0 note=55 velocity=0 time=144
note_off channel=0 note=69 velocity=0 time=8
note_on channel=0 note=69 velocity=103 time=9
note_on channel=0 note=58 velocity=127 time=1
note_on channel=0 note=65 velocity=127 time=11
note_off channel=0 note=58 velocity=0 time=60
note_on channel=0 note=57 velocity=127 time=1
note_off channel=0 note=65 velocity=0 time=24
note_on channel=0 note=64 velocity=127 time=4
note_off channel=0 note=69 velocity=0 time=376
note_off channel=0 note=64 velocity=0 time=0
note_on channel=0 note=69 velocity=45 time=35
note_on channel=0 note=64 velocity=127 time=6
note_on channel=0 note=81 velocity=45 time=0
note_on channel=0 note=76 velocity=127 time=0
note_on channel=0 note=57 velocity=127 time=16
note_on channel=0 note=69 velocity=127 time=0
note_off channel=0 note=57 velocity=0 time=16
note_off channel=0 note=69 velocity=0 time=172
note_off channel=0 note=81 velocity=0 time=0
note_off channel=0 note=64 velocity=0 time=8
note_off channel=0 note=76 velocity=0 time=0
note_off channel=0 note=57 velocity=0 time=84
note_off channel=0 note=69 velocity=0 time=0
note_on channel=0 note=59 velocity=110 time=0
note_on channel=0 note=71 velocity=110 time=0
note_off channel=0 note=59 velocity=0 time=16
note_off channel=0 note=71 velocity=0 time=0
note_on channel=0 note=52 velocity=127 time=3
note_on channel=0 note=59 velocity=124 time=3
note_on channel=0 note=64 velocity=127 time=0
note_on channel=0 note=71 velocity=124 time=0
note_off channel=0 note=59 velocity=0 time=108
note_off channel=0 note=71 velocity=0 time=0
note_on channel=0 note=59 velocity=127 time=66
note_on channel=0 note=71 velocity=127 time=13
note_on channel=0 note=66 velocity=127 time=4
note_on channel=0 note=71 velocity=58 time=0
note_on channel=0 note=78 velocity=127 time=0
note_on channel=0 note=83 velocity=58 time=0
note_off channel=0 note=52 velocity=0 time=44
note_off channel=0 note=64 velocity=0 time=0
note_off channel=0 note=59 velocity=0 time=228
note_off channel=0 note=71 velocity=0 time=0
note_off channel=0 note=66 velocity=0 time=60
note_off channel=0 note=78 velocity=0 time=0
note_off channel=0 note=71 velocity=0 time=4
note_off channel=0 note=83 velocity=0 time=0
note_on channel=0 note=69 velocity=34 time=0
note_on channel=0 note=81 velocity=34 time=0
note_on channel=0 note=64 velocity=121 time=11
note_on channel=0 note=76 velocity=121 time=2
note_on channel=0 note=57 velocity=127 time=19
note_on channel=0 note=69 velocity=127 time=3
note_off channel=0 note=64 velocity=0 time=112
note_off channel=0 note=76 velocity=0 time=0
note_off channel=0 note=69 velocity=0 time=8
note_off channel=0 note=81 velocity=0 time=0
note_on channel=0 note=67 velocity=30 time=0
note_on channel=0 note=79 velocity=30 time=0
note_off channel=0 note=67 velocity=0 time=76
note_off channel=0 note=79 velocity=0 time=0
note_on channel=0 note=66 velocity=127 time=4
note_on channel=0 note=67 velocity=77 time=0
note_on channel=0 note=78 velocity=127 time=0
note_on channel=0 note=79 velocity=77 time=0
note_off channel=0 note=57 velocity=0 time=20
note_off channel=0 note=69 velocity=0 time=0
note_off channel=0 note=67 velocity=0 time=0
note_off channel=0 note=79 velocity=0 time=0
note_on channel=0 note=59 velocity=127 time=0
note_on channel=0 note=71 velocity=75 time=0
note_on channel=0 note=71 velocity=127 time=0
note_on channel=0 note=83 velocity=75 time=0
note_off channel=0 note=59 velocity=0 time=112
note_off channel=0 note=71 velocity=0 time=0
note_off channel=0 note=71 velocity=0 time=0
note_off channel=0 note=83 velocity=0 time=0
note_off channel=0 note=66 velocity=0 time=4
note_off channel=0 note=78 velocity=0 time=0
note_on channel=0 note=69 velocity=45 time=328
note_on channel=0 note=64 velocity=127 time=20
note_on channel=0 note=81 velocity=45 time=0
note_on channel=0 note=76 velocity=127 time=0
note_on channel=0 note=57 velocity=127 time=15
note_on channel=0 note=69 velocity=127 time=1
note_off channel=0 note=69 velocity=0 time=188
note_off channel=0 note=81 velocity=0 time=0
note_off channel=0 note=64 velocity=0 time=8
note_off channel=0 note=76 velocity=0 time=0
note_off channel=0 note=57 velocity=0 time=84
note_off channel=0 note=69 velocity=0 time=0
note_on channel=0 note=59 velocity=110 time=0
note_on channel=0 note=71 velocity=110 time=0
note_off channel=0 note=59 velocity=0 time=16
note_off channel=0 note=71 velocity=0 time=0
note_on channel=0 note=52 velocity=127 time=3
note_on channel=0 note=59 velocity=124 time=0
note_on channel=0 note=64 velocity=127 time=0
note_on channel=0 note=71 velocity=124 time=0
note_off channel=0 note=59 velocity=0 time=108
note_off channel=0 note=71 velocity=0 time=0
note_on channel=0 note=59 velocity=127 time=66
note_on channel=0 note=71 velocity=127 time=2
note_on channel=0 note=66 velocity=127 time=3
note_on channel=0 note=71 velocity=58 time=0
note_on channel=0 note=78 velocity=127 time=0
note_on channel=0 note=83 velocity=58 time=0
note_off channel=0 note=52 velocity=0 time=44
note_off channel=0 note=64 velocity=0 time=0
note_off channel=0 note=59 velocity=0 time=228
note_off channel=0 note=71 velocity=0 time=0
note_off channel=0 note=66 velocity=0 time=60
note_off channel=0 note=78 velocity=0 time=0
note_off channel=0 note=71 velocity=0 time=4
note_off channel=0 note=83 velocity=0 time=0
note_on channel=0 note=69 velocity=34 time=0
note_on channel=0 note=81 velocity=34 time=0
note_on channel=0 note=64 velocity=121 time=11
note_on channel=0 note=76 velocity=121 time=1
note_on channel=0 note=57 velocity=127 time=19
note_on channel=0 note=69 velocity=127 time=2
note_off channel=0 note=64 velocity=0 time=112
note_off channel=0 note=76 velocity=0 time=0
note_off channel=0 note=69 velocity=0 time=8
note_off channel=0 note=81 velocity=0 time=0
note_on channel=0 note=67 velocity=30 time=0
note_on channel=0 note=79 velocity=30 time=0
note_off channel=0 note=67 velocity=0 time=76
note_off channel=0 note=79 velocity=0 time=0
note_on channel=0 note=66 velocity=127 time=3
note_on channel=0 note=67 velocity=77 time=0
note_on channel=0 note=78 velocity=127 time=0
note_on channel=0 note=79 velocity=77 time=0
note_off channel=0 note=57 velocity=0 time=20
note_off channel=0 note=69 velocity=0 time=0
note_off channel=0 note=67 velocity=0 time=0
note_off channel=0 note=79 velocity=0 time=0
note_on channel=0 note=59 velocity=127 time=0
note_on channel=0 note=71 velocity=75 time=0
note_on channel=0 note=71 velocity=127 time=0
note_on channel=0 note=83 velocity=75 time=0
note_off channel=0 note=59 velocity=0 time=112
note_off channel=0 note=71 velocity=0 time=0
note_off channel=0 note=71 velocity=0 time=0
note_off channel=0 note=83 velocity=0 time=0
note_off channel=0 note=66 velocity=0 time=4
note_off channel=0 note=78 velocity=0 time=0
note_on channel=0 note=50 velocity=76 time=117
note_on channel=0 note=55 velocity=127 time=47
note_on channel=0 note=67 velocity=89 time=0
note_on channel=0 note=62 velocity=95 time=0
note_on channel=0 note=59 velocity=127 time=0
note_off channel=0 note=50 velocity=0 time=192
note_off channel=0 note=55 velocity=0 time=0
note_off channel=0 note=67 velocity=0 time=0
note_off channel=0 note=62 velocity=0 time=0
note_off channel=0 note=59 velocity=0 time=0
note_on channel=0 note=50 velocity=76 time=94
note_on channel=0 note=55 velocity=127 time=71
note_on channel=0 note=67 velocity=89 time=0
note_on channel=0 note=62 velocity=95 time=0
note_on channel=0 note=59 velocity=127 time=0
note_off channel=0 note=50 velocity=0 time=192
note_off channel=0 note=55 velocity=0 time=0
note_off channel=0 note=67 velocity=0 time=0
note_off channel=0 note=62 velocity=0 time=0
note_off channel=0 note=59 velocity=0 time=0
note_on channel=0 note=50 velocity=76 time=94
note_on channel=0 note=55 velocity=127 time=88
note_on channel=0 note=67 velocity=89 time=0
note_on channel=0 note=62 velocity=95 time=0
note_on channel=0 note=59 velocity=127 time=0
note_off channel=0 note=50 velocity=0 time=192
note_off channel=0 note=55 velocity=0 time=0
note_off channel=0 note=67 velocity=0 time=0
note_off channel=0 note=62 velocity=0 time=0
note_off channel=0 note=59 velocity=0 time=0
note_on channel=0 note=50 velocity=54 time=94
note_on channel=0 note=55 velocity=124 time=94
note_on channel=0 note=59 velocity=127 time=0
note_on channel=0 note=62 velocity=65 time=0
note_on channel=0 note=67 velocity=65 time=0
note_off channel=0 note=50 velocity=0 time=64
note_off channel=0 note=55 velocity=0 time=0
note_off channel=0 note=59 velocity=0 time=0
note_off channel=0 note=62 velocity=0 time=0
note_off channel=0 note=67 velocity=0 time=0
note_on channel=0 note=59 velocity=39 time=31
note_on channel=0 note=67 velocity=65 time=31
note_on channel=0 note=49 velocity=42 time=0
note_off channel=0 note=59 velocity=0 time=64
note_off channel=0 note=67 velocity=0 time=0
note_off channel=0 note=49 velocity=0 time=0
note_on channel=0 note=50 velocity=54 time=31
note_on channel=0 note=59 velocity=121 time=31
note_on channel=0 note=55 velocity=107 time=0
note_on channel=0 note=62 velocity=69 time=0
note_on channel=0 note=67 velocity=71 time=0
note_off channel=0 note=50 velocity=0 time=64
note_off channel=0 note=59 velocity=0 time=0
note_off channel=0 note=55 velocity=0 time=0
note_off channel=0 note=62 velocity=0 time=0
note_off channel=0 note=67 velocity=0 time=0
note_on channel=0 note=50 velocity=64 time=32
note_on channel=0 note=55 velocity=118 time=32
note_on channel=0 note=59 velocity=127 time=0
note_on channel=0 note=62 velocity=66 time=0
note_on channel=0 note=67 velocity=63 time=0
note_off channel=0 note=50 velocity=0 time=128
note_off channel=0 note=55 velocity=0 time=0
note_off channel=0 note=59 velocity=0 time=0
note_off channel=0 note=62 velocity=0 time=0
note_off channel=0 note=67 velocity=0 time=0
note_on channel=0 note=50 velocity=68 time=63
note_on channel=0 note=55 velocity=127 time=63
note_on channel=0 note=59 velocity=127 time=0
note_on channel=0 note=62 velocity=89 time=0
note_on channel=0 note=67 velocity=107 time=0
note_off channel=0 note=50 velocity=0 time=128
note_off channel=0 note=55 velocity=0 time=0
note_off channel=0 note=59 velocity=0 time=0
note_off channel=0 note=62 velocity=0 time=0
note_off channel=0 note=67 velocity=0 time=0
note_on channel=0 note=62 velocity=127 time=63
note_on channel=0 note=69 velocity=127 time=64
note_on channel=0 note=74 velocity=127 time=0
note_on channel=0 note=78 velocity=118 time=0
note_off channel=0 note=62 velocity=0 time=192
note_off channel=0 note=69 velocity=0 time=0
note_off channel=0 note=74 velocity=0 time=0
note_off channel=0 note=78 velocity=0 time=0
note_on channel=0 note=62 velocity=127 time=95
note_on channel=0 note=69 velocity=127 time=99
note_on channel=0 note=74 velocity=127 time=0
note_on channel=0 note=78 velocity=108 time=0
note_off channel=0 note=62 velocity=0 time=192
note_off channel=0 note=69 velocity=0 time=0
note_off channel=0 note=74 velocity=0 time=0
note_off channel=0 note=78 velocity=0 time=0
note_on channel=0 note=62 velocity=127 time=95
note_on channel=0 note=69 velocity=122 time=99
note_on channel=0 note=74 velocity=100 time=0
note_on channel=0 note=78 velocity=68 time=0
note_off channel=0 note=62 velocity=0 time=768
note_off channel=0 note=69 velocity=0 time=0
note_off channel=0 note=74 velocity=0 time=0
note_off channel=0 note=78 velocity=0 time=0
note_on channel=0 note=52 velocity=104 time=192
note_on channel=0 note=64 velocity=104 time=173
note_off channel=0 note=52 velocity=0 time=64
note_off channel=0 note=64 velocity=0 time=0
note_on channel=0 note=62 velocity=104 time=31
note_on channel=0 note=74 velocity=104 time=21
note_off channel=0 note=62 velocity=0 time=64
note_off channel=0 note=74 velocity=0 time=0
note_on channel=0 note=61 velocity=110 time=31
note_on channel=0 note=73 velocity=110 time=19
note_off channel=0 note=61 velocity=0 time=64
note_off channel=0 note=73 velocity=0 time=0
note_on channel=0 note=59 velocity=100 time=32
note_on channel=0 note=71 velocity=100 time=16
note_off channel=0 note=59 velocity=0 time=64
note_off channel=0 note=71 velocity=0 time=0
note_on channel=0 note=61 velocity=108 time=31
note_on channel=0 note=73 velocity=108 time=13
note_off channel=0 note=61 velocity=0 time=64
note_off channel=0 note=73 velocity=0 time=0
note_on channel=0 note=55 velocity=95 time=32
note_on channel=0 note=67 velocity=95 time=11
note_off channel=0 note=55 velocity=0 time=128
note_off channel=0 note=67 velocity=0 time=0
note_on channel=0 note=59 velocity=78 time=64
note_on channel=0 note=71 velocity=78 time=18
note_off channel=0 note=59 velocity=0 time=64
note_off channel=0 note=71 velocity=0 time=0
note_on channel=0 note=57 velocity=85 time=32
note_on channel=0 note=69 velocity=85 time=6
note_off channel=0 note=57 velocity=0 time=128
note_off channel=0 note=69 velocity=0 time=0
note_on channel=0 note=59 velocity=69 time=64
note_on channel=0 note=71 velocity=69 time=10
note_off channel=0 note=59 velocity=0 time=64
note_off channel=0 note=71 velocity=0 time=0
note_on channel=0 note=58 velocity=82 time=32
note_on channel=0 note=70 velocity=82 time=3
note_off channel=0 note=58 velocity=0 time=128
note_off channel=0 note=70 velocity=0 time=0
note_on channel=0 note=59 velocity=69 time=64
note_on channel=0 note=71 velocity=69 time=3
note_off channel=0 note=59 velocity=0 time=64
note_off channel=0 note=71 velocity=0 time=0
note_on channel=0 note=59 velocity=122 time=32
note_on channel=0 note=71 velocity=122 time=0
note_off channel=0 note=59 velocity=0 time=128
note_off channel=0 note=71 velocity=0 time=0
note_on channel=0 note=52 velocity=104 time=64
note_on channel=0 note=64 velocity=104 time=5
note_off channel=0 note=52 velocity=0 time=64
note_off channel=0 note=64 velocity=0 time=0
note_on channel=0 note=62 velocity=104 time=32
note_on channel=0 note=74 velocity=104 time=5
note_off channel=0 note=62 velocity=0 time=64
note_off channel=0 note=74 velocity=0 time=0
note_on channel=0 note=61 velocity=110 time=32
note_on channel=0 note=73 velocity=110 time=7
note_off channel=0 note=61 velocity=0 time=64
note_off channel=0 note=73 velocity=0 time=0
note_on channel=0 note=59 velocity=100 time=32
note_on channel=0 note=71 velocity=100 time=10
note_off channel=0 note=59 velocity=0 time=64
note_off channel=0 note=71 velocity=0 time=0
note_on channel=0 note=61 velocity=108 time=32
note_on channel=0 note=73 velocity=108 time=13
note_off channel=0 note=61 velocity=0 time=64
note_off channel=0 note=73 velocity=0 time=0
note_on channel=0 note=55 velocity=95 time=32
note_on channel=0 note=67 velocity=95 time=15
note_off channel=0 note=55 velocity=0 time=128
note_off channel=0 note=67 velocity=0 time=0
note_on channel=0 note=59 velocity=78 time=64
note_on channel=0 note=71 velocity=78 time=39
note_off channel=0 note=59 velocity=0 time=64
note_off channel=0 note=71 velocity=0 time=0
note_on channel=0 note=57 velocity=85 time=31
note_on channel=0 note=69 velocity=85 time=22
note_off channel=0 note=57 velocity=0 time=128
note_off channel=0 note=69 velocity=0 time=0
note_on channel=0 note=59 velocity=69 time=64
note_on channel=0 note=71 velocity=69 time=53
note_off channel=0 note=59 velocity=0 time=64
note_off channel=0 note=71 velocity=0 time=0
note_on channel=0 note=58 velocity=82 time=31
note_on channel=0 note=70 velocity=82 time=28
note_off channel=0 note=58 velocity=0 time=128
note_off channel=0 note=70 velocity=0 time=0
note_on channel=0 note=59 velocity=69 time=64
note_on channel=0 note=71 velocity=69 time=61
note_off channel=0 note=59 velocity=0 time=64
note_off channel=0 note=71 velocity=0 time=0
note_on channel=0 note=59 velocity=122 time=31
note_on channel=0 note=71 velocity=122 time=30
note_off channel=0 note=59 velocity=0 time=128
note_off channel=0 note=71 velocity=0 time=0
note_on channel=0 note=52 velocity=104 time=64
note_on channel=0 note=64 velocity=104 time=58
note_off channel=0 note=52 velocity=0 time=64
note_off channel=0 note=64 velocity=0 time=0
note_on channel=0 note=62 velocity=104 time=31
note_on channel=0 note=74 velocity=104 time=26
note_off channel=0 note=62 velocity=0 time=64
note_off channel=0 note=74 velocity=0 time=0
note_on channel=0 note=61 velocity=110 time=32
note_on channel=0 note=73 velocity=110 time=22
note_off channel=0 note=61 velocity=0 time=64
note_off channel=0 note=73 velocity=0 time=0
note_on channel=0 note=59 velocity=100 time=31
note_on channel=0 note=71 velocity=100 time=18
note_off channel=0 note=59 velocity=0 time=64
note_off channel=0 note=71 velocity=0 time=0
note_on channel=0 note=61 velocity=108 time=31
note_on channel=0 note=73 velocity=108 time=14
note_off channel=0 note=61 velocity=0 time=64
note_off channel=0 note=73 velocity=0 time=0
note_on channel=0 note=55 velocity=95 time=32
note_on channel=0 note=67 velocity=95 time=10
note_off channel=0 note=55 velocity=0 time=128
note_off channel=0 note=67 velocity=0 time=0
note_on channel=0 note=59 velocity=78 time=63
note_on channel=0 note=71 velocity=78 time=5
note_off channel=0 note=59 velocity=0 time=64
note_off channel=0 note=71 velocity=0 time=0
note_on channel=0 note=57 velocity=85 time=31
note_on channel=0 note=69 velocity=85 time=3
note_off channel=0 note=57 velocity=0 time=128
note_off channel=0 note=69 velocity=0 time=0
note_on channel=0 note=59 velocity=69 time=63
note_on channel=0 note=71 velocity=69 time=17
note_off channel=0 note=59 velocity=0 time=64
note_off channel=0 note=71 velocity=0 time=0
note_on channel=0 note=58 velocity=82 time=31
note_on channel=0 note=70 velocity=82 time=12
note_off channel=0 note=58 velocity=0 time=128
note_off channel=0 note=70 velocity=0 time=0
note_on channel=0 note=59 velocity=69 time=63
note_on channel=0 note=71 velocity=69 time=28
note_off channel=0 note=59 velocity=0 time=64
note_off channel=0 note=71 velocity=0 time=0
note_on channel=0 note=59 velocity=122 time=31
note_on channel=0 note=71 velocity=122 time=14
note_off channel=0 note=59 velocity=0 time=128
note_off channel=0 note=71 velocity=0 time=0
note_on channel=0 note=52 velocity=104 time=64
note_on channel=0 note=64 velocity=104 time=25
note_off channel=0 note=52 velocity=0 time=64
note_off channel=0 note=64 velocity=0 time=0
note_on channel=0 note=62 velocity=104 time=31
note_on channel=0 note=74 velocity=104 time=9
note_off channel=0 note=62 velocity=0 time=64
note_off channel=0 note=74 velocity=0 time=0
note_on channel=0 note=61 velocity=110 time=32
note_on channel=0 note=73 velocity=110 time=7
note_off channel=0 note=61 velocity=0 time=64
note_off channel=0 note=73 velocity=0 time=0
note_on channel=0 note=59 velocity=100 time=31
note_on channel=0 note=71 velocity=100 time=4
note_off channel=0 note=59 velocity=0 time=64
note_off channel=0 note=71 velocity=0 time=0
note_on channel=0 note=61 velocity=108 time=31
note_on channel=0 note=73 velocity=108 time=1
note_off channel=0 note=61 velocity=0 time=64
note_off channel=0 note=73 velocity=0 time=0
note_on channel=0 note=55 velocity=95 time=32
note_on channel=0 note=67 velocity=95 time=1
note_off channel=0 note=55 velocity=0 time=128
note_off channel=0 note=67 velocity=0 time=0
note_on channel=0 note=59 velocity=78 time=63
note_on channel=0 note=71 velocity=78 time=10
note_off channel=0 note=59 velocity=0 time=64
note_off channel=0 note=71 velocity=0 time=0
note_on channel=0 note=57 velocity=85 time=32
note_on channel=0 note=69 velocity=85 time=8
note_off channel=0 note=57 velocity=0 time=128
note_off channel=0 note=69 velocity=0 time=0
note_on channel=0 note=59 velocity=69 time=63
note_on channel=0 note=71 velocity=69 time=23
note_off channel=0 note=59 velocity=0 time=64
note_off channel=0 note=71 velocity=0 time=0
note_on channel=0 note=58 velocity=82 time=32
note_on channel=0 note=70 velocity=82 time=14
note_off channel=0 note=58 velocity=0 time=128
note_off channel=0 note=70 velocity=0 time=0
note_on channel=0 note=59 velocity=69 time=63
note_on channel=0 note=71 velocity=69 time=30
note_off channel=0 note=59 velocity=0 time=64
note_off channel=0 note=71 velocity=0 time=0
note_on channel=0 note=59 velocity=122 time=32
note_on channel=0 note=71 velocity=122 time=16
note_off channel=0 note=59 velocity=0 time=128
note_off channel=0 note=71 velocity=0 time=0
note_on channel=0 note=57 velocity=97 time=63
note_on channel=0 note=69 velocity=97 time=33
note_off channel=0 note=57 velocity=0 time=64
note_off channel=0 note=69 velocity=0 time=0
note_on channel=0 note=67 velocity=118 time=31
note_on channel=0 note=79 velocity=118 time=16
note_off channel=0 note=67 velocity=0 time=64
note_off channel=0 note=79 velocity=0 time=0
note_on channel=0 note=66 velocity=121 time=31
note_on channel=0 note=78 velocity=121 time=15
note_off channel=0 note=66 velocity=0 time=64
note_off channel=0 note=78 velocity=0 time=0
note_on channel=0 note=64 velocity=127 time=32
note_on channel=0 note=76 velocity=127 time=15
note_off channel=0 note=64 velocity=0 time=64
note_off channel=0 note=76 velocity=0 time=0
note_on channel=0 note=66 velocity=127 time=31
note_on channel=0 note=78 velocity=127 time=13
note_off channel=0 note=66 velocity=0 time=64
note_off channel=0 note=78 velocity=0 time=0
note_on channel=0 note=60 velocity=97 time=31
note_on channel=0 note=72 velocity=97 time=12
note_off channel=0 note=60 velocity=0 time=128
note_off channel=0 note=72 velocity=0 time=0
note_on channel=0 note=64 velocity=99 time=63
note_on channel=0 note=76 velocity=99 time=22
note_off channel=0 note=64 velocity=0 time=64
note_off channel=0 note=76 velocity=0 time=0
note_on channel=0 note=62 velocity=88 time=31
note_on channel=0 note=74 velocity=88 time=9
note_off channel=0 note=62 velocity=0 time=128
note_off channel=0 note=74 velocity=0 time=0
note_on channel=0 note=64 velocity=116 time=63
note_on channel=0 note=76 velocity=116 time=15
note_off channel=0 note=64 velocity=0 time=64
note_off channel=0 note=76 velocity=0 time=0
note_on channel=0 note=63 velocity=80 time=32
note_on channel=0 note=75 velocity=80 time=6
note_off channel=0 note=63 velocity=0 time=128
note_off channel=0 note=75 velocity=0 time=0
note_on channel=0 note=64 velocity=109 time=63
note_on channel=0 note=76 velocity=109 time=10
note_off channel=0 note=64 velocity=0 time=64
note_off channel=0 note=76 velocity=0 time=0
note_on channel=0 note=64 velocity=96 time=32
note_on channel=0 note=76 velocity=96 time=5
note_off channel=0 note=64 velocity=0 time=128
note_off channel=0 note=76 velocity=0 time=0
note_on channel=0 note=57 velocity=97 time=62
note_on channel=0 note=69 velocity=97 time=12
note_off channel=0 note=57 velocity=0 time=64
note_off channel=0 note=69 velocity=0 time=0
note_on channel=0 note=67 velocity=118 time=32
note_on channel=0 note=79 velocity=118 time=8
note_off channel=0 note=67 velocity=0 time=64
note_off channel=0 note=79 velocity=0 time=0
note_on channel=0 note=66 velocity=121 time=31
note_on channel=0 note=78 velocity=121 time=9
note_off channel=0 note=66 velocity=0 time=64
note_off channel=0 note=78 velocity=0 time=0
note_on channel=0 note=64 velocity=127 time=31
note_on channel=0 note=76 velocity=127 time=12
note_off channel=0 note=64 velocity=0 time=64
note_off channel=0 note=76 velocity=0 time=0
note_on channel=0 note=66 velocity=127 time=32
note_on channel=0 note=78 velocity=127 time=14
note_off channel=0 note=66 velocity=0 time=64
note_off channel=0 note=78 velocity=0 time=0
note_on channel=0 note=60 velocity=97 time=31
note_on channel=0 note=72 velocity=97 time=17
note_off channel=0 note=60 velocity=0 time=128
note_off channel=0 note=72 velocity=0 time=0
note_on channel=0 note=64 velocity=99 time=63
note_on channel=0 note=76 velocity=99 time=43
note_off channel=0 note=64 velocity=0 time=64
note_off channel=0 note=76 velocity=0 time=0
note_on channel=0 note=62 velocity=88 time=31
note_on channel=0 note=74 velocity=88 time=25
note_off channel=0 note=62 velocity=0 time=128
note_off channel=0 note=74 velocity=0 time=0
note_on channel=0 note=64 velocity=116 time=63
note_on channel=0 note=76 velocity=116 time=59
note_off channel=0 note=64 velocity=0 time=64
note_off channel=0 note=76 velocity=0 time=0
note_on channel=0 note=63 velocity=80 time=31
note_on channel=0 note=75 velocity=80 time=32
note_off channel=0 note=63 velocity=0 time=128
note_off channel=0 note=75 velocity=0 time=0
note_on channel=0 note=64 velocity=109 time=63
note_on channel=0 note=76 velocity=109 time=70
note_off channel=0 note=64 velocity=0 time=64
note_off channel=0 note=76 velocity=0 time=0
note_on channel=0 note=64 velocity=96 time=31
note_on channel=0 note=76 velocity=96 time=35
note_off channel=0 note=64 velocity=0 time=128
note_off channel=0 note=76 velocity=0 time=0
note_on channel=0 note=52 velocity=104 time=62
note_on channel=0 note=52 velocity=104 time=68
note_on channel=0 note=64 velocity=104 time=0
note_off channel=0 note=52 velocity=0 time=64
note_off channel=0 note=52 velocity=0 time=0
note_off channel=0 note=64 velocity=0 time=0
note_on channel=0 note=62 velocity=104 time=31
note_on channel=0 note=62 velocity=104 time=29
note_on channel=0 note=74 velocity=104 time=0
note_off channel=0 note=62 velocity=0 time=64
note_off channel=0 note=62 velocity=0 time=0
note_off channel=0 note=74 velocity=0 time=0
note_on channel=0 note=61 velocity=110 time=31
note_on channel=0 note=61 velocity=110 time=26
note_on channel=0 note=73 velocity=110 time=0
note_off channel=0 note=61 velocity=0 time=64
note_off channel=0 note=61 velocity=0 time=0
note_off channel=0 note=73 velocity=0 time=0
note_on channel=0 note=59 velocity=100 time=31
note_on channel=0 note=59 velocity=100 time=21
note_on channel=0 note=71 velocity=100 time=0
note_off channel=0 note=59 velocity=0 time=64
note_off channel=0 note=59 velocity=0 time=0
note_off channel=0 note=71 velocity=0 time=0
note_on channel=0 note=61 velocity=108 time=31
note_on channel=0 note=61 velocity=108 time=14
note_on channel=0 note=73 velocity=108 time=0
note_off channel=0 note=61 velocity=0 time=64
note_off channel=0 note=61 velocity=0 time=0
note_off channel=0 note=73 velocity=0 time=0
note_on channel=0 note=55 velocity=95 time=31
note_on channel=0 note=55 velocity=95 time=7
note_on channel=0 note=67 velocity=95 time=0
note_off channel=0 note=55 velocity=0 time=128
note_off channel=0 note=55 velocity=0 time=0
note_off channel=0 note=67 velocity=0 time=0
note_on channel=0 note=59 velocity=78 time=62
note_on channel=0 note=59 velocity=78 time=6
note_on channel=0 note=71 velocity=78 time=0
note_off channel=0 note=59 velocity=0 time=64
note_off channel=0 note=59 velocity=0 time=0
note_off channel=0 note=71 velocity=0 time=0
note_on channel=0 note=57 velocity=85 time=31
note_on channel=0 note=57 velocity=85 time=13
note_on channel=0 note=69 velocity=85 time=0
note_off channel=0 note=57 velocity=0 time=128
note_off channel=0 note=57 velocity=0 time=0
note_off channel=0 note=69 velocity=0 time=0
note_on channel=0 note=59 velocity=69 time=62
note_on channel=0 note=59 velocity=69 time=43
note_on channel=0 note=71 velocity=69 time=0
note_off channel=0 note=59 velocity=0 time=64
note_off channel=0 note=59 velocity=0 time=0
note_off channel=0 note=71 velocity=0 time=0
note_on channel=0 note=58 velocity=82 time=31
note_on channel=0 note=58 velocity=82 time=27
note_on channel=0 note=70 velocity=82 time=0
note_off channel=0 note=58 velocity=0 time=128
note_off channel=0 note=58 velocity=0 time=0
note_off channel=0 note=70 velocity=0 time=0
note_on channel=0 note=59 velocity=69 time=62
note_on channel=0 note=59 velocity=69 time=63
note_on channel=0 note=71 velocity=69 time=0
note_off channel=0 note=59 velocity=0 time=64
note_off channel=0 note=59 velocity=0 time=0
note_off channel=0 note=71 velocity=0 time=0
note_on channel=0 note=59 velocity=122 time=31
note_on channel=0 note=59 velocity=122 time=32
note_on channel=0 note=71 velocity=122 time=0
note_off channel=0 note=59 velocity=0 time=128
note_off channel=0 note=59 velocity=0 time=0
note_off channel=0 note=71 velocity=0 time=0
note_on channel=0 note=52 velocity=104 time=63
note_on channel=0 note=52 velocity=104 time=65
note_on channel=0 note=64 velocity=104 time=0
note_off channel=0 note=52 velocity=0 time=64
note_off channel=0 note=52 velocity=0 time=0
note_off channel=0 note=64 velocity=0 time=0
note_on channel=0 note=62 velocity=104 time=31
note_on channel=0 note=62 velocity=104 time=30
note_on channel=0 note=74 velocity=104 time=0
note_off channel=0 note=62 velocity=0 time=64
note_off channel=0 note=62 velocity=0 time=0
note_off channel=0 note=74 velocity=0 time=0
note_on channel=0 note=61 velocity=110 time=31
note_on channel=0 note=61 velocity=110 time=28
note_on channel=0 note=73 velocity=110 time=0
note_off channel=0 note=61 velocity=0 time=64
note_off channel=0 note=61 velocity=0 time=0
note_off channel=0 note=73 velocity=0 time=0
note_on channel=0 note=59 velocity=100 time=31
note_on channel=0 note=59 velocity=100 time=25
note_on channel=0 note=71 velocity=100 time=0
note_off channel=0 note=59 velocity=0 time=64
note_off channel=0 note=59 velocity=0 time=0
note_off channel=0 note=71 velocity=0 time=0
note_on channel=0 note=61 velocity=108 time=31
note_on channel=0 note=61 velocity=108 time=22
note_on channel=0 note=73 velocity=108 time=0
note_off channel=0 note=61 velocity=0 time=64
note_off channel=0 note=61 velocity=0 time=0
note_off channel=0 note=73 velocity=0 time=0
note_on channel=0 note=55 velocity=95 time=31
note_on channel=0 note=55 velocity=95 time=19
note_on channel=0 note=67 velocity=95 time=0
note_off channel=0 note=55 velocity=0 time=128
note_off channel=0 note=55 velocity=0 time=0
note_off channel=0 note=67 velocity=0 time=0
note_on channel=0 note=59 velocity=78 time=62
note_on channel=0 note=59 velocity=78 time=29
note_on channel=0 note=71 velocity=78 time=0
note_off channel=0 note=59 velocity=0 time=64
note_off channel=0 note=59 velocity=0 time=0
note_off channel=0 note=71 velocity=0 time=0
note_on channel=0 note=57 velocity=85 time=32
note_on channel=0 note=57 velocity=85 time=10
note_on channel=0 note=69 velocity=85 time=0
note_off channel=0 note=57 velocity=0 time=128
note_off channel=0 note=57 velocity=0 time=0
note_off channel=0 note=69 velocity=0 time=0
note_on channel=0 note=59 velocity=69 time=62
note_on channel=0 note=59 velocity=69 time=10
note_on channel=0 note=71 velocity=69 time=0
note_off channel=0 note=59 velocity=0 time=64
note_off channel=0 note=59 velocity=0 time=0
note_off channel=0 note=71 velocity=0 time=0
note_on channel=0 note=58 velocity=82 time=32
note_on channel=0 note=58 velocity=82 time=1
note_on channel=0 note=70 velocity=82 time=0
note_off channel=0 note=58 velocity=0 time=128
note_off channel=0 note=58 velocity=0 time=0
note_off channel=0 note=70 velocity=0 time=0
note_on channel=0 note=59 velocity=69 time=63
note_on channel=0 note=59 velocity=69 time=4
note_on channel=0 note=71 velocity=69 time=0
note_off channel=0 note=59 velocity=0 time=64
note_off channel=0 note=59 velocity=0 time=0
note_off channel=0 note=71 velocity=0 time=0
note_on channel=0 note=59 velocity=122 time=31
note_on channel=0 note=59 velocity=122 time=4
note_on channel=0 note=71 velocity=122 time=0
note_off channel=0 note=59 velocity=0 time=128
note_off channel=0 note=59 velocity=0 time=0
note_off channel=0 note=71 velocity=0 time=0
note_on channel=0 note=69 velocity=45 time=276
note_on channel=0 note=64 velocity=127 time=56
note_on channel=0 note=81 velocity=45 time=0
note_on channel=0 note=76 velocity=127 time=0
note_on channel=0 note=57 velocity=127 time=15
note_on channel=0 note=69 velocity=127 time=1
note_off channel=0 note=69 velocity=0 time=188
note_off channel=0 note=81 velocity=0 time=0
note_off channel=0 note=64 velocity=0 time=8
note_off channel=0 note=76 velocity=0 time=0
note_off channel=0 note=57 velocity=0 time=84
note_off channel=0 note=69 velocity=0 time=0
note_on channel=0 note=59 velocity=110 time=0
note_on channel=0 note=71 velocity=110 time=0
note_off channel=0 note=59 velocity=0 time=16
note_off channel=0 note=71 velocity=0 time=0
note_on channel=0 note=52 velocity=127 time=4
note_on channel=0 note=59 velocity=124 time=0
note_on channel=0 note=64 velocity=127 time=0
note_on channel=0 note=71 velocity=124 time=0
note_off channel=0 note=59 velocity=0 time=108
note_off channel=0 note=71 velocity=0 time=0
note_on channel=0 note=59 velocity=127 time=66
note_on channel=0 note=71 velocity=127 time=6
note_on channel=0 note=66 velocity=127 time=4
note_on channel=0 note=71 velocity=58 time=0
note_on channel=0 note=78 velocity=127 time=0
note_on channel=0 note=83 velocity=58 time=0
note_off channel=0 note=52 velocity=0 time=44
note_off channel=0 note=64 velocity=0 time=0
note_off channel=0 note=59 velocity=0 time=228
note_off channel=0 note=71 velocity=0 time=0
note_off channel=0 note=66 velocity=0 time=60
note_off channel=0 note=78 velocity=0 time=0
note_off channel=0 note=71 velocity=0 time=4
note_off channel=0 note=83 velocity=0 time=0
note_on channel=0 note=69 velocity=34 time=0
note_on channel=0 note=81 velocity=34 time=0
note_on channel=0 note=64 velocity=121 time=11
note_on channel=0 note=76 velocity=121 time=1
note_on channel=0 note=57 velocity=127 time=19
note_on channel=0 note=69 velocity=127 time=1
note_off channel=0 note=64 velocity=0 time=112
note_off channel=0 note=76 velocity=0 time=0
note_off channel=0 note=69 velocity=0 time=8
note_off channel=0 note=81 velocity=0 time=0
note_on channel=0 note=67 velocity=30 time=0
note_on channel=0 note=79 velocity=30 time=0
note_off channel=0 note=67 velocity=0 time=76
note_off channel=0 note=79 velocity=0 time=0
note_on channel=0 note=66 velocity=127 time=3
note_on channel=0 note=67 velocity=77 time=0
note_on channel=0 note=78 velocity=127 time=0
note_on channel=0 note=79 velocity=77 time=0
note_off channel=0 note=57 velocity=0 time=20
note_off channel=0 note=69 velocity=0 time=0
note_off channel=0 note=67 velocity=0 time=0
note_off channel=0 note=79 velocity=0 time=0
note_on channel=0 note=59 velocity=127 time=0
note_on channel=0 note=71 velocity=75 time=0
note_on channel=0 note=71 velocity=127 time=0
note_on channel=0 note=83 velocity=75 time=0
note_off channel=0 note=59 velocity=0 time=112
note_off channel=0 note=71 velocity=0 time=0
note_off channel=0 note=71 velocity=0 time=0
note_off channel=0 note=83 velocity=0 time=0
note_off channel=0 note=66 velocity=0 time=4
note_off channel=0 note=78 velocity=0 time=0
note_on channel=0 note=69 velocity=45 time=331
note_on channel=0 note=64 velocity=127 time=113
note_on channel=0 note=81 velocity=45 time=0
note_on channel=0 note=76 velocity=127 time=0
note_on channel=0 note=57 velocity=127 time=15
note_on channel=0 note=69 velocity=127 time=12
note_off channel=0 note=69 velocity=0 time=188
note_off channel=0 note=81 velocity=0 time=0
note_off channel=0 note=64 velocity=0 time=8
note_off channel=0 note=76 velocity=0 time=0
note_off channel=0 note=57 velocity=0 time=84
note_off channel=0 note=69 velocity=0 time=0
note_on channel=0 note=59 velocity=110 time=0
note_on channel=0 note=71 velocity=110 time=0
note_off channel=0 note=59 velocity=0 time=16
note_off channel=0 note=71 velocity=0 time=0
note_on channel=0 note=52 velocity=127 time=4
note_on channel=0 note=59 velocity=124 time=3
note_on channel=0 note=64 velocity=127 time=0
note_on channel=0 note=71 velocity=124 time=0
note_off channel=0 note=59 velocity=0 time=108
note_off channel=0 note=71 velocity=0 time=0
note_on channel=0 note=59 velocity=127 time=66
note_on channel=0 note=71 velocity=127 time=62
note_on channel=0 note=66 velocity=127 time=4
note_on channel=0 note=71 velocity=58 time=4
note_on channel=0 note=78 velocity=127 time=0
note_on channel=0 note=83 velocity=58 time=0
note_off channel=0 note=52 velocity=0 time=44
note_off channel=0 note=64 velocity=0 time=0
note_off channel=0 note=59 velocity=0 time=228
note_off channel=0 note=71 velocity=0 time=0
note_off channel=0 note=66 velocity=0 time=60
note_off channel=0 note=78 velocity=0 time=0
note_off channel=0 note=71 velocity=0 time=4
note_off channel=0 note=83 velocity=0 time=0
note_on channel=0 note=69 velocity=34 time=0
note_on channel=0 note=81 velocity=34 time=0
note_on channel=0 note=64 velocity=121 time=11
note_on channel=0 note=76 velocity=121 time=12
note_on channel=0 note=57 velocity=127 time=19
note_on channel=0 note=69 velocity=127 time=21
note_off channel=0 note=64 velocity=0 time=112
note_off channel=0 note=76 velocity=0 time=0
note_off channel=0 note=69 velocity=0 time=8
note_off channel=0 note=81 velocity=0 time=0
note_on channel=0 note=67 velocity=30 time=0
note_on channel=0 note=79 velocity=30 time=0
note_off channel=0 note=67 velocity=0 time=76
note_off channel=0 note=79 velocity=0 time=0
note_on channel=0 note=66 velocity=127 time=4
note_on channel=0 note=67 velocity=77 time=4
note_on channel=0 note=78 velocity=127 time=0
note_on channel=0 note=79 velocity=77 time=0
note_off channel=0 note=57 velocity=0 time=20
note_off channel=0 note=69 velocity=0 time=0
note_off channel=0 note=67 velocity=0 time=0
note_off channel=0 note=79 velocity=0 time=0
note_on channel=0 note=59 velocity=127 time=0
note_on channel=0 note=71 velocity=75 time=0
note_on channel=0 note=71 velocity=127 time=0
note_on channel=0 note=83 velocity=75 time=0
note_off channel=0 note=59 velocity=0 time=112
note_off channel=0 note=71 velocity=0 time=0
note_off channel=0 note=71 velocity=0 time=0
note_off channel=0 note=83 velocity=0 time=0
note_off channel=0 note=66 velocity=0 time=4
note_off channel=0 note=78 velocity=0 time=0
note_on channel=0 note=74 velocity=24 time=258
note_on channel=0 note=67 velocity=127 time=253
note_on channel=0 note=79 velocity=127 time=9
note_on channel=0 note=62 velocity=127 time=30
note_off channel=0 note=79 velocity=0 time=112
note_off channel=0 note=74 velocity=0 time=8
note_off channel=0 note=67 velocity=0 time=120
note_off channel=0 note=62 velocity=0 time=32
note_on channel=0 note=62 velocity=127 time=15
note_on channel=0 note=78 velocity=127 time=14
note_on channel=0 note=74 velocity=127 time=6
note_on channel=0 note=69 velocity=127 time=11
note_off channel=0 note=69 velocity=0 time=108
note_off channel=0 note=78 velocity=0 time=8
note_off channel=0 note=74 velocity=0 time=12
note_off channel=0 note=62 velocity=0 time=120
note_on channel=0 note=62 velocity=126 time=0
note_on channel=0 note=57 velocity=127 time=9
note_on channel=0 note=69 velocity=127 time=8
note_off channel=0 note=62 velocity=0 time=28
note_on channel=0 note=64 velocity=125 time=2
note_off channel=0 note=57 velocity=0 time=228
note_off channel=0 note=64 velocity=0 time=36
note_on channel=0 note=55 velocity=127 time=4
note_on channel=0 note=60 velocity=127 time=14
note_off channel=0 note=60 velocity=0 time=0
note_off channel=0 note=55 velocity=0 time=116
note_off channel=0 note=69 velocity=0 time=12
note_on channel=0 note=69 velocity=127 time=1
note_on channel=0 note=57 velocity=127 time=11
note_on channel=0 note=64 velocity=127 time=6
note_on channel=0 note=69 velocity=127 time=271
note_on channel=0 note=57 velocity=127 time=46
note_on channel=0 note=64 velocity=127 time=0
note_on channel=0 note=69 velocity=127 time=0
note_on channel=0 note=57 velocity=127 time=0
note_on channel=0 note=64 velocity=127 time=0
note_on channel=0 note=57 velocity=127 time=0
note_off channel=0 note=69 velocity=0 time=80
note_off channel=0 note=69 velocity=0 time=0
note_off channel=0 note=69 velocity=0 time=0
note_off channel=0 note=64 velocity=0 time=4
note_off channel=0 note=64 velocity=0 time=0
note_off channel=0 note=64 velocity=0 time=0
note_on channel=0 note=79 velocity=127 time=66
note_off channel=0 note=57 velocity=0 time=4
note_on channel=0 note=74 velocity=127 time=7
note_on channel=0 note=55 velocity=127 time=0
note_on channel=0 note=62 velocity=127 time=7
note_on channel=0 note=67 velocity=127 time=27
note_off channel=0 note=55 velocity=0 time=96
note_off channel=0 note=74 velocity=0 time=20
note_off channel=0 note=79 velocity=0 time=4
note_off channel=0 note=57 velocity=0 time=128
note_off channel=0 note=57 velocity=0 time=0
note_off channel=0 note=57 velocity=0 time=0
note_off channel=0 note=67 velocity=0 time=0
note_on channel=0 note=78 velocity=127 time=28
note_on channel=0 note=74 velocity=127 time=4
note_on channel=0 note=69 velocity=127 time=0
note_on channel=0 note=62 velocity=100 time=4
note_off channel=0 note=62 velocity=100 time=128
note_off channel=0 note=69 velocity=0 time=20
note_off channel=0 note=78 velocity=0 time=20
note_off channel=0 note=74 velocity=0 time=24
note_off channel=0 note=62 velocity=0 time=84
note_on channel=0 note=64 velocity=109 time=0
note_on channel=0 note=57 velocity=127 time=11
note_on channel=0 note=69 velocity=127 time=20
note_off channel=0 note=64 velocity=0 time=276
note_off channel=0 note=57 velocity=0 time=0
note_on channel=0 note=55 velocity=127 time=5
note_off channel=0 note=55 velocity=0 time=144
note_off channel=0 note=69 velocity=0 time=8
note_on channel=0 note=69 velocity=103 time=4
note_on channel=0 note=58 velocity=127 time=2
note_on channel=0 note=65 velocity=127 time=11
note_off channel=0 note=58 velocity=0 time=60
note_on channel=0 note=57 velocity=127 time=4
note_off channel=0 note=65 velocity=0 time=24
note_on channel=0 note=64 velocity=127 time=4
note_off channel=0 note=69 velocity=0 time=376
note_off channel=0 note=64 velocity=0 time=0
note_on channel=0 note=69 velocity=45 time=33
note_on channel=0 note=64 velocity=127 time=13
note_on channel=0 note=81 velocity=45 time=0
note_on channel=0 note=76 velocity=127 time=0
note_on channel=0 note=57 velocity=127 time=15
note_on channel=0 note=69 velocity=127 time=7
note_off channel=0 note=57 velocity=0 time=16
note_off channel=0 note=69 velocity=0 time=172
note_off channel=0 note=81 velocity=0 time=0
note_off channel=0 note=64 velocity=0 time=8
note_off channel=0 note=76 velocity=0 time=0
note_off channel=0 note=57 velocity=0 time=84
note_off channel=0 note=69 velocity=0 time=0
note_on channel=0 note=59 velocity=110 time=0
note_on channel=0 note=71 velocity=110 time=0
note_off channel=0 note=59 velocity=0 time=16
note_off channel=0 note=71 velocity=0 time=0
note_on channel=0 note=52 velocity=127 time=3
note_on channel=0 note=59 velocity=124 time=1
note_on channel=0 note=64 velocity=127 time=0
note_on channel=0 note=71 velocity=124 time=0
note_off channel=0 note=59 velocity=0 time=108
note_off channel=0 note=71 velocity=0 time=0
note_on channel=0 note=59 velocity=127 time=66
note_on channel=0 note=71 velocity=127 time=32
note_on channel=0 note=66 velocity=127 time=3
note_on channel=0 note=71 velocity=58 time=1
note_on channel=0 note=78 velocity=127 time=0
note_on channel=0 note=83 velocity=58 time=0
note_off channel=0 note=52 velocity=0 time=44
note_off channel=0 note=64 velocity=0 time=0
note_off channel=0 note=59 velocity=0 time=228
note_off channel=0 note=71 velocity=0 time=0
note_off channel=0 note=66 velocity=0 time=60
note_off channel=0 note=78 velocity=0 time=0
note_off channel=0 note=71 velocity=0 time=4
note_off channel=0 note=83 velocity=0 time=0
note_on channel=0 note=69 velocity=34 time=0
note_on channel=0 note=81 velocity=34 time=0
note_on channel=0 note=64 velocity=121 time=11
note_on channel=0 note=76 velocity=121 time=6
note_on channel=0 note=57 velocity=127 time=18
note_on channel=0 note=69 velocity=127 time=9
note_off channel=0 note=64 velocity=0 time=112
note_off channel=0 note=76 velocity=0 time=0
note_off channel=0 note=69 velocity=0 time=8
note_off channel=0 note=81 velocity=0 time=0
note_on channel=0 note=67 velocity=30 time=0
note_on channel=0 note=79 velocity=30 time=0
note_off channel=0 note=67 velocity=0 time=76
note_off channel=0 note=79 velocity=0 time=0
note_on channel=0 note=66 velocity=127 time=4
note_on channel=0 note=67 velocity=77 time=1
note_on channel=0 note=78 velocity=127 time=0
note_on channel=0 note=79 velocity=77 time=0
note_off channel=0 note=57 velocity=0 time=20
note_off channel=0 note=69 velocity=0 time=0
note_off channel=0 note=67 velocity=0 time=0
note_off channel=0 note=79 velocity=0 time=0
note_on channel=0 note=59 velocity=127 time=0
note_on channel=0 note=71 velocity=75 time=0
note_on channel=0 note=71 velocity=127 time=0
note_on channel=0 note=83 velocity=75 time=0
note_off channel=0 note=59 velocity=0 time=112
note_off channel=0 note=71 velocity=0 time=0
note_off channel=0 note=71 velocity=0 time=0
note_off channel=0 note=83 velocity=0 time=0
note_off channel=0 note=66 velocity=0 time=4
note_off channel=0 note=78 velocity=0 time=0
note_on channel=0 note=69 velocity=45 time=326
note_on channel=0 note=64 velocity=127 time=62
note_on channel=0 note=81 velocity=45 time=0
note_on channel=0 note=76 velocity=127 time=0
note_on channel=0 note=57 velocity=127 time=15
note_on channel=0 note=69 velocity=127 time=16
note_off channel=0 note=69 velocity=0 time=188
note_off channel=0 note=81 velocity=0 time=0
note_off channel=0 note=64 velocity=0 time=8
note_off channel=0 note=76 velocity=0 time=0
note_off channel=0 note=57 velocity=0 time=84
note_off channel=0 note=69 velocity=0 time=0
note_on channel=0 note=59 velocity=110 time=0
note_on channel=0 note=71 velocity=110 time=0
note_off channel=0 note=59 velocity=0 time=16
note_off channel=0 note=71 velocity=0 time=0
note_on channel=0 note=52 velocity=127 time=4
note_on channel=0 note=59 velocity=124 time=4
note_on channel=0 note=64 velocity=127 time=0
note_on channel=0 note=71 velocity=124 time=0
note_off channel=0 note=59 velocity=0 time=108
note_off channel=0 note=71 velocity=0 time=0
note_on channel=0 note=59 velocity=127 time=65
note_on channel=0 note=71 velocity=127 time=78
note_on channel=0 note=66 velocity=127 time=3
note_on channel=0 note=71 velocity=58 time=4
note_on channel=0 note=78 velocity=127 time=0
note_on channel=0 note=83 velocity=58 time=0
note_off channel=0 note=52 velocity=0 time=44
note_off channel=0 note=64 velocity=0 time=0
note_off channel=0 note=59 velocity=0 time=228
note_off channel=0 note=71 velocity=0 time=0
note_off channel=0 note=66 velocity=0 time=60
note_off channel=0 note=78 velocity=0 time=0
note_off channel=0 note=71 velocity=0 time=4
note_off channel=0 note=83 velocity=0 time=0
note_on channel=0 note=69 velocity=34 time=0
note_on channel=0 note=81 velocity=34 time=0
note_on channel=0 note=64 velocity=121 time=11
note_on channel=0 note=76 velocity=121 time=15
note_on channel=0 note=57 velocity=127 time=19
note_on channel=0 note=69 velocity=127 time=24
note_off channel=0 note=64 velocity=0 time=112
note_off channel=0 note=76 velocity=0 time=0
note_off channel=0 note=69 velocity=0 time=8
note_off channel=0 note=81 velocity=0 time=0
note_on channel=0 note=67 velocity=30 time=0
note_on channel=0 note=79 velocity=30 time=0
note_off channel=0 note=67 velocity=0 time=76
note_off channel=0 note=79 velocity=0 time=0
note_on channel=0 note=66 velocity=127 time=3
note_on channel=0 note=67 velocity=77 time=4
note_on channel=0 note=78 velocity=127 time=0
note_on channel=0 note=79 velocity=77 time=0
note_off channel=0 note=57 velocity=0 time=20
note_off channel=0 note=69 velocity=0 time=0
note_off channel=0 note=67 velocity=0 time=0
note_off channel=0 note=79 velocity=0 time=0
note_on channel=0 note=59 velocity=127 time=0
note_on channel=0 note=71 velocity=75 time=0
note_on channel=0 note=71 velocity=127 time=0
note_on channel=0 note=83 velocity=75 time=0
note_off channel=0 note=59 velocity=0 time=112
note_off channel=0 note=71 velocity=0 time=0
note_off channel=0 note=71 velocity=0 time=0
note_off channel=0 note=83 velocity=0 time=0
note_off channel=0 note=66 velocity=0 time=4
note_off channel=0 note=78 velocity=0 time=0
note_on channel=0 note=55 velocity=65 time=117
note_on channel=0 note=60 velocity=76 time=134
note_on channel=0 note=62 velocity=103 time=0
note_on channel=0 note=67 velocity=104 time=0
note_on channel=0 note=71 velocity=98 time=0
note_on channel=0 note=79 velocity=98 time=0
note_off channel=0 note=55 velocity=0 time=768
note_off channel=0 note=60 velocity=0 time=0
note_off channel=0 note=62 velocity=0 time=0
note_off channel=0 note=67 velocity=0 time=0
note_off channel=0 note=71 velocity=0 time=0
note_off channel=0 note=79 velocity=0 time=0
note_on channel=0 note=62 velocity=57 time=375
note_on channel=0 note=71 velocity=45 time=131
note_on channel=0 note=67 velocity=45 time=0
note_on channel=0 note=79 velocity=36 time=0
note_off channel=0 note=62 velocity=0 time=64
note_off channel=0 note=71 velocity=0 time=0
note_off channel=0 note=67 velocity=0 time=0
note_off channel=0 note=79 velocity=0 time=0
note_on channel=0 note=62 velocity=54 time=31
note_on channel=0 note=67 velocity=59 time=1
note_on channel=0 note=71 velocity=67 time=0
note_on channel=0 note=79 velocity=57 time=0
note_off channel=0 note=62 velocity=0 time=64
note_off channel=0 note=67 velocity=0 time=0
note_off channel=0 note=71 velocity=0 time=0
note_off channel=0 note=79 velocity=0 time=0
note_on channel=0 note=55 velocity=32 time=31
note_on channel=0 note=62 velocity=69 time=3
note_on channel=0 note=67 velocity=84 time=0
note_on channel=0 note=71 velocity=81 time=0
note_on channel=0 note=79 velocity=73 time=0
note_off channel=0 note=55 velocity=0 time=128
note_off channel=0 note=62 velocity=0 time=0
note_off channel=0 note=67 velocity=0 time=0
note_off channel=0 note=71 velocity=0 time=0
note_off channel=0 note=79 velocity=0 time=0
note_on channel=0 note=62 velocity=68 time=62
note_on channel=0 note=81 velocity=32 time=16
note_on channel=0 note=62 velocity=77 time=0
note_on channel=0 note=69 velocity=79 time=0
note_on channel=0 note=74 velocity=79 time=0
note_on channel=0 note=78 velocity=66 time=0
note_on channel=0 note=86 velocity=100 time=754
note_off channel=0 note=62 velocity=0 time=260
note_off channel=0 note=81 velocity=0 time=0
note_off channel=0 note=62 velocity=0 time=0
note_off channel=0 note=69 velocity=0 time=0
note_off channel=0 note=74 velocity=0 time=0
note_off channel=0 note=78 velocity=0 time=0
note_off channel=0 note=86 velocity=100 time=252
note_on channel=0 note=84 velocity=100 time=730
note_off channel=0 note=84 velocity=100 time=768
note_on channel=0 note=83 velocity=100 time=471
note_off channel=0 note=83 velocity=100 time=64
note_on channel=0 note=81 velocity=100 time=209
note_off channel=0 note=81 velocity=100 time=512
note_on channel=0 note=76 velocity=100 time=228
note_off channel=0 note=76 velocity=100 time=512
note_on channel=0 note=76 velocity=100 time=48
note_off channel=0 note=76 velocity=100 time=64
note_on channel=0 note=74 velocity=100 time=19
note_off channel=0 note=74 velocity=100 time=64
note_on channel=0 note=74 velocity=100 time=50
note_off channel=0 note=74 velocity=100 time=64
note_on channel=0 note=76 velocity=100 time=55
note_off channel=0 note=76 velocity=100 time=256
note_on channel=0 note=74 velocity=100 time=246
note_off channel=0 note=74 velocity=100 time=64
note_on channel=0 note=73 velocity=100 time=252
note_off channel=0 note=73 velocity=100 time=64
note_on channel=0 note=73 velocity=100 time=58
note_off channel=0 note=73 velocity=100 time=64
note_on channel=0 note=74 velocity=100 time=57
note_off channel=0 note=74 velocity=100 time=256
note_on channel=0 note=76 velocity=100 time=243
note_on channel=0 note=73 velocity=100 time=82
note_off channel=0 note=76 velocity=100 time=64
note_off channel=0 note=73 velocity=100 time=0
note_on channel=0 note=71 velocity=100 time=31
note_off channel=0 note=71 velocity=100 time=64
note_on channel=0 note=71 velocity=100 time=31
note_off channel=0 note=71 velocity=100 time=64
note_on channel=0 note=76 velocity=100 time=29
note_on channel=0 note=73 velocity=100 time=5
note_off channel=0 note=76 velocity=100 time=256
note_off channel=0 note=73 velocity=100 time=0
note_on channel=0 note=79 velocity=100 time=315
note_on channel=0 note=83 velocity=100 time=113
note_off channel=0 note=79 velocity=100 time=192
note_off channel=0 note=83 velocity=100 time=0
note_on channel=0 note=76 velocity=100 time=94
note_off channel=0 note=76 velocity=100 time=256
note_on channel=0 note=76 velocity=100 time=84
note_off channel=0 note=76 velocity=100 time=64
note_on channel=0 note=74 velocity=100 time=56
note_off channel=0 note=74 velocity=100 time=64
note_on channel=0 note=74 velocity=100 time=1
note_off channel=0 note=74 velocity=100 time=64
note_on channel=0 note=76 velocity=100 time=2
note_off channel=0 note=76 velocity=100 time=256
note_on channel=0 note=74 velocity=100 time=183
note_off channel=0 note=74 velocity=100 time=64
note_on channel=0 note=73 velocity=100 time=339
note_off channel=0 note=73 velocity=100 time=64
note_on channel=0 note=73 velocity=100 time=30
note_off channel=0 note=73 velocity=100 time=64
note_on channel=0 note=74 velocity=100 time=31
note_off channel=0 note=74 velocity=100 time=256
note_on channel=0 note=73 velocity=100 time=153
note_off channel=0 note=73 velocity=100 time=64
note_on channel=0 note=71 velocity=100 time=300
note_off channel=0 note=71 velocity=100 time=64
note_on channel=0 note=71 velocity=100 time=30
note_off channel=0 note=71 velocity=100 time=64
note_on channel=0 note=73 velocity=100 time=21
note_off channel=0 note=73 velocity=100 time=256
note_on channel=0 note=88 velocity=100 time=287
note_off channel=0 note=88 velocity=100 time=128
note_on channel=0 note=88 velocity=100 time=192
note_off channel=0 note=88 velocity=100 time=64
note_on channel=0 note=83 velocity=100 time=172
note_off channel=0 note=83 velocity=100 time=64
note_on channel=0 note=88 velocity=100 time=64
note_off channel=0 note=88 velocity=100 time=128
note_on channel=0 note=76 velocity=100 time=95
note_off channel=0 note=76 velocity=100 time=64
note_on channel=0 note=74 velocity=100 time=102
note_off channel=0 note=74 velocity=100 time=64
note_on channel=0 note=74 velocity=100 time=68
note_off channel=0 note=74 velocity=100 time=64
note_on channel=0 note=76 velocity=100 time=69
note_off channel=0 note=76 velocity=100 time=256
note_on channel=0 note=74 velocity=100 time=255
note_off channel=0 note=74 velocity=100 time=64
note_on channel=0 note=73 velocity=100 time=318
note_off channel=0 note=73 velocity=100 time=64
note_on channel=0 note=73 velocity=100 time=68
note_off channel=0 note=73 velocity=100 time=64
note_on channel=0 note=74 velocity=100 time=67
note_off channel=0 note=74 velocity=100 time=256
note_on channel=0 note=76 velocity=100 time=252
note_on channel=0 note=73 velocity=100 time=163
note_off channel=0 note=76 velocity=100 time=64
note_off channel=0 note=73 velocity=100 time=0
note_on channel=0 note=71 velocity=100 time=31
note_off channel=0 note=71 velocity=100 time=64
note_on channel=0 note=71 velocity=100 time=46
note_off channel=0 note=71 velocity=100 time=64
note_on channel=0 note=76 velocity=100 time=45
note_on channel=0 note=73 velocity=100 time=13
note_off channel=0 note=76 velocity=100 time=256
note_off channel=0 note=73 velocity=100 time=0
note_on channel=0 note=79 velocity=100 time=314
note_on channel=0 note=83 velocity=100 time=161
note_off channel=0 note=79 velocity=100 time=192
note_off channel=0 note=83 velocity=100 time=0
note_on channel=0 note=76 velocity=100 time=94
note_off channel=0 note=76 velocity=100 time=256
note_on channel=0 note=76 velocity=100 time=246
note_off channel=0 note=76 velocity=100 time=64
note_on channel=0 note=74 velocity=100 time=232
note_off channel=0 note=74 velocity=100 time=64
note_on channel=0 note=74 velocity=100 time=81
note_off channel=0 note=74 velocity=100 time=64
note_on channel=0 note=76 velocity=100 time=80
note_off channel=0 note=76 velocity=100 time=256
note_on channel=0 note=74 velocity=100 time=267
note_off channel=0 note=74 velocity=100 time=64
note_on channel=0 note=73 velocity=100 time=240
note_off channel=0 note=73 velocity=100 time=64
note_on channel=0 note=73 velocity=100 time=46
note_off channel=0 note=73 velocity=100 time=64
note_on channel=0 note=74 velocity=100 time=42
note_off channel=0 note=74 velocity=100 time=256
note_on channel=0 note=73 velocity=100 time=231
note_off channel=0 note=73 velocity=100 time=64
note_on channel=0 note=71 velocity=100 time=0
note_off channel=0 note=71 velocity=100 time=64
note_on channel=0 note=71 velocity=100 time=18
note_off channel=0 note=71 velocity=100 time=64
note_on channel=0 note=73 velocity=100 time=17
note_off channel=0 note=73 velocity=100 time=256
note_on channel=0 note=88 velocity=100 time=302
note_off channel=0 note=88 velocity=100 time=128
note_on channel=0 note=88 velocity=100 time=17
note_off channel=0 note=88 velocity=100 time=64
note_on channel=0 note=83 velocity=100 time=32
note_off channel=0 note=83 velocity=100 time=64
note_on channel=0 note=88 velocity=100 time=37
note_off channel=0 note=88 velocity=100 time=128
note_on channel=0 note=76 velocity=100 time=70
note_off channel=0 note=76 velocity=100 time=64
note_on channel=0 note=74 velocity=100 time=45
note_off channel=0 note=74 velocity=100 time=64
note_on channel=0 note=74 velocity=100 time=38
note_off channel=0 note=74 velocity=100 time=64
note_on channel=0 note=76 velocity=100 time=38
note_off channel=0 note=76 velocity=100 time=256
note_on channel=0 note=74 velocity=100 time=228
note_off channel=0 note=74 velocity=100 time=64
note_on channel=0 note=73 velocity=100 time=55
note_off channel=0 note=73 velocity=100 time=64
note_on channel=0 note=73 velocity=100 time=35
note_off channel=0 note=73 velocity=100 time=64
note_on channel=0 note=74 velocity=100 time=36
note_off channel=0 note=74 velocity=100 time=256
note_on channel=0 note=76 velocity=100 time=230
note_on channel=0 note=73 velocity=100 time=109
note_off channel=0 note=76 velocity=100 time=64
note_off channel=0 note=73 velocity=100 time=0
note_on channel=0 note=71 velocity=100 time=31
note_off channel=0 note=71 velocity=100 time=64
note_on channel=0 note=71 velocity=100 time=57
note_off channel=0 note=71 velocity=100 time=64
note_on channel=0 note=76 velocity=100 time=59
note_on channel=0 note=73 velocity=100 time=29
note_off channel=0 note=76 velocity=100 time=256
note_off channel=0 note=73 velocity=100 time=0
note_on channel=0 note=79 velocity=100 time=320
note_on channel=0 note=83 velocity=100 time=90
note_off channel=0 note=79 velocity=100 time=192
note_off channel=0 note=83 velocity=100 time=0
note_on channel=0 note=76 velocity=100 time=96
note_off channel=0 note=76 velocity=100 time=256
note_on channel=0 note=76 velocity=100 time=18
note_off channel=0 note=76 velocity=100 time=64
note_on channel=0 note=74 velocity=100 time=190
note_off channel=0 note=74 velocity=100 time=64
note_on channel=0 note=74 velocity=100 time=32
note_off channel=0 note=74 velocity=100 time=64
note_on channel=0 note=76 velocity=100 time=37
note_off channel=0 note=76 velocity=100 time=256
note_on channel=0 note=74 velocity=100 time=153
note_off channel=0 note=74 velocity=100 time=64
note_on channel=0 note=73 velocity=100 time=436
note_off channel=0 note=73 velocity=100 time=64
note_on channel=0 note=73 velocity=100 time=17
note_off channel=0 note=73 velocity=100 time=64
note_on channel=0 note=74 velocity=100 time=9
note_off channel=0 note=74 velocity=100 time=256
note_on channel=0 note=73 velocity=100 time=183
note_off channel=0 note=73 velocity=100 time=64
note_on channel=0 note=71 velocity=100 time=2
note_off channel=0 note=71 velocity=100 time=64
note_on channel=0 note=71 velocity=100 time=48
note_off channel=0 note=71 velocity=100 time=64
note_on channel=0 note=73 velocity=100 time=52
note_off channel=0 note=73 velocity=100 time=256
note_on channel=0 note=88 velocity=100 time=336
note_off channel=0 note=88 velocity=100 time=128
note_on channel=0 note=88 velocity=100 time=375
note_off channel=0 note=88 velocity=100 time=64
note_on channel=0 note=83 velocity=100 time=90
note_off channel=0 note=83 velocity=100 time=64
note_on channel=0 note=88 velocity=100 time=44
note_off channel=0 note=88 velocity=100 time=128
<meta message end_of_track time=0>
control_change channel=1 control=0 value=0 time=0
program_change channel=1 program=29 time=0
control_change channel=1 control=10 value=31 time=0
control_change channel=1 control=91 value=15 time=0
control_change channel=1 control=93 value=80 time=0
<meta message key_signature key='E' time=0>
note_on channel=1 note=52 velocity=127 time=1587
note_on channel=1 note=47 velocity=127 time=29
note_on channel=1 note=64 velocity=42 time=0
note_on channel=1 note=56 velocity=127 time=0
note_on channel=1 note=40 velocity=107 time=0
note_on channel=1 note=64 velocity=127 time=0
note_on channel=1 note=59 velocity=127 time=0
note_on channel=1 note=76 velocity=42 time=0
note_on channel=1 note=71 velocity=127 time=0
note_on channel=1 note=68 velocity=127 time=0
note_on channel=1 note=52 velocity=107 time=0
note_on channel=1 note=59 velocity=127 time=0
note_off channel=1 note=52 velocity=0 time=384
note_off channel=1 note=47 velocity=0 time=0
note_off channel=1 note=64 velocity=0 time=0
note_off channel=1 note=56 velocity=0 time=0
note_off channel=1 note=40 velocity=0 time=0
note_off channel=1 note=64 velocity=0 time=0
note_off channel=1 note=59 velocity=0 time=0
note_off channel=1 note=76 velocity=0 time=0
note_off channel=1 note=71 velocity=0 time=0
note_off channel=1 note=68 velocity=0 time=0
note_off channel=1 note=52 velocity=0 time=0
note_off channel=1 note=59 velocity=0 time=0
note_on channel=1 note=50 velocity=127 time=194
note_on channel=1 note=62 velocity=127 time=3
note_on channel=1 note=57 velocity=127 time=0
note_on channel=1 note=66 velocity=127 time=0
note_on channel=1 note=62 velocity=127 time=0
note_on channel=1 note=74 velocity=127 time=0
note_on channel=1 note=69 velocity=127 time=0
note_on channel=1 note=78 velocity=127 time=0
note_off channel=1 note=50 velocity=0 time=96
note_off channel=1 note=62 velocity=0 time=0
note_off channel=1 note=57 velocity=0 time=0
note_off channel=1 note=66 velocity=0 time=0
note_off channel=1 note=62 velocity=0 time=0
note_off channel=1 note=74 velocity=0 time=0
note_off channel=1 note=69 velocity=0 time=0
note_off channel=1 note=78 velocity=0 time=0
note_on channel=1 note=66 velocity=104 time=0
note_on channel=1 note=62 velocity=127 time=0
note_on channel=1 note=57 velocity=127 time=0
note_on channel=1 note=50 velocity=127 time=0
note_on channel=1 note=78 velocity=104 time=0
note_on channel=1 note=74 velocity=127 time=0
note_on channel=1 note=69 velocity=127 time=0
note_on channel=1 note=62 velocity=127 time=0
note_off channel=1 note=66 velocity=0 time=96
note_off channel=1 note=62 velocity=0 time=0
note_off channel=1 note=57 velocity=127 time=0
note_off channel=1 note=50 velocity=127 time=0
note_off channel=1 note=78 velocity=0 time=0
note_off channel=1 note=74 velocity=0 time=0
note_off channel=1 note=69 velocity=127 time=0
note_off channel=1 note=62 velocity=127 time=0
note_on channel=1 note=62 velocity=127 time=0
note_on channel=1 note=66 velocity=127 time=0
note_on channel=1 note=57 velocity=127 time=0
note_on channel=1 note=50 velocity=127 time=0
note_on channel=1 note=74 velocity=127 time=0
note_on channel=1 note=78 velocity=127 time=0
note_on channel=1 note=69 velocity=127 time=0
note_on channel=1 note=62 velocity=127 time=0
note_off channel=1 note=62 velocity=0 time=384
note_off channel=1 note=66 velocity=0 time=0
note_off channel=1 note=57 velocity=127 time=0
note_off channel=1 note=50 velocity=127 time=0
note_off channel=1 note=74 velocity=0 time=0
note_off channel=1 note=78 velocity=0 time=0
note_off channel=1 note=69 velocity=127 time=0
note_off channel=1 note=62 velocity=127 time=0
note_on channel=1 note=45 velocity=127 time=194
note_on channel=1 note=61 velocity=127 time=0
note_on channel=1 note=52 velocity=127 time=0
note_on channel=1 note=57 velocity=127 time=0
note_on channel=1 note=57 velocity=127 time=0
note_on channel=1 note=73 velocity=127 time=0
note_on channel=1 note=64 velocity=127 time=0
note_on channel=1 note=69 velocity=127 time=0
note_off channel=1 note=45 velocity=0 time=96
note_off channel=1 note=61 velocity=0 time=0
note_off channel=1 note=52 velocity=0 time=0
note_off channel=1 note=57 velocity=0 time=0
note_off channel=1 note=57 velocity=0 time=0
note_off channel=1 note=73 velocity=0 time=0
note_off channel=1 note=64 velocity=0 time=0
note_off channel=1 note=69 velocity=0 time=0
note_on channel=1 note=45 velocity=127 time=0
note_on channel=1 note=52 velocity=127 time=0
note_on channel=1 note=57 velocity=127 time=0
note_on channel=1 note=61 velocity=127 time=0
note_on channel=1 note=57 velocity=127 time=0
note_on channel=1 note=64 velocity=127 time=0
note_on channel=1 note=69 velocity=127 time=0
note_on channel=1 note=73 velocity=127 time=0
note_off channel=1 note=45 velocity=0 time=96
note_off channel=1 note=52 velocity=127 time=0
note_off channel=1 note=57 velocity=127 time=0
note_off channel=1 note=61 velocity=127 time=0
note_off channel=1 note=57 velocity=0 time=0
note_off channel=1 note=64 velocity=127 time=0
note_off channel=1 note=69 velocity=127 time=0
note_off channel=1 note=73 velocity=127 time=0
note_on channel=1 note=45 velocity=127 time=0
note_on channel=1 note=61 velocity=127 time=0
note_on channel=1 note=64 velocity=127 time=0
note_on channel=1 note=57 velocity=127 time=0
note_on channel=1 note=52 velocity=127 time=0
note_on channel=1 note=57 velocity=127 time=0
note_on channel=1 note=73 velocity=127 time=0
note_on channel=1 note=76 velocity=127 time=0
note_on channel=1 note=69 velocity=127 time=0
note_on channel=1 note=64 velocity=127 time=0
note_off channel=1 note=45 velocity=0 time=384
note_off channel=1 note=61 velocity=0 time=0
note_off channel=1 note=64 velocity=0 time=0
note_off channel=1 note=57 velocity=127 time=0
note_off channel=1 note=52 velocity=127 time=0
note_off channel=1 note=57 velocity=0 time=0
note_off channel=1 note=73 velocity=0 time=0
note_off channel=1 note=76 velocity=0 time=0
note_off channel=1 note=69 velocity=127 time=0
note_off channel=1 note=64 velocity=127 time=0
note_on channel=1 note=79 velocity=127 time=487
note_on channel=1 note=67 velocity=127 time=9
note_off channel=1 note=79 velocity=0 time=64
note_off channel=1 note=67 velocity=0 time=0
note_on channel=1 note=76 velocity=127 time=33
note_on channel=1 note=64 velocity=127 time=1
note_on channel=1 note=74 velocity=127 time=97
note_on channel=1 note=62 velocity=127 time=3
note_off channel=1 note=76 velocity=0 time=32
note_off channel=1 note=64 velocity=0 time=0
note_off channel=1 note=74 velocity=0 time=32
note_off channel=1 note=62 velocity=0 time=0
note_on channel=1 note=71 velocity=127 time=32
note_on channel=1 note=59 velocity=127 time=1
note_on channel=1 note=71 velocity=127 time=98
note_on channel=1 note=59 velocity=127 time=3
note_off channel=1 note=71 velocity=0 time=32
note_off channel=1 note=59 velocity=0 time=0
note_on channel=1 note=69 velocity=127 time=65
note_on channel=1 note=57 velocity=127 time=2
note_off channel=1 note=71 velocity=0 time=12
note_off channel=1 note=59 velocity=0 time=8
note_off channel=1 note=69 velocity=0 time=44
note_off channel=1 note=57 velocity=0 time=0
note_on channel=1 note=67 velocity=127 time=32
note_on channel=1 note=55 velocity=127 time=1
note_off channel=1 note=67 velocity=0 time=64
note_off channel=1 note=55 velocity=0 time=0
note_on channel=1 note=52 velocity=127 time=33
note_on channel=1 note=47 velocity=127 time=1
note_on channel=1 note=64 velocity=42 time=0
note_on channel=1 note=59 velocity=127 time=0
note_on channel=1 note=56 velocity=127 time=0
note_on channel=1 note=40 velocity=107 time=0
note_off channel=1 note=52 velocity=0 time=384
note_off channel=1 note=47 velocity=0 time=0
note_off channel=1 note=64 velocity=0 time=0
note_off channel=1 note=59 velocity=0 time=0
note_off channel=1 note=56 velocity=0 time=0
note_off channel=1 note=40 velocity=0 time=0
note_on channel=1 note=50 velocity=127 time=196
note_on channel=1 note=62 velocity=127 time=9
note_on channel=1 note=57 velocity=127 time=0
note_on channel=1 note=66 velocity=127 time=0
note_off channel=1 note=50 velocity=0 time=96
note_off channel=1 note=62 velocity=0 time=0
note_off channel=1 note=57 velocity=0 time=0
note_off channel=1 note=66 velocity=0 time=0
note_on channel=1 note=66 velocity=104 time=0
note_on channel=1 note=62 velocity=127 time=0
note_on channel=1 note=57 velocity=127 time=0
note_on channel=1 note=50 velocity=127 time=0
note_off channel=1 note=66 velocity=0 time=96
note_off channel=1 note=62 velocity=0 time=0
note_off channel=1 note=57 velocity=127 time=0
note_off channel=1 note=50 velocity=127 time=0
note_on channel=1 note=62 velocity=127 time=0
note_on channel=1 note=66 velocity=127 time=0
note_on channel=1 note=57 velocity=127 time=0
note_on channel=1 note=50 velocity=127 time=0
note_off channel=1 note=62 velocity=0 time=384
note_off channel=1 note=66 velocity=0 time=0
note_off channel=1 note=57 velocity=127 time=0
note_off channel=1 note=50 velocity=127 time=0
note_on channel=1 note=45 velocity=127 time=197
note_on channel=1 note=61 velocity=127 time=14
note_on channel=1 note=52 velocity=127 time=0
note_on channel=1 note=57 velocity=127 time=0
note_off channel=1 note=45 velocity=0 time=96
note_off channel=1 note=61 velocity=0 time=0
note_off channel=1 note=52 velocity=0 time=0
note_off channel=1 note=57 velocity=0 time=0
note_on channel=1 note=45 velocity=127 time=0
note_on channel=1 note=52 velocity=127 time=0
note_on channel=1 note=57 velocity=127 time=0
note_on channel=1 note=61 velocity=127 time=0
note_off channel=1 note=45 velocity=0 time=96
note_off channel=1 note=52 velocity=127 time=0
note_off channel=1 note=57 velocity=127 time=0
note_off channel=1 note=61 velocity=127 time=0
note_on channel=1 note=45 velocity=127 time=0
note_on channel=1 note=61 velocity=127 time=0
note_on channel=1 note=64 velocity=127 time=0
note_on channel=1 note=57 velocity=127 time=0
note_on channel=1 note=52 velocity=127 time=0
note_off channel=1 note=45 velocity=0 time=384
note_off channel=1 note=61 velocity=0 time=0
note_off channel=1 note=64 velocity=0 time=0
note_off channel=1 note=57 velocity=127 time=0
note_off channel=1 note=52 velocity=127 time=0
note_on channel=1 note=59 velocity=127 time=0
note_on channel=1 note=47 velocity=127 time=0
note_on channel=1 note=71 velocity=127 time=0
note_off channel=1 note=59 velocity=0 time=64
note_off channel=1 note=47 velocity=0 time=0
note_off channel=1 note=71 velocity=0 time=0
note_on channel=1 note=56 velocity=127 time=32
note_on channel=1 note=44 velocity=127 time=3
note_on channel=1 note=68 velocity=127 time=0
note_off channel=1 note=56 velocity=0 time=128
note_off channel=1 note=44 velocity=0 time=0
note_off channel=1 note=68 velocity=0 time=0
note_on channel=1 note=59 velocity=127 time=66
note_on channel=1 note=47 velocity=127 time=7
note_on channel=1 note=71 velocity=127 time=0
note_off channel=1 note=59 velocity=0 time=64
note_off channel=1 note=47 velocity=0 time=0
note_off channel=1 note=71 velocity=0 time=0
note_on channel=1 note=57 velocity=127 time=33
note_on channel=1 note=45 velocity=127 time=4
note_on channel=1 note=69 velocity=127 time=0
note_off channel=1 note=57 velocity=0 time=128
note_off channel=1 note=45 velocity=0 time=0
note_off channel=1 note=69 velocity=0 time=0
note_on channel=1 note=59 velocity=127 time=65
note_on channel=1 note=47 velocity=127 time=8
note_on channel=1 note=71 velocity=127 time=0
note_off channel=1 note=59 velocity=0 time=64
note_off channel=1 note=47 velocity=0 time=0
note_off channel=1 note=71 velocity=0 time=0
note_on channel=1 note=58 velocity=127 time=33
note_on channel=1 note=46 velocity=127 time=4
note_on channel=1 note=70 velocity=127 time=0
note_off channel=1 note=58 velocity=0 time=128
note_off channel=1 note=46 velocity=0 time=0
note_off channel=1 note=70 velocity=0 time=0
note_on channel=1 note=59 velocity=127 time=66
note_on channel=1 note=47 velocity=127 time=10
note_on channel=1 note=71 velocity=127 time=0
note_off channel=1 note=59 velocity=0 time=64
note_off channel=1 note=47 velocity=0 time=0
note_off channel=1 note=71 velocity=0 time=0
note_on channel=1 note=58 velocity=127 time=33
note_on channel=1 note=46 velocity=127 time=5
note_on channel=1 note=70 velocity=127 time=0
note_off channel=1 note=58 velocity=0 time=64
note_off channel=1 note=46 velocity=0 time=0
note_off channel=1 note=70 velocity=0 time=0
note_on channel=1 note=59 velocity=127 time=33
note_on channel=1 note=47 velocity=127 time=5
note_on channel=1 note=71 velocity=127 time=0
note_off channel=1 note=59 velocity=127 time=64
note_off channel=1 note=47 velocity=127 time=0
note_off channel=1 note=71 velocity=127 time=0
note_on channel=1 note=52 velocity=127 time=33
note_on channel=1 note=47 velocity=127 time=5
note_on channel=1 note=64 velocity=42 time=0
note_on channel=1 note=56 velocity=127 time=0
note_on channel=1 note=40 velocity=107 time=0
note_on channel=1 note=64 velocity=127 time=0
note_on channel=1 note=59 velocity=127 time=0
note_on channel=1 note=76 velocity=42 time=0
note_on channel=1 note=71 velocity=127 time=0
note_on channel=1 note=68 velocity=127 time=0
note_on channel=1 note=52 velocity=107 time=0
note_on channel=1 note=59 velocity=127 time=0
note_off channel=1 note=52 velocity=0 time=384
note_off channel=1 note=47 velocity=0 time=0
note_off channel=1 note=64 velocity=0 time=0
note_off channel=1 note=56 velocity=0 time=0
note_off channel=1 note=40 velocity=0 time=0
note_off channel=1 note=64 velocity=0 time=0
note_off channel=1 note=59 velocity=0 time=0
note_off channel=1 note=76 velocity=0 time=0
note_off channel=1 note=71 velocity=0 time=0
note_off channel=1 note=68 velocity=0 time=0
note_off channel=1 note=52 velocity=0 time=0
note_off channel=1 note=59 velocity=0 time=0
note_on channel=1 note=50 velocity=127 time=201
note_on channel=1 note=62 velocity=127 time=24
note_on channel=1 note=57 velocity=127 time=0
note_on channel=1 note=66 velocity=127 time=0
note_on channel=1 note=62 velocity=127 time=0
note_on channel=1 note=74 velocity=127 time=0
note_on channel=1 note=69 velocity=127 time=0
note_on channel=1 note=78 velocity=127 time=0
note_off channel=1 note=50 velocity=0 time=96
note_off channel=1 note=62 velocity=0 time=0
note_off channel=1 note=57 velocity=0 time=0
note_off channel=1 note=66 velocity=0 time=0
note_off channel=1 note=62 velocity=0 time=0
note_off channel=1 note=74 velocity=0 time=0
note_off channel=1 note=69 velocity=0 time=0
note_off channel=1 note=78 velocity=0 time=0
note_on channel=1 note=66 velocity=104 time=0
note_on channel=1 note=62 velocity=127 time=0
note_on channel=1 note=57 velocity=127 time=0
note_on channel=1 note=50 velocity=127 time=0
note_on channel=1 note=78 velocity=104 time=0
note_on channel=1 note=74 velocity=127 time=0
note_on channel=1 note=69 velocity=127 time=0
note_on channel=1 note=62 velocity=127 time=0
note_off channel=1 note=66 velocity=0 time=96
note_off channel=1 note=62 velocity=0 time=0
note_off channel=1 note=57 velocity=127 time=0
note_off channel=1 note=50 velocity=127 time=0
note_off channel=1 note=78 velocity=0 time=0
note_off channel=1 note=74 velocity=0 time=0
note_off channel=1 note=69 velocity=127 time=0
note_off channel=1 note=62 velocity=127 time=0
note_on channel=1 note=62 velocity=127 time=0
note_on channel=1 note=66 velocity=127 time=0
note_on channel=1 note=57 velocity=127 time=0
note_on channel=1 note=50 velocity=127 time=0
note_on channel=1 note=74 velocity=127 time=0
note_on channel=1 note=78 velocity=127 time=0
note_on channel=1 note=69 velocity=127 time=0
note_on channel=1 note=62 velocity=127 time=0
note_off channel=1 note=62 velocity=0 time=384
note_off channel=1 note=66 velocity=0 time=0
note_off channel=1 note=57 velocity=127 time=0
note_off channel=1 note=50 velocity=127 time=0
note_off channel=1 note=74 velocity=0 time=0
note_off channel=1 note=78 velocity=0 time=0
note_off channel=1 note=69 velocity=127 time=0
note_off channel=1 note=62 velocity=127 time=0
note_on channel=1 note=45 velocity=127 time=202
note_on channel=1 note=61 velocity=127 time=0
note_on channel=1 note=52 velocity=127 time=0
note_on channel=1 note=57 velocity=127 time=0
note_on channel=1 note=57 velocity=127 time=0
note_on channel=1 note=73 velocity=127 time=0
note_on channel=1 note=64 velocity=127 time=0
note_on channel=1 note=69 velocity=127 time=0
note_off channel=1 note=45 velocity=0 time=96
note_off channel=1 note=61 velocity=0 time=0
note_off channel=1 note=52 velocity=0 time=0
note_off channel=1 note=57 velocity=0 time=0
note_off channel=1 note=57 velocity=0 time=0
note_off channel=1 note=73 velocity=0 time=0
note_off channel=1 note=64 velocity=0 time=0
note_off channel=1 note=69 velocity=0 time=0
note_on channel=1 note=45 velocity=127 time=0
note_on channel=1 note=52 velocity=127 time=0
note_on channel=1 note=57 velocity=127 time=0
note_on channel=1 note=61 velocity=127 time=0
note_on channel=1 note=57 velocity=127 time=0
note_on channel=1 note=64 velocity=127 time=0
note_on channel=1 note=69 velocity=127 time=0
note_on channel=1 note=73 velocity=127 time=0
note_off channel=1 note=45 velocity=0 time=96
note_off channel=1 note=52 velocity=127 time=0
note_off channel=1 note=57 velocity=127 time=0
note_off channel=1 note=61 velocity=127 time=0
note_off channel=1 note=57 velocity=0 time=0
note_off channel=1 note=64 velocity=127 time=0
note_off channel=1 note=69 velocity=127 time=0
note_off channel=1 note=73 velocity=127 time=0
note_on channel=1 note=45 velocity=127 time=0
note_on channel=1 note=61 velocity=127 time=0
note_on channel=1 note=64 velocity=127 time=0
note_on channel=1 note=57 velocity=127 time=0
note_on channel=1 note=52 velocity=127 time=0
note_on channel=1 note=57 velocity=127 time=0
note_on channel=1 note=73 velocity=127 time=0
note_on channel=1 note=76 velocity=127 time=0
note_on channel=1 note=69 velocity=127 time=0
note_on channel=1 note=64 velocity=127 time=0
note_off channel=1 note=45 velocity=0 time=384
note_off channel=1 note=61 velocity=0 time=0
note_off channel=1 note=64 velocity=0 time=0
note_off channel=1 note=57 velocity=127 time=0
note_off channel=1 note=52 velocity=127 time=0
note_off channel=1 note=57 velocity=0 time=0
note_off channel=1 note=73 velocity=0 time=0
note_off channel=1 note=76 velocity=0 time=0
note_off channel=1 note=69 velocity=127 time=0
note_off channel=1 note=64 velocity=127 time=0
note_on channel=1 note=79 velocity=127 time=506
note_on channel=1 note=67 velocity=127 time=85
note_off channel=1 note=79 velocity=0 time=64
note_off channel=1 note=67 velocity=0 time=0
note_on channel=1 note=76 velocity=127 time=33
note_on channel=1 note=64 velocity=127 time=4
note_on channel=1 note=74 velocity=127 time=99
note_on channel=1 note=62 velocity=127 time=8
note_off channel=1 note=76 velocity=0 time=32
note_off channel=1 note=64 velocity=0 time=0
note_off channel=1 note=74 velocity=0 time=32
note_off channel=1 note=62 velocity=0 time=0
note_on channel=1 note=71 velocity=127 time=32
note_on channel=1 note=59 velocity=127 time=1
note_on channel=1 note=71 velocity=127 time=99
note_on channel=1 note=59 velocity=127 time=0
note_off channel=1 note=71 velocity=0 time=32
note_off channel=1 note=59 velocity=0 time=0
note_on channel=1 note=69 velocity=127 time=66
note_on channel=1 note=57 velocity=127 time=3
note_off channel=1 note=71 velocity=0 time=12
note_off channel=1 note=59 velocity=0 time=8
note_off channel=1 note=69 velocity=0 time=44
note_off channel=1 note=57 velocity=0 time=0
note_on channel=1 note=67 velocity=127 time=32
note_on channel=1 note=55 velocity=127 time=2
note_off channel=1 note=67 velocity=0 time=64
note_off channel=1 note=55 velocity=0 time=0
note_on channel=1 note=52 velocity=127 time=32
note_on channel=1 note=47 velocity=127 time=3
note_on channel=1 note=64 velocity=42 time=0
note_on channel=1 note=59 velocity=127 time=0
note_on channel=1 note=56 velocity=127 time=0
note_on channel=1 note=40 velocity=107 time=0
note_off channel=1 note=52 velocity=0 time=384
note_off channel=1 note=47 velocity=0 time=0
note_off channel=1 note=64 velocity=0 time=0
note_off channel=1 note=59 velocity=0 time=0
note_off channel=1 note=56 velocity=0 time=0
note_off channel=1 note=40 velocity=0 time=0
note_on channel=1 note=50 velocity=127 time=199
note_on channel=1 note=62 velocity=127 time=30
note_on channel=1 note=57 velocity=127 time=0
note_on channel=1 note=66 velocity=127 time=0
note_off channel=1 note=50 velocity=0 time=96
note_off channel=1 note=62 velocity=0 time=0
note_off channel=1 note=57 velocity=0 time=0
note_off channel=1 note=66 velocity=0 time=0
note_on channel=1 note=66 velocity=104 time=0
note_on channel=1 note=62 velocity=127 time=0
note_on channel=1 note=57 velocity=127 time=0
note_on channel=1 note=50 velocity=127 time=0
note_off channel=1 note=66 velocity=0 time=96
note_off channel=1 note=62 velocity=0 time=0
note_off channel=1 note=57 velocity=127 time=0
note_off channel=1 note=50 velocity=127 time=0
note_on channel=1 note=62 velocity=127 time=0
note_on channel=1 note=66 velocity=127 time=0
note_on channel=1 note=57 velocity=127 time=0
note_on channel=1 note=50 velocity=127 time=0
note_off channel=1 note=62 velocity=0 time=384
note_off channel=1 note=66 velocity=0 time=0
note_off channel=1 note=57 velocity=127 time=0
note_off channel=1 note=50 velocity=127 time=0
note_on channel=1 note=45 velocity=127 time=199
note_on channel=1 note=61 velocity=127 time=38
note_on channel=1 note=52 velocity=127 time=0
note_on channel=1 note=57 velocity=127 time=0
note_off channel=1 note=45 velocity=0 time=96
note_off channel=1 note=61 velocity=0 time=0
note_off channel=1 note=52 velocity=0 time=0
note_off channel=1 note=57 velocity=0 time=0
note_on channel=1 note=45 velocity=127 time=0
note_on channel=1 note=52 velocity=127 time=0
note_on channel=1 note=57 velocity=127 time=0
note_on channel=1 note=61 velocity=127 time=0
note_off channel=1 note=45 velocity=0 time=96
note_off channel=1 note=52 velocity=127 time=0
note_off channel=1 note=57 velocity=127 time=0
note_off channel=1 note=61 velocity=127 time=0
note_on channel=1 note=45 velocity=127 time=0
note_on channel=1 note=61 velocity=127 time=0
note_on channel=1 note=64 velocity=127 time=0
note_on channel=1 note=57 velocity=127 time=0
note_on channel=1 note=52 velocity=127 time=0
note_off channel=1 note=45 velocity=0 time=384
note_off channel=1 note=61 velocity=0 time=0
note_off channel=1 note=64 velocity=0 time=0
note_off channel=1 note=57 velocity=127 time=0
note_off channel=1 note=52 velocity=127 time=0
note_on channel=1 note=59 velocity=127 time=0
note_on channel=1 note=47 velocity=127 time=0
note_on channel=1 note=71 velocity=127 time=0
note_off channel=1 note=59 velocity=0 time=64
note_off channel=1 note=47 velocity=0 time=0
note_off channel=1 note=71 velocity=0 time=0
note_on channel=1 note=56 velocity=127 time=33
note_on channel=1 note=44 velocity=127 time=6
note_on channel=1 note=68 velocity=127 time=0
note_off channel=1 note=56 velocity=0 time=128
note_off channel=1 note=44 velocity=0 time=0
note_off channel=1 note=68 velocity=0 time=0
note_on channel=1 note=59 velocity=127 time=67
note_on channel=1 note=47 velocity=127 time=11
note_on channel=1 note=71 velocity=127 time=0
note_off channel=1 note=59 velocity=0 time=64
note_off channel=1 note=47 velocity=0 time=0
note_off channel=1 note=71 velocity=0 time=0
note_on channel=1 note=57 velocity=127 time=33
note_on channel=1 note=45 velocity=127 time=5
note_on channel=1 note=69 velocity=127 time=0
note_off channel=1 note=57 velocity=0 time=128
note_off channel=1 note=45 velocity=0 time=0
note_off channel=1 note=69 velocity=0 time=0
note_on channel=1 note=59 velocity=127 time=67
note_on channel=1 note=47 velocity=127 time=9
note_on channel=1 note=71 velocity=127 time=0
note_off channel=1 note=59 velocity=0 time=64
note_off channel=1 note=47 velocity=0 time=0
note_off channel=1 note=71 velocity=0 time=0
note_on channel=1 note=58 velocity=127 time=33
note_on channel=1 note=46 velocity=127 time=4
note_on channel=1 note=70 velocity=127 time=0
note_off channel=1 note=58 velocity=0 time=128
note_off channel=1 note=46 velocity=0 time=0
note_off channel=1 note=70 velocity=0 time=0
note_on channel=1 note=59 velocity=127 time=67
note_on channel=1 note=47 velocity=127 time=7
note_on channel=1 note=71 velocity=127 time=0
note_off channel=1 note=59 velocity=0 time=64
note_off channel=1 note=47 velocity=0 time=0
note_off channel=1 note=71 velocity=0 time=0
note_on channel=1 note=58 velocity=127 time=33
note_on channel=1 note=46 velocity=127 time=3
note_on channel=1 note=70 velocity=127 time=0
note_off channel=1 note=58 velocity=0 time=64
note_off channel=1 note=46 velocity=0 time=0
note_off channel=1 note=70 velocity=0 time=0
note_on channel=1 note=59 velocity=127 time=34
note_on channel=1 note=47 velocity=127 time=2
note_on channel=1 note=71 velocity=127 time=0
note_off channel=1 note=59 velocity=127 time=64
note_off channel=1 note=47 velocity=127 time=0
note_off channel=1 note=71 velocity=127 time=0
note_on channel=1 note=52 velocity=127 time=33
note_on channel=1 note=47 velocity=127 time=2
note_on channel=1 note=64 velocity=42 time=0
note_on channel=1 note=56 velocity=127 time=0
note_on channel=1 note=40 velocity=107 time=0
note_on channel=1 note=64 velocity=127 time=0
note_on channel=1 note=59 velocity=127 time=0
note_on channel=1 note=76 velocity=42 time=0
note_on channel=1 note=71 velocity=127 time=0
note_on channel=1 note=68 velocity=127 time=0
note_on channel=1 note=52 velocity=107 time=0
note_on channel=1 note=59 velocity=127 time=0
note_off channel=1 note=52 velocity=0 time=384
note_off channel=1 note=47 velocity=0 time=0
note_off channel=1 note=64 velocity=0 time=0
note_off channel=1 note=56 velocity=0 time=0
note_off channel=1 note=40 velocity=0 time=0
note_off channel=1 note=64 velocity=0 time=0
note_off channel=1 note=59 velocity=0 time=0
note_off channel=1 note=76 velocity=0 time=0
note_off channel=1 note=71 velocity=0 time=0
note_off channel=1 note=68 velocity=0 time=0
note_off channel=1 note=52 velocity=0 time=0
note_off channel=1 note=59 velocity=0 time=0
note_on channel=1 note=50 velocity=127 time=203
note_on channel=1 note=62 velocity=127 time=16
note_on channel=1 note=57 velocity=127 time=0
note_on channel=1 note=66 velocity=127 time=0
note_on channel=1 note=62 velocity=127 time=0
note_on channel=1 note=74 velocity=127 time=0
note_on channel=1 note=69 velocity=127 time=0
note_on channel=1 note=78 velocity=127 time=0
note_off channel=1 note=50 velocity=0 time=96
note_off channel=1 note=62 velocity=0 time=0
note_off channel=1 note=57 velocity=0 time=0
note_off channel=1 note=66 velocity=0 time=0
note_off channel=1 note=62 velocity=0 time=0
note_off channel=1 note=74 velocity=0 time=0
note_off channel=1 note=69 velocity=0 time=0
note_off channel=1 note=78 velocity=0 time=0
note_on channel=1 note=66 velocity=104 time=0
note_on channel=1 note=62 velocity=127 time=0
note_on channel=1 note=57 velocity=127 time=0
note_on channel=1 note=50 velocity=127 time=0
note_on channel=1 note=78 velocity=104 time=0
note_on channel=1 note=74 velocity=127 time=0
note_on channel=1 note=69 velocity=127 time=0
note_on channel=1 note=62 velocity=127 time=0
note_off channel=1 note=66 velocity=0 time=96
note_off channel=1 note=62 velocity=0 time=0
note_off channel=1 note=57 velocity=127 time=0
note_off channel=1 note=50 velocity=127 time=0
note_off channel=1 note=78 velocity=0 time=0
note_off channel=1 note=74 velocity=0 time=0
note_off channel=1 note=69 velocity=127 time=0
note_off channel=1 note=62 velocity=127 time=0
note_on channel=1 note=62 velocity=127 time=0
note_on channel=1 note=66 velocity=127 time=0
note_on channel=1 note=57 velocity=127 time=0
note_on channel=1 note=50 velocity=127 time=0
note_on channel=1 note=74 velocity=127 time=0
note_on channel=1 note=78 velocity=127 time=0
note_on channel=1 note=69 velocity=127 time=0
note_on channel=1 note=62 velocity=127 time=0
note_off channel=1 note=62 velocity=0 time=384
note_off channel=1 note=66 velocity=0 time=0
note_off channel=1 note=57 velocity=127 time=0
note_off channel=1 note=50 velocity=127 time=0
note_off channel=1 note=74 velocity=0 time=0
note_off channel=1 note=78 velocity=0 time=0
note_off channel=1 note=69 velocity=127 time=0
note_off channel=1 note=62 velocity=127 time=0
note_on channel=1 note=45 velocity=127 time=203
note_on channel=1 note=61 velocity=127 time=38
note_on channel=1 note=52 velocity=127 time=0
note_on channel=1 note=57 velocity=127 time=0
note_on channel=1 note=57 velocity=127 time=0
note_on channel=1 note=73 velocity=127 time=0
note_on channel=1 note=64 velocity=127 time=0
note_on channel=1 note=69 velocity=127 time=0
note_off channel=1 note=45 velocity=0 time=96
note_off channel=1 note=61 velocity=0 time=0
note_off channel=1 note=52 velocity=0 time=0
note_off channel=1 note=57 velocity=0 time=0
note_off channel=1 note=57 velocity=0 time=0
note_off channel=1 note=73 velocity=0 time=0
note_off channel=1 note=64 velocity=0 time=0
note_off channel=1 note=69 velocity=0 time=0
note_on channel=1 note=45 velocity=127 time=0
note_on channel=1 note=52 velocity=127 time=0
note_on channel=1 note=57 velocity=127 time=0
note_on channel=1 note=61 velocity=127 time=0
note_on channel=1 note=57 velocity=127 time=0
note_on channel=1 note=64 velocity=127 time=0
note_on channel=1 note=69 velocity=127 time=0
note_on channel=1 note=73 velocity=127 time=0
note_off channel=1 note=45 velocity=0 time=96
note_off channel=1 note=52 velocity=127 time=0
note_off channel=1 note=57 velocity=127 time=0
note_off channel=1 note=61 velocity=127 time=0
note_off channel=1 note=57 velocity=0 time=0
note_off channel=1 note=64 velocity=127 time=0
note_off channel=1 note=69 velocity=127 time=0
note_off channel=1 note=73 velocity=127 time=0
note_on channel=1 note=45 velocity=127 time=0
note_on channel=1 note=61 velocity=127 time=0
note_on channel=1 note=64 velocity=127 time=0
note_on channel=1 note=57 velocity=127 time=0
note_on channel=1 note=52 velocity=127 time=0
note_on channel=1 note=57 velocity=127 time=0
note_on channel=1 note=73 velocity=127 time=0
note_on channel=1 note=76 velocity=127 time=0
note_on channel=1 note=69 velocity=127 time=0
note_on channel=1 note=64 velocity=127 time=0
note_off channel=1 note=45 velocity=0 time=384
note_off channel=1 note=61 velocity=0 time=0
note_off channel=1 note=64 velocity=0 time=0
note_off channel=1 note=57 velocity=127 time=0
note_off channel=1 note=52 velocity=127 time=0
note_off channel=1 note=57 velocity=0 time=0
note_off channel=1 note=73 velocity=0 time=0
note_off channel=1 note=76 velocity=0 time=0
note_off channel=1 note=69 velocity=127 time=0
note_off channel=1 note=64 velocity=127 time=0
note_on channel=1 note=79 velocity=127 time=513
note_on channel=1 note=67 velocity=127 time=182
note_off channel=1 note=79 velocity=0 time=64
note_off channel=1 note=67 velocity=0 time=0
note_on channel=1 note=76 velocity=127 time=34
note_on channel=1 note=64 velocity=127 time=0
note_on channel=1 note=74 velocity=127 time=105
note_on channel=1 note=62 velocity=127 time=20
note_off channel=1 note=76 velocity=0 time=32
note_off channel=1 note=64 velocity=0 time=0
note_off channel=1 note=74 velocity=0 time=32
note_off channel=1 note=62 velocity=0 time=0
note_on channel=1 note=71 velocity=127 time=35
note_on channel=1 note=59 velocity=127 time=13
note_on channel=1 note=71 velocity=127 time=104
note_on channel=1 note=59 velocity=127 time=52
note_off channel=1 note=71 velocity=0 time=32
note_off channel=1 note=59 velocity=0 time=0
note_on channel=1 note=69 velocity=127 time=68
note_on channel=1 note=57 velocity=127 time=41
note_off channel=1 note=71 velocity=0 time=12
note_off channel=1 note=59 velocity=0 time=8
note_off channel=1 note=69 velocity=0 time=44
note_off channel=1 note=57 velocity=0 time=0
note_on channel=1 note=67 velocity=127 time=34
note_on channel=1 note=55 velocity=127 time=21
note_off channel=1 note=67 velocity=0 time=64
note_off channel=1 note=55 velocity=0 time=0
note_on channel=1 note=52 velocity=127 time=34
note_on channel=1 note=47 velocity=127 time=21
note_on channel=1 note=64 velocity=42 time=0
note_on channel=1 note=59 velocity=127 time=0
note_on channel=1 note=56 velocity=127 time=0
note_on channel=1 note=40 velocity=107 time=0
note_off channel=1 note=52 velocity=0 time=384
note_off channel=1 note=47 velocity=0 time=0
note_off channel=1 note=64 velocity=0 time=0
note_off channel=1 note=59 velocity=0 time=0
note_off channel=1 note=56 velocity=0 time=0
note_off channel=1 note=40 velocity=0 time=0
note_on channel=1 note=50 velocity=127 time=205
note_on channel=1 note=62 velocity=127 time=116
note_on channel=1 note=57 velocity=127 time=0
note_on channel=1 note=66 velocity=127 time=0
note_off channel=1 note=50 velocity=0 time=96
note_off channel=1 note=62 velocity=0 time=0
note_off channel=1 note=57 velocity=0 time=0
note_off channel=1 note=66 velocity=0 time=0
note_on channel=1 note=66 velocity=104 time=0
note_on channel=1 note=62 velocity=127 time=0
note_on channel=1 note=57 velocity=127 time=0
note_on channel=1 note=50 velocity=127 time=0
note_off channel=1 note=66 velocity=0 time=96
note_off channel=1 note=62 velocity=0 time=0
note_off channel=1 note=57 velocity=127 time=0
note_off channel=1 note=50 velocity=127 time=0
note_on channel=1 note=62 velocity=127 time=0
note_on channel=1 note=66 velocity=127 time=0
note_on channel=1 note=57 velocity=127 time=0
note_on channel=1 note=50 velocity=127 time=0
note_off channel=1 note=62 velocity=0 time=384
note_off channel=1 note=66 velocity=0 time=0
note_off channel=1 note=57 velocity=127 time=0
note_off channel=1 note=50 velocity=127 time=0
note_on channel=1 note=45 velocity=127 time=202
note_on channel=1 note=61 velocity=127 time=81
note_on channel=1 note=52 velocity=127 time=0
note_on channel=1 note=57 velocity=127 time=0
note_off channel=1 note=45 velocity=0 time=96
note_off channel=1 note=61 velocity=0 time=0
note_off channel=1 note=52 velocity=0 time=0
note_off channel=1 note=57 velocity=0 time=0
note_on channel=1 note=45 velocity=127 time=0
note_on channel=1 note=52 velocity=127 time=0
note_on channel=1 note=57 velocity=127 time=0
note_on channel=1 note=61 velocity=127 time=0
note_off channel=1 note=45 velocity=0 time=96
note_off channel=1 note=52 velocity=127 time=0
note_off channel=1 note=57 velocity=127 time=0
note_off channel=1 note=61 velocity=127 time=0
note_on channel=1 note=45 velocity=127 time=0
note_on channel=1 note=61 velocity=127 time=0
note_on channel=1 note=64 velocity=127 time=0
note_on channel=1 note=57 velocity=127 time=0
note_on channel=1 note=52 velocity=127 time=0
note_off channel=1 note=45 velocity=0 time=384
note_off channel=1 note=61 velocity=0 time=0
note_off channel=1 note=64 velocity=0 time=0
note_off channel=1 note=57 velocity=127 time=0
note_off channel=1 note=52 velocity=127 time=0
note_on channel=1 note=59 velocity=127 time=0
note_on channel=1 note=47 velocity=127 time=0
note_on channel=1 note=71 velocity=127 time=0
note_off channel=1 note=59 velocity=0 time=64
note_off channel=1 note=47 velocity=0 time=0
note_off channel=1 note=71 velocity=0 time=0
note_on channel=1 note=56 velocity=127 time=33
note_on channel=1 note=44 velocity=127 time=10
note_on channel=1 note=68 velocity=127 time=0
note_off channel=1 note=56 velocity=0 time=128
note_off channel=1 note=44 velocity=0 time=0
note_off channel=1 note=68 velocity=0 time=0
note_on channel=1 note=59 velocity=127 time=66
note_on channel=1 note=47 velocity=127 time=19
note_on channel=1 note=71 velocity=127 time=0
note_off channel=1 note=59 velocity=0 time=64
note_off channel=1 note=47 velocity=0 time=0
note_off channel=1 note=71 velocity=0 time=0
note_on channel=1 note=57 velocity=127 time=33
note_on channel=1 note=45 velocity=127 time=8
note_on channel=1 note=69 velocity=127 time=0
note_off channel=1 note=57 velocity=0 time=128
note_off channel=1 note=45 velocity=0 time=0
note_off channel=1 note=69 velocity=0 time=0
note_on channel=1 note=59 velocity=127 time=66
note_on channel=1 note=47 velocity=127 time=15
note_on channel=1 note=71 velocity=127 time=0
note_off channel=1 note=59 velocity=0 time=64
note_off channel=1 note=47 velocity=0 time=0
note_off channel=1 note=71 velocity=0 time=0
note_on channel=1 note=58 velocity=127 time=32
note_on channel=1 note=46 velocity=127 time=6
note_on channel=1 note=70 velocity=127 time=0
note_off channel=1 note=58 velocity=0 time=128
note_off channel=1 note=46 velocity=0 time=0
note_off channel=1 note=70 velocity=0 time=0
note_on channel=1 note=59 velocity=127 time=66
note_on channel=1 note=47 velocity=127 time=12
note_on channel=1 note=71 velocity=127 time=0
note_off channel=1 note=59 velocity=0 time=64
note_off channel=1 note=47 velocity=0 time=0
note_off channel=1 note=71 velocity=0 time=0
note_on channel=1 note=58 velocity=127 time=32
note_on channel=1 note=46 velocity=127 time=5
note_on channel=1 note=70 velocity=127 time=0
note_off channel=1 note=58 velocity=0 time=64
note_off channel=1 note=46 velocity=0 time=0
note_off channel=1 note=70 velocity=0 time=0
note_on channel=1 note=59 velocity=127 time=32
note_on channel=1 note=47 velocity=127 time=4
note_on channel=1 note=71 velocity=127 time=0
note_off channel=1 note=59 velocity=127 time=64
note_off channel=1 note=47 velocity=127 time=0
note_off channel=1 note=71 velocity=127 time=0
note_on channel=1 note=69 velocity=127 time=29
note_on channel=1 note=76 velocity=127 time=3
note_off channel=1 note=69 velocity=0 time=4
note_off channel=1 note=76 velocity=0 time=0
note_on channel=1 note=69 velocity=60 time=223
note_on channel=1 note=64 velocity=127 time=2
note_on channel=1 note=81 velocity=60 time=0
note_on channel=1 note=76 velocity=127 time=0
note_on channel=1 note=57 velocity=127 time=16
note_on channel=1 note=69 velocity=127 time=1
note_off channel=1 note=69 velocity=0 time=188
note_off channel=1 note=81 velocity=0 time=0
note_off channel=1 note=64 velocity=0 time=8
note_off channel=1 note=76 velocity=0 time=0
note_off channel=1 note=57 velocity=0 time=84
note_off channel=1 note=69 velocity=0 time=0
note_on channel=1 note=59 velocity=127 time=0
note_on channel=1 note=71 velocity=127 time=0
note_off channel=1 note=59 velocity=0 time=16
note_off channel=1 note=71 velocity=0 time=0
note_on channel=1 note=52 velocity=127 time=3
note_on channel=1 note=59 velocity=127 time=0
note_on channel=1 note=64 velocity=127 time=0
note_on channel=1 note=71 velocity=127 time=0
note_off channel=1 note=59 velocity=0 time=108
note_off channel=1 note=71 velocity=0 time=0
note_on channel=1 note=59 velocity=127 time=70
note_on channel=1 note=71 velocity=127 time=5
note_on channel=1 note=66 velocity=127 time=3
note_on channel=1 note=71 velocity=77 time=0
note_on channel=1 note=78 velocity=127 time=0
note_on channel=1 note=83 velocity=77 time=0
note_off channel=1 note=52 velocity=0 time=44
note_off channel=1 note=64 velocity=0 time=0
note_off channel=1 note=59 velocity=0 time=228
note_off channel=1 note=71 velocity=0 time=0
note_off channel=1 note=66 velocity=0 time=60
note_off channel=1 note=78 velocity=0 time=0
note_off channel=1 note=71 velocity=0 time=4
note_off channel=1 note=83 velocity=0 time=0
note_on channel=1 note=69 velocity=45 time=0
note_on channel=1 note=81 velocity=45 time=0
note_on channel=1 note=64 velocity=127 time=12
note_on channel=1 note=76 velocity=127 time=1
note_on channel=1 note=57 velocity=127 time=20
note_on channel=1 note=69 velocity=127 time=1
note_off channel=1 note=64 velocity=0 time=112
note_off channel=1 note=76 velocity=0 time=0
note_off channel=1 note=69 velocity=0 time=8
note_off channel=1 note=81 velocity=0 time=0
note_on channel=1 note=67 velocity=40 time=0
note_on channel=1 note=79 velocity=40 time=0
note_off channel=1 note=67 velocity=0 time=76
note_off channel=1 note=79 velocity=0 time=0
note_on channel=1 note=66 velocity=127 time=3
note_on channel=1 note=67 velocity=103 time=0
note_on channel=1 note=78 velocity=127 time=0
note_on channel=1 note=79 velocity=103 time=0
note_off channel=1 note=57 velocity=0 time=20
note_off channel=1 note=69 velocity=0 time=0
note_off channel=1 note=67 velocity=0 time=0
note_off channel=1 note=79 velocity=0 time=0
note_on channel=1 note=59 velocity=127 time=0
note_on channel=1 note=71 velocity=100 time=0
note_on channel=1 note=71 velocity=127 time=0
note_on channel=1 note=83 velocity=100 time=0
note_off channel=1 note=59 velocity=0 time=112
note_off channel=1 note=71 velocity=0 time=0
note_off channel=1 note=71 velocity=0 time=0
note_off channel=1 note=83 velocity=0 time=0
note_off channel=1 note=66 velocity=0 time=4
note_off channel=1 note=78 velocity=0 time=0
note_on channel=1 note=69 velocity=60 time=346
note_on channel=1 note=64 velocity=127 time=29
note_on channel=1 note=81 velocity=60 time=0
note_on channel=1 note=76 velocity=127 time=0
note_on channel=1 note=57 velocity=127 time=16
note_on channel=1 note=69 velocity=127 time=1
note_off channel=1 note=69 velocity=0 time=188
note_off channel=1 note=81 velocity=0 time=0
note_off channel=1 note=64 velocity=0 time=8
note_off channel=1 note=76 velocity=0 time=0
note_off channel=1 note=57 velocity=0 time=84
note_off channel=1 note=69 velocity=0 time=0
note_on channel=1 note=59 velocity=127 time=0
note_on channel=1 note=71 velocity=127 time=0
note_off channel=1 note=59 velocity=0 time=16
note_off channel=1 note=71 velocity=0 time=0
note_on channel=1 note=52 velocity=127 time=4
note_on channel=1 note=59 velocity=127 time=0
note_on channel=1 note=64 velocity=127 time=0
note_on channel=1 note=71 velocity=127 time=0
note_off channel=1 note=59 velocity=0 time=108
note_off channel=1 note=71 velocity=0 time=0
note_on channel=1 note=59 velocity=127 time=70
note_on channel=1 note=71 velocity=127 time=5
note_on channel=1 note=66 velocity=127 time=3
note_on channel=1 note=71 velocity=77 time=0
note_on channel=1 note=78 velocity=127 time=0
note_on channel=1 note=83 velocity=77 time=0
note_off channel=1 note=52 velocity=0 time=44
note_off channel=1 note=64 velocity=0 time=0
note_off channel=1 note=59 velocity=0 time=228
note_off channel=1 note=71 velocity=0 time=0
note_off channel=1 note=66 velocity=0 time=60
note_off channel=1 note=78 velocity=0 time=0
note_off channel=1 note=71 velocity=0 time=4
note_off channel=1 note=83 velocity=0 time=0
note_on channel=1 note=69 velocity=45 time=0
note_on channel=1 note=81 velocity=45 time=0
note_on channel=1 note=64 velocity=127 time=12
note_on channel=1 note=76 velocity=127 time=0
note_on channel=1 note=57 velocity=127 time=20
note_on channel=1 note=69 velocity=127 time=1
note_off channel=1 note=64 velocity=0 time=112
note_off channel=1 note=76 velocity=0 time=0
note_off channel=1 note=69 velocity=0 time=8
note_off channel=1 note=81 velocity=0 time=0
note_on channel=1 note=67 velocity=40 time=0
note_on channel=1 note=79 velocity=40 time=0
note_off channel=1 note=67 velocity=0 time=76
note_off channel=1 note=79 velocity=0 time=0
note_on channel=1 note=66 velocity=127 time=3
note_on channel=1 note=67 velocity=103 time=0
note_on channel=1 note=78 velocity=127 time=0
note_on channel=1 note=79 velocity=103 time=0
note_off channel=1 note=57 velocity=0 time=20
note_off channel=1 note=69 velocity=0 time=0
note_off channel=1 note=67 velocity=0 time=0
note_off channel=1 note=79 velocity=0 time=0
note_on channel=1 note=59 velocity=127 time=0
note_on channel=1 note=71 velocity=100 time=0
note_on channel=1 note=71 velocity=127 time=0
note_on channel=1 note=83 velocity=100 time=0
note_off channel=1 note=59 velocity=0 time=112
note_off channel=1 note=71 velocity=0 time=0
note_off channel=1 note=71 velocity=0 time=0
note_off channel=1 note=83 velocity=0 time=0
note_off channel=1 note=66 velocity=0 time=4
note_off channel=1 note=78 velocity=0 time=0
note_on channel=1 note=74 velocity=32 time=273
note_on channel=1 note=67 velocity=127 time=59
note_on channel=1 note=79 velocity=127 time=13
note_on channel=1 note=62 velocity=127 time=39
note_off channel=1 note=79 velocity=0 time=112
note_off channel=1 note=74 velocity=0 time=8
note_off channel=1 note=67 velocity=0 time=120
note_off channel=1 note=62 velocity=0 time=32
note_on channel=1 note=62 velocity=127 time=11
note_on channel=1 note=78 velocity=127 time=17
note_on channel=1 note=74 velocity=127 time=3
note_on channel=1 note=69 velocity=127 time=12
note_off channel=1 note=69 velocity=0 time=108
note_off channel=1 note=78 velocity=0 time=8
note_off channel=1 note=74 velocity=0 time=12
note_off channel=1 note=62 velocity=0 time=120
note_on channel=1 note=62 velocity=127 time=6
note_on channel=1 note=57 velocity=127 time=13
note_on channel=1 note=69 velocity=127 time=15
note_off channel=1 note=62 velocity=0 time=28
note_on channel=1 note=64 velocity=127 time=3
note_off channel=1 note=57 velocity=0 time=228
note_off channel=1 note=64 velocity=0 time=36
note_on channel=1 note=55 velocity=127 time=3
note_on channel=1 note=60 velocity=127 time=17
note_off channel=1 note=60 velocity=0 time=0
note_off channel=1 note=55 velocity=0 time=116
note_off channel=1 note=69 velocity=0 time=12
note_on channel=1 note=69 velocity=127 time=8
note_on channel=1 note=57 velocity=127 time=14
note_on channel=1 note=64 velocity=127 time=11
note_on channel=1 note=57 velocity=127 time=295
note_off channel=1 note=69 velocity=0 time=80
note_off channel=1 note=64 velocity=0 time=4
note_on channel=1 note=79 velocity=127 time=176
note_off channel=1 note=57 velocity=0 time=4
note_on channel=1 note=74 velocity=127 time=31
note_on channel=1 note=55 velocity=127 time=1
note_on channel=1 note=62 velocity=127 time=8
note_on channel=1 note=67 velocity=127 time=32
note_off channel=1 note=55 velocity=0 time=96
note_off channel=1 note=74 velocity=0 time=20
note_off channel=1 note=79 velocity=0 time=4
note_off channel=1 note=57 velocity=0 time=128
note_off channel=1 note=67 velocity=0 time=0
note_on channel=1 note=78 velocity=127 time=44
note_on channel=1 note=74 velocity=127 time=12
note_on channel=1 note=69 velocity=127 time=0
note_on channel=1 note=62 velocity=127 time=4
note_off channel=1 note=62 velocity=127 time=128
note_off channel=1 note=69 velocity=0 time=20
note_off channel=1 note=78 velocity=0 time=20
note_off channel=1 note=74 velocity=0 time=24
note_off channel=1 note=62 velocity=0 time=84
note_on channel=1 note=64 velocity=127 time=1
note_on channel=1 note=57 velocity=127 time=12
note_on channel=1 note=69 velocity=127 time=29
note_off channel=1 note=64 velocity=0 time=276
note_off channel=1 note=57 velocity=0 time=0
note_on channel=1 note=55 velocity=127 time=21
note_off channel=1 note=55 velocity=0 time=144
note_off channel=1 note=69 velocity=0 time=8
note_on channel=1 note=69 velocity=127 time=12
note_on channel=1 note=58 velocity=127 time=2
note_on channel=1 note=65 velocity=127 time=13
note_off channel=1 note=58 velocity=0 time=60
note_on channel=1 note=57 velocity=127 time=4
note_off channel=1 note=65 velocity=0 time=24
note_on channel=1 note=64 velocity=127 time=3
note_off channel=1 note=69 velocity=0 time=376
note_off channel=1 note=64 velocity=0 time=0
note_on channel=1 note=69 velocity=60 time=39
note_on channel=1 note=64 velocity=127 time=11
note_on channel=1 note=81 velocity=60 time=0
note_on channel=1 note=76 velocity=127 time=0
note_on channel=1 note=57 velocity=127 time=16
note_on channel=1 note=69 velocity=127 time=4
note_off channel=1 note=57 velocity=0 time=16
note_off channel=1 note=69 velocity=0 time=172
note_off channel=1 note=81 velocity=0 time=0
note_off channel=1 note=64 velocity=0 time=8
note_off channel=1 note=76 velocity=0 time=0
note_off channel=1 note=57 velocity=0 time=84
note_off channel=1 note=69 velocity=0 time=0
note_on channel=1 note=59 velocity=127 time=0
note_on channel=1 note=71 velocity=127 time=0
note_off channel=1 note=59 velocity=0 time=16
note_off channel=1 note=71 velocity=0 time=0
note_on channel=1 note=52 velocity=127 time=4
note_on channel=1 note=59 velocity=127 time=1
note_on channel=1 note=64 velocity=127 time=0
note_on channel=1 note=71 velocity=127 time=0
note_off channel=1 note=59 velocity=0 time=108
note_off channel=1 note=71 velocity=0 time=0
note_on channel=1 note=59 velocity=127 time=72
note_on channel=1 note=71 velocity=127 time=16
note_on channel=1 note=66 velocity=127 time=4
note_on channel=1 note=71 velocity=77 time=0
note_on channel=1 note=78 velocity=127 time=0
note_on channel=1 note=83 velocity=77 time=0
note_off channel=1 note=52 velocity=0 time=44
note_off channel=1 note=64 velocity=0 time=0
note_off channel=1 note=59 velocity=0 time=228
note_off channel=1 note=71 velocity=0 time=0
note_off channel=1 note=66 velocity=0 time=60
note_off channel=1 note=78 velocity=0 time=0
note_off channel=1 note=71 velocity=0 time=4
note_off channel=1 note=83 velocity=0 time=0
note_on channel=1 note=69 velocity=45 time=0
note_on channel=1 note=81 velocity=45 time=0
note_on channel=1 note=64 velocity=127 time=12
note_on channel=1 note=76 velocity=127 time=2
note_on channel=1 note=57 velocity=127 time=21
note_on channel=1 note=69 velocity=127 time=3
note_off channel=1 note=64 velocity=0 time=112
note_off channel=1 note=76 velocity=0 time=0
note_off channel=1 note=69 velocity=0 time=8
note_off channel=1 note=81 velocity=0 time=0
note_on channel=1 note=67 velocity=40 time=0
note_on channel=1 note=79 velocity=40 time=0
note_off channel=1 note=67 velocity=0 time=76
note_off channel=1 note=79 velocity=0 time=0
note_on channel=1 note=66 velocity=127 time=4
note_on channel=1 note=67 velocity=103 time=0
note_on channel=1 note=78 velocity=127 time=0
note_on channel=1 note=79 velocity=103 time=0
note_off channel=1 note=57 velocity=0 time=20
note_off channel=1 note=69 velocity=0 time=0
note_off channel=1 note=67 velocity=0 time=0
note_off channel=1 note=79 velocity=0 time=0
note_on channel=1 note=59 velocity=127 time=0
note_on channel=1 note=71 velocity=100 time=0
note_on channel=1 note=71 velocity=127 time=0
note_on channel=1 note=83 velocity=100 time=0
note_off channel=1 note=59 velocity=0 time=112
note_off channel=1 note=71 velocity=0 time=0
note_off channel=1 note=71 velocity=0 time=0
note_off channel=1 note=83 velocity=0 time=0
note_off channel=1 note=66 velocity=0 time=4
note_off channel=1 note=78 velocity=0 time=0
note_on channel=1 note=69 velocity=60 time=359
note_on channel=1 note=64 velocity=127 time=52
note_on channel=1 note=81 velocity=60 time=0
note_on channel=1 note=76 velocity=127 time=0
note_on channel=1 note=57 velocity=127 time=17
note_on channel=1 note=69 velocity=127 time=6
note_off channel=1 note=69 velocity=0 time=188
note_off channel=1 note=81 velocity=0 time=0
note_off channel=1 note=64 velocity=0 time=8
note_off channel=1 note=76 velocity=0 time=0
note_off channel=1 note=57 velocity=0 time=84
note_off channel=1 note=69 velocity=0 time=0
note_on channel=1 note=59 velocity=127 time=0
note_on channel=1 note=71 velocity=127 time=0
note_off channel=1 note=59 velocity=0 time=16
note_off channel=1 note=71 velocity=0 time=0
note_on channel=1 note=52 velocity=127 time=3
note_on channel=1 note=59 velocity=127 time=1
note_on channel=1 note=64 velocity=127 time=0
note_on channel=1 note=71 velocity=127 time=0
note_off channel=1 note=59 velocity=0 time=108
note_off channel=1 note=71 velocity=0 time=0
note_on channel=1 note=59 velocity=127 time=72
note_on channel=1 note=71 velocity=127 time=29
note_on channel=1 note=66 velocity=127 time=4
note_on channel=1 note=71 velocity=77 time=2
note_on channel=1 note=78 velocity=127 time=0
note_on channel=1 note=83 velocity=77 time=0
note_off channel=1 note=52 velocity=0 time=44
note_off channel=1 note=64 velocity=0 time=0
note_off channel=1 note=59 velocity=0 time=228
note_off channel=1 note=71 velocity=0 time=0
note_off channel=1 note=66 velocity=0 time=60
note_off channel=1 note=78 velocity=0 time=0
note_off channel=1 note=71 velocity=0 time=4
note_off channel=1 note=83 velocity=0 time=0
note_on channel=1 note=69 velocity=45 time=0
note_on channel=1 note=81 velocity=45 time=0
note_on channel=1 note=64 velocity=127 time=12
note_on channel=1 note=76 velocity=127 time=5
note_on channel=1 note=57 velocity=127 time=20
note_on channel=1 note=69 velocity=127 time=8
note_off channel=1 note=64 velocity=0 time=112
note_off channel=1 note=76 velocity=0 time=0
note_off channel=1 note=69 velocity=0 time=8
note_off channel=1 note=81 velocity=0 time=0
note_on channel=1 note=67 velocity=40 time=0
note_on channel=1 note=79 velocity=40 time=0
note_off channel=1 note=67 velocity=0 time=76
note_off channel=1 note=79 velocity=0 time=0
note_on channel=1 note=66 velocity=127 time=4
note_on channel=1 note=67 velocity=103 time=1
note_on channel=1 note=78 velocity=127 time=0
note_on channel=1 note=79 velocity=103 time=0
note_off channel=1 note=57 velocity=0 time=20
note_off channel=1 note=69 velocity=0 time=0
note_off channel=1 note=67 velocity=0 time=0
note_off channel=1 note=79 velocity=0 time=0
note_on channel=1 note=59 velocity=127 time=0
note_on channel=1 note=71 velocity=100 time=0
note_on channel=1 note=71 velocity=127 time=0
note_on channel=1 note=83 velocity=100 time=0
note_off channel=1 note=59 velocity=0 time=112
note_off channel=1 note=71 velocity=0 time=0
note_off channel=1 note=71 velocity=0 time=0
note_off channel=1 note=83 velocity=0 time=0
note_off channel=1 note=66 velocity=0 time=4
note_off channel=1 note=78 velocity=0 time=0
note_on channel=1 note=50 velocity=101 time=126
note_on channel=1 note=55 velocity=127 time=48
note_on channel=1 note=67 velocity=119 time=0
note_on channel=1 note=62 velocity=127 time=0
note_on channel=1 note=59 velocity=127 time=0
note_off channel=1 note=50 velocity=0 time=192
note_off channel=1 note=55 velocity=0 time=0
note_off channel=1 note=67 velocity=0 time=0
note_off channel=1 note=62 velocity=0 time=0
note_off channel=1 note=59 velocity=0 time=0
note_on channel=1 note=50 velocity=101 time=101
note_on channel=1 note=55 velocity=127 time=32
note_on channel=1 note=67 velocity=119 time=0
note_on channel=1 note=62 velocity=127 time=0
note_on channel=1 note=59 velocity=127 time=0
note_off channel=1 note=50 velocity=0 time=192
note_off channel=1 note=55 velocity=0 time=0
note_off channel=1 note=67 velocity=0 time=0
note_off channel=1 note=62 velocity=0 time=0
note_off channel=1 note=59 velocity=0 time=0
note_on channel=1 note=50 velocity=101 time=100
note_on channel=1 note=55 velocity=127 time=28
note_on channel=1 note=67 velocity=119 time=0
note_on channel=1 note=62 velocity=127 time=0
note_on channel=1 note=59 velocity=127 time=0
note_off channel=1 note=50 velocity=0 time=192
note_off channel=1 note=55 velocity=0 time=0
note_off channel=1 note=67 velocity=0 time=0
note_off channel=1 note=62 velocity=0 time=0
note_off channel=1 note=59 velocity=0 time=0
note_on channel=1 note=50 velocity=72 time=100
note_on channel=1 note=55 velocity=127 time=25
note_on channel=1 note=59 velocity=127 time=0
note_on channel=1 note=62 velocity=87 time=0
note_on channel=1 note=67 velocity=87 time=0
note_off channel=1 note=50 velocity=0 time=64
note_off channel=1 note=55 velocity=0 time=0
note_off channel=1 note=59 velocity=0 time=0
note_off channel=1 note=62 velocity=0 time=0
note_off channel=1 note=67 velocity=0 time=0
note_on channel=1 note=59 velocity=52 time=33
note_on channel=1 note=67 velocity=87 time=7
note_on channel=1 note=49 velocity=56 time=0
note_off channel=1 note=59 velocity=0 time=64
note_off channel=1 note=67 velocity=0 time=0
note_off channel=1 note=49 velocity=0 time=0
note_on channel=1 note=50 velocity=72 time=33
note_on channel=1 note=59 velocity=127 time=7
note_on channel=1 note=55 velocity=127 time=0
note_on channel=1 note=62 velocity=92 time=0
note_on channel=1 note=67 velocity=95 time=0
note_off channel=1 note=50 velocity=0 time=64
note_off channel=1 note=59 velocity=0 time=0
note_off channel=1 note=55 velocity=0 time=0
note_off channel=1 note=62 velocity=0 time=0
note_off channel=1 note=67 velocity=0 time=0
note_on channel=1 note=50 velocity=85 time=33
note_on channel=1 note=55 velocity=127 time=6
note_on channel=1 note=59 velocity=127 time=0
note_on channel=1 note=62 velocity=88 time=0
note_on channel=1 note=67 velocity=84 time=0
note_off channel=1 note=50 velocity=0 time=128
note_off channel=1 note=55 velocity=0 time=0
note_off channel=1 note=59 velocity=0 time=0
note_off channel=1 note=62 velocity=0 time=0
note_off channel=1 note=67 velocity=0 time=0
note_on channel=1 note=50 velocity=91 time=66
note_on channel=1 note=55 velocity=127 time=11
note_on channel=1 note=59 velocity=127 time=0
note_on channel=1 note=62 velocity=119 time=0
note_on channel=1 note=67 velocity=127 time=0
note_off channel=1 note=50 velocity=0 time=128
note_off channel=1 note=55 velocity=0 time=0
note_off channel=1 note=59 velocity=0 time=0
note_off channel=1 note=62 velocity=0 time=0
note_off channel=1 note=67 velocity=0 time=0
note_on channel=1 note=50 velocity=127 time=66
note_on channel=1 note=66 velocity=127 time=7
note_on channel=1 note=57 velocity=127 time=0
note_on channel=1 note=62 velocity=127 time=0
note_off channel=1 note=50 velocity=0 time=192
note_off channel=1 note=66 velocity=0 time=0
note_off channel=1 note=57 velocity=0 time=0
note_off channel=1 note=62 velocity=0 time=0
note_on channel=1 note=50 velocity=127 time=99
note_on channel=1 note=62 velocity=127 time=4
note_on channel=1 note=66 velocity=127 time=0
note_on channel=1 note=57 velocity=127 time=0
note_off channel=1 note=50 velocity=0 time=192
note_off channel=1 note=62 velocity=0 time=0
note_off channel=1 note=66 velocity=0 time=0
note_off channel=1 note=57 velocity=0 time=0
note_on channel=1 note=50 velocity=127 time=99
note_on channel=1 note=62 velocity=127 time=3
note_on channel=1 note=66 velocity=127 time=0
note_on channel=1 note=57 velocity=127 time=0
note_off channel=1 note=50 velocity=0 time=512
note_off channel=1 note=62 velocity=0 time=0
note_off channel=1 note=66 velocity=0 time=0
note_off channel=1 note=57 velocity=0 time=0
note_on channel=1 note=52 velocity=127 time=466
note_on channel=1 note=47 velocity=127 time=158
note_on channel=1 note=64 velocity=42 time=0
note_on channel=1 note=56 velocity=127 time=0
note_on channel=1 note=40 velocity=107 time=0
note_on channel=1 note=64 velocity=127 time=0
note_on channel=1 note=59 velocity=127 time=0
note_on channel=1 note=76 velocity=42 time=0
note_on channel=1 note=71 velocity=127 time=0
note_on channel=1 note=68 velocity=127 time=0
note_on channel=1 note=52 velocity=107 time=0
note_on channel=1 note=59 velocity=127 time=0
note_off channel=1 note=52 velocity=0 time=384
note_off channel=1 note=47 velocity=0 time=0
note_off channel=1 note=64 velocity=0 time=0
note_off channel=1 note=56 velocity=0 time=0
note_off channel=1 note=40 velocity=0 time=0
note_off channel=1 note=64 velocity=0 time=0
note_off channel=1 note=59 velocity=0 time=0
note_off channel=1 note=76 velocity=0 time=0
note_off channel=1 note=71 velocity=0 time=0
note_off channel=1 note=68 velocity=0 time=0
note_off channel=1 note=52 velocity=0 time=0
note_off channel=1 note=59 velocity=0 time=0
note_on channel=1 note=50 velocity=127 time=202
note_on channel=1 note=62 velocity=127 time=140
note_on channel=1 note=57 velocity=127 time=0
note_on channel=1 note=66 velocity=127 time=0
note_on channel=1 note=62 velocity=127 time=0
note_on channel=1 note=74 velocity=127 time=0
note_on channel=1 note=69 velocity=127 time=0
note_on channel=1 note=78 velocity=127 time=0
note_off channel=1 note=50 velocity=0 time=96
note_off channel=1 note=62 velocity=0 time=0
note_off channel=1 note=57 velocity=0 time=0
note_off channel=1 note=66 velocity=0 time=0
note_off channel=1 note=62 velocity=0 time=0
note_off channel=1 note=74 velocity=0 time=0
note_off channel=1 note=69 velocity=0 time=0
note_off channel=1 note=78 velocity=0 time=0
note_on channel=1 note=66 velocity=104 time=0
note_on channel=1 note=62 velocity=127 time=0
note_on channel=1 note=57 velocity=127 time=0
note_on channel=1 note=50 velocity=127 time=0
note_on channel=1 note=78 velocity=104 time=0
note_on channel=1 note=74 velocity=127 time=0
note_on channel=1 note=69 velocity=127 time=0
note_on channel=1 note=62 velocity=127 time=0
note_off channel=1 note=66 velocity=0 time=96
note_off channel=1 note=62 velocity=0 time=0
note_off channel=1 note=57 velocity=127 time=0
note_off channel=1 note=50 velocity=127 time=0
note_off channel=1 note=78 velocity=0 time=0
note_off channel=1 note=74 velocity=0 time=0
note_off channel=1 note=69 velocity=127 time=0
note_off channel=1 note=62 velocity=127 time=0
note_on channel=1 note=62 velocity=127 time=0
note_on channel=1 note=66 velocity=127 time=0
note_on channel=1 note=57 velocity=127 time=0
note_on channel=1 note=50 velocity=127 time=0
note_on channel=1 note=74 velocity=127 time=0
note_on channel=1 note=78 velocity=127 time=0
note_on channel=1 note=69 velocity=127 time=0
note_on channel=1 note=62 velocity=127 time=0
note_off channel=1 note=62 velocity=0 time=384
note_off channel=1 note=66 velocity=0 time=0
note_off channel=1 note=57 velocity=127 time=0
note_off channel=1 note=50 velocity=127 time=0
note_off channel=1 note=74 velocity=0 time=0
note_off channel=1 note=78 velocity=0 time=0
note_off channel=1 note=69 velocity=127 time=0
note_off channel=1 note=62 velocity=127 time=0
note_on channel=1 note=45 velocity=127 time=205
note_on channel=1 note=61 velocity=127 time=108
note_on channel=1 note=52 velocity=127 time=0
note_on channel=1 note=57 velocity=127 time=0
note_on channel=1 note=57 velocity=127 time=0
note_on channel=1 note=73 velocity=127 time=0
note_on channel=1 note=64 velocity=127 time=0
note_on channel=1 note=69 velocity=127 time=0
note_off channel=1 note=45 velocity=0 time=96
note_off channel=1 note=61 velocity=0 time=0
note_off channel=1 note=52 velocity=0 time=0
note_off channel=1 note=57 velocity=0 time=0
note_off channel=1 note=57 velocity=0 time=0
note_off channel=1 note=73 velocity=0 time=0
note_off channel=1 note=64 velocity=0 time=0
note_off channel=1 note=69 velocity=0 time=0
note_on channel=1 note=45 velocity=127 time=0
note_on channel=1 note=52 velocity=127 time=0
note_on channel=1 note=57 velocity=127 time=0
note_on channel=1 note=61 velocity=127 time=0
note_on channel=1 note=57 velocity=127 time=0
note_on channel=1 note=64 velocity=127 time=0
note_on channel=1 note=69 velocity=127 time=0
note_on channel=1 note=73 velocity=127 time=0
note_off channel=1 note=45 velocity=0 time=96
note_off channel=1 note=52 velocity=127 time=0
note_off channel=1 note=57 velocity=127 time=0
note_off channel=1 note=61 velocity=127 time=0
note_off channel=1 note=57 velocity=0 time=0
note_off channel=1 note=64 velocity=127 time=0
note_off channel=1 note=69 velocity=127 time=0
note_off channel=1 note=73 velocity=127 time=0
note_on channel=1 note=45 velocity=127 time=0
note_on channel=1 note=61 velocity=127 time=0
note_on channel=1 note=64 velocity=127 time=0
note_on channel=1 note=57 velocity=127 time=0
note_on channel=1 note=52 velocity=127 time=0
note_on channel=1 note=57 velocity=127 time=0
note_on channel=1 note=73 velocity=127 time=0
note_on channel=1 note=76 velocity=127 time=0
note_on channel=1 note=69 velocity=127 time=0
note_on channel=1 note=64 velocity=127 time=0
note_off channel=1 note=45 velocity=0 time=384
note_off channel=1 note=61 velocity=0 time=0
note_off channel=1 note=64 velocity=0 time=0
note_off channel=1 note=57 velocity=127 time=0
note_off channel=1 note=52 velocity=127 time=0
note_off channel=1 note=57 velocity=0 time=0
note_off channel=1 note=73 velocity=0 time=0
note_off channel=1 note=76 velocity=0 time=0
note_off channel=1 note=69 velocity=127 time=0
note_off channel=1 note=64 velocity=127 time=0
note_on channel=1 note=79 velocity=127 time=517
note_on channel=1 note=67 velocity=127 time=248
note_off channel=1 note=79 velocity=0 time=64
note_off channel=1 note=67 velocity=0 time=0
note_on channel=1 note=76 velocity=127 time=33
note_on channel=1 note=64 velocity=127 time=24
note_on channel=1 note=74 velocity=127 time=101
note_on channel=1 note=62 velocity=127 time=64
note_off channel=1 note=76 velocity=0 time=32
note_off channel=1 note=64 velocity=0 time=0
note_off channel=1 note=74 velocity=0 time=32
note_off channel=1 note=62 velocity=0 time=0
note_on channel=1 note=71 velocity=127 time=34
note_on channel=1 note=59 velocity=127 time=18
note_on channel=1 note=71 velocity=127 time=100
note_on channel=1 note=59 velocity=127 time=43
note_off channel=1 note=71 velocity=0 time=32
note_off channel=1 note=59 velocity=0 time=0
note_on channel=1 note=69 velocity=127 time=66
note_on channel=1 note=57 velocity=127 time=21
note_off channel=1 note=71 velocity=0 time=12
note_off channel=1 note=59 velocity=0 time=8
note_off channel=1 note=69 velocity=0 time=44
note_off channel=1 note=57 velocity=0 time=0
note_on channel=1 note=67 velocity=127 time=33
note_on channel=1 note=55 velocity=127 time=9
note_off channel=1 note=67 velocity=0 time=64
note_off channel=1 note=55 velocity=0 time=0
note_on channel=1 note=52 velocity=127 time=33
note_on channel=1 note=47 velocity=127 time=8
note_on channel=1 note=64 velocity=42 time=0
note_on channel=1 note=59 velocity=127 time=0
note_on channel=1 note=56 velocity=127 time=0
note_on channel=1 note=40 velocity=107 time=0
note_off channel=1 note=52 velocity=0 time=384
note_off channel=1 note=47 velocity=0 time=0
note_off channel=1 note=64 velocity=0 time=0
note_off channel=1 note=59 velocity=0 time=0
note_off channel=1 note=56 velocity=0 time=0
note_off channel=1 note=40 velocity=0 time=0
note_on channel=1 note=50 velocity=127 time=199
note_on channel=1 note=62 velocity=127 time=52
note_on channel=1 note=57 velocity=127 time=0
note_on channel=1 note=66 velocity=127 time=0
note_off channel=1 note=50 velocity=0 time=96
note_off channel=1 note=62 velocity=0 time=0
note_off channel=1 note=57 velocity=0 time=0
note_off channel=1 note=66 velocity=0 time=0
note_on channel=1 note=66 velocity=104 time=0
note_on channel=1 note=62 velocity=127 time=0
note_on channel=1 note=57 velocity=127 time=0
note_on channel=1 note=50 velocity=127 time=0
note_off channel=1 note=66 velocity=0 time=96
note_off channel=1 note=62 velocity=0 time=0
note_off channel=1 note=57 velocity=127 time=0
note_off channel=1 note=50 velocity=127 time=0
note_on channel=1 note=62 velocity=127 time=0
note_on channel=1 note=66 velocity=127 time=0
note_on channel=1 note=57 velocity=127 time=0
note_on channel=1 note=50 velocity=127 time=0
note_off channel=1 note=62 velocity=0 time=384
note_off channel=1 note=66 velocity=0 time=0
note_off channel=1 note=57 velocity=127 time=0
note_off channel=1 note=50 velocity=127 time=0
note_on channel=1 note=45 velocity=127 time=199
note_on channel=1 note=61 velocity=127 time=82
note_on channel=1 note=52 velocity=127 time=0
note_on channel=1 note=57 velocity=127 time=0
note_off channel=1 note=45 velocity=0 time=96
note_off channel=1 note=61 velocity=0 time=0
note_off channel=1 note=52 velocity=0 time=0
note_off channel=1 note=57 velocity=0 time=0
note_on channel=1 note=45 velocity=127 time=0
note_on channel=1 note=52 velocity=127 time=0
note_on channel=1 note=57 velocity=127 time=0
note_on channel=1 note=61 velocity=127 time=0
note_off channel=1 note=45 velocity=0 time=96
note_off channel=1 note=52 velocity=127 time=0
note_off channel=1 note=57 velocity=127 time=0
note_off channel=1 note=61 velocity=127 time=0
note_on channel=1 note=45 velocity=127 time=0
note_on channel=1 note=61 velocity=127 time=0
note_on channel=1 note=64 velocity=127 time=0
note_on channel=1 note=57 velocity=127 time=0
note_on channel=1 note=52 velocity=127 time=0
note_off channel=1 note=45 velocity=0 time=384
note_off channel=1 note=61 velocity=0 time=0
note_off channel=1 note=64 velocity=0 time=0
note_off channel=1 note=57 velocity=127 time=0
note_off channel=1 note=52 velocity=127 time=0
note_on channel=1 note=59 velocity=127 time=0
note_on channel=1 note=47 velocity=127 time=0
note_on channel=1 note=71 velocity=127 time=0
note_off channel=1 note=59 velocity=0 time=64
note_off channel=1 note=47 velocity=0 time=0
note_off channel=1 note=71 velocity=0 time=0
note_on channel=1 note=56 velocity=127 time=32
note_on channel=1 note=44 velocity=127 time=16
note_on channel=1 note=68 velocity=127 time=0
note_off channel=1 note=56 velocity=0 time=128
note_off channel=1 note=44 velocity=0 time=0
note_off channel=1 note=68 velocity=0 time=0
note_on channel=1 note=59 velocity=127 time=66
note_on channel=1 note=47 velocity=127 time=34
note_on channel=1 note=71 velocity=127 time=0
note_off channel=1 note=59 velocity=0 time=64
note_off channel=1 note=47 velocity=0 time=0
note_off channel=1 note=71 velocity=0 time=0
note_on channel=1 note=57 velocity=127 time=32
note_on channel=1 note=45 velocity=127 time=17
note_on channel=1 note=69 velocity=127 time=0
note_off channel=1 note=57 velocity=0 time=128
note_off channel=1 note=45 velocity=0 time=0
note_off channel=1 note=69 velocity=0 time=0
note_on channel=1 note=59 velocity=127 time=65
note_on channel=1 note=47 velocity=127 time=32
note_on channel=1 note=71 velocity=127 time=0
note_off channel=1 note=59 velocity=0 time=64
note_off channel=1 note=47 velocity=0 time=0
note_off channel=1 note=71 velocity=0 time=0
note_on channel=1 note=58 velocity=127 time=32
note_on channel=1 note=46 velocity=127 time=14
note_on channel=1 note=70 velocity=127 time=0
note_off channel=1 note=58 velocity=0 time=128
note_off channel=1 note=46 velocity=0 time=0
note_off channel=1 note=70 velocity=0 time=0
note_on channel=1 note=59 velocity=127 time=65
note_on channel=1 note=47 velocity=127 time=24
note_on channel=1 note=71 velocity=127 time=0
note_off channel=1 note=59 velocity=0 time=64
note_off channel=1 note=47 velocity=0 time=0
note_off channel=1 note=71 velocity=0 time=0
note_on channel=1 note=58 velocity=127 time=32
note_on channel=1 note=46 velocity=127 time=9
note_on channel=1 note=70 velocity=127 time=0
note_off channel=1 note=58 velocity=0 time=64
note_off channel=1 note=46 velocity=0 time=0
note_off channel=1 note=70 velocity=0 time=0
note_on channel=1 note=59 velocity=127 time=32
note_on channel=1 note=47 velocity=127 time=7
note_on channel=1 note=71 velocity=127 time=0
note_off channel=1 note=59 velocity=127 time=64
note_off channel=1 note=47 velocity=127 time=0
note_off channel=1 note=71 velocity=127 time=0
note_on channel=1 note=52 velocity=127 time=33
note_on channel=1 note=47 velocity=127 time=5
note_on channel=1 note=64 velocity=42 time=0
note_on channel=1 note=56 velocity=127 time=0
note_on channel=1 note=40 velocity=107 time=0
note_on channel=1 note=64 velocity=127 time=0
note_on channel=1 note=59 velocity=127 time=0
note_on channel=1 note=76 velocity=42 time=0
note_on channel=1 note=71 velocity=127 time=0
note_on channel=1 note=68 velocity=127 time=0
note_on channel=1 note=52 velocity=107 time=0
note_on channel=1 note=59 velocity=127 time=0
note_off channel=1 note=52 velocity=0 time=384
note_off channel=1 note=47 velocity=0 time=0
note_off channel=1 note=64 velocity=0 time=0
note_off channel=1 note=56 velocity=0 time=0
note_off channel=1 note=40 velocity=0 time=0
note_off channel=1 note=64 velocity=0 time=0
note_off channel=1 note=59 velocity=0 time=0
note_off channel=1 note=76 velocity=0 time=0
note_off channel=1 note=71 velocity=0 time=0
note_off channel=1 note=68 velocity=0 time=0
note_off channel=1 note=52 velocity=0 time=0
note_off channel=1 note=59 velocity=0 time=0
note_on channel=1 note=50 velocity=127 time=195
note_on channel=1 note=62 velocity=127 time=5
note_on channel=1 note=57 velocity=127 time=0
note_on channel=1 note=66 velocity=127 time=0
note_on channel=1 note=62 velocity=127 time=0
note_on channel=1 note=74 velocity=127 time=0
note_on channel=1 note=69 velocity=127 time=0
note_on channel=1 note=78 velocity=127 time=0
note_off channel=1 note=50 velocity=0 time=96
note_off channel=1 note=62 velocity=0 time=0
note_off channel=1 note=57 velocity=0 time=0
note_off channel=1 note=66 velocity=0 time=0
note_off channel=1 note=62 velocity=0 time=0
note_off channel=1 note=74 velocity=0 time=0
note_off channel=1 note=69 velocity=0 time=0
note_off channel=1 note=78 velocity=0 time=0
note_on channel=1 note=66 velocity=104 time=0
note_on channel=1 note=62 velocity=127 time=0
note_on channel=1 note=57 velocity=127 time=0
note_on channel=1 note=50 velocity=127 time=0
note_on channel=1 note=78 velocity=104 time=0
note_on channel=1 note=74 velocity=127 time=0
note_on channel=1 note=69 velocity=127 time=0
note_on channel=1 note=62 velocity=127 time=0
note_off channel=1 note=66 velocity=0 time=96
note_off channel=1 note=62 velocity=0 time=0
note_off channel=1 note=57 velocity=127 time=0
note_off channel=1 note=50 velocity=127 time=0
note_off channel=1 note=78 velocity=0 time=0
note_off channel=1 note=74 velocity=0 time=0
note_off channel=1 note=69 velocity=127 time=0
note_off channel=1 note=62 velocity=127 time=0
note_on channel=1 note=62 velocity=127 time=0
note_on channel=1 note=66 velocity=127 time=0
note_on channel=1 note=57 velocity=127 time=0
note_on channel=1 note=50 velocity=127 time=0
note_on channel=1 note=74 velocity=127 time=0
note_on channel=1 note=78 velocity=127 time=0
note_on channel=1 note=69 velocity=127 time=0
note_on channel=1 note=62 velocity=127 time=0
note_off channel=1 note=62 velocity=0 time=384
note_off channel=1 note=66 velocity=0 time=0
note_off channel=1 note=57 velocity=127 time=0
note_off channel=1 note=50 velocity=127 time=0
note_off channel=1 note=74 velocity=0 time=0
note_off channel=1 note=78 velocity=0 time=0
note_off channel=1 note=69 velocity=127 time=0
note_off channel=1 note=62 velocity=127 time=0
note_on channel=1 note=45 velocity=127 time=195
note_on channel=1 note=61 velocity=127 time=8
note_on channel=1 note=52 velocity=127 time=0
note_on channel=1 note=57 velocity=127 time=0
note_on channel=1 note=57 velocity=127 time=0
note_on channel=1 note=73 velocity=127 time=0
note_on channel=1 note=64 velocity=127 time=0
note_on channel=1 note=69 velocity=127 time=0
note_off channel=1 note=45 velocity=0 time=96
note_off channel=1 note=61 velocity=0 time=0
note_off channel=1 note=52 velocity=0 time=0
note_off channel=1 note=57 velocity=0 time=0
note_off channel=1 note=57 velocity=0 time=0
note_off channel=1 note=73 velocity=0 time=0
note_off channel=1 note=64 velocity=0 time=0
note_off channel=1 note=69 velocity=0 time=0
note_on channel=1 note=45 velocity=127 time=0
note_on channel=1 note=52 velocity=127 time=0
note_on channel=1 note=57 velocity=127 time=0
note_on channel=1 note=61 velocity=127 time=0
note_on channel=1 note=57 velocity=127 time=0
note_on channel=1 note=64 velocity=127 time=0
note_on channel=1 note=69 velocity=127 time=0
note_on channel=1 note=73 velocity=127 time=0
note_off channel=1 note=45 velocity=0 time=96
note_off channel=1 note=52 velocity=127 time=0
note_off channel=1 note=57 velocity=127 time=0
note_off channel=1 note=61 velocity=127 time=0
note_off channel=1 note=57 velocity=0 time=0
note_off channel=1 note=64 velocity=127 time=0
note_off channel=1 note=69 velocity=127 time=0
note_off channel=1 note=73 velocity=127 time=0
note_on channel=1 note=45 velocity=127 time=0
note_on channel=1 note=61 velocity=127 time=0
note_on channel=1 note=64 velocity=127 time=0
note_on channel=1 note=57 velocity=127 time=0
note_on channel=1 note=52 velocity=127 time=0
note_on channel=1 note=57 velocity=127 time=0
note_on channel=1 note=73 velocity=127 time=0
note_on channel=1 note=76 velocity=127 time=0
note_on channel=1 note=69 velocity=127 time=0
note_on channel=1 note=64 velocity=127 time=0
note_off channel=1 note=45 velocity=0 time=384
note_off channel=1 note=61 velocity=0 time=0
note_off channel=1 note=64 velocity=0 time=0
note_off channel=1 note=57 velocity=127 time=0
note_off channel=1 note=52 velocity=127 time=0
note_off channel=1 note=57 velocity=0 time=0
note_off channel=1 note=73 velocity=0 time=0
note_off channel=1 note=76 velocity=0 time=0
note_off channel=1 note=69 velocity=127 time=0
note_off channel=1 note=64 velocity=127 time=0
note_on channel=1 note=79 velocity=127 time=489
note_on channel=1 note=67 velocity=127 time=2
note_off channel=1 note=79 velocity=0 time=64
note_off channel=1 note=67 velocity=0 time=0
note_on channel=1 note=76 velocity=127 time=32
note_on channel=1 note=64 velocity=127 time=0
note_on channel=1 note=74 velocity=127 time=97
note_on channel=1 note=62 velocity=127 time=1
note_off channel=1 note=76 velocity=0 time=32
note_off channel=1 note=64 velocity=0 time=0
note_off channel=1 note=74 velocity=0 time=32
note_off channel=1 note=62 velocity=0 time=0
note_on channel=1 note=71 velocity=127 time=32
note_on channel=1 note=59 velocity=127 time=0
note_on channel=1 note=71 velocity=127 time=97
note_on channel=1 note=59 velocity=127 time=4
note_off channel=1 note=71 velocity=0 time=32
note_off channel=1 note=59 velocity=0 time=0
note_on channel=1 note=69 velocity=127 time=65
note_on channel=1 note=57 velocity=127 time=7
note_off channel=1 note=71 velocity=0 time=12
note_off channel=1 note=59 velocity=0 time=8
note_off channel=1 note=69 velocity=0 time=44
note_off channel=1 note=57 velocity=0 time=0
note_on channel=1 note=67 velocity=127 time=33
note_on channel=1 note=55 velocity=127 time=5
note_off channel=1 note=67 velocity=0 time=64
note_off channel=1 note=55 velocity=0 time=0
note_on channel=1 note=52 velocity=127 time=32
note_on channel=1 note=47 velocity=127 time=6
note_on channel=1 note=64 velocity=42 time=0
note_on channel=1 note=59 velocity=127 time=0
note_on channel=1 note=56 velocity=127 time=0
note_on channel=1 note=40 velocity=107 time=0
note_off channel=1 note=52 velocity=0 time=384
note_off channel=1 note=47 velocity=0 time=0
note_off channel=1 note=64 velocity=0 time=0
note_off channel=1 note=59 velocity=0 time=0
note_off channel=1 note=56 velocity=0 time=0
note_off channel=1 note=40 velocity=0 time=0
note_on channel=1 note=50 velocity=127 time=195
note_on channel=1 note=62 velocity=127 time=61
note_on channel=1 note=57 velocity=127 time=0
note_on channel=1 note=66 velocity=127 time=0
note_off channel=1 note=50 velocity=0 time=96
note_off channel=1 note=62 velocity=0 time=0
note_off channel=1 note=57 velocity=0 time=0
note_off channel=1 note=66 velocity=0 time=0
note_on channel=1 note=66 velocity=104 time=0
note_on channel=1 note=62 velocity=127 time=0
note_on channel=1 note=57 velocity=127 time=0
note_on channel=1 note=50 velocity=127 time=0
note_off channel=1 note=66 velocity=0 time=96
note_off channel=1 note=62 velocity=0 time=0
note_off channel=1 note=57 velocity=127 time=0
note_off channel=1 note=50 velocity=127 time=0
note_on channel=1 note=62 velocity=127 time=0
note_on channel=1 note=66 velocity=127 time=0
note_on channel=1 note=57 velocity=127 time=0
note_on channel=1 note=50 velocity=127 time=0
note_off channel=1 note=62 velocity=0 time=384
note_off channel=1 note=66 velocity=0 time=0
note_off channel=1 note=57 velocity=127 time=0
note_off channel=1 note=50 velocity=127 time=0
note_on channel=1 note=45 velocity=127 time=196
note_on channel=1 note=61 velocity=127 time=74
note_on channel=1 note=52 velocity=127 time=0
note_on channel=1 note=57 velocity=127 time=0
note_off channel=1 note=45 velocity=0 time=96
note_off channel=1 note=61 velocity=0 time=0
note_off channel=1 note=52 velocity=0 time=0
note_off channel=1 note=57 velocity=0 time=0
note_on channel=1 note=45 velocity=127 time=0
note_on channel=1 note=52 velocity=127 time=0
note_on channel=1 note=57 velocity=127 time=0
note_on channel=1 note=61 velocity=127 time=0
note_off channel=1 note=45 velocity=0 time=96
note_off channel=1 note=52 velocity=127 time=0
note_off channel=1 note=57 velocity=127 time=0
note_off channel=1 note=61 velocity=127 time=0
note_on channel=1 note=45 velocity=127 time=0
note_on channel=1 note=61 velocity=127 time=0
note_on channel=1 note=64 velocity=127 time=0
note_on channel=1 note=57 velocity=127 time=0
note_on channel=1 note=52 velocity=127 time=0
note_off channel=1 note=45 velocity=0 time=384
note_off channel=1 note=61 velocity=0 time=0
note_off channel=1 note=64 velocity=0 time=0
note_off channel=1 note=57 velocity=127 time=0
note_off channel=1 note=52 velocity=127 time=0
note_on channel=1 note=59 velocity=127 time=0
note_on channel=1 note=47 velocity=127 time=0
note_on channel=1 note=71 velocity=127 time=0
note_off channel=1 note=59 velocity=0 time=64
note_off channel=1 note=47 velocity=0 time=0
note_off channel=1 note=71 velocity=0 time=0
note_on channel=1 note=56 velocity=127 time=33
note_on channel=1 note=44 velocity=127 time=10
note_on channel=1 note=68 velocity=127 time=0
note_off channel=1 note=56 velocity=0 time=128
note_off channel=1 note=44 velocity=0 time=0
note_off channel=1 note=68 velocity=0 time=0
note_on channel=1 note=59 velocity=127 time=65
note_on channel=1 note=47 velocity=127 time=15
note_on channel=1 note=71 velocity=127 time=0
note_off channel=1 note=59 velocity=0 time=64
note_off channel=1 note=47 velocity=0 time=0
note_off channel=1 note=71 velocity=0 time=0
note_on channel=1 note=57 velocity=127 time=33
note_on channel=1 note=45 velocity=127 time=5
note_on channel=1 note=69 velocity=127 time=0
note_off channel=1 note=57 velocity=0 time=128
note_off channel=1 note=45 velocity=0 time=0
note_off channel=1 note=69 velocity=0 time=0
note_on channel=1 note=59 velocity=127 time=65
note_on channel=1 note=47 velocity=127 time=6
note_on channel=1 note=71 velocity=127 time=0
note_off channel=1 note=59 velocity=0 time=64
note_off channel=1 note=47 velocity=0 time=0
note_off channel=1 note=71 velocity=0 time=0
note_on channel=1 note=58 velocity=127 time=33
note_on channel=1 note=46 velocity=127 time=0
note_on channel=1 note=70 velocity=127 time=0
note_off channel=1 note=58 velocity=0 time=128
note_off channel=1 note=46 velocity=0 time=0
note_off channel=1 note=70 velocity=0 time=0
note_on channel=1 note=59 velocity=127 time=65
note_on channel=1 note=47 velocity=127 time=3
note_on channel=1 note=71 velocity=127 time=0
note_off channel=1 note=59 velocity=0 time=64
note_off channel=1 note=47 velocity=0 time=0
note_off channel=1 note=71 velocity=0 time=0
note_on channel=1 note=58 velocity=127 time=33
note_on channel=1 note=46 velocity=127 time=4
note_on channel=1 note=70 velocity=127 time=0
note_off channel=1 note=58 velocity=0 time=64
note_off channel=1 note=46 velocity=0 time=0
note_off channel=1 note=70 velocity=0 time=0
note_on channel=1 note=59 velocity=127 time=32
note_on channel=1 note=47 velocity=127 time=5
note_on channel=1 note=71 velocity=127 time=0
note_off channel=1 note=59 velocity=127 time=64
note_off channel=1 note=47 velocity=127 time=0
note_off channel=1 note=71 velocity=127 time=0
note_on channel=1 note=69 velocity=127 time=28
note_on channel=1 note=76 velocity=127 time=5
note_off channel=1 note=69 velocity=0 time=4
note_off channel=1 note=76 velocity=0 time=0
note_on channel=1 note=69 velocity=60 time=222
note_on channel=1 note=64 velocity=127 time=47
note_on channel=1 note=81 velocity=60 time=0
note_on channel=1 note=76 velocity=127 time=0
note_on channel=1 note=57 velocity=127 time=16
note_on channel=1 note=69 velocity=127 time=2
note_off channel=1 note=69 velocity=0 time=188
note_off channel=1 note=81 velocity=0 time=0
note_off channel=1 note=64 velocity=0 time=8
note_off channel=1 note=76 velocity=0 time=0
note_off channel=1 note=57 velocity=0 time=84
note_off channel=1 note=69 velocity=0 time=0
note_on channel=1 note=59 velocity=127 time=0
note_on channel=1 note=71 velocity=127 time=0
note_off channel=1 note=59 velocity=0 time=16
note_off channel=1 note=71 velocity=0 time=0
note_on channel=1 note=52 velocity=127 time=3
note_on channel=1 note=59 velocity=127 time=0
note_on channel=1 note=64 velocity=127 time=0
note_on channel=1 note=71 velocity=127 time=0
note_off channel=1 note=59 velocity=0 time=108
note_off channel=1 note=71 velocity=0 time=0
note_on channel=1 note=59 velocity=127 time=69
note_on channel=1 note=71 velocity=127 time=7
note_on channel=1 note=66 velocity=127 time=4
note_on channel=1 note=71 velocity=77 time=0
note_on channel=1 note=78 velocity=127 time=0
note_on channel=1 note=83 velocity=77 time=0
note_off channel=1 note=52 velocity=0 time=44
note_off channel=1 note=64 velocity=0 time=0
note_off channel=1 note=59 velocity=0 time=228
note_off channel=1 note=71 velocity=0 time=0
note_off channel=1 note=66 velocity=0 time=60
note_off channel=1 note=78 velocity=0 time=0
note_off channel=1 note=71 velocity=0 time=4
note_off channel=1 note=83 velocity=0 time=0
note_on channel=1 note=69 velocity=45 time=0
note_on channel=1 note=81 velocity=45 time=0
note_on channel=1 note=64 velocity=127 time=12
note_on channel=1 note=76 velocity=127 time=0
note_on channel=1 note=57 velocity=127 time=20
note_on channel=1 note=69 velocity=127 time=0
note_off channel=1 note=64 velocity=0 time=112
note_off channel=1 note=76 velocity=0 time=0
note_off channel=1 note=69 velocity=0 time=8
note_off channel=1 note=81 velocity=0 time=0
note_on channel=1 note=67 velocity=40 time=0
note_on channel=1 note=79 velocity=40 time=0
note_off channel=1 note=67 velocity=0 time=76
note_off channel=1 note=79 velocity=0 time=0
note_on channel=1 note=66 velocity=127 time=4
note_on channel=1 note=67 velocity=103 time=0
note_on channel=1 note=78 velocity=127 time=0
note_on channel=1 note=79 velocity=103 time=0
note_off channel=1 note=57 velocity=0 time=20
note_off channel=1 note=69 velocity=0 time=0
note_off channel=1 note=67 velocity=0 time=0
note_off channel=1 note=79 velocity=0 time=0
note_on channel=1 note=59 velocity=127 time=0
note_on channel=1 note=71 velocity=100 time=0
note_on channel=1 note=71 velocity=127 time=0
note_on channel=1 note=83 velocity=100 time=0
note_off channel=1 note=59 velocity=0 time=112
note_off channel=1 note=71 velocity=0 time=0
note_off channel=1 note=71 velocity=0 time=0
note_off channel=1 note=83 velocity=0 time=0
note_off channel=1 note=66 velocity=0 time=4
note_off channel=1 note=78 velocity=0 time=0
note_on channel=1 note=69 velocity=60 time=345
note_on channel=1 note=64 velocity=127 time=74
note_on channel=1 note=81 velocity=60 time=0
note_on channel=1 note=76 velocity=127 time=0
note_on channel=1 note=57 velocity=127 time=16
note_on channel=1 note=69 velocity=127 time=7
note_off channel=1 note=69 velocity=0 time=188
note_off channel=1 note=81 velocity=0 time=0
note_off channel=1 note=64 velocity=0 time=8
note_off channel=1 note=76 velocity=0 time=0
note_off channel=1 note=57 velocity=0 time=84
note_off channel=1 note=69 velocity=0 time=0
note_on channel=1 note=59 velocity=127 time=0
note_on channel=1 note=71 velocity=127 time=0
note_off channel=1 note=59 velocity=0 time=16
note_off channel=1 note=71 velocity=0 time=0
note_on channel=1 note=52 velocity=127 time=3
note_on channel=1 note=59 velocity=127 time=1
note_on channel=1 note=64 velocity=127 time=0
note_on channel=1 note=71 velocity=127 time=0
note_off channel=1 note=59 velocity=0 time=108
note_off channel=1 note=71 velocity=0 time=0
note_on channel=1 note=59 velocity=127 time=70
note_on channel=1 note=71 velocity=127 time=35
note_on channel=1 note=66 velocity=127 time=3
note_on channel=1 note=71 velocity=77 time=2
note_on channel=1 note=78 velocity=127 time=0
note_on channel=1 note=83 velocity=77 time=0
note_off channel=1 note=52 velocity=0 time=44
note_off channel=1 note=64 velocity=0 time=0
note_off channel=1 note=59 velocity=0 time=228
note_off channel=1 note=71 velocity=0 time=0
note_off channel=1 note=66 velocity=0 time=60
note_off channel=1 note=78 velocity=0 time=0
note_off channel=1 note=71 velocity=0 time=4
note_off channel=1 note=83 velocity=0 time=0
note_on channel=1 note=69 velocity=45 time=0
note_on channel=1 note=81 velocity=45 time=0
note_on channel=1 note=64 velocity=127 time=12
note_on channel=1 note=76 velocity=127 time=6
note_on channel=1 note=57 velocity=127 time=20
note_on channel=1 note=69 velocity=127 time=12
note_off channel=1 note=64 velocity=0 time=112
note_off channel=1 note=76 velocity=0 time=0
note_off channel=1 note=69 velocity=0 time=8
note_off channel=1 note=81 velocity=0 time=0
note_on channel=1 note=67 velocity=40 time=0
note_on channel=1 note=79 velocity=40 time=0
note_off channel=1 note=67 velocity=0 time=76
note_off channel=1 note=79 velocity=0 time=0
note_on channel=1 note=66 velocity=127 time=3
note_on channel=1 note=67 velocity=103 time=2
note_on channel=1 note=78 velocity=127 time=0
note_on channel=1 note=79 velocity=103 time=0
note_off channel=1 note=57 velocity=0 time=20
note_off channel=1 note=69 velocity=0 time=0
note_off channel=1 note=67 velocity=0 time=0
note_off channel=1 note=79 velocity=0 time=0
note_on channel=1 note=59 velocity=127 time=0
note_on channel=1 note=71 velocity=100 time=0
note_on channel=1 note=71 velocity=127 time=0
note_on channel=1 note=83 velocity=100 time=0
note_off channel=1 note=59 velocity=0 time=112
note_off channel=1 note=71 velocity=0 time=0
note_off channel=1 note=71 velocity=0 time=0
note_off channel=1 note=83 velocity=0 time=0
note_off channel=1 note=66 velocity=0 time=4
note_off channel=1 note=78 velocity=0 time=0
note_on channel=1 note=74 velocity=32 time=273
note_on channel=1 note=67 velocity=127 time=230
note_on channel=1 note=79 velocity=127 time=29
note_on channel=1 note=62 velocity=127 time=44
note_off channel=1 note=79 velocity=0 time=112
note_off channel=1 note=74 velocity=0 time=8
note_off channel=1 note=67 velocity=0 time=120
note_off channel=1 note=62 velocity=0 time=32
note_on channel=1 note=62 velocity=127 time=35
note_on channel=1 note=78 velocity=127 time=20
note_on channel=1 note=74 velocity=127 time=13
note_on channel=1 note=69 velocity=127 time=12
note_off channel=1 note=69 velocity=0 time=108
note_off channel=1 note=78 velocity=0 time=8
note_off channel=1 note=74 velocity=0 time=12
note_off channel=1 note=62 velocity=0 time=120
note_on channel=1 note=62 velocity=127 time=14
note_on channel=1 note=57 velocity=127 time=16
note_on channel=1 note=69 velocity=127 time=22
note_off channel=1 note=62 velocity=0 time=28
note_on channel=1 note=64 velocity=127 time=9
note_off channel=1 note=57 velocity=0 time=228
note_off channel=1 note=64 velocity=0 time=36
note_on channel=1 note=55 velocity=127 time=4
note_on channel=1 note=60 velocity=127 time=20
note_off channel=1 note=60 velocity=0 time=0
note_off channel=1 note=55 velocity=0 time=116
note_off channel=1 note=69 velocity=0 time=12
note_on channel=1 note=69 velocity=127 time=17
note_on channel=1 note=57 velocity=127 time=15
note_on channel=1 note=64 velocity=127 time=17
note_on channel=1 note=57 velocity=127 time=302
note_off channel=1 note=69 velocity=0 time=80
note_off channel=1 note=64 velocity=0 time=4
note_on channel=1 note=79 velocity=127 time=179
note_off channel=1 note=57 velocity=0 time=4
note_on channel=1 note=74 velocity=127 time=8
note_on channel=1 note=55 velocity=127 time=0
note_on channel=1 note=62 velocity=127 time=9
note_on channel=1 note=67 velocity=127 time=26
note_off channel=1 note=55 velocity=0 time=96
note_off channel=1 note=74 velocity=0 time=20
note_off channel=1 note=79 velocity=0 time=4
note_off channel=1 note=57 velocity=0 time=128
note_off channel=1 note=67 velocity=0 time=0
note_on channel=1 note=78 velocity=127 time=25
note_on channel=1 note=74 velocity=127 time=13
note_on channel=1 note=69 velocity=127 time=0
note_on channel=1 note=62 velocity=127 time=3
note_off channel=1 note=62 velocity=127 time=128
note_off channel=1 note=69 velocity=0 time=20
note_off channel=1 note=78 velocity=0 time=20
note_off channel=1 note=74 velocity=0 time=24
note_off channel=1 note=62 velocity=0 time=84
note_on channel=1 note=64 velocity=127 time=1
note_on channel=1 note=57 velocity=127 time=12
note_on channel=1 note=69 velocity=127 time=19
note_off channel=1 note=64 velocity=0 time=276
note_off channel=1 note=57 velocity=0 time=0
note_on channel=1 note=55 velocity=127 time=2
note_off channel=1 note=55 velocity=0 time=144
note_off channel=1 note=69 velocity=0 time=8
note_on channel=1 note=69 velocity=127 time=2
note_on channel=1 note=58 velocity=127 time=3
note_on channel=1 note=65 velocity=127 time=12
note_off channel=1 note=58 velocity=0 time=60
note_on channel=1 note=57 velocity=127 time=5
note_off channel=1 note=65 velocity=0 time=24
note_on channel=1 note=64 velocity=127 time=3
note_off channel=1 note=69 velocity=0 time=376
note_off channel=1 note=64 velocity=0 time=0
note_on channel=1 note=69 velocity=60 time=36
note_on channel=1 note=64 velocity=127 time=18
note_on channel=1 note=81 velocity=60 time=0
note_on channel=1 note=76 velocity=127 time=0
note_on channel=1 note=57 velocity=127 time=16
note_on channel=1 note=69 velocity=127 time=8
note_off channel=1 note=57 velocity=0 time=16
note_off channel=1 note=69 velocity=0 time=172
note_off channel=1 note=81 velocity=0 time=0
note_off channel=1 note=64 velocity=0 time=8
note_off channel=1 note=76 velocity=0 time=0
note_off channel=1 note=57 velocity=0 time=84
note_off channel=1 note=69 velocity=0 time=0
note_on channel=1 note=59 velocity=127 time=0
note_on channel=1 note=71 velocity=127 time=0
note_off channel=1 note=59 velocity=0 time=16
note_off channel=1 note=71 velocity=0 time=0
note_on channel=1 note=52 velocity=127 time=4
note_on channel=1 note=59 velocity=127 time=1
note_on channel=1 note=64 velocity=127 time=0
note_on channel=1 note=71 velocity=127 time=0
note_off channel=1 note=59 velocity=0 time=108
note_off channel=1 note=71 velocity=0 time=0
note_on channel=1 note=59 velocity=127 time=71
note_on channel=1 note=71 velocity=127 time=32
note_on channel=1 note=66 velocity=127 time=3
note_on channel=1 note=71 velocity=77 time=1
note_on channel=1 note=78 velocity=127 time=0
note_on channel=1 note=83 velocity=77 time=0
note_off channel=1 note=52 velocity=0 time=44
note_off channel=1 note=64 velocity=0 time=0
note_off channel=1 note=59 velocity=0 time=228
note_off channel=1 note=71 velocity=0 time=0
note_off channel=1 note=66 velocity=0 time=60
note_off channel=1 note=78 velocity=0 time=0
note_off channel=1 note=71 velocity=0 time=4
note_off channel=1 note=83 velocity=0 time=0
note_on channel=1 note=69 velocity=45 time=0
note_on channel=1 note=81 velocity=45 time=0
note_on channel=1 note=64 velocity=127 time=12
note_on channel=1 note=76 velocity=127 time=5
note_on channel=1 note=57 velocity=127 time=21
note_on channel=1 note=69 velocity=127 time=8
note_off channel=1 note=64 velocity=0 time=112
note_off channel=1 note=76 velocity=0 time=0
note_off channel=1 note=69 velocity=0 time=8
note_off channel=1 note=81 velocity=0 time=0
note_on channel=1 note=67 velocity=40 time=0
note_on channel=1 note=79 velocity=40 time=0
note_off channel=1 note=67 velocity=0 time=76
note_off channel=1 note=79 velocity=0 time=0
note_on channel=1 note=66 velocity=127 time=3
note_on channel=1 note=67 velocity=103 time=1
note_on channel=1 note=78 velocity=127 time=0
note_on channel=1 note=79 velocity=103 time=0
note_off channel=1 note=57 velocity=0 time=20
note_off channel=1 note=69 velocity=0 time=0
note_off channel=1 note=67 velocity=0 time=0
note_off channel=1 note=79 velocity=0 time=0
note_on channel=1 note=59 velocity=127 time=0
note_on channel=1 note=71 velocity=100 time=0
note_on channel=1 note=71 velocity=127 time=0
note_on channel=1 note=83 velocity=100 time=0
note_off channel=1 note=59 velocity=0 time=112
note_off channel=1 note=71 velocity=0 time=0
note_off channel=1 note=71 velocity=0 time=0
note_off channel=1 note=83 velocity=0 time=0
note_off channel=1 note=66 velocity=0 time=4
note_off channel=1 note=78 velocity=0 time=0
note_on channel=1 note=69 velocity=60 time=354
note_on channel=1 note=64 velocity=127 time=36
note_on channel=1 note=81 velocity=60 time=0
note_on channel=1 note=76 velocity=127 time=0
note_on channel=1 note=57 velocity=127 time=16
note_on channel=1 note=69 velocity=127 time=1
note_off channel=1 note=69 velocity=0 time=188
note_off channel=1 note=81 velocity=0 time=0
note_off channel=1 note=64 velocity=0 time=8
note_off channel=1 note=76 velocity=0 time=0
note_off channel=1 note=57 velocity=0 time=84
note_off channel=1 note=69 velocity=0 time=0
note_on channel=1 note=59 velocity=127 time=0
note_on channel=1 note=71 velocity=127 time=0
note_off channel=1 note=59 velocity=0 time=16
note_off channel=1 note=71 velocity=0 time=0
note_on channel=1 note=52 velocity=127 time=4
note_on channel=1 note=59 velocity=127 time=0
note_on channel=1 note=64 velocity=127 time=0
note_on channel=1 note=71 velocity=127 time=0
note_off channel=1 note=59 velocity=0 time=108
note_off channel=1 note=71 velocity=0 time=0
note_on channel=1 note=59 velocity=127 time=71
note_on channel=1 note=71 velocity=127 time=8
note_on channel=1 note=66 velocity=127 time=4
note_on channel=1 note=71 velocity=77 time=0
note_on channel=1 note=78 velocity=127 time=0
note_on channel=1 note=83 velocity=77 time=0
note_off channel=1 note=52 velocity=0 time=44
note_off channel=1 note=64 velocity=0 time=0
note_off channel=1 note=59 velocity=0 time=228
note_off channel=1 note=71 velocity=0 time=0
note_off channel=1 note=66 velocity=0 time=60
note_off channel=1 note=78 velocity=0 time=0
note_off channel=1 note=71 velocity=0 time=4
note_off channel=1 note=83 velocity=0 time=0
note_on channel=1 note=69 velocity=45 time=0
note_on channel=1 note=81 velocity=45 time=0
note_on channel=1 note=64 velocity=127 time=12
note_on channel=1 note=76 velocity=127 time=1
note_on channel=1 note=57 velocity=127 time=21
note_on channel=1 note=69 velocity=127 time=2
note_off channel=1 note=64 velocity=0 time=112
note_off channel=1 note=76 velocity=0 time=0
note_off channel=1 note=69 velocity=0 time=8
note_off channel=1 note=81 velocity=0 time=0
note_on channel=1 note=67 velocity=40 time=0
note_on channel=1 note=79 velocity=40 time=0
note_off channel=1 note=67 velocity=0 time=76
note_off channel=1 note=79 velocity=0 time=0
note_on channel=1 note=66 velocity=127 time=4
note_on channel=1 note=67 velocity=103 time=0
note_on channel=1 note=78 velocity=127 time=0
note_on channel=1 note=79 velocity=103 time=0
note_off channel=1 note=57 velocity=0 time=20
note_off channel=1 note=69 velocity=0 time=0
note_off channel=1 note=67 velocity=0 time=0
note_off channel=1 note=79 velocity=0 time=0
note_on channel=1 note=59 velocity=127 time=0
note_on channel=1 note=71 velocity=100 time=0
note_on channel=1 note=71 velocity=127 time=0
note_on channel=1 note=83 velocity=100 time=0
note_off channel=1 note=59 velocity=0 time=112
note_off channel=1 note=71 velocity=0 time=0
note_off channel=1 note=71 velocity=0 time=0
note_off channel=1 note=83 velocity=0 time=0
note_off channel=1 note=66 velocity=0 time=4
note_off channel=1 note=78 velocity=0 time=0
note_on channel=1 note=50 velocity=101 time=126
note_on channel=1 note=55 velocity=127 time=15
note_on channel=1 note=67 velocity=119 time=0
note_on channel=1 note=62 velocity=127 time=0
note_on channel=1 note=59 velocity=127 time=0
note_off channel=1 note=50 velocity=0 time=192
note_off channel=1 note=55 velocity=0 time=0
note_off channel=1 note=67 velocity=0 time=0
note_off channel=1 note=62 velocity=0 time=0
note_off channel=1 note=59 velocity=0 time=0
note_on channel=1 note=50 velocity=101 time=101
note_on channel=1 note=55 velocity=127 time=13
note_on channel=1 note=67 velocity=119 time=0
note_on channel=1 note=62 velocity=127 time=0
note_on channel=1 note=59 velocity=127 time=0
note_off channel=1 note=50 velocity=0 time=192
note_off channel=1 note=55 velocity=0 time=0
note_off channel=1 note=67 velocity=0 time=0
note_off channel=1 note=62 velocity=0 time=0
note_off channel=1 note=59 velocity=0 time=0
note_on channel=1 note=50 velocity=101 time=101
note_on channel=1 note=55 velocity=127 time=16
note_on channel=1 note=67 velocity=119 time=0
note_on channel=1 note=62 velocity=127 time=0
note_on channel=1 note=59 velocity=127 time=0
note_off channel=1 note=50 velocity=0 time=192
note_off channel=1 note=55 velocity=0 time=0
note_off channel=1 note=67 velocity=0 time=0
note_off channel=1 note=62 velocity=0 time=0
note_off channel=1 note=59 velocity=0 time=0
note_on channel=1 note=50 velocity=72 time=101
note_on channel=1 note=55 velocity=127 time=21
note_on channel=1 note=59 velocity=127 time=0
note_on channel=1 note=62 velocity=87 time=0
note_on channel=1 note=67 velocity=87 time=0
note_off channel=1 note=50 velocity=0 time=64
note_off channel=1 note=55 velocity=0 time=0
note_off channel=1 note=59 velocity=0 time=0
note_off channel=1 note=62 velocity=0 time=0
note_off channel=1 note=67 velocity=0 time=0
note_on channel=1 note=59 velocity=52 time=34
note_on channel=1 note=67 velocity=87 time=9
note_on channel=1 note=49 velocity=56 time=0
note_off channel=1 note=59 velocity=0 time=64
note_off channel=1 note=67 velocity=0 time=0
note_off channel=1 note=49 velocity=0 time=0
note_on channel=1 note=50 velocity=72 time=33
note_on channel=1 note=59 velocity=127 time=9
note_on channel=1 note=55 velocity=127 time=0
note_on channel=1 note=62 velocity=92 time=0
note_on channel=1 note=67 velocity=95 time=0
note_off channel=1 note=50 velocity=0 time=64
note_off channel=1 note=59 velocity=0 time=0
note_off channel=1 note=55 velocity=0 time=0
note_off channel=1 note=62 velocity=0 time=0
note_off channel=1 note=67 velocity=0 time=0
note_on channel=1 note=50 velocity=85 time=33
note_on channel=1 note=55 velocity=127 time=10
note_on channel=1 note=59 velocity=127 time=0
note_on channel=1 note=62 velocity=88 time=0
note_on channel=1 note=67 velocity=84 time=0
note_off channel=1 note=50 velocity=0 time=128
note_off channel=1 note=55 velocity=0 time=0
note_off channel=1 note=59 velocity=0 time=0
note_off channel=1 note=62 velocity=0 time=0
note_off channel=1 note=67 velocity=0 time=0
note_on channel=1 note=50 velocity=91 time=67
note_on channel=1 note=55 velocity=127 time=24
note_on channel=1 note=59 velocity=127 time=0
note_on channel=1 note=62 velocity=119 time=0
note_on channel=1 note=67 velocity=127 time=0
note_off channel=1 note=50 velocity=0 time=128
note_off channel=1 note=55 velocity=0 time=0
note_off channel=1 note=59 velocity=0 time=0
note_off channel=1 note=62 velocity=0 time=0
note_off channel=1 note=67 velocity=0 time=0
note_on channel=1 note=50 velocity=127 time=68
note_on channel=1 note=66 velocity=127 time=29
note_on channel=1 note=57 velocity=127 time=0
note_on channel=1 note=62 velocity=127 time=0
note_off channel=1 note=50 velocity=0 time=192
note_off channel=1 note=66 velocity=0 time=0
note_off channel=1 note=57 velocity=0 time=0
note_off channel=1 note=62 velocity=0 time=0
note_on channel=1 note=50 velocity=127 time=101
note_on channel=1 note=62 velocity=127 time=52
note_on channel=1 note=66 velocity=127 time=0
note_on channel=1 note=57 velocity=127 time=0
note_off channel=1 note=50 velocity=0 time=192
note_off channel=1 note=62 velocity=0 time=0
note_off channel=1 note=66 velocity=0 time=0
note_off channel=1 note=57 velocity=0 time=0
note_on channel=1 note=50 velocity=127 time=102
note_on channel=1 note=62 velocity=127 time=60
note_on channel=1 note=66 velocity=127 time=0
note_on channel=1 note=57 velocity=127 time=0
note_off channel=1 note=50 velocity=0 time=512
note_off channel=1 note=62 velocity=0 time=0
note_off channel=1 note=66 velocity=0 time=0
note_off channel=1 note=57 velocity=0 time=0
note_on channel=1 note=40 velocity=127 time=478
note_on channel=1 note=64 velocity=127 time=154
note_on channel=1 note=52 velocity=127 time=0
note_on channel=1 note=59 velocity=127 time=3
note_off channel=1 note=40 velocity=0 time=176
note_off channel=1 note=52 velocity=0 time=12
note_off channel=1 note=59 velocity=0 time=8
note_off channel=1 note=64 velocity=0 time=4
note_on channel=1 note=50 velocity=127 time=443
note_on channel=1 note=57 velocity=127 time=53
note_on channel=1 note=40 velocity=127 time=3
note_on channel=1 note=62 velocity=127 time=0
note_off channel=1 note=57 velocity=0 time=84
note_on channel=1 note=57 velocity=127 time=0
note_off channel=1 note=50 velocity=0 time=84
note_off channel=1 note=57 velocity=0 time=4
note_on channel=1 note=50 velocity=127 time=0
note_off channel=1 note=62 velocity=0 time=8
note_on channel=1 note=57 velocity=127 time=0
note_on channel=1 note=62 velocity=127 time=4
note_off channel=1 note=50 velocity=0 time=176
note_off channel=1 note=57 velocity=0 time=12
note_off channel=1 note=62 velocity=0 time=4
note_off channel=1 note=40 velocity=0 time=28
note_on channel=1 note=49 velocity=127 time=365
note_on channel=1 note=62 velocity=127 time=19
note_on channel=1 note=57 velocity=127 time=3
note_on channel=1 note=40 velocity=127 time=0
note_off channel=1 note=57 velocity=0 time=96
note_on channel=1 note=57 velocity=127 time=3
note_on channel=1 note=40 velocity=127 time=61
note_off channel=1 note=40 velocity=0 time=8
note_on channel=1 note=66 velocity=127 time=31
note_off channel=1 note=49 velocity=0 time=192
note_off channel=1 note=66 velocity=0 time=0
note_off channel=1 note=62 velocity=0 time=12
note_off channel=1 note=57 velocity=0 time=0
note_off channel=1 note=40 velocity=0 time=136
note_on channel=1 note=59 velocity=127 time=223
note_on channel=1 note=52 velocity=127 time=349
note_on channel=1 note=40 velocity=127 time=0
note_on channel=1 note=64 velocity=127 time=20
note_off channel=1 note=59 velocity=0 time=60
note_on channel=1 note=59 velocity=127 time=24
note_off channel=1 note=40 velocity=0 time=48
note_off channel=1 note=52 velocity=0 time=24
note_off channel=1 note=64 velocity=0 time=4
note_on channel=1 note=64 velocity=127 time=23
note_on channel=1 note=68 velocity=127 time=31
note_off channel=1 note=68 velocity=0 time=144
note_off channel=1 note=64 velocity=0 time=12
note_off channel=1 note=59 velocity=0 time=8
note_on channel=1 note=59 velocity=127 time=13
note_on channel=1 note=52 velocity=127 time=31
note_on channel=1 note=40 velocity=127 time=0
note_on channel=1 note=64 velocity=127 time=21
note_off channel=1 note=59 velocity=0 time=60
note_on channel=1 note=59 velocity=127 time=20
note_off channel=1 note=64 velocity=0 time=104
note_on channel=1 note=64 velocity=127 time=4
note_on channel=1 note=68 velocity=127 time=8
note_off channel=1 note=68 velocity=0 time=144
note_off channel=1 note=64 velocity=0 time=12
note_off channel=1 note=52 velocity=0 time=4
note_off channel=1 note=59 velocity=0 time=4
note_on channel=1 note=59 velocity=127 time=15
note_on channel=1 note=52 velocity=127 time=27
note_on channel=1 note=40 velocity=127 time=0
note_on channel=1 note=64 velocity=127 time=20
note_off channel=1 note=59 velocity=0 time=60
note_on channel=1 note=59 velocity=127 time=16
note_off channel=1 note=40 velocity=0 time=8
note_on channel=1 note=40 velocity=127 time=74
note_on channel=1 note=64 velocity=127 time=69
note_on channel=1 note=52 velocity=127 time=0
note_on channel=1 note=59 velocity=127 time=4
note_off channel=1 note=64 velocity=0 time=16
note_off channel=1 note=40 velocity=0 time=160
note_off channel=1 note=52 velocity=0 time=8
note_off channel=1 note=59 velocity=0 time=4
note_off channel=1 note=52 velocity=0 time=0
note_off channel=1 note=59 velocity=0 time=8
note_off channel=1 note=64 velocity=0 time=4
note_off channel=1 note=40 velocity=0 time=104
note_on channel=1 note=50 velocity=127 time=315
note_on channel=1 note=57 velocity=127 time=120
note_on channel=1 note=40 velocity=127 time=3
note_on channel=1 note=62 velocity=127 time=0
note_off channel=1 note=57 velocity=0 time=84
note_on channel=1 note=57 velocity=127 time=0
note_off channel=1 note=50 velocity=0 time=84
note_off channel=1 note=57 velocity=0 time=4
note_on channel=1 note=50 velocity=127 time=0
note_off channel=1 note=62 velocity=0 time=8
note_on channel=1 note=57 velocity=127 time=0
note_on channel=1 note=62 velocity=127 time=4
note_off channel=1 note=50 velocity=0 time=176
note_off channel=1 note=57 velocity=0 time=12
note_off channel=1 note=62 velocity=0 time=4
note_off channel=1 note=40 velocity=0 time=28
note_on channel=1 note=49 velocity=127 time=349
note_on channel=1 note=62 velocity=127 time=3
note_on channel=1 note=57 velocity=127 time=0
note_on channel=1 note=40 velocity=127 time=0
note_off channel=1 note=57 velocity=0 time=96
note_on channel=1 note=57 velocity=127 time=3
note_on channel=1 note=40 velocity=127 time=62
note_off channel=1 note=40 velocity=0 time=8
note_on channel=1 note=66 velocity=127 time=24
note_off channel=1 note=49 velocity=0 time=192
note_off channel=1 note=66 velocity=0 time=0
note_off channel=1 note=62 velocity=0 time=12
note_off channel=1 note=57 velocity=0 time=0
note_off channel=1 note=40 velocity=0 time=136
note_on channel=1 note=52 velocity=127 time=243
note_on channel=1 note=59 velocity=127 time=35
note_on channel=1 note=57 velocity=127 time=170
note_on channel=1 note=73 velocity=127 time=76
note_on channel=1 note=69 velocity=127 time=0
note_on channel=1 note=64 velocity=127 time=0
note_off channel=1 note=52 velocity=0 time=24
note_off channel=1 note=59 velocity=0 time=8
note_off channel=1 note=64 velocity=0 time=232
note_off channel=1 note=73 velocity=0 time=8
note_off channel=1 note=69 velocity=0 time=12
note_on channel=1 note=52 velocity=127 time=0
note_on channel=1 note=68 velocity=127 time=0
note_on channel=1 note=71 velocity=127 time=0
note_on channel=1 note=59 velocity=127 time=0
note_on channel=1 note=64 velocity=127 time=0
note_off channel=1 note=57 velocity=0 time=4
note_off channel=1 note=59 velocity=0 time=248
note_off channel=1 note=71 velocity=0 time=16
note_off channel=1 note=64 velocity=0 time=0
note_off channel=1 note=52 velocity=0 time=24
note_off channel=1 note=68 velocity=127 time=4
note_on channel=1 note=52 velocity=127 time=16
note_on channel=1 note=57 velocity=127 time=9
note_on channel=1 note=73 velocity=127 time=8
note_on channel=1 note=69 velocity=127 time=4
note_on channel=1 note=78 velocity=127 time=0
note_on channel=1 note=64 velocity=127 time=4
note_on channel=1 note=40 velocity=127 time=168
note_on channel=1 note=64 velocity=127 time=122
note_on channel=1 note=52 velocity=127 time=0
note_on channel=1 note=59 velocity=127 time=3
note_off channel=1 note=52 velocity=0 time=16
note_off channel=1 note=57 velocity=0 time=0
note_off channel=1 note=78 velocity=0 time=4
note_off channel=1 note=64 velocity=0 time=0
note_off channel=1 note=69 velocity=0 time=20
note_off channel=1 note=73 velocity=0 time=4
note_off channel=1 note=40 velocity=0 time=132
note_off channel=1 note=52 velocity=0 time=12
note_off channel=1 note=59 velocity=0 time=8
note_off channel=1 note=64 velocity=0 time=4
note_on channel=1 note=50 velocity=127 time=432
note_on channel=1 note=57 velocity=127 time=300
note_on channel=1 note=40 velocity=127 time=4
note_on channel=1 note=62 velocity=127 time=1
note_off channel=1 note=57 velocity=0 time=84
note_on channel=1 note=57 velocity=127 time=0
note_off channel=1 note=50 velocity=0 time=84
note_off channel=1 note=57 velocity=0 time=4
note_on channel=1 note=50 velocity=127 time=0
note_off channel=1 note=62 velocity=0 time=8
note_on channel=1 note=57 velocity=127 time=0
note_on channel=1 note=62 velocity=127 time=3
note_off channel=1 note=50 velocity=0 time=176
note_off channel=1 note=57 velocity=0 time=12
note_off channel=1 note=62 velocity=0 time=4
note_off channel=1 note=40 velocity=0 time=28
note_on channel=1 note=49 velocity=127 time=360
note_on channel=1 note=62 velocity=127 time=40
note_on channel=1 note=57 velocity=127 time=0
note_on channel=1 note=40 velocity=127 time=0
note_off channel=1 note=57 velocity=0 time=96
note_on channel=1 note=57 velocity=127 time=4
note_on channel=1 note=40 velocity=127 time=63
note_off channel=1 note=40 velocity=0 time=8
note_on channel=1 note=66 velocity=127 time=30
note_off channel=1 note=49 velocity=0 time=192
note_off channel=1 note=66 velocity=0 time=0
note_off channel=1 note=62 velocity=0 time=12
note_off channel=1 note=57 velocity=0 time=0
note_off channel=1 note=40 velocity=0 time=136
note_on channel=1 note=59 velocity=127 time=252
note_on channel=1 note=52 velocity=127 time=31
note_on channel=1 note=40 velocity=127 time=0
note_on channel=1 note=64 velocity=127 time=21
note_off channel=1 note=59 velocity=0 time=60
note_on channel=1 note=59 velocity=127 time=6
note_off channel=1 note=40 velocity=0 time=48
note_off channel=1 note=52 velocity=0 time=24
note_off channel=1 note=64 velocity=0 time=4
note_on channel=1 note=64 velocity=127 time=29
note_on channel=1 note=68 velocity=127 time=10
note_off channel=1 note=68 velocity=0 time=144
note_off channel=1 note=64 velocity=0 time=12
note_off channel=1 note=59 velocity=0 time=8
note_on channel=1 note=59 velocity=127 time=26
note_on channel=1 note=52 velocity=127 time=1
note_on channel=1 note=40 velocity=127 time=0
note_on channel=1 note=64 velocity=127 time=20
note_off channel=1 note=59 velocity=0 time=60
note_on channel=1 note=59 velocity=127 time=5
note_off channel=1 note=64 velocity=0 time=104
note_on channel=1 note=64 velocity=127 time=0
note_on channel=1 note=68 velocity=127 time=8
note_off channel=1 note=68 velocity=0 time=144
note_off channel=1 note=64 velocity=0 time=12
note_off channel=1 note=52 velocity=0 time=4
note_off channel=1 note=59 velocity=0 time=4
note_on channel=1 note=59 velocity=127 time=25
note_on channel=1 note=52 velocity=127 time=0
note_on channel=1 note=40 velocity=127 time=0
note_on channel=1 note=64 velocity=127 time=21
note_off channel=1 note=59 velocity=0 time=60
note_on channel=1 note=59 velocity=127 time=3
note_off channel=1 note=40 velocity=0 time=8
note_on channel=1 note=40 velocity=127 time=80
note_on channel=1 note=64 velocity=127 time=9
note_on channel=1 note=52 velocity=127 time=0
note_on channel=1 note=59 velocity=127 time=4
note_off channel=1 note=64 velocity=0 time=16
note_off channel=1 note=40 velocity=0 time=160
note_off channel=1 note=52 velocity=0 time=8
note_off channel=1 note=59 velocity=0 time=4
note_off channel=1 note=52 velocity=0 time=0
note_off channel=1 note=59 velocity=0 time=8
note_off channel=1 note=64 velocity=0 time=4
note_off channel=1 note=40 velocity=0 time=104
note_on channel=1 note=50 velocity=127 time=325
note_on channel=1 note=57 velocity=127 time=125
note_on channel=1 note=40 velocity=127 time=3
note_on channel=1 note=62 velocity=127 time=1
note_off channel=1 note=57 velocity=0 time=84
note_on channel=1 note=57 velocity=127 time=0
note_off channel=1 note=50 velocity=0 time=84
note_off channel=1 note=57 velocity=0 time=4
note_on channel=1 note=50 velocity=127 time=0
note_off channel=1 note=62 velocity=0 time=8
note_on channel=1 note=57 velocity=127 time=0
note_on channel=1 note=62 velocity=127 time=4
note_off channel=1 note=50 velocity=0 time=176
note_off channel=1 note=57 velocity=0 time=12
note_off channel=1 note=62 velocity=0 time=4
note_off channel=1 note=40 velocity=0 time=28
note_on channel=1 note=49 velocity=127 time=355
note_on channel=1 note=62 velocity=127 time=169
note_on channel=1 note=57 velocity=127 time=1
note_on channel=1 note=40 velocity=127 time=0
note_off channel=1 note=57 velocity=0 time=96
note_on channel=1 note=57 velocity=127 time=4
note_on channel=1 note=40 velocity=127 time=61
note_off channel=1 note=40 velocity=0 time=8
note_on channel=1 note=66 velocity=127 time=8
note_off channel=1 note=49 velocity=0 time=192
note_off channel=1 note=66 velocity=0 time=0
note_off channel=1 note=62 velocity=0 time=12
note_off channel=1 note=57 velocity=0 time=0
note_off channel=1 note=40 velocity=0 time=136
note_on channel=1 note=52 velocity=127 time=241
note_on channel=1 note=59 velocity=127 time=8
note_on channel=1 note=57 velocity=127 time=172
note_on channel=1 note=73 velocity=127 time=86
note_on channel=1 note=69 velocity=127 time=0
note_on channel=1 note=64 velocity=127 time=0
note_off channel=1 note=52 velocity=0 time=24
note_off channel=1 note=59 velocity=0 time=8
note_off channel=1 note=64 velocity=0 time=232
note_off channel=1 note=73 velocity=0 time=8
note_off channel=1 note=69 velocity=0 time=12
note_on channel=1 note=52 velocity=127 time=0
note_on channel=1 note=68 velocity=127 time=0
note_on channel=1 note=71 velocity=127 time=0
note_on channel=1 note=59 velocity=127 time=0
note_on channel=1 note=64 velocity=127 time=0
note_off channel=1 note=57 velocity=0 time=4
note_off channel=1 note=59 velocity=0 time=248
note_off channel=1 note=71 velocity=0 time=16
note_off channel=1 note=64 velocity=0 time=0
note_off channel=1 note=52 velocity=0 time=24
note_off channel=1 note=68 velocity=127 time=4
note_on channel=1 note=52 velocity=127 time=17
note_on channel=1 note=57 velocity=127 time=12
note_on channel=1 note=73 velocity=127 time=8
note_on channel=1 note=69 velocity=127 time=6
note_on channel=1 note=78 velocity=127 time=0
note_on channel=1 note=64 velocity=127 time=3
note_on channel=1 note=40 velocity=127 time=170
note_on channel=1 note=64 velocity=127 time=129
note_on channel=1 note=52 velocity=127 time=0
note_on channel=1 note=59 velocity=127 time=4
note_off channel=1 note=52 velocity=0 time=16
note_off channel=1 note=57 velocity=0 time=0
note_off channel=1 note=78 velocity=0 time=4
note_off channel=1 note=64 velocity=0 time=0
note_off channel=1 note=69 velocity=0 time=20
note_off channel=1 note=73 velocity=0 time=4
note_off channel=1 note=40 velocity=0 time=132
note_off channel=1 note=52 velocity=0 time=12
note_off channel=1 note=59 velocity=0 time=8
note_off channel=1 note=64 velocity=0 time=4
note_on channel=1 note=50 velocity=127 time=437
note_on channel=1 note=57 velocity=127 time=100
note_on channel=1 note=40 velocity=127 time=3
note_on channel=1 note=62 velocity=127 time=2
note_off channel=1 note=57 velocity=0 time=84
note_on channel=1 note=57 velocity=127 time=0
note_off channel=1 note=50 velocity=0 time=84
note_off channel=1 note=57 velocity=0 time=4
note_on channel=1 note=50 velocity=127 time=0
note_off channel=1 note=62 velocity=0 time=8
note_on channel=1 note=57 velocity=127 time=0
note_on channel=1 note=62 velocity=127 time=4
note_off channel=1 note=50 velocity=0 time=176
note_off channel=1 note=57 velocity=0 time=12
note_off channel=1 note=62 velocity=0 time=4
note_off channel=1 note=40 velocity=0 time=28
note_on channel=1 note=49 velocity=127 time=357
note_on channel=1 note=62 velocity=127 time=240
note_on channel=1 note=57 velocity=127 time=2
note_on channel=1 note=40 velocity=127 time=0
note_off channel=1 note=57 velocity=0 time=96
note_on channel=1 note=57 velocity=127 time=3
note_on channel=1 note=40 velocity=127 time=60
note_off channel=1 note=40 velocity=0 time=8
note_on channel=1 note=66 velocity=127 time=5
note_off channel=1 note=49 velocity=0 time=192
note_off channel=1 note=66 velocity=0 time=0
note_off channel=1 note=62 velocity=0 time=12
note_off channel=1 note=57 velocity=0 time=0
note_off channel=1 note=40 velocity=0 time=136
note_on channel=1 note=59 velocity=127 time=236
note_on channel=1 note=52 velocity=127 time=80
note_on channel=1 note=40 velocity=127 time=0
note_on channel=1 note=64 velocity=127 time=21
note_off channel=1 note=59 velocity=0 time=60
note_on channel=1 note=59 velocity=127 time=2
note_off channel=1 note=40 velocity=0 time=48
note_off channel=1 note=52 velocity=0 time=24
note_off channel=1 note=64 velocity=0 time=4
note_on channel=1 note=64 velocity=127 time=27
note_on channel=1 note=68 velocity=127 time=1
note_off channel=1 note=68 velocity=0 time=144
note_off channel=1 note=64 velocity=0 time=12
note_off channel=1 note=59 velocity=0 time=8
note_on channel=1 note=59 velocity=127 time=22
note_on channel=1 note=52 velocity=127 time=8
note_on channel=1 note=40 velocity=127 time=0
note_on channel=1 note=64 velocity=127 time=21
note_off channel=1 note=59 velocity=0 time=60
note_on channel=1 note=59 velocity=127 time=2
note_off channel=1 note=64 velocity=0 time=104
note_on channel=1 note=64 velocity=127 time=1
note_on channel=1 note=68 velocity=127 time=8
note_off channel=1 note=68 velocity=0 time=144
note_off channel=1 note=64 velocity=0 time=12
note_off channel=1 note=52 velocity=0 time=4
note_off channel=1 note=59 velocity=0 time=4
note_on channel=1 note=59 velocity=127 time=21
note_on channel=1 note=52 velocity=127 time=9
note_on channel=1 note=40 velocity=127 time=0
note_on channel=1 note=64 velocity=127 time=21
note_off channel=1 note=59 velocity=0 time=60
note_on channel=1 note=59 velocity=127 time=4
note_off channel=1 note=40 velocity=0 time=8
note_on channel=1 note=40 velocity=127 time=78
note_on channel=1 note=64 velocity=127 time=33
note_on channel=1 note=52 velocity=127 time=0
note_on channel=1 note=59 velocity=127 time=3
note_off channel=1 note=64 velocity=0 time=16
note_off channel=1 note=40 velocity=0 time=160
note_off channel=1 note=52 velocity=0 time=8
note_off channel=1 note=59 velocity=0 time=4
note_off channel=1 note=52 velocity=0 time=0
note_off channel=1 note=59 velocity=0 time=8
note_off channel=1 note=64 velocity=0 time=4
note_off channel=1 note=40 velocity=0 time=104
note_on channel=1 note=50 velocity=127 time=318
note_on channel=1 note=57 velocity=127 time=132
note_on channel=1 note=40 velocity=127 time=4
note_on channel=1 note=62 velocity=127 time=1
note_off channel=1 note=57 velocity=0 time=84
note_on channel=1 note=57 velocity=127 time=0
note_off channel=1 note=50 velocity=0 time=84
note_off channel=1 note=57 velocity=0 time=4
note_on channel=1 note=50 velocity=127 time=0
note_off channel=1 note=62 velocity=0 time=8
note_on channel=1 note=57 velocity=127 time=0
note_on channel=1 note=62 velocity=127 time=3
note_off channel=1 note=50 velocity=0 time=176
note_off channel=1 note=57 velocity=0 time=12
note_off channel=1 note=62 velocity=0 time=4
note_off channel=1 note=40 velocity=0 time=28
note_on channel=1 note=49 velocity=127 time=350
note_on channel=1 note=62 velocity=127 time=195
note_on channel=1 note=57 velocity=127 time=3
note_on channel=1 note=40 velocity=127 time=0
note_off channel=1 note=57 velocity=0 time=96
note_on channel=1 note=57 velocity=127 time=4
note_on channel=1 note=40 velocity=127 time=58
note_off channel=1 note=40 velocity=0 time=8
note_on channel=1 note=66 velocity=127 time=26
note_off channel=1 note=49 velocity=0 time=192
note_off channel=1 note=66 velocity=0 time=0
note_off channel=1 note=62 velocity=0 time=12
note_off channel=1 note=57 velocity=0 time=0
note_off channel=1 note=40 velocity=0 time=136
note_on channel=1 note=52 velocity=127 time=220
note_on channel=1 note=59 velocity=127 time=219
note_on channel=1 note=57 velocity=127 time=163
note_on channel=1 note=73 velocity=127 time=88
note_on channel=1 note=69 velocity=127 time=0
note_on channel=1 note=64 velocity=127 time=0
note_off channel=1 note=52 velocity=0 time=24
note_off channel=1 note=59 velocity=0 time=8
note_off channel=1 note=64 velocity=0 time=232
note_off channel=1 note=73 velocity=0 time=8
note_off channel=1 note=69 velocity=0 time=12
note_on channel=1 note=52 velocity=127 time=0
note_on channel=1 note=68 velocity=127 time=0
note_on channel=1 note=71 velocity=127 time=0
note_on channel=1 note=59 velocity=127 time=0
note_on channel=1 note=64 velocity=127 time=0
note_off channel=1 note=57 velocity=0 time=4
note_off channel=1 note=59 velocity=0 time=248
note_off channel=1 note=71 velocity=0 time=16
note_off channel=1 note=64 velocity=0 time=0
note_off channel=1 note=52 velocity=0 time=24
note_off channel=1 note=68 velocity=127 time=4
note_on channel=1 note=52 velocity=127 time=16
note_on channel=1 note=57 velocity=127 time=2
note_on channel=1 note=73 velocity=127 time=8
note_on channel=1 note=69 velocity=127 time=1
note_on channel=1 note=78 velocity=127 time=0
note_on channel=1 note=64 velocity=127 time=4
note_on channel=1 note=40 velocity=127 time=161
note_on channel=1 note=64 velocity=127 time=36
note_on channel=1 note=52 velocity=127 time=0
note_on channel=1 note=59 velocity=127 time=3
note_off channel=1 note=52 velocity=0 time=16
note_off channel=1 note=57 velocity=0 time=0
note_off channel=1 note=78 velocity=0 time=4
note_off channel=1 note=64 velocity=0 time=0
note_off channel=1 note=69 velocity=0 time=20
note_off channel=1 note=73 velocity=0 time=4
note_off channel=1 note=40 velocity=0 time=132
note_off channel=1 note=52 velocity=0 time=12
note_off channel=1 note=59 velocity=0 time=8
note_off channel=1 note=64 velocity=0 time=4
note_on channel=1 note=50 velocity=127 time=419
note_on channel=1 note=57 velocity=127 time=470
note_on channel=1 note=40 velocity=127 time=4
note_on channel=1 note=62 velocity=127 time=6
note_off channel=1 note=57 velocity=0 time=84
note_on channel=1 note=57 velocity=127 time=0
note_off channel=1 note=50 velocity=0 time=84
note_off channel=1 note=57 velocity=0 time=4
note_on channel=1 note=50 velocity=127 time=0
note_off channel=1 note=62 velocity=0 time=8
note_on channel=1 note=57 velocity=127 time=0
note_on channel=1 note=62 velocity=127 time=3
note_off channel=1 note=50 velocity=0 time=176
note_off channel=1 note=57 velocity=0 time=12
note_off channel=1 note=62 velocity=0 time=4
note_off channel=1 note=40 velocity=0 time=28
note_on channel=1 note=49 velocity=127 time=357
note_on channel=1 note=62 velocity=127 time=484
note_on channel=1 note=57 velocity=127 time=3
note_on channel=1 note=40 velocity=127 time=0
note_off channel=1 note=57 velocity=0 time=96
note_on channel=1 note=57 velocity=127 time=4
note_on channel=1 note=40 velocity=127 time=66
note_off channel=1 note=40 velocity=0 time=8
note_on channel=1 note=66 velocity=127 time=79
note_off channel=1 note=49 velocity=0 time=192
note_off channel=1 note=66 velocity=0 time=0
note_off channel=1 note=62 velocity=0 time=12
note_off channel=1 note=57 velocity=0 time=0
note_off channel=1 note=40 velocity=0 time=136
note_on channel=1 note=59 velocity=127 time=266
note_on channel=1 note=52 velocity=127 time=88
note_on channel=1 note=40 velocity=127 time=0
note_on channel=1 note=64 velocity=127 time=21
note_off channel=1 note=59 velocity=0 time=60
note_on channel=1 note=59 velocity=127 time=7
note_off channel=1 note=40 velocity=0 time=48
note_off channel=1 note=52 velocity=0 time=24
note_off channel=1 note=64 velocity=0 time=4
note_on channel=1 note=64 velocity=127 time=30
note_on channel=1 note=68 velocity=127 time=11
note_off channel=1 note=68 velocity=0 time=144
note_off channel=1 note=64 velocity=0 time=12
note_off channel=1 note=59 velocity=0 time=8
note_on channel=1 note=59 velocity=127 time=25
note_on channel=1 note=52 velocity=127 time=2
note_on channel=1 note=40 velocity=127 time=0
note_on channel=1 note=64 velocity=127 time=21
note_off channel=1 note=59 velocity=0 time=60
note_on channel=1 note=59 velocity=127 time=6
note_off channel=1 note=64 velocity=0 time=104
note_on channel=1 note=64 velocity=127 time=0
note_on channel=1 note=68 velocity=127 time=8
note_off channel=1 note=68 velocity=0 time=144
note_off channel=1 note=64 velocity=0 time=12
note_off channel=1 note=52 velocity=0 time=4
note_off channel=1 note=59 velocity=0 time=4
note_on channel=1 note=59 velocity=127 time=26
note_on channel=1 note=52 velocity=127 time=3
note_on channel=1 note=40 velocity=127 time=0
note_on channel=1 note=64 velocity=127 time=20
note_off channel=1 note=59 velocity=0 time=60
note_on channel=1 note=59 velocity=127 time=8
note_off channel=1 note=40 velocity=0 time=8
note_on channel=1 note=40 velocity=127 time=80
note_on channel=1 note=64 velocity=127 time=20
note_on channel=1 note=52 velocity=127 time=0
note_on channel=1 note=59 velocity=127 time=4
note_off channel=1 note=64 velocity=0 time=16
note_off channel=1 note=40 velocity=0 time=160
note_off channel=1 note=52 velocity=0 time=8
note_off channel=1 note=59 velocity=0 time=4
note_off channel=1 note=52 velocity=0 time=0
note_off channel=1 note=59 velocity=0 time=8
note_off channel=1 note=64 velocity=0 time=4
note_off channel=1 note=40 velocity=0 time=104
note_on channel=1 note=50 velocity=127 time=327
note_on channel=1 note=57 velocity=127 time=143
note_on channel=1 note=40 velocity=127 time=3
note_on channel=1 note=62 velocity=127 time=1
note_off channel=1 note=57 velocity=0 time=84
note_on channel=1 note=57 velocity=127 time=0
note_off channel=1 note=50 velocity=0 time=84
note_off channel=1 note=57 velocity=0 time=4
note_on channel=1 note=50 velocity=127 time=0
note_off channel=1 note=62 velocity=0 time=8
note_on channel=1 note=57 velocity=127 time=0
note_on channel=1 note=62 velocity=127 time=4
note_off channel=1 note=50 velocity=0 time=176
note_off channel=1 note=57 velocity=0 time=12
note_off channel=1 note=62 velocity=0 time=4
note_off channel=1 note=40 velocity=0 time=28
note_on channel=1 note=49 velocity=127 time=362
note_on channel=1 note=62 velocity=127 time=4
note_on channel=1 note=57 velocity=127 time=1
note_on channel=1 note=40 velocity=127 time=0
note_off channel=1 note=57 velocity=0 time=96
note_on channel=1 note=57 velocity=127 time=3
note_on channel=1 note=40 velocity=127 time=62
note_off channel=1 note=40 velocity=0 time=8
note_on channel=1 note=66 velocity=127 time=0
note_off channel=1 note=49 velocity=0 time=192
note_off channel=1 note=66 velocity=0 time=0
note_off channel=1 note=62 velocity=0 time=12
note_off channel=1 note=57 velocity=0 time=0
note_off channel=1 note=40 velocity=0 time=136
note_on channel=1 note=69 velocity=60 time=1460
note_on channel=1 note=64 velocity=127 time=347
note_on channel=1 note=81 velocity=60 time=0
note_on channel=1 note=76 velocity=127 time=0
note_on channel=1 note=57 velocity=127 time=17
note_on channel=1 note=69 velocity=127 time=2
note_off channel=1 note=69 velocity=0 time=188
note_off channel=1 note=81 velocity=0 time=0
note_off channel=1 note=64 velocity=0 time=8
note_off channel=1 note=76 velocity=0 time=0
note_off channel=1 note=57 velocity=0 time=84
note_off channel=1 note=69 velocity=0 time=0
note_on channel=1 note=59 velocity=127 time=0
note_on channel=1 note=71 velocity=127 time=0
note_off channel=1 note=59 velocity=0 time=16
note_off channel=1 note=71 velocity=0 time=0
note_on channel=1 note=52 velocity=127 time=3
note_on channel=1 note=59 velocity=127 time=0
note_on channel=1 note=64 velocity=127 time=0
note_on channel=1 note=71 velocity=127 time=0
note_off channel=1 note=59 velocity=0 time=108
note_off channel=1 note=71 velocity=0 time=0
note_on channel=1 note=59 velocity=127 time=73
note_on channel=1 note=71 velocity=127 time=11
note_on channel=1 note=66 velocity=127 time=3
note_on channel=1 note=71 velocity=77 time=0
note_on channel=1 note=78 velocity=127 time=0
note_on channel=1 note=83 velocity=77 time=0
note_off channel=1 note=52 velocity=0 time=44
note_off channel=1 note=64 velocity=0 time=0
note_off channel=1 note=59 velocity=0 time=228
note_off channel=1 note=71 velocity=0 time=0
note_off channel=1 note=66 velocity=0 time=60
note_off channel=1 note=78 velocity=0 time=0
note_off channel=1 note=71 velocity=0 time=4
note_off channel=1 note=83 velocity=0 time=0
note_on channel=1 note=69 velocity=45 time=0
note_on channel=1 note=81 velocity=45 time=0
note_on channel=1 note=64 velocity=127 time=13
note_on channel=1 note=76 velocity=127 time=1
note_on channel=1 note=57 velocity=127 time=21
note_on channel=1 note=69 velocity=127 time=2
note_off channel=1 note=64 velocity=0 time=112
note_off channel=1 note=76 velocity=0 time=0
note_off channel=1 note=69 velocity=0 time=8
note_off channel=1 note=81 velocity=0 time=0
note_on channel=1 note=67 velocity=40 time=0
note_on channel=1 note=79 velocity=40 time=0
note_off channel=1 note=67 velocity=0 time=76
note_off channel=1 note=79 velocity=0 time=0
note_on channel=1 note=66 velocity=127 time=3
note_on channel=1 note=67 velocity=103 time=0
note_on channel=1 note=78 velocity=127 time=0
note_on channel=1 note=79 velocity=103 time=0
note_off channel=1 note=57 velocity=0 time=20
note_off channel=1 note=69 velocity=0 time=0
note_off channel=1 note=67 velocity=0 time=0
note_off channel=1 note=79 velocity=0 time=0
note_on channel=1 note=59 velocity=127 time=0
note_on channel=1 note=71 velocity=100 time=0
note_on channel=1 note=71 velocity=127 time=0
note_on channel=1 note=83 velocity=100 time=0
note_off channel=1 note=59 velocity=0 time=112
note_off channel=1 note=71 velocity=0 time=0
note_off channel=1 note=71 velocity=0 time=0
note_off channel=1 note=83 velocity=0 time=0
note_off channel=1 note=66 velocity=0 time=4
note_off channel=1 note=78 velocity=0 time=0
note_on channel=1 note=69 velocity=60 time=360
note_on channel=1 note=64 velocity=127 time=43
note_on channel=1 note=81 velocity=60 time=0
note_on channel=1 note=76 velocity=127 time=0
note_on channel=1 note=57 velocity=127 time=17
note_on channel=1 note=69 velocity=127 time=11
note_off channel=1 note=69 velocity=0 time=188
note_off channel=1 note=81 velocity=0 time=0
note_off channel=1 note=64 velocity=0 time=8
note_off channel=1 note=76 velocity=0 time=0
note_off channel=1 note=57 velocity=0 time=84
note_off channel=1 note=69 velocity=0 time=0
note_on channel=1 note=59 velocity=127 time=0
note_on channel=1 note=71 velocity=127 time=0
note_off channel=1 note=59 velocity=0 time=16
note_off channel=1 note=71 velocity=0 time=0
note_on channel=1 note=52 velocity=127 time=4
note_on channel=1 note=59 velocity=127 time=3
note_on channel=1 note=64 velocity=127 time=0
note_on channel=1 note=71 velocity=127 time=0
note_off channel=1 note=59 velocity=0 time=108
note_off channel=1 note=71 velocity=0 time=0
note_on channel=1 note=59 velocity=127 time=72
note_on channel=1 note=71 velocity=127 time=70
note_on channel=1 note=66 velocity=127 time=4
note_on channel=1 note=71 velocity=77 time=5
note_on channel=1 note=78 velocity=127 time=0
note_on channel=1 note=83 velocity=77 time=0
note_off channel=1 note=52 velocity=0 time=44
note_off channel=1 note=64 velocity=0 time=0
note_off channel=1 note=59 velocity=0 time=228
note_off channel=1 note=71 velocity=0 time=0
note_off channel=1 note=66 velocity=0 time=60
note_off channel=1 note=78 velocity=0 time=0
note_off channel=1 note=71 velocity=0 time=4
note_off channel=1 note=83 velocity=0 time=0
note_on channel=1 note=69 velocity=45 time=0
note_on channel=1 note=81 velocity=45 time=0
note_on channel=1 note=64 velocity=127 time=12
note_on channel=1 note=76 velocity=127 time=15
note_on channel=1 note=57 velocity=127 time=21
note_on channel=1 note=69 velocity=127 time=28
note_off channel=1 note=64 velocity=0 time=112
note_off channel=1 note=76 velocity=0 time=0
note_off channel=1 note=69 velocity=0 time=8
note_off channel=1 note=81 velocity=0 time=0
note_on channel=1 note=67 velocity=40 time=0
note_on channel=1 note=79 velocity=40 time=0
note_off channel=1 note=67 velocity=0 time=76
note_off channel=1 note=79 velocity=0 time=0
note_on channel=1 note=66 velocity=127 time=3
note_on channel=1 note=67 velocity=103 time=6
note_on channel=1 note=78 velocity=127 time=0
note_on channel=1 note=79 velocity=103 time=0
note_off channel=1 note=57 velocity=0 time=20
note_off channel=1 note=69 velocity=0 time=0
note_off channel=1 note=67 velocity=0 time=0
note_off channel=1 note=79 velocity=0 time=0
note_on channel=1 note=59 velocity=127 time=0
note_on channel=1 note=71 velocity=100 time=0
note_on channel=1 note=71 velocity=127 time=0
note_on channel=1 note=83 velocity=100 time=0
note_off channel=1 note=59 velocity=0 time=112
note_off channel=1 note=71 velocity=0 time=0
note_off channel=1 note=71 velocity=0 time=0
note_off channel=1 note=83 velocity=0 time=0
note_off channel=1 note=66 velocity=0 time=4
note_off channel=1 note=78 velocity=0 time=0
note_on channel=1 note=74 velocity=32 time=281
note_on channel=1 note=67 velocity=127 time=472
note_on channel=1 note=79 velocity=127 time=34
note_on channel=1 note=62 velocity=127 time=23
note_off channel=1 note=79 velocity=0 time=112
note_off channel=1 note=74 velocity=0 time=8
note_off channel=1 note=67 velocity=0 time=120
note_off channel=1 note=62 velocity=0 time=32
note_on channel=1 note=62 velocity=127 time=54
note_on channel=1 note=78 velocity=127 time=11
note_on channel=1 note=74 velocity=127 time=24
note_on channel=1 note=69 velocity=127 time=12
note_off channel=1 note=69 velocity=0 time=108
note_off channel=1 note=78 velocity=0 time=8
note_off channel=1 note=74 velocity=0 time=12
note_off channel=1 note=62 velocity=0 time=120
note_on channel=1 note=62 velocity=127 time=13
note_on channel=1 note=57 velocity=127 time=6
note_on channel=1 note=69 velocity=127 time=3
note_off channel=1 note=62 velocity=0 time=28
note_on channel=1 note=64 velocity=127 time=16
note_off channel=1 note=57 velocity=0 time=228
note_off channel=1 note=64 velocity=0 time=36
note_on channel=1 note=55 velocity=127 time=3
note_on channel=1 note=60 velocity=127 time=12
note_off channel=1 note=60 velocity=0 time=0
note_off channel=1 note=55 velocity=0 time=116
note_off channel=1 note=69 velocity=0 time=12
note_on channel=1 note=69 velocity=127 time=18
note_on channel=1 note=57 velocity=127 time=8
note_on channel=1 note=64 velocity=127 time=6
note_on channel=1 note=57 velocity=127 time=281
note_off channel=1 note=69 velocity=0 time=80
note_off channel=1 note=64 velocity=0 time=4
note_on channel=1 note=79 velocity=127 time=177
note_off channel=1 note=57 velocity=0 time=4
note_on channel=1 note=74 velocity=127 time=31
note_on channel=1 note=55 velocity=127 time=2
note_on channel=1 note=62 velocity=127 time=8
note_on channel=1 note=67 velocity=127 time=25
note_off channel=1 note=55 velocity=0 time=96
note_off channel=1 note=74 velocity=0 time=20
note_off channel=1 note=79 velocity=0 time=4
note_off channel=1 note=57 velocity=0 time=128
note_off channel=1 note=67 velocity=0 time=0
note_on channel=1 note=78 velocity=127 time=21
note_on channel=1 note=74 velocity=127 time=11
note_on channel=1 note=69 velocity=127 time=0
note_on channel=1 note=62 velocity=127 time=4
note_off channel=1 note=62 velocity=127 time=128
note_off channel=1 note=69 velocity=0 time=20
note_off channel=1 note=78 velocity=0 time=20
note_off channel=1 note=74 velocity=0 time=24
note_off channel=1 note=62 velocity=0 time=84
note_on channel=1 note=64 velocity=127 time=1
note_on channel=1 note=57 velocity=127 time=11
note_on channel=1 note=69 velocity=127 time=20
note_off channel=1 note=64 velocity=0 time=276
note_off channel=1 note=57 velocity=0 time=0
note_on channel=1 note=55 velocity=127 time=5
note_off channel=1 note=55 velocity=0 time=144
note_off channel=1 note=69 velocity=0 time=8
note_on channel=1 note=69 velocity=127 time=4
note_on channel=1 note=58 velocity=127 time=2
note_on channel=1 note=65 velocity=127 time=12
note_off channel=1 note=58 velocity=0 time=60
note_on channel=1 note=57 velocity=127 time=3
note_off channel=1 note=65 velocity=0 time=24
note_on channel=1 note=64 velocity=127 time=3
note_off channel=1 note=69 velocity=0 time=376
note_off channel=1 note=64 velocity=0 time=0
note_on channel=1 note=69 velocity=60 time=36
note_on channel=1 note=64 velocity=127 time=9
note_on channel=1 note=81 velocity=60 time=0
note_on channel=1 note=76 velocity=127 time=0
note_on channel=1 note=57 velocity=127 time=16
note_on channel=1 note=69 velocity=127 time=3
note_off channel=1 note=57 velocity=0 time=16
note_off channel=1 note=69 velocity=0 time=172
note_off channel=1 note=81 velocity=0 time=0
note_off channel=1 note=64 velocity=0 time=8
note_off channel=1 note=76 velocity=0 time=0
note_off channel=1 note=57 velocity=0 time=84
note_off channel=1 note=69 velocity=0 time=0
note_on channel=1 note=59 velocity=127 time=0
note_on channel=1 note=71 velocity=127 time=0
note_off channel=1 note=59 velocity=0 time=16
note_off channel=1 note=71 velocity=0 time=0
note_on channel=1 note=52 velocity=127 time=4
note_on channel=1 note=59 velocity=127 time=1
note_on channel=1 note=64 velocity=127 time=0
note_on channel=1 note=71 velocity=127 time=0
note_off channel=1 note=59 velocity=0 time=108
note_off channel=1 note=71 velocity=0 time=0
note_on channel=1 note=59 velocity=127 time=69
note_on channel=1 note=71 velocity=127 time=16
note_on channel=1 note=66 velocity=127 time=4
note_on channel=1 note=71 velocity=77 time=1
note_on channel=1 note=78 velocity=127 time=0
note_on channel=1 note=83 velocity=77 time=0
note_off channel=1 note=52 velocity=0 time=44
note_off channel=1 note=64 velocity=0 time=0
note_off channel=1 note=59 velocity=0 time=228
note_off channel=1 note=71 velocity=0 time=0
note_off channel=1 note=66 velocity=0 time=60
note_off channel=1 note=78 velocity=0 time=0
note_off channel=1 note=71 velocity=0 time=4
note_off channel=1 note=83 velocity=0 time=0
note_on channel=1 note=69 velocity=45 time=0
note_on channel=1 note=81 velocity=45 time=0
note_on channel=1 note=64 velocity=127 time=11
note_on channel=1 note=76 velocity=127 time=2
note_on channel=1 note=57 velocity=127 time=20
note_on channel=1 note=69 velocity=127 time=5
note_off channel=1 note=64 velocity=0 time=112
note_off channel=1 note=76 velocity=0 time=0
note_off channel=1 note=69 velocity=0 time=8
note_off channel=1 note=81 velocity=0 time=0
note_on channel=1 note=67 velocity=40 time=0
note_on channel=1 note=79 velocity=40 time=0
note_off channel=1 note=67 velocity=0 time=76
note_off channel=1 note=79 velocity=0 time=0
note_on channel=1 note=66 velocity=127 time=4
note_on channel=1 note=67 velocity=103 time=0
note_on channel=1 note=78 velocity=127 time=0
note_on channel=1 note=79 velocity=103 time=0
note_off channel=1 note=57 velocity=0 time=20
note_off channel=1 note=69 velocity=0 time=0
note_off channel=1 note=67 velocity=0 time=0
note_off channel=1 note=79 velocity=0 time=0
note_on channel=1 note=59 velocity=127 time=0
note_on channel=1 note=71 velocity=100 time=0
note_on channel=1 note=71 velocity=127 time=0
note_on channel=1 note=83 velocity=100 time=0
note_off channel=1 note=59 velocity=0 time=112
note_off channel=1 note=71 velocity=0 time=0
note_off channel=1 note=71 velocity=0 time=0
note_off channel=1 note=83 velocity=0 time=0
note_off channel=1 note=66 velocity=0 time=4
note_off channel=1 note=78 velocity=0 time=0
note_on channel=1 note=69 velocity=60 time=346
note_on channel=1 note=64 velocity=127 time=48
note_on channel=1 note=81 velocity=60 time=0
note_on channel=1 note=76 velocity=127 time=0
note_on channel=1 note=57 velocity=127 time=16
note_on channel=1 note=69 velocity=127 time=0
note_off channel=1 note=69 velocity=0 time=188
note_off channel=1 note=81 velocity=0 time=0
note_off channel=1 note=64 velocity=0 time=8
note_off channel=1 note=76 velocity=0 time=0
note_off channel=1 note=57 velocity=0 time=84
note_off channel=1 note=69 velocity=0 time=0
note_on channel=1 note=59 velocity=127 time=0
note_on channel=1 note=71 velocity=127 time=0
note_off channel=1 note=59 velocity=0 time=16
note_off channel=1 note=71 velocity=0 time=0
note_on channel=1 note=52 velocity=127 time=3
note_on channel=1 note=59 velocity=127 time=0
note_on channel=1 note=64 velocity=127 time=0
note_on channel=1 note=71 velocity=127 time=0
note_off channel=1 note=59 velocity=0 time=108
note_off channel=1 note=71 velocity=0 time=0
note_on channel=1 note=59 velocity=127 time=70
note_on channel=1 note=71 velocity=127 time=0
note_on channel=1 note=66 velocity=127 time=3
note_on channel=1 note=71 velocity=77 time=0
note_on channel=1 note=78 velocity=127 time=0
note_on channel=1 note=83 velocity=77 time=0
note_off channel=1 note=52 velocity=0 time=44
note_off channel=1 note=64 velocity=0 time=0
note_off channel=1 note=59 velocity=0 time=228
note_off channel=1 note=71 velocity=0 time=0
note_off channel=1 note=66 velocity=0 time=60
note_off channel=1 note=78 velocity=0 time=0
note_off channel=1 note=71 velocity=0 time=4
note_off channel=1 note=83 velocity=0 time=0
note_on channel=1 note=69 velocity=45 time=0
note_on channel=1 note=81 velocity=45 time=0
note_on channel=1 note=64 velocity=127 time=12
note_on channel=1 note=76 velocity=127 time=0
note_on channel=1 note=57 velocity=127 time=20
note_on channel=1 note=69 velocity=127 time=0
note_off channel=1 note=64 velocity=0 time=112
note_off channel=1 note=76 velocity=0 time=0
note_off channel=1 note=69 velocity=0 time=8
note_off channel=1 note=81 velocity=0 time=0
note_on channel=1 note=67 velocity=40 time=0
note_on channel=1 note=79 velocity=40 time=0
note_off channel=1 note=67 velocity=0 time=76
note_off channel=1 note=79 velocity=0 time=0
note_on channel=1 note=66 velocity=127 time=4
note_on channel=1 note=67 velocity=103 time=0
note_on channel=1 note=78 velocity=127 time=0
note_on channel=1 note=79 velocity=103 time=0
note_off channel=1 note=57 velocity=0 time=20
note_off channel=1 note=69 velocity=0 time=0
note_off channel=1 note=67 velocity=0 time=0
note_off channel=1 note=79 velocity=0 time=0
note_on channel=1 note=59 velocity=127 time=0
note_on channel=1 note=71 velocity=100 time=0
note_on channel=1 note=71 velocity=127 time=0
note_on channel=1 note=83 velocity=100 time=0
note_off channel=1 note=59 velocity=0 time=112
note_off channel=1 note=71 velocity=0 time=0
note_off channel=1 note=71 velocity=0 time=0
note_off channel=1 note=83 velocity=0 time=0
note_off channel=1 note=66 velocity=0 time=4
note_off channel=1 note=78 velocity=0 time=0
note_on channel=1 note=50 velocity=101 time=123
note_on channel=1 note=55 velocity=127 time=0
note_on channel=1 note=67 velocity=119 time=0
note_on channel=1 note=62 velocity=127 time=0
note_on channel=1 note=59 velocity=127 time=0
note_off channel=1 note=50 velocity=0 time=192
note_off channel=1 note=55 velocity=0 time=0
note_off channel=1 note=67 velocity=0 time=0
note_off channel=1 note=62 velocity=0 time=0
note_off channel=1 note=59 velocity=0 time=0
note_on channel=1 note=50 velocity=101 time=98
note_on channel=1 note=55 velocity=127 time=3
note_on channel=1 note=67 velocity=119 time=0
note_on channel=1 note=62 velocity=127 time=0
note_on channel=1 note=59 velocity=127 time=0
note_off channel=1 note=50 velocity=0 time=192
note_off channel=1 note=55 velocity=0 time=0
note_off channel=1 note=67 velocity=0 time=0
note_off channel=1 note=62 velocity=0 time=0
note_off channel=1 note=59 velocity=0 time=0
note_on channel=1 note=50 velocity=101 time=98
note_on channel=1 note=55 velocity=127 time=8
note_on channel=1 note=67 velocity=119 time=0
note_on channel=1 note=62 velocity=127 time=0
note_on channel=1 note=59 velocity=127 time=0
note_off channel=1 note=50 velocity=0 time=192
note_off channel=1 note=55 velocity=0 time=0
note_off channel=1 note=67 velocity=0 time=0
note_off channel=1 note=62 velocity=0 time=0
note_off channel=1 note=59 velocity=0 time=0
note_on channel=1 note=50 velocity=72 time=99
note_on channel=1 note=55 velocity=127 time=13
note_on channel=1 note=59 velocity=127 time=0
note_on channel=1 note=62 velocity=87 time=0
note_on channel=1 note=67 velocity=87 time=0
note_off channel=1 note=50 velocity=0 time=64
note_off channel=1 note=55 velocity=0 time=0
note_off channel=1 note=59 velocity=0 time=0
note_off channel=1 note=62 velocity=0 time=0
note_off channel=1 note=67 velocity=0 time=0
note_on channel=1 note=59 velocity=52 time=32
note_on channel=1 note=67 velocity=87 time=5
note_on channel=1 note=49 velocity=56 time=0
note_off channel=1 note=59 velocity=0 time=64
note_off channel=1 note=67 velocity=0 time=0
note_off channel=1 note=49 velocity=0 time=0
note_on channel=1 note=50 velocity=72 time=32
note_on channel=1 note=59 velocity=127 time=5
note_on channel=1 note=55 velocity=127 time=0
note_on channel=1 note=62 velocity=92 time=0
note_on channel=1 note=67 velocity=95 time=0
note_off channel=1 note=50 velocity=0 time=64
note_off channel=1 note=59 velocity=0 time=0
note_off channel=1 note=55 velocity=0 time=0
note_off channel=1 note=62 velocity=0 time=0
note_off channel=1 note=67 velocity=0 time=0
note_on channel=1 note=50 velocity=85 time=33
note_on channel=1 note=55 velocity=127 time=6
note_on channel=1 note=59 velocity=127 time=0
note_on channel=1 note=62 velocity=88 time=0
note_on channel=1 note=67 velocity=84 time=0
note_off channel=1 note=50 velocity=0 time=128
note_off channel=1 note=55 velocity=0 time=0
note_off channel=1 note=59 velocity=0 time=0
note_off channel=1 note=62 velocity=0 time=0
note_off channel=1 note=67 velocity=0 time=0
note_on channel=1 note=50 velocity=91 time=65
note_on channel=1 note=55 velocity=127 time=12
note_on channel=1 note=59 velocity=127 time=0
note_on channel=1 note=62 velocity=119 time=0
note_on channel=1 note=67 velocity=127 time=0
note_off channel=1 note=50 velocity=0 time=128
note_off channel=1 note=55 velocity=0 time=0
note_off channel=1 note=59 velocity=0 time=0
note_off channel=1 note=62 velocity=0 time=0
note_off channel=1 note=67 velocity=0 time=0
note_on channel=1 note=62 velocity=127 time=65
note_on channel=1 note=69 velocity=127 time=12
note_on channel=1 note=74 velocity=127 time=0
note_on channel=1 note=78 velocity=127 time=0
note_off channel=1 note=62 velocity=0 time=192
note_off channel=1 note=69 velocity=0 time=0
note_off channel=1 note=74 velocity=0 time=0
note_off channel=1 note=78 velocity=0 time=0
note_on channel=1 note=62 velocity=127 time=98
note_on channel=1 note=69 velocity=127 time=16
note_on channel=1 note=74 velocity=127 time=0
note_on channel=1 note=78 velocity=127 time=0
note_off channel=1 note=62 velocity=0 time=192
note_off channel=1 note=69 velocity=0 time=0
note_off channel=1 note=74 velocity=0 time=0
note_off channel=1 note=78 velocity=0 time=0
note_on channel=1 note=62 velocity=127 time=98
note_on channel=1 note=69 velocity=127 time=7
note_on channel=1 note=74 velocity=127 time=0
note_on channel=1 note=78 velocity=91 time=0
note_off channel=1 note=62 velocity=0 time=768
note_off channel=1 note=69 velocity=0 time=0
note_off channel=1 note=74 velocity=0 time=0
note_off channel=1 note=78 velocity=0 time=0
note_on channel=1 note=52 velocity=56 time=196
note_on channel=1 note=59 velocity=75 time=51
note_on channel=1 note=64 velocity=99 time=0
note_on channel=1 note=68 velocity=105 time=0
note_on channel=1 note=71 velocity=121 time=0
note_on channel=1 note=76 velocity=120 time=0
note_off channel=1 note=52 velocity=0 time=1028
note_off channel=1 note=59 velocity=0 time=0
note_off channel=1 note=64 velocity=0 time=0
note_off channel=1 note=68 velocity=0 time=0
note_off channel=1 note=71 velocity=0 time=0
note_off channel=1 note=76 velocity=0 time=0
note_on channel=1 note=52 velocity=56 time=522
note_on channel=1 note=59 velocity=75 time=732
note_on channel=1 note=64 velocity=99 time=0
note_on channel=1 note=68 velocity=105 time=0
note_on channel=1 note=71 velocity=121 time=0
note_on channel=1 note=76 velocity=120 time=0
note_off channel=1 note=52 velocity=0 time=1028
note_off channel=1 note=59 velocity=0 time=0
note_off channel=1 note=64 velocity=0 time=0
note_off channel=1 note=68 velocity=0 time=0
note_off channel=1 note=71 velocity=0 time=0
note_off channel=1 note=76 velocity=0 time=0
note_on channel=1 note=52 velocity=52 time=532
note_on channel=1 note=59 velocity=68 time=44
note_on channel=1 note=64 velocity=101 time=0
note_on channel=1 note=68 velocity=99 time=0
note_on channel=1 note=71 velocity=92 time=0
note_on channel=1 note=76 velocity=64 time=0
note_off channel=1 note=52 velocity=0 time=1028
note_off channel=1 note=59 velocity=0 time=0
note_off channel=1 note=64 velocity=0 time=0
note_off channel=1 note=68 velocity=0 time=0
note_off channel=1 note=71 velocity=0 time=0
note_off channel=1 note=76 velocity=0 time=0
note_on channel=1 note=52 velocity=84 time=531
note_on channel=1 note=59 velocity=88 time=365
note_on channel=1 note=64 velocity=120 time=0
note_on channel=1 note=68 velocity=123 time=0
note_on channel=1 note=71 velocity=124 time=0
note_on channel=1 note=76 velocity=107 time=0
note_off channel=1 note=52 velocity=0 time=1028
note_off channel=1 note=59 velocity=0 time=0
note_off channel=1 note=64 velocity=0 time=0
note_off channel=1 note=68 velocity=0 time=0
note_off channel=1 note=71 velocity=0 time=0
note_off channel=1 note=76 velocity=0 time=0
note_on channel=1 note=57 velocity=81 time=526
note_on channel=1 note=64 velocity=127 time=476
note_on channel=1 note=69 velocity=127 time=0
note_on channel=1 note=73 velocity=112 time=0
note_on channel=1 note=76 velocity=95 time=0
note_off channel=1 note=57 velocity=0 time=1028
note_off channel=1 note=64 velocity=0 time=0
note_off channel=1 note=69 velocity=0 time=0
note_off channel=1 note=73 velocity=0 time=0
note_off channel=1 note=76 velocity=0 time=0
note_on channel=1 note=57 velocity=93 time=533
note_on channel=1 note=64 velocity=127 time=263
note_on channel=1 note=69 velocity=127 time=0
note_on channel=1 note=73 velocity=120 time=0
note_on channel=1 note=76 velocity=113 time=0
note_off channel=1 note=57 velocity=0 time=1028
note_off channel=1 note=64 velocity=0 time=0
note_off channel=1 note=69 velocity=0 time=0
note_off channel=1 note=73 velocity=0 time=0
note_off channel=1 note=76 velocity=0 time=0
note_on channel=1 note=52 velocity=79 time=537
note_on channel=1 note=59 velocity=91 time=399
note_on channel=1 note=64 velocity=117 time=0
note_on channel=1 note=68 velocity=127 time=0
note_on channel=1 note=71 velocity=115 time=0
note_on channel=1 note=76 velocity=96 time=0
note_off channel=1 note=52 velocity=0 time=1028
note_off channel=1 note=59 velocity=0 time=0
note_off channel=1 note=64 velocity=0 time=0
note_off channel=1 note=68 velocity=0 time=0
note_off channel=1 note=71 velocity=0 time=0
note_off channel=1 note=76 velocity=0 time=0
note_on channel=1 note=52 velocity=79 time=542
note_on channel=1 note=59 velocity=91 time=48
note_on channel=1 note=64 velocity=117 time=0
note_on channel=1 note=68 velocity=127 time=0
note_on channel=1 note=71 velocity=115 time=0
note_on channel=1 note=76 velocity=96 time=0
note_off channel=1 note=52 velocity=0 time=1028
note_off channel=1 note=59 velocity=0 time=0
note_off channel=1 note=64 velocity=0 time=0
note_off channel=1 note=68 velocity=0 time=0
note_off channel=1 note=71 velocity=0 time=0
note_off channel=1 note=76 velocity=0 time=0
note_on channel=1 note=69 velocity=60 time=772
note_on channel=1 note=64 velocity=127 time=1305
note_on channel=1 note=81 velocity=60 time=0
note_on channel=1 note=76 velocity=127 time=0
note_on channel=1 note=57 velocity=127 time=16
note_on channel=1 note=69 velocity=127 time=10
note_off channel=1 note=69 velocity=0 time=188
note_off channel=1 note=81 velocity=0 time=0
note_off channel=1 note=64 velocity=0 time=8
note_off channel=1 note=76 velocity=0 time=0
note_off channel=1 note=57 velocity=0 time=84
note_off channel=1 note=69 velocity=0 time=0
note_on channel=1 note=59 velocity=127 time=0
note_on channel=1 note=71 velocity=127 time=0
note_off channel=1 note=59 velocity=0 time=16
note_off channel=1 note=71 velocity=0 time=0
note_on channel=1 note=52 velocity=127 time=3
note_on channel=1 note=59 velocity=127 time=2
note_on channel=1 note=64 velocity=127 time=0
note_on channel=1 note=71 velocity=127 time=0
note_off channel=1 note=59 velocity=0 time=108
note_off channel=1 note=71 velocity=0 time=0
note_on channel=1 note=59 velocity=127 time=70
note_on channel=1 note=71 velocity=127 time=28
note_on channel=1 note=66 velocity=127 time=4
note_on channel=1 note=71 velocity=77 time=1
note_on channel=1 note=78 velocity=127 time=0
note_on channel=1 note=83 velocity=77 time=0
note_off channel=1 note=52 velocity=0 time=44
note_off channel=1 note=64 velocity=0 time=0
note_off channel=1 note=59 velocity=0 time=228
note_off channel=1 note=71 velocity=0 time=0
note_off channel=1 note=66 velocity=0 time=60
note_off channel=1 note=78 velocity=0 time=0
note_off channel=1 note=71 velocity=0 time=4
note_off channel=1 note=83 velocity=0 time=0
note_on channel=1 note=69 velocity=45 time=0
note_on channel=1 note=81 velocity=45 time=0
note_on channel=1 note=64 velocity=127 time=12
note_on channel=1 note=76 velocity=127 time=2
note_on channel=1 note=57 velocity=127 time=20
note_on channel=1 note=69 velocity=127 time=3
note_off channel=1 note=64 velocity=0 time=112
note_off channel=1 note=76 velocity=0 time=0
note_off channel=1 note=69 velocity=0 time=8
note_off channel=1 note=81 velocity=0 time=0
note_on channel=1 note=67 velocity=40 time=0
note_on channel=1 note=79 velocity=40 time=0
note_off channel=1 note=67 velocity=0 time=76
note_off channel=1 note=79 velocity=0 time=0
note_on channel=1 note=66 velocity=127 time=4
note_on channel=1 note=67 velocity=103 time=0
note_on channel=1 note=78 velocity=127 time=0
note_on channel=1 note=79 velocity=103 time=0
note_off channel=1 note=57 velocity=0 time=20
note_off channel=1 note=69 velocity=0 time=0
note_off channel=1 note=67 velocity=0 time=0
note_off channel=1 note=79 velocity=0 time=0
note_on channel=1 note=59 velocity=127 time=0
note_on channel=1 note=71 velocity=100 time=0
note_on channel=1 note=71 velocity=127 time=0
note_on channel=1 note=83 velocity=100 time=0
note_off channel=1 note=59 velocity=0 time=112
note_off channel=1 note=71 velocity=0 time=0
note_off channel=1 note=71 velocity=0 time=0
note_off channel=1 note=83 velocity=0 time=0
note_off channel=1 note=66 velocity=0 time=4
note_off channel=1 note=78 velocity=0 time=0
note_on channel=1 note=69 velocity=60 time=346
note_on channel=1 note=64 velocity=127 time=5
note_on channel=1 note=81 velocity=60 time=0
note_on channel=1 note=76 velocity=127 time=0
note_on channel=1 note=57 velocity=127 time=16
note_on channel=1 note=69 velocity=127 time=1
note_off channel=1 note=69 velocity=0 time=188
note_off channel=1 note=81 velocity=0 time=0
note_off channel=1 note=64 velocity=0 time=8
note_off channel=1 note=76 velocity=0 time=0
note_off channel=1 note=57 velocity=0 time=84
note_off channel=1 note=69 velocity=0 time=0
note_on channel=1 note=59 velocity=127 time=0
note_on channel=1 note=71 velocity=127 time=0
note_off channel=1 note=59 velocity=0 time=16
note_off channel=1 note=71 velocity=0 time=0
note_on channel=1 note=52 velocity=127 time=3
note_on channel=1 note=59 velocity=127 time=0
note_on channel=1 note=64 velocity=127 time=0
note_on channel=1 note=71 velocity=127 time=0
note_off channel=1 note=59 velocity=0 time=108
note_off channel=1 note=71 velocity=0 time=0
note_on channel=1 note=59 velocity=127 time=70
note_on channel=1 note=71 velocity=127 time=9
note_on channel=1 note=66 velocity=127 time=3
note_on channel=1 note=71 velocity=77 time=0
note_on channel=1 note=78 velocity=127 time=0
note_on channel=1 note=83 velocity=77 time=0
note_off channel=1 note=52 velocity=0 time=44
note_off channel=1 note=64 velocity=0 time=0
note_off channel=1 note=59 velocity=0 time=228
note_off channel=1 note=71 velocity=0 time=0
note_off channel=1 note=66 velocity=0 time=60
note_off channel=1 note=78 velocity=0 time=0
note_off channel=1 note=71 velocity=0 time=4
note_off channel=1 note=83 velocity=0 time=0
note_on channel=1 note=69 velocity=45 time=0
note_on channel=1 note=81 velocity=45 time=0
note_on channel=1 note=64 velocity=127 time=12
note_on channel=1 note=76 velocity=127 time=2
note_on channel=1 note=57 velocity=127 time=20
note_on channel=1 note=69 velocity=127 time=3
note_off channel=1 note=64 velocity=0 time=112
note_off channel=1 note=76 velocity=0 time=0
note_off channel=1 note=69 velocity=0 time=8
note_off channel=1 note=81 velocity=0 time=0
note_on channel=1 note=67 velocity=40 time=0
note_on channel=1 note=79 velocity=40 time=0
note_off channel=1 note=67 velocity=0 time=76
note_off channel=1 note=79 velocity=0 time=0
note_on channel=1 note=66 velocity=127 time=3
note_on channel=1 note=67 velocity=103 time=0
note_on channel=1 note=78 velocity=127 time=0
note_on channel=1 note=79 velocity=103 time=0
note_off channel=1 note=57 velocity=0 time=20
note_off channel=1 note=69 velocity=0 time=0
note_off channel=1 note=67 velocity=0 time=0
note_off channel=1 note=79 velocity=0 time=0
note_on channel=1 note=59 velocity=127 time=0
note_on channel=1 note=71 velocity=100 time=0
note_on channel=1 note=71 velocity=127 time=0
note_on channel=1 note=83 velocity=100 time=0
note_off channel=1 note=59 velocity=0 time=112
note_off channel=1 note=71 velocity=0 time=0
note_off channel=1 note=71 velocity=0 time=0
note_off channel=1 note=83 velocity=0 time=0
note_off channel=1 note=66 velocity=0 time=4
note_off channel=1 note=78 velocity=0 time=0
note_on channel=1 note=74 velocity=32 time=272
note_on channel=1 note=67 velocity=127 time=130
note_on channel=1 note=79 velocity=127 time=23
note_on channel=1 note=62 velocity=127 time=42
note_off channel=1 note=79 velocity=0 time=112
note_off channel=1 note=74 velocity=0 time=8
note_off channel=1 note=67 velocity=0 time=120
note_off channel=1 note=62 velocity=0 time=32
note_on channel=1 note=62 velocity=127 time=29
note_on channel=1 note=78 velocity=127 time=19
note_on channel=1 note=74 velocity=127 time=12
note_on channel=1 note=69 velocity=127 time=12
note_off channel=1 note=69 velocity=0 time=108
note_off channel=1 note=78 velocity=0 time=8
note_off channel=1 note=74 velocity=0 time=12
note_off channel=1 note=62 velocity=0 time=120
note_on channel=1 note=62 velocity=127 time=12
note_on channel=1 note=57 velocity=127 time=15
note_on channel=1 note=69 velocity=127 time=22
note_off channel=1 note=62 velocity=0 time=28
note_on channel=1 note=64 velocity=127 time=9
note_off channel=1 note=57 velocity=0 time=228
note_off channel=1 note=64 velocity=0 time=36
note_on channel=1 note=55 velocity=127 time=3
note_on channel=1 note=60 velocity=127 time=19
note_off channel=1 note=60 velocity=0 time=0
note_off channel=1 note=55 velocity=0 time=116
note_off channel=1 note=69 velocity=0 time=12
note_on channel=1 note=69 velocity=127 time=18
note_on channel=1 note=57 velocity=127 time=15
note_on channel=1 note=64 velocity=127 time=19
note_on channel=1 note=69 velocity=127 time=298
note_on channel=1 note=57 velocity=127 time=296
note_on channel=1 note=64 velocity=127 time=0
note_on channel=1 note=57 velocity=127 time=0
note_off channel=1 note=69 velocity=0 time=80
note_off channel=1 note=69 velocity=0 time=0
note_off channel=1 note=64 velocity=0 time=4
note_off channel=1 note=64 velocity=0 time=0
note_on channel=1 note=79 velocity=127 time=70
note_off channel=1 note=57 velocity=0 time=4
note_on channel=1 note=74 velocity=127 time=60
note_on channel=1 note=55 velocity=127 time=3
note_on channel=1 note=62 velocity=127 time=8
note_on channel=1 note=67 velocity=127 time=33
note_off channel=1 note=55 velocity=0 time=96
note_off channel=1 note=74 velocity=0 time=20
note_off channel=1 note=79 velocity=0 time=4
note_off channel=1 note=57 velocity=0 time=128
note_off channel=1 note=57 velocity=0 time=0
note_off channel=1 note=67 velocity=0 time=0
note_on channel=1 note=78 velocity=127 time=50
note_on channel=1 note=74 velocity=127 time=15
note_on channel=1 note=69 velocity=127 time=0
note_on channel=1 note=62 velocity=127 time=3
note_off channel=1 note=62 velocity=127 time=128
note_off channel=1 note=69 velocity=0 time=20
note_off channel=1 note=78 velocity=0 time=20
note_off channel=1 note=74 velocity=0 time=24
note_off channel=1 note=62 velocity=0 time=84
note_on channel=1 note=64 velocity=127 time=1
note_on channel=1 note=57 velocity=127 time=12
note_on channel=1 note=69 velocity=127 time=29
note_off channel=1 note=64 velocity=0 time=276
note_off channel=1 note=57 velocity=0 time=0
note_on channel=1 note=55 velocity=127 time=18
note_off channel=1 note=55 velocity=0 time=144
note_off channel=1 note=69 velocity=0 time=8
note_on channel=1 note=69 velocity=127 time=10
note_on channel=1 note=58 velocity=127 time=0
note_on channel=1 note=65 velocity=127 time=12
note_off channel=1 note=58 velocity=0 time=60
note_on channel=1 note=57 velocity=127 time=0
note_off channel=1 note=65 velocity=0 time=24
note_on channel=1 note=64 velocity=127 time=3
note_off channel=1 note=69 velocity=0 time=376
note_off channel=1 note=64 velocity=0 time=0
note_on channel=1 note=69 velocity=60 time=37
note_on channel=1 note=64 velocity=127 time=3
note_on channel=1 note=81 velocity=60 time=0
note_on channel=1 note=76 velocity=127 time=0
note_on channel=1 note=57 velocity=127 time=16
note_on channel=1 note=69 velocity=127 time=3
note_off channel=1 note=57 velocity=0 time=16
note_off channel=1 note=69 velocity=0 time=172
note_off channel=1 note=81 velocity=0 time=0
note_off channel=1 note=64 velocity=0 time=8
note_off channel=1 note=76 velocity=0 time=0
note_off channel=1 note=57 velocity=0 time=84
note_off channel=1 note=69 velocity=0 time=0
note_on channel=1 note=59 velocity=127 time=0
note_on channel=1 note=71 velocity=127 time=0
note_off channel=1 note=59 velocity=0 time=16
note_off channel=1 note=71 velocity=0 time=0
note_on channel=1 note=52 velocity=127 time=4
note_on channel=1 note=59 velocity=127 time=1
note_on channel=1 note=64 velocity=127 time=0
note_on channel=1 note=71 velocity=127 time=0
note_off channel=1 note=59 velocity=0 time=108
note_off channel=1 note=71 velocity=0 time=0
note_on channel=1 note=59 velocity=127 time=71
note_on channel=1 note=71 velocity=127 time=28
note_on channel=1 note=66 velocity=127 time=4
note_on channel=1 note=71 velocity=77 time=2
note_on channel=1 note=78 velocity=127 time=0
note_on channel=1 note=83 velocity=77 time=0
note_off channel=1 note=52 velocity=0 time=44
note_off channel=1 note=64 velocity=0 time=0
note_off channel=1 note=59 velocity=0 time=228
note_off channel=1 note=71 velocity=0 time=0
note_off channel=1 note=66 velocity=0 time=60
note_off channel=1 note=78 velocity=0 time=0
note_off channel=1 note=71 velocity=0 time=4
note_off channel=1 note=83 velocity=0 time=0
note_on channel=1 note=69 velocity=45 time=0
note_on channel=1 note=81 velocity=45 time=0
note_on channel=1 note=64 velocity=127 time=12
note_on channel=1 note=76 velocity=127 time=6
note_on channel=1 note=57 velocity=127 time=21
note_on channel=1 note=69 velocity=127 time=13
note_off channel=1 note=64 velocity=0 time=112
note_off channel=1 note=76 velocity=0 time=0
note_off channel=1 note=69 velocity=0 time=8
note_off channel=1 note=81 velocity=0 time=0
note_on channel=1 note=67 velocity=40 time=0
note_on channel=1 note=79 velocity=40 time=0
note_off channel=1 note=67 velocity=0 time=76
note_off channel=1 note=79 velocity=0 time=0
note_on channel=1 note=66 velocity=127 time=3
note_on channel=1 note=67 velocity=103 time=2
note_on channel=1 note=78 velocity=127 time=0
note_on channel=1 note=79 velocity=103 time=0
note_off channel=1 note=57 velocity=0 time=20
note_off channel=1 note=69 velocity=0 time=0
note_off channel=1 note=67 velocity=0 time=0
note_off channel=1 note=79 velocity=0 time=0
note_on channel=1 note=59 velocity=127 time=0
note_on channel=1 note=71 velocity=100 time=0
note_on channel=1 note=71 velocity=127 time=0
note_on channel=1 note=83 velocity=100 time=0
note_off channel=1 note=59 velocity=0 time=112
note_off channel=1 note=71 velocity=0 time=0
note_off channel=1 note=71 velocity=0 time=0
note_off channel=1 note=83 velocity=0 time=0
note_off channel=1 note=66 velocity=0 time=4
note_off channel=1 note=78 velocity=0 time=0
note_on channel=1 note=69 velocity=60 time=351
note_on channel=1 note=64 velocity=127 time=239
note_on channel=1 note=81 velocity=60 time=0
note_on channel=1 note=76 velocity=127 time=0
note_on channel=1 note=57 velocity=127 time=16
note_on channel=1 note=69 velocity=127 time=5
note_off channel=1 note=69 velocity=0 time=188
note_off channel=1 note=81 velocity=0 time=0
note_off channel=1 note=64 velocity=0 time=8
note_off channel=1 note=76 velocity=0 time=0
note_off channel=1 note=57 velocity=0 time=84
note_off channel=1 note=69 velocity=0 time=0
note_on channel=1 note=59 velocity=127 time=0
note_on channel=1 note=71 velocity=127 time=0
note_off channel=1 note=59 velocity=0 time=16
note_off channel=1 note=71 velocity=0 time=0
note_on channel=1 note=52 velocity=127 time=4
note_on channel=1 note=59 velocity=127 time=1
note_on channel=1 note=64 velocity=127 time=0
note_on channel=1 note=71 velocity=127 time=0
note_off channel=1 note=59 velocity=0 time=108
note_off channel=1 note=71 velocity=0 time=0
note_on channel=1 note=59 velocity=127 time=70
note_on channel=1 note=71 velocity=127 time=13
note_on channel=1 note=66 velocity=127 time=4
note_on channel=1 note=71 velocity=77 time=0
note_on channel=1 note=78 velocity=127 time=0
note_on channel=1 note=83 velocity=77 time=0
note_off channel=1 note=52 velocity=0 time=44
note_off channel=1 note=64 velocity=0 time=0
note_off channel=1 note=59 velocity=0 time=228
note_off channel=1 note=71 velocity=0 time=0
note_off channel=1 note=66 velocity=0 time=60
note_off channel=1 note=78 velocity=0 time=0
note_off channel=1 note=71 velocity=0 time=4
note_off channel=1 note=83 velocity=0 time=0
note_on channel=1 note=69 velocity=45 time=0
note_on channel=1 note=81 velocity=45 time=0
note_on channel=1 note=64 velocity=127 time=12
note_on channel=1 note=76 velocity=127 time=0
note_on channel=1 note=57 velocity=127 time=20
note_on channel=1 note=69 velocity=127 time=1
note_off channel=1 note=64 velocity=0 time=112
note_off channel=1 note=76 velocity=0 time=0
note_off channel=1 note=69 velocity=0 time=8
note_off channel=1 note=81 velocity=0 time=0
note_on channel=1 note=67 velocity=40 time=0
note_on channel=1 note=79 velocity=40 time=0
note_off channel=1 note=67 velocity=0 time=76
note_off channel=1 note=79 velocity=0 time=0
note_on channel=1 note=66 velocity=127 time=4
note_on channel=1 note=67 velocity=103 time=0
note_on channel=1 note=78 velocity=127 time=0
note_on channel=1 note=79 velocity=103 time=0
note_off channel=1 note=57 velocity=0 time=20
note_off channel=1 note=69 velocity=0 time=0
note_off channel=1 note=67 velocity=0 time=0
note_off channel=1 note=79 velocity=0 time=0
note_on channel=1 note=59 velocity=127 time=0
note_on channel=1 note=71 velocity=100 time=0
note_on channel=1 note=71 velocity=127 time=0
note_on channel=1 note=83 velocity=100 time=0
note_off channel=1 note=59 velocity=0 time=112
note_off channel=1 note=71 velocity=0 time=0
note_off channel=1 note=71 velocity=0 time=0
note_off channel=1 note=83 velocity=0 time=0
note_off channel=1 note=66 velocity=0 time=4
note_off channel=1 note=78 velocity=0 time=0
note_on channel=1 note=55 velocity=87 time=124
note_on channel=1 note=60 velocity=101 time=53
note_on channel=1 note=62 velocity=127 time=0
note_on channel=1 note=67 velocity=127 time=0
note_on channel=1 note=71 velocity=127 time=0
note_on channel=1 note=79 velocity=127 time=0
note_off channel=1 note=55 velocity=0 time=768
note_off channel=1 note=60 velocity=0 time=0
note_off channel=1 note=62 velocity=0 time=0
note_off channel=1 note=67 velocity=0 time=0
note_off channel=1 note=71 velocity=0 time=0
note_off channel=1 note=79 velocity=0 time=0
note_on channel=1 note=62 velocity=76 time=399
note_on channel=1 note=71 velocity=60 time=604
note_on channel=1 note=67 velocity=60 time=0
note_on channel=1 note=79 velocity=48 time=0
note_off channel=1 note=62 velocity=0 time=64
note_off channel=1 note=71 velocity=0 time=0
note_off channel=1 note=67 velocity=0 time=0
note_off channel=1 note=79 velocity=0 time=0
note_on channel=1 note=62 velocity=72 time=34
note_on channel=1 note=67 velocity=79 time=48
note_on channel=1 note=71 velocity=89 time=0
note_on channel=1 note=79 velocity=76 time=0
note_off channel=1 note=62 velocity=0 time=64
note_off channel=1 note=67 velocity=0 time=0
note_off channel=1 note=71 velocity=0 time=0
note_off channel=1 note=79 velocity=0 time=0
note_on channel=1 note=55 velocity=42 time=33
note_on channel=1 note=62 velocity=92 time=41
note_on channel=1 note=67 velocity=112 time=0
note_on channel=1 note=71 velocity=108 time=0
note_on channel=1 note=79 velocity=97 time=0
note_off channel=1 note=55 velocity=0 time=128
note_off channel=1 note=62 velocity=0 time=0
note_off channel=1 note=67 velocity=0 time=0
note_off channel=1 note=71 velocity=0 time=0
note_off channel=1 note=79 velocity=0 time=0
note_on channel=1 note=62 velocity=91 time=67
note_on channel=1 note=81 velocity=42 time=58
note_on channel=1 note=62 velocity=103 time=0
note_on channel=1 note=69 velocity=105 time=0
note_on channel=1 note=74 velocity=105 time=0
note_on channel=1 note=78 velocity=88 time=0
note_off channel=1 note=62 velocity=0 time=1028
note_off channel=1 note=81 velocity=0 time=0
note_off channel=1 note=62 velocity=0 time=0
note_off channel=1 note=69 velocity=0 time=0
note_off channel=1 note=74 velocity=0 time=0
note_off channel=1 note=78 velocity=0 time=0
note_on channel=1 note=57 velocity=127 time=538
note_on channel=1 note=64 velocity=127 time=274
note_on channel=1 note=81 velocity=34 time=0
note_on channel=1 note=57 velocity=77 time=0
note_on channel=1 note=64 velocity=84 time=0
note_off channel=1 note=57 velocity=0 time=1028
note_off channel=1 note=64 velocity=0 time=0
note_off channel=1 note=81 velocity=0 time=0
note_off channel=1 note=57 velocity=0 time=512
note_off channel=1 note=64 velocity=0 time=0
note_on channel=1 note=40 velocity=127 time=1613
note_on channel=1 note=64 velocity=127 time=294
note_on channel=1 note=52 velocity=127 time=0
note_on channel=1 note=59 velocity=127 time=3
note_off channel=1 note=40 velocity=0 time=176
note_off channel=1 note=52 velocity=0 time=12
note_off channel=1 note=59 velocity=0 time=8
note_off channel=1 note=64 velocity=0 time=4
note_on channel=1 note=50 velocity=127 time=416
note_on channel=1 note=57 velocity=127 time=1029
note_on channel=1 note=40 velocity=127 time=4
note_on channel=1 note=62 velocity=127 time=6
note_off channel=1 note=57 velocity=0 time=84
note_on channel=1 note=57 velocity=127 time=0
note_off channel=1 note=50 velocity=0 time=84
note_off channel=1 note=57 velocity=0 time=4
note_on channel=1 note=50 velocity=127 time=0
note_off channel=1 note=62 velocity=0 time=8
note_on channel=1 note=57 velocity=127 time=0
note_on channel=1 note=62 velocity=127 time=4
note_off channel=1 note=50 velocity=0 time=176
note_off channel=1 note=57 velocity=0 time=12
note_off channel=1 note=62 velocity=0 time=4
note_off channel=1 note=40 velocity=0 time=28
note_on channel=1 note=49 velocity=127 time=340
note_on channel=1 note=62 velocity=127 time=182
note_on channel=1 note=57 velocity=127 time=1
note_on channel=1 note=40 velocity=127 time=0
note_off channel=1 note=57 velocity=0 time=96
note_on channel=1 note=57 velocity=127 time=4
note_on channel=1 note=40 velocity=127 time=62
note_off channel=1 note=40 velocity=0 time=8
note_on channel=1 note=66 velocity=127 time=58
note_off channel=1 note=49 velocity=0 time=192
note_off channel=1 note=66 velocity=0 time=0
note_off channel=1 note=62 velocity=0 time=12
note_off channel=1 note=57 velocity=0 time=0
note_off channel=1 note=40 velocity=0 time=136
note_on channel=1 note=59 velocity=127 time=256
note_on channel=1 note=52 velocity=127 time=153
note_on channel=1 note=40 velocity=127 time=0
note_on channel=1 note=64 velocity=127 time=19
note_off channel=1 note=59 velocity=0 time=60
note_on channel=1 note=59 velocity=127 time=14
note_off channel=1 note=40 velocity=0 time=48
note_off channel=1 note=52 velocity=0 time=24
note_off channel=1 note=64 velocity=0 time=4
note_on channel=1 note=64 velocity=127 time=30
note_on channel=1 note=68 velocity=127 time=21
note_off channel=1 note=68 velocity=0 time=144
note_off channel=1 note=64 velocity=0 time=12
note_off channel=1 note=59 velocity=0 time=8
note_on channel=1 note=59 velocity=127 time=27
note_on channel=1 note=52 velocity=127 time=10
note_on channel=1 note=40 velocity=127 time=0
note_on channel=1 note=64 velocity=127 time=20
note_off channel=1 note=59 velocity=0 time=60
note_on channel=1 note=59 velocity=127 time=11
note_off channel=1 note=64 velocity=0 time=104
note_on channel=1 note=64 velocity=127 time=1
note_on channel=1 note=68 velocity=127 time=8
note_off channel=1 note=68 velocity=0 time=144
note_off channel=1 note=64 velocity=0 time=12
note_off channel=1 note=52 velocity=0 time=4
note_off channel=1 note=59 velocity=0 time=4
note_on channel=1 note=59 velocity=127 time=28
note_on channel=1 note=52 velocity=127 time=8
note_on channel=1 note=40 velocity=127 time=0
note_on channel=1 note=64 velocity=127 time=20
note_off channel=1 note=59 velocity=0 time=60
note_on channel=1 note=59 velocity=127 time=11
note_off channel=1 note=40 velocity=0 time=8
note_on channel=1 note=40 velocity=127 time=78
note_on channel=1 note=64 velocity=127 time=23
note_on channel=1 note=52 velocity=127 time=0
note_on channel=1 note=59 velocity=127 time=4
note_off channel=1 note=64 velocity=0 time=16
note_off channel=1 note=40 velocity=0 time=160
note_off channel=1 note=52 velocity=0 time=8
note_off channel=1 note=59 velocity=0 time=4
note_off channel=1 note=52 velocity=0 time=0
note_off channel=1 note=59 velocity=0 time=8
note_off channel=1 note=64 velocity=0 time=4
note_off channel=1 note=40 velocity=0 time=104
note_on channel=1 note=50 velocity=127 time=316
note_on channel=1 note=57 velocity=127 time=80
note_on channel=1 note=40 velocity=127 time=3
note_on channel=1 note=62 velocity=127 time=0
note_off channel=1 note=57 velocity=0 time=84
note_on channel=1 note=57 velocity=127 time=0
note_off channel=1 note=50 velocity=0 time=84
note_off channel=1 note=57 velocity=0 time=4
note_on channel=1 note=50 velocity=127 time=0
note_off channel=1 note=62 velocity=0 time=8
note_on channel=1 note=57 velocity=127 time=0
note_on channel=1 note=62 velocity=127 time=4
note_off channel=1 note=50 velocity=0 time=176
note_off channel=1 note=57 velocity=0 time=12
note_off channel=1 note=62 velocity=0 time=4
note_off channel=1 note=40 velocity=0 time=28
note_on channel=1 note=49 velocity=127 time=349
note_on channel=1 note=62 velocity=127 time=134
note_on channel=1 note=57 velocity=127 time=2
note_on channel=1 note=40 velocity=127 time=0
note_off channel=1 note=57 velocity=0 time=96
note_on channel=1 note=57 velocity=127 time=3
note_on channel=1 note=40 velocity=127 time=63
note_off channel=1 note=40 velocity=0 time=8
note_off channel=1 note=40 velocity=0 time=0
note_on channel=1 note=66 velocity=127 time=57
note_off channel=1 note=49 velocity=0 time=192
note_off channel=1 note=66 velocity=0 time=0
note_off channel=1 note=62 velocity=0 time=12
note_off channel=1 note=57 velocity=0 time=0
note_on channel=1 note=52 velocity=127 time=396
note_on channel=1 note=59 velocity=127 time=50
note_on channel=1 note=57 velocity=127 time=166
note_on channel=1 note=73 velocity=127 time=138
note_on channel=1 note=69 velocity=127 time=0
note_on channel=1 note=64 velocity=127 time=0
note_off channel=1 note=52 velocity=0 time=24
note_off channel=1 note=59 velocity=0 time=8
note_off channel=1 note=64 velocity=0 time=232
note_off channel=1 note=73 velocity=0 time=8
note_off channel=1 note=69 velocity=0 time=12
note_on channel=1 note=52 velocity=127 time=0
note_on channel=1 note=68 velocity=127 time=0
note_on channel=1 note=71 velocity=127 time=0
note_on channel=1 note=59 velocity=127 time=0
note_on channel=1 note=64 velocity=127 time=0
note_off channel=1 note=57 velocity=0 time=4
note_off channel=1 note=59 velocity=0 time=248
note_off channel=1 note=71 velocity=0 time=16
note_off channel=1 note=64 velocity=0 time=0
note_off channel=1 note=52 velocity=0 time=24
note_off channel=1 note=68 velocity=127 time=4
note_on channel=1 note=52 velocity=127 time=16
note_on channel=1 note=57 velocity=127 time=16
note_on channel=1 note=73 velocity=127 time=8
note_on channel=1 note=69 velocity=127 time=8
note_on channel=1 note=78 velocity=127 time=0
note_on channel=1 note=64 velocity=127 time=3
note_on channel=1 note=40 velocity=127 time=160
note_on channel=1 note=64 velocity=127 time=163
note_on channel=1 note=52 velocity=127 time=0
note_on channel=1 note=59 velocity=127 time=3
note_off channel=1 note=52 velocity=0 time=16
note_off channel=1 note=57 velocity=0 time=0
note_off channel=1 note=78 velocity=0 time=4
note_off channel=1 note=64 velocity=0 time=0
note_off channel=1 note=69 velocity=0 time=20
note_off channel=1 note=73 velocity=0 time=4
note_off channel=1 note=40 velocity=0 time=132
note_off channel=1 note=52 velocity=0 time=12
note_off channel=1 note=59 velocity=0 time=8
note_off channel=1 note=64 velocity=0 time=4
note_on channel=1 note=50 velocity=127 time=419
note_on channel=1 note=57 velocity=127 time=249
note_on channel=1 note=40 velocity=127 time=3
note_on channel=1 note=62 velocity=127 time=7
note_off channel=1 note=57 velocity=0 time=84
note_on channel=1 note=57 velocity=127 time=0
note_off channel=1 note=50 velocity=0 time=84
note_off channel=1 note=57 velocity=0 time=4
note_on channel=1 note=50 velocity=127 time=0
note_off channel=1 note=62 velocity=0 time=8
note_on channel=1 note=57 velocity=127 time=0
note_on channel=1 note=62 velocity=127 time=4
note_off channel=1 note=50 velocity=0 time=176
note_off channel=1 note=57 velocity=0 time=12
note_off channel=1 note=62 velocity=0 time=4
note_off channel=1 note=40 velocity=0 time=28
note_on channel=1 note=49 velocity=127 time=358
note_on channel=1 note=62 velocity=127 time=836
note_on channel=1 note=57 velocity=127 time=9
note_on channel=1 note=40 velocity=127 time=0
note_off channel=1 note=57 velocity=0 time=96
note_on channel=1 note=57 velocity=127 time=3
note_on channel=1 note=40 velocity=127 time=69
note_off channel=1 note=40 velocity=0 time=8
note_on channel=1 note=66 velocity=127 time=126
note_off channel=1 note=49 velocity=0 time=192
note_off channel=1 note=66 velocity=0 time=0
note_off channel=1 note=62 velocity=0 time=12
note_off channel=1 note=57 velocity=0 time=0
note_off channel=1 note=40 velocity=0 time=136
note_on channel=1 note=59 velocity=127 time=280
note_on channel=1 note=52 velocity=127 time=29
note_on channel=1 note=40 velocity=127 time=0
note_on channel=1 note=64 velocity=127 time=20
note_off channel=1 note=59 velocity=0 time=60
note_on channel=1 note=59 velocity=127 time=12
note_off channel=1 note=40 velocity=0 time=48
note_off channel=1 note=52 velocity=0 time=24
note_off channel=1 note=64 velocity=0 time=4
note_on channel=1 note=64 velocity=127 time=25
note_on channel=1 note=68 velocity=127 time=19
note_off channel=1 note=68 velocity=0 time=144
note_off channel=1 note=64 velocity=0 time=12
note_off channel=1 note=59 velocity=0 time=8
note_on channel=1 note=59 velocity=127 time=16
note_on channel=1 note=52 velocity=127 time=26
note_on channel=1 note=40 velocity=127 time=0
note_on channel=1 note=64 velocity=127 time=21
note_off channel=1 note=59 velocity=0 time=60
note_on channel=1 note=59 velocity=127 time=20
note_off channel=1 note=64 velocity=0 time=104
note_on channel=1 note=64 velocity=127 time=4
note_on channel=1 note=68 velocity=127 time=8
note_off channel=1 note=68 velocity=0 time=144
note_off channel=1 note=64 velocity=0 time=12
note_off channel=1 note=52 velocity=0 time=4
note_off channel=1 note=59 velocity=0 time=4
note_on channel=1 note=59 velocity=127 time=15
note_on channel=1 note=52 velocity=127 time=30
note_on channel=1 note=40 velocity=127 time=0
note_on channel=1 note=64 velocity=127 time=20
note_off channel=1 note=59 velocity=0 time=60
note_on channel=1 note=59 velocity=127 time=20
note_off channel=1 note=40 velocity=0 time=8
note_on channel=1 note=40 velocity=127 time=74
note_on channel=1 note=64 velocity=127 time=98
note_on channel=1 note=52 velocity=127 time=0
note_on channel=1 note=59 velocity=127 time=4
note_off channel=1 note=64 velocity=0 time=16
note_off channel=1 note=40 velocity=0 time=160
note_off channel=1 note=52 velocity=0 time=8
note_off channel=1 note=59 velocity=0 time=4
note_off channel=1 note=52 velocity=0 time=0
note_off channel=1 note=59 velocity=0 time=8
note_off channel=1 note=64 velocity=0 time=4
note_off channel=1 note=40 velocity=0 time=104
note_on channel=1 note=50 velocity=127 time=316
note_on channel=1 note=57 velocity=127 time=196
note_on channel=1 note=40 velocity=127 time=3
note_on channel=1 note=62 velocity=127 time=1
note_off channel=1 note=57 velocity=0 time=84
note_on channel=1 note=57 velocity=127 time=0
note_off channel=1 note=50 velocity=0 time=84
note_off channel=1 note=57 velocity=0 time=4
note_on channel=1 note=50 velocity=127 time=0
note_off channel=1 note=62 velocity=0 time=8
note_on channel=1 note=57 velocity=127 time=0
note_on channel=1 note=62 velocity=127 time=4
note_off channel=1 note=50 velocity=0 time=176
note_off channel=1 note=57 velocity=0 time=12
note_off channel=1 note=62 velocity=0 time=4
note_off channel=1 note=40 velocity=0 time=28
note_on channel=1 note=49 velocity=127 time=355
note_on channel=1 note=62 velocity=127 time=585
note_on channel=1 note=57 velocity=127 time=11
note_on channel=1 note=40 velocity=127 time=0
note_off channel=1 note=57 velocity=0 time=96
note_on channel=1 note=57 velocity=127 time=3
note_on channel=1 note=40 velocity=127 time=72
note_off channel=1 note=40 velocity=0 time=8
note_on channel=1 note=49 velocity=127 time=150
note_on channel=1 note=62 velocity=127 time=0
note_on channel=1 note=57 velocity=127 time=0
note_on channel=1 note=66 velocity=127 time=25
note_off channel=1 note=49 velocity=0 time=192
note_off channel=1 note=49 velocity=0 time=0
note_off channel=1 note=66 velocity=0 time=0
note_off channel=1 note=62 velocity=0 time=12
note_off channel=1 note=57 velocity=0 time=0
note_off channel=1 note=62 velocity=0 time=0
note_off channel=1 note=57 velocity=0 time=0
note_off channel=1 note=40 velocity=0 time=136
note_on channel=1 note=52 velocity=127 time=306
note_on channel=1 note=59 velocity=127 time=255
note_on channel=1 note=57 velocity=127 time=172
note_on channel=1 note=73 velocity=127 time=202
note_on channel=1 note=69 velocity=127 time=0
note_on channel=1 note=64 velocity=127 time=0
note_off channel=1 note=52 velocity=0 time=24
note_off channel=1 note=59 velocity=0 time=8
note_off channel=1 note=64 velocity=0 time=232
note_off channel=1 note=73 velocity=0 time=8
note_off channel=1 note=69 velocity=0 time=12
note_on channel=1 note=52 velocity=127 time=0
note_on channel=1 note=68 velocity=127 time=0
note_on channel=1 note=71 velocity=127 time=0
note_on channel=1 note=59 velocity=127 time=0
note_on channel=1 note=64 velocity=127 time=0
note_off channel=1 note=57 velocity=0 time=4
note_off channel=1 note=59 velocity=0 time=248
note_off channel=1 note=71 velocity=0 time=16
note_off channel=1 note=64 velocity=0 time=0
note_off channel=1 note=52 velocity=0 time=24
note_off channel=1 note=68 velocity=127 time=4
note_on channel=1 note=52 velocity=127 time=16
note_on channel=1 note=57 velocity=127 time=29
note_on channel=1 note=73 velocity=127 time=8
note_on channel=1 note=69 velocity=127 time=14
note_on channel=1 note=78 velocity=127 time=0
note_on channel=1 note=64 velocity=127 time=4
note_on channel=1 note=40 velocity=127 time=161
note_on channel=1 note=64 velocity=127 time=297
note_on channel=1 note=52 velocity=127 time=0
note_on channel=1 note=59 velocity=127 time=4
note_off channel=1 note=52 velocity=0 time=16
note_off channel=1 note=57 velocity=0 time=0
note_off channel=1 note=78 velocity=0 time=4
note_off channel=1 note=64 velocity=0 time=0
note_off channel=1 note=69 velocity=0 time=20
note_off channel=1 note=73 velocity=0 time=4
note_off channel=1 note=40 velocity=0 time=132
note_off channel=1 note=52 velocity=0 time=12
note_off channel=1 note=59 velocity=0 time=8
note_off channel=1 note=64 velocity=0 time=4
note_on channel=1 note=50 velocity=127 time=426
note_on channel=1 note=57 velocity=127 time=81
note_on channel=1 note=40 velocity=127 time=4
note_on channel=1 note=62 velocity=127 time=11
note_off channel=1 note=57 velocity=0 time=84
note_on channel=1 note=57 velocity=127 time=0
note_off channel=1 note=50 velocity=0 time=84
note_off channel=1 note=57 velocity=0 time=4
note_on channel=1 note=50 velocity=127 time=0
note_off channel=1 note=62 velocity=0 time=8
note_on channel=1 note=57 velocity=127 time=0
note_on channel=1 note=62 velocity=127 time=3
note_off channel=1 note=50 velocity=0 time=176
note_off channel=1 note=57 velocity=0 time=12
note_off channel=1 note=62 velocity=0 time=4
note_off channel=1 note=40 velocity=0 time=28
note_on channel=1 note=49 velocity=127 time=370
note_on channel=1 note=62 velocity=127 time=1386
note_on channel=1 note=57 velocity=127 time=12
note_on channel=1 note=40 velocity=127 time=0
note_off channel=1 note=57 velocity=0 time=96
note_on channel=1 note=57 velocity=127 time=4
note_on channel=1 note=40 velocity=127 time=80
note_off channel=1 note=40 velocity=0 time=8
note_on channel=1 note=66 velocity=127 time=199
note_off channel=1 note=49 velocity=0 time=192
note_off channel=1 note=66 velocity=0 time=0
note_off channel=1 note=62 velocity=0 time=12
note_off channel=1 note=57 velocity=0 time=0
note_off channel=1 note=40 velocity=0 time=136
note_on channel=1 note=59 velocity=127 time=302
note_on channel=1 note=52 velocity=127 time=337
note_on channel=1 note=40 velocity=127 time=0
note_on channel=1 note=64 velocity=127 time=21
note_off channel=1 note=59 velocity=0 time=60
note_on channel=1 note=59 velocity=127 time=72
note_off channel=1 note=40 velocity=0 time=48
note_off channel=1 note=52 velocity=0 time=24
note_off channel=1 note=64 velocity=0 time=4
note_on channel=1 note=64 velocity=127 time=12
note_on channel=1 note=68 velocity=127 time=99
note_off channel=1 note=68 velocity=0 time=144
note_off channel=1 note=64 velocity=0 time=12
note_off channel=1 note=59 velocity=0 time=8
note_on channel=1 note=59 velocity=127 time=8
note_on channel=1 note=52 velocity=127 time=99
note_on channel=1 note=40 velocity=127 time=0
note_on channel=1 note=64 velocity=127 time=21
note_off channel=1 note=59 velocity=0 time=60
note_on channel=1 note=59 velocity=127 time=74
note_off channel=1 note=64 velocity=0 time=104
note_on channel=1 note=64 velocity=127 time=18
note_on channel=1 note=68 velocity=127 time=8
note_off channel=1 note=68 velocity=0 time=144
note_off channel=1 note=64 velocity=0 time=12
note_off channel=1 note=52 velocity=0 time=4
note_off channel=1 note=59 velocity=0 time=4
note_on channel=1 note=59 velocity=127 time=6
note_on channel=1 note=52 velocity=127 time=95
note_on channel=1 note=40 velocity=127 time=0
note_on channel=1 note=64 velocity=127 time=21
note_off channel=1 note=59 velocity=0 time=60
note_on channel=1 note=59 velocity=127 time=75
note_off channel=1 note=40 velocity=0 time=8
note_on channel=1 note=40 velocity=127 time=65
note_on channel=1 note=64 velocity=127 time=272
note_on channel=1 note=52 velocity=127 time=0
note_on channel=1 note=59 velocity=127 time=4
note_off channel=1 note=64 velocity=0 time=16
note_off channel=1 note=40 velocity=0 time=160
note_off channel=1 note=52 velocity=0 time=8
note_off channel=1 note=59 velocity=0 time=4
note_off channel=1 note=52 velocity=0 time=0
note_off channel=1 note=59 velocity=0 time=8
note_off channel=1 note=64 velocity=0 time=4
note_off channel=1 note=40 velocity=0 time=104
note_on channel=1 note=50 velocity=127 time=311
note_on channel=1 note=57 velocity=127 time=608
note_on channel=1 note=40 velocity=127 time=4
note_on channel=1 note=62 velocity=127 time=3
note_off channel=1 note=57 velocity=0 time=84
note_on channel=1 note=57 velocity=127 time=0
note_off channel=1 note=50 velocity=0 time=84
note_off channel=1 note=57 velocity=0 time=4
note_on channel=1 note=50 velocity=127 time=0
note_off channel=1 note=62 velocity=0 time=8
note_on channel=1 note=57 velocity=127 time=0
note_on channel=1 note=62 velocity=127 time=4
note_off channel=1 note=50 velocity=0 time=176
note_off channel=1 note=57 velocity=0 time=12
note_off channel=1 note=62 velocity=0 time=4
note_off channel=1 note=40 velocity=0 time=28
note_on channel=1 note=49 velocity=127 time=352
note_on channel=1 note=62 velocity=127 time=284
note_on channel=1 note=57 velocity=127 time=4
note_on channel=1 note=40 velocity=127 time=0
note_off channel=1 note=57 velocity=0 time=96
note_on channel=1 note=57 velocity=127 time=4
note_on channel=1 note=40 velocity=127 time=57
note_off channel=1 note=40 velocity=0 time=8
note_on channel=1 note=49 velocity=127 time=79
note_on channel=1 note=62 velocity=127 time=0
note_on channel=1 note=57 velocity=127 time=0
note_on channel=1 note=66 velocity=127 time=24
note_off channel=1 note=49 velocity=0 time=192
note_off channel=1 note=49 velocity=0 time=0
note_off channel=1 note=66 velocity=0 time=0
note_off channel=1 note=62 velocity=0 time=12
note_off channel=1 note=57 velocity=0 time=0
note_off channel=1 note=62 velocity=0 time=0
note_off channel=1 note=57 velocity=0 time=0
note_off channel=1 note=40 velocity=0 time=136
note_on channel=1 note=52 velocity=127 time=213
note_on channel=1 note=59 velocity=127 time=288
note_on channel=1 note=57 velocity=127 time=166
note_on channel=1 note=73 velocity=127 time=94
note_on channel=1 note=69 velocity=127 time=0
note_on channel=1 note=64 velocity=127 time=0
note_off channel=1 note=52 velocity=0 time=24
note_off channel=1 note=59 velocity=0 time=8
note_off channel=1 note=64 velocity=0 time=232
note_off channel=1 note=73 velocity=0 time=8
note_off channel=1 note=69 velocity=0 time=12
note_on channel=1 note=52 velocity=127 time=0
note_on channel=1 note=68 velocity=127 time=0
note_on channel=1 note=71 velocity=127 time=0
note_on channel=1 note=59 velocity=127 time=0
note_on channel=1 note=64 velocity=127 time=0
note_off channel=1 note=57 velocity=0 time=4
note_off channel=1 note=59 velocity=0 time=248
note_off channel=1 note=71 velocity=0 time=16
note_off channel=1 note=64 velocity=0 time=0
note_off channel=1 note=52 velocity=0 time=24
note_off channel=1 note=68 velocity=127 time=4
note_on channel=1 note=52 velocity=127 time=17
note_on channel=1 note=57 velocity=127 time=5
note_on channel=1 note=73 velocity=127 time=8
note_on channel=1 note=69 velocity=127 time=2
note_on channel=1 note=78 velocity=127 time=0
note_on channel=1 note=64 velocity=127 time=3
note_off channel=1 note=52 velocity=0 time=180
note_off channel=1 note=57 velocity=0 time=0
note_off channel=1 note=78 velocity=0 time=4
note_off channel=1 note=64 velocity=0 time=0
note_off channel=1 note=69 velocity=0 time=20
note_off channel=1 note=73 velocity=0 time=4
<meta message end_of_track time=0>
<meta message track_name name='bass' time=0>
control_change channel=2 control=0 value=0 time=0
program_change channel=2 program=36 time=0
control_change channel=2 control=91 value=29 time=0
control_change channel=2 control=93 value=51 time=0
<meta message key_signature key='E' time=0>
note_on channel=2 note=40 velocity=127 time=1517
note_off channel=2 note=40 velocity=0 time=384
note_on channel=2 note=45 velocity=127 time=199
note_off channel=2 note=45 velocity=0 time=96
note_on channel=2 note=38 velocity=127 time=3
note_off channel=2 note=38 velocity=127 time=96
note_on channel=2 note=45 velocity=127 time=0
note_off channel=2 note=45 velocity=127 time=384
note_on channel=2 note=45 velocity=127 time=190
note_on channel=2 note=45 velocity=127 time=1
note_off channel=2 note=45 velocity=0 time=96
note_off channel=2 note=45 velocity=0 time=0
note_on channel=2 note=40 velocity=127 time=0
note_off channel=2 note=40 velocity=127 time=96
note_on channel=2 note=40 velocity=127 time=0
note_off channel=2 note=40 velocity=127 time=384
note_on channel=2 note=55 velocity=127 time=475
note_off channel=2 note=55 velocity=0 time=64
note_on channel=2 note=52 velocity=127 time=63
note_on channel=2 note=50 velocity=127 time=98
note_off channel=2 note=52 velocity=0 time=32
note_off channel=2 note=50 velocity=0 time=32
note_on channel=2 note=47 velocity=127 time=37
note_on channel=2 note=47 velocity=127 time=97
note_off channel=2 note=47 velocity=0 time=32
note_on channel=2 note=57 velocity=127 time=67
note_on channel=2 note=45 velocity=127 time=0
note_off channel=2 note=47 velocity=0 time=20
note_off channel=2 note=57 velocity=0 time=44
note_off channel=2 note=45 velocity=0 time=0
note_on channel=2 note=55 velocity=127 time=32
note_on channel=2 note=43 velocity=127 time=0
note_off channel=2 note=55 velocity=0 time=64
note_off channel=2 note=43 velocity=0 time=0
note_on channel=2 note=40 velocity=127 time=32
note_off channel=2 note=40 velocity=0 time=384
note_on channel=2 note=45 velocity=127 time=192
note_off channel=2 note=45 velocity=0 time=96
note_on channel=2 note=38 velocity=127 time=8
note_off channel=2 note=38 velocity=127 time=96
note_on channel=2 note=45 velocity=127 time=0
note_off channel=2 note=45 velocity=127 time=384
note_on channel=2 note=45 velocity=127 time=192
note_on channel=2 note=45 velocity=127 time=14
note_off channel=2 note=45 velocity=0 time=96
note_off channel=2 note=45 velocity=0 time=0
note_on channel=2 note=40 velocity=127 time=0
note_off channel=2 note=40 velocity=127 time=96
note_on channel=2 note=40 velocity=127 time=0
note_off channel=2 note=40 velocity=127 time=384
note_on channel=2 note=47 velocity=127 time=0
note_on channel=2 note=35 velocity=127 time=0
note_off channel=2 note=47 velocity=0 time=64
note_off channel=2 note=35 velocity=0 time=0
note_on channel=2 note=44 velocity=127 time=31
note_on channel=2 note=32 velocity=127 time=2
note_off channel=2 note=44 velocity=0 time=128
note_off channel=2 note=32 velocity=0 time=0
note_on channel=2 note=47 velocity=127 time=64
note_on channel=2 note=35 velocity=127 time=4
note_off channel=2 note=47 velocity=0 time=64
note_off channel=2 note=35 velocity=0 time=0
note_on channel=2 note=45 velocity=127 time=32
note_on channel=2 note=33 velocity=127 time=2
note_off channel=2 note=45 velocity=0 time=128
note_off channel=2 note=33 velocity=0 time=0
note_on channel=2 note=47 velocity=127 time=63
note_on channel=2 note=35 velocity=127 time=4
note_off channel=2 note=47 velocity=0 time=64
note_off channel=2 note=35 velocity=0 time=0
note_on channel=2 note=46 velocity=127 time=32
note_on channel=2 note=34 velocity=127 time=2
note_off channel=2 note=46 velocity=0 time=128
note_off channel=2 note=34 velocity=0 time=0
note_on channel=2 note=47 velocity=127 time=63
note_on channel=2 note=35 velocity=127 time=3
note_off channel=2 note=47 velocity=0 time=64
note_off channel=2 note=35 velocity=0 time=0
note_on channel=2 note=46 velocity=127 time=32
note_on channel=2 note=34 velocity=127 time=1
note_off channel=2 note=46 velocity=0 time=64
note_off channel=2 note=34 velocity=0 time=0
note_on channel=2 note=47 velocity=127 time=31
note_on channel=2 note=35 velocity=127 time=1
note_off channel=2 note=47 velocity=127 time=64
note_off channel=2 note=35 velocity=127 time=0
note_on channel=2 note=40 velocity=127 time=31
note_off channel=2 note=40 velocity=0 time=384
note_on channel=2 note=45 velocity=127 time=189
note_off channel=2 note=45 velocity=0 time=96
note_on channel=2 note=38 velocity=127 time=9
note_off channel=2 note=38 velocity=127 time=96
note_on channel=2 note=45 velocity=127 time=0
note_off channel=2 note=45 velocity=127 time=384
note_on channel=2 note=45 velocity=127 time=190
note_on channel=2 note=45 velocity=127 time=8
note_off channel=2 note=45 velocity=0 time=96
note_off channel=2 note=45 velocity=0 time=0
note_on channel=2 note=40 velocity=127 time=0
note_off channel=2 note=40 velocity=127 time=96
note_on channel=2 note=40 velocity=127 time=0
note_off channel=2 note=40 velocity=127 time=384
note_on channel=2 note=55 velocity=127 time=473
note_off channel=2 note=55 velocity=0 time=64
note_on channel=2 note=52 velocity=127 time=76
note_on channel=2 note=50 velocity=127 time=100
note_off channel=2 note=52 velocity=0 time=32
note_off channel=2 note=50 velocity=0 time=32
note_on channel=2 note=47 velocity=127 time=45
note_on channel=2 note=47 velocity=127 time=99
note_off channel=2 note=47 velocity=0 time=32
note_on channel=2 note=57 velocity=127 time=71
note_on channel=2 note=45 velocity=127 time=1
note_off channel=2 note=47 velocity=0 time=20
note_off channel=2 note=57 velocity=0 time=44
note_off channel=2 note=45 velocity=0 time=0
note_on channel=2 note=55 velocity=127 time=31
note_on channel=2 note=43 velocity=127 time=0
note_off channel=2 note=55 velocity=0 time=64
note_off channel=2 note=43 velocity=0 time=0
note_on channel=2 note=40 velocity=127 time=31
note_off channel=2 note=40 velocity=0 time=384
note_on channel=2 note=45 velocity=127 time=192
note_off channel=2 note=45 velocity=0 time=96
note_on channel=2 note=38 velocity=127 time=16
note_off channel=2 note=38 velocity=127 time=96
note_on channel=2 note=45 velocity=127 time=0
note_off channel=2 note=45 velocity=127 time=384
note_on channel=2 note=45 velocity=127 time=192
note_on channel=2 note=45 velocity=127 time=24
note_off channel=2 note=45 velocity=0 time=96
note_off channel=2 note=45 velocity=0 time=0
note_on channel=2 note=40 velocity=127 time=0
note_off channel=2 note=40 velocity=127 time=96
note_on channel=2 note=40 velocity=127 time=0
note_off channel=2 note=40 velocity=127 time=384
note_on channel=2 note=47 velocity=127 time=0
note_on channel=2 note=35 velocity=127 time=0
note_off channel=2 note=47 velocity=0 time=64
note_off channel=2 note=35 velocity=0 time=0
note_on channel=2 note=44 velocity=127 time=31
note_on channel=2 note=32 velocity=127 time=3
note_off channel=2 note=44 velocity=0 time=128
note_off channel=2 note=32 velocity=0 time=0
note_on channel=2 note=47 velocity=127 time=63
note_on channel=2 note=35 velocity=127 time=5
note_off channel=2 note=47 velocity=0 time=64
note_off channel=2 note=35 velocity=0 time=0
note_on channel=2 note=45 velocity=127 time=31
note_on channel=2 note=33 velocity=127 time=2
note_off channel=2 note=45 velocity=0 time=128
note_off channel=2 note=33 velocity=0 time=0
note_on channel=2 note=47 velocity=127 time=63
note_on channel=2 note=35 velocity=127 time=3
note_off channel=2 note=47 velocity=0 time=64
note_off channel=2 note=35 velocity=0 time=0
note_on channel=2 note=46 velocity=127 time=31
note_on channel=2 note=34 velocity=127 time=1
note_off channel=2 note=46 velocity=0 time=128
note_off channel=2 note=34 velocity=0 time=0
note_on channel=2 note=47 velocity=127 time=63
note_on channel=2 note=35 velocity=127 time=2
note_off channel=2 note=47 velocity=0 time=64
note_off channel=2 note=35 velocity=0 time=0
note_on channel=2 note=46 velocity=127 time=31
note_on channel=2 note=34 velocity=127 time=1
note_off channel=2 note=46 velocity=0 time=64
note_off channel=2 note=34 velocity=0 time=0
note_on channel=2 note=47 velocity=127 time=32
note_on channel=2 note=35 velocity=127 time=1
note_off channel=2 note=47 velocity=127 time=64
note_off channel=2 note=35 velocity=127 time=0
note_on channel=2 note=40 velocity=127 time=31
note_off channel=2 note=40 velocity=0 time=384
note_on channel=2 note=45 velocity=127 time=188
note_off channel=2 note=45 velocity=0 time=96
note_on channel=2 note=38 velocity=127 time=15
note_off channel=2 note=38 velocity=127 time=96
note_on channel=2 note=45 velocity=127 time=0
note_off channel=2 note=45 velocity=127 time=384
note_on channel=2 note=45 velocity=127 time=189
note_on channel=2 note=45 velocity=127 time=32
note_off channel=2 note=45 velocity=0 time=96
note_off channel=2 note=45 velocity=0 time=0
note_on channel=2 note=40 velocity=127 time=0
note_off channel=2 note=40 velocity=127 time=96
note_on channel=2 note=40 velocity=127 time=0
note_off channel=2 note=40 velocity=127 time=384
note_on channel=2 note=55 velocity=127 time=472
note_off channel=2 note=55 velocity=0 time=64
note_on channel=2 note=52 velocity=127 time=60
note_on channel=2 note=50 velocity=127 time=87
note_off channel=2 note=52 velocity=0 time=32
note_off channel=2 note=50 velocity=0 time=32
note_on channel=2 note=47 velocity=127 time=16
note_on channel=2 note=47 velocity=127 time=87
note_off channel=2 note=47 velocity=0 time=32
note_on channel=2 note=57 velocity=127 time=48
note_on channel=2 note=45 velocity=127 time=7
note_off channel=2 note=47 velocity=0 time=20
note_off channel=2 note=57 velocity=0 time=44
note_off channel=2 note=45 velocity=0 time=0
note_on channel=2 note=55 velocity=127 time=31
note_on channel=2 note=43 velocity=127 time=3
note_off channel=2 note=55 velocity=0 time=64
note_off channel=2 note=43 velocity=0 time=0
note_on channel=2 note=40 velocity=127 time=30
note_off channel=2 note=40 velocity=0 time=384
note_on channel=2 note=45 velocity=127 time=181
note_off channel=2 note=45 velocity=0 time=96
note_on channel=2 note=38 velocity=127 time=13
note_off channel=2 note=38 velocity=127 time=96
note_on channel=2 note=45 velocity=127 time=0
note_off channel=2 note=45 velocity=127 time=384
note_on channel=2 note=45 velocity=127 time=184
note_on channel=2 note=45 velocity=127 time=0
note_off channel=2 note=45 velocity=0 time=96
note_off channel=2 note=45 velocity=0 time=0
note_on channel=2 note=40 velocity=127 time=0
note_off channel=2 note=40 velocity=127 time=96
note_on channel=2 note=40 velocity=127 time=0
note_off channel=2 note=40 velocity=127 time=384
note_on channel=2 note=47 velocity=127 time=0
note_on channel=2 note=35 velocity=127 time=0
note_off channel=2 note=47 velocity=0 time=64
note_off channel=2 note=35 velocity=0 time=0
note_on channel=2 note=44 velocity=127 time=31
note_on channel=2 note=32 velocity=127 time=20
note_off channel=2 note=44 velocity=0 time=128
note_off channel=2 note=32 velocity=0 time=0
note_on channel=2 note=47 velocity=127 time=61
note_on channel=2 note=35 velocity=127 time=14
note_off channel=2 note=47 velocity=0 time=64
note_off channel=2 note=35 velocity=0 time=0
note_on channel=2 note=45 velocity=127 time=30
note_on channel=2 note=33 velocity=127 time=8
note_off channel=2 note=45 velocity=0 time=128
note_off channel=2 note=33 velocity=0 time=0
note_on channel=2 note=47 velocity=127 time=61
note_on channel=2 note=35 velocity=127 time=17
note_off channel=2 note=47 velocity=0 time=64
note_off channel=2 note=35 velocity=0 time=0
note_on channel=2 note=46 velocity=127 time=30
note_on channel=2 note=34 velocity=127 time=9
note_off channel=2 note=46 velocity=0 time=128
note_off channel=2 note=34 velocity=0 time=0
note_on channel=2 note=47 velocity=127 time=62
note_on channel=2 note=35 velocity=127 time=18
note_off channel=2 note=47 velocity=0 time=64
note_off channel=2 note=35 velocity=0 time=0
note_on channel=2 note=46 velocity=127 time=30
note_on channel=2 note=34 velocity=127 time=8
note_off channel=2 note=46 velocity=0 time=64
note_off channel=2 note=34 velocity=0 time=0
note_on channel=2 note=47 velocity=127 time=30
note_on channel=2 note=35 velocity=127 time=8
note_off channel=2 note=47 velocity=127 time=64
note_off channel=2 note=35 velocity=127 time=0
note_on channel=2 note=45 velocity=127 time=257
note_on channel=2 note=33 velocity=127 time=44
note_off channel=2 note=45 velocity=0 time=280
note_off channel=2 note=33 velocity=0 time=0
note_on channel=2 note=40 velocity=127 time=19
note_on channel=2 note=28 velocity=127 time=1
note_on channel=2 note=47 velocity=127 time=172
note_on channel=2 note=35 velocity=127 time=15
note_off channel=2 note=40 velocity=0 time=48
note_off channel=2 note=28 velocity=0 time=0
note_off channel=2 note=47 velocity=0 time=228
note_off channel=2 note=35 velocity=0 time=0
note_on channel=2 note=45 velocity=127 time=94
note_on channel=2 note=33 velocity=127 time=15
note_off channel=2 note=45 velocity=0 time=220
note_off channel=2 note=33 velocity=0 time=0
note_on channel=2 note=47 velocity=127 time=0
note_on channel=2 note=35 velocity=127 time=0
note_off channel=2 note=47 velocity=0 time=112
note_off channel=2 note=35 velocity=0 time=0
note_on channel=2 note=45 velocity=127 time=350
note_on channel=2 note=33 velocity=127 time=85
note_off channel=2 note=45 velocity=0 time=280
note_off channel=2 note=33 velocity=0 time=0
note_on channel=2 note=40 velocity=127 time=19
note_on channel=2 note=28 velocity=127 time=3
note_on channel=2 note=47 velocity=127 time=175
note_on channel=2 note=35 velocity=127 time=22
note_off channel=2 note=40 velocity=0 time=48
note_off channel=2 note=28 velocity=0 time=0
note_off channel=2 note=47 velocity=0 time=228
note_off channel=2 note=35 velocity=0 time=0
note_on channel=2 note=45 velocity=127 time=95
note_on channel=2 note=33 velocity=127 time=2
note_off channel=2 note=45 velocity=0 time=220
note_off channel=2 note=33 velocity=0 time=0
note_on channel=2 note=47 velocity=127 time=0
note_on channel=2 note=35 velocity=127 time=0
note_off channel=2 note=47 velocity=0 time=112
note_off channel=2 note=35 velocity=0 time=0
note_on channel=2 note=43 velocity=127 time=335
note_off channel=2 note=43 velocity=0 time=188
note_on channel=2 note=38 velocity=127 time=55
note_on channel=2 note=33 velocity=127 time=234
note_off channel=2 note=38 velocity=0 time=12
note_off channel=2 note=33 velocity=0 time=308
note_on channel=2 note=31 velocity=127 time=13
note_off channel=2 note=31 velocity=0 time=208
note_on channel=2 note=33 velocity=127 time=3
note_off channel=2 note=33 velocity=0 time=380
note_on channel=2 note=43 velocity=127 time=107
note_off channel=2 note=43 velocity=0 time=188
note_on channel=2 note=38 velocity=127 time=74
note_on channel=2 note=33 velocity=127 time=229
note_off channel=2 note=38 velocity=0 time=12
note_off channel=2 note=33 velocity=0 time=308
note_on channel=2 note=31 velocity=127 time=66
note_off channel=2 note=31 velocity=0 time=208
note_on channel=2 note=33 velocity=127 time=3
note_on channel=2 note=33 velocity=127 time=270
note_off channel=2 note=33 velocity=0 time=104
note_off channel=2 note=33 velocity=0 time=0
note_on channel=2 note=45 velocity=127 time=58
note_on channel=2 note=33 velocity=127 time=10
note_off channel=2 note=45 velocity=0 time=280
note_off channel=2 note=33 velocity=0 time=0
note_on channel=2 note=40 velocity=127 time=19
note_on channel=2 note=28 velocity=127 time=4
note_on channel=2 note=47 velocity=127 time=172
note_on channel=2 note=35 velocity=127 time=52
note_off channel=2 note=40 velocity=0 time=48
note_off channel=2 note=28 velocity=0 time=0
note_off channel=2 note=47 velocity=0 time=228
note_off channel=2 note=35 velocity=0 time=0
note_on channel=2 note=45 velocity=127 time=94
note_on channel=2 note=33 velocity=127 time=31
note_off channel=2 note=45 velocity=0 time=220
note_off channel=2 note=33 velocity=0 time=0
note_on channel=2 note=47 velocity=127 time=0
note_on channel=2 note=35 velocity=127 time=0
note_off channel=2 note=47 velocity=0 time=112
note_off channel=2 note=35 velocity=0 time=0
note_on channel=2 note=45 velocity=127 time=351
note_on channel=2 note=33 velocity=127 time=44
note_off channel=2 note=45 velocity=0 time=280
note_off channel=2 note=33 velocity=0 time=0
note_on channel=2 note=40 velocity=127 time=19
note_on channel=2 note=28 velocity=127 time=1
note_on channel=2 note=47 velocity=127 time=174
note_on channel=2 note=35 velocity=127 time=25
note_off channel=2 note=40 velocity=0 time=48
note_off channel=2 note=28 velocity=0 time=0
note_off channel=2 note=47 velocity=0 time=228
note_off channel=2 note=35 velocity=0 time=0
note_on channel=2 note=45 velocity=127 time=95
note_on channel=2 note=33 velocity=127 time=12
note_off channel=2 note=45 velocity=0 time=220
note_off channel=2 note=33 velocity=0 time=0
note_on channel=2 note=47 velocity=127 time=0
note_on channel=2 note=35 velocity=127 time=0
note_off channel=2 note=47 velocity=0 time=112
note_off channel=2 note=35 velocity=0 time=0
note_on channel=2 note=38 velocity=127 time=121
note_on channel=2 note=43 velocity=127 time=12
note_off channel=2 note=38 velocity=0 time=192
note_off channel=2 note=43 velocity=0 time=0
note_on channel=2 note=38 velocity=127 time=95
note_on channel=2 note=43 velocity=127 time=10
note_off channel=2 note=38 velocity=0 time=192
note_off channel=2 note=43 velocity=0 time=0
note_on channel=2 note=38 velocity=127 time=94
note_on channel=2 note=43 velocity=127 time=15
note_off channel=2 note=38 velocity=0 time=192
note_off channel=2 note=43 velocity=0 time=0
note_on channel=2 note=38 velocity=108 time=94
note_on channel=2 note=43 velocity=127 time=22
note_off channel=2 note=38 velocity=0 time=64
note_off channel=2 note=43 velocity=0 time=0
note_on channel=2 note=37 velocity=84 time=31
note_off channel=2 note=37 velocity=0 time=64
note_on channel=2 note=38 velocity=108 time=22
note_on channel=2 note=43 velocity=127 time=9
note_off channel=2 note=38 velocity=0 time=64
note_off channel=2 note=43 velocity=0 time=0
note_on channel=2 note=38 velocity=127 time=31
note_on channel=2 note=43 velocity=127 time=11
note_off channel=2 note=38 velocity=0 time=128
note_off channel=2 note=43 velocity=0 time=0
note_on channel=2 note=38 velocity=127 time=62
note_on channel=2 note=43 velocity=127 time=23
note_off channel=2 note=38 velocity=0 time=128
note_off channel=2 note=43 velocity=0 time=0
note_on channel=2 note=38 velocity=127 time=62
note_on channel=2 note=45 velocity=127 time=25
note_off channel=2 note=38 velocity=0 time=192
note_off channel=2 note=45 velocity=0 time=0
note_on channel=2 note=38 velocity=127 time=93
note_on channel=2 note=45 velocity=127 time=37
note_off channel=2 note=38 velocity=0 time=192
note_off channel=2 note=45 velocity=0 time=0
note_on channel=2 note=38 velocity=127 time=93
note_on channel=2 note=45 velocity=127 time=31
note_off channel=2 note=38 velocity=0 time=512
note_off channel=2 note=45 velocity=0 time=0
note_on channel=2 note=40 velocity=127 time=433
note_off channel=2 note=40 velocity=0 time=384
note_on channel=2 note=45 velocity=127 time=117
note_off channel=2 note=45 velocity=0 time=96
note_on channel=2 note=38 velocity=127 time=37
note_off channel=2 note=38 velocity=127 time=96
note_on channel=2 note=45 velocity=127 time=0
note_off channel=2 note=45 velocity=127 time=384
note_on channel=2 note=45 velocity=127 time=184
note_on channel=2 note=45 velocity=127 time=39
note_off channel=2 note=45 velocity=0 time=96
note_off channel=2 note=45 velocity=0 time=0
note_on channel=2 note=40 velocity=127 time=0
note_off channel=2 note=40 velocity=127 time=96
note_on channel=2 note=40 velocity=127 time=0
note_off channel=2 note=40 velocity=127 time=384
note_on channel=2 note=55 velocity=127 time=459
note_off channel=2 note=55 velocity=0 time=64
note_on channel=2 note=52 velocity=127 time=185
note_on channel=2 note=50 velocity=127 time=112
note_off channel=2 note=52 velocity=0 time=32
note_off channel=2 note=50 velocity=0 time=32
note_on channel=2 note=47 velocity=127 time=82
note_on channel=2 note=47 velocity=127 time=107
note_off channel=2 note=47 velocity=0 time=32
note_on channel=2 note=57 velocity=127 time=96
note_on channel=2 note=45 velocity=127 time=14
note_off channel=2 note=47 velocity=0 time=20
note_off channel=2 note=57 velocity=0 time=44
note_off channel=2 note=45 velocity=0 time=0
note_on channel=2 note=55 velocity=127 time=31
note_on channel=2 note=43 velocity=127 time=5
note_off channel=2 note=55 velocity=0 time=64
note_off channel=2 note=43 velocity=0 time=0
note_on channel=2 note=40 velocity=127 time=31
note_off channel=2 note=40 velocity=0 time=384
note_on channel=2 note=45 velocity=127 time=193
note_off channel=2 note=45 velocity=0 time=96
note_on channel=2 note=38 velocity=127 time=36
note_off channel=2 note=38 velocity=127 time=96
note_on channel=2 note=45 velocity=127 time=0
note_off channel=2 note=45 velocity=127 time=384
note_on channel=2 note=45 velocity=127 time=188
note_on channel=2 note=45 velocity=127 time=82
note_off channel=2 note=45 velocity=0 time=96
note_off channel=2 note=45 velocity=0 time=0
note_on channel=2 note=40 velocity=127 time=0
note_off channel=2 note=40 velocity=127 time=96
note_on channel=2 note=40 velocity=127 time=0
note_off channel=2 note=40 velocity=127 time=384
note_on channel=2 note=47 velocity=127 time=0
note_on channel=2 note=35 velocity=127 time=0
note_off channel=2 note=47 velocity=0 time=64
note_off channel=2 note=35 velocity=0 time=0
note_on channel=2 note=44 velocity=127 time=31
note_on channel=2 note=32 velocity=127 time=15
note_off channel=2 note=44 velocity=0 time=128
note_off channel=2 note=32 velocity=0 time=0
note_on channel=2 note=47 velocity=127 time=63
note_on channel=2 note=35 velocity=127 time=31
note_off channel=2 note=47 velocity=0 time=64
note_off channel=2 note=35 velocity=0 time=0
note_on channel=2 note=45 velocity=127 time=31
note_on channel=2 note=33 velocity=127 time=13
note_off channel=2 note=45 velocity=0 time=128
note_off channel=2 note=33 velocity=0 time=0
note_on channel=2 note=47 velocity=127 time=63
note_on channel=2 note=35 velocity=127 time=25
note_off channel=2 note=47 velocity=0 time=64
note_off channel=2 note=35 velocity=0 time=0
note_on channel=2 note=46 velocity=127 time=31
note_on channel=2 note=34 velocity=127 time=10
note_off channel=2 note=46 velocity=0 time=128
note_off channel=2 note=34 velocity=0 time=0
note_on channel=2 note=47 velocity=127 time=63
note_on channel=2 note=35 velocity=127 time=17
note_off channel=2 note=47 velocity=0 time=64
note_off channel=2 note=35 velocity=0 time=0
note_on channel=2 note=46 velocity=127 time=31
note_on channel=2 note=34 velocity=127 time=6
note_off channel=2 note=46 velocity=0 time=64
note_off channel=2 note=34 velocity=0 time=0
note_on channel=2 note=47 velocity=127 time=32
note_on channel=2 note=35 velocity=127 time=5
note_off channel=2 note=47 velocity=127 time=64
note_off channel=2 note=35 velocity=127 time=0
note_on channel=2 note=40 velocity=127 time=31
note_off channel=2 note=40 velocity=0 time=384
note_on channel=2 note=45 velocity=127 time=195
note_off channel=2 note=45 velocity=0 time=96
note_on channel=2 note=38 velocity=127 time=1
note_off channel=2 note=38 velocity=127 time=96
note_on channel=2 note=45 velocity=127 time=0
note_off channel=2 note=45 velocity=127 time=384
note_on channel=2 note=45 velocity=127 time=191
note_on channel=2 note=45 velocity=127 time=33
note_off channel=2 note=45 velocity=0 time=96
note_off channel=2 note=45 velocity=0 time=0
note_on channel=2 note=40 velocity=127 time=0
note_off channel=2 note=40 velocity=127 time=96
note_on channel=2 note=40 velocity=127 time=0
note_off channel=2 note=40 velocity=127 time=384
note_on channel=2 note=55 velocity=127 time=477
note_off channel=2 note=55 velocity=0 time=64
note_on channel=2 note=52 velocity=127 time=33
note_on channel=2 note=50 velocity=127 time=101
note_off channel=2 note=52 velocity=0 time=32
note_off channel=2 note=50 velocity=0 time=32
note_on channel=2 note=47 velocity=127 time=50
note_on channel=2 note=47 velocity=127 time=101
note_off channel=2 note=47 velocity=0 time=32
note_on channel=2 note=57 velocity=127 time=76
note_on channel=2 note=45 velocity=127 time=4
note_off channel=2 note=47 velocity=0 time=20
note_off channel=2 note=57 velocity=0 time=44
note_off channel=2 note=45 velocity=0 time=0
note_on channel=2 note=55 velocity=127 time=32
note_on channel=2 note=43 velocity=127 time=0
note_off channel=2 note=55 velocity=0 time=64
note_off channel=2 note=43 velocity=0 time=0
note_on channel=2 note=40 velocity=127 time=31
note_off channel=2 note=40 velocity=0 time=384
note_on channel=2 note=45 velocity=127 time=191
note_off channel=2 note=45 velocity=0 time=96
note_on channel=2 note=38 velocity=127 time=20
note_off channel=2 note=38 velocity=127 time=96
note_on channel=2 note=45 velocity=127 time=0
note_off channel=2 note=45 velocity=127 time=384
note_on channel=2 note=45 velocity=127 time=191
note_on channel=2 note=45 velocity=127 time=20
note_off channel=2 note=45 velocity=0 time=96
note_off channel=2 note=45 velocity=0 time=0
note_on channel=2 note=40 velocity=127 time=0
note_off channel=2 note=40 velocity=127 time=96
note_on channel=2 note=40 velocity=127 time=0
note_off channel=2 note=40 velocity=127 time=384
note_on channel=2 note=47 velocity=127 time=0
note_on channel=2 note=35 velocity=127 time=0
note_off channel=2 note=47 velocity=0 time=64
note_off channel=2 note=35 velocity=0 time=0
note_on channel=2 note=44 velocity=127 time=32
note_on channel=2 note=32 velocity=127 time=1
note_off channel=2 note=44 velocity=0 time=128
note_off channel=2 note=32 velocity=0 time=0
note_on channel=2 note=47 velocity=127 time=63
note_on channel=2 note=35 velocity=127 time=0
note_off channel=2 note=47 velocity=0 time=64
note_off channel=2 note=35 velocity=0 time=0
note_on channel=2 note=45 velocity=127 time=31
note_on channel=2 note=33 velocity=127 time=0
note_off channel=2 note=45 velocity=0 time=128
note_off channel=2 note=33 velocity=0 time=0
note_on channel=2 note=47 velocity=127 time=63
note_on channel=2 note=35 velocity=127 time=1
note_off channel=2 note=47 velocity=0 time=64
note_off channel=2 note=35 velocity=0 time=0
note_on channel=2 note=46 velocity=127 time=31
note_on channel=2 note=34 velocity=127 time=0
note_off channel=2 note=46 velocity=0 time=128
note_off channel=2 note=34 velocity=0 time=0
note_on channel=2 note=47 velocity=127 time=63
note_on channel=2 note=35 velocity=127 time=0
note_off channel=2 note=47 velocity=0 time=64
note_off channel=2 note=35 velocity=0 time=0
note_on channel=2 note=46 velocity=127 time=31
note_on channel=2 note=34 velocity=127 time=0
note_off channel=2 note=46 velocity=0 time=64
note_off channel=2 note=34 velocity=0 time=0
note_on channel=2 note=47 velocity=127 time=31
note_on channel=2 note=35 velocity=127 time=1
note_off channel=2 note=47 velocity=127 time=64
note_off channel=2 note=35 velocity=127 time=0
note_on channel=2 note=45 velocity=127 time=262
note_on channel=2 note=33 velocity=127 time=32
note_off channel=2 note=45 velocity=0 time=280
note_off channel=2 note=33 velocity=0 time=0
note_on channel=2 note=40 velocity=127 time=20
note_on channel=2 note=28 velocity=127 time=3
note_on channel=2 note=47 velocity=127 time=174
note_on channel=2 note=35 velocity=127 time=40
note_off channel=2 note=40 velocity=0 time=48
note_off channel=2 note=28 velocity=0 time=0
note_off channel=2 note=47 velocity=0 time=228
note_off channel=2 note=35 velocity=0 time=0
note_on channel=2 note=45 velocity=127 time=95
note_on channel=2 note=33 velocity=127 time=22
note_off channel=2 note=45 velocity=0 time=220
note_off channel=2 note=33 velocity=0 time=0
note_on channel=2 note=47 velocity=127 time=0
note_on channel=2 note=35 velocity=127 time=0
note_off channel=2 note=47 velocity=0 time=112
note_off channel=2 note=35 velocity=0 time=0
note_on channel=2 note=45 velocity=127 time=352
note_on channel=2 note=33 velocity=127 time=34
note_off channel=2 note=45 velocity=0 time=280
note_off channel=2 note=33 velocity=0 time=0
note_on channel=2 note=40 velocity=127 time=19
note_on channel=2 note=28 velocity=127 time=0
note_on channel=2 note=47 velocity=127 time=173
note_on channel=2 note=35 velocity=127 time=8
note_off channel=2 note=40 velocity=0 time=48
note_off channel=2 note=28 velocity=0 time=0
note_off channel=2 note=47 velocity=0 time=228
note_off channel=2 note=35 velocity=0 time=0
note_on channel=2 note=45 velocity=127 time=94
note_on channel=2 note=33 velocity=127 time=14
note_off channel=2 note=45 velocity=0 time=220
note_off channel=2 note=33 velocity=0 time=0
note_on channel=2 note=47 velocity=127 time=0
note_on channel=2 note=35 velocity=127 time=0
note_off channel=2 note=47 velocity=0 time=112
note_off channel=2 note=35 velocity=0 time=0
note_on channel=2 note=43 velocity=127 time=331
note_off channel=2 note=43 velocity=0 time=188
note_on channel=2 note=38 velocity=127 time=15
note_on channel=2 note=33 velocity=127 time=224
note_off channel=2 note=38 velocity=0 time=12
note_off channel=2 note=33 velocity=0 time=308
note_on channel=2 note=31 velocity=127 time=34
note_off channel=2 note=31 velocity=0 time=208
note_on channel=2 note=33 velocity=127 time=3
note_off channel=2 note=33 velocity=0 time=380
note_on channel=2 note=43 velocity=127 time=107
note_off channel=2 note=43 velocity=0 time=188
note_on channel=2 note=38 velocity=127 time=120
note_on channel=2 note=33 velocity=127 time=267
note_off channel=2 note=38 velocity=0 time=12
note_off channel=2 note=33 velocity=0 time=308
note_on channel=2 note=31 velocity=127 time=33
note_off channel=2 note=31 velocity=0 time=208
note_on channel=2 note=33 velocity=127 time=3
note_on channel=2 note=33 velocity=127 time=272
note_off channel=2 note=33 velocity=0 time=104
note_off channel=2 note=33 velocity=0 time=0
note_on channel=2 note=45 velocity=127 time=53
note_on channel=2 note=33 velocity=127 time=46
note_off channel=2 note=45 velocity=0 time=280
note_off channel=2 note=33 velocity=0 time=0
note_on channel=2 note=40 velocity=127 time=19
note_on channel=2 note=28 velocity=127 time=6
note_on channel=2 note=47 velocity=127 time=172
note_on channel=2 note=35 velocity=127 time=41
note_off channel=2 note=40 velocity=0 time=48
note_off channel=2 note=28 velocity=0 time=0
note_off channel=2 note=47 velocity=0 time=228
note_off channel=2 note=35 velocity=0 time=0
note_on channel=2 note=45 velocity=127 time=93
note_on channel=2 note=33 velocity=127 time=13
note_off channel=2 note=45 velocity=0 time=220
note_off channel=2 note=33 velocity=0 time=0
note_on channel=2 note=47 velocity=127 time=0
note_on channel=2 note=35 velocity=127 time=0
note_off channel=2 note=47 velocity=0 time=112
note_off channel=2 note=35 velocity=0 time=0
note_on channel=2 note=45 velocity=127 time=348
note_on channel=2 note=33 velocity=127 time=32
note_off channel=2 note=45 velocity=0 time=280
note_off channel=2 note=33 velocity=0 time=0
note_on channel=2 note=40 velocity=127 time=19
note_on channel=2 note=28 velocity=127 time=0
note_on channel=2 note=47 velocity=127 time=171
note_on channel=2 note=35 velocity=127 time=56
note_off channel=2 note=40 velocity=0 time=48
note_off channel=2 note=28 velocity=0 time=0
note_off channel=2 note=47 velocity=0 time=228
note_off channel=2 note=35 velocity=0 time=0
note_on channel=2 note=45 velocity=127 time=93
note_on channel=2 note=33 velocity=127 time=78
note_off channel=2 note=45 velocity=0 time=220
note_off channel=2 note=33 velocity=0 time=0
note_on channel=2 note=47 velocity=127 time=0
note_on channel=2 note=35 velocity=127 time=0
note_off channel=2 note=47 velocity=0 time=112
note_off channel=2 note=35 velocity=0 time=0
note_on channel=2 note=38 velocity=127 time=121
note_on channel=2 note=43 velocity=127 time=140
note_off channel=2 note=38 velocity=0 time=192
note_off channel=2 note=43 velocity=0 time=0
note_on channel=2 note=38 velocity=127 time=94
note_on channel=2 note=43 velocity=127 time=122
note_off channel=2 note=38 velocity=0 time=192
note_off channel=2 note=43 velocity=0 time=0
note_on channel=2 note=38 velocity=127 time=96
note_on channel=2 note=43 velocity=127 time=118
note_off channel=2 note=38 velocity=0 time=192
note_off channel=2 note=43 velocity=0 time=0
note_on channel=2 note=38 velocity=108 time=96
note_on channel=2 note=43 velocity=127 time=100
note_off channel=2 note=38 velocity=0 time=64
note_off channel=2 note=43 velocity=0 time=0
note_on channel=2 note=37 velocity=84 time=31
note_off channel=2 note=37 velocity=0 time=64
note_on channel=2 note=38 velocity=108 time=59
note_on channel=2 note=43 velocity=127 time=24
note_off channel=2 note=38 velocity=0 time=64
note_off channel=2 note=43 velocity=0 time=0
note_on channel=2 note=38 velocity=127 time=32
note_on channel=2 note=43 velocity=127 time=21
note_off channel=2 note=38 velocity=0 time=128
note_off channel=2 note=43 velocity=0 time=0
note_on channel=2 note=38 velocity=127 time=64
note_on channel=2 note=43 velocity=127 time=30
note_off channel=2 note=38 velocity=0 time=128
note_off channel=2 note=43 velocity=0 time=0
note_on channel=2 note=38 velocity=127 time=64
note_on channel=2 note=45 velocity=127 time=15
note_off channel=2 note=38 velocity=0 time=192
note_off channel=2 note=45 velocity=0 time=0
note_on channel=2 note=38 velocity=127 time=97
note_on channel=2 note=45 velocity=127 time=4
note_off channel=2 note=38 velocity=0 time=192
note_off channel=2 note=45 velocity=0 time=0
note_on channel=2 note=38 velocity=127 time=97
note_on channel=2 note=45 velocity=127 time=31
note_off channel=2 note=38 velocity=0 time=512
note_off channel=2 note=45 velocity=0 time=0
note_on channel=2 note=28 velocity=127 time=452
note_on channel=2 note=28 velocity=127 time=229
note_on channel=2 note=28 velocity=127 time=0
note_on channel=2 note=40 velocity=127 time=0
note_on channel=2 note=40 velocity=127 time=0
note_on channel=2 note=40 velocity=127 time=0
note_off channel=2 note=28 velocity=127 time=128
note_off channel=2 note=28 velocity=127 time=0
note_off channel=2 note=28 velocity=127 time=0
note_off channel=2 note=40 velocity=127 time=0
note_off channel=2 note=40 velocity=127 time=0
note_off channel=2 note=40 velocity=127 time=0
note_on channel=2 note=40 velocity=127 time=64
note_on channel=2 note=40 velocity=127 time=17
note_on channel=2 note=40 velocity=127 time=0
note_on channel=2 note=52 velocity=127 time=0
note_on channel=2 note=52 velocity=127 time=0
note_on channel=2 note=52 velocity=127 time=0
note_off channel=2 note=40 velocity=127 time=384
note_off channel=2 note=40 velocity=127 time=0
note_off channel=2 note=40 velocity=127 time=0
note_off channel=2 note=52 velocity=127 time=0
note_off channel=2 note=52 velocity=127 time=0
note_off channel=2 note=52 velocity=127 time=0
note_on channel=2 note=38 velocity=127 time=191
note_on channel=2 note=38 velocity=127 time=35
note_on channel=2 note=38 velocity=127 time=0
note_on channel=2 note=50 velocity=127 time=0
note_on channel=2 note=50 velocity=127 time=0
note_on channel=2 note=50 velocity=127 time=0
note_off channel=2 note=38 velocity=127 time=128
note_off channel=2 note=38 velocity=127 time=0
note_off channel=2 note=38 velocity=127 time=0
note_off channel=2 note=50 velocity=127 time=0
note_off channel=2 note=50 velocity=127 time=0
note_off channel=2 note=50 velocity=127 time=0
note_on channel=2 note=38 velocity=127 time=64
note_on channel=2 note=38 velocity=127 time=13
note_on channel=2 note=38 velocity=127 time=0
note_on channel=2 note=50 velocity=127 time=0
note_on channel=2 note=50 velocity=127 time=0
note_on channel=2 note=50 velocity=127 time=0
note_off channel=2 note=38 velocity=127 time=384
note_off channel=2 note=38 velocity=127 time=0
note_off channel=2 note=38 velocity=127 time=0
note_off channel=2 note=50 velocity=127 time=0
note_off channel=2 note=50 velocity=127 time=0
note_off channel=2 note=50 velocity=127 time=0
note_on channel=2 note=37 velocity=127 time=191
note_on channel=2 note=37 velocity=127 time=67
note_on channel=2 note=37 velocity=127 time=0
note_on channel=2 note=49 velocity=127 time=0
note_on channel=2 note=49 velocity=127 time=0
note_on channel=2 note=49 velocity=127 time=0
note_off channel=2 note=37 velocity=127 time=128
note_off channel=2 note=37 velocity=127 time=0
note_off channel=2 note=37 velocity=127 time=0
note_off channel=2 note=49 velocity=127 time=0
note_off channel=2 note=49 velocity=127 time=0
note_off channel=2 note=49 velocity=127 time=0
note_on channel=2 note=37 velocity=127 time=63
note_on channel=2 note=37 velocity=127 time=32
note_on channel=2 note=37 velocity=127 time=0
note_on channel=2 note=49 velocity=127 time=0
note_on channel=2 note=49 velocity=127 time=0
note_on channel=2 note=49 velocity=127 time=0
note_off channel=2 note=37 velocity=127 time=384
note_off channel=2 note=37 velocity=127 time=0
note_off channel=2 note=37 velocity=127 time=0
note_off channel=2 note=49 velocity=127 time=0
note_off channel=2 note=49 velocity=127 time=0
note_off channel=2 note=49 velocity=127 time=0
note_on channel=2 note=35 velocity=127 time=190
note_on channel=2 note=35 velocity=127 time=86
note_on channel=2 note=35 velocity=127 time=0
note_on channel=2 note=47 velocity=127 time=0
note_on channel=2 note=47 velocity=127 time=0
note_on channel=2 note=47 velocity=127 time=0
note_off channel=2 note=35 velocity=127 time=128
note_off channel=2 note=35 velocity=127 time=0
note_off channel=2 note=35 velocity=127 time=0
note_off channel=2 note=47 velocity=127 time=0
note_off channel=2 note=47 velocity=127 time=0
note_off channel=2 note=47 velocity=127 time=0
note_on channel=2 note=43 velocity=127 time=63
note_on channel=2 note=43 velocity=127 time=14
note_on channel=2 note=43 velocity=127 time=0
note_on channel=2 note=55 velocity=127 time=0
note_on channel=2 note=55 velocity=127 time=0
note_on channel=2 note=55 velocity=127 time=0
note_off channel=2 note=43 velocity=127 time=64
note_off channel=2 note=43 velocity=127 time=0
note_off channel=2 note=43 velocity=127 time=0
note_off channel=2 note=55 velocity=127 time=0
note_off channel=2 note=55 velocity=127 time=0
note_off channel=2 note=55 velocity=127 time=0
note_on channel=2 note=45 velocity=127 time=31
note_on channel=2 note=45 velocity=127 time=3
note_on channel=2 note=45 velocity=127 time=0
note_on channel=2 note=57 velocity=127 time=0
note_on channel=2 note=57 velocity=127 time=0
note_on channel=2 note=57 velocity=127 time=0
note_off channel=2 note=45 velocity=127 time=64
note_off channel=2 note=45 velocity=127 time=0
note_off channel=2 note=45 velocity=127 time=0
note_off channel=2 note=57 velocity=127 time=0
note_off channel=2 note=57 velocity=127 time=0
note_off channel=2 note=57 velocity=127 time=0
note_on channel=2 note=46 velocity=127 time=31
note_on channel=2 note=46 velocity=127 time=1
note_on channel=2 note=46 velocity=127 time=0
note_on channel=2 note=58 velocity=127 time=0
note_on channel=2 note=58 velocity=127 time=0
note_on channel=2 note=58 velocity=127 time=0
note_off channel=2 note=46 velocity=127 time=40
note_off channel=2 note=46 velocity=127 time=0
note_off channel=2 note=46 velocity=127 time=0
note_off channel=2 note=58 velocity=127 time=0
note_off channel=2 note=58 velocity=127 time=0
note_off channel=2 note=58 velocity=127 time=0
note_on channel=2 note=45 velocity=127 time=24
note_on channel=2 note=45 velocity=127 time=0
note_on channel=2 note=45 velocity=127 time=0
note_on channel=2 note=57 velocity=127 time=0
note_on channel=2 note=57 velocity=127 time=0
note_on channel=2 note=57 velocity=127 time=0
note_off channel=2 note=45 velocity=127 time=40
note_off channel=2 note=45 velocity=127 time=0
note_off channel=2 note=45 velocity=127 time=0
note_off channel=2 note=57 velocity=127 time=0
note_off channel=2 note=57 velocity=127 time=0
note_off channel=2 note=57 velocity=127 time=0
note_on channel=2 note=43 velocity=127 time=23
note_on channel=2 note=43 velocity=127 time=1
note_on channel=2 note=43 velocity=127 time=0
note_on channel=2 note=55 velocity=127 time=0
note_on channel=2 note=55 velocity=127 time=0
note_on channel=2 note=55 velocity=127 time=0
note_off channel=2 note=43 velocity=127 time=40
note_off channel=2 note=43 velocity=127 time=0
note_off channel=2 note=43 velocity=127 time=0
note_off channel=2 note=55 velocity=127 time=0
note_off channel=2 note=55 velocity=127 time=0
note_off channel=2 note=55 velocity=127 time=0
note_on channel=2 note=45 velocity=127 time=23
note_on channel=2 note=45 velocity=127 time=2
note_on channel=2 note=45 velocity=127 time=0
note_on channel=2 note=57 velocity=127 time=0
note_on channel=2 note=57 velocity=127 time=0
note_on channel=2 note=57 velocity=127 time=0
note_off channel=2 note=45 velocity=127 time=64
note_off channel=2 note=45 velocity=127 time=0
note_off channel=2 note=45 velocity=127 time=0
note_off channel=2 note=57 velocity=127 time=0
note_off channel=2 note=57 velocity=127 time=0
note_off channel=2 note=57 velocity=127 time=0
note_on channel=2 note=40 velocity=127 time=31
note_on channel=2 note=40 velocity=127 time=4
note_on channel=2 note=40 velocity=127 time=0
note_on channel=2 note=52 velocity=127 time=0
note_on channel=2 note=52 velocity=127 time=0
note_on channel=2 note=52 velocity=127 time=0
note_off channel=2 note=40 velocity=127 time=64
note_off channel=2 note=40 velocity=127 time=0
note_off channel=2 note=40 velocity=127 time=0
note_off channel=2 note=52 velocity=127 time=0
note_off channel=2 note=52 velocity=127 time=0
note_off channel=2 note=52 velocity=127 time=0
note_on channel=2 note=28 velocity=127 time=31
note_on channel=2 note=28 velocity=127 time=4
note_on channel=2 note=28 velocity=127 time=0
note_on channel=2 note=40 velocity=127 time=0
note_on channel=2 note=40 velocity=127 time=0
note_on channel=2 note=40 velocity=127 time=0
note_off channel=2 note=28 velocity=127 time=128
note_off channel=2 note=28 velocity=127 time=0
note_off channel=2 note=28 velocity=127 time=0
note_off channel=2 note=40 velocity=127 time=0
note_off channel=2 note=40 velocity=127 time=0
note_off channel=2 note=40 velocity=127 time=0
note_on channel=2 note=40 velocity=127 time=63
note_on channel=2 note=40 velocity=127 time=11
note_on channel=2 note=40 velocity=127 time=0
note_on channel=2 note=52 velocity=127 time=0
note_on channel=2 note=52 velocity=127 time=0
note_on channel=2 note=52 velocity=127 time=0
note_off channel=2 note=40 velocity=127 time=384
note_off channel=2 note=40 velocity=127 time=0
note_off channel=2 note=40 velocity=127 time=0
note_off channel=2 note=52 velocity=127 time=0
note_off channel=2 note=52 velocity=127 time=0
note_off channel=2 note=52 velocity=127 time=0
note_on channel=2 note=38 velocity=127 time=189
note_on channel=2 note=38 velocity=127 time=17
note_on channel=2 note=38 velocity=127 time=0
note_on channel=2 note=50 velocity=127 time=0
note_on channel=2 note=50 velocity=127 time=0
note_on channel=2 note=50 velocity=127 time=0
note_off channel=2 note=38 velocity=127 time=128
note_off channel=2 note=38 velocity=127 time=0
note_off channel=2 note=38 velocity=127 time=0
note_off channel=2 note=50 velocity=127 time=0
note_off channel=2 note=50 velocity=127 time=0
note_off channel=2 note=50 velocity=127 time=0
note_on channel=2 note=38 velocity=127 time=63
note_on channel=2 note=38 velocity=127 time=9
note_on channel=2 note=38 velocity=127 time=0
note_on channel=2 note=50 velocity=127 time=0
note_on channel=2 note=50 velocity=127 time=0
note_on channel=2 note=50 velocity=127 time=0
note_off channel=2 note=38 velocity=127 time=384
note_off channel=2 note=38 velocity=127 time=0
note_off channel=2 note=38 velocity=127 time=0
note_off channel=2 note=50 velocity=127 time=0
note_off channel=2 note=50 velocity=127 time=0
note_off channel=2 note=50 velocity=127 time=0
note_on channel=2 note=37 velocity=127 time=189
note_on channel=2 note=37 velocity=127 time=97
note_on channel=2 note=37 velocity=127 time=0
note_on channel=2 note=49 velocity=127 time=0
note_on channel=2 note=49 velocity=127 time=0
note_on channel=2 note=49 velocity=127 time=0
note_off channel=2 note=37 velocity=127 time=128
note_off channel=2 note=37 velocity=127 time=0
note_off channel=2 note=37 velocity=127 time=0
note_off channel=2 note=49 velocity=127 time=0
note_off channel=2 note=49 velocity=127 time=0
note_off channel=2 note=49 velocity=127 time=0
note_on channel=2 note=37 velocity=127 time=62
note_on channel=2 note=37 velocity=127 time=51
note_on channel=2 note=37 velocity=127 time=0
note_on channel=2 note=49 velocity=127 time=0
note_on channel=2 note=49 velocity=127 time=0
note_on channel=2 note=49 velocity=127 time=0
note_off channel=2 note=37 velocity=127 time=384
note_off channel=2 note=37 velocity=127 time=0
note_off channel=2 note=37 velocity=127 time=0
note_off channel=2 note=49 velocity=127 time=0
note_off channel=2 note=49 velocity=127 time=0
note_off channel=2 note=49 velocity=127 time=0
note_on channel=2 note=38 velocity=127 time=189
note_on channel=2 note=38 velocity=127 time=155
note_on channel=2 note=38 velocity=127 time=0
note_off channel=2 note=38 velocity=127 time=128
note_off channel=2 note=38 velocity=127 time=0
note_off channel=2 note=38 velocity=127 time=0
note_on channel=2 note=50 velocity=127 time=62
note_off channel=2 note=50 velocity=127 time=128
note_on channel=2 note=38 velocity=127 time=62
note_on channel=2 note=38 velocity=127 time=63
note_on channel=2 note=38 velocity=127 time=0
note_off channel=2 note=38 velocity=127 time=128
note_off channel=2 note=38 velocity=127 time=0
note_off channel=2 note=38 velocity=127 time=0
note_on channel=2 note=50 velocity=127 time=62
note_off channel=2 note=50 velocity=127 time=128
note_on channel=2 note=28 velocity=127 time=47
note_on channel=2 note=28 velocity=127 time=3
note_on channel=2 note=28 velocity=127 time=0
note_on channel=2 note=40 velocity=127 time=0
note_on channel=2 note=40 velocity=127 time=0
note_on channel=2 note=40 velocity=127 time=0
note_off channel=2 note=28 velocity=127 time=128
note_off channel=2 note=28 velocity=127 time=0
note_off channel=2 note=28 velocity=127 time=0
note_off channel=2 note=40 velocity=127 time=0
note_off channel=2 note=40 velocity=127 time=0
note_off channel=2 note=40 velocity=127 time=0
note_on channel=2 note=40 velocity=127 time=62
note_on channel=2 note=40 velocity=127 time=5
note_on channel=2 note=40 velocity=127 time=0
note_on channel=2 note=52 velocity=127 time=0
note_on channel=2 note=52 velocity=127 time=0
note_on channel=2 note=52 velocity=127 time=0
note_off channel=2 note=40 velocity=127 time=384
note_off channel=2 note=40 velocity=127 time=0
note_off channel=2 note=40 velocity=127 time=0
note_off channel=2 note=52 velocity=127 time=0
note_off channel=2 note=52 velocity=127 time=0
note_off channel=2 note=52 velocity=127 time=0
note_on channel=2 note=38 velocity=127 time=186
note_on channel=2 note=38 velocity=127 time=44
note_on channel=2 note=38 velocity=127 time=0
note_on channel=2 note=50 velocity=127 time=0
note_on channel=2 note=50 velocity=127 time=0
note_on channel=2 note=50 velocity=127 time=0
note_off channel=2 note=38 velocity=127 time=128
note_off channel=2 note=38 velocity=127 time=0
note_off channel=2 note=38 velocity=127 time=0
note_off channel=2 note=50 velocity=127 time=0
note_off channel=2 note=50 velocity=127 time=0
note_off channel=2 note=50 velocity=127 time=0
note_on channel=2 note=38 velocity=127 time=62
note_on channel=2 note=38 velocity=127 time=13
note_on channel=2 note=38 velocity=127 time=0
note_on channel=2 note=50 velocity=127 time=0
note_on channel=2 note=50 velocity=127 time=0
note_on channel=2 note=50 velocity=127 time=0
note_off channel=2 note=38 velocity=127 time=384
note_off channel=2 note=38 velocity=127 time=0
note_off channel=2 note=38 velocity=127 time=0
note_off channel=2 note=50 velocity=127 time=0
note_off channel=2 note=50 velocity=127 time=0
note_off channel=2 note=50 velocity=127 time=0
note_on channel=2 note=37 velocity=127 time=187
note_on channel=2 note=37 velocity=127 time=17
note_on channel=2 note=37 velocity=127 time=0
note_on channel=2 note=49 velocity=127 time=0
note_on channel=2 note=49 velocity=127 time=0
note_on channel=2 note=49 velocity=127 time=0
note_off channel=2 note=37 velocity=127 time=128
note_off channel=2 note=37 velocity=127 time=0
note_off channel=2 note=37 velocity=127 time=0
note_off channel=2 note=49 velocity=127 time=0
note_off channel=2 note=49 velocity=127 time=0
note_off channel=2 note=49 velocity=127 time=0
note_on channel=2 note=37 velocity=127 time=62
note_on channel=2 note=37 velocity=127 time=3
note_on channel=2 note=37 velocity=127 time=0
note_on channel=2 note=49 velocity=127 time=0
note_on channel=2 note=49 velocity=127 time=0
note_on channel=2 note=49 velocity=127 time=0
note_off channel=2 note=37 velocity=127 time=384
note_off channel=2 note=37 velocity=127 time=0
note_off channel=2 note=37 velocity=127 time=0
note_off channel=2 note=49 velocity=127 time=0
note_off channel=2 note=49 velocity=127 time=0
note_off channel=2 note=49 velocity=127 time=0
note_on channel=2 note=35 velocity=127 time=187
note_on channel=2 note=35 velocity=127 time=31
note_on channel=2 note=35 velocity=127 time=0
note_on channel=2 note=47 velocity=127 time=0
note_on channel=2 note=47 velocity=127 time=0
note_on channel=2 note=47 velocity=127 time=0
note_off channel=2 note=35 velocity=127 time=128
note_off channel=2 note=35 velocity=127 time=0
note_off channel=2 note=35 velocity=127 time=0
note_off channel=2 note=47 velocity=127 time=0
note_off channel=2 note=47 velocity=127 time=0
note_off channel=2 note=47 velocity=127 time=0
note_on channel=2 note=43 velocity=127 time=62
note_on channel=2 note=43 velocity=127 time=20
note_on channel=2 note=43 velocity=127 time=0
note_on channel=2 note=55 velocity=127 time=0
note_on channel=2 note=55 velocity=127 time=0
note_on channel=2 note=55 velocity=127 time=0
note_off channel=2 note=43 velocity=127 time=64
note_off channel=2 note=43 velocity=127 time=0
note_off channel=2 note=43 velocity=127 time=0
note_off channel=2 note=55 velocity=127 time=0
note_off channel=2 note=55 velocity=127 time=0
note_off channel=2 note=55 velocity=127 time=0
note_on channel=2 note=45 velocity=127 time=31
note_on channel=2 note=45 velocity=127 time=11
note_on channel=2 note=45 velocity=127 time=0
note_on channel=2 note=57 velocity=127 time=0
note_on channel=2 note=57 velocity=127 time=0
note_on channel=2 note=57 velocity=127 time=0
note_off channel=2 note=45 velocity=127 time=64
note_off channel=2 note=45 velocity=127 time=0
note_off channel=2 note=45 velocity=127 time=0
note_off channel=2 note=57 velocity=127 time=0
note_off channel=2 note=57 velocity=127 time=0
note_off channel=2 note=57 velocity=127 time=0
note_on channel=2 note=46 velocity=127 time=31
note_on channel=2 note=46 velocity=127 time=12
note_on channel=2 note=46 velocity=127 time=0
note_on channel=2 note=58 velocity=127 time=0
note_on channel=2 note=58 velocity=127 time=0
note_on channel=2 note=58 velocity=127 time=0
note_off channel=2 note=46 velocity=127 time=40
note_off channel=2 note=46 velocity=127 time=0
note_off channel=2 note=46 velocity=127 time=0
note_off channel=2 note=58 velocity=127 time=0
note_off channel=2 note=58 velocity=127 time=0
note_off channel=2 note=58 velocity=127 time=0
note_on channel=2 note=45 velocity=127 time=23
note_on channel=2 note=45 velocity=127 time=9
note_on channel=2 note=45 velocity=127 time=0
note_on channel=2 note=57 velocity=127 time=0
note_on channel=2 note=57 velocity=127 time=0
note_on channel=2 note=57 velocity=127 time=0
note_off channel=2 note=45 velocity=127 time=40
note_off channel=2 note=45 velocity=127 time=0
note_off channel=2 note=45 velocity=127 time=0
note_off channel=2 note=57 velocity=127 time=0
note_off channel=2 note=57 velocity=127 time=0
note_off channel=2 note=57 velocity=127 time=0
note_on channel=2 note=43 velocity=127 time=23
note_on channel=2 note=43 velocity=127 time=9
note_on channel=2 note=43 velocity=127 time=0
note_on channel=2 note=55 velocity=127 time=0
note_on channel=2 note=55 velocity=127 time=0
note_on channel=2 note=55 velocity=127 time=0
note_off channel=2 note=43 velocity=127 time=40
note_off channel=2 note=43 velocity=127 time=0
note_off channel=2 note=43 velocity=127 time=0
note_off channel=2 note=55 velocity=127 time=0
note_off channel=2 note=55 velocity=127 time=0
note_off channel=2 note=55 velocity=127 time=0
note_on channel=2 note=45 velocity=127 time=23
note_on channel=2 note=45 velocity=127 time=9
note_on channel=2 note=45 velocity=127 time=0
note_on channel=2 note=57 velocity=127 time=0
note_on channel=2 note=57 velocity=127 time=0
note_on channel=2 note=57 velocity=127 time=0
note_off channel=2 note=45 velocity=127 time=64
note_off channel=2 note=45 velocity=127 time=0
note_off channel=2 note=45 velocity=127 time=0
note_off channel=2 note=57 velocity=127 time=0
note_off channel=2 note=57 velocity=127 time=0
note_off channel=2 note=57 velocity=127 time=0
note_on channel=2 note=40 velocity=127 time=31
note_on channel=2 note=40 velocity=127 time=11
note_on channel=2 note=40 velocity=127 time=0
note_on channel=2 note=52 velocity=127 time=0
note_on channel=2 note=52 velocity=127 time=0
note_on channel=2 note=52 velocity=127 time=0
note_off channel=2 note=40 velocity=127 time=64
note_off channel=2 note=40 velocity=127 time=0
note_off channel=2 note=40 velocity=127 time=0
note_off channel=2 note=52 velocity=127 time=0
note_off channel=2 note=52 velocity=127 time=0
note_off channel=2 note=52 velocity=127 time=0
note_on channel=2 note=28 velocity=127 time=31
note_on channel=2 note=28 velocity=127 time=10
note_on channel=2 note=28 velocity=127 time=0
note_on channel=2 note=40 velocity=127 time=0
note_on channel=2 note=40 velocity=127 time=0
note_on channel=2 note=40 velocity=127 time=0
note_off channel=2 note=28 velocity=127 time=128
note_off channel=2 note=28 velocity=127 time=0
note_off channel=2 note=28 velocity=127 time=0
note_off channel=2 note=40 velocity=127 time=0
note_off channel=2 note=40 velocity=127 time=0
note_off channel=2 note=40 velocity=127 time=0
note_on channel=2 note=40 velocity=127 time=62
note_on channel=2 note=40 velocity=127 time=16
note_on channel=2 note=40 velocity=127 time=0
note_on channel=2 note=52 velocity=127 time=0
note_on channel=2 note=52 velocity=127 time=0
note_on channel=2 note=52 velocity=127 time=0
note_off channel=2 note=40 velocity=127 time=384
note_off channel=2 note=40 velocity=127 time=0
note_off channel=2 note=40 velocity=127 time=0
note_off channel=2 note=52 velocity=127 time=0
note_off channel=2 note=52 velocity=127 time=0
note_off channel=2 note=52 velocity=127 time=0
note_on channel=2 note=38 velocity=127 time=188
note_on channel=2 note=38 velocity=127 time=5
note_on channel=2 note=38 velocity=127 time=0
note_on channel=2 note=50 velocity=127 time=0
note_on channel=2 note=50 velocity=127 time=0
note_on channel=2 note=50 velocity=127 time=0
note_off channel=2 note=38 velocity=127 time=128
note_off channel=2 note=38 velocity=127 time=0
note_off channel=2 note=38 velocity=127 time=0
note_off channel=2 note=50 velocity=127 time=0
note_off channel=2 note=50 velocity=127 time=0
note_off channel=2 note=50 velocity=127 time=0
note_on channel=2 note=38 velocity=127 time=62
note_on channel=2 note=38 velocity=127 time=23
note_on channel=2 note=38 velocity=127 time=0
note_on channel=2 note=50 velocity=127 time=0
note_on channel=2 note=50 velocity=127 time=0
note_on channel=2 note=50 velocity=127 time=0
note_off channel=2 note=38 velocity=127 time=384
note_off channel=2 note=38 velocity=127 time=0
note_off channel=2 note=38 velocity=127 time=0
note_off channel=2 note=50 velocity=127 time=0
note_off channel=2 note=50 velocity=127 time=0
note_off channel=2 note=50 velocity=127 time=0
note_on channel=2 note=37 velocity=127 time=188
note_on channel=2 note=37 velocity=127 time=117
note_on channel=2 note=37 velocity=127 time=0
note_on channel=2 note=49 velocity=127 time=0
note_on channel=2 note=49 velocity=127 time=0
note_on channel=2 note=49 velocity=127 time=0
note_off channel=2 note=37 velocity=127 time=128
note_off channel=2 note=37 velocity=127 time=0
note_off channel=2 note=37 velocity=127 time=0
note_off channel=2 note=49 velocity=127 time=0
note_off channel=2 note=49 velocity=127 time=0
note_off channel=2 note=49 velocity=127 time=0
note_on channel=2 note=37 velocity=127 time=62
note_on channel=2 note=37 velocity=127 time=44
note_on channel=2 note=37 velocity=127 time=0
note_on channel=2 note=49 velocity=127 time=0
note_on channel=2 note=49 velocity=127 time=0
note_on channel=2 note=49 velocity=127 time=0
note_off channel=2 note=37 velocity=127 time=384
note_off channel=2 note=37 velocity=127 time=0
note_off channel=2 note=37 velocity=127 time=0
note_off channel=2 note=49 velocity=127 time=0
note_off channel=2 note=49 velocity=127 time=0
note_off channel=2 note=49 velocity=127 time=0
note_on channel=2 note=28 velocity=127 time=934
note_on channel=2 note=28 velocity=127 time=314
note_on channel=2 note=28 velocity=127 time=0
note_on channel=2 note=40 velocity=127 time=0
note_on channel=2 note=40 velocity=127 time=0
note_on channel=2 note=40 velocity=127 time=0
note_off channel=2 note=28 velocity=127 time=128
note_off channel=2 note=28 velocity=127 time=0
note_off channel=2 note=28 velocity=127 time=0
note_off channel=2 note=40 velocity=127 time=0
note_off channel=2 note=40 velocity=127 time=0
note_off channel=2 note=40 velocity=127 time=0
note_on channel=2 note=40 velocity=127 time=61
note_on channel=2 note=40 velocity=127 time=1
note_on channel=2 note=40 velocity=127 time=0
note_on channel=2 note=52 velocity=127 time=0
note_on channel=2 note=52 velocity=127 time=0
note_on channel=2 note=52 velocity=127 time=0
note_off channel=2 note=40 velocity=127 time=384
note_off channel=2 note=40 velocity=127 time=0
note_off channel=2 note=40 velocity=127 time=0
note_off channel=2 note=52 velocity=127 time=0
note_off channel=2 note=52 velocity=127 time=0
note_off channel=2 note=52 velocity=127 time=0
note_on channel=2 note=38 velocity=127 time=184
note_on channel=2 note=38 velocity=127 time=117
note_on channel=2 note=38 velocity=127 time=0
note_on channel=2 note=50 velocity=127 time=0
note_on channel=2 note=50 velocity=127 time=0
note_on channel=2 note=50 velocity=127 time=0
note_off channel=2 note=38 velocity=127 time=128
note_off channel=2 note=38 velocity=127 time=0
note_off channel=2 note=38 velocity=127 time=0
note_off channel=2 note=50 velocity=127 time=0
note_off channel=2 note=50 velocity=127 time=0
note_off channel=2 note=50 velocity=127 time=0
note_on channel=2 note=38 velocity=127 time=62
note_on channel=2 note=38 velocity=127 time=0
note_on channel=2 note=38 velocity=127 time=0
note_on channel=2 note=50 velocity=127 time=0
note_on channel=2 note=50 velocity=127 time=0
note_on channel=2 note=50 velocity=127 time=0
note_off channel=2 note=38 velocity=127 time=384
note_off channel=2 note=38 velocity=127 time=0
note_off channel=2 note=38 velocity=127 time=0
note_off channel=2 note=50 velocity=127 time=0
note_off channel=2 note=50 velocity=127 time=0
note_off channel=2 note=50 velocity=127 time=0
note_on channel=2 note=37 velocity=127 time=185
note_on channel=2 note=37 velocity=127 time=298
note_on channel=2 note=37 velocity=127 time=0
note_on channel=2 note=49 velocity=127 time=0
note_on channel=2 note=49 velocity=127 time=0
note_on channel=2 note=49 velocity=127 time=0
note_off channel=2 note=37 velocity=127 time=128
note_off channel=2 note=37 velocity=127 time=0
note_off channel=2 note=37 velocity=127 time=0
note_off channel=2 note=49 velocity=127 time=0
note_off channel=2 note=49 velocity=127 time=0
note_off channel=2 note=49 velocity=127 time=0
note_on channel=2 note=37 velocity=127 time=62
note_on channel=2 note=37 velocity=127 time=74
note_on channel=2 note=37 velocity=127 time=0
note_on channel=2 note=49 velocity=127 time=0
note_on channel=2 note=49 velocity=127 time=0
note_on channel=2 note=49 velocity=127 time=0
note_off channel=2 note=37 velocity=127 time=384
note_off channel=2 note=37 velocity=127 time=0
note_off channel=2 note=37 velocity=127 time=0
note_off channel=2 note=49 velocity=127 time=0
note_off channel=2 note=49 velocity=127 time=0
note_off channel=2 note=49 velocity=127 time=0
note_on channel=2 note=35 velocity=127 time=188
note_on channel=2 note=35 velocity=127 time=173
note_on channel=2 note=35 velocity=127 time=0
note_on channel=2 note=47 velocity=127 time=0
note_on channel=2 note=47 velocity=127 time=0
note_on channel=2 note=47 velocity=127 time=0
note_off channel=2 note=35 velocity=127 time=128
note_off channel=2 note=35 velocity=127 time=0
note_off channel=2 note=35 velocity=127 time=0
note_off channel=2 note=47 velocity=127 time=0
note_off channel=2 note=47 velocity=127 time=0
note_off channel=2 note=47 velocity=127 time=0
note_on channel=2 note=43 velocity=127 time=63
note_on channel=2 note=43 velocity=127 time=39
note_on channel=2 note=43 velocity=127 time=0
note_on channel=2 note=55 velocity=127 time=0
note_on channel=2 note=55 velocity=127 time=0
note_on channel=2 note=55 velocity=127 time=0
note_off channel=2 note=43 velocity=127 time=64
note_off channel=2 note=43 velocity=127 time=0
note_off channel=2 note=43 velocity=127 time=0
note_off channel=2 note=55 velocity=127 time=0
note_off channel=2 note=55 velocity=127 time=0
note_off channel=2 note=55 velocity=127 time=0
note_on channel=2 note=45 velocity=127 time=31
note_on channel=2 note=45 velocity=127 time=16
note_on channel=2 note=45 velocity=127 time=0
note_on channel=2 note=57 velocity=127 time=0
note_on channel=2 note=57 velocity=127 time=0
note_on channel=2 note=57 velocity=127 time=0
note_off channel=2 note=45 velocity=127 time=64
note_off channel=2 note=45 velocity=127 time=0
note_off channel=2 note=45 velocity=127 time=0
note_off channel=2 note=57 velocity=127 time=0
note_off channel=2 note=57 velocity=127 time=0
note_off channel=2 note=57 velocity=127 time=0
note_on channel=2 note=46 velocity=127 time=31
note_on channel=2 note=46 velocity=127 time=14
note_on channel=2 note=46 velocity=127 time=0
note_on channel=2 note=58 velocity=127 time=0
note_on channel=2 note=58 velocity=127 time=0
note_on channel=2 note=58 velocity=127 time=0
note_off channel=2 note=46 velocity=127 time=40
note_off channel=2 note=46 velocity=127 time=0
note_off channel=2 note=46 velocity=127 time=0
note_off channel=2 note=58 velocity=127 time=0
note_off channel=2 note=58 velocity=127 time=0
note_off channel=2 note=58 velocity=127 time=0
note_on channel=2 note=45 velocity=127 time=24
note_on channel=2 note=45 velocity=127 time=10
note_on channel=2 note=45 velocity=127 time=0
note_on channel=2 note=57 velocity=127 time=0
note_on channel=2 note=57 velocity=127 time=0
note_on channel=2 note=57 velocity=127 time=0
note_off channel=2 note=45 velocity=127 time=40
note_off channel=2 note=45 velocity=127 time=0
note_off channel=2 note=45 velocity=127 time=0
note_off channel=2 note=57 velocity=127 time=0
note_off channel=2 note=57 velocity=127 time=0
note_off channel=2 note=57 velocity=127 time=0
note_on channel=2 note=43 velocity=127 time=23
note_on channel=2 note=43 velocity=127 time=9
note_on channel=2 note=43 velocity=127 time=0
note_on channel=2 note=55 velocity=127 time=0
note_on channel=2 note=55 velocity=127 time=0
note_on channel=2 note=55 velocity=127 time=0
note_off channel=2 note=43 velocity=127 time=40
note_off channel=2 note=43 velocity=127 time=0
note_off channel=2 note=43 velocity=127 time=0
note_off channel=2 note=55 velocity=127 time=0
note_off channel=2 note=55 velocity=127 time=0
note_off channel=2 note=55 velocity=127 time=0
note_on channel=2 note=45 velocity=127 time=23
note_on channel=2 note=45 velocity=127 time=8
note_on channel=2 note=45 velocity=127 time=0
note_on channel=2 note=57 velocity=127 time=0
note_on channel=2 note=57 velocity=127 time=0
note_on channel=2 note=57 velocity=127 time=0
note_off channel=2 note=45 velocity=127 time=64
note_off channel=2 note=45 velocity=127 time=0
note_off channel=2 note=45 velocity=127 time=0
note_off channel=2 note=57 velocity=127 time=0
note_off channel=2 note=57 velocity=127 time=0
note_off channel=2 note=57 velocity=127 time=0
note_on channel=2 note=40 velocity=127 time=32
note_on channel=2 note=40 velocity=127 time=11
note_on channel=2 note=40 velocity=127 time=0
note_on channel=2 note=52 velocity=127 time=0
note_on channel=2 note=52 velocity=127 time=0
note_on channel=2 note=52 velocity=127 time=0
note_off channel=2 note=40 velocity=127 time=64
note_off channel=2 note=40 velocity=127 time=0
note_off channel=2 note=40 velocity=127 time=0
note_off channel=2 note=52 velocity=127 time=0
note_off channel=2 note=52 velocity=127 time=0
note_off channel=2 note=52 velocity=127 time=0
note_on channel=2 note=28 velocity=127 time=31
note_on channel=2 note=28 velocity=127 time=10
note_on channel=2 note=28 velocity=127 time=0
note_on channel=2 note=40 velocity=127 time=0
note_on channel=2 note=40 velocity=127 time=0
note_on channel=2 note=40 velocity=127 time=0
note_off channel=2 note=28 velocity=127 time=128
note_off channel=2 note=28 velocity=127 time=0
note_off channel=2 note=28 velocity=127 time=0
note_off channel=2 note=40 velocity=127 time=0
note_off channel=2 note=40 velocity=127 time=0
note_off channel=2 note=40 velocity=127 time=0
note_on channel=2 note=40 velocity=127 time=63
note_on channel=2 note=40 velocity=127 time=19
note_on channel=2 note=40 velocity=127 time=0
note_on channel=2 note=52 velocity=127 time=0
note_on channel=2 note=52 velocity=127 time=0
note_on channel=2 note=52 velocity=127 time=0
note_off channel=2 note=40 velocity=127 time=384
note_off channel=2 note=40 velocity=127 time=0
note_off channel=2 note=40 velocity=127 time=0
note_off channel=2 note=52 velocity=127 time=0
note_off channel=2 note=52 velocity=127 time=0
note_off channel=2 note=52 velocity=127 time=0
note_on channel=2 note=38 velocity=127 time=190
note_on channel=2 note=38 velocity=127 time=61
note_on channel=2 note=38 velocity=127 time=0
note_on channel=2 note=50 velocity=127 time=0
note_on channel=2 note=50 velocity=127 time=0
note_on channel=2 note=50 velocity=127 time=0
note_off channel=2 note=38 velocity=127 time=128
note_off channel=2 note=38 velocity=127 time=0
note_off channel=2 note=38 velocity=127 time=0
note_off channel=2 note=50 velocity=127 time=0
note_off channel=2 note=50 velocity=127 time=0
note_off channel=2 note=50 velocity=127 time=0
note_on channel=2 note=38 velocity=127 time=63
note_on channel=2 note=38 velocity=127 time=20
note_on channel=2 note=38 velocity=127 time=0
note_on channel=2 note=50 velocity=127 time=0
note_on channel=2 note=50 velocity=127 time=0
note_on channel=2 note=50 velocity=127 time=0
note_off channel=2 note=38 velocity=127 time=384
note_off channel=2 note=38 velocity=127 time=0
note_off channel=2 note=38 velocity=127 time=0
note_off channel=2 note=50 velocity=127 time=0
note_off channel=2 note=50 velocity=127 time=0
note_off channel=2 note=50 velocity=127 time=0
note_on channel=2 note=37 velocity=127 time=190
note_on channel=2 note=37 velocity=127 time=37
note_on channel=2 note=37 velocity=127 time=0
note_on channel=2 note=49 velocity=127 time=0
note_on channel=2 note=49 velocity=127 time=0
note_on channel=2 note=49 velocity=127 time=0
note_off channel=2 note=37 velocity=127 time=128
note_off channel=2 note=37 velocity=127 time=0
note_off channel=2 note=37 velocity=127 time=0
note_off channel=2 note=49 velocity=127 time=0
note_off channel=2 note=49 velocity=127 time=0
note_off channel=2 note=49 velocity=127 time=0
note_on channel=2 note=37 velocity=127 time=63
note_on channel=2 note=37 velocity=127 time=5
note_on channel=2 note=37 velocity=127 time=0
note_on channel=2 note=49 velocity=127 time=0
note_on channel=2 note=49 velocity=127 time=0
note_on channel=2 note=49 velocity=127 time=0
note_off channel=2 note=37 velocity=127 time=384
note_off channel=2 note=37 velocity=127 time=0
note_off channel=2 note=37 velocity=127 time=0
note_off channel=2 note=49 velocity=127 time=0
note_off channel=2 note=49 velocity=127 time=0
note_off channel=2 note=49 velocity=127 time=0
note_on channel=2 note=28 velocity=127 time=956
note_on channel=2 note=28 velocity=127 time=357
note_on channel=2 note=28 velocity=127 time=0
note_on channel=2 note=40 velocity=127 time=0
note_on channel=2 note=40 velocity=127 time=0
note_on channel=2 note=40 velocity=127 time=0
note_off channel=2 note=28 velocity=127 time=128
note_off channel=2 note=28 velocity=127 time=0
note_off channel=2 note=28 velocity=127 time=0
note_off channel=2 note=40 velocity=127 time=0
note_off channel=2 note=40 velocity=127 time=0
note_off channel=2 note=40 velocity=127 time=0
note_on channel=2 note=40 velocity=127 time=63
note_on channel=2 note=40 velocity=127 time=11
note_on channel=2 note=40 velocity=127 time=0
note_on channel=2 note=52 velocity=127 time=0
note_on channel=2 note=52 velocity=127 time=0
note_on channel=2 note=52 velocity=127 time=0
note_off channel=2 note=40 velocity=127 time=384
note_off channel=2 note=40 velocity=127 time=0
note_off channel=2 note=40 velocity=127 time=0
note_off channel=2 note=52 velocity=127 time=0
note_off channel=2 note=52 velocity=127 time=0
note_off channel=2 note=52 velocity=127 time=0
note_on channel=2 note=38 velocity=127 time=188
note_on channel=2 note=38 velocity=127 time=86
note_on channel=2 note=38 velocity=127 time=0
note_on channel=2 note=50 velocity=127 time=0
note_on channel=2 note=50 velocity=127 time=0
note_on channel=2 note=50 velocity=127 time=0
note_off channel=2 note=38 velocity=127 time=128
note_off channel=2 note=38 velocity=127 time=0
note_off channel=2 note=38 velocity=127 time=0
note_off channel=2 note=50 velocity=127 time=0
note_off channel=2 note=50 velocity=127 time=0
note_off channel=2 note=50 velocity=127 time=0
note_on channel=2 note=38 velocity=127 time=62
note_on channel=2 note=38 velocity=127 time=47
note_on channel=2 note=38 velocity=127 time=0
note_on channel=2 note=50 velocity=127 time=0
note_on channel=2 note=50 velocity=127 time=0
note_on channel=2 note=50 velocity=127 time=0
note_off channel=2 note=38 velocity=127 time=384
note_off channel=2 note=38 velocity=127 time=0
note_off channel=2 note=38 velocity=127 time=0
note_off channel=2 note=50 velocity=127 time=0
note_off channel=2 note=50 velocity=127 time=0
note_off channel=2 note=50 velocity=127 time=0
note_on channel=2 note=37 velocity=127 time=187
note_on channel=2 note=37 velocity=127 time=170
note_on channel=2 note=37 velocity=127 time=0
note_on channel=2 note=49 velocity=127 time=0
note_on channel=2 note=49 velocity=127 time=0
note_on channel=2 note=49 velocity=127 time=0
note_off channel=2 note=37 velocity=127 time=128
note_off channel=2 note=37 velocity=127 time=0
note_off channel=2 note=37 velocity=127 time=0
note_off channel=2 note=49 velocity=127 time=0
note_off channel=2 note=49 velocity=127 time=0
note_off channel=2 note=49 velocity=127 time=0
note_on channel=2 note=37 velocity=127 time=62
note_on channel=2 note=37 velocity=127 time=52
note_on channel=2 note=37 velocity=127 time=0
note_on channel=2 note=49 velocity=127 time=0
note_on channel=2 note=49 velocity=127 time=0
note_on channel=2 note=49 velocity=127 time=0
note_off channel=2 note=37 velocity=127 time=384
note_off channel=2 note=37 velocity=127 time=0
note_off channel=2 note=37 velocity=127 time=0
note_off channel=2 note=49 velocity=127 time=0
note_off channel=2 note=49 velocity=127 time=0
note_off channel=2 note=49 velocity=127 time=0
note_on channel=2 note=35 velocity=127 time=186
note_on channel=2 note=35 velocity=127 time=102
note_on channel=2 note=35 velocity=127 time=0
note_on channel=2 note=47 velocity=127 time=0
note_on channel=2 note=47 velocity=127 time=0
note_on channel=2 note=47 velocity=127 time=0
note_off channel=2 note=35 velocity=127 time=128
note_off channel=2 note=35 velocity=127 time=0
note_off channel=2 note=35 velocity=127 time=0
note_off channel=2 note=47 velocity=127 time=0
note_off channel=2 note=47 velocity=127 time=0
note_off channel=2 note=47 velocity=127 time=0
note_on channel=2 note=43 velocity=127 time=62
note_on channel=2 note=43 velocity=127 time=13
note_on channel=2 note=43 velocity=127 time=0
note_on channel=2 note=55 velocity=127 time=0
note_on channel=2 note=55 velocity=127 time=0
note_on channel=2 note=55 velocity=127 time=0
note_off channel=2 note=43 velocity=127 time=64
note_off channel=2 note=43 velocity=127 time=0
note_off channel=2 note=43 velocity=127 time=0
note_off channel=2 note=55 velocity=127 time=0
note_off channel=2 note=55 velocity=127 time=0
note_off channel=2 note=55 velocity=127 time=0
note_on channel=2 note=45 velocity=127 time=30
note_on channel=2 note=45 velocity=127 time=3
note_on channel=2 note=45 velocity=127 time=0
note_on channel=2 note=57 velocity=127 time=0
note_on channel=2 note=57 velocity=127 time=0
note_on channel=2 note=57 velocity=127 time=0
note_off channel=2 note=45 velocity=127 time=64
note_off channel=2 note=45 velocity=127 time=0
note_off channel=2 note=45 velocity=127 time=0
note_off channel=2 note=57 velocity=127 time=0
note_off channel=2 note=57 velocity=127 time=0
note_off channel=2 note=57 velocity=127 time=0
note_on channel=2 note=46 velocity=127 time=30
note_on channel=2 note=46 velocity=127 time=2
note_on channel=2 note=46 velocity=127 time=0
note_on channel=2 note=58 velocity=127 time=0
note_on channel=2 note=58 velocity=127 time=0
note_on channel=2 note=58 velocity=127 time=0
note_off channel=2 note=46 velocity=127 time=40
note_off channel=2 note=46 velocity=127 time=0
note_off channel=2 note=46 velocity=127 time=0
note_off channel=2 note=58 velocity=127 time=0
note_off channel=2 note=58 velocity=127 time=0
note_off channel=2 note=58 velocity=127 time=0
note_on channel=2 note=45 velocity=127 time=23
note_on channel=2 note=45 velocity=127 time=1
note_on channel=2 note=45 velocity=127 time=0
note_on channel=2 note=57 velocity=127 time=0
note_on channel=2 note=57 velocity=127 time=0
note_on channel=2 note=57 velocity=127 time=0
note_off channel=2 note=45 velocity=127 time=40
note_off channel=2 note=45 velocity=127 time=0
note_off channel=2 note=45 velocity=127 time=0
note_off channel=2 note=57 velocity=127 time=0
note_off channel=2 note=57 velocity=127 time=0
note_off channel=2 note=57 velocity=127 time=0
note_on channel=2 note=43 velocity=127 time=23
note_on channel=2 note=43 velocity=127 time=0
note_on channel=2 note=43 velocity=127 time=0
note_on channel=2 note=55 velocity=127 time=0
note_on channel=2 note=55 velocity=127 time=0
note_on channel=2 note=55 velocity=127 time=0
note_off channel=2 note=43 velocity=127 time=40
note_off channel=2 note=43 velocity=127 time=0
note_off channel=2 note=43 velocity=127 time=0
note_off channel=2 note=55 velocity=127 time=0
note_off channel=2 note=55 velocity=127 time=0
note_off channel=2 note=55 velocity=127 time=0
note_on channel=2 note=45 velocity=127 time=23
note_on channel=2 note=45 velocity=127 time=0
note_on channel=2 note=45 velocity=127 time=0
note_on channel=2 note=57 velocity=127 time=0
note_on channel=2 note=57 velocity=127 time=0
note_on channel=2 note=57 velocity=127 time=0
note_off channel=2 note=45 velocity=127 time=64
note_off channel=2 note=45 velocity=127 time=0
note_off channel=2 note=45 velocity=127 time=0
note_off channel=2 note=57 velocity=127 time=0
note_off channel=2 note=57 velocity=127 time=0
note_off channel=2 note=57 velocity=127 time=0
note_on channel=2 note=40 velocity=127 time=30
note_on channel=2 note=40 velocity=127 time=1
note_on channel=2 note=40 velocity=127 time=0
note_on channel=2 note=52 velocity=127 time=0
note_on channel=2 note=52 velocity=127 time=0
note_on channel=2 note=52 velocity=127 time=0
note_off channel=2 note=40 velocity=127 time=64
note_off channel=2 note=40 velocity=127 time=0
note_off channel=2 note=40 velocity=127 time=0
note_off channel=2 note=52 velocity=127 time=0
note_off channel=2 note=52 velocity=127 time=0
note_off channel=2 note=52 velocity=127 time=0
note_on channel=2 note=28 velocity=127 time=31
note_on channel=2 note=28 velocity=127 time=1
note_on channel=2 note=28 velocity=127 time=0
note_on channel=2 note=40 velocity=127 time=0
note_on channel=2 note=40 velocity=127 time=0
note_on channel=2 note=40 velocity=127 time=0
note_off channel=2 note=28 velocity=127 time=128
note_off channel=2 note=28 velocity=127 time=0
note_off channel=2 note=28 velocity=127 time=0
note_off channel=2 note=40 velocity=127 time=0
note_off channel=2 note=40 velocity=127 time=0
note_off channel=2 note=40 velocity=127 time=0
note_on channel=2 note=40 velocity=127 time=62
note_on channel=2 note=40 velocity=127 time=5
note_on channel=2 note=40 velocity=127 time=0
note_on channel=2 note=52 velocity=127 time=0
note_on channel=2 note=52 velocity=127 time=0
note_on channel=2 note=52 velocity=127 time=0
note_off channel=2 note=40 velocity=127 time=384
note_off channel=2 note=40 velocity=127 time=0
note_off channel=2 note=40 velocity=127 time=0
note_off channel=2 note=52 velocity=127 time=0
note_off channel=2 note=52 velocity=127 time=0
note_off channel=2 note=52 velocity=127 time=0
note_on channel=2 note=38 velocity=127 time=185
note_on channel=2 note=38 velocity=127 time=17
note_on channel=2 note=38 velocity=127 time=0
note_on channel=2 note=50 velocity=127 time=0
note_on channel=2 note=50 velocity=127 time=0
note_on channel=2 note=50 velocity=127 time=0
note_off channel=2 note=38 velocity=127 time=128
note_off channel=2 note=38 velocity=127 time=0
note_off channel=2 note=38 velocity=127 time=0
note_off channel=2 note=50 velocity=127 time=0
note_off channel=2 note=50 velocity=127 time=0
note_off channel=2 note=50 velocity=127 time=0
note_on channel=2 note=38 velocity=127 time=61
note_on channel=2 note=38 velocity=127 time=11
note_on channel=2 note=38 velocity=127 time=0
note_on channel=2 note=50 velocity=127 time=0
note_on channel=2 note=50 velocity=127 time=0
note_on channel=2 note=50 velocity=127 time=0
note_off channel=2 note=38 velocity=127 time=384
note_off channel=2 note=38 velocity=127 time=0
note_off channel=2 note=38 velocity=127 time=0
note_off channel=2 note=50 velocity=127 time=0
note_off channel=2 note=50 velocity=127 time=0
note_off channel=2 note=50 velocity=127 time=0
note_on channel=2 note=37 velocity=127 time=186
note_on channel=2 note=37 velocity=127 time=142
note_on channel=2 note=37 velocity=127 time=0
note_on channel=2 note=49 velocity=127 time=0
note_on channel=2 note=49 velocity=127 time=0
note_on channel=2 note=49 velocity=127 time=0
note_off channel=2 note=37 velocity=127 time=128
note_off channel=2 note=37 velocity=127 time=0
note_off channel=2 note=37 velocity=127 time=0
note_off channel=2 note=49 velocity=127 time=0
note_off channel=2 note=49 velocity=127 time=0
note_off channel=2 note=49 velocity=127 time=0
note_on channel=2 note=37 velocity=127 time=61
note_on channel=2 note=37 velocity=127 time=72
note_on channel=2 note=37 velocity=127 time=0
note_on channel=2 note=49 velocity=127 time=0
note_on channel=2 note=49 velocity=127 time=0
note_on channel=2 note=49 velocity=127 time=0
note_off channel=2 note=37 velocity=127 time=384
note_off channel=2 note=37 velocity=127 time=0
note_off channel=2 note=37 velocity=127 time=0
note_off channel=2 note=49 velocity=127 time=0
note_off channel=2 note=49 velocity=127 time=0
note_off channel=2 note=49 velocity=127 time=0
note_on channel=2 note=45 velocity=127 time=1160
note_on channel=2 note=33 velocity=127 time=204
note_off channel=2 note=45 velocity=0 time=280
note_off channel=2 note=33 velocity=0 time=0
note_on channel=2 note=40 velocity=127 time=19
note_on channel=2 note=28 velocity=127 time=2
note_on channel=2 note=47 velocity=127 time=172
note_on channel=2 note=35 velocity=127 time=19
note_off channel=2 note=40 velocity=0 time=48
note_off channel=2 note=28 velocity=0 time=0
note_off channel=2 note=47 velocity=0 time=228
note_off channel=2 note=35 velocity=0 time=0
note_on channel=2 note=45 velocity=127 time=94
note_on channel=2 note=33 velocity=127 time=4
note_off channel=2 note=45 velocity=0 time=220
note_off channel=2 note=33 velocity=0 time=0
note_on channel=2 note=47 velocity=127 time=0
note_on channel=2 note=35 velocity=127 time=0
note_off channel=2 note=47 velocity=0 time=112
note_off channel=2 note=35 velocity=0 time=0
note_on channel=2 note=45 velocity=127 time=348
note_on channel=2 note=33 velocity=127 time=7
note_off channel=2 note=45 velocity=0 time=280
note_off channel=2 note=33 velocity=0 time=0
note_on channel=2 note=40 velocity=127 time=19
note_on channel=2 note=28 velocity=127 time=10
note_on channel=2 note=47 velocity=127 time=172
note_on channel=2 note=35 velocity=127 time=137
note_off channel=2 note=40 velocity=0 time=48
note_off channel=2 note=28 velocity=0 time=0
note_off channel=2 note=47 velocity=0 time=228
note_off channel=2 note=35 velocity=0 time=0
note_on channel=2 note=45 velocity=127 time=94
note_on channel=2 note=33 velocity=127 time=92
note_off channel=2 note=45 velocity=0 time=220
note_off channel=2 note=33 velocity=0 time=0
note_on channel=2 note=47 velocity=127 time=0
note_on channel=2 note=35 velocity=127 time=0
note_off channel=2 note=47 velocity=0 time=112
note_off channel=2 note=35 velocity=0 time=0
note_on channel=2 note=43 velocity=127 time=332
note_off channel=2 note=43 velocity=0 time=188
note_on channel=2 note=38 velocity=127 time=332
note_on channel=2 note=33 velocity=127 time=271
note_off channel=2 note=38 velocity=0 time=12
note_off channel=2 note=33 velocity=0 time=308
note_on channel=2 note=31 velocity=127 time=18
note_off channel=2 note=31 velocity=0 time=208
note_on channel=2 note=33 velocity=127 time=4
note_off channel=2 note=33 velocity=0 time=380
note_on channel=2 note=43 velocity=127 time=107
note_off channel=2 note=43 velocity=0 time=188
note_on channel=2 note=38 velocity=127 time=86
note_on channel=2 note=33 velocity=127 time=257
note_off channel=2 note=38 velocity=0 time=12
note_off channel=2 note=33 velocity=0 time=308
note_on channel=2 note=31 velocity=127 time=82
note_off channel=2 note=31 velocity=0 time=208
note_on channel=2 note=33 velocity=127 time=4
note_on channel=2 note=33 velocity=127 time=277
note_off channel=2 note=33 velocity=0 time=104
note_off channel=2 note=33 velocity=0 time=0
note_on channel=2 note=45 velocity=127 time=144
note_on channel=2 note=33 velocity=127 time=36
note_off channel=2 note=45 velocity=0 time=280
note_off channel=2 note=33 velocity=0 time=0
note_on channel=2 note=40 velocity=127 time=20
note_on channel=2 note=28 velocity=127 time=7
note_on channel=2 note=47 velocity=127 time=175
note_on channel=2 note=35 velocity=127 time=46
note_off channel=2 note=40 velocity=0 time=48
note_off channel=2 note=28 velocity=0 time=0
note_off channel=2 note=47 velocity=0 time=228
note_off channel=2 note=35 velocity=0 time=0
note_on channel=2 note=45 velocity=127 time=96
note_on channel=2 note=33 velocity=127 time=11
note_off channel=2 note=45 velocity=0 time=220
note_off channel=2 note=33 velocity=0 time=0
note_on channel=2 note=47 velocity=127 time=0
note_on channel=2 note=35 velocity=127 time=0
note_off channel=2 note=47 velocity=0 time=112
note_off channel=2 note=35 velocity=0 time=0
note_on channel=2 note=45 velocity=127 time=355
note_on channel=2 note=33 velocity=127 time=232
note_off channel=2 note=45 velocity=0 time=280
note_off channel=2 note=33 velocity=0 time=0
note_on channel=2 note=40 velocity=127 time=20
note_on channel=2 note=28 velocity=127 time=10
note_on channel=2 note=47 velocity=127 time=176
note_on channel=2 note=35 velocity=127 time=37
note_off channel=2 note=40 velocity=0 time=48
note_off channel=2 note=28 velocity=0 time=0
note_off channel=2 note=47 velocity=0 time=228
note_off channel=2 note=35 velocity=0 time=0
note_on channel=2 note=45 velocity=127 time=96
note_on channel=2 note=33 velocity=127 time=21
note_off channel=2 note=45 velocity=0 time=220
note_off channel=2 note=33 velocity=0 time=0
note_on channel=2 note=47 velocity=127 time=0
note_on channel=2 note=35 velocity=127 time=0
note_off channel=2 note=47 velocity=0 time=112
note_off channel=2 note=35 velocity=0 time=0
note_on channel=2 note=38 velocity=127 time=124
note_on channel=2 note=43 velocity=127 time=63
note_off channel=2 note=38 velocity=0 time=192
note_off channel=2 note=43 velocity=0 time=0
note_on channel=2 note=38 velocity=127 time=96
note_on channel=2 note=43 velocity=127 time=68
note_off channel=2 note=38 velocity=0 time=192
note_off channel=2 note=43 velocity=0 time=0
note_on channel=2 note=38 velocity=127 time=96
note_on channel=2 note=43 velocity=127 time=78
note_off channel=2 note=38 velocity=0 time=192
note_off channel=2 note=43 velocity=0 time=0
note_on channel=2 note=38 velocity=108 time=95
note_on channel=2 note=43 velocity=127 time=80
note_off channel=2 note=38 velocity=0 time=64
note_off channel=2 note=43 velocity=0 time=0
note_on channel=2 note=37 velocity=84 time=31
note_off channel=2 note=37 velocity=0 time=64
note_on channel=2 note=38 velocity=108 time=6
note_on channel=2 note=43 velocity=127 time=25
note_off channel=2 note=38 velocity=0 time=64
note_off channel=2 note=43 velocity=0 time=0
note_on channel=2 note=38 velocity=127 time=31
note_on channel=2 note=43 velocity=127 time=23
note_off channel=2 note=38 velocity=0 time=128
note_off channel=2 note=43 velocity=0 time=0
note_on channel=2 note=38 velocity=127 time=63
note_on channel=2 note=43 velocity=127 time=43
note_off channel=2 note=38 velocity=0 time=128
note_off channel=2 note=43 velocity=0 time=0
note_on channel=2 note=45 velocity=127 time=63
note_on channel=2 note=50 velocity=127 time=37
note_on channel=2 note=54 velocity=127 time=0
note_off channel=2 note=45 velocity=0 time=192
note_off channel=2 note=50 velocity=0 time=0
note_off channel=2 note=54 velocity=0 time=0
note_on channel=2 note=45 velocity=127 time=95
note_on channel=2 note=50 velocity=127 time=48
note_on channel=2 note=54 velocity=127 time=0
note_off channel=2 note=45 velocity=0 time=192
note_off channel=2 note=50 velocity=0 time=0
note_off channel=2 note=54 velocity=0 time=0
note_on channel=2 note=38 velocity=127 time=95
note_on channel=2 note=45 velocity=127 time=48
note_on channel=2 note=50 velocity=127 time=0
note_off channel=2 note=38 velocity=0 time=768
note_off channel=2 note=45 velocity=0 time=0
note_off channel=2 note=50 velocity=0 time=0
note_on channel=2 note=28 velocity=127 time=190
note_on channel=2 note=40 velocity=127 time=137
note_off channel=2 note=28 velocity=0 time=64
note_off channel=2 note=40 velocity=0 time=0
note_on channel=2 note=38 velocity=127 time=31
note_on channel=2 note=50 velocity=127 time=31
note_off channel=2 note=38 velocity=0 time=64
note_off channel=2 note=50 velocity=0 time=0
note_on channel=2 note=37 velocity=127 time=31
note_on channel=2 note=49 velocity=127 time=34
note_off channel=2 note=37 velocity=0 time=64
note_off channel=2 note=49 velocity=0 time=0
note_on channel=2 note=35 velocity=127 time=31
note_on channel=2 note=47 velocity=127 time=35
note_off channel=2 note=35 velocity=0 time=64
note_off channel=2 note=47 velocity=0 time=0
note_on channel=2 note=37 velocity=127 time=31
note_on channel=2 note=49 velocity=127 time=37
note_off channel=2 note=37 velocity=0 time=64
note_off channel=2 note=49 velocity=0 time=0
note_on channel=2 note=31 velocity=127 time=31
note_on channel=2 note=43 velocity=127 time=39
note_off channel=2 note=31 velocity=0 time=128
note_off channel=2 note=43 velocity=0 time=0
note_on channel=2 note=35 velocity=127 time=62
note_on channel=2 note=47 velocity=127 time=76
note_off channel=2 note=35 velocity=0 time=64
note_off channel=2 note=47 velocity=0 time=0
note_on channel=2 note=33 velocity=127 time=31
note_on channel=2 note=45 velocity=127 time=36
note_off channel=2 note=33 velocity=0 time=128
note_off channel=2 note=45 velocity=0 time=0
note_on channel=2 note=35 velocity=127 time=62
note_on channel=2 note=47 velocity=127 time=59
note_off channel=2 note=35 velocity=0 time=64
note_off channel=2 note=47 velocity=0 time=0
note_on channel=2 note=34 velocity=127 time=31
note_on channel=2 note=46 velocity=127 time=21
note_off channel=2 note=34 velocity=0 time=128
note_off channel=2 note=46 velocity=0 time=0
note_on channel=2 note=35 velocity=127 time=62
note_on channel=2 note=47 velocity=127 time=23
note_off channel=2 note=35 velocity=0 time=64
note_off channel=2 note=47 velocity=0 time=0
note_on channel=2 note=35 velocity=127 time=31
note_on channel=2 note=47 velocity=127 time=0
note_off channel=2 note=35 velocity=0 time=128
note_off channel=2 note=47 velocity=0 time=0
note_on channel=2 note=28 velocity=127 time=62
note_on channel=2 note=40 velocity=127 time=19
note_off channel=2 note=28 velocity=0 time=64
note_off channel=2 note=40 velocity=0 time=0
note_on channel=2 note=38 velocity=127 time=31
note_on channel=2 note=50 velocity=127 time=19
note_off channel=2 note=38 velocity=0 time=64
note_off channel=2 note=50 velocity=0 time=0
note_on channel=2 note=37 velocity=127 time=31
note_on channel=2 note=49 velocity=127 time=23
note_off channel=2 note=37 velocity=0 time=64
note_off channel=2 note=49 velocity=0 time=0
note_on channel=2 note=35 velocity=127 time=31
note_on channel=2 note=47 velocity=127 time=29
note_off channel=2 note=35 velocity=0 time=64
note_off channel=2 note=47 velocity=0 time=0
note_on channel=2 note=37 velocity=127 time=31
note_on channel=2 note=49 velocity=127 time=32
note_off channel=2 note=37 velocity=0 time=64
note_off channel=2 note=49 velocity=0 time=0
note_on channel=2 note=31 velocity=127 time=31
note_on channel=2 note=43 velocity=127 time=35
note_off channel=2 note=31 velocity=0 time=128
note_off channel=2 note=43 velocity=0 time=0
note_on channel=2 note=35 velocity=127 time=62
note_on channel=2 note=47 velocity=127 time=77
note_off channel=2 note=35 velocity=0 time=64
note_off channel=2 note=47 velocity=0 time=0
note_on channel=2 note=33 velocity=127 time=31
note_on channel=2 note=45 velocity=127 time=40
note_off channel=2 note=33 velocity=0 time=128
note_off channel=2 note=45 velocity=0 time=0
note_on channel=2 note=35 velocity=127 time=63
note_on channel=2 note=47 velocity=127 time=80
note_off channel=2 note=35 velocity=0 time=64
note_off channel=2 note=47 velocity=0 time=0
note_on channel=2 note=34 velocity=127 time=31
note_on channel=2 note=46 velocity=127 time=39
note_off channel=2 note=34 velocity=0 time=128
note_off channel=2 note=46 velocity=0 time=0
note_on channel=2 note=35 velocity=127 time=62
note_on channel=2 note=47 velocity=127 time=74
note_off channel=2 note=35 velocity=0 time=64
note_off channel=2 note=47 velocity=0 time=0
note_on channel=2 note=35 velocity=127 time=32
note_on channel=2 note=47 velocity=127 time=34
note_off channel=2 note=35 velocity=0 time=128
note_off channel=2 note=47 velocity=0 time=0
note_on channel=2 note=28 velocity=127 time=62
note_on channel=2 note=40 velocity=127 time=60
note_off channel=2 note=28 velocity=0 time=64
note_off channel=2 note=40 velocity=0 time=0
note_on channel=2 note=38 velocity=127 time=32
note_on channel=2 note=50 velocity=127 time=26
note_off channel=2 note=38 velocity=0 time=64
note_off channel=2 note=50 velocity=0 time=0
note_on channel=2 note=37 velocity=127 time=31
note_on channel=2 note=49 velocity=127 time=23
note_off channel=2 note=37 velocity=0 time=64
note_off channel=2 note=49 velocity=0 time=0
note_on channel=2 note=35 velocity=127 time=31
note_on channel=2 note=47 velocity=127 time=20
note_off channel=2 note=35 velocity=0 time=64
note_off channel=2 note=47 velocity=0 time=0
note_on channel=2 note=37 velocity=127 time=32
note_on channel=2 note=49 velocity=127 time=18
note_off channel=2 note=37 velocity=0 time=64
note_off channel=2 note=49 velocity=0 time=0
note_on channel=2 note=31 velocity=127 time=31
note_on channel=2 note=43 velocity=127 time=15
note_off channel=2 note=31 velocity=0 time=128
note_off channel=2 note=43 velocity=0 time=0
note_on channel=2 note=35 velocity=127 time=63
note_on channel=2 note=47 velocity=127 time=24
note_off channel=2 note=35 velocity=0 time=64
note_off channel=2 note=47 velocity=0 time=0
note_on channel=2 note=33 velocity=127 time=31
note_on channel=2 note=45 velocity=127 time=9
note_off channel=2 note=33 velocity=0 time=128
note_off channel=2 note=45 velocity=0 time=0
note_on channel=2 note=35 velocity=127 time=63
note_on channel=2 note=47 velocity=127 time=15
note_off channel=2 note=35 velocity=0 time=64
note_off channel=2 note=47 velocity=0 time=0
note_on channel=2 note=34 velocity=127 time=31
note_on channel=2 note=46 velocity=127 time=6
note_off channel=2 note=34 velocity=0 time=128
note_off channel=2 note=46 velocity=0 time=0
note_on channel=2 note=35 velocity=127 time=63
note_on channel=2 note=47 velocity=127 time=11
note_off channel=2 note=35 velocity=0 time=64
note_off channel=2 note=47 velocity=0 time=0
note_on channel=2 note=35 velocity=127 time=31
note_on channel=2 note=47 velocity=127 time=5
note_off channel=2 note=35 velocity=0 time=128
note_off channel=2 note=47 velocity=0 time=0
note_on channel=2 note=28 velocity=127 time=63
note_on channel=2 note=40 velocity=127 time=9
note_off channel=2 note=28 velocity=0 time=64
note_off channel=2 note=40 velocity=0 time=0
note_on channel=2 note=38 velocity=127 time=31
note_on channel=2 note=50 velocity=127 time=4
note_off channel=2 note=38 velocity=0 time=64
note_off channel=2 note=50 velocity=0 time=0
note_on channel=2 note=37 velocity=127 time=32
note_on channel=2 note=49 velocity=127 time=4
note_off channel=2 note=37 velocity=0 time=64
note_off channel=2 note=49 velocity=0 time=0
note_on channel=2 note=35 velocity=127 time=31
note_on channel=2 note=47 velocity=127 time=3
note_off channel=2 note=35 velocity=0 time=64
note_off channel=2 note=47 velocity=0 time=0
note_on channel=2 note=37 velocity=127 time=32
note_on channel=2 note=49 velocity=127 time=2
note_off channel=2 note=37 velocity=0 time=64
note_off channel=2 note=49 velocity=0 time=0
note_on channel=2 note=31 velocity=127 time=31
note_on channel=2 note=43 velocity=127 time=1
note_off channel=2 note=31 velocity=0 time=128
note_off channel=2 note=43 velocity=0 time=0
note_on channel=2 note=35 velocity=127 time=63
note_on channel=2 note=47 velocity=127 time=0
note_off channel=2 note=35 velocity=0 time=64
note_off channel=2 note=47 velocity=0 time=0
note_on channel=2 note=33 velocity=127 time=31
note_on channel=2 note=45 velocity=127 time=3
note_off channel=2 note=33 velocity=0 time=128
note_off channel=2 note=45 velocity=0 time=0
note_on channel=2 note=35 velocity=127 time=63
note_on channel=2 note=47 velocity=127 time=13
note_off channel=2 note=35 velocity=0 time=64
note_off channel=2 note=47 velocity=0 time=0
note_on channel=2 note=34 velocity=127 time=31
note_on channel=2 note=46 velocity=127 time=11
note_off channel=2 note=34 velocity=0 time=128
note_off channel=2 note=46 velocity=0 time=0
note_on channel=2 note=35 velocity=127 time=63
note_on channel=2 note=47 velocity=127 time=33
note_off channel=2 note=35 velocity=0 time=64
note_off channel=2 note=47 velocity=0 time=0
note_on channel=2 note=35 velocity=127 time=31
note_on channel=2 note=47 velocity=127 time=23
note_off channel=2 note=35 velocity=0 time=128
note_off channel=2 note=47 velocity=0 time=0
note_on channel=2 note=33 velocity=127 time=63
note_on channel=2 note=45 velocity=127 time=59
note_off channel=2 note=33 velocity=0 time=64
note_off channel=2 note=45 velocity=0 time=0
note_on channel=2 note=43 velocity=127 time=31
note_on channel=2 note=55 velocity=127 time=35
note_off channel=2 note=43 velocity=0 time=64
note_off channel=2 note=55 velocity=0 time=0
note_on channel=2 note=42 velocity=127 time=32
note_on channel=2 note=54 velocity=127 time=40
note_off channel=2 note=42 velocity=0 time=64
note_off channel=2 note=54 velocity=0 time=0
note_on channel=2 note=40 velocity=127 time=31
note_on channel=2 note=52 velocity=127 time=41
note_off channel=2 note=40 velocity=0 time=64
note_off channel=2 note=52 velocity=0 time=0
note_on channel=2 note=42 velocity=127 time=31
note_on channel=2 note=54 velocity=127 time=45
note_off channel=2 note=42 velocity=0 time=64
note_off channel=2 note=54 velocity=0 time=0
note_on channel=2 note=36 velocity=127 time=32
note_on channel=2 note=48 velocity=127 time=48
note_off channel=2 note=36 velocity=0 time=128
note_off channel=2 note=48 velocity=0 time=0
note_on channel=2 note=40 velocity=127 time=62
note_on channel=2 note=52 velocity=127 time=97
note_off channel=2 note=40 velocity=0 time=64
note_off channel=2 note=52 velocity=0 time=0
note_on channel=2 note=38 velocity=127 time=31
note_on channel=2 note=50 velocity=127 time=49
note_off channel=2 note=38 velocity=0 time=128
note_off channel=2 note=50 velocity=0 time=0
note_on channel=2 note=40 velocity=127 time=62
note_on channel=2 note=52 velocity=127 time=89
note_off channel=2 note=40 velocity=0 time=64
note_off channel=2 note=52 velocity=0 time=0
note_on channel=2 note=39 velocity=127 time=31
note_on channel=2 note=51 velocity=127 time=40
note_off channel=2 note=39 velocity=0 time=128
note_off channel=2 note=51 velocity=0 time=0
note_on channel=2 note=40 velocity=127 time=62
note_on channel=2 note=52 velocity=127 time=68
note_off channel=2 note=40 velocity=0 time=64
note_off channel=2 note=52 velocity=0 time=0
note_on channel=2 note=40 velocity=127 time=31
note_on channel=2 note=52 velocity=127 time=27
note_off channel=2 note=40 velocity=0 time=128
note_off channel=2 note=52 velocity=0 time=0
note_on channel=2 note=33 velocity=127 time=62
note_on channel=2 note=45 velocity=127 time=41
note_off channel=2 note=33 velocity=0 time=64
note_off channel=2 note=45 velocity=0 time=0
note_on channel=2 note=43 velocity=127 time=31
note_on channel=2 note=55 velocity=127 time=14
note_off channel=2 note=43 velocity=0 time=64
note_off channel=2 note=55 velocity=0 time=0
note_on channel=2 note=42 velocity=127 time=31
note_on channel=2 note=54 velocity=127 time=10
note_off channel=2 note=42 velocity=0 time=64
note_off channel=2 note=54 velocity=0 time=0
note_on channel=2 note=40 velocity=127 time=31
note_on channel=2 note=52 velocity=127 time=7
note_off channel=2 note=40 velocity=0 time=64
note_off channel=2 note=52 velocity=0 time=0
note_on channel=2 note=42 velocity=127 time=31
note_on channel=2 note=54 velocity=127 time=4
note_off channel=2 note=42 velocity=0 time=64
note_off channel=2 note=54 velocity=0 time=0
note_on channel=2 note=36 velocity=127 time=30
note_on channel=2 note=48 velocity=127 time=2
note_off channel=2 note=36 velocity=0 time=128
note_off channel=2 note=48 velocity=0 time=0
note_on channel=2 note=40 velocity=127 time=62
note_on channel=2 note=52 velocity=127 time=2
note_off channel=2 note=40 velocity=0 time=64
note_off channel=2 note=52 velocity=0 time=0
note_on channel=2 note=38 velocity=127 time=31
note_on channel=2 note=50 velocity=127 time=0
note_off channel=2 note=38 velocity=0 time=128
note_off channel=2 note=50 velocity=0 time=0
note_on channel=2 note=40 velocity=127 time=61
note_on channel=2 note=52 velocity=127 time=4
note_off channel=2 note=40 velocity=0 time=64
note_off channel=2 note=52 velocity=0 time=0
note_on channel=2 note=39 velocity=127 time=31
note_on channel=2 note=51 velocity=127 time=5
note_off channel=2 note=39 velocity=0 time=128
note_off channel=2 note=51 velocity=0 time=0
note_on channel=2 note=40 velocity=127 time=61
note_on channel=2 note=52 velocity=127 time=18
note_off channel=2 note=40 velocity=0 time=64
note_off channel=2 note=52 velocity=0 time=0
note_on channel=2 note=40 velocity=127 time=31
note_on channel=2 note=52 velocity=127 time=14
note_off channel=2 note=40 velocity=0 time=128
note_off channel=2 note=52 velocity=0 time=0
note_on channel=2 note=28 velocity=127 time=61
note_on channel=2 note=40 velocity=127 time=42
note_off channel=2 note=28 velocity=0 time=64
note_off channel=2 note=40 velocity=0 time=0
note_on channel=2 note=38 velocity=127 time=31
note_on channel=2 note=50 velocity=127 time=28
note_off channel=2 note=38 velocity=0 time=64
note_off channel=2 note=50 velocity=0 time=0
note_on channel=2 note=37 velocity=127 time=30
note_on channel=2 note=49 velocity=127 time=32
note_off channel=2 note=37 velocity=0 time=64
note_off channel=2 note=49 velocity=0 time=0
note_on channel=2 note=35 velocity=127 time=30
note_on channel=2 note=47 velocity=127 time=36
note_off channel=2 note=35 velocity=0 time=64
note_off channel=2 note=47 velocity=0 time=0
note_on channel=2 note=37 velocity=127 time=31
note_on channel=2 note=49 velocity=127 time=40
note_off channel=2 note=37 velocity=0 time=64
note_off channel=2 note=49 velocity=0 time=0
note_on channel=2 note=31 velocity=127 time=30
note_on channel=2 note=43 velocity=127 time=0
note_off channel=2 note=31 velocity=0 time=128
note_off channel=2 note=43 velocity=0 time=0
note_on channel=2 note=35 velocity=127 time=62
note_on channel=2 note=47 velocity=127 time=130
note_off channel=2 note=35 velocity=0 time=64
note_off channel=2 note=47 velocity=0 time=0
note_on channel=2 note=33 velocity=127 time=30
note_on channel=2 note=45 velocity=127 time=42
note_off channel=2 note=33 velocity=0 time=128
note_off channel=2 note=45 velocity=0 time=0
note_on channel=2 note=35 velocity=127 time=61
note_on channel=2 note=47 velocity=127 time=78
note_off channel=2 note=35 velocity=0 time=64
note_off channel=2 note=47 velocity=0 time=0
note_on channel=2 note=34 velocity=127 time=30
note_on channel=2 note=46 velocity=127 time=32
note_off channel=2 note=34 velocity=0 time=128
note_off channel=2 note=46 velocity=0 time=0
note_on channel=2 note=35 velocity=127 time=61
note_on channel=2 note=47 velocity=127 time=0
note_off channel=2 note=35 velocity=0 time=64
note_off channel=2 note=47 velocity=0 time=0
note_on channel=2 note=35 velocity=127 time=30
note_on channel=2 note=47 velocity=127 time=56
note_off channel=2 note=35 velocity=0 time=128
note_off channel=2 note=47 velocity=0 time=0
note_on channel=2 note=28 velocity=127 time=61
note_on channel=2 note=40 velocity=127 time=1
note_off channel=2 note=28 velocity=0 time=64
note_off channel=2 note=40 velocity=0 time=0
note_on channel=2 note=38 velocity=127 time=31
note_on channel=2 note=50 velocity=127 time=9
note_off channel=2 note=38 velocity=0 time=64
note_off channel=2 note=50 velocity=0 time=0
note_on channel=2 note=37 velocity=127 time=30
note_on channel=2 note=49 velocity=127 time=15
note_off channel=2 note=37 velocity=0 time=64
note_off channel=2 note=49 velocity=0 time=0
note_on channel=2 note=35 velocity=127 time=30
note_on channel=2 note=47 velocity=127 time=20
note_off channel=2 note=35 velocity=0 time=64
note_off channel=2 note=47 velocity=0 time=0
note_on channel=2 note=37 velocity=127 time=31
note_on channel=2 note=49 velocity=127 time=25
note_off channel=2 note=37 velocity=0 time=64
note_off channel=2 note=49 velocity=0 time=0
note_on channel=2 note=31 velocity=127 time=30
note_on channel=2 note=43 velocity=127 time=27
note_off channel=2 note=31 velocity=0 time=128
note_off channel=2 note=43 velocity=0 time=0
note_on channel=2 note=35 velocity=127 time=61
note_on channel=2 note=47 velocity=127 time=61
note_off channel=2 note=35 velocity=0 time=64
note_off channel=2 note=47 velocity=0 time=0
note_on channel=2 note=33 velocity=127 time=30
note_on channel=2 note=45 velocity=127 time=31
note_off channel=2 note=33 velocity=0 time=128
note_off channel=2 note=45 velocity=0 time=0
note_on channel=2 note=35 velocity=127 time=61
note_on channel=2 note=47 velocity=127 time=59
note_off channel=2 note=35 velocity=0 time=64
note_off channel=2 note=47 velocity=0 time=0
note_on channel=2 note=34 velocity=127 time=30
note_on channel=2 note=46 velocity=127 time=26
note_off channel=2 note=34 velocity=0 time=128
note_off channel=2 note=46 velocity=0 time=0
note_on channel=2 note=35 velocity=127 time=62
note_on channel=2 note=47 velocity=127 time=46
note_off channel=2 note=35 velocity=0 time=64
note_off channel=2 note=47 velocity=0 time=0
note_on channel=2 note=35 velocity=127 time=30
note_on channel=2 note=47 velocity=127 time=19
note_off channel=2 note=35 velocity=0 time=128
note_off channel=2 note=47 velocity=0 time=0
note_on channel=2 note=45 velocity=127 time=287
note_on channel=2 note=33 velocity=127 time=0
note_off channel=2 note=45 velocity=0 time=280
note_off channel=2 note=33 velocity=0 time=0
note_on channel=2 note=40 velocity=127 time=18
note_on channel=2 note=28 velocity=127 time=210
note_on channel=2 note=47 velocity=127 time=171
note_on channel=2 note=35 velocity=127 time=253
note_off channel=2 note=40 velocity=0 time=48
note_off channel=2 note=28 velocity=0 time=0
note_off channel=2 note=47 velocity=0 time=228
note_off channel=2 note=35 velocity=0 time=0
note_on channel=2 note=45 velocity=127 time=94
note_on channel=2 note=33 velocity=127 time=147
note_off channel=2 note=45 velocity=0 time=220
note_off channel=2 note=33 velocity=0 time=0
note_on channel=2 note=47 velocity=127 time=0
note_on channel=2 note=35 velocity=127 time=0
note_off channel=2 note=47 velocity=0 time=112
note_off channel=2 note=35 velocity=0 time=0
note_on channel=2 note=45 velocity=127 time=350
note_on channel=2 note=33 velocity=127 time=316
note_off channel=2 note=45 velocity=0 time=280
note_off channel=2 note=33 velocity=0 time=0
note_on channel=2 note=40 velocity=127 time=20
note_on channel=2 note=28 velocity=127 time=3
note_on channel=2 note=47 velocity=127 time=174
note_on channel=2 note=35 velocity=127 time=11
note_off channel=2 note=40 velocity=0 time=48
note_off channel=2 note=28 velocity=0 time=0
note_off channel=2 note=47 velocity=0 time=228
note_off channel=2 note=35 velocity=0 time=0
note_on channel=2 note=45 velocity=127 time=95
note_on channel=2 note=33 velocity=127 time=16
note_off channel=2 note=45 velocity=0 time=220
note_off channel=2 note=33 velocity=0 time=0
note_on channel=2 note=47 velocity=127 time=0
note_on channel=2 note=35 velocity=127 time=0
note_off channel=2 note=47 velocity=0 time=112
note_off channel=2 note=35 velocity=0 time=0
note_on channel=2 note=43 velocity=127 time=332
note_off channel=2 note=43 velocity=0 time=188
note_on channel=2 note=38 velocity=127 time=230
note_on channel=2 note=33 velocity=127 time=325
note_off channel=2 note=38 velocity=0 time=12
note_off channel=2 note=33 velocity=0 time=308
note_on channel=2 note=31 velocity=127 time=217
note_off channel=2 note=31 velocity=0 time=208
note_on channel=2 note=33 velocity=127 time=4
note_on channel=2 note=33 velocity=127 time=278
note_off channel=2 note=33 velocity=0 time=104
note_off channel=2 note=33 velocity=0 time=0
note_on channel=2 note=43 velocity=127 time=95
note_off channel=2 note=43 velocity=0 time=188
note_on channel=2 note=38 velocity=127 time=5
note_on channel=2 note=33 velocity=127 time=157
note_off channel=2 note=38 velocity=0 time=12
note_off channel=2 note=33 velocity=0 time=308
note_on channel=2 note=31 velocity=127 time=274
note_off channel=2 note=31 velocity=0 time=208
note_on channel=2 note=33 velocity=127 time=3
note_on channel=2 note=33 velocity=127 time=269
note_off channel=2 note=33 velocity=0 time=104
note_off channel=2 note=33 velocity=0 time=0
note_on channel=2 note=45 velocity=127 time=268
note_on channel=2 note=33 velocity=127 time=227
note_off channel=2 note=45 velocity=0 time=280
note_off channel=2 note=33 velocity=0 time=0
note_on channel=2 note=40 velocity=127 time=19
note_on channel=2 note=28 velocity=127 time=38
note_on channel=2 note=47 velocity=127 time=171
note_on channel=2 note=35 velocity=127 time=327
note_off channel=2 note=40 velocity=0 time=48
note_off channel=2 note=28 velocity=0 time=0
note_off channel=2 note=47 velocity=0 time=228
note_off channel=2 note=35 velocity=0 time=0
note_on channel=2 note=45 velocity=127 time=92
note_on channel=2 note=33 velocity=127 time=145
note_off channel=2 note=45 velocity=0 time=220
note_off channel=2 note=33 velocity=0 time=0
note_on channel=2 note=47 velocity=127 time=0
note_on channel=2 note=35 velocity=127 time=0
note_off channel=2 note=47 velocity=0 time=112
note_off channel=2 note=35 velocity=0 time=0
note_on channel=2 note=45 velocity=127 time=343
note_on channel=2 note=33 velocity=127 time=11
note_off channel=2 note=45 velocity=0 time=280
note_off channel=2 note=33 velocity=0 time=0
note_on channel=2 note=40 velocity=127 time=19
note_on channel=2 note=28 velocity=127 time=15
note_on channel=2 note=47 velocity=127 time=169
note_on channel=2 note=35 velocity=127 time=109
note_off channel=2 note=40 velocity=0 time=48
note_off channel=2 note=28 velocity=0 time=0
note_off channel=2 note=47 velocity=0 time=228
note_off channel=2 note=35 velocity=0 time=0
note_on channel=2 note=45 velocity=127 time=92
note_on channel=2 note=33 velocity=127 time=9
note_off channel=2 note=45 velocity=0 time=220
note_off channel=2 note=33 velocity=0 time=0
note_on channel=2 note=47 velocity=127 time=0
note_on channel=2 note=35 velocity=127 time=0
note_off channel=2 note=47 velocity=0 time=112
note_off channel=2 note=35 velocity=0 time=0
note_on channel=2 note=38 velocity=127 time=120
note_off channel=2 note=38 velocity=0 time=768
note_on channel=2 note=38 velocity=114 time=314
note_off channel=2 note=38 velocity=0 time=64
note_on channel=2 note=38 velocity=108 time=294
note_off channel=2 note=38 velocity=0 time=64
note_on channel=2 note=31 velocity=64 time=6
note_off channel=2 note=31 velocity=0 time=128
note_on channel=2 note=38 velocity=127 time=61
note_on channel=2 note=38 velocity=127 time=63
note_off channel=2 note=38 velocity=0 time=1028
note_off channel=2 note=38 velocity=0 time=0
note_on channel=2 note=28 velocity=127 time=3427
note_on channel=2 note=28 velocity=127 time=2411
note_on channel=2 note=28 velocity=127 time=0
note_on channel=2 note=40 velocity=127 time=0
note_on channel=2 note=40 velocity=127 time=0
note_on channel=2 note=40 velocity=127 time=0
note_off channel=2 note=28 velocity=127 time=128
note_off channel=2 note=28 velocity=127 time=0
note_off channel=2 note=28 velocity=127 time=0
note_off channel=2 note=40 velocity=127 time=0
note_off channel=2 note=40 velocity=127 time=0
note_off channel=2 note=40 velocity=127 time=0
note_on channel=2 note=40 velocity=127 time=64
note_on channel=2 note=40 velocity=127 time=45
note_on channel=2 note=40 velocity=127 time=0
note_on channel=2 note=52 velocity=127 time=0
note_on channel=2 note=52 velocity=127 time=0
note_on channel=2 note=52 velocity=127 time=0
note_off channel=2 note=40 velocity=127 time=384
note_off channel=2 note=40 velocity=127 time=0
note_off channel=2 note=40 velocity=127 time=0
note_off channel=2 note=52 velocity=127 time=0
note_off channel=2 note=52 velocity=127 time=0
note_off channel=2 note=52 velocity=127 time=0
note_on channel=2 note=38 velocity=127 time=193
note_on channel=2 note=38 velocity=127 time=137
note_on channel=2 note=38 velocity=127 time=0
note_on channel=2 note=50 velocity=127 time=0
note_on channel=2 note=50 velocity=127 time=0
note_on channel=2 note=50 velocity=127 time=0
note_off channel=2 note=38 velocity=127 time=128
note_off channel=2 note=38 velocity=127 time=0
note_off channel=2 note=38 velocity=127 time=0
note_off channel=2 note=50 velocity=127 time=0
note_off channel=2 note=50 velocity=127 time=0
note_off channel=2 note=50 velocity=127 time=0
note_on channel=2 note=38 velocity=127 time=63
note_on channel=2 note=38 velocity=127 time=33
note_on channel=2 note=38 velocity=127 time=0
note_on channel=2 note=50 velocity=127 time=0
note_on channel=2 note=50 velocity=127 time=0
note_on channel=2 note=50 velocity=127 time=0
note_off channel=2 note=38 velocity=127 time=384
note_off channel=2 note=38 velocity=127 time=0
note_off channel=2 note=38 velocity=127 time=0
note_off channel=2 note=50 velocity=127 time=0
note_off channel=2 note=50 velocity=127 time=0
note_off channel=2 note=50 velocity=127 time=0
note_on channel=2 note=37 velocity=127 time=192
note_on channel=2 note=37 velocity=127 time=100
note_on channel=2 note=37 velocity=127 time=0
note_on channel=2 note=49 velocity=127 time=0
note_on channel=2 note=49 velocity=127 time=0
note_on channel=2 note=49 velocity=127 time=0
note_off channel=2 note=37 velocity=127 time=128
note_off channel=2 note=37 velocity=127 time=0
note_off channel=2 note=37 velocity=127 time=0
note_off channel=2 note=49 velocity=127 time=0
note_off channel=2 note=49 velocity=127 time=0
note_off channel=2 note=49 velocity=127 time=0
note_on channel=2 note=37 velocity=127 time=64
note_on channel=2 note=37 velocity=127 time=44
note_on channel=2 note=37 velocity=127 time=0
note_on channel=2 note=49 velocity=127 time=0
note_on channel=2 note=49 velocity=127 time=0
note_on channel=2 note=49 velocity=127 time=0
note_off channel=2 note=37 velocity=127 time=384
note_off channel=2 note=37 velocity=127 time=0
note_off channel=2 note=37 velocity=127 time=0
note_off channel=2 note=49 velocity=127 time=0
note_off channel=2 note=49 velocity=127 time=0
note_off channel=2 note=49 velocity=127 time=0
note_on channel=2 note=35 velocity=127 time=191
note_on channel=2 note=35 velocity=127 time=181
note_on channel=2 note=35 velocity=127 time=0
note_on channel=2 note=47 velocity=127 time=0
note_on channel=2 note=47 velocity=127 time=0
note_on channel=2 note=47 velocity=127 time=0
note_off channel=2 note=35 velocity=127 time=128
note_off channel=2 note=35 velocity=127 time=0
note_off channel=2 note=35 velocity=127 time=0
note_off channel=2 note=47 velocity=127 time=0
note_off channel=2 note=47 velocity=127 time=0
note_off channel=2 note=47 velocity=127 time=0
note_on channel=2 note=43 velocity=127 time=63
note_on channel=2 note=43 velocity=127 time=78
note_on channel=2 note=43 velocity=127 time=0
note_on channel=2 note=55 velocity=127 time=0
note_on channel=2 note=55 velocity=127 time=0
note_on channel=2 note=55 velocity=127 time=0
note_off channel=2 note=43 velocity=127 time=64
note_off channel=2 note=43 velocity=127 time=0
note_off channel=2 note=43 velocity=127 time=0
note_off channel=2 note=55 velocity=127 time=0
note_off channel=2 note=55 velocity=127 time=0
note_off channel=2 note=55 velocity=127 time=0
note_on channel=2 note=45 velocity=127 time=31
note_on channel=2 note=45 velocity=127 time=42
note_on channel=2 note=45 velocity=127 time=0
note_on channel=2 note=57 velocity=127 time=0
note_on channel=2 note=57 velocity=127 time=0
note_on channel=2 note=57 velocity=127 time=0
note_off channel=2 note=45 velocity=127 time=64
note_off channel=2 note=45 velocity=127 time=0
note_off channel=2 note=45 velocity=127 time=0
note_off channel=2 note=57 velocity=127 time=0
note_off channel=2 note=57 velocity=127 time=0
note_off channel=2 note=57 velocity=127 time=0
note_on channel=2 note=46 velocity=127 time=32
note_on channel=2 note=46 velocity=127 time=45
note_on channel=2 note=46 velocity=127 time=0
note_on channel=2 note=58 velocity=127 time=0
note_on channel=2 note=58 velocity=127 time=0
note_on channel=2 note=58 velocity=127 time=0
note_off channel=2 note=46 velocity=127 time=40
note_off channel=2 note=46 velocity=127 time=0
note_off channel=2 note=46 velocity=127 time=0
note_off channel=2 note=58 velocity=127 time=0
note_off channel=2 note=58 velocity=127 time=0
note_off channel=2 note=58 velocity=127 time=0
note_on channel=2 note=45 velocity=127 time=23
note_on channel=2 note=45 velocity=127 time=35
note_on channel=2 note=45 velocity=127 time=0
note_on channel=2 note=57 velocity=127 time=0
note_on channel=2 note=57 velocity=127 time=0
note_on channel=2 note=57 velocity=127 time=0
note_off channel=2 note=45 velocity=127 time=40
note_off channel=2 note=45 velocity=127 time=0
note_off channel=2 note=45 velocity=127 time=0
note_off channel=2 note=57 velocity=127 time=0
note_off channel=2 note=57 velocity=127 time=0
note_off channel=2 note=57 velocity=127 time=0
note_on channel=2 note=43 velocity=127 time=23
note_on channel=2 note=43 velocity=127 time=36
note_on channel=2 note=43 velocity=127 time=0
note_on channel=2 note=55 velocity=127 time=0
note_on channel=2 note=55 velocity=127 time=0
note_on channel=2 note=55 velocity=127 time=0
note_off channel=2 note=43 velocity=127 time=40
note_off channel=2 note=43 velocity=127 time=0
note_off channel=2 note=43 velocity=127 time=0
note_off channel=2 note=55 velocity=127 time=0
note_off channel=2 note=55 velocity=127 time=0
note_off channel=2 note=55 velocity=127 time=0
note_on channel=2 note=45 velocity=127 time=24
note_on channel=2 note=45 velocity=127 time=37
note_on channel=2 note=45 velocity=127 time=0
note_on channel=2 note=57 velocity=127 time=0
note_on channel=2 note=57 velocity=127 time=0
note_on channel=2 note=57 velocity=127 time=0
note_off channel=2 note=45 velocity=127 time=64
note_off channel=2 note=45 velocity=127 time=0
note_off channel=2 note=45 velocity=127 time=0
note_off channel=2 note=57 velocity=127 time=0
note_off channel=2 note=57 velocity=127 time=0
note_off channel=2 note=57 velocity=127 time=0
note_on channel=2 note=40 velocity=127 time=31
note_on channel=2 note=40 velocity=127 time=49
note_on channel=2 note=40 velocity=127 time=0
note_on channel=2 note=52 velocity=127 time=0
note_on channel=2 note=52 velocity=127 time=0
note_on channel=2 note=52 velocity=127 time=0
note_off channel=2 note=40 velocity=127 time=64
note_off channel=2 note=40 velocity=127 time=0
note_off channel=2 note=40 velocity=127 time=0
note_off channel=2 note=52 velocity=127 time=0
note_off channel=2 note=52 velocity=127 time=0
note_off channel=2 note=52 velocity=127 time=0
note_on channel=2 note=28 velocity=127 time=31
note_on channel=2 note=28 velocity=127 time=49
note_on channel=2 note=28 velocity=127 time=0
note_on channel=2 note=40 velocity=127 time=0
note_on channel=2 note=40 velocity=127 time=0
note_on channel=2 note=40 velocity=127 time=0
note_off channel=2 note=28 velocity=127 time=128
note_off channel=2 note=28 velocity=127 time=0
note_off channel=2 note=28 velocity=127 time=0
note_off channel=2 note=40 velocity=127 time=0
note_off channel=2 note=40 velocity=127 time=0
note_off channel=2 note=40 velocity=127 time=0
note_on channel=2 note=40 velocity=127 time=63
note_on channel=2 note=40 velocity=127 time=95
note_on channel=2 note=40 velocity=127 time=0
note_on channel=2 note=52 velocity=127 time=0
note_on channel=2 note=52 velocity=127 time=0
note_on channel=2 note=52 velocity=127 time=0
note_off channel=2 note=40 velocity=127 time=384
note_off channel=2 note=40 velocity=127 time=0
note_off channel=2 note=40 velocity=127 time=0
note_off channel=2 note=52 velocity=127 time=0
note_off channel=2 note=52 velocity=127 time=0
note_off channel=2 note=52 velocity=127 time=0
note_on channel=2 note=38 velocity=127 time=189
note_on channel=2 note=38 velocity=127 time=183
note_on channel=2 note=38 velocity=127 time=0
note_on channel=2 note=50 velocity=127 time=0
note_on channel=2 note=50 velocity=127 time=0
note_on channel=2 note=50 velocity=127 time=0
note_off channel=2 note=38 velocity=127 time=128
note_off channel=2 note=38 velocity=127 time=0
note_off channel=2 note=38 velocity=127 time=0
note_off channel=2 note=50 velocity=127 time=0
note_off channel=2 note=50 velocity=127 time=0
note_off channel=2 note=50 velocity=127 time=0
note_on channel=2 note=38 velocity=127 time=63
note_on channel=2 note=38 velocity=127 time=11
note_on channel=2 note=38 velocity=127 time=0
note_on channel=2 note=50 velocity=127 time=0
note_on channel=2 note=50 velocity=127 time=0
note_on channel=2 note=50 velocity=127 time=0
note_off channel=2 note=38 velocity=127 time=384
note_off channel=2 note=38 velocity=127 time=0
note_off channel=2 note=38 velocity=127 time=0
note_off channel=2 note=50 velocity=127 time=0
note_off channel=2 note=50 velocity=127 time=0
note_off channel=2 note=50 velocity=127 time=0
note_on channel=2 note=37 velocity=127 time=188
note_on channel=2 note=37 velocity=127 time=105
note_on channel=2 note=37 velocity=127 time=0
note_on channel=2 note=49 velocity=127 time=0
note_on channel=2 note=49 velocity=127 time=0
note_on channel=2 note=49 velocity=127 time=0
note_off channel=2 note=37 velocity=127 time=128
note_off channel=2 note=37 velocity=127 time=0
note_off channel=2 note=37 velocity=127 time=0
note_off channel=2 note=49 velocity=127 time=0
note_off channel=2 note=49 velocity=127 time=0
note_off channel=2 note=49 velocity=127 time=0
note_on channel=2 note=37 velocity=127 time=63
note_on channel=2 note=37 velocity=127 time=69
note_on channel=2 note=37 velocity=127 time=0
note_on channel=2 note=49 velocity=127 time=0
note_on channel=2 note=49 velocity=127 time=0
note_on channel=2 note=49 velocity=127 time=0
note_off channel=2 note=37 velocity=127 time=384
note_off channel=2 note=37 velocity=127 time=0
note_off channel=2 note=37 velocity=127 time=0
note_off channel=2 note=49 velocity=127 time=0
note_off channel=2 note=49 velocity=127 time=0
note_off channel=2 note=49 velocity=127 time=0
note_on channel=2 note=38 velocity=127 time=189
note_on channel=2 note=38 velocity=127 time=221
note_on channel=2 note=38 velocity=127 time=0
note_off channel=2 note=38 velocity=127 time=128
note_off channel=2 note=38 velocity=127 time=0
note_off channel=2 note=38 velocity=127 time=0
note_on channel=2 note=50 velocity=127 time=63
note_off channel=2 note=50 velocity=127 time=128
note_on channel=2 note=38 velocity=127 time=123
note_on channel=2 note=38 velocity=127 time=47
note_on channel=2 note=38 velocity=127 time=0
note_off channel=2 note=38 velocity=127 time=128
note_off channel=2 note=38 velocity=127 time=0
note_off channel=2 note=38 velocity=127 time=0
note_on channel=2 note=50 velocity=127 time=63
note_off channel=2 note=50 velocity=127 time=128
note_on channel=2 note=28 velocity=127 time=100
note_on channel=2 note=28 velocity=127 time=27
note_on channel=2 note=28 velocity=127 time=0
note_on channel=2 note=40 velocity=127 time=0
note_on channel=2 note=40 velocity=127 time=0
note_on channel=2 note=40 velocity=127 time=0
note_off channel=2 note=28 velocity=127 time=128
note_off channel=2 note=28 velocity=127 time=0
note_off channel=2 note=28 velocity=127 time=0
note_off channel=2 note=40 velocity=127 time=0
note_off channel=2 note=40 velocity=127 time=0
note_off channel=2 note=40 velocity=127 time=0
note_on channel=2 note=40 velocity=127 time=63
note_on channel=2 note=40 velocity=127 time=23
note_on channel=2 note=40 velocity=127 time=0
note_on channel=2 note=52 velocity=127 time=0
note_on channel=2 note=52 velocity=127 time=0
note_on channel=2 note=52 velocity=127 time=0
note_off channel=2 note=40 velocity=127 time=384
note_off channel=2 note=40 velocity=127 time=0
note_off channel=2 note=40 velocity=127 time=0
note_off channel=2 note=52 velocity=127 time=0
note_off channel=2 note=52 velocity=127 time=0
note_off channel=2 note=52 velocity=127 time=0
note_on channel=2 note=38 velocity=127 time=190
note_on channel=2 note=38 velocity=127 time=85
note_on channel=2 note=38 velocity=127 time=0
note_on channel=2 note=50 velocity=127 time=0
note_on channel=2 note=50 velocity=127 time=0
note_on channel=2 note=50 velocity=127 time=0
note_off channel=2 note=38 velocity=127 time=128
note_off channel=2 note=38 velocity=127 time=0
note_off channel=2 note=38 velocity=127 time=0
note_off channel=2 note=50 velocity=127 time=0
note_off channel=2 note=50 velocity=127 time=0
note_off channel=2 note=50 velocity=127 time=0
note_on channel=2 note=38 velocity=127 time=63
note_on channel=2 note=38 velocity=127 time=38
note_on channel=2 note=38 velocity=127 time=0
note_on channel=2 note=50 velocity=127 time=0
note_on channel=2 note=50 velocity=127 time=0
note_on channel=2 note=50 velocity=127 time=0
note_off channel=2 note=38 velocity=127 time=384
note_off channel=2 note=38 velocity=127 time=0
note_off channel=2 note=38 velocity=127 time=0
note_off channel=2 note=50 velocity=127 time=0
note_off channel=2 note=50 velocity=127 time=0
note_off channel=2 note=50 velocity=127 time=0
note_on channel=2 note=37 velocity=127 time=191
note_on channel=2 note=37 velocity=127 time=85
note_on channel=2 note=37 velocity=127 time=0
note_on channel=2 note=49 velocity=127 time=0
note_on channel=2 note=49 velocity=127 time=0
note_on channel=2 note=49 velocity=127 time=0
note_off channel=2 note=37 velocity=127 time=128
note_off channel=2 note=37 velocity=127 time=0
note_off channel=2 note=37 velocity=127 time=0
note_off channel=2 note=49 velocity=127 time=0
note_off channel=2 note=49 velocity=127 time=0
note_off channel=2 note=49 velocity=127 time=0
note_on channel=2 note=37 velocity=127 time=63
note_on channel=2 note=37 velocity=127 time=3
note_on channel=2 note=37 velocity=127 time=0
note_on channel=2 note=49 velocity=127 time=0
note_on channel=2 note=49 velocity=127 time=0
note_on channel=2 note=49 velocity=127 time=0
note_off channel=2 note=37 velocity=127 time=384
note_off channel=2 note=37 velocity=127 time=0
note_off channel=2 note=37 velocity=127 time=0
note_off channel=2 note=49 velocity=127 time=0
note_off channel=2 note=49 velocity=127 time=0
note_off channel=2 note=49 velocity=127 time=0
note_on channel=2 note=35 velocity=127 time=191
note_on channel=2 note=35 velocity=127 time=142
note_on channel=2 note=35 velocity=127 time=0
note_on channel=2 note=47 velocity=127 time=0
note_on channel=2 note=47 velocity=127 time=0
note_on channel=2 note=47 velocity=127 time=0
note_off channel=2 note=35 velocity=127 time=128
note_off channel=2 note=35 velocity=127 time=0
note_off channel=2 note=35 velocity=127 time=0
note_off channel=2 note=47 velocity=127 time=0
note_off channel=2 note=47 velocity=127 time=0
note_off channel=2 note=47 velocity=127 time=0
note_on channel=2 note=43 velocity=127 time=63
note_on channel=2 note=43 velocity=127 time=89
note_on channel=2 note=43 velocity=127 time=0
note_on channel=2 note=55 velocity=127 time=0
note_on channel=2 note=55 velocity=127 time=0
note_on channel=2 note=55 velocity=127 time=0
note_off channel=2 note=43 velocity=127 time=64
note_off channel=2 note=43 velocity=127 time=0
note_off channel=2 note=43 velocity=127 time=0
note_off channel=2 note=55 velocity=127 time=0
note_off channel=2 note=55 velocity=127 time=0
note_off channel=2 note=55 velocity=127 time=0
note_on channel=2 note=45 velocity=127 time=32
note_on channel=2 note=45 velocity=127 time=52
note_on channel=2 note=45 velocity=127 time=0
note_on channel=2 note=57 velocity=127 time=0
note_on channel=2 note=57 velocity=127 time=0
note_on channel=2 note=57 velocity=127 time=0
note_off channel=2 note=45 velocity=127 time=64
note_off channel=2 note=45 velocity=127 time=0
note_off channel=2 note=45 velocity=127 time=0
note_off channel=2 note=57 velocity=127 time=0
note_off channel=2 note=57 velocity=127 time=0
note_off channel=2 note=57 velocity=127 time=0
note_on channel=2 note=46 velocity=127 time=31
note_on channel=2 note=46 velocity=127 time=56
note_on channel=2 note=46 velocity=127 time=0
note_on channel=2 note=58 velocity=127 time=0
note_on channel=2 note=58 velocity=127 time=0
note_on channel=2 note=58 velocity=127 time=0
note_off channel=2 note=46 velocity=127 time=40
note_off channel=2 note=46 velocity=127 time=0
note_off channel=2 note=46 velocity=127 time=0
note_off channel=2 note=58 velocity=127 time=0
note_off channel=2 note=58 velocity=127 time=0
note_off channel=2 note=58 velocity=127 time=0
note_on channel=2 note=45 velocity=127 time=23
note_on channel=2 note=45 velocity=127 time=44
note_on channel=2 note=45 velocity=127 time=0
note_on channel=2 note=57 velocity=127 time=0
note_on channel=2 note=57 velocity=127 time=0
note_on channel=2 note=57 velocity=127 time=0
note_off channel=2 note=45 velocity=127 time=40
note_off channel=2 note=45 velocity=127 time=0
note_off channel=2 note=45 velocity=127 time=0
note_off channel=2 note=57 velocity=127 time=0
note_off channel=2 note=57 velocity=127 time=0
note_off channel=2 note=57 velocity=127 time=0
note_on channel=2 note=43 velocity=127 time=23
note_on channel=2 note=43 velocity=127 time=47
note_on channel=2 note=43 velocity=127 time=0
note_on channel=2 note=55 velocity=127 time=0
note_on channel=2 note=55 velocity=127 time=0
note_on channel=2 note=55 velocity=127 time=0
note_off channel=2 note=43 velocity=127 time=40
note_off channel=2 note=43 velocity=127 time=0
note_off channel=2 note=43 velocity=127 time=0
note_off channel=2 note=55 velocity=127 time=0
note_off channel=2 note=55 velocity=127 time=0
note_off channel=2 note=55 velocity=127 time=0
note_on channel=2 note=45 velocity=127 time=24
note_on channel=2 note=45 velocity=127 time=50
note_on channel=2 note=45 velocity=127 time=0
note_on channel=2 note=57 velocity=127 time=0
note_on channel=2 note=57 velocity=127 time=0
note_on channel=2 note=57 velocity=127 time=0
note_off channel=2 note=45 velocity=127 time=64
note_off channel=2 note=45 velocity=127 time=0
note_off channel=2 note=45 velocity=127 time=0
note_off channel=2 note=57 velocity=127 time=0
note_off channel=2 note=57 velocity=127 time=0
note_off channel=2 note=57 velocity=127 time=0
note_on channel=2 note=40 velocity=127 time=31
note_on channel=2 note=40 velocity=127 time=68
note_on channel=2 note=40 velocity=127 time=0
note_on channel=2 note=52 velocity=127 time=0
note_on channel=2 note=52 velocity=127 time=0
note_on channel=2 note=52 velocity=127 time=0
note_off channel=2 note=40 velocity=127 time=64
note_off channel=2 note=40 velocity=127 time=0
note_off channel=2 note=40 velocity=127 time=0
note_off channel=2 note=52 velocity=127 time=0
note_off channel=2 note=52 velocity=127 time=0
note_off channel=2 note=52 velocity=127 time=0
note_on channel=2 note=28 velocity=127 time=31
note_on channel=2 note=28 velocity=127 time=69
note_on channel=2 note=28 velocity=127 time=0
note_on channel=2 note=40 velocity=127 time=0
note_on channel=2 note=40 velocity=127 time=0
note_on channel=2 note=40 velocity=127 time=0
note_off channel=2 note=28 velocity=127 time=128
note_off channel=2 note=28 velocity=127 time=0
note_off channel=2 note=28 velocity=127 time=0
note_off channel=2 note=40 velocity=127 time=0
note_off channel=2 note=40 velocity=127 time=0
note_off channel=2 note=40 velocity=127 time=0
note_on channel=2 note=40 velocity=127 time=63
note_on channel=2 note=40 velocity=127 time=147
note_on channel=2 note=40 velocity=127 time=0
note_on channel=2 note=52 velocity=127 time=0
note_on channel=2 note=52 velocity=127 time=0
note_on channel=2 note=52 velocity=127 time=0
note_off channel=2 note=40 velocity=127 time=384
note_off channel=2 note=40 velocity=127 time=0
note_off channel=2 note=40 velocity=127 time=0
note_off channel=2 note=52 velocity=127 time=0
note_off channel=2 note=52 velocity=127 time=0
note_off channel=2 note=52 velocity=127 time=0
note_on channel=2 note=38 velocity=127 time=188
note_on channel=2 note=38 velocity=127 time=395
note_on channel=2 note=38 velocity=127 time=0
note_on channel=2 note=50 velocity=127 time=0
note_on channel=2 note=50 velocity=127 time=0
note_on channel=2 note=50 velocity=127 time=0
note_off channel=2 note=38 velocity=127 time=128
note_off channel=2 note=38 velocity=127 time=0
note_off channel=2 note=38 velocity=127 time=0
note_off channel=2 note=50 velocity=127 time=0
note_off channel=2 note=50 velocity=127 time=0
note_off channel=2 note=50 velocity=127 time=0
note_on channel=2 note=38 velocity=127 time=62
note_on channel=2 note=38 velocity=127 time=93
note_on channel=2 note=38 velocity=127 time=0
note_on channel=2 note=50 velocity=127 time=0
note_on channel=2 note=50 velocity=127 time=0
note_on channel=2 note=50 velocity=127 time=0
note_off channel=2 note=38 velocity=127 time=384
note_off channel=2 note=38 velocity=127 time=0
note_off channel=2 note=38 velocity=127 time=0
note_off channel=2 note=50 velocity=127 time=0
note_off channel=2 note=50 velocity=127 time=0
note_off channel=2 note=50 velocity=127 time=0
note_on channel=2 note=37 velocity=127 time=186
note_on channel=2 note=37 velocity=127 time=171
note_on channel=2 note=37 velocity=127 time=0
note_on channel=2 note=49 velocity=127 time=0
note_on channel=2 note=49 velocity=127 time=0
note_on channel=2 note=49 velocity=127 time=0
note_off channel=2 note=37 velocity=127 time=128
note_off channel=2 note=37 velocity=127 time=0
note_off channel=2 note=37 velocity=127 time=0
note_off channel=2 note=49 velocity=127 time=0
note_off channel=2 note=49 velocity=127 time=0
note_off channel=2 note=49 velocity=127 time=0
note_on channel=2 note=37 velocity=127 time=62
note_on channel=2 note=37 velocity=127 time=40
note_on channel=2 note=37 velocity=127 time=0
note_on channel=2 note=49 velocity=127 time=0
note_on channel=2 note=49 velocity=127 time=0
note_on channel=2 note=49 velocity=127 time=0
note_off channel=2 note=37 velocity=127 time=384
note_off channel=2 note=37 velocity=127 time=0
note_off channel=2 note=37 velocity=127 time=0
note_off channel=2 note=49 velocity=127 time=0
note_off channel=2 note=49 velocity=127 time=0
note_off channel=2 note=49 velocity=127 time=0
note_on channel=2 note=38 velocity=127 time=186
note_on channel=2 note=38 velocity=127 time=170
note_on channel=2 note=38 velocity=127 time=0
note_off channel=2 note=38 velocity=127 time=128
note_off channel=2 note=38 velocity=127 time=0
note_off channel=2 note=38 velocity=127 time=0
note_on channel=2 note=50 velocity=127 time=62
note_off channel=2 note=50 velocity=127 time=128
note_on channel=2 note=38 velocity=127 time=25
note_on channel=2 note=38 velocity=127 time=94
note_on channel=2 note=38 velocity=127 time=0
note_off channel=2 note=38 velocity=127 time=128
note_off channel=2 note=38 velocity=127 time=0
note_off channel=2 note=38 velocity=127 time=0
note_on channel=2 note=50 velocity=127 time=61
note_off channel=2 note=50 velocity=127 time=128
note_on channel=2 note=28 velocity=127 time=29
note_on channel=2 note=28 velocity=127 time=70
note_on channel=2 note=28 velocity=127 time=0
note_on channel=2 note=40 velocity=127 time=0
note_on channel=2 note=40 velocity=127 time=0
note_on channel=2 note=40 velocity=127 time=0
note_off channel=2 note=28 velocity=127 time=128
note_off channel=2 note=28 velocity=127 time=0
note_off channel=2 note=28 velocity=127 time=0
note_off channel=2 note=40 velocity=127 time=0
note_off channel=2 note=40 velocity=127 time=0
note_off channel=2 note=40 velocity=127 time=0
note_on channel=2 note=40 velocity=127 time=61
note_on channel=2 note=40 velocity=127 time=40
note_on channel=2 note=40 velocity=127 time=0
note_on channel=2 note=52 velocity=127 time=0
note_on channel=2 note=52 velocity=127 time=0
note_on channel=2 note=52 velocity=127 time=0
note_off channel=2 note=40 velocity=127 time=384
note_off channel=2 note=40 velocity=127 time=0
note_off channel=2 note=40 velocity=127 time=0
note_off channel=2 note=52 velocity=127 time=0
note_off channel=2 note=52 velocity=127 time=0
note_off channel=2 note=52 velocity=127 time=0
note_on channel=2 note=38 velocity=127 time=184
note_on channel=2 note=38 velocity=127 time=116
note_on channel=2 note=38 velocity=127 time=0
note_on channel=2 note=50 velocity=127 time=0
note_on channel=2 note=50 velocity=127 time=0
note_on channel=2 note=50 velocity=127 time=0
note_off channel=2 note=38 velocity=127 time=128
note_off channel=2 note=38 velocity=127 time=0
note_off channel=2 note=38 velocity=127 time=0
note_off channel=2 note=50 velocity=127 time=0
note_off channel=2 note=50 velocity=127 time=0
note_off channel=2 note=50 velocity=127 time=0
note_on channel=2 note=38 velocity=127 time=61
note_on channel=2 note=38 velocity=127 time=113
note_on channel=2 note=38 velocity=127 time=0
note_on channel=2 note=50 velocity=127 time=0
note_on channel=2 note=50 velocity=127 time=0
note_on channel=2 note=50 velocity=127 time=0
note_off channel=2 note=38 velocity=127 time=384
note_off channel=2 note=38 velocity=127 time=0
note_off channel=2 note=38 velocity=127 time=0
note_off channel=2 note=50 velocity=127 time=0
note_off channel=2 note=50 velocity=127 time=0
note_off channel=2 note=50 velocity=127 time=0
note_on channel=2 note=37 velocity=127 time=184
note_on channel=2 note=37 velocity=127 time=480
note_on channel=2 note=37 velocity=127 time=0
note_on channel=2 note=49 velocity=127 time=0
note_on channel=2 note=49 velocity=127 time=0
note_on channel=2 note=49 velocity=127 time=0
note_off channel=2 note=37 velocity=127 time=128
note_off channel=2 note=37 velocity=127 time=0
note_off channel=2 note=37 velocity=127 time=0
note_off channel=2 note=49 velocity=127 time=0
note_off channel=2 note=49 velocity=127 time=0
note_off channel=2 note=49 velocity=127 time=0
note_on channel=2 note=37 velocity=127 time=61
note_on channel=2 note=37 velocity=127 time=172
note_on channel=2 note=37 velocity=127 time=0
note_on channel=2 note=49 velocity=127 time=0
note_on channel=2 note=49 velocity=127 time=0
note_on channel=2 note=49 velocity=127 time=0
note_off channel=2 note=37 velocity=127 time=384
note_off channel=2 note=37 velocity=127 time=0
note_off channel=2 note=37 velocity=127 time=0
note_off channel=2 note=49 velocity=127 time=0
note_off channel=2 note=49 velocity=127 time=0
note_off channel=2 note=49 velocity=127 time=0
note_on channel=2 note=35 velocity=127 time=187
note_on channel=2 note=35 velocity=127 time=458
note_on channel=2 note=35 velocity=127 time=0
note_on channel=2 note=47 velocity=127 time=0
note_on channel=2 note=47 velocity=127 time=0
note_on channel=2 note=47 velocity=127 time=0
note_off channel=2 note=35 velocity=127 time=128
note_off channel=2 note=35 velocity=127 time=0
note_off channel=2 note=35 velocity=127 time=0
note_off channel=2 note=47 velocity=127 time=0
note_off channel=2 note=47 velocity=127 time=0
note_off channel=2 note=47 velocity=127 time=0
note_on channel=2 note=43 velocity=127 time=62
note_on channel=2 note=43 velocity=127 time=115
note_on channel=2 note=43 velocity=127 time=0
note_on channel=2 note=55 velocity=127 time=0
note_on channel=2 note=55 velocity=127 time=0
note_on channel=2 note=55 velocity=127 time=0
note_off channel=2 note=43 velocity=127 time=64
note_off channel=2 note=43 velocity=127 time=0
note_off channel=2 note=43 velocity=127 time=0
note_off channel=2 note=55 velocity=127 time=0
note_off channel=2 note=55 velocity=127 time=0
note_off channel=2 note=55 velocity=127 time=0
note_on channel=2 note=45 velocity=127 time=31
note_on channel=2 note=45 velocity=127 time=51
note_on channel=2 note=45 velocity=127 time=0
note_on channel=2 note=57 velocity=127 time=0
note_on channel=2 note=57 velocity=127 time=0
note_on channel=2 note=57 velocity=127 time=0
note_off channel=2 note=45 velocity=127 time=64
note_off channel=2 note=45 velocity=127 time=0
note_off channel=2 note=45 velocity=127 time=0
note_off channel=2 note=57 velocity=127 time=0
note_off channel=2 note=57 velocity=127 time=0
note_off channel=2 note=57 velocity=127 time=0
note_on channel=2 note=46 velocity=127 time=31
note_on channel=2 note=46 velocity=127 time=45
note_on channel=2 note=46 velocity=127 time=0
note_on channel=2 note=58 velocity=127 time=0
note_on channel=2 note=58 velocity=127 time=0
note_on channel=2 note=58 velocity=127 time=0
note_off channel=2 note=46 velocity=127 time=40
note_off channel=2 note=46 velocity=127 time=0
note_off channel=2 note=46 velocity=127 time=0
note_off channel=2 note=58 velocity=127 time=0
note_off channel=2 note=58 velocity=127 time=0
note_off channel=2 note=58 velocity=127 time=0
note_on channel=2 note=45 velocity=127 time=23
note_on channel=2 note=45 velocity=127 time=30
note_on channel=2 note=45 velocity=127 time=0
note_on channel=2 note=57 velocity=127 time=0
note_on channel=2 note=57 velocity=127 time=0
note_on channel=2 note=57 velocity=127 time=0
note_off channel=2 note=45 velocity=127 time=40
note_off channel=2 note=45 velocity=127 time=0
note_off channel=2 note=45 velocity=127 time=0
note_off channel=2 note=57 velocity=127 time=0
note_off channel=2 note=57 velocity=127 time=0
note_off channel=2 note=57 velocity=127 time=0
note_on channel=2 note=43 velocity=127 time=24
note_on channel=2 note=43 velocity=127 time=27
note_on channel=2 note=43 velocity=127 time=0
note_on channel=2 note=55 velocity=127 time=0
note_on channel=2 note=55 velocity=127 time=0
note_on channel=2 note=55 velocity=127 time=0
note_off channel=2 note=43 velocity=127 time=40
note_off channel=2 note=43 velocity=127 time=0
note_off channel=2 note=43 velocity=127 time=0
note_off channel=2 note=55 velocity=127 time=0
note_off channel=2 note=55 velocity=127 time=0
note_off channel=2 note=55 velocity=127 time=0
note_on channel=2 note=45 velocity=127 time=23
note_on channel=2 note=45 velocity=127 time=25
note_on channel=2 note=45 velocity=127 time=0
note_on channel=2 note=57 velocity=127 time=0
note_on channel=2 note=57 velocity=127 time=0
note_on channel=2 note=57 velocity=127 time=0
note_off channel=2 note=45 velocity=127 time=64
note_off channel=2 note=45 velocity=127 time=0
note_off channel=2 note=45 velocity=127 time=0
note_off channel=2 note=57 velocity=127 time=0
note_off channel=2 note=57 velocity=127 time=0
note_off channel=2 note=57 velocity=127 time=0
note_on channel=2 note=40 velocity=127 time=31
note_on channel=2 note=40 velocity=127 time=30
note_on channel=2 note=40 velocity=127 time=0
note_on channel=2 note=52 velocity=127 time=0
note_on channel=2 note=52 velocity=127 time=0
note_on channel=2 note=52 velocity=127 time=0
note_off channel=2 note=40 velocity=127 time=64
note_off channel=2 note=40 velocity=127 time=0
note_off channel=2 note=40 velocity=127 time=0
note_off channel=2 note=52 velocity=127 time=0
note_off channel=2 note=52 velocity=127 time=0
note_off channel=2 note=52 velocity=127 time=0
note_on channel=2 note=28 velocity=127 time=32
note_on channel=2 note=28 velocity=127 time=26
note_on channel=2 note=28 velocity=127 time=0
note_on channel=2 note=40 velocity=127 time=0
note_on channel=2 note=40 velocity=127 time=0
note_on channel=2 note=40 velocity=127 time=0
note_off channel=2 note=28 velocity=127 time=128
note_off channel=2 note=28 velocity=127 time=0
note_off channel=2 note=28 velocity=127 time=0
note_off channel=2 note=40 velocity=127 time=0
note_off channel=2 note=40 velocity=127 time=0
note_off channel=2 note=40 velocity=127 time=0
note_on channel=2 note=40 velocity=127 time=63
note_on channel=2 note=40 velocity=127 time=42
note_on channel=2 note=40 velocity=127 time=0
note_on channel=2 note=52 velocity=127 time=0
note_on channel=2 note=52 velocity=127 time=0
note_on channel=2 note=52 velocity=127 time=0
note_off channel=2 note=40 velocity=127 time=384
note_off channel=2 note=40 velocity=127 time=0
note_off channel=2 note=40 velocity=127 time=0
note_off channel=2 note=52 velocity=127 time=0
note_off channel=2 note=52 velocity=127 time=0
note_off channel=2 note=52 velocity=127 time=0
note_on channel=2 note=38 velocity=127 time=190
note_on channel=2 note=38 velocity=127 time=85
note_on channel=2 note=38 velocity=127 time=0
note_on channel=2 note=50 velocity=127 time=0
note_on channel=2 note=50 velocity=127 time=0
note_on channel=2 note=50 velocity=127 time=0
note_off channel=2 note=38 velocity=127 time=128
note_off channel=2 note=38 velocity=127 time=0
note_off channel=2 note=38 velocity=127 time=0
note_off channel=2 note=50 velocity=127 time=0
note_off channel=2 note=50 velocity=127 time=0
note_off channel=2 note=50 velocity=127 time=0
note_on channel=2 note=38 velocity=127 time=63
note_on channel=2 note=38 velocity=127 time=23
note_on channel=2 note=38 velocity=127 time=0
note_on channel=2 note=50 velocity=127 time=0
note_on channel=2 note=50 velocity=127 time=0
note_on channel=2 note=50 velocity=127 time=0
note_off channel=2 note=38 velocity=127 time=384
note_off channel=2 note=38 velocity=127 time=0
note_off channel=2 note=38 velocity=127 time=0
note_off channel=2 note=50 velocity=127 time=0
note_off channel=2 note=50 velocity=127 time=0
note_off channel=2 note=50 velocity=127 time=0
note_on channel=2 note=37 velocity=127 time=190
note_on channel=2 note=37 velocity=127 time=40
note_on channel=2 note=37 velocity=127 time=0
note_on channel=2 note=49 velocity=127 time=0
note_on channel=2 note=49 velocity=127 time=0
note_on channel=2 note=49 velocity=127 time=0
note_off channel=2 note=37 velocity=127 time=128
note_off channel=2 note=37 velocity=127 time=0
note_off channel=2 note=37 velocity=127 time=0
note_off channel=2 note=49 velocity=127 time=0
note_off channel=2 note=49 velocity=127 time=0
note_off channel=2 note=49 velocity=127 time=0
note_on channel=2 note=37 velocity=127 time=63
note_on channel=2 note=37 velocity=127 time=9
note_on channel=2 note=37 velocity=127 time=0
note_on channel=2 note=49 velocity=127 time=0
note_on channel=2 note=49 velocity=127 time=0
note_on channel=2 note=49 velocity=127 time=0
note_off channel=2 note=37 velocity=127 time=384
note_off channel=2 note=37 velocity=127 time=0
note_off channel=2 note=37 velocity=127 time=0
note_off channel=2 note=49 velocity=127 time=0
note_off channel=2 note=49 velocity=127 time=0
note_off channel=2 note=49 velocity=127 time=0
note_on channel=2 note=38 velocity=127 time=190
note_on channel=2 note=38 velocity=127 time=139
note_on channel=2 note=38 velocity=127 time=0
note_off channel=2 note=38 velocity=127 time=128
note_off channel=2 note=38 velocity=127 time=0
note_off channel=2 note=38 velocity=127 time=0
note_on channel=2 note=50 velocity=127 time=63
note_off channel=2 note=50 velocity=127 time=128
note_on channel=2 note=38 velocity=127 time=16
note_on channel=2 note=38 velocity=127 time=87
note_on channel=2 note=38 velocity=127 time=0
note_off channel=2 note=38 velocity=127 time=128
note_off channel=2 note=38 velocity=127 time=0
note_off channel=2 note=38 velocity=127 time=0
note_on channel=2 note=50 velocity=127 time=62
note_off channel=2 note=50 velocity=127 time=128
<meta message end_of_track time=0>
<meta message track_name name='vocal' time=0>
control_change channel=3 control=0 value=0 time=0
program_change channel=3 program=81 time=0
control_change channel=3 control=91 value=63 time=0
control_change channel=3 control=93 value=70 time=0
<meta message key_signature key='E' time=0>
note_on channel=3 note=76 velocity=127 time=7621
note_on channel=3 note=76 velocity=127 time=90
note_on channel=3 note=76 velocity=127 time=0
note_on channel=3 note=76 velocity=127 time=0
note_on channel=3 note=76 velocity=127 time=0
note_off channel=3 note=76 velocity=127 time=64
note_off channel=3 note=76 velocity=127 time=0
note_off channel=3 note=76 velocity=127 time=0
note_off channel=3 note=76 velocity=127 time=0
note_off channel=3 note=76 velocity=127 time=0
note_on channel=3 note=76 velocity=127 time=31
note_on channel=3 note=76 velocity=127 time=0
note_on channel=3 note=76 velocity=127 time=0
note_on channel=3 note=76 velocity=127 time=0
note_on channel=3 note=76 velocity=127 time=0
note_off channel=3 note=76 velocity=127 time=128
note_off channel=3 note=76 velocity=127 time=0
note_off channel=3 note=76 velocity=127 time=0
note_off channel=3 note=76 velocity=127 time=0
note_off channel=3 note=76 velocity=127 time=0
note_on channel=3 note=76 velocity=127 time=62
note_on channel=3 note=76 velocity=127 time=2
note_on channel=3 note=76 velocity=127 time=0
note_on channel=3 note=76 velocity=127 time=0
note_on channel=3 note=76 velocity=127 time=0
note_off channel=3 note=76 velocity=127 time=256
note_off channel=3 note=76 velocity=127 time=0
note_off channel=3 note=76 velocity=127 time=0
note_off channel=3 note=76 velocity=127 time=0
note_off channel=3 note=76 velocity=127 time=0
note_on channel=3 note=74 velocity=127 time=313
note_on channel=3 note=74 velocity=127 time=13
note_on channel=3 note=74 velocity=127 time=0
note_on channel=3 note=74 velocity=127 time=0
note_on channel=3 note=74 velocity=127 time=0
note_off channel=3 note=74 velocity=127 time=64
note_off channel=3 note=74 velocity=127 time=0
note_off channel=3 note=74 velocity=127 time=0
note_off channel=3 note=74 velocity=127 time=0
note_off channel=3 note=74 velocity=127 time=0
note_on channel=3 note=74 velocity=127 time=31
note_on channel=3 note=74 velocity=127 time=5
note_on channel=3 note=74 velocity=127 time=0
note_on channel=3 note=74 velocity=127 time=0
note_on channel=3 note=74 velocity=127 time=0
note_off channel=3 note=74 velocity=127 time=64
note_off channel=3 note=74 velocity=127 time=0
note_off channel=3 note=74 velocity=127 time=0
note_off channel=3 note=74 velocity=127 time=0
note_off channel=3 note=74 velocity=127 time=0
note_on channel=3 note=74 velocity=127 time=31
note_on channel=3 note=74 velocity=127 time=5
note_on channel=3 note=74 velocity=127 time=0
note_on channel=3 note=74 velocity=127 time=0
note_on channel=3 note=74 velocity=127 time=0
note_off channel=3 note=74 velocity=127 time=64
note_off channel=3 note=74 velocity=127 time=0
note_off channel=3 note=74 velocity=127 time=0
note_off channel=3 note=74 velocity=127 time=0
note_off channel=3 note=74 velocity=127 time=0
note_on channel=3 note=74 velocity=127 time=31
note_on channel=3 note=74 velocity=127 time=6
note_on channel=3 note=74 velocity=127 time=0
note_on channel=3 note=74 velocity=127 time=0
note_on channel=3 note=74 velocity=127 time=0
note_off channel=3 note=74 velocity=127 time=256
note_off channel=3 note=74 velocity=127 time=0
note_off channel=3 note=74 velocity=127 time=0
note_off channel=3 note=74 velocity=127 time=0
note_off channel=3 note=74 velocity=127 time=0
note_on channel=3 note=76 velocity=127 time=220
note_on channel=3 note=76 velocity=127 time=39
note_on channel=3 note=76 velocity=127 time=0
note_on channel=3 note=76 velocity=127 time=0
note_on channel=3 note=76 velocity=127 time=0
note_off channel=3 note=76 velocity=127 time=64
note_off channel=3 note=76 velocity=127 time=0
note_off channel=3 note=76 velocity=127 time=0
note_off channel=3 note=76 velocity=127 time=0
note_off channel=3 note=76 velocity=127 time=0
note_on channel=3 note=76 velocity=127 time=32
note_on channel=3 note=76 velocity=127 time=3
note_on channel=3 note=76 velocity=127 time=0
note_on channel=3 note=76 velocity=127 time=0
note_on channel=3 note=76 velocity=127 time=0
note_off channel=3 note=76 velocity=127 time=64
note_off channel=3 note=76 velocity=127 time=0
note_off channel=3 note=76 velocity=127 time=0
note_off channel=3 note=76 velocity=127 time=0
note_off channel=3 note=76 velocity=127 time=0
note_on channel=3 note=76 velocity=127 time=31
note_on channel=3 note=76 velocity=127 time=3
note_on channel=3 note=76 velocity=127 time=0
note_on channel=3 note=76 velocity=127 time=0
note_on channel=3 note=76 velocity=127 time=0
note_off channel=3 note=76 velocity=127 time=64
note_off channel=3 note=76 velocity=127 time=0
note_off channel=3 note=76 velocity=127 time=0
note_off channel=3 note=76 velocity=127 time=0
note_off channel=3 note=76 velocity=127 time=0
note_on channel=3 note=76 velocity=127 time=31
note_on channel=3 note=76 velocity=127 time=2
note_on channel=3 note=76 velocity=127 time=0
note_on channel=3 note=76 velocity=127 time=0
note_on channel=3 note=76 velocity=127 time=0
note_off channel=3 note=76 velocity=127 time=128
note_off channel=3 note=76 velocity=127 time=0
note_off channel=3 note=76 velocity=127 time=0
note_off channel=3 note=76 velocity=127 time=0
note_off channel=3 note=76 velocity=127 time=0
note_on channel=3 note=71 velocity=127 time=63
note_on channel=3 note=71 velocity=127 time=2
note_on channel=3 note=71 velocity=127 time=0
note_on channel=3 note=71 velocity=127 time=0
note_on channel=3 note=71 velocity=127 time=0
note_off channel=3 note=71 velocity=127 time=128
note_off channel=3 note=71 velocity=127 time=0
note_off channel=3 note=71 velocity=127 time=0
note_off channel=3 note=71 velocity=127 time=0
note_off channel=3 note=71 velocity=127 time=0
note_on channel=3 note=69 velocity=127 time=63
note_on channel=3 note=69 velocity=127 time=0
note_on channel=3 note=69 velocity=127 time=0
note_on channel=3 note=69 velocity=127 time=0
note_on channel=3 note=69 velocity=127 time=0
note_off channel=3 note=69 velocity=127 time=64
note_off channel=3 note=69 velocity=127 time=0
note_off channel=3 note=69 velocity=127 time=0
note_off channel=3 note=69 velocity=127 time=0
note_off channel=3 note=69 velocity=127 time=0
note_on channel=3 note=68 velocity=127 time=31
note_on channel=3 note=68 velocity=127 time=0
note_on channel=3 note=68 velocity=127 time=0
note_on channel=3 note=68 velocity=127 time=0
note_on channel=3 note=68 velocity=127 time=0
note_off channel=3 note=68 velocity=127 time=64
note_off channel=3 note=68 velocity=127 time=0
note_off channel=3 note=68 velocity=127 time=0
note_off channel=3 note=68 velocity=127 time=0
note_off channel=3 note=68 velocity=127 time=0
note_on channel=3 note=71 velocity=127 time=31
note_on channel=3 note=71 velocity=127 time=1
note_on channel=3 note=71 velocity=127 time=0
note_on channel=3 note=71 velocity=127 time=0
note_on channel=3 note=71 velocity=127 time=0
note_off channel=3 note=71 velocity=127 time=128
note_off channel=3 note=71 velocity=127 time=0
note_off channel=3 note=71 velocity=127 time=0
note_off channel=3 note=71 velocity=127 time=0
note_off channel=3 note=71 velocity=127 time=0
note_on channel=3 note=69 velocity=127 time=63
note_on channel=3 note=69 velocity=127 time=4
note_on channel=3 note=69 velocity=127 time=0
note_on channel=3 note=69 velocity=127 time=0
note_on channel=3 note=69 velocity=127 time=0
note_off channel=3 note=69 velocity=127 time=128
note_off channel=3 note=69 velocity=127 time=0
note_off channel=3 note=69 velocity=127 time=0
note_off channel=3 note=69 velocity=127 time=0
note_off channel=3 note=69 velocity=127 time=0
note_on channel=3 note=64 velocity=127 time=63
note_on channel=3 note=64 velocity=127 time=6
note_on channel=3 note=64 velocity=127 time=0
note_on channel=3 note=64 velocity=127 time=0
note_on channel=3 note=64 velocity=127 time=0
note_off channel=3 note=64 velocity=127 time=256
note_off channel=3 note=64 velocity=127 time=0
note_off channel=3 note=64 velocity=127 time=0
note_off channel=3 note=64 velocity=127 time=0
note_off channel=3 note=64 velocity=127 time=0
note_on channel=3 note=74 velocity=127 time=126
note_on channel=3 note=74 velocity=127 time=15
note_on channel=3 note=74 velocity=127 time=0
note_on channel=3 note=74 velocity=127 time=0
note_on channel=3 note=74 velocity=127 time=0
note_off channel=3 note=74 velocity=127 time=128
note_off channel=3 note=74 velocity=127 time=0
note_off channel=3 note=74 velocity=127 time=0
note_off channel=3 note=74 velocity=127 time=0
note_off channel=3 note=74 velocity=127 time=0
note_on channel=3 note=74 velocity=127 time=63
note_on channel=3 note=74 velocity=127 time=7
note_on channel=3 note=74 velocity=127 time=0
note_on channel=3 note=74 velocity=127 time=0
note_on channel=3 note=74 velocity=127 time=0
note_off channel=3 note=74 velocity=127 time=256
note_off channel=3 note=74 velocity=127 time=0
note_off channel=3 note=74 velocity=127 time=0
note_off channel=3 note=74 velocity=127 time=0
note_off channel=3 note=74 velocity=127 time=0
note_on channel=3 note=74 velocity=127 time=221
note_on channel=3 note=74 velocity=127 time=23
note_on channel=3 note=74 velocity=127 time=0
note_on channel=3 note=74 velocity=127 time=0
note_on channel=3 note=74 velocity=127 time=0
note_off channel=3 note=74 velocity=127 time=64
note_off channel=3 note=74 velocity=127 time=0
note_off channel=3 note=74 velocity=127 time=0
note_off channel=3 note=74 velocity=127 time=0
note_off channel=3 note=74 velocity=127 time=0
note_on channel=3 note=74 velocity=127 time=31
note_on channel=3 note=74 velocity=127 time=3
note_on channel=3 note=74 velocity=127 time=0
note_on channel=3 note=74 velocity=127 time=0
note_on channel=3 note=74 velocity=127 time=0
note_off channel=3 note=74 velocity=127 time=64
note_off channel=3 note=74 velocity=127 time=0
note_off channel=3 note=74 velocity=127 time=0
note_off channel=3 note=74 velocity=127 time=0
note_off channel=3 note=74 velocity=127 time=0
note_on channel=3 note=74 velocity=127 time=31
note_on channel=3 note=74 velocity=127 time=3
note_on channel=3 note=74 velocity=127 time=0
note_on channel=3 note=74 velocity=127 time=0
note_on channel=3 note=74 velocity=127 time=0
note_off channel=3 note=74 velocity=127 time=256
note_off channel=3 note=74 velocity=127 time=0
note_off channel=3 note=74 velocity=127 time=0
note_off channel=3 note=74 velocity=127 time=0
note_off channel=3 note=74 velocity=127 time=0
note_on channel=3 note=71 velocity=127 time=409
note_on channel=3 note=71 velocity=127 time=80
note_on channel=3 note=71 velocity=127 time=0
note_on channel=3 note=71 velocity=127 time=0
note_on channel=3 note=71 velocity=127 time=0
note_off channel=3 note=71 velocity=127 time=128
note_off channel=3 note=71 velocity=127 time=0
note_off channel=3 note=71 velocity=127 time=0
note_off channel=3 note=71 velocity=127 time=0
note_off channel=3 note=71 velocity=127 time=0
note_on channel=3 note=71 velocity=127 time=62
note_on channel=3 note=71 velocity=127 time=10
note_on channel=3 note=71 velocity=127 time=0
note_on channel=3 note=71 velocity=127 time=0
note_on channel=3 note=71 velocity=127 time=0
note_off channel=3 note=71 velocity=127 time=128
note_off channel=3 note=71 velocity=127 time=0
note_off channel=3 note=71 velocity=127 time=0
note_off channel=3 note=71 velocity=127 time=0
note_off channel=3 note=71 velocity=127 time=0
note_on channel=3 note=71 velocity=127 time=61
note_on channel=3 note=71 velocity=127 time=5
note_on channel=3 note=71 velocity=127 time=0
note_on channel=3 note=71 velocity=127 time=0
note_on channel=3 note=71 velocity=127 time=0
note_off channel=3 note=71 velocity=127 time=128
note_off channel=3 note=71 velocity=127 time=0
note_off channel=3 note=71 velocity=127 time=0
note_off channel=3 note=71 velocity=127 time=0
note_off channel=3 note=71 velocity=127 time=0
note_on channel=3 note=74 velocity=127 time=62
note_on channel=3 note=74 velocity=127 time=0
note_on channel=3 note=74 velocity=127 time=0
note_on channel=3 note=74 velocity=127 time=0
note_on channel=3 note=74 velocity=127 time=0
note_off channel=3 note=74 velocity=127 time=64
note_off channel=3 note=74 velocity=127 time=0
note_off channel=3 note=74 velocity=127 time=0
note_off channel=3 note=74 velocity=127 time=0
note_off channel=3 note=74 velocity=127 time=0
note_on channel=3 note=73 velocity=127 time=30
note_on channel=3 note=73 velocity=127 time=3
note_on channel=3 note=73 velocity=127 time=0
note_on channel=3 note=73 velocity=127 time=0
note_on channel=3 note=73 velocity=127 time=0
note_off channel=3 note=73 velocity=127 time=64
note_off channel=3 note=73 velocity=127 time=0
note_off channel=3 note=73 velocity=127 time=0
note_off channel=3 note=73 velocity=127 time=0
note_off channel=3 note=73 velocity=127 time=0
note_on channel=3 note=71 velocity=127 time=31
note_on channel=3 note=71 velocity=127 time=5
note_on channel=3 note=71 velocity=127 time=0
note_on channel=3 note=71 velocity=127 time=0
note_on channel=3 note=71 velocity=127 time=0
note_off channel=3 note=71 velocity=127 time=64
note_off channel=3 note=71 velocity=127 time=0
note_off channel=3 note=71 velocity=127 time=0
note_off channel=3 note=71 velocity=127 time=0
note_off channel=3 note=71 velocity=127 time=0
note_on channel=3 note=71 velocity=127 time=30
note_on channel=3 note=71 velocity=127 time=6
note_on channel=3 note=71 velocity=127 time=0
note_on channel=3 note=71 velocity=127 time=0
note_on channel=3 note=71 velocity=127 time=0
note_off channel=3 note=71 velocity=127 time=128
note_off channel=3 note=71 velocity=127 time=0
note_off channel=3 note=71 velocity=127 time=0
note_off channel=3 note=71 velocity=127 time=0
note_off channel=3 note=71 velocity=127 time=0
note_on channel=3 note=71 velocity=127 time=62
note_on channel=3 note=71 velocity=127 time=19
note_on channel=3 note=71 velocity=127 time=0
note_on channel=3 note=71 velocity=127 time=0
note_on channel=3 note=71 velocity=127 time=0
note_off channel=3 note=71 velocity=127 time=64
note_off channel=3 note=71 velocity=127 time=0
note_off channel=3 note=71 velocity=127 time=0
note_off channel=3 note=71 velocity=127 time=0
note_off channel=3 note=71 velocity=127 time=0
note_on channel=3 note=71 velocity=127 time=31
note_on channel=3 note=71 velocity=127 time=11
note_on channel=3 note=71 velocity=127 time=0
note_on channel=3 note=71 velocity=127 time=0
note_on channel=3 note=71 velocity=127 time=0
note_off channel=3 note=71 velocity=127 time=128
note_off channel=3 note=71 velocity=127 time=0
note_off channel=3 note=71 velocity=127 time=0
note_off channel=3 note=71 velocity=127 time=0
note_off channel=3 note=71 velocity=127 time=0
note_on channel=3 note=74 velocity=127 time=62
note_on channel=3 note=74 velocity=127 time=25
note_on channel=3 note=74 velocity=127 time=0
note_on channel=3 note=74 velocity=127 time=0
note_on channel=3 note=74 velocity=127 time=0
note_off channel=3 note=74 velocity=127 time=64
note_off channel=3 note=74 velocity=127 time=0
note_off channel=3 note=74 velocity=127 time=0
note_off channel=3 note=74 velocity=127 time=0
note_off channel=3 note=74 velocity=127 time=0
note_on channel=3 note=74 velocity=127 time=31
note_on channel=3 note=74 velocity=127 time=13
note_on channel=3 note=74 velocity=127 time=0
note_on channel=3 note=74 velocity=127 time=0
note_on channel=3 note=74 velocity=127 time=0
note_off channel=3 note=74 velocity=127 time=64
note_off channel=3 note=74 velocity=127 time=0
note_off channel=3 note=74 velocity=127 time=0
note_off channel=3 note=74 velocity=127 time=0
note_off channel=3 note=74 velocity=127 time=0
note_on channel=3 note=74 velocity=127 time=31
note_on channel=3 note=74 velocity=127 time=13
note_on channel=3 note=74 velocity=127 time=0
note_on channel=3 note=74 velocity=127 time=0
note_on channel=3 note=74 velocity=127 time=0
note_off channel=3 note=74 velocity=127 time=64
note_off channel=3 note=74 velocity=127 time=0
note_off channel=3 note=74 velocity=127 time=0
note_off channel=3 note=74 velocity=127 time=0
note_off channel=3 note=74 velocity=127 time=0
note_on channel=3 note=74 velocity=127 time=31
note_on channel=3 note=74 velocity=127 time=13
note_on channel=3 note=74 velocity=127 time=0
note_on channel=3 note=74 velocity=127 time=0
note_on channel=3 note=74 velocity=127 time=0
note_off channel=3 note=74 velocity=127 time=64
note_off channel=3 note=74 velocity=127 time=0
note_off channel=3 note=74 velocity=127 time=0
note_off channel=3 note=74 velocity=127 time=0
note_off channel=3 note=74 velocity=127 time=0
note_on channel=3 note=74 velocity=127 time=31
note_on channel=3 note=74 velocity=127 time=12
note_on channel=3 note=74 velocity=127 time=0
note_on channel=3 note=74 velocity=127 time=0
note_on channel=3 note=74 velocity=127 time=0
note_off channel=3 note=74 velocity=127 time=128
note_off channel=3 note=74 velocity=127 time=0
note_off channel=3 note=74 velocity=127 time=0
note_off channel=3 note=74 velocity=127 time=0
note_off channel=3 note=74 velocity=127 time=0
note_on channel=3 note=69 velocity=127 time=63
note_on channel=3 note=69 velocity=127 time=22
note_on channel=3 note=69 velocity=127 time=0
note_on channel=3 note=69 velocity=127 time=0
note_on channel=3 note=69 velocity=127 time=0
note_off channel=3 note=69 velocity=127 time=64
note_off channel=3 note=69 velocity=127 time=0
note_off channel=3 note=69 velocity=127 time=0
note_off channel=3 note=69 velocity=127 time=0
note_off channel=3 note=69 velocity=127 time=0
note_on channel=3 note=67 velocity=127 time=31
note_on channel=3 note=67 velocity=127 time=9
note_on channel=3 note=67 velocity=127 time=0
note_on channel=3 note=67 velocity=127 time=0
note_on channel=3 note=67 velocity=127 time=0
note_off channel=3 note=67 velocity=127 time=64
note_off channel=3 note=67 velocity=127 time=0
note_off channel=3 note=67 velocity=127 time=0
note_off channel=3 note=67 velocity=127 time=0
note_off channel=3 note=67 velocity=127 time=0
note_on channel=3 note=69 velocity=127 time=32
note_on channel=3 note=69 velocity=127 time=8
note_on channel=3 note=69 velocity=127 time=0
note_on channel=3 note=69 velocity=127 time=0
note_on channel=3 note=69 velocity=127 time=0
note_off channel=3 note=69 velocity=127 time=64
note_off channel=3 note=69 velocity=127 time=0
note_off channel=3 note=69 velocity=127 time=0
note_off channel=3 note=69 velocity=127 time=0
note_off channel=3 note=69 velocity=127 time=0
note_on channel=3 note=67 velocity=127 time=31
note_on channel=3 note=67 velocity=127 time=8
note_on channel=3 note=67 velocity=127 time=0
note_on channel=3 note=67 velocity=127 time=0
note_on channel=3 note=67 velocity=127 time=0
note_off channel=3 note=67 velocity=127 time=64
note_off channel=3 note=67 velocity=127 time=0
note_off channel=3 note=67 velocity=127 time=0
note_off channel=3 note=67 velocity=127 time=0
note_off channel=3 note=67 velocity=127 time=0
note_on channel=3 note=71 velocity=127 time=32
note_on channel=3 note=71 velocity=127 time=7
note_on channel=3 note=71 velocity=127 time=0
note_on channel=3 note=71 velocity=127 time=0
note_on channel=3 note=71 velocity=127 time=0
note_off channel=3 note=71 velocity=127 time=128
note_off channel=3 note=71 velocity=127 time=0
note_off channel=3 note=71 velocity=127 time=0
note_off channel=3 note=71 velocity=127 time=0
note_off channel=3 note=71 velocity=127 time=0
note_on channel=3 note=67 velocity=127 time=62
note_on channel=3 note=67 velocity=127 time=11
note_on channel=3 note=67 velocity=127 time=0
note_on channel=3 note=67 velocity=127 time=0
note_on channel=3 note=67 velocity=127 time=0
note_on channel=3 note=64 velocity=127 time=95
note_on channel=3 note=64 velocity=127 time=9
note_on channel=3 note=64 velocity=127 time=0
note_on channel=3 note=64 velocity=127 time=0
note_on channel=3 note=64 velocity=127 time=0
note_off channel=3 note=67 velocity=127 time=160
note_off channel=3 note=67 velocity=127 time=0
note_off channel=3 note=67 velocity=127 time=0
note_off channel=3 note=67 velocity=127 time=0
note_off channel=3 note=67 velocity=127 time=0
note_off channel=3 note=64 velocity=127 time=32
note_off channel=3 note=64 velocity=127 time=0
note_off channel=3 note=64 velocity=127 time=0
note_off channel=3 note=64 velocity=127 time=0
note_off channel=3 note=64 velocity=127 time=0
note_on channel=3 note=71 velocity=127 time=190
note_on channel=3 note=71 velocity=127 time=1
note_on channel=3 note=71 velocity=127 time=0
note_on channel=3 note=71 velocity=127 time=0
note_on channel=3 note=71 velocity=127 time=0
note_off channel=3 note=71 velocity=127 time=64
note_off channel=3 note=71 velocity=127 time=0
note_off channel=3 note=71 velocity=127 time=0
note_off channel=3 note=71 velocity=127 time=0
note_off channel=3 note=71 velocity=127 time=0
note_on channel=3 note=71 velocity=127 time=32
note_on channel=3 note=71 velocity=127 time=2
note_on channel=3 note=71 velocity=127 time=0
note_on channel=3 note=71 velocity=127 time=0
note_on channel=3 note=71 velocity=127 time=0
note_off channel=3 note=71 velocity=127 time=64
note_off channel=3 note=71 velocity=127 time=0
note_off channel=3 note=71 velocity=127 time=0
note_off channel=3 note=71 velocity=127 time=0
note_off channel=3 note=71 velocity=127 time=0
note_on channel=3 note=71 velocity=127 time=31
note_on channel=3 note=71 velocity=127 time=2
note_on channel=3 note=71 velocity=127 time=0
note_on channel=3 note=71 velocity=127 time=0
note_on channel=3 note=71 velocity=127 time=0
note_off channel=3 note=71 velocity=127 time=64
note_off channel=3 note=71 velocity=127 time=0
note_off channel=3 note=71 velocity=127 time=0
note_off channel=3 note=71 velocity=127 time=0
note_off channel=3 note=71 velocity=127 time=0
note_on channel=3 note=69 velocity=127 time=32
note_on channel=3 note=69 velocity=127 time=2
note_on channel=3 note=69 velocity=127 time=0
note_on channel=3 note=69 velocity=127 time=0
note_on channel=3 note=69 velocity=127 time=0
note_off channel=3 note=69 velocity=127 time=128
note_off channel=3 note=69 velocity=127 time=0
note_off channel=3 note=69 velocity=127 time=0
note_off channel=3 note=69 velocity=127 time=0
note_off channel=3 note=69 velocity=127 time=0
note_on channel=3 note=71 velocity=127 time=63
note_on channel=3 note=71 velocity=127 time=5
note_on channel=3 note=71 velocity=127 time=0
note_on channel=3 note=71 velocity=127 time=0
note_on channel=3 note=71 velocity=127 time=0
note_off channel=3 note=71 velocity=127 time=64
note_off channel=3 note=71 velocity=127 time=0
note_off channel=3 note=71 velocity=127 time=0
note_off channel=3 note=71 velocity=127 time=0
note_off channel=3 note=71 velocity=127 time=0
note_on channel=3 note=71 velocity=127 time=32
note_on channel=3 note=71 velocity=127 time=2
note_on channel=3 note=71 velocity=127 time=0
note_on channel=3 note=71 velocity=127 time=0
note_on channel=3 note=71 velocity=127 time=0
note_off channel=3 note=71 velocity=127 time=64
note_off channel=3 note=71 velocity=127 time=0
note_off channel=3 note=71 velocity=127 time=0
note_off channel=3 note=71 velocity=127 time=0
note_off channel=3 note=71 velocity=127 time=0
note_on channel=3 note=74 velocity=127 time=31
note_on channel=3 note=74 velocity=127 time=2
note_on channel=3 note=74 velocity=127 time=0
note_on channel=3 note=74 velocity=127 time=0
note_on channel=3 note=74 velocity=127 time=0
note_off channel=3 note=74 velocity=127 time=64
note_off channel=3 note=74 velocity=127 time=0
note_off channel=3 note=74 velocity=127 time=0
note_off channel=3 note=74 velocity=127 time=0
note_off channel=3 note=74 velocity=127 time=0
note_on channel=3 note=74 velocity=127 time=31
note_on channel=3 note=74 velocity=127 time=2
note_on channel=3 note=74 velocity=127 time=0
note_on channel=3 note=74 velocity=127 time=0
note_on channel=3 note=74 velocity=127 time=0
note_off channel=3 note=74 velocity=127 time=64
note_off channel=3 note=74 velocity=127 time=0
note_off channel=3 note=74 velocity=127 time=0
note_off channel=3 note=74 velocity=127 time=0
note_off channel=3 note=74 velocity=127 time=0
note_on channel=3 note=74 velocity=127 time=32
note_on channel=3 note=74 velocity=127 time=2
note_on channel=3 note=74 velocity=127 time=0
note_on channel=3 note=74 velocity=127 time=0
note_on channel=3 note=74 velocity=127 time=0
note_off channel=3 note=74 velocity=127 time=128
note_off channel=3 note=74 velocity=127 time=0
note_off channel=3 note=74 velocity=127 time=0
note_off channel=3 note=74 velocity=127 time=0
note_off channel=3 note=74 velocity=127 time=0
note_on channel=3 note=76 velocity=127 time=158
note_on channel=3 note=76 velocity=127 time=20
note_on channel=3 note=76 velocity=127 time=0
note_on channel=3 note=76 velocity=127 time=0
note_on channel=3 note=76 velocity=127 time=0
note_off channel=3 note=76 velocity=127 time=64
note_off channel=3 note=76 velocity=127 time=0
note_off channel=3 note=76 velocity=127 time=0
note_off channel=3 note=76 velocity=127 time=0
note_off channel=3 note=76 velocity=127 time=0
note_on channel=3 note=76 velocity=127 time=31
note_on channel=3 note=76 velocity=127 time=6
note_on channel=3 note=76 velocity=127 time=0
note_on channel=3 note=76 velocity=127 time=0
note_on channel=3 note=76 velocity=127 time=0
note_off channel=3 note=76 velocity=127 time=128
note_off channel=3 note=76 velocity=127 time=0
note_off channel=3 note=76 velocity=127 time=0
note_off channel=3 note=76 velocity=127 time=0
note_off channel=3 note=76 velocity=127 time=0
note_on channel=3 note=76 velocity=127 time=252
note_on channel=3 note=76 velocity=127 time=87
note_on channel=3 note=76 velocity=127 time=0
note_on channel=3 note=76 velocity=127 time=0
note_on channel=3 note=76 velocity=127 time=0
note_off channel=3 note=76 velocity=127 time=128
note_off channel=3 note=76 velocity=127 time=0
note_off channel=3 note=76 velocity=127 time=0
note_off channel=3 note=76 velocity=127 time=0
note_off channel=3 note=76 velocity=127 time=0
note_on channel=3 note=76 velocity=127 time=62
note_on channel=3 note=76 velocity=127 time=30
note_on channel=3 note=76 velocity=127 time=0
note_on channel=3 note=76 velocity=127 time=0
note_on channel=3 note=76 velocity=127 time=0
note_off channel=3 note=76 velocity=127 time=256
note_off channel=3 note=76 velocity=127 time=0
note_off channel=3 note=76 velocity=127 time=0
note_off channel=3 note=76 velocity=127 time=0
note_off channel=3 note=76 velocity=127 time=0
note_on channel=3 note=74 velocity=127 time=313
note_on channel=3 note=74 velocity=127 time=145
note_on channel=3 note=74 velocity=127 time=0
note_on channel=3 note=74 velocity=127 time=0
note_on channel=3 note=74 velocity=127 time=0
note_off channel=3 note=74 velocity=127 time=128
note_off channel=3 note=74 velocity=127 time=0
note_off channel=3 note=74 velocity=127 time=0
note_off channel=3 note=74 velocity=127 time=0
note_off channel=3 note=74 velocity=127 time=0
note_on channel=3 note=76 velocity=127 time=61
note_on channel=3 note=76 velocity=127 time=0
note_on channel=3 note=76 velocity=127 time=0
note_on channel=3 note=76 velocity=127 time=0
note_on channel=3 note=76 velocity=127 time=0
note_off channel=3 note=76 velocity=127 time=128
note_off channel=3 note=76 velocity=127 time=0
note_off channel=3 note=76 velocity=127 time=0
note_off channel=3 note=76 velocity=127 time=0
note_off channel=3 note=76 velocity=127 time=0
note_on channel=3 note=71 velocity=127 time=61
note_on channel=3 note=71 velocity=127 time=27
note_on channel=3 note=71 velocity=127 time=0
note_on channel=3 note=71 velocity=127 time=0
note_on channel=3 note=71 velocity=127 time=0
note_off channel=3 note=71 velocity=127 time=128
note_off channel=3 note=71 velocity=127 time=0
note_off channel=3 note=71 velocity=127 time=0
note_off channel=3 note=71 velocity=127 time=0
note_off channel=3 note=71 velocity=127 time=0
note_on channel=3 note=71 velocity=127 time=61
note_on channel=3 note=71 velocity=127 time=8
note_on channel=3 note=71 velocity=127 time=0
note_on channel=3 note=71 velocity=127 time=0
note_on channel=3 note=71 velocity=127 time=0
note_off channel=3 note=71 velocity=127 time=64
note_off channel=3 note=71 velocity=127 time=0
note_off channel=3 note=71 velocity=127 time=0
note_off channel=3 note=71 velocity=127 time=0
note_off channel=3 note=71 velocity=127 time=0
note_on channel=3 note=71 velocity=127 time=31
note_on channel=3 note=71 velocity=127 time=3
note_on channel=3 note=71 velocity=127 time=0
note_on channel=3 note=71 velocity=127 time=0
note_on channel=3 note=71 velocity=127 time=0
note_off channel=3 note=71 velocity=127 time=64
note_off channel=3 note=71 velocity=127 time=0
note_off channel=3 note=71 velocity=127 time=0
note_off channel=3 note=71 velocity=127 time=0
note_off channel=3 note=71 velocity=127 time=0
note_on channel=3 note=71 velocity=127 time=30
note_on channel=3 note=71 velocity=127 time=2
note_on channel=3 note=71 velocity=127 time=0
note_on channel=3 note=71 velocity=127 time=0
note_on channel=3 note=71 velocity=127 time=0
note_off channel=3 note=71 velocity=127 time=64
note_off channel=3 note=71 velocity=127 time=0
note_off channel=3 note=71 velocity=127 time=0
note_off channel=3 note=71 velocity=127 time=0
note_off channel=3 note=71 velocity=127 time=0
note_on channel=3 note=71 velocity=127 time=30
note_on channel=3 note=71 velocity=127 time=2
note_on channel=3 note=71 velocity=127 time=0
note_on channel=3 note=71 velocity=127 time=0
note_on channel=3 note=71 velocity=127 time=0
note_off channel=3 note=71 velocity=127 time=64
note_off channel=3 note=71 velocity=127 time=0
note_off channel=3 note=71 velocity=127 time=0
note_off channel=3 note=71 velocity=127 time=0
note_off channel=3 note=71 velocity=127 time=0
note_on channel=3 note=71 velocity=127 time=31
note_on channel=3 note=71 velocity=127 time=2
note_on channel=3 note=71 velocity=127 time=0
note_on channel=3 note=71 velocity=127 time=0
note_on channel=3 note=71 velocity=127 time=0
note_off channel=3 note=71 velocity=127 time=64
note_off channel=3 note=71 velocity=127 time=0
note_off channel=3 note=71 velocity=127 time=0
note_off channel=3 note=71 velocity=127 time=0
note_off channel=3 note=71 velocity=127 time=0
note_on channel=3 note=71 velocity=127 time=30
note_on channel=3 note=71 velocity=127 time=2
note_on channel=3 note=71 velocity=127 time=0
note_on channel=3 note=71 velocity=127 time=0
note_on channel=3 note=71 velocity=127 time=0
note_off channel=3 note=71 velocity=127 time=64
note_off channel=3 note=71 velocity=127 time=0
note_off channel=3 note=71 velocity=127 time=0
note_off channel=3 note=71 velocity=127 time=0
note_off channel=3 note=71 velocity=127 time=0
note_on channel=3 note=71 velocity=127 time=30
note_on channel=3 note=71 velocity=127 time=2
note_on channel=3 note=71 velocity=127 time=0
note_on channel=3 note=71 velocity=127 time=0
note_on channel=3 note=71 velocity=127 time=0
note_off channel=3 note=71 velocity=127 time=64
note_off channel=3 note=71 velocity=127 time=0
note_off channel=3 note=71 velocity=127 time=0
note_off channel=3 note=71 velocity=127 time=0
note_off channel=3 note=71 velocity=127 time=0
note_on channel=3 note=71 velocity=127 time=31
note_on channel=3 note=71 velocity=127 time=2
note_on channel=3 note=71 velocity=127 time=0
note_on channel=3 note=71 velocity=127 time=0
note_on channel=3 note=71 velocity=127 time=0
note_off channel=3 note=71 velocity=127 time=64
note_off channel=3 note=71 velocity=127 time=0
note_off channel=3 note=71 velocity=127 time=0
note_off channel=3 note=71 velocity=127 time=0
note_off channel=3 note=71 velocity=127 time=0
note_on channel=3 note=74 velocity=127 time=30
note_on channel=3 note=74 velocity=127 time=2
note_on channel=3 note=74 velocity=127 time=0
note_on channel=3 note=74 velocity=127 time=0
note_on channel=3 note=74 velocity=127 time=0
note_off channel=3 note=74 velocity=127 time=64
note_off channel=3 note=74 velocity=127 time=0
note_off channel=3 note=74 velocity=127 time=0
note_off channel=3 note=74 velocity=127 time=0
note_off channel=3 note=74 velocity=127 time=0
note_on channel=3 note=74 velocity=127 time=30
note_on channel=3 note=74 velocity=127 time=2
note_on channel=3 note=74 velocity=127 time=0
note_on channel=3 note=74 velocity=127 time=0
note_on channel=3 note=74 velocity=127 time=0
note_off channel=3 note=74 velocity=127 time=64
note_off channel=3 note=74 velocity=127 time=0
note_off channel=3 note=74 velocity=127 time=0
note_off channel=3 note=74 velocity=127 time=0
note_off channel=3 note=74 velocity=127 time=0
note_on channel=3 note=71 velocity=127 time=31
note_on channel=3 note=71 velocity=127 time=1
note_on channel=3 note=71 velocity=127 time=0
note_on channel=3 note=71 velocity=127 time=0
note_on channel=3 note=71 velocity=127 time=0
note_off channel=3 note=71 velocity=127 time=128
note_off channel=3 note=71 velocity=127 time=0
note_off channel=3 note=71 velocity=127 time=0
note_off channel=3 note=71 velocity=127 time=0
note_off channel=3 note=71 velocity=127 time=0
note_on channel=3 note=71 velocity=127 time=153
note_on channel=3 note=71 velocity=127 time=0
note_on channel=3 note=71 velocity=127 time=0
note_on channel=3 note=71 velocity=127 time=0
note_on channel=3 note=71 velocity=127 time=0
note_off channel=3 note=71 velocity=127 time=64
note_off channel=3 note=71 velocity=127 time=0
note_off channel=3 note=71 velocity=127 time=0
note_off channel=3 note=71 velocity=127 time=0
note_off channel=3 note=71 velocity=127 time=0
note_on channel=3 note=74 velocity=127 time=30
note_on channel=3 note=74 velocity=127 time=3
note_on channel=3 note=74 velocity=127 time=0
note_on channel=3 note=74 velocity=127 time=0
note_on channel=3 note=74 velocity=127 time=0
note_off channel=3 note=74 velocity=127 time=128
note_off channel=3 note=74 velocity=127 time=0
note_off channel=3 note=74 velocity=127 time=0
note_off channel=3 note=74 velocity=127 time=0
note_off channel=3 note=74 velocity=127 time=0
note_on channel=3 note=71 velocity=127 time=61
note_on channel=3 note=71 velocity=127 time=10
note_on channel=3 note=71 velocity=127 time=0
note_on channel=3 note=71 velocity=127 time=0
note_on channel=3 note=71 velocity=127 time=0
note_off channel=3 note=71 velocity=127 time=256
note_off channel=3 note=71 velocity=127 time=0
note_off channel=3 note=71 velocity=127 time=0
note_off channel=3 note=71 velocity=127 time=0
note_off channel=3 note=71 velocity=127 time=0
note_on channel=3 note=71 velocity=127 time=861
note_on channel=3 note=71 velocity=127 time=405
note_on channel=3 note=71 velocity=127 time=0
note_on channel=3 note=71 velocity=127 time=0
note_on channel=3 note=71 velocity=127 time=0
note_off channel=3 note=71 velocity=127 time=64
note_off channel=3 note=71 velocity=127 time=0
note_off channel=3 note=71 velocity=127 time=0
note_off channel=3 note=71 velocity=127 time=0
note_off channel=3 note=71 velocity=127 time=0
note_on channel=3 note=71 velocity=127 time=31
note_on channel=3 note=71 velocity=127 time=1
note_on channel=3 note=71 velocity=127 time=0
note_on channel=3 note=71 velocity=127 time=0
note_on channel=3 note=71 velocity=127 time=0
note_off channel=3 note=71 velocity=127 time=192
note_off channel=3 note=71 velocity=127 time=0
note_off channel=3 note=71 velocity=127 time=0
note_off channel=3 note=71 velocity=127 time=0
note_off channel=3 note=71 velocity=127 time=0
note_on channel=3 note=74 velocity=127 time=95
note_on channel=3 note=74 velocity=127 time=2
note_on channel=3 note=74 velocity=127 time=0
note_on channel=3 note=74 velocity=127 time=0
note_on channel=3 note=74 velocity=127 time=0
note_on channel=3 note=71 velocity=127 time=95
note_on channel=3 note=71 velocity=127 time=8
note_on channel=3 note=71 velocity=127 time=0
note_on channel=3 note=71 velocity=127 time=0
note_on channel=3 note=71 velocity=127 time=0
note_off channel=3 note=74 velocity=127 time=160
note_off channel=3 note=74 velocity=127 time=0
note_off channel=3 note=74 velocity=127 time=0
note_off channel=3 note=74 velocity=127 time=0
note_off channel=3 note=74 velocity=127 time=0
note_off channel=3 note=71 velocity=127 time=32
note_off channel=3 note=71 velocity=127 time=0
note_off channel=3 note=71 velocity=127 time=0
note_off channel=3 note=71 velocity=127 time=0
note_off channel=3 note=71 velocity=127 time=0
note_on channel=3 note=76 velocity=127 time=857
note_on channel=3 note=76 velocity=127 time=97
note_on channel=3 note=76 velocity=127 time=0
note_on channel=3 note=76 velocity=127 time=0
note_on channel=3 note=76 velocity=127 time=0
note_off channel=3 note=76 velocity=127 time=64
note_off channel=3 note=76 velocity=127 time=0
note_off channel=3 note=76 velocity=127 time=0
note_off channel=3 note=76 velocity=127 time=0
note_off channel=3 note=76 velocity=127 time=0
note_on channel=3 note=76 velocity=127 time=31
note_on channel=3 note=76 velocity=127 time=7
note_on channel=3 note=76 velocity=127 time=0
note_on channel=3 note=76 velocity=127 time=0
note_on channel=3 note=76 velocity=127 time=0
note_off channel=3 note=76 velocity=127 time=192
note_off channel=3 note=76 velocity=127 time=0
note_off channel=3 note=76 velocity=127 time=0
note_off channel=3 note=76 velocity=127 time=0
note_off channel=3 note=76 velocity=127 time=0
note_on channel=3 note=71 velocity=127 time=95
note_on channel=3 note=71 velocity=127 time=25
note_on channel=3 note=71 velocity=127 time=0
note_on channel=3 note=71 velocity=127 time=0
note_on channel=3 note=71 velocity=127 time=0
note_off channel=3 note=71 velocity=127 time=256
note_off channel=3 note=71 velocity=127 time=0
note_off channel=3 note=71 velocity=127 time=0
note_off channel=3 note=71 velocity=127 time=0
note_off channel=3 note=71 velocity=127 time=0
note_on channel=3 note=71 velocity=127 time=893
note_on channel=3 note=71 velocity=127 time=116
note_on channel=3 note=71 velocity=127 time=0
note_on channel=3 note=71 velocity=127 time=0
note_on channel=3 note=71 velocity=127 time=0
note_off channel=3 note=71 velocity=127 time=64
note_off channel=3 note=71 velocity=127 time=0
note_off channel=3 note=71 velocity=127 time=0
note_off channel=3 note=71 velocity=127 time=0
note_off channel=3 note=71 velocity=127 time=0
note_on channel=3 note=71 velocity=127 time=31
note_on channel=3 note=71 velocity=127 time=8
note_on channel=3 note=71 velocity=127 time=0
note_on channel=3 note=71 velocity=127 time=0
note_on channel=3 note=71 velocity=127 time=0
note_off channel=3 note=71 velocity=127 time=192
note_off channel=3 note=71 velocity=127 time=0
note_off channel=3 note=71 velocity=127 time=0
note_off channel=3 note=71 velocity=127 time=0
note_off channel=3 note=71 velocity=127 time=0
note_on channel=3 note=74 velocity=127 time=94
note_on channel=3 note=74 velocity=127 time=23
note_on channel=3 note=74 velocity=127 time=0
note_on channel=3 note=74 velocity=127 time=0
note_on channel=3 note=74 velocity=127 time=0
note_off channel=3 note=74 velocity=127 time=256
note_off channel=3 note=74 velocity=127 time=0
note_off channel=3 note=74 velocity=127 time=0
note_off channel=3 note=74 velocity=127 time=0
note_off channel=3 note=74 velocity=127 time=0
note_on channel=3 note=69 velocity=127 time=1453
note_on channel=3 note=69 velocity=127 time=91
note_on channel=3 note=69 velocity=127 time=0
note_on channel=3 note=69 velocity=127 time=0
note_on channel=3 note=69 velocity=127 time=0
note_off channel=3 note=69 velocity=127 time=384
note_off channel=3 note=69 velocity=127 time=0
note_off channel=3 note=69 velocity=127 time=0
note_off channel=3 note=69 velocity=127 time=0
note_off channel=3 note=69 velocity=127 time=0
note_on channel=3 note=71 velocity=127 time=0
note_on channel=3 note=71 velocity=127 time=0
note_on channel=3 note=71 velocity=127 time=0
note_on channel=3 note=71 velocity=127 time=0
note_on channel=3 note=71 velocity=127 time=0
note_off channel=3 note=71 velocity=127 time=128
note_off channel=3 note=71 velocity=127 time=0
note_off channel=3 note=71 velocity=127 time=0
note_off channel=3 note=71 velocity=127 time=0
note_off channel=3 note=71 velocity=127 time=0
note_on channel=3 note=73 velocity=127 time=63
note_on channel=3 note=73 velocity=127 time=0
note_on channel=3 note=73 velocity=127 time=0
note_on channel=3 note=73 velocity=127 time=0
note_on channel=3 note=73 velocity=127 time=0
note_off channel=3 note=73 velocity=127 time=192
note_off channel=3 note=73 velocity=127 time=0
note_off channel=3 note=73 velocity=127 time=0
note_off channel=3 note=73 velocity=127 time=0
note_off channel=3 note=73 velocity=127 time=0
note_on channel=3 note=71 velocity=127 time=95
note_on channel=3 note=71 velocity=127 time=11
note_on channel=3 note=71 velocity=127 time=0
note_on channel=3 note=71 velocity=127 time=0
note_on channel=3 note=71 velocity=127 time=0
note_off channel=3 note=71 velocity=127 time=128
note_off channel=3 note=71 velocity=127 time=0
note_off channel=3 note=71 velocity=127 time=0
note_off channel=3 note=71 velocity=127 time=0
note_off channel=3 note=71 velocity=127 time=0
note_on channel=3 note=73 velocity=127 time=158
note_on channel=3 note=73 velocity=127 time=49
note_on channel=3 note=73 velocity=127 time=0
note_on channel=3 note=73 velocity=127 time=0
note_on channel=3 note=73 velocity=127 time=0
note_off channel=3 note=73 velocity=127 time=128
note_off channel=3 note=73 velocity=127 time=0
note_off channel=3 note=73 velocity=127 time=0
note_off channel=3 note=73 velocity=127 time=0
note_off channel=3 note=73 velocity=127 time=0
note_on channel=3 note=69 velocity=127 time=253
note_on channel=3 note=69 velocity=127 time=124
note_on channel=3 note=69 velocity=127 time=0
note_on channel=3 note=69 velocity=127 time=0
note_on channel=3 note=69 velocity=127 time=0
note_off channel=3 note=69 velocity=127 time=384
note_off channel=3 note=69 velocity=127 time=0
note_off channel=3 note=69 velocity=127 time=0
note_off channel=3 note=69 velocity=127 time=0
note_off channel=3 note=69 velocity=127 time=0
note_on channel=3 note=71 velocity=127 time=0
note_on channel=3 note=71 velocity=127 time=0
note_on channel=3 note=71 velocity=127 time=0
note_on channel=3 note=71 velocity=127 time=0
note_on channel=3 note=71 velocity=127 time=0
note_off channel=3 note=71 velocity=127 time=128
note_off channel=3 note=71 velocity=127 time=0
note_off channel=3 note=71 velocity=127 time=0
note_off channel=3 note=71 velocity=127 time=0
note_off channel=3 note=71 velocity=127 time=0
note_on channel=3 note=73 velocity=127 time=63
note_on channel=3 note=73 velocity=127 time=25
note_on channel=3 note=73 velocity=127 time=0
note_on channel=3 note=73 velocity=127 time=0
note_on channel=3 note=73 velocity=127 time=0
note_off channel=3 note=73 velocity=127 time=192
note_off channel=3 note=73 velocity=127 time=0
note_off channel=3 note=73 velocity=127 time=0
note_off channel=3 note=73 velocity=127 time=0
note_off channel=3 note=73 velocity=127 time=0
note_on channel=3 note=71 velocity=127 time=94
note_on channel=3 note=71 velocity=127 time=24
note_on channel=3 note=71 velocity=127 time=0
note_on channel=3 note=71 velocity=127 time=0
note_on channel=3 note=71 velocity=127 time=0
note_off channel=3 note=71 velocity=127 time=128
note_off channel=3 note=71 velocity=127 time=0
note_off channel=3 note=71 velocity=127 time=0
note_off channel=3 note=71 velocity=127 time=0
note_off channel=3 note=71 velocity=127 time=0
note_on channel=3 note=73 velocity=127 time=62
note_on channel=3 note=73 velocity=127 time=5
note_on channel=3 note=73 velocity=127 time=0
note_on channel=3 note=73 velocity=127 time=0
note_on channel=3 note=73 velocity=127 time=0
note_off channel=3 note=73 velocity=127 time=64
note_off channel=3 note=73 velocity=127 time=0
note_off channel=3 note=73 velocity=127 time=0
note_off channel=3 note=73 velocity=127 time=0
note_off channel=3 note=73 velocity=127 time=0
note_on channel=3 note=73 velocity=127 time=31
note_on channel=3 note=73 velocity=127 time=0
note_on channel=3 note=73 velocity=127 time=0
note_on channel=3 note=73 velocity=127 time=0
note_on channel=3 note=73 velocity=127 time=0
note_off channel=3 note=73 velocity=127 time=128
note_off channel=3 note=73 velocity=127 time=0
note_off channel=3 note=73 velocity=127 time=0
note_off channel=3 note=73 velocity=127 time=0
note_off channel=3 note=73 velocity=127 time=0
note_on channel=3 note=74 velocity=127 time=62
note_on channel=3 note=74 velocity=127 time=5
note_on channel=3 note=74 velocity=127 time=0
note_on channel=3 note=74 velocity=127 time=0
note_on channel=3 note=74 velocity=127 time=0
note_off channel=3 note=74 velocity=127 time=64
note_off channel=3 note=74 velocity=127 time=0
note_off channel=3 note=74 velocity=127 time=0
note_off channel=3 note=74 velocity=127 time=0
note_off channel=3 note=74 velocity=127 time=0
note_on channel=3 note=74 velocity=127 time=31
note_on channel=3 note=74 velocity=127 time=3
note_on channel=3 note=74 velocity=127 time=0
note_on channel=3 note=74 velocity=127 time=0
note_on channel=3 note=74 velocity=127 time=0
note_off channel=3 note=74 velocity=127 time=128
note_off channel=3 note=74 velocity=127 time=0
note_off channel=3 note=74 velocity=127 time=0
note_off channel=3 note=74 velocity=127 time=0
note_off channel=3 note=74 velocity=127 time=0
note_on channel=3 note=74 velocity=127 time=62
note_on channel=3 note=74 velocity=127 time=9
note_on channel=3 note=74 velocity=127 time=0
note_on channel=3 note=74 velocity=127 time=0
note_on channel=3 note=74 velocity=127 time=0
note_off channel=3 note=74 velocity=127 time=256
note_off channel=3 note=74 velocity=127 time=0
note_off channel=3 note=74 velocity=127 time=0
note_off channel=3 note=74 velocity=127 time=0
note_off channel=3 note=74 velocity=127 time=0
note_on channel=3 note=74 velocity=127 time=689
note_on channel=3 note=74 velocity=127 time=118
note_on channel=3 note=74 velocity=127 time=0
note_on channel=3 note=74 velocity=127 time=0
note_on channel=3 note=74 velocity=127 time=0
note_off channel=3 note=74 velocity=127 time=64
note_off channel=3 note=74 velocity=127 time=0
note_off channel=3 note=74 velocity=127 time=0
note_off channel=3 note=74 velocity=127 time=0
note_off channel=3 note=74 velocity=127 time=0
note_on channel=3 note=74 velocity=127 time=30
note_on channel=3 note=74 velocity=127 time=9
note_on channel=3 note=74 velocity=127 time=0
note_on channel=3 note=74 velocity=127 time=0
note_on channel=3 note=74 velocity=127 time=0
note_off channel=3 note=74 velocity=127 time=128
note_off channel=3 note=74 velocity=127 time=0
note_off channel=3 note=74 velocity=127 time=0
note_off channel=3 note=74 velocity=127 time=0
note_off channel=3 note=74 velocity=127 time=0
note_on channel=3 note=78 velocity=127 time=62
note_on channel=3 note=78 velocity=127 time=15
note_on channel=3 note=78 velocity=127 time=0
note_on channel=3 note=78 velocity=127 time=0
note_on channel=3 note=78 velocity=127 time=0
note_off channel=3 note=78 velocity=127 time=192
note_off channel=3 note=78 velocity=127 time=0
note_off channel=3 note=78 velocity=127 time=0
note_off channel=3 note=78 velocity=127 time=0
note_off channel=3 note=78 velocity=127 time=0
note_on channel=3 note=74 velocity=127 time=93
note_on channel=3 note=74 velocity=127 time=11
note_on channel=3 note=74 velocity=127 time=0
note_on channel=3 note=74 velocity=127 time=0
note_on channel=3 note=74 velocity=127 time=0
note_off channel=3 note=74 velocity=127 time=192
note_off channel=3 note=74 velocity=127 time=0
note_off channel=3 note=74 velocity=127 time=0
note_off channel=3 note=74 velocity=127 time=0
note_off channel=3 note=74 velocity=127 time=0
note_on channel=3 note=74 velocity=127 time=93
note_on channel=3 note=74 velocity=127 time=0
note_on channel=3 note=74 velocity=127 time=0
note_on channel=3 note=74 velocity=127 time=0
note_on channel=3 note=74 velocity=127 time=0
note_off channel=3 note=74 velocity=127 time=384
note_off channel=3 note=74 velocity=127 time=0
note_off channel=3 note=74 velocity=127 time=0
note_off channel=3 note=74 velocity=127 time=0
note_off channel=3 note=74 velocity=127 time=0
note_on channel=3 note=76 velocity=127 time=559
note_on channel=3 note=76 velocity=127 time=123
note_on channel=3 note=76 velocity=127 time=0
note_on channel=3 note=76 velocity=127 time=0
note_on channel=3 note=76 velocity=127 time=0
note_off channel=3 note=76 velocity=127 time=64
note_off channel=3 note=76 velocity=127 time=0
note_off channel=3 note=76 velocity=127 time=0
note_off channel=3 note=76 velocity=127 time=0
note_off channel=3 note=76 velocity=127 time=0
note_on channel=3 note=76 velocity=127 time=31
note_on channel=3 note=76 velocity=127 time=19
note_on channel=3 note=76 velocity=127 time=0
note_on channel=3 note=76 velocity=127 time=0
note_on channel=3 note=76 velocity=127 time=0
note_off channel=3 note=76 velocity=127 time=128
note_off channel=3 note=76 velocity=127 time=0
note_off channel=3 note=76 velocity=127 time=0
note_off channel=3 note=76 velocity=127 time=0
note_off channel=3 note=76 velocity=127 time=0
note_on channel=3 note=76 velocity=127 time=62
note_on channel=3 note=76 velocity=127 time=46
note_on channel=3 note=76 velocity=127 time=0
note_on channel=3 note=76 velocity=127 time=0
note_on channel=3 note=76 velocity=127 time=0
note_off channel=3 note=76 velocity=127 time=256
note_off channel=3 note=76 velocity=127 time=0
note_off channel=3 note=76 velocity=127 time=0
note_off channel=3 note=76 velocity=127 time=0
note_off channel=3 note=76 velocity=127 time=0
note_on channel=3 note=74 velocity=127 time=314
note_on channel=3 note=74 velocity=127 time=309
note_on channel=3 note=74 velocity=127 time=0
note_on channel=3 note=74 velocity=127 time=0
note_on channel=3 note=74 velocity=127 time=0
note_off channel=3 note=74 velocity=127 time=64
note_off channel=3 note=74 velocity=127 time=0
note_off channel=3 note=74 velocity=127 time=0
note_off channel=3 note=74 velocity=127 time=0
note_off channel=3 note=74 velocity=127 time=0
note_on channel=3 note=74 velocity=127 time=31
note_on channel=3 note=74 velocity=127 time=28
note_on channel=3 note=74 velocity=127 time=0
note_on channel=3 note=74 velocity=127 time=0
note_on channel=3 note=74 velocity=127 time=0
note_off channel=3 note=74 velocity=127 time=64
note_off channel=3 note=74 velocity=127 time=0
note_off channel=3 note=74 velocity=127 time=0
note_off channel=3 note=74 velocity=127 time=0
note_off channel=3 note=74 velocity=127 time=0
note_on channel=3 note=74 velocity=127 time=32
note_on channel=3 note=74 velocity=127 time=27
note_on channel=3 note=74 velocity=127 time=0
note_on channel=3 note=74 velocity=127 time=0
note_on channel=3 note=74 velocity=127 time=0
note_off channel=3 note=74 velocity=127 time=64
note_off channel=3 note=74 velocity=127 time=0
note_off channel=3 note=74 velocity=127 time=0
note_off channel=3 note=74 velocity=127 time=0
note_off channel=3 note=74 velocity=127 time=0
note_on channel=3 note=74 velocity=127 time=31
note_on channel=3 note=74 velocity=127 time=25
note_on channel=3 note=74 velocity=127 time=0
note_on channel=3 note=74 velocity=127 time=0
note_on channel=3 note=74 velocity=127 time=0
note_off channel=3 note=74 velocity=127 time=256
note_off channel=3 note=74 velocity=127 time=0
note_off channel=3 note=74 velocity=127 time=0
note_off channel=3 note=74 velocity=127 time=0
note_off channel=3 note=74 velocity=127 time=0
note_on channel=3 note=76 velocity=127 time=224
note_on channel=3 note=76 velocity=127 time=148
note_on channel=3 note=76 velocity=127 time=0
note_on channel=3 note=76 velocity=127 time=0
note_on channel=3 note=76 velocity=127 time=0
note_off channel=3 note=76 velocity=127 time=64
note_off channel=3 note=76 velocity=127 time=0
note_off channel=3 note=76 velocity=127 time=0
note_off channel=3 note=76 velocity=127 time=0
note_off channel=3 note=76 velocity=127 time=0
note_on channel=3 note=76 velocity=127 time=32
note_on channel=3 note=76 velocity=127 time=16
note_on channel=3 note=76 velocity=127 time=0
note_on channel=3 note=76 velocity=127 time=0
note_on channel=3 note=76 velocity=127 time=0
note_off channel=3 note=76 velocity=127 time=64
note_off channel=3 note=76 velocity=127 time=0
note_off channel=3 note=76 velocity=127 time=0
note_off channel=3 note=76 velocity=127 time=0
note_off channel=3 note=76 velocity=127 time=0
note_on channel=3 note=76 velocity=127 time=32
note_on channel=3 note=76 velocity=127 time=15
note_on channel=3 note=76 velocity=127 time=0
note_on channel=3 note=76 velocity=127 time=0
note_on channel=3 note=76 velocity=127 time=0
note_off channel=3 note=76 velocity=127 time=64
note_off channel=3 note=76 velocity=127 time=0
note_off channel=3 note=76 velocity=127 time=0
note_off channel=3 note=76 velocity=127 time=0
note_off channel=3 note=76 velocity=127 time=0
note_on channel=3 note=76 velocity=127 time=32
note_on channel=3 note=76 velocity=127 time=14
note_on channel=3 note=76 velocity=127 time=0
note_on channel=3 note=76 velocity=127 time=0
note_on channel=3 note=76 velocity=127 time=0
note_off channel=3 note=76 velocity=127 time=128
note_off channel=3 note=76 velocity=127 time=0
note_off channel=3 note=76 velocity=127 time=0
note_off channel=3 note=76 velocity=127 time=0
note_off channel=3 note=76 velocity=127 time=0
note_on channel=3 note=71 velocity=127 time=64
note_on channel=3 note=71 velocity=127 time=25
note_on channel=3 note=71 velocity=127 time=0
note_on channel=3 note=71 velocity=127 time=0
note_on channel=3 note=71 velocity=127 time=0
note_off channel=3 note=71 velocity=127 time=128
note_off channel=3 note=71 velocity=127 time=0
note_off channel=3 note=71 velocity=127 time=0
note_off channel=3 note=71 velocity=127 time=0
note_off channel=3 note=71 velocity=127 time=0
note_on channel=3 note=69 velocity=127 time=64
note_on channel=3 note=69 velocity=127 time=19
note_on channel=3 note=69 velocity=127 time=0
note_on channel=3 note=69 velocity=127 time=0
note_on channel=3 note=69 velocity=127 time=0
note_off channel=3 note=69 velocity=127 time=64
note_off channel=3 note=69 velocity=127 time=0
note_off channel=3 note=69 velocity=127 time=0
note_off channel=3 note=69 velocity=127 time=0
note_off channel=3 note=69 velocity=127 time=0
note_on channel=3 note=68 velocity=127 time=32
note_on channel=3 note=68 velocity=127 time=7
note_on channel=3 note=68 velocity=127 time=0
note_on channel=3 note=68 velocity=127 time=0
note_on channel=3 note=68 velocity=127 time=0
note_off channel=3 note=68 velocity=127 time=64
note_off channel=3 note=68 velocity=127 time=0
note_off channel=3 note=68 velocity=127 time=0
note_off channel=3 note=68 velocity=127 time=0
note_off channel=3 note=68 velocity=127 time=0
note_on channel=3 note=71 velocity=127 time=32
note_on channel=3 note=71 velocity=127 time=4
note_on channel=3 note=71 velocity=127 time=0
note_on channel=3 note=71 velocity=127 time=0
note_on channel=3 note=71 velocity=127 time=0
note_off channel=3 note=71 velocity=127 time=128
note_off channel=3 note=71 velocity=127 time=0
note_off channel=3 note=71 velocity=127 time=0
note_off channel=3 note=71 velocity=127 time=0
note_off channel=3 note=71 velocity=127 time=0
note_on channel=3 note=69 velocity=127 time=64
note_on channel=3 note=69 velocity=127 time=3
note_on channel=3 note=69 velocity=127 time=0
note_on channel=3 note=69 velocity=127 time=0
note_on channel=3 note=69 velocity=127 time=0
note_off channel=3 note=69 velocity=127 time=128
note_off channel=3 note=69 velocity=127 time=0
note_off channel=3 note=69 velocity=127 time=0
note_off channel=3 note=69 velocity=127 time=0
note_off channel=3 note=69 velocity=127 time=0
note_on channel=3 note=64 velocity=127 time=64
note_on channel=3 note=64 velocity=127 time=4
note_on channel=3 note=64 velocity=127 time=0
note_on channel=3 note=64 velocity=127 time=0
note_on channel=3 note=64 velocity=127 time=0
note_off channel=3 note=64 velocity=127 time=256
note_off channel=3 note=64 velocity=127 time=0
note_off channel=3 note=64 velocity=127 time=0
note_off channel=3 note=64 velocity=127 time=0
note_off channel=3 note=64 velocity=127 time=0
note_on channel=3 note=74 velocity=127 time=129
note_on channel=3 note=74 velocity=127 time=31
note_on channel=3 note=74 velocity=127 time=0
note_on channel=3 note=74 velocity=127 time=0
note_on channel=3 note=74 velocity=127 time=0
note_off channel=3 note=74 velocity=127 time=128
note_off channel=3 note=74 velocity=127 time=0
note_off channel=3 note=74 velocity=127 time=0
note_off channel=3 note=74 velocity=127 time=0
note_off channel=3 note=74 velocity=127 time=0
note_on channel=3 note=74 velocity=127 time=64
note_on channel=3 note=74 velocity=127 time=22
note_on channel=3 note=74 velocity=127 time=0
note_on channel=3 note=74 velocity=127 time=0
note_on channel=3 note=74 velocity=127 time=0
note_off channel=3 note=74 velocity=127 time=256
note_off channel=3 note=74 velocity=127 time=0
note_off channel=3 note=74 velocity=127 time=0
note_off channel=3 note=74 velocity=127 time=0
note_off channel=3 note=74 velocity=127 time=0
note_on channel=3 note=74 velocity=127 time=226
note_on channel=3 note=74 velocity=127 time=101
note_on channel=3 note=74 velocity=127 time=0
note_on channel=3 note=74 velocity=127 time=0
note_on channel=3 note=74 velocity=127 time=0
note_off channel=3 note=74 velocity=127 time=64
note_off channel=3 note=74 velocity=127 time=0
note_off channel=3 note=74 velocity=127 time=0
note_off channel=3 note=74 velocity=127 time=0
note_off channel=3 note=74 velocity=127 time=0
note_on channel=3 note=74 velocity=127 time=31
note_on channel=3 note=74 velocity=127 time=16
note_on channel=3 note=74 velocity=127 time=0
note_on channel=3 note=74 velocity=127 time=0
note_on channel=3 note=74 velocity=127 time=0
note_off channel=3 note=74 velocity=127 time=64
note_off channel=3 note=74 velocity=127 time=0
note_off channel=3 note=74 velocity=127 time=0
note_off channel=3 note=74 velocity=127 time=0
note_off channel=3 note=74 velocity=127 time=0
note_on channel=3 note=74 velocity=127 time=32
note_on channel=3 note=74 velocity=127 time=16
note_on channel=3 note=74 velocity=127 time=0
note_on channel=3 note=74 velocity=127 time=0
note_on channel=3 note=74 velocity=127 time=0
note_off channel=3 note=74 velocity=127 time=256
note_off channel=3 note=74 velocity=127 time=0
note_off channel=3 note=74 velocity=127 time=0
note_off channel=3 note=74 velocity=127 time=0
note_off channel=3 note=74 velocity=127 time=0
note_on channel=3 note=71 velocity=127 time=417
note_on channel=3 note=71 velocity=127 time=276
note_on channel=3 note=71 velocity=127 time=0
note_on channel=3 note=71 velocity=127 time=0
note_on channel=3 note=71 velocity=127 time=0
note_off channel=3 note=71 velocity=127 time=128
note_off channel=3 note=71 velocity=127 time=0
note_off channel=3 note=71 velocity=127 time=0
note_off channel=3 note=71 velocity=127 time=0
note_off channel=3 note=71 velocity=127 time=0
note_on channel=3 note=71 velocity=127 time=63
note_on channel=3 note=71 velocity=127 time=46
note_on channel=3 note=71 velocity=127 time=0
note_on channel=3 note=71 velocity=127 time=0
note_on channel=3 note=71 velocity=127 time=0
note_off channel=3 note=71 velocity=127 time=128
note_off channel=3 note=71 velocity=127 time=0
note_off channel=3 note=71 velocity=127 time=0
note_off channel=3 note=71 velocity=127 time=0
note_off channel=3 note=71 velocity=127 time=0
note_on channel=3 note=71 velocity=127 time=63
note_on channel=3 note=71 velocity=127 time=40
note_on channel=3 note=71 velocity=127 time=0
note_on channel=3 note=71 velocity=127 time=0
note_on channel=3 note=71 velocity=127 time=0
note_off channel=3 note=71 velocity=127 time=128
note_off channel=3 note=71 velocity=127 time=0
note_off channel=3 note=71 velocity=127 time=0
note_off channel=3 note=71 velocity=127 time=0
note_off channel=3 note=71 velocity=127 time=0
note_on channel=3 note=74 velocity=127 time=63
note_on channel=3 note=74 velocity=127 time=30
note_on channel=3 note=74 velocity=127 time=0
note_on channel=3 note=74 velocity=127 time=0
note_on channel=3 note=74 velocity=127 time=0
note_off channel=3 note=74 velocity=127 time=64
note_off channel=3 note=74 velocity=127 time=0
note_off channel=3 note=74 velocity=127 time=0
note_off channel=3 note=74 velocity=127 time=0
note_off channel=3 note=74 velocity=127 time=0
note_on channel=3 note=73 velocity=127 time=31
note_on channel=3 note=73 velocity=127 time=11
note_on channel=3 note=73 velocity=127 time=0
note_on channel=3 note=73 velocity=127 time=0
note_on channel=3 note=73 velocity=127 time=0
note_off channel=3 note=73 velocity=127 time=64
note_off channel=3 note=73 velocity=127 time=0
note_off channel=3 note=73 velocity=127 time=0
note_off channel=3 note=73 velocity=127 time=0
note_off channel=3 note=73 velocity=127 time=0
note_on channel=3 note=71 velocity=127 time=31
note_on channel=3 note=71 velocity=127 time=9
note_on channel=3 note=71 velocity=127 time=0
note_on channel=3 note=71 velocity=127 time=0
note_on channel=3 note=71 velocity=127 time=0
note_off channel=3 note=71 velocity=127 time=64
note_off channel=3 note=71 velocity=127 time=0
note_off channel=3 note=71 velocity=127 time=0
note_off channel=3 note=71 velocity=127 time=0
note_off channel=3 note=71 velocity=127 time=0
note_on channel=3 note=71 velocity=127 time=31
note_on channel=3 note=71 velocity=127 time=6
note_on channel=3 note=71 velocity=127 time=0
note_on channel=3 note=71 velocity=127 time=0
note_on channel=3 note=71 velocity=127 time=0
note_off channel=3 note=71 velocity=127 time=128
note_off channel=3 note=71 velocity=127 time=0
note_off channel=3 note=71 velocity=127 time=0
note_off channel=3 note=71 velocity=127 time=0
note_off channel=3 note=71 velocity=127 time=0
note_on channel=3 note=71 velocity=127 time=62
note_on channel=3 note=71 velocity=127 time=8
note_on channel=3 note=71 velocity=127 time=0
note_on channel=3 note=71 velocity=127 time=0
note_on channel=3 note=71 velocity=127 time=0
note_off channel=3 note=71 velocity=127 time=64
note_off channel=3 note=71 velocity=127 time=0
note_off channel=3 note=71 velocity=127 time=0
note_off channel=3 note=71 velocity=127 time=0
note_off channel=3 note=71 velocity=127 time=0
note_on channel=3 note=71 velocity=127 time=31
note_on channel=3 note=71 velocity=127 time=3
note_on channel=3 note=71 velocity=127 time=0
note_on channel=3 note=71 velocity=127 time=0
note_on channel=3 note=71 velocity=127 time=0
note_off channel=3 note=71 velocity=127 time=128
note_off channel=3 note=71 velocity=127 time=0
note_off channel=3 note=71 velocity=127 time=0
note_off channel=3 note=71 velocity=127 time=0
note_off channel=3 note=71 velocity=127 time=0
note_on channel=3 note=74 velocity=127 time=62
note_on channel=3 note=74 velocity=127 time=6
note_on channel=3 note=74 velocity=127 time=0
note_on channel=3 note=74 velocity=127 time=0
note_on channel=3 note=74 velocity=127 time=0
note_off channel=3 note=74 velocity=127 time=64
note_off channel=3 note=74 velocity=127 time=0
note_off channel=3 note=74 velocity=127 time=0
note_off channel=3 note=74 velocity=127 time=0
note_off channel=3 note=74 velocity=127 time=0
note_on channel=3 note=74 velocity=127 time=31
note_on channel=3 note=74 velocity=127 time=4
note_on channel=3 note=74 velocity=127 time=0
note_on channel=3 note=74 velocity=127 time=0
note_on channel=3 note=74 velocity=127 time=0
note_off channel=3 note=74 velocity=127 time=64
note_off channel=3 note=74 velocity=127 time=0
note_off channel=3 note=74 velocity=127 time=0
note_off channel=3 note=74 velocity=127 time=0
note_off channel=3 note=74 velocity=127 time=0
note_on channel=3 note=74 velocity=127 time=31
note_on channel=3 note=74 velocity=127 time=5
note_on channel=3 note=74 velocity=127 time=0
note_on channel=3 note=74 velocity=127 time=0
note_on channel=3 note=74 velocity=127 time=0
note_off channel=3 note=74 velocity=127 time=64
note_off channel=3 note=74 velocity=127 time=0
note_off channel=3 note=74 velocity=127 time=0
note_off channel=3 note=74 velocity=127 time=0
note_off channel=3 note=74 velocity=127 time=0
note_on channel=3 note=74 velocity=127 time=31
note_on channel=3 note=74 velocity=127 time=7
note_on channel=3 note=74 velocity=127 time=0
note_on channel=3 note=74 velocity=127 time=0
note_on channel=3 note=74 velocity=127 time=0
note_off channel=3 note=74 velocity=127 time=64
note_off channel=3 note=74 velocity=127 time=0
note_off channel=3 note=74 velocity=127 time=0
note_off channel=3 note=74 velocity=127 time=0
note_off channel=3 note=74 velocity=127 time=0
note_on channel=3 note=74 velocity=127 time=31
note_on channel=3 note=74 velocity=127 time=9
note_on channel=3 note=74 velocity=127 time=0
note_on channel=3 note=74 velocity=127 time=0
note_on channel=3 note=74 velocity=127 time=0
note_off channel=3 note=74 velocity=127 time=128
note_off channel=3 note=74 velocity=127 time=0
note_off channel=3 note=74 velocity=127 time=0
note_off channel=3 note=74 velocity=127 time=0
note_off channel=3 note=74 velocity=127 time=0
note_on channel=3 note=69 velocity=127 time=63
note_on channel=3 note=69 velocity=127 time=25
note_on channel=3 note=69 velocity=127 time=0
note_on channel=3 note=69 velocity=127 time=0
note_on channel=3 note=69 velocity=127 time=0
note_off channel=3 note=69 velocity=127 time=64
note_off channel=3 note=69 velocity=127 time=0
note_off channel=3 note=69 velocity=127 time=0
note_off channel=3 note=69 velocity=127 time=0
note_off channel=3 note=69 velocity=127 time=0
note_on channel=3 note=67 velocity=127 time=31
note_on channel=3 note=67 velocity=127 time=15
note_on channel=3 note=67 velocity=127 time=0
note_on channel=3 note=67 velocity=127 time=0
note_on channel=3 note=67 velocity=127 time=0
note_off channel=3 note=67 velocity=127 time=64
note_off channel=3 note=67 velocity=127 time=0
note_off channel=3 note=67 velocity=127 time=0
note_off channel=3 note=67 velocity=127 time=0
note_off channel=3 note=67 velocity=127 time=0
note_on channel=3 note=69 velocity=127 time=31
note_on channel=3 note=69 velocity=127 time=18
note_on channel=3 note=69 velocity=127 time=0
note_on channel=3 note=69 velocity=127 time=0
note_on channel=3 note=69 velocity=127 time=0
note_off channel=3 note=69 velocity=127 time=64
note_off channel=3 note=69 velocity=127 time=0
note_off channel=3 note=69 velocity=127 time=0
note_off channel=3 note=69 velocity=127 time=0
note_off channel=3 note=69 velocity=127 time=0
note_on channel=3 note=67 velocity=127 time=31
note_on channel=3 note=67 velocity=127 time=20
note_on channel=3 note=67 velocity=127 time=0
note_on channel=3 note=67 velocity=127 time=0
note_on channel=3 note=67 velocity=127 time=0
note_off channel=3 note=67 velocity=127 time=64
note_off channel=3 note=67 velocity=127 time=0
note_off channel=3 note=67 velocity=127 time=0
note_off channel=3 note=67 velocity=127 time=0
note_off channel=3 note=67 velocity=127 time=0
note_on channel=3 note=71 velocity=127 time=31
note_on channel=3 note=71 velocity=127 time=22
note_on channel=3 note=71 velocity=127 time=0
note_on channel=3 note=71 velocity=127 time=0
note_on channel=3 note=71 velocity=127 time=0
note_off channel=3 note=71 velocity=127 time=128
note_off channel=3 note=71 velocity=127 time=0
note_off channel=3 note=71 velocity=127 time=0
note_off channel=3 note=71 velocity=127 time=0
note_off channel=3 note=71 velocity=127 time=0
note_on channel=3 note=67 velocity=127 time=62
note_on channel=3 note=67 velocity=127 time=52
note_on channel=3 note=67 velocity=127 time=0
note_on channel=3 note=67 velocity=127 time=0
note_on channel=3 note=67 velocity=127 time=0
note_on channel=3 note=64 velocity=127 time=93
note_on channel=3 note=64 velocity=127 time=86
note_on channel=3 note=64 velocity=127 time=0
note_on channel=3 note=64 velocity=127 time=0
note_on channel=3 note=64 velocity=127 time=0
note_off channel=3 note=67 velocity=127 time=160
note_off channel=3 note=67 velocity=127 time=0
note_off channel=3 note=67 velocity=127 time=0
note_off channel=3 note=67 velocity=127 time=0
note_off channel=3 note=67 velocity=127 time=0
note_off channel=3 note=64 velocity=127 time=32
note_off channel=3 note=64 velocity=127 time=0
note_off channel=3 note=64 velocity=127 time=0
note_off channel=3 note=64 velocity=127 time=0
note_off channel=3 note=64 velocity=127 time=0
note_on channel=3 note=71 velocity=127 time=186
note_on channel=3 note=71 velocity=127 time=145
note_on channel=3 note=71 velocity=127 time=0
note_on channel=3 note=71 velocity=127 time=0
note_on channel=3 note=71 velocity=127 time=0
note_off channel=3 note=71 velocity=127 time=64
note_off channel=3 note=71 velocity=127 time=0
note_off channel=3 note=71 velocity=127 time=0
note_off channel=3 note=71 velocity=127 time=0
note_off channel=3 note=71 velocity=127 time=0
note_on channel=3 note=71 velocity=127 time=30
note_on channel=3 note=71 velocity=127 time=13
note_on channel=3 note=71 velocity=127 time=0
note_on channel=3 note=71 velocity=127 time=0
note_on channel=3 note=71 velocity=127 time=0
note_off channel=3 note=71 velocity=127 time=64
note_off channel=3 note=71 velocity=127 time=0
note_off channel=3 note=71 velocity=127 time=0
note_off channel=3 note=71 velocity=127 time=0
note_off channel=3 note=71 velocity=127 time=0
note_on channel=3 note=71 velocity=127 time=31
note_on channel=3 note=71 velocity=127 time=10
note_on channel=3 note=71 velocity=127 time=0
note_on channel=3 note=71 velocity=127 time=0
note_on channel=3 note=71 velocity=127 time=0
note_off channel=3 note=71 velocity=127 time=64
note_off channel=3 note=71 velocity=127 time=0
note_off channel=3 note=71 velocity=127 time=0
note_off channel=3 note=71 velocity=127 time=0
note_off channel=3 note=71 velocity=127 time=0
note_on channel=3 note=69 velocity=127 time=30
note_on channel=3 note=69 velocity=127 time=0
note_on channel=3 note=69 velocity=127 time=0
note_on channel=3 note=69 velocity=127 time=0
note_on channel=3 note=69 velocity=127 time=0
note_off channel=3 note=69 velocity=127 time=128
note_off channel=3 note=69 velocity=127 time=0
note_off channel=3 note=69 velocity=127 time=0
note_off channel=3 note=69 velocity=127 time=0
note_off channel=3 note=69 velocity=127 time=0
note_on channel=3 note=71 velocity=127 time=61
note_on channel=3 note=71 velocity=127 time=0
note_on channel=3 note=71 velocity=127 time=0
note_on channel=3 note=71 velocity=127 time=0
note_on channel=3 note=71 velocity=127 time=0
note_off channel=3 note=71 velocity=127 time=64
note_off channel=3 note=71 velocity=127 time=0
note_off channel=3 note=71 velocity=127 time=0
note_off channel=3 note=71 velocity=127 time=0
note_off channel=3 note=71 velocity=127 time=0
note_on channel=3 note=71 velocity=127 time=30
note_on channel=3 note=71 velocity=127 time=3
note_on channel=3 note=71 velocity=127 time=0
note_on channel=3 note=71 velocity=127 time=0
note_on channel=3 note=71 velocity=127 time=0
note_off channel=3 note=71 velocity=127 time=64
note_off channel=3 note=71 velocity=127 time=0
note_off channel=3 note=71 velocity=127 time=0
note_off channel=3 note=71 velocity=127 time=0
note_off channel=3 note=71 velocity=127 time=0
note_on channel=3 note=74 velocity=127 time=30
note_on channel=3 note=74 velocity=127 time=6
note_on channel=3 note=74 velocity=127 time=0
note_on channel=3 note=74 velocity=127 time=0
note_on channel=3 note=74 velocity=127 time=0
note_off channel=3 note=74 velocity=127 time=64
note_off channel=3 note=74 velocity=127 time=0
note_off channel=3 note=74 velocity=127 time=0
note_off channel=3 note=74 velocity=127 time=0
note_off channel=3 note=74 velocity=127 time=0
note_on channel=3 note=74 velocity=127 time=31
note_on channel=3 note=74 velocity=127 time=8
note_on channel=3 note=74 velocity=127 time=0
note_on channel=3 note=74 velocity=127 time=0
note_on channel=3 note=74 velocity=127 time=0
note_off channel=3 note=74 velocity=127 time=64
note_off channel=3 note=74 velocity=127 time=0
note_off channel=3 note=74 velocity=127 time=0
note_off channel=3 note=74 velocity=127 time=0
note_off channel=3 note=74 velocity=127 time=0
note_on channel=3 note=74 velocity=127 time=30
note_on channel=3 note=74 velocity=127 time=10
note_on channel=3 note=74 velocity=127 time=0
note_on channel=3 note=74 velocity=127 time=0
note_on channel=3 note=74 velocity=127 time=0
note_off channel=3 note=74 velocity=127 time=128
note_off channel=3 note=74 velocity=127 time=0
note_off channel=3 note=74 velocity=127 time=0
note_off channel=3 note=74 velocity=127 time=0
note_off channel=3 note=74 velocity=127 time=0
note_on channel=3 note=76 velocity=127 time=154
note_on channel=3 note=76 velocity=127 time=59
note_on channel=3 note=76 velocity=127 time=0
note_on channel=3 note=76 velocity=127 time=0
note_on channel=3 note=76 velocity=127 time=0
note_off channel=3 note=76 velocity=127 time=64
note_off channel=3 note=76 velocity=127 time=0
note_off channel=3 note=76 velocity=127 time=0
note_off channel=3 note=76 velocity=127 time=0
note_off channel=3 note=76 velocity=127 time=0
note_on channel=3 note=76 velocity=127 time=30
note_on channel=3 note=76 velocity=127 time=0
note_on channel=3 note=76 velocity=127 time=0
note_on channel=3 note=76 velocity=127 time=0
note_on channel=3 note=76 velocity=127 time=0
note_off channel=3 note=76 velocity=127 time=128
note_off channel=3 note=76 velocity=127 time=0
note_off channel=3 note=76 velocity=127 time=0
note_off channel=3 note=76 velocity=127 time=0
note_off channel=3 note=76 velocity=127 time=0
note_on channel=3 note=76 velocity=127 time=247
note_on channel=3 note=76 velocity=127 time=43
note_on channel=3 note=76 velocity=127 time=0
note_on channel=3 note=76 velocity=127 time=0
note_on channel=3 note=76 velocity=127 time=0
note_off channel=3 note=76 velocity=127 time=128
note_off channel=3 note=76 velocity=127 time=0
note_off channel=3 note=76 velocity=127 time=0
note_off channel=3 note=76 velocity=127 time=0
note_off channel=3 note=76 velocity=127 time=0
note_on channel=3 note=76 velocity=127 time=62
note_on channel=3 note=76 velocity=127 time=2
note_on channel=3 note=76 velocity=127 time=0
note_on channel=3 note=76 velocity=127 time=0
note_on channel=3 note=76 velocity=127 time=0
note_off channel=3 note=76 velocity=127 time=256
note_off channel=3 note=76 velocity=127 time=0
note_off channel=3 note=76 velocity=127 time=0
note_off channel=3 note=76 velocity=127 time=0
note_off channel=3 note=76 velocity=127 time=0
note_on channel=3 note=74 velocity=127 time=310
note_on channel=3 note=74 velocity=127 time=32
note_on channel=3 note=74 velocity=127 time=0
note_on channel=3 note=74 velocity=127 time=0
note_on channel=3 note=74 velocity=127 time=0
note_off channel=3 note=74 velocity=127 time=128
note_off channel=3 note=74 velocity=127 time=0
note_off channel=3 note=74 velocity=127 time=0
note_off channel=3 note=74 velocity=127 time=0
note_off channel=3 note=74 velocity=127 time=0
note_on channel=3 note=76 velocity=127 time=61
note_on channel=3 note=76 velocity=127 time=15
note_on channel=3 note=76 velocity=127 time=0
note_on channel=3 note=76 velocity=127 time=0
note_on channel=3 note=76 velocity=127 time=0
note_off channel=3 note=76 velocity=127 time=128
note_off channel=3 note=76 velocity=127 time=0
note_off channel=3 note=76 velocity=127 time=0
note_off channel=3 note=76 velocity=127 time=0
note_off channel=3 note=76 velocity=127 time=0
note_on channel=3 note=71 velocity=127 time=62
note_on channel=3 note=71 velocity=127 time=14
note_on channel=3 note=71 velocity=127 time=0
note_on channel=3 note=71 velocity=127 time=0
note_on channel=3 note=71 velocity=127 time=0
note_off channel=3 note=71 velocity=127 time=128
note_off channel=3 note=71 velocity=127 time=0
note_off channel=3 note=71 velocity=127 time=0
note_off channel=3 note=71 velocity=127 time=0
note_off channel=3 note=71 velocity=127 time=0
note_on channel=3 note=71 velocity=127 time=62
note_on channel=3 note=71 velocity=127 time=10
note_on channel=3 note=71 velocity=127 time=0
note_on channel=3 note=71 velocity=127 time=0
note_on channel=3 note=71 velocity=127 time=0
note_off channel=3 note=71 velocity=127 time=64
note_off channel=3 note=71 velocity=127 time=0
note_off channel=3 note=71 velocity=127 time=0
note_off channel=3 note=71 velocity=127 time=0
note_off channel=3 note=71 velocity=127 time=0
note_on channel=3 note=71 velocity=127 time=30
note_on channel=3 note=71 velocity=127 time=2
note_on channel=3 note=71 velocity=127 time=0
note_on channel=3 note=71 velocity=127 time=0
note_on channel=3 note=71 velocity=127 time=0
note_off channel=3 note=71 velocity=127 time=64
note_off channel=3 note=71 velocity=127 time=0
note_off channel=3 note=71 velocity=127 time=0
note_off channel=3 note=71 velocity=127 time=0
note_off channel=3 note=71 velocity=127 time=0
note_on channel=3 note=71 velocity=127 time=30
note_on channel=3 note=71 velocity=127 time=0
note_on channel=3 note=71 velocity=127 time=0
note_on channel=3 note=71 velocity=127 time=0
note_on channel=3 note=71 velocity=127 time=0
note_off channel=3 note=71 velocity=127 time=64
note_off channel=3 note=71 velocity=127 time=0
note_off channel=3 note=71 velocity=127 time=0
note_off channel=3 note=71 velocity=127 time=0
note_off channel=3 note=71 velocity=127 time=0
note_on channel=3 note=71 velocity=127 time=31
note_on channel=3 note=71 velocity=127 time=0
note_on channel=3 note=71 velocity=127 time=0
note_on channel=3 note=71 velocity=127 time=0
note_on channel=3 note=71 velocity=127 time=0
note_off channel=3 note=71 velocity=127 time=64
note_off channel=3 note=71 velocity=127 time=0
note_off channel=3 note=71 velocity=127 time=0
note_off channel=3 note=71 velocity=127 time=0
note_off channel=3 note=71 velocity=127 time=0
note_on channel=3 note=71 velocity=127 time=30
note_on channel=3 note=71 velocity=127 time=2
note_on channel=3 note=71 velocity=127 time=0
note_on channel=3 note=71 velocity=127 time=0
note_on channel=3 note=71 velocity=127 time=0
note_off channel=3 note=71 velocity=127 time=64
note_off channel=3 note=71 velocity=127 time=0
note_off channel=3 note=71 velocity=127 time=0
note_off channel=3 note=71 velocity=127 time=0
note_off channel=3 note=71 velocity=127 time=0
note_on channel=3 note=71 velocity=127 time=31
note_on channel=3 note=71 velocity=127 time=4
note_on channel=3 note=71 velocity=127 time=0
note_on channel=3 note=71 velocity=127 time=0
note_on channel=3 note=71 velocity=127 time=0
note_off channel=3 note=71 velocity=127 time=64
note_off channel=3 note=71 velocity=127 time=0
note_off channel=3 note=71 velocity=127 time=0
note_off channel=3 note=71 velocity=127 time=0
note_off channel=3 note=71 velocity=127 time=0
note_on channel=3 note=71 velocity=127 time=30
note_on channel=3 note=71 velocity=127 time=6
note_on channel=3 note=71 velocity=127 time=0
note_on channel=3 note=71 velocity=127 time=0
note_on channel=3 note=71 velocity=127 time=0
note_off channel=3 note=71 velocity=127 time=64
note_off channel=3 note=71 velocity=127 time=0
note_off channel=3 note=71 velocity=127 time=0
note_off channel=3 note=71 velocity=127 time=0
note_off channel=3 note=71 velocity=127 time=0
note_on channel=3 note=71 velocity=127 time=30
note_on channel=3 note=71 velocity=127 time=8
note_on channel=3 note=71 velocity=127 time=0
note_on channel=3 note=71 velocity=127 time=0
note_on channel=3 note=71 velocity=127 time=0
note_off channel=3 note=71 velocity=127 time=64
note_off channel=3 note=71 velocity=127 time=0
note_off channel=3 note=71 velocity=127 time=0
note_off channel=3 note=71 velocity=127 time=0
note_off channel=3 note=71 velocity=127 time=0
note_on channel=3 note=74 velocity=127 time=31
note_on channel=3 note=74 velocity=127 time=9
note_on channel=3 note=74 velocity=127 time=0
note_on channel=3 note=74 velocity=127 time=0
note_on channel=3 note=74 velocity=127 time=0
note_off channel=3 note=74 velocity=127 time=64
note_off channel=3 note=74 velocity=127 time=0
note_off channel=3 note=74 velocity=127 time=0
note_off channel=3 note=74 velocity=127 time=0
note_off channel=3 note=74 velocity=127 time=0
note_on channel=3 note=74 velocity=127 time=30
note_on channel=3 note=74 velocity=127 time=10
note_on channel=3 note=74 velocity=127 time=0
note_on channel=3 note=74 velocity=127 time=0
note_on channel=3 note=74 velocity=127 time=0
note_off channel=3 note=74 velocity=127 time=64
note_off channel=3 note=74 velocity=127 time=0
note_off channel=3 note=74 velocity=127 time=0
note_off channel=3 note=74 velocity=127 time=0
note_off channel=3 note=74 velocity=127 time=0
note_on channel=3 note=71 velocity=127 time=30
note_on channel=3 note=71 velocity=127 time=11
note_on channel=3 note=71 velocity=127 time=0
note_on channel=3 note=71 velocity=127 time=0
note_on channel=3 note=71 velocity=127 time=0
note_off channel=3 note=71 velocity=127 time=128
note_off channel=3 note=71 velocity=127 time=0
note_off channel=3 note=71 velocity=127 time=0
note_off channel=3 note=71 velocity=127 time=0
note_off channel=3 note=71 velocity=127 time=0
note_on channel=3 note=71 velocity=127 time=155
note_on channel=3 note=71 velocity=127 time=59
note_on channel=3 note=71 velocity=127 time=0
note_on channel=3 note=71 velocity=127 time=0
note_on channel=3 note=71 velocity=127 time=0
note_off channel=3 note=71 velocity=127 time=64
note_off channel=3 note=71 velocity=127 time=0
note_off channel=3 note=71 velocity=127 time=0
note_off channel=3 note=71 velocity=127 time=0
note_off channel=3 note=71 velocity=127 time=0
note_on channel=3 note=74 velocity=127 time=30
note_on channel=3 note=74 velocity=127 time=9
note_on channel=3 note=74 velocity=127 time=0
note_on channel=3 note=74 velocity=127 time=0
note_on channel=3 note=74 velocity=127 time=0
note_off channel=3 note=74 velocity=127 time=128
note_off channel=3 note=74 velocity=127 time=0
note_off channel=3 note=74 velocity=127 time=0
note_off channel=3 note=74 velocity=127 time=0
note_off channel=3 note=74 velocity=127 time=0
note_on channel=3 note=71 velocity=127 time=62
note_on channel=3 note=71 velocity=127 time=13
note_on channel=3 note=71 velocity=127 time=0
note_on channel=3 note=71 velocity=127 time=0
note_on channel=3 note=71 velocity=127 time=0
note_off channel=3 note=71 velocity=127 time=256
note_off channel=3 note=71 velocity=127 time=0
note_off channel=3 note=71 velocity=127 time=0
note_off channel=3 note=71 velocity=127 time=0
note_off channel=3 note=71 velocity=127 time=0
note_on channel=3 note=71 velocity=127 time=866
note_on channel=3 note=71 velocity=127 time=78
note_on channel=3 note=71 velocity=127 time=0
note_on channel=3 note=71 velocity=127 time=0
note_on channel=3 note=71 velocity=127 time=0
note_off channel=3 note=71 velocity=127 time=64
note_off channel=3 note=71 velocity=127 time=0
note_off channel=3 note=71 velocity=127 time=0
note_off channel=3 note=71 velocity=127 time=0
note_off channel=3 note=71 velocity=127 time=0
note_on channel=3 note=71 velocity=127 time=31
note_on channel=3 note=71 velocity=127 time=12
note_on channel=3 note=71 velocity=127 time=0
note_on channel=3 note=71 velocity=127 time=0
note_on channel=3 note=71 velocity=127 time=0
note_off channel=3 note=71 velocity=127 time=192
note_off channel=3 note=71 velocity=127 time=0
note_off channel=3 note=71 velocity=127 time=0
note_off channel=3 note=71 velocity=127 time=0
note_off channel=3 note=71 velocity=127 time=0
note_on channel=3 note=74 velocity=127 time=93
note_on channel=3 note=74 velocity=127 time=63
note_on channel=3 note=74 velocity=127 time=0
note_on channel=3 note=74 velocity=127 time=0
note_on channel=3 note=74 velocity=127 time=0
note_on channel=3 note=71 velocity=127 time=93
note_on channel=3 note=71 velocity=127 time=94
note_on channel=3 note=71 velocity=127 time=0
note_on channel=3 note=71 velocity=127 time=0
note_on channel=3 note=71 velocity=127 time=0
note_off channel=3 note=74 velocity=127 time=160
note_off channel=3 note=74 velocity=127 time=0
note_off channel=3 note=74 velocity=127 time=0
note_off channel=3 note=74 velocity=127 time=0
note_off channel=3 note=74 velocity=127 time=0
note_off channel=3 note=71 velocity=127 time=32
note_off channel=3 note=71 velocity=127 time=0
note_off channel=3 note=71 velocity=127 time=0
note_off channel=3 note=71 velocity=127 time=0
note_off channel=3 note=71 velocity=127 time=0
note_on channel=3 note=76 velocity=127 time=844
note_on channel=3 note=76 velocity=127 time=486
note_on channel=3 note=76 velocity=127 time=0
note_on channel=3 note=76 velocity=127 time=0
note_on channel=3 note=76 velocity=127 time=0
note_off channel=3 note=76 velocity=127 time=64
note_off channel=3 note=76 velocity=127 time=0
note_off channel=3 note=76 velocity=127 time=0
note_off channel=3 note=76 velocity=127 time=0
note_off channel=3 note=76 velocity=127 time=0
note_on channel=3 note=76 velocity=127 time=31
note_on channel=3 note=76 velocity=127 time=7
note_on channel=3 note=76 velocity=127 time=0
note_on channel=3 note=76 velocity=127 time=0
note_on channel=3 note=76 velocity=127 time=0
note_off channel=3 note=76 velocity=127 time=192
note_off channel=3 note=76 velocity=127 time=0
note_off channel=3 note=76 velocity=127 time=0
note_off channel=3 note=76 velocity=127 time=0
note_off channel=3 note=76 velocity=127 time=0
note_on channel=3 note=71 velocity=127 time=95
note_on channel=3 note=71 velocity=127 time=25
note_on channel=3 note=71 velocity=127 time=0
note_on channel=3 note=71 velocity=127 time=0
note_on channel=3 note=71 velocity=127 time=0
note_off channel=3 note=71 velocity=127 time=256
note_off channel=3 note=71 velocity=127 time=0
note_off channel=3 note=71 velocity=127 time=0
note_off channel=3 note=71 velocity=127 time=0
note_off channel=3 note=71 velocity=127 time=0
note_on channel=3 note=71 velocity=127 time=892
note_on channel=3 note=71 velocity=127 time=53
note_on channel=3 note=71 velocity=127 time=0
note_on channel=3 note=71 velocity=127 time=0
note_on channel=3 note=71 velocity=127 time=0
note_off channel=3 note=71 velocity=127 time=64
note_off channel=3 note=71 velocity=127 time=0
note_off channel=3 note=71 velocity=127 time=0
note_off channel=3 note=71 velocity=127 time=0
note_off channel=3 note=71 velocity=127 time=0
note_on channel=3 note=71 velocity=127 time=31
note_on channel=3 note=71 velocity=127 time=6
note_on channel=3 note=71 velocity=127 time=0
note_on channel=3 note=71 velocity=127 time=0
note_on channel=3 note=71 velocity=127 time=0
note_off channel=3 note=71 velocity=127 time=192
note_off channel=3 note=71 velocity=127 time=0
note_off channel=3 note=71 velocity=127 time=0
note_off channel=3 note=71 velocity=127 time=0
note_off channel=3 note=71 velocity=127 time=0
note_on channel=3 note=74 velocity=127 time=95
note_on channel=3 note=74 velocity=127 time=3
note_on channel=3 note=74 velocity=127 time=0
note_on channel=3 note=74 velocity=127 time=0
note_on channel=3 note=74 velocity=127 time=0
note_off channel=3 note=74 velocity=127 time=256
note_off channel=3 note=74 velocity=127 time=0
note_off channel=3 note=74 velocity=127 time=0
note_off channel=3 note=74 velocity=127 time=0
note_off channel=3 note=74 velocity=127 time=0
note_on channel=3 note=69 velocity=127 time=1463
note_on channel=3 note=69 velocity=127 time=761
note_on channel=3 note=69 velocity=127 time=0
note_on channel=3 note=69 velocity=127 time=0
note_on channel=3 note=69 velocity=127 time=0
note_off channel=3 note=69 velocity=127 time=384
note_off channel=3 note=69 velocity=127 time=0
note_off channel=3 note=69 velocity=127 time=0
note_off channel=3 note=69 velocity=127 time=0
note_off channel=3 note=69 velocity=127 time=0
note_on channel=3 note=71 velocity=127 time=0
note_on channel=3 note=71 velocity=127 time=0
note_on channel=3 note=71 velocity=127 time=0
note_on channel=3 note=71 velocity=127 time=0
note_on channel=3 note=71 velocity=127 time=0
note_off channel=3 note=71 velocity=127 time=128
note_off channel=3 note=71 velocity=127 time=0
note_off channel=3 note=71 velocity=127 time=0
note_off channel=3 note=71 velocity=127 time=0
note_off channel=3 note=71 velocity=127 time=0
note_on channel=3 note=73 velocity=127 time=62
note_on channel=3 note=73 velocity=127 time=2
note_on channel=3 note=73 velocity=127 time=0
note_on channel=3 note=73 velocity=127 time=0
note_on channel=3 note=73 velocity=127 time=0
note_off channel=3 note=73 velocity=127 time=192
note_off channel=3 note=73 velocity=127 time=0
note_off channel=3 note=73 velocity=127 time=0
note_off channel=3 note=73 velocity=127 time=0
note_off channel=3 note=73 velocity=127 time=0
note_on channel=3 note=71 velocity=127 time=92
note_on channel=3 note=71 velocity=127 time=6
note_on channel=3 note=71 velocity=127 time=0
note_on channel=3 note=71 velocity=127 time=0
note_on channel=3 note=71 velocity=127 time=0
note_off channel=3 note=71 velocity=127 time=128
note_off channel=3 note=71 velocity=127 time=0
note_off channel=3 note=71 velocity=127 time=0
note_off channel=3 note=71 velocity=127 time=0
note_off channel=3 note=71 velocity=127 time=0
note_on channel=3 note=73 velocity=127 time=154
note_on channel=3 note=73 velocity=127 time=17
note_on channel=3 note=73 velocity=127 time=0
note_on channel=3 note=73 velocity=127 time=0
note_on channel=3 note=73 velocity=127 time=0
note_off channel=3 note=73 velocity=127 time=128
note_off channel=3 note=73 velocity=127 time=0
note_off channel=3 note=73 velocity=127 time=0
note_off channel=3 note=73 velocity=127 time=0
note_off channel=3 note=73 velocity=127 time=0
note_on channel=3 note=69 velocity=127 time=248
note_on channel=3 note=69 velocity=127 time=204
note_on channel=3 note=69 velocity=127 time=0
note_on channel=3 note=69 velocity=127 time=0
note_on channel=3 note=69 velocity=127 time=0
note_off channel=3 note=69 velocity=127 time=384
note_off channel=3 note=69 velocity=127 time=0
note_off channel=3 note=69 velocity=127 time=0
note_off channel=3 note=69 velocity=127 time=0
note_off channel=3 note=69 velocity=127 time=0
note_on channel=3 note=71 velocity=127 time=0
note_on channel=3 note=71 velocity=127 time=0
note_on channel=3 note=71 velocity=127 time=0
note_on channel=3 note=71 velocity=127 time=0
note_on channel=3 note=71 velocity=127 time=0
note_off channel=3 note=71 velocity=127 time=128
note_off channel=3 note=71 velocity=127 time=0
note_off channel=3 note=71 velocity=127 time=0
note_off channel=3 note=71 velocity=127 time=0
note_off channel=3 note=71 velocity=127 time=0
note_on channel=3 note=73 velocity=127 time=61
note_on channel=3 note=73 velocity=127 time=65
note_on channel=3 note=73 velocity=127 time=0
note_on channel=3 note=73 velocity=127 time=0
note_on channel=3 note=73 velocity=127 time=0
note_off channel=3 note=73 velocity=127 time=192
note_off channel=3 note=73 velocity=127 time=0
note_off channel=3 note=73 velocity=127 time=0
note_off channel=3 note=73 velocity=127 time=0
note_off channel=3 note=73 velocity=127 time=0
note_on channel=3 note=71 velocity=127 time=93
note_on channel=3 note=71 velocity=127 time=86
note_on channel=3 note=71 velocity=127 time=0
note_on channel=3 note=71 velocity=127 time=0
note_on channel=3 note=71 velocity=127 time=0
note_off channel=3 note=71 velocity=127 time=128
note_off channel=3 note=71 velocity=127 time=0
note_off channel=3 note=71 velocity=127 time=0
note_off channel=3 note=71 velocity=127 time=0
note_off channel=3 note=71 velocity=127 time=0
note_on channel=3 note=73 velocity=127 time=62
note_on channel=3 note=73 velocity=127 time=44
note_on channel=3 note=73 velocity=127 time=0
note_on channel=3 note=73 velocity=127 time=0
note_on channel=3 note=73 velocity=127 time=0
note_off channel=3 note=73 velocity=127 time=64
note_off channel=3 note=73 velocity=127 time=0
note_off channel=3 note=73 velocity=127 time=0
note_off channel=3 note=73 velocity=127 time=0
note_off channel=3 note=73 velocity=127 time=0
note_on channel=3 note=73 velocity=127 time=31
note_on channel=3 note=73 velocity=127 time=16
note_on channel=3 note=73 velocity=127 time=0
note_on channel=3 note=73 velocity=127 time=0
note_on channel=3 note=73 velocity=127 time=0
note_off channel=3 note=73 velocity=127 time=128
note_off channel=3 note=73 velocity=127 time=0
note_off channel=3 note=73 velocity=127 time=0
note_off channel=3 note=73 velocity=127 time=0
note_off channel=3 note=73 velocity=127 time=0
note_on channel=3 note=74 velocity=127 time=63
note_on channel=3 note=74 velocity=127 time=24
note_on channel=3 note=74 velocity=127 time=0
note_on channel=3 note=74 velocity=127 time=0
note_on channel=3 note=74 velocity=127 time=0
note_off channel=3 note=74 velocity=127 time=64
note_off channel=3 note=74 velocity=127 time=0
note_off channel=3 note=74 velocity=127 time=0
note_off channel=3 note=74 velocity=127 time=0
note_off channel=3 note=74 velocity=127 time=0
note_on channel=3 note=74 velocity=127 time=31
note_on channel=3 note=74 velocity=127 time=6
note_on channel=3 note=74 velocity=127 time=0
note_on channel=3 note=74 velocity=127 time=0
note_on channel=3 note=74 velocity=127 time=0
note_off channel=3 note=74 velocity=127 time=128
note_off channel=3 note=74 velocity=127 time=0
note_off channel=3 note=74 velocity=127 time=0
note_off channel=3 note=74 velocity=127 time=0
note_off channel=3 note=74 velocity=127 time=0
note_on channel=3 note=74 velocity=127 time=63
note_on channel=3 note=74 velocity=127 time=3
note_on channel=3 note=74 velocity=127 time=0
note_on channel=3 note=74 velocity=127 time=0
note_on channel=3 note=74 velocity=127 time=0
note_off channel=3 note=74 velocity=127 time=256
note_off channel=3 note=74 velocity=127 time=0
note_off channel=3 note=74 velocity=127 time=0
note_off channel=3 note=74 velocity=127 time=0
note_off channel=3 note=74 velocity=127 time=0
note_on channel=3 note=74 velocity=127 time=692
note_on channel=3 note=74 velocity=127 time=212
note_on channel=3 note=74 velocity=127 time=0
note_on channel=3 note=74 velocity=127 time=0
note_on channel=3 note=74 velocity=127 time=0
note_off channel=3 note=74 velocity=127 time=64
note_off channel=3 note=74 velocity=127 time=0
note_off channel=3 note=74 velocity=127 time=0
note_off channel=3 note=74 velocity=127 time=0
note_off channel=3 note=74 velocity=127 time=0
note_on channel=3 note=74 velocity=127 time=31
note_on channel=3 note=74 velocity=127 time=6
note_on channel=3 note=74 velocity=127 time=0
note_on channel=3 note=74 velocity=127 time=0
note_on channel=3 note=74 velocity=127 time=0
note_off channel=3 note=74 velocity=127 time=128
note_off channel=3 note=74 velocity=127 time=0
note_off channel=3 note=74 velocity=127 time=0
note_off channel=3 note=74 velocity=127 time=0
note_off channel=3 note=74 velocity=127 time=0
note_on channel=3 note=78 velocity=127 time=62
note_on channel=3 note=78 velocity=127 time=13
note_on channel=3 note=78 velocity=127 time=0
note_on channel=3 note=78 velocity=127 time=0
note_on channel=3 note=78 velocity=127 time=0
note_off channel=3 note=78 velocity=127 time=192
note_off channel=3 note=78 velocity=127 time=0
note_off channel=3 note=78 velocity=127 time=0
note_off channel=3 note=78 velocity=127 time=0
note_off channel=3 note=78 velocity=127 time=0
note_on channel=3 note=74 velocity=127 time=93
note_on channel=3 note=74 velocity=127 time=15
note_on channel=3 note=74 velocity=127 time=0
note_on channel=3 note=74 velocity=127 time=0
note_on channel=3 note=74 velocity=127 time=0
note_off channel=3 note=74 velocity=127 time=192
note_off channel=3 note=74 velocity=127 time=0
note_off channel=3 note=74 velocity=127 time=0
note_off channel=3 note=74 velocity=127 time=0
note_off channel=3 note=74 velocity=127 time=0
note_on channel=3 note=74 velocity=127 time=93
note_on channel=3 note=74 velocity=127 time=3
note_on channel=3 note=74 velocity=127 time=0
note_on channel=3 note=74 velocity=127 time=0
note_on channel=3 note=74 velocity=127 time=0
note_off channel=3 note=74 velocity=127 time=384
note_off channel=3 note=74 velocity=127 time=0
note_off channel=3 note=74 velocity=127 time=0
note_off channel=3 note=74 velocity=127 time=0
note_off channel=3 note=74 velocity=127 time=0
note_on channel=3 note=71 velocity=127 time=24223
note_off channel=3 note=71 velocity=127 time=192
note_on channel=3 note=71 velocity=127 time=349
note_off channel=3 note=71 velocity=127 time=64
note_on channel=3 note=71 velocity=127 time=76
note_on channel=3 note=71 velocity=127 time=5
note_on channel=3 note=71 velocity=127 time=0
note_on channel=3 note=71 velocity=127 time=0
note_on channel=3 note=71 velocity=127 time=0
note_off channel=3 note=71 velocity=127 time=256
note_off channel=3 note=71 velocity=127 time=0
note_off channel=3 note=71 velocity=127 time=0
note_off channel=3 note=71 velocity=127 time=0
note_off channel=3 note=71 velocity=127 time=0
note_on channel=3 note=71 velocity=127 time=881
note_on channel=3 note=71 velocity=127 time=1208
note_on channel=3 note=71 velocity=127 time=0
note_on channel=3 note=71 velocity=127 time=0
note_on channel=3 note=71 velocity=127 time=0
note_off channel=3 note=71 velocity=127 time=64
note_off channel=3 note=71 velocity=127 time=0
note_off channel=3 note=71 velocity=127 time=0
note_off channel=3 note=71 velocity=127 time=0
note_off channel=3 note=71 velocity=127 time=0
note_on channel=3 note=71 velocity=127 time=31
note_on channel=3 note=71 velocity=127 time=14
note_on channel=3 note=71 velocity=127 time=0
note_on channel=3 note=71 velocity=127 time=0
note_on channel=3 note=71 velocity=127 time=0
note_off channel=3 note=71 velocity=127 time=192
note_off channel=3 note=71 velocity=127 time=0
note_off channel=3 note=71 velocity=127 time=0
note_off channel=3 note=71 velocity=127 time=0
note_off channel=3 note=71 velocity=127 time=0
note_on channel=3 note=74 velocity=127 time=92
note_on channel=3 note=74 velocity=127 time=73
note_on channel=3 note=74 velocity=127 time=0
note_on channel=3 note=74 velocity=127 time=0
note_on channel=3 note=74 velocity=127 time=0
note_on channel=3 note=71 velocity=127 time=92
note_on channel=3 note=71 velocity=127 time=100
note_on channel=3 note=71 velocity=127 time=0
note_on channel=3 note=71 velocity=127 time=0
note_on channel=3 note=71 velocity=127 time=0
note_off channel=3 note=74 velocity=127 time=160
note_off channel=3 note=74 velocity=127 time=0
note_off channel=3 note=74 velocity=127 time=0
note_off channel=3 note=74 velocity=127 time=0
note_off channel=3 note=74 velocity=127 time=0
note_off channel=3 note=71 velocity=127 time=32
note_off channel=3 note=71 velocity=127 time=0
note_off channel=3 note=71 velocity=127 time=0
note_off channel=3 note=71 velocity=127 time=0
note_off channel=3 note=71 velocity=127 time=0
note_on channel=3 note=76 velocity=127 time=834
note_on channel=3 note=76 velocity=127 time=1836
note_on channel=3 note=76 velocity=127 time=0
note_on channel=3 note=76 velocity=127 time=0
note_on channel=3 note=76 velocity=127 time=0
note_off channel=3 note=76 velocity=127 time=64
note_off channel=3 note=76 velocity=127 time=0
note_off channel=3 note=76 velocity=127 time=0
note_off channel=3 note=76 velocity=127 time=0
note_off channel=3 note=76 velocity=127 time=0
note_on channel=3 note=76 velocity=127 time=31
note_on channel=3 note=76 velocity=127 time=63
note_on channel=3 note=76 velocity=127 time=0
note_on channel=3 note=76 velocity=127 time=0
note_on channel=3 note=76 velocity=127 time=0
note_off channel=3 note=76 velocity=127 time=192
note_off channel=3 note=76 velocity=127 time=0
note_off channel=3 note=76 velocity=127 time=0
note_off channel=3 note=76 velocity=127 time=0
note_off channel=3 note=76 velocity=127 time=0
note_on channel=3 note=71 velocity=127 time=95
note_on channel=3 note=71 velocity=127 time=147
note_on channel=3 note=71 velocity=127 time=0
note_on channel=3 note=71 velocity=127 time=0
note_on channel=3 note=71 velocity=127 time=0
note_off channel=3 note=71 velocity=127 time=256
note_off channel=3 note=71 velocity=127 time=0
note_off channel=3 note=71 velocity=127 time=0
note_off channel=3 note=71 velocity=127 time=0
note_off channel=3 note=71 velocity=127 time=0
note_on channel=3 note=71 velocity=127 time=896
note_on channel=3 note=71 velocity=127 time=268
note_on channel=3 note=71 velocity=127 time=0
note_on channel=3 note=71 velocity=127 time=0
note_on channel=3 note=71 velocity=127 time=0
note_off channel=3 note=71 velocity=127 time=64
note_off channel=3 note=71 velocity=127 time=0
note_off channel=3 note=71 velocity=127 time=0
note_off channel=3 note=71 velocity=127 time=0
note_off channel=3 note=71 velocity=127 time=0
note_on channel=3 note=71 velocity=127 time=32
note_on channel=3 note=71 velocity=127 time=14
note_on channel=3 note=71 velocity=127 time=0
note_on channel=3 note=71 velocity=127 time=0
note_on channel=3 note=71 velocity=127 time=0
note_off channel=3 note=71 velocity=127 time=192
note_off channel=3 note=71 velocity=127 time=0
note_off channel=3 note=71 velocity=127 time=0
note_off channel=3 note=71 velocity=127 time=0
note_off channel=3 note=71 velocity=127 time=0
note_on channel=3 note=74 velocity=127 time=95
note_on channel=3 note=74 velocity=127 time=53
note_on channel=3 note=74 velocity=127 time=0
note_on channel=3 note=74 velocity=127 time=0
note_on channel=3 note=74 velocity=127 time=0
note_off channel=3 note=74 velocity=127 time=256
note_off channel=3 note=74 velocity=127 time=0
note_off channel=3 note=74 velocity=127 time=0
note_off channel=3 note=74 velocity=127 time=0
note_off channel=3 note=74 velocity=127 time=0
note_on channel=3 note=69 velocity=127 time=1464
note_on channel=3 note=69 velocity=127 time=731
note_on channel=3 note=69 velocity=127 time=0
note_on channel=3 note=69 velocity=127 time=0
note_on channel=3 note=69 velocity=127 time=0
note_off channel=3 note=69 velocity=127 time=384
note_off channel=3 note=69 velocity=127 time=0
note_off channel=3 note=69 velocity=127 time=0
note_off channel=3 note=69 velocity=127 time=0
note_off channel=3 note=69 velocity=127 time=0
note_on channel=3 note=71 velocity=127 time=0
note_on channel=3 note=71 velocity=127 time=0
note_on channel=3 note=71 velocity=127 time=0
note_on channel=3 note=71 velocity=127 time=0
note_on channel=3 note=71 velocity=127 time=0
note_off channel=3 note=71 velocity=127 time=128
note_off channel=3 note=71 velocity=127 time=0
note_off channel=3 note=71 velocity=127 time=0
note_off channel=3 note=71 velocity=127 time=0
note_off channel=3 note=71 velocity=127 time=0
note_on channel=3 note=73 velocity=127 time=63
note_on channel=3 note=73 velocity=127 time=12
note_on channel=3 note=73 velocity=127 time=0
note_on channel=3 note=73 velocity=127 time=0
note_on channel=3 note=73 velocity=127 time=0
note_off channel=3 note=73 velocity=127 time=192
note_off channel=3 note=73 velocity=127 time=0
note_off channel=3 note=73 velocity=127 time=0
note_off channel=3 note=73 velocity=127 time=0
note_off channel=3 note=73 velocity=127 time=0
note_on channel=3 note=71 velocity=127 time=94
note_on channel=3 note=71 velocity=127 time=13
note_on channel=3 note=71 velocity=127 time=0
note_on channel=3 note=71 velocity=127 time=0
note_on channel=3 note=71 velocity=127 time=0
note_off channel=3 note=71 velocity=127 time=128
note_off channel=3 note=71 velocity=127 time=0
note_off channel=3 note=71 velocity=127 time=0
note_off channel=3 note=71 velocity=127 time=0
note_off channel=3 note=71 velocity=127 time=0
note_on channel=3 note=73 velocity=127 time=157
note_on channel=3 note=73 velocity=127 time=95
note_on channel=3 note=73 velocity=127 time=0
note_on channel=3 note=73 velocity=127 time=0
note_on channel=3 note=73 velocity=127 time=0
note_off channel=3 note=73 velocity=127 time=128
note_off channel=3 note=73 velocity=127 time=0
note_off channel=3 note=73 velocity=127 time=0
note_off channel=3 note=73 velocity=127 time=0
note_off channel=3 note=73 velocity=127 time=0
note_on channel=3 note=69 velocity=127 time=252
note_on channel=3 note=69 velocity=127 time=115
note_on channel=3 note=69 velocity=127 time=0
note_on channel=3 note=69 velocity=127 time=0
note_on channel=3 note=69 velocity=127 time=0
note_off channel=3 note=69 velocity=127 time=384
note_off channel=3 note=69 velocity=127 time=0
note_off channel=3 note=69 velocity=127 time=0
note_off channel=3 note=69 velocity=127 time=0
note_off channel=3 note=69 velocity=127 time=0
note_on channel=3 note=71 velocity=127 time=0
note_on channel=3 note=71 velocity=127 time=0
note_on channel=3 note=71 velocity=127 time=0
note_on channel=3 note=71 velocity=127 time=0
note_on channel=3 note=71 velocity=127 time=0
note_off channel=3 note=71 velocity=127 time=128
note_off channel=3 note=71 velocity=127 time=0
note_off channel=3 note=71 velocity=127 time=0
note_off channel=3 note=71 velocity=127 time=0
note_off channel=3 note=71 velocity=127 time=0
note_on channel=3 note=73 velocity=127 time=62
note_on channel=3 note=73 velocity=127 time=19
note_on channel=3 note=73 velocity=127 time=0
note_on channel=3 note=73 velocity=127 time=0
note_on channel=3 note=73 velocity=127 time=0
note_off channel=3 note=73 velocity=127 time=192
note_off channel=3 note=73 velocity=127 time=0
note_off channel=3 note=73 velocity=127 time=0
note_off channel=3 note=73 velocity=127 time=0
note_off channel=3 note=73 velocity=127 time=0
note_on channel=3 note=71 velocity=127 time=94
note_on channel=3 note=71 velocity=127 time=0
note_on channel=3 note=71 velocity=127 time=0
note_on channel=3 note=71 velocity=127 time=0
note_on channel=3 note=71 velocity=127 time=0
note_off channel=3 note=71 velocity=127 time=128
note_off channel=3 note=71 velocity=127 time=0
note_off channel=3 note=71 velocity=127 time=0
note_off channel=3 note=71 velocity=127 time=0
note_off channel=3 note=71 velocity=127 time=0
note_on channel=3 note=73 velocity=127 time=63
note_on channel=3 note=73 velocity=127 time=126
note_on channel=3 note=73 velocity=127 time=0
note_on channel=3 note=73 velocity=127 time=0
note_on channel=3 note=73 velocity=127 time=0
note_off channel=3 note=73 velocity=127 time=64
note_off channel=3 note=73 velocity=127 time=0
note_off channel=3 note=73 velocity=127 time=0
note_off channel=3 note=73 velocity=127 time=0
note_off channel=3 note=73 velocity=127 time=0
note_on channel=3 note=73 velocity=127 time=31
note_on channel=3 note=73 velocity=127 time=33
note_on channel=3 note=73 velocity=127 time=0
note_on channel=3 note=73 velocity=127 time=0
note_on channel=3 note=73 velocity=127 time=0
note_off channel=3 note=73 velocity=127 time=128
note_off channel=3 note=73 velocity=127 time=0
note_off channel=3 note=73 velocity=127 time=0
note_off channel=3 note=73 velocity=127 time=0
note_off channel=3 note=73 velocity=127 time=0
note_on channel=3 note=74 velocity=127 time=62
note_on channel=3 note=74 velocity=127 time=65
note_on channel=3 note=74 velocity=127 time=0
note_on channel=3 note=74 velocity=127 time=0
note_on channel=3 note=74 velocity=127 time=0
note_off channel=3 note=74 velocity=127 time=64
note_off channel=3 note=74 velocity=127 time=0
note_off channel=3 note=74 velocity=127 time=0
note_off channel=3 note=74 velocity=127 time=0
note_off channel=3 note=74 velocity=127 time=0
note_on channel=3 note=74 velocity=127 time=31
note_on channel=3 note=74 velocity=127 time=30
note_on channel=3 note=74 velocity=127 time=0
note_on channel=3 note=74 velocity=127 time=0
note_on channel=3 note=74 velocity=127 time=0
note_off channel=3 note=74 velocity=127 time=128
note_off channel=3 note=74 velocity=127 time=0
note_off channel=3 note=74 velocity=127 time=0
note_off channel=3 note=74 velocity=127 time=0
note_off channel=3 note=74 velocity=127 time=0
note_on channel=3 note=74 velocity=127 time=62
note_on channel=3 note=74 velocity=127 time=47
note_on channel=3 note=74 velocity=127 time=0
note_on channel=3 note=74 velocity=127 time=0
note_on channel=3 note=74 velocity=127 time=0
note_off channel=3 note=74 velocity=127 time=256
note_off channel=3 note=74 velocity=127 time=0
note_off channel=3 note=74 velocity=127 time=0
note_off channel=3 note=74 velocity=127 time=0
note_off channel=3 note=74 velocity=127 time=0
note_on channel=3 note=74 velocity=127 time=690
note_on channel=3 note=74 velocity=127 time=740
note_on channel=3 note=74 velocity=127 time=0
note_on channel=3 note=74 velocity=127 time=0
note_on channel=3 note=74 velocity=127 time=0
note_off channel=3 note=74 velocity=127 time=64
note_off channel=3 note=74 velocity=127 time=0
note_off channel=3 note=74 velocity=127 time=0
note_off channel=3 note=74 velocity=127 time=0
note_off channel=3 note=74 velocity=127 time=0
note_on channel=3 note=74 velocity=127 time=32
note_on channel=3 note=74 velocity=127 time=11
note_on channel=3 note=74 velocity=127 time=0
note_on channel=3 note=74 velocity=127 time=0
note_on channel=3 note=74 velocity=127 time=0
note_off channel=3 note=74 velocity=127 time=128
note_off channel=3 note=74 velocity=127 time=0
note_off channel=3 note=74 velocity=127 time=0
note_off channel=3 note=74 velocity=127 time=0
note_off channel=3 note=74 velocity=127 time=0
note_on channel=3 note=76 velocity=127 time=13411
note_off channel=3 note=76 velocity=127 time=64
note_on channel=3 note=76 velocity=127 time=1125
note_off channel=3 note=76 velocity=127 time=192
note_on channel=3 note=69 velocity=127 time=280
note_on channel=3 note=71 velocity=127 time=315
note_off channel=3 note=71 velocity=127 time=128
note_on channel=3 note=75 velocity=127 time=217
note_off channel=3 note=69 velocity=127 time=192
note_off channel=3 note=75 velocity=127 time=0
note_on channel=3 note=71 velocity=127 time=90
note_off channel=3 note=71 velocity=127 time=192
note_on channel=3 note=75 velocity=127 time=153
note_off channel=3 note=75 velocity=127 time=128
note_on channel=3 note=69 velocity=127 time=394
note_on channel=3 note=71 velocity=127 time=1017
note_off channel=3 note=71 velocity=127 time=128
note_on channel=3 note=75 velocity=127 time=648
note_off channel=3 note=69 velocity=127 time=192
note_off channel=3 note=75 velocity=127 time=0
note_on channel=3 note=71 velocity=127 time=136
note_off channel=3 note=71 velocity=127 time=192
note_on channel=3 note=75 velocity=127 time=164
note_off channel=3 note=75 velocity=127 time=128
note_on channel=3 note=79 velocity=127 time=355
note_on channel=3 note=76 velocity=127 time=789
note_off channel=3 note=76 velocity=127 time=128
note_on channel=3 note=76 velocity=127 time=231
note_off channel=3 note=79 velocity=127 time=192
note_off channel=3 note=76 velocity=127 time=0
note_on channel=3 note=76 velocity=127 time=71
note_off channel=3 note=76 velocity=127 time=192
note_on channel=3 note=76 velocity=127 time=42
note_off channel=3 note=76 velocity=127 time=128
note_on channel=3 note=79 velocity=127 time=201
note_on channel=3 note=76 velocity=127 time=438
note_off channel=3 note=76 velocity=127 time=128
note_on channel=3 note=76 velocity=127 time=786
note_off channel=3 note=79 velocity=127 time=192
note_off channel=3 note=76 velocity=127 time=0
note_on channel=3 note=76 velocity=127 time=219
note_off channel=3 note=76 velocity=127 time=192
note_on channel=3 note=76 velocity=127 time=224
note_off channel=3 note=76 velocity=127 time=128
note_on channel=3 note=69 velocity=127 time=293
note_on channel=3 note=71 velocity=127 time=28
note_off channel=3 note=71 velocity=127 time=128
note_on channel=3 note=75 velocity=127 time=707
note_off channel=3 note=69 velocity=127 time=192
note_off channel=3 note=75 velocity=127 time=0
note_on channel=3 note=71 velocity=127 time=21
note_off channel=3 note=71 velocity=127 time=192
note_on channel=3 note=75 velocity=127 time=114
note_off channel=3 note=75 velocity=127 time=128
<meta message end_of_track time=0>
<meta message track_name name='work track' time=0>
control_change channel=1 control=0 value=0 time=0
program_change channel=1 program=29 time=0
control_change channel=1 control=10 value=31 time=0
control_change channel=1 control=91 value=15 time=0
control_change channel=1 control=93 value=80 time=0
<meta message key_signature key='E' time=0>
<meta message end_of_track time=0>
<meta message track_name name='lead_guit' time=0>
control_change channel=5 control=0 value=0 time=0
program_change channel=5 program=29 time=0
control_change channel=5 control=10 value=21 time=0
control_change channel=5 control=91 value=31 time=0
control_change channel=5 control=93 value=118 time=0
<meta message key_signature key='E' time=0>
note_on channel=5 note=52 velocity=100 time=61333
note_on channel=5 note=52 velocity=100 time=3740
note_on channel=5 note=52 velocity=100 time=0
note_off channel=5 note=52 velocity=100 time=128
note_off channel=5 note=52 velocity=100 time=0
note_off channel=5 note=52 velocity=100 time=0
note_on channel=5 note=64 velocity=100 time=64
note_on channel=5 note=64 velocity=100 time=81
note_on channel=5 note=64 velocity=100 time=0
note_off channel=5 note=64 velocity=100 time=384
note_off channel=5 note=64 velocity=100 time=0
note_off channel=5 note=64 velocity=100 time=0
note_on channel=5 note=62 velocity=100 time=195
note_on channel=5 note=62 velocity=100 time=326
note_on channel=5 note=62 velocity=100 time=0
note_off channel=5 note=62 velocity=100 time=128
note_off channel=5 note=62 velocity=100 time=0
note_off channel=5 note=62 velocity=100 time=0
note_on channel=5 note=62 velocity=100 time=64
note_on channel=5 note=62 velocity=100 time=117
note_on channel=5 note=62 velocity=100 time=0
note_off channel=5 note=62 velocity=100 time=384
note_off channel=5 note=62 velocity=100 time=0
note_off channel=5 note=62 velocity=100 time=0
note_on channel=5 note=61 velocity=100 time=196
note_on channel=5 note=61 velocity=100 time=324
note_on channel=5 note=61 velocity=100 time=0
note_off channel=5 note=61 velocity=100 time=128
note_off channel=5 note=61 velocity=100 time=0
note_off channel=5 note=61 velocity=100 time=0
note_on channel=5 note=61 velocity=100 time=65
note_on channel=5 note=61 velocity=100 time=83
note_on channel=5 note=61 velocity=100 time=0
note_off channel=5 note=61 velocity=100 time=384
note_off channel=5 note=61 velocity=100 time=0
note_off channel=5 note=61 velocity=100 time=0
note_on channel=5 note=59 velocity=100 time=197
note_on channel=5 note=59 velocity=100 time=149
note_on channel=5 note=59 velocity=100 time=0
note_off channel=5 note=59 velocity=100 time=128
note_off channel=5 note=59 velocity=100 time=0
note_off channel=5 note=59 velocity=100 time=0
note_on channel=5 note=67 velocity=100 time=66
note_on channel=5 note=67 velocity=100 time=15
note_on channel=5 note=67 velocity=100 time=0
note_off channel=5 note=67 velocity=100 time=64
note_off channel=5 note=67 velocity=100 time=0
note_off channel=5 note=67 velocity=100 time=0
note_on channel=5 note=69 velocity=100 time=32
note_on channel=5 note=69 velocity=100 time=2
note_on channel=5 note=69 velocity=100 time=0
note_off channel=5 note=69 velocity=100 time=64
note_off channel=5 note=69 velocity=100 time=0
note_off channel=5 note=69 velocity=100 time=0
note_on channel=5 note=70 velocity=100 time=33
note_on channel=5 note=70 velocity=100 time=0
note_on channel=5 note=70 velocity=100 time=0
note_off channel=5 note=70 velocity=100 time=40
note_off channel=5 note=70 velocity=100 time=0
note_off channel=5 note=70 velocity=100 time=0
note_on channel=5 note=69 velocity=100 time=24
note_on channel=5 note=69 velocity=100 time=0
note_on channel=5 note=69 velocity=100 time=0
note_off channel=5 note=69 velocity=100 time=40
note_off channel=5 note=69 velocity=100 time=0
note_off channel=5 note=69 velocity=100 time=0
note_on channel=5 note=67 velocity=100 time=24
note_on channel=5 note=67 velocity=100 time=1
note_on channel=5 note=67 velocity=100 time=0
note_off channel=5 note=67 velocity=100 time=40
note_off channel=5 note=67 velocity=100 time=0
note_off channel=5 note=67 velocity=100 time=0
note_on channel=5 note=69 velocity=100 time=25
note_on channel=5 note=69 velocity=100 time=1
note_on channel=5 note=69 velocity=100 time=0
note_off channel=5 note=69 velocity=100 time=64
note_off channel=5 note=69 velocity=100 time=0
note_off channel=5 note=69 velocity=100 time=0
note_on channel=5 note=64 velocity=100 time=32
note_on channel=5 note=64 velocity=100 time=1
note_on channel=5 note=64 velocity=100 time=0
note_off channel=5 note=64 velocity=100 time=64
note_off channel=5 note=64 velocity=100 time=0
note_off channel=5 note=64 velocity=100 time=0
note_on channel=5 note=52 velocity=100 time=32
note_on channel=5 note=52 velocity=100 time=0
note_on channel=5 note=52 velocity=100 time=0
note_off channel=5 note=52 velocity=100 time=128
note_off channel=5 note=52 velocity=100 time=0
note_off channel=5 note=52 velocity=100 time=0
note_on channel=5 note=64 velocity=100 time=66
note_on channel=5 note=64 velocity=100 time=8
note_on channel=5 note=64 velocity=100 time=0
note_off channel=5 note=64 velocity=100 time=384
note_off channel=5 note=64 velocity=100 time=0
note_off channel=5 note=64 velocity=100 time=0
note_on channel=5 note=62 velocity=100 time=198
note_on channel=5 note=62 velocity=100 time=170
note_on channel=5 note=62 velocity=100 time=0
note_off channel=5 note=62 velocity=100 time=128
note_off channel=5 note=62 velocity=100 time=0
note_off channel=5 note=62 velocity=100 time=0
note_on channel=5 note=62 velocity=100 time=66
note_on channel=5 note=62 velocity=100 time=121
note_on channel=5 note=62 velocity=100 time=0
note_off channel=5 note=62 velocity=100 time=384
note_off channel=5 note=62 velocity=100 time=0
note_off channel=5 note=62 velocity=100 time=0
note_on channel=5 note=61 velocity=100 time=199
note_on channel=5 note=61 velocity=100 time=549
note_on channel=5 note=61 velocity=100 time=0
note_off channel=5 note=61 velocity=100 time=128
note_off channel=5 note=61 velocity=100 time=0
note_off channel=5 note=61 velocity=100 time=0
note_on channel=5 note=61 velocity=100 time=67
note_on channel=5 note=61 velocity=100 time=227
note_on channel=5 note=61 velocity=100 time=0
note_off channel=5 note=61 velocity=100 time=384
note_off channel=5 note=61 velocity=100 time=0
note_off channel=5 note=61 velocity=100 time=0
note_on channel=5 note=74 velocity=100 time=403
note_on channel=5 note=74 velocity=100 time=859
note_on channel=5 note=74 velocity=100 time=0
note_off channel=5 note=74 velocity=100 time=128
note_off channel=5 note=74 velocity=100 time=0
note_off channel=5 note=74 velocity=100 time=0
note_on channel=5 note=74 velocity=100 time=272
note_on channel=5 note=74 velocity=100 time=408
note_on channel=5 note=74 velocity=100 time=0
note_off channel=5 note=74 velocity=100 time=128
note_off channel=5 note=74 velocity=100 time=0
note_off channel=5 note=74 velocity=100 time=0
note_on channel=5 note=76 velocity=100 time=67
note_on channel=5 note=76 velocity=100 time=187
note_on channel=5 note=76 velocity=100 time=0
note_off channel=5 note=76 velocity=100 time=512
note_off channel=5 note=76 velocity=100 time=0
note_off channel=5 note=76 velocity=100 time=0
note_on channel=5 note=76 velocity=100 time=270
note_on channel=5 note=76 velocity=100 time=707
note_on channel=5 note=76 velocity=100 time=0
note_off channel=5 note=76 velocity=100 time=64
note_off channel=5 note=76 velocity=100 time=0
note_off channel=5 note=76 velocity=100 time=0
note_on channel=5 note=79 velocity=100 time=33
note_on channel=5 note=79 velocity=100 time=57
note_on channel=5 note=79 velocity=100 time=0
note_off channel=5 note=79 velocity=100 time=64
note_off channel=5 note=79 velocity=100 time=0
note_off channel=5 note=79 velocity=100 time=0
note_on channel=5 note=76 velocity=100 time=33
note_on channel=5 note=76 velocity=100 time=48
note_on channel=5 note=76 velocity=100 time=0
note_off channel=5 note=76 velocity=100 time=64
note_off channel=5 note=76 velocity=100 time=0
note_off channel=5 note=76 velocity=100 time=0
note_on channel=5 note=76 velocity=100 time=133
note_on channel=5 note=76 velocity=100 time=83
note_on channel=5 note=76 velocity=100 time=0
note_off channel=5 note=76 velocity=100 time=256
note_off channel=5 note=76 velocity=100 time=0
note_off channel=5 note=76 velocity=100 time=0
note_on channel=5 note=76 velocity=100 time=132
note_on channel=5 note=76 velocity=100 time=86
note_on channel=5 note=76 velocity=100 time=0
note_off channel=5 note=76 velocity=100 time=64
note_off channel=5 note=76 velocity=100 time=0
note_off channel=5 note=76 velocity=100 time=0
note_on channel=5 note=79 velocity=100 time=33
note_on channel=5 note=79 velocity=100 time=42
note_on channel=5 note=79 velocity=100 time=0
note_off channel=5 note=79 velocity=100 time=64
note_off channel=5 note=79 velocity=100 time=0
note_off channel=5 note=79 velocity=100 time=0
note_on channel=5 note=81 velocity=100 time=33
note_on channel=5 note=81 velocity=100 time=48
note_on channel=5 note=81 velocity=100 time=0
note_off channel=5 note=81 velocity=100 time=32
note_off channel=5 note=81 velocity=100 time=0
note_off channel=5 note=81 velocity=100 time=0
note_on channel=5 note=82 velocity=100 time=16
note_on channel=5 note=82 velocity=100 time=26
note_on channel=5 note=82 velocity=100 time=0
note_off channel=5 note=82 velocity=100 time=32
note_off channel=5 note=82 velocity=100 time=0
note_off channel=5 note=82 velocity=100 time=0
note_on channel=5 note=81 velocity=100 time=16
note_on channel=5 note=81 velocity=100 time=26
note_on channel=5 note=81 velocity=100 time=0
note_off channel=5 note=81 velocity=100 time=32
note_off channel=5 note=81 velocity=100 time=0
note_off channel=5 note=81 velocity=100 time=0
note_on channel=5 note=80 velocity=100 time=16
note_on channel=5 note=80 velocity=100 time=27
note_on channel=5 note=80 velocity=100 time=0
note_off channel=5 note=80 velocity=100 time=32
note_off channel=5 note=80 velocity=100 time=0
note_off channel=5 note=80 velocity=100 time=0
note_on channel=5 note=81 velocity=100 time=117
note_on channel=5 note=81 velocity=100 time=209
note_on channel=5 note=81 velocity=100 time=0
note_off channel=5 note=81 velocity=100 time=64
note_off channel=5 note=81 velocity=100 time=0
note_off channel=5 note=81 velocity=100 time=0
note_on channel=5 note=76 velocity=100 time=33
note_on channel=5 note=76 velocity=100 time=58
note_on channel=5 note=76 velocity=100 time=0
note_off channel=5 note=76 velocity=100 time=64
note_off channel=5 note=76 velocity=100 time=0
note_off channel=5 note=76 velocity=100 time=0
note_on channel=5 note=74 velocity=100 time=33
note_on channel=5 note=74 velocity=100 time=55
note_on channel=5 note=74 velocity=100 time=0
note_off channel=5 note=74 velocity=100 time=64
note_off channel=5 note=74 velocity=100 time=0
note_off channel=5 note=74 velocity=100 time=0
note_on channel=5 note=76 velocity=100 time=34
note_on channel=5 note=76 velocity=100 time=54
note_on channel=5 note=76 velocity=100 time=0
note_off channel=5 note=76 velocity=100 time=256
note_off channel=5 note=76 velocity=100 time=0
note_off channel=5 note=76 velocity=100 time=0
note_on channel=5 note=80 velocity=100 time=235
note_on channel=5 note=80 velocity=100 time=311
note_on channel=5 note=80 velocity=100 time=0
note_off channel=5 note=80 velocity=100 time=64
note_off channel=5 note=80 velocity=100 time=0
note_off channel=5 note=80 velocity=100 time=0
note_on channel=5 note=76 velocity=100 time=34
note_on channel=5 note=76 velocity=100 time=39
note_on channel=5 note=76 velocity=100 time=0
note_off channel=5 note=76 velocity=100 time=64
note_off channel=5 note=76 velocity=100 time=0
note_off channel=5 note=76 velocity=100 time=0
note_on channel=5 note=80 velocity=100 time=33
note_on channel=5 note=80 velocity=100 time=39
note_on channel=5 note=80 velocity=100 time=0
note_off channel=5 note=80 velocity=100 time=64
note_off channel=5 note=80 velocity=100 time=0
note_off channel=5 note=80 velocity=100 time=0
note_on channel=5 note=81 velocity=100 time=33
note_on channel=5 note=81 velocity=100 time=39
note_on channel=5 note=81 velocity=100 time=0
note_off channel=5 note=81 velocity=100 time=64
note_off channel=5 note=81 velocity=100 time=0
note_off channel=5 note=81 velocity=100 time=0
note_on channel=5 note=83 velocity=100 time=34
note_on channel=5 note=83 velocity=100 time=42
note_on channel=5 note=83 velocity=100 time=0
note_off channel=5 note=83 velocity=100 time=64
note_off channel=5 note=83 velocity=100 time=0
note_off channel=5 note=83 velocity=100 time=0
note_on channel=5 note=83 velocity=100 time=33
note_on channel=5 note=87 velocity=100 time=42
note_on channel=5 note=83 velocity=100 time=0
note_on channel=5 note=87 velocity=100 time=0
note_on channel=5 note=83 velocity=100 time=0
note_on channel=5 note=87 velocity=100 time=0
note_off channel=5 note=83 velocity=100 time=64
note_off channel=5 note=87 velocity=100 time=0
note_off channel=5 note=83 velocity=100 time=0
note_off channel=5 note=87 velocity=100 time=0
note_off channel=5 note=83 velocity=100 time=0
note_off channel=5 note=87 velocity=100 time=0
note_on channel=5 note=87 velocity=100 time=33
note_on channel=5 note=83 velocity=100 time=45
note_on channel=5 note=87 velocity=100 time=0
note_on channel=5 note=83 velocity=100 time=0
note_on channel=5 note=87 velocity=100 time=0
note_on channel=5 note=83 velocity=100 time=0
note_off channel=5 note=87 velocity=100 time=384
note_off channel=5 note=83 velocity=100 time=0
note_off channel=5 note=87 velocity=100 time=0
note_off channel=5 note=83 velocity=100 time=0
note_off channel=5 note=87 velocity=100 time=0
note_off channel=5 note=83 velocity=100 time=0
note_on channel=5 note=83 velocity=100 time=101
note_on channel=5 note=87 velocity=100 time=161
note_on channel=5 note=83 velocity=100 time=0
note_on channel=5 note=87 velocity=100 time=0
note_on channel=5 note=83 velocity=100 time=0
note_on channel=5 note=87 velocity=100 time=0
note_off channel=5 note=83 velocity=100 time=32
note_off channel=5 note=87 velocity=100 time=0
note_off channel=5 note=83 velocity=100 time=0
note_off channel=5 note=87 velocity=100 time=0
note_off channel=5 note=83 velocity=100 time=0
note_off channel=5 note=87 velocity=100 time=0
note_on channel=5 note=87 velocity=100 time=17
note_on channel=5 note=87 velocity=100 time=32
note_on channel=5 note=87 velocity=100 time=0
note_off channel=5 note=87 velocity=100 time=32
note_off channel=5 note=87 velocity=100 time=0
note_off channel=5 note=87 velocity=100 time=0
note_on channel=5 note=81 velocity=100 time=16
note_on channel=5 note=81 velocity=100 time=32
note_on channel=5 note=81 velocity=100 time=0
note_off channel=5 note=81 velocity=100 time=32
note_off channel=5 note=81 velocity=100 time=0
note_off channel=5 note=81 velocity=100 time=0
note_on channel=5 note=83 velocity=100 time=16
note_on channel=5 note=83 velocity=100 time=34
note_on channel=5 note=83 velocity=100 time=0
note_off channel=5 note=83 velocity=100 time=32
note_off channel=5 note=83 velocity=100 time=0
note_off channel=5 note=83 velocity=100 time=0
note_on channel=5 note=80 velocity=100 time=732
note_on channel=5 note=75 velocity=100 time=1127
note_on channel=5 note=80 velocity=100 time=0
note_on channel=5 note=75 velocity=100 time=0
note_on channel=5 note=80 velocity=100 time=0
note_on channel=5 note=75 velocity=100 time=0
note_off channel=5 note=80 velocity=100 time=128
note_off channel=5 note=75 velocity=100 time=0
note_off channel=5 note=80 velocity=100 time=0
note_off channel=5 note=75 velocity=100 time=0
note_off channel=5 note=80 velocity=100 time=0
note_off channel=5 note=75 velocity=100 time=0
note_on channel=5 note=76 velocity=100 time=68
note_on channel=5 note=76 velocity=100 time=114
note_on channel=5 note=76 velocity=100 time=0
note_off channel=5 note=76 velocity=100 time=64
note_off channel=5 note=76 velocity=100 time=0
note_off channel=5 note=76 velocity=100 time=0
note_on channel=5 note=80 velocity=100 time=35
note_on channel=5 note=80 velocity=100 time=76
note_on channel=5 note=80 velocity=100 time=0
note_off channel=5 note=80 velocity=100 time=64
note_off channel=5 note=80 velocity=100 time=0
note_off channel=5 note=80 velocity=100 time=0
note_on channel=5 note=76 velocity=100 time=34
note_on channel=5 note=76 velocity=100 time=84
note_on channel=5 note=76 velocity=100 time=0
note_off channel=5 note=76 velocity=100 time=64
note_off channel=5 note=76 velocity=100 time=0
note_off channel=5 note=76 velocity=100 time=0
note_on channel=5 note=81 velocity=100 time=34
note_on channel=5 note=81 velocity=100 time=97
note_on channel=5 note=81 velocity=100 time=0
note_off channel=5 note=81 velocity=100 time=64
note_off channel=5 note=81 velocity=100 time=0
note_off channel=5 note=81 velocity=100 time=0
note_on channel=5 note=80 velocity=100 time=34
note_on channel=5 note=80 velocity=100 time=103
note_on channel=5 note=80 velocity=100 time=0
note_off channel=5 note=80 velocity=100 time=64
note_off channel=5 note=80 velocity=100 time=0
note_off channel=5 note=80 velocity=100 time=0
note_on channel=5 note=81 velocity=100 time=34
note_on channel=5 note=81 velocity=100 time=111
note_on channel=5 note=81 velocity=100 time=0
note_off channel=5 note=81 velocity=100 time=64
note_off channel=5 note=81 velocity=100 time=0
note_off channel=5 note=81 velocity=100 time=0
note_on channel=5 note=83 velocity=100 time=34
note_on channel=5 note=83 velocity=100 time=121
note_on channel=5 note=83 velocity=100 time=0
note_off channel=5 note=83 velocity=100 time=64
note_off channel=5 note=83 velocity=100 time=0
note_off channel=5 note=83 velocity=100 time=0
note_on channel=5 note=86 velocity=100 time=34
note_on channel=5 note=86 velocity=100 time=127
note_on channel=5 note=86 velocity=100 time=0
note_off channel=5 note=86 velocity=100 time=64
note_off channel=5 note=86 velocity=100 time=0
note_off channel=5 note=86 velocity=100 time=0
note_on channel=5 note=83 velocity=100 time=33
note_on channel=5 note=83 velocity=100 time=130
note_on channel=5 note=83 velocity=100 time=0
note_off channel=5 note=83 velocity=100 time=384
note_off channel=5 note=83 velocity=100 time=0
note_off channel=5 note=83 velocity=100 time=0
note_on channel=5 note=83 velocity=100 time=205
note_on channel=5 note=83 velocity=100 time=807
note_on channel=5 note=83 velocity=100 time=0
note_off channel=5 note=83 velocity=100 time=64
note_off channel=5 note=83 velocity=100 time=0
note_off channel=5 note=83 velocity=100 time=0
note_on channel=5 note=88 velocity=100 time=33
note_on channel=5 note=88 velocity=100 time=124
note_on channel=5 note=88 velocity=100 time=0
note_off channel=5 note=88 velocity=100 time=64
note_off channel=5 note=88 velocity=100 time=0
note_off channel=5 note=88 velocity=100 time=0
note_on channel=5 note=88 velocity=100 time=33
note_on channel=5 note=88 velocity=100 time=120
note_on channel=5 note=88 velocity=100 time=0
note_off channel=5 note=88 velocity=100 time=64
note_off channel=5 note=88 velocity=100 time=0
note_off channel=5 note=88 velocity=100 time=0
note_on channel=5 note=88 velocity=100 time=34
note_on channel=5 note=88 velocity=100 time=117
note_on channel=5 note=88 velocity=100 time=0
note_off channel=5 note=88 velocity=100 time=64
note_off channel=5 note=88 velocity=100 time=0
note_off channel=5 note=88 velocity=100 time=0
note_on channel=5 note=88 velocity=100 time=33
note_on channel=5 note=88 velocity=100 time=109
note_on channel=5 note=88 velocity=100 time=0
note_off channel=5 note=88 velocity=100 time=128
note_off channel=5 note=88 velocity=100 time=0
note_off channel=5 note=88 velocity=100 time=0
note_on channel=5 note=88 velocity=100 time=67
note_on channel=5 note=88 velocity=100 time=205
note_on channel=5 note=88 velocity=100 time=0
note_off channel=5 note=88 velocity=100 time=64
note_off channel=5 note=88 velocity=100 time=0
note_off channel=5 note=88 velocity=100 time=0
note_on channel=5 note=88 velocity=100 time=33
note_on channel=5 note=88 velocity=100 time=92
note_on channel=5 note=88 velocity=100 time=0
note_off channel=5 note=88 velocity=100 time=128
note_off channel=5 note=88 velocity=100 time=0
note_off channel=5 note=88 velocity=100 time=0
note_on channel=5 note=88 velocity=100 time=66
note_on channel=5 note=88 velocity=100 time=173
note_on channel=5 note=88 velocity=100 time=0
note_off channel=5 note=88 velocity=100 time=40
note_off channel=5 note=88 velocity=100 time=0
note_off channel=5 note=88 velocity=100 time=0
note_on channel=5 note=87 velocity=100 time=24
note_on channel=5 note=87 velocity=100 time=59
note_on channel=5 note=87 velocity=100 time=0
note_off channel=5 note=87 velocity=100 time=40
note_off channel=5 note=87 velocity=100 time=0
note_off channel=5 note=87 velocity=100 time=0
note_on channel=5 note=83 velocity=100 time=24
note_on channel=5 note=83 velocity=100 time=56
note_on channel=5 note=83 velocity=100 time=0
note_off channel=5 note=83 velocity=100 time=40
note_off channel=5 note=83 velocity=100 time=0
note_off channel=5 note=83 velocity=100 time=0
note_on channel=5 note=81 velocity=100 time=25
note_on channel=5 note=81 velocity=100 time=54
note_on channel=5 note=81 velocity=100 time=0
note_off channel=5 note=81 velocity=100 time=40
note_off channel=5 note=81 velocity=100 time=0
note_off channel=5 note=81 velocity=100 time=0
note_on channel=5 note=83 velocity=100 time=24
note_on channel=5 note=83 velocity=100 time=48
note_on channel=5 note=83 velocity=100 time=0
note_off channel=5 note=83 velocity=100 time=40
note_off channel=5 note=83 velocity=100 time=0
note_off channel=5 note=83 velocity=100 time=0
note_on channel=5 note=79 velocity=100 time=24
note_on channel=5 note=79 velocity=100 time=46
note_on channel=5 note=79 velocity=100 time=0
note_off channel=5 note=79 velocity=100 time=40
note_off channel=5 note=79 velocity=100 time=0
note_off channel=5 note=79 velocity=100 time=0
note_on channel=5 note=83 velocity=100 time=24
note_on channel=5 note=83 velocity=100 time=41
note_on channel=5 note=83 velocity=100 time=0
note_off channel=5 note=83 velocity=100 time=128
note_off channel=5 note=83 velocity=100 time=0
note_off channel=5 note=83 velocity=100 time=0
note_on channel=5 note=87 velocity=100 time=66
note_on channel=5 note=87 velocity=100 time=88
note_on channel=5 note=87 velocity=100 time=0
note_off channel=5 note=87 velocity=100 time=64
note_off channel=5 note=87 velocity=100 time=0
note_off channel=5 note=87 velocity=100 time=0
note_on channel=5 note=83 velocity=100 time=32
note_on channel=5 note=83 velocity=100 time=30
note_on channel=5 note=83 velocity=100 time=0
note_off channel=5 note=83 velocity=100 time=128
note_off channel=5 note=83 velocity=100 time=0
note_off channel=5 note=83 velocity=100 time=0
note_on channel=5 note=83 velocity=100 time=66
note_on channel=5 note=91 velocity=100 time=31
note_on channel=5 note=83 velocity=100 time=0
note_on channel=5 note=91 velocity=100 time=0
note_on channel=5 note=83 velocity=100 time=0
note_on channel=5 note=91 velocity=100 time=0
note_off channel=5 note=83 velocity=100 time=64
note_off channel=5 note=91 velocity=100 time=0
note_off channel=5 note=83 velocity=100 time=0
note_off channel=5 note=91 velocity=100 time=0
note_off channel=5 note=83 velocity=100 time=0
note_off channel=5 note=91 velocity=100 time=0
note_on channel=5 note=83 velocity=100 time=33
note_on channel=5 note=83 velocity=100 time=0
note_on channel=5 note=83 velocity=100 time=0
note_off channel=5 note=83 velocity=100 time=40
note_off channel=5 note=83 velocity=100 time=0
note_off channel=5 note=83 velocity=100 time=0
note_on channel=5 note=81 velocity=100 time=24
note_on channel=5 note=81 velocity=100 time=5
note_on channel=5 note=81 velocity=100 time=0
note_off channel=5 note=81 velocity=100 time=40
note_off channel=5 note=81 velocity=100 time=0
note_off channel=5 note=81 velocity=100 time=0
note_on channel=5 note=79 velocity=100 time=24
note_on channel=5 note=79 velocity=100 time=10
note_on channel=5 note=79 velocity=100 time=0
note_off channel=5 note=79 velocity=100 time=40
note_off channel=5 note=79 velocity=100 time=0
note_off channel=5 note=79 velocity=100 time=0
note_on channel=5 note=81 velocity=100 time=24
note_on channel=5 note=81 velocity=100 time=15
note_on channel=5 note=81 velocity=100 time=0
note_off channel=5 note=81 velocity=100 time=64
note_off channel=5 note=81 velocity=100 time=0
note_off channel=5 note=81 velocity=100 time=0
note_on channel=5 note=76 velocity=100 time=33
note_on channel=5 note=76 velocity=100 time=27
note_on channel=5 note=76 velocity=100 time=0
note_off channel=5 note=76 velocity=100 time=64
note_off channel=5 note=76 velocity=100 time=0
note_off channel=5 note=76 velocity=100 time=0
note_on channel=5 note=81 velocity=100 time=32
note_on channel=5 note=81 velocity=100 time=33
note_on channel=5 note=81 velocity=100 time=0
note_off channel=5 note=81 velocity=100 time=384
note_off channel=5 note=81 velocity=100 time=0
note_off channel=5 note=81 velocity=100 time=0
note_on channel=5 note=74 velocity=100 time=99
note_on channel=5 note=74 velocity=100 time=131
note_on channel=5 note=74 velocity=100 time=0
note_off channel=5 note=74 velocity=100 time=64
note_off channel=5 note=74 velocity=100 time=0
note_off channel=5 note=74 velocity=100 time=0
note_on channel=5 note=75 velocity=100 time=33
note_on channel=5 note=75 velocity=100 time=50
note_on channel=5 note=75 velocity=100 time=0
note_off channel=5 note=75 velocity=100 time=64
note_off channel=5 note=75 velocity=100 time=0
note_off channel=5 note=75 velocity=100 time=0
note_on channel=5 note=76 velocity=100 time=32
note_on channel=5 note=76 velocity=100 time=51
note_on channel=5 note=76 velocity=100 time=0
note_off channel=5 note=76 velocity=100 time=64
note_off channel=5 note=76 velocity=100 time=0
note_off channel=5 note=76 velocity=100 time=0
note_on channel=5 note=79 velocity=100 time=32
note_on channel=5 note=79 velocity=100 time=53
note_on channel=5 note=79 velocity=100 time=0
note_off channel=5 note=79 velocity=100 time=64
note_off channel=5 note=79 velocity=100 time=0
note_off channel=5 note=79 velocity=100 time=0
note_on channel=5 note=76 velocity=100 time=33
note_on channel=5 note=76 velocity=100 time=53
note_on channel=5 note=76 velocity=100 time=0
note_off channel=5 note=76 velocity=100 time=64
note_off channel=5 note=76 velocity=100 time=0
note_off channel=5 note=76 velocity=100 time=0
note_on channel=5 note=81 velocity=100 time=33
note_on channel=5 note=85 velocity=100 time=53
note_on channel=5 note=81 velocity=100 time=0
note_on channel=5 note=85 velocity=100 time=0
note_on channel=5 note=81 velocity=100 time=0
note_on channel=5 note=85 velocity=100 time=0
note_off channel=5 note=81 velocity=100 time=64
note_off channel=5 note=85 velocity=100 time=0
note_off channel=5 note=81 velocity=100 time=0
note_off channel=5 note=85 velocity=100 time=0
note_off channel=5 note=81 velocity=100 time=0
note_off channel=5 note=85 velocity=100 time=0
note_on channel=5 note=76 velocity=100 time=33
note_on channel=5 note=76 velocity=100 time=51
note_on channel=5 note=76 velocity=100 time=0
note_off channel=5 note=76 velocity=100 time=64
note_off channel=5 note=76 velocity=100 time=0
note_off channel=5 note=76 velocity=100 time=0
note_on channel=5 note=79 velocity=100 time=33
note_on channel=5 note=79 velocity=100 time=52
note_on channel=5 note=79 velocity=100 time=0
note_off channel=5 note=79 velocity=100 time=64
note_off channel=5 note=79 velocity=100 time=0
note_off channel=5 note=79 velocity=100 time=0
note_on channel=5 note=81 velocity=100 time=33
note_on channel=5 note=81 velocity=100 time=48
note_on channel=5 note=81 velocity=100 time=0
note_off channel=5 note=81 velocity=100 time=64
note_off channel=5 note=81 velocity=100 time=0
note_off channel=5 note=81 velocity=100 time=0
note_on channel=5 note=83 velocity=100 time=33
note_on channel=5 note=83 velocity=100 time=47
note_on channel=5 note=83 velocity=100 time=0
note_off channel=5 note=83 velocity=100 time=64
note_off channel=5 note=83 velocity=100 time=0
note_off channel=5 note=83 velocity=100 time=0
note_on channel=5 note=86 velocity=100 time=33
note_on channel=5 note=86 velocity=100 time=45
note_on channel=5 note=86 velocity=100 time=0
note_off channel=5 note=86 velocity=100 time=64
note_off channel=5 note=86 velocity=100 time=0
note_off channel=5 note=86 velocity=100 time=0
note_on channel=5 note=83 velocity=100 time=33
note_on channel=5 note=83 velocity=100 time=43
note_on channel=5 note=83 velocity=100 time=0
note_off channel=5 note=83 velocity=100 time=32
note_off channel=5 note=83 velocity=100 time=0
note_off channel=5 note=83 velocity=100 time=0
note_on channel=5 note=81 velocity=100 time=16
note_on channel=5 note=81 velocity=100 time=20
note_on channel=5 note=81 velocity=100 time=0
note_off channel=5 note=81 velocity=100 time=32
note_off channel=5 note=81 velocity=100 time=0
note_off channel=5 note=81 velocity=100 time=0
note_on channel=5 note=80 velocity=100 time=117
note_on channel=5 note=80 velocity=100 time=133
note_on channel=5 note=80 velocity=100 time=0
note_off channel=5 note=80 velocity=100 time=64
note_off channel=5 note=80 velocity=100 time=0
note_off channel=5 note=80 velocity=100 time=0
note_on channel=5 note=81 velocity=100 time=33
note_on channel=5 note=81 velocity=100 time=34
note_on channel=5 note=81 velocity=100 time=0
note_off channel=5 note=81 velocity=100 time=64
note_off channel=5 note=81 velocity=100 time=0
note_off channel=5 note=81 velocity=100 time=0
note_on channel=5 note=76 velocity=100 time=33
note_on channel=5 note=76 velocity=100 time=34
note_on channel=5 note=76 velocity=100 time=0
note_off channel=5 note=76 velocity=100 time=192
note_off channel=5 note=76 velocity=100 time=0
note_off channel=5 note=76 velocity=100 time=0
note_on channel=5 note=88 velocity=100 time=301
note_on channel=5 note=88 velocity=100 time=425
note_on channel=5 note=88 velocity=100 time=0
note_on channel=5 note=88 velocity=100 time=236
note_on channel=5 note=88 velocity=100 time=598
note_on channel=5 note=88 velocity=100 time=0
note_off channel=5 note=88 velocity=100 time=40
note_off channel=5 note=88 velocity=100 time=0
note_off channel=5 note=88 velocity=100 time=0
note_on channel=5 note=87 velocity=100 time=93
note_on channel=5 note=87 velocity=100 time=220
note_on channel=5 note=87 velocity=100 time=0
note_off channel=5 note=88 velocity=100 time=32
note_off channel=5 note=88 velocity=100 time=0
note_off channel=5 note=88 velocity=100 time=0
note_off channel=5 note=87 velocity=100 time=8
note_off channel=5 note=87 velocity=100 time=0
note_off channel=5 note=87 velocity=100 time=0
note_on channel=5 note=83 velocity=100 time=25
note_on channel=5 note=83 velocity=100 time=49
note_on channel=5 note=83 velocity=100 time=0
note_off channel=5 note=83 velocity=100 time=40
note_off channel=5 note=83 velocity=100 time=0
note_off channel=5 note=83 velocity=100 time=0
note_on channel=5 note=81 velocity=100 time=162
note_on channel=5 note=81 velocity=100 time=155
note_on channel=5 note=81 velocity=100 time=0
note_off channel=5 note=81 velocity=100 time=40
note_off channel=5 note=81 velocity=100 time=0
note_off channel=5 note=81 velocity=100 time=0
note_on channel=5 note=83 velocity=100 time=94
note_on channel=5 note=83 velocity=100 time=50
note_on channel=5 note=83 velocity=100 time=0
note_off channel=5 note=83 velocity=100 time=40
note_off channel=5 note=83 velocity=100 time=0
note_off channel=5 note=83 velocity=100 time=0
note_on channel=5 note=79 velocity=100 time=25
note_on channel=5 note=79 velocity=100 time=29
note_on channel=5 note=79 velocity=100 time=0
note_off channel=5 note=79 velocity=100 time=40
note_off channel=5 note=79 velocity=100 time=0
note_off channel=5 note=79 velocity=100 time=0
note_on channel=5 note=76 velocity=100 time=231
note_on channel=5 note=76 velocity=100 time=442
note_on channel=5 note=76 velocity=100 time=0
note_off channel=5 note=76 velocity=100 time=256
note_off channel=5 note=76 velocity=100 time=0
note_off channel=5 note=76 velocity=100 time=0
note_on channel=5 note=71 velocity=100 time=135
note_on channel=5 note=71 velocity=100 time=288
note_on channel=5 note=71 velocity=100 time=0
note_off channel=5 note=71 velocity=100 time=64
note_off channel=5 note=71 velocity=100 time=0
note_off channel=5 note=71 velocity=100 time=0
note_on channel=5 note=76 velocity=100 time=33
note_on channel=5 note=76 velocity=100 time=64
note_on channel=5 note=76 velocity=100 time=0
note_off channel=5 note=76 velocity=100 time=64
note_off channel=5 note=76 velocity=100 time=0
note_off channel=5 note=76 velocity=100 time=0
note_on channel=5 note=74 velocity=100 time=34
note_on channel=5 note=74 velocity=100 time=63
note_on channel=5 note=74 velocity=100 time=0
note_off channel=5 note=74 velocity=100 time=64
note_off channel=5 note=74 velocity=100 time=0
note_off channel=5 note=74 velocity=100 time=0
note_on channel=5 note=71 velocity=100 time=33
note_on channel=5 note=76 velocity=100 time=58
note_on channel=5 note=71 velocity=100 time=0
note_on channel=5 note=76 velocity=100 time=0
note_on channel=5 note=71 velocity=100 time=0
note_on channel=5 note=76 velocity=100 time=0
note_off channel=5 note=71 velocity=100 time=384
note_off channel=5 note=76 velocity=100 time=0
note_off channel=5 note=71 velocity=100 time=0
note_off channel=5 note=76 velocity=100 time=0
note_off channel=5 note=71 velocity=100 time=0
note_off channel=5 note=76 velocity=100 time=0
note_on channel=5 note=76 velocity=100 time=202
note_on channel=5 note=76 velocity=100 time=291
note_on channel=5 note=76 velocity=100 time=0
note_off channel=5 note=76 velocity=100 time=128
note_off channel=5 note=76 velocity=100 time=0
note_off channel=5 note=76 velocity=100 time=0
note_on channel=5 note=74 velocity=100 time=67
note_on channel=5 note=76 velocity=100 time=80
note_on channel=5 note=74 velocity=100 time=0
note_on channel=5 note=76 velocity=100 time=0
note_on channel=5 note=74 velocity=100 time=0
note_on channel=5 note=76 velocity=100 time=0
note_off channel=5 note=74 velocity=100 time=64
note_off channel=5 note=76 velocity=100 time=0
note_off channel=5 note=74 velocity=100 time=0
note_off channel=5 note=76 velocity=100 time=0
note_off channel=5 note=74 velocity=100 time=0
note_off channel=5 note=76 velocity=100 time=0
note_on channel=5 note=74 velocity=100 time=33
note_on channel=5 note=74 velocity=100 time=38
note_on channel=5 note=74 velocity=100 time=0
note_off channel=5 note=74 velocity=100 time=256
note_off channel=5 note=74 velocity=100 time=0
note_off channel=5 note=74 velocity=100 time=0
note_on channel=5 note=76 velocity=100 time=134
note_on channel=5 note=73 velocity=100 time=146
note_on channel=5 note=76 velocity=100 time=0
note_on channel=5 note=73 velocity=100 time=0
note_on channel=5 note=76 velocity=100 time=0
note_on channel=5 note=73 velocity=100 time=0
note_off channel=5 note=73 velocity=100 time=64
note_off channel=5 note=73 velocity=100 time=0
note_off channel=5 note=73 velocity=100 time=0
note_on channel=5 note=71 velocity=100 time=33
note_on channel=5 note=71 velocity=100 time=35
note_on channel=5 note=71 velocity=100 time=0
note_off channel=5 note=76 velocity=100 time=32
note_off channel=5 note=76 velocity=100 time=0
note_off channel=5 note=76 velocity=100 time=0
note_off channel=5 note=71 velocity=100 time=32
note_off channel=5 note=71 velocity=100 time=0
note_off channel=5 note=71 velocity=100 time=0
note_on channel=5 note=73 velocity=100 time=33
note_on channel=5 note=76 velocity=100 time=35
note_on channel=5 note=73 velocity=100 time=0
note_on channel=5 note=76 velocity=100 time=0
note_on channel=5 note=73 velocity=100 time=0
note_on channel=5 note=76 velocity=100 time=0
note_off channel=5 note=73 velocity=100 time=64
note_off channel=5 note=76 velocity=100 time=0
note_off channel=5 note=73 velocity=100 time=0
note_off channel=5 note=76 velocity=100 time=0
note_off channel=5 note=73 velocity=100 time=0
note_off channel=5 note=76 velocity=100 time=0
note_on channel=5 note=76 velocity=100 time=33
note_on channel=5 note=73 velocity=100 time=33
note_on channel=5 note=76 velocity=100 time=0
note_on channel=5 note=73 velocity=100 time=0
note_on channel=5 note=76 velocity=100 time=0
note_on channel=5 note=73 velocity=100 time=0
note_off channel=5 note=76 velocity=100 time=256
note_off channel=5 note=73 velocity=100 time=0
note_off channel=5 note=76 velocity=100 time=0
note_off channel=5 note=73 velocity=100 time=0
note_off channel=5 note=76 velocity=100 time=0
note_off channel=5 note=73 velocity=100 time=0
note_on channel=5 note=83 velocity=100 time=133
note_on channel=5 note=83 velocity=100 time=118
note_on channel=5 note=83 velocity=100 time=0
note_off channel=5 note=83 velocity=100 time=128
note_off channel=5 note=83 velocity=100 time=0
note_off channel=5 note=83 velocity=100 time=0
note_on channel=5 note=83 velocity=100 time=66
note_on channel=5 note=83 velocity=100 time=44
note_on channel=5 note=83 velocity=100 time=0
note_off channel=5 note=83 velocity=100 time=64
note_off channel=5 note=83 velocity=100 time=0
note_off channel=5 note=83 velocity=100 time=0
note_on channel=5 note=88 velocity=100 time=33
note_on channel=5 note=88 velocity=100 time=16
note_on channel=5 note=88 velocity=100 time=0
note_off channel=5 note=88 velocity=100 time=64
note_off channel=5 note=88 velocity=100 time=0
note_off channel=5 note=88 velocity=100 time=0
note_on channel=5 note=88 velocity=100 time=33
note_on channel=5 note=88 velocity=100 time=12
note_on channel=5 note=88 velocity=100 time=0
note_off channel=5 note=88 velocity=100 time=192
note_off channel=5 note=88 velocity=100 time=0
note_off channel=5 note=88 velocity=100 time=0
note_on channel=5 note=80 velocity=100 time=99
note_on channel=5 note=80 velocity=100 time=9
note_on channel=5 note=80 velocity=100 time=0
note_off channel=5 note=80 velocity=100 time=128
note_off channel=5 note=80 velocity=100 time=0
note_off channel=5 note=80 velocity=100 time=0
note_on channel=5 note=76 velocity=100 time=66
note_on channel=5 note=76 velocity=100 time=16
note_on channel=5 note=76 velocity=100 time=0
note_off channel=5 note=76 velocity=100 time=64
note_off channel=5 note=76 velocity=100 time=0
note_off channel=5 note=76 velocity=100 time=0
note_on channel=5 note=74 velocity=100 time=33
note_on channel=5 note=74 velocity=100 time=15
note_on channel=5 note=74 velocity=100 time=0
note_off channel=5 note=74 velocity=100 time=64
note_off channel=5 note=74 velocity=100 time=0
note_off channel=5 note=74 velocity=100 time=0
note_on channel=5 note=74 velocity=100 time=33
note_on channel=5 note=74 velocity=100 time=20
note_on channel=5 note=74 velocity=100 time=0
note_off channel=5 note=74 velocity=100 time=64
note_off channel=5 note=74 velocity=100 time=0
note_off channel=5 note=74 velocity=100 time=0
note_on channel=5 note=76 velocity=100 time=33
note_on channel=5 note=76 velocity=100 time=25
note_on channel=5 note=76 velocity=100 time=0
note_off channel=5 note=76 velocity=100 time=256
note_off channel=5 note=76 velocity=100 time=0
note_off channel=5 note=76 velocity=100 time=0
note_on channel=5 note=76 velocity=100 time=133
note_on channel=5 note=76 velocity=100 time=157
note_on channel=5 note=76 velocity=100 time=0
note_off channel=5 note=76 velocity=100 time=64
note_off channel=5 note=76 velocity=100 time=0
note_off channel=5 note=76 velocity=100 time=0
note_on channel=5 note=71 velocity=100 time=33
note_on channel=5 note=71 velocity=100 time=56
note_on channel=5 note=71 velocity=100 time=0
note_off channel=5 note=71 velocity=100 time=64
note_off channel=5 note=71 velocity=100 time=0
note_off channel=5 note=71 velocity=100 time=0
note_on channel=5 note=73 velocity=100 time=33
note_on channel=5 note=73 velocity=100 time=62
note_on channel=5 note=73 velocity=100 time=0
note_off channel=5 note=73 velocity=100 time=64
note_off channel=5 note=73 velocity=100 time=0
note_off channel=5 note=73 velocity=100 time=0
note_on channel=5 note=76 velocity=100 time=33
note_on channel=5 note=74 velocity=100 time=70
note_on channel=5 note=76 velocity=100 time=0
note_on channel=5 note=74 velocity=100 time=0
note_on channel=5 note=76 velocity=100 time=0
note_on channel=5 note=74 velocity=100 time=0
note_off channel=5 note=76 velocity=100 time=384
note_off channel=5 note=74 velocity=100 time=0
note_off channel=5 note=76 velocity=100 time=0
note_off channel=5 note=74 velocity=100 time=0
note_off channel=5 note=76 velocity=100 time=0
note_off channel=5 note=74 velocity=100 time=0
note_on channel=5 note=76 velocity=100 time=201
note_on channel=5 note=73 velocity=100 time=615
note_on channel=5 note=76 velocity=100 time=0
note_on channel=5 note=73 velocity=100 time=0
note_on channel=5 note=76 velocity=100 time=0
note_on channel=5 note=73 velocity=100 time=0
note_off channel=5 note=76 velocity=100 time=64
note_off channel=5 note=73 velocity=100 time=0
note_off channel=5 note=76 velocity=100 time=0
note_off channel=5 note=73 velocity=100 time=0
note_off channel=5 note=76 velocity=100 time=0
note_off channel=5 note=73 velocity=100 time=0
note_on channel=5 note=71 velocity=100 time=34
note_on channel=5 note=71 velocity=100 time=136
note_on channel=5 note=71 velocity=100 time=0
note_off channel=5 note=71 velocity=100 time=64
note_off channel=5 note=71 velocity=100 time=0
note_off channel=5 note=71 velocity=100 time=0
note_on channel=5 note=71 velocity=100 time=33
note_on channel=5 note=71 velocity=100 time=143
note_on channel=5 note=71 velocity=100 time=0
note_off channel=5 note=71 velocity=100 time=64
note_off channel=5 note=71 velocity=100 time=0
note_off channel=5 note=71 velocity=100 time=0
note_on channel=5 note=73 velocity=100 time=33
note_on channel=5 note=76 velocity=100 time=147
note_on channel=5 note=73 velocity=100 time=0
note_on channel=5 note=76 velocity=100 time=0
note_on channel=5 note=73 velocity=100 time=0
note_on channel=5 note=76 velocity=100 time=0
note_off channel=5 note=73 velocity=100 time=256
note_off channel=5 note=76 velocity=100 time=0
note_off channel=5 note=73 velocity=100 time=0
note_off channel=5 note=76 velocity=100 time=0
note_off channel=5 note=73 velocity=100 time=0
note_off channel=5 note=76 velocity=100 time=0
note_on channel=5 note=82 velocity=100 time=340
note_on channel=5 note=86 velocity=100 time=1264
note_on channel=5 note=82 velocity=100 time=0
note_on channel=5 note=86 velocity=100 time=0
note_on channel=5 note=82 velocity=100 time=0
note_on channel=5 note=86 velocity=100 time=0
note_off channel=5 note=82 velocity=100 time=128
note_off channel=5 note=86 velocity=100 time=0
note_off channel=5 note=82 velocity=100 time=0
note_off channel=5 note=86 velocity=100 time=0
note_off channel=5 note=82 velocity=100 time=0
note_off channel=5 note=86 velocity=100 time=0
note_on channel=5 note=81 velocity=100 time=69
note_on channel=5 note=85 velocity=100 time=2
note_on channel=5 note=81 velocity=100 time=0
note_on channel=5 note=85 velocity=100 time=0
note_on channel=5 note=81 velocity=100 time=0
note_on channel=5 note=85 velocity=100 time=0
note_off channel=5 note=81 velocity=100 time=64
note_off channel=5 note=85 velocity=100 time=0
note_off channel=5 note=81 velocity=100 time=0
note_off channel=5 note=85 velocity=100 time=0
note_off channel=5 note=81 velocity=100 time=0
note_off channel=5 note=85 velocity=100 time=0
note_on channel=5 note=80 velocity=100 time=34
note_on channel=5 note=83 velocity=100 time=49
note_on channel=5 note=80 velocity=100 time=0
note_on channel=5 note=83 velocity=100 time=0
note_on channel=5 note=80 velocity=100 time=0
note_on channel=5 note=83 velocity=100 time=0
note_off channel=5 note=80 velocity=100 time=128
note_off channel=5 note=83 velocity=100 time=0
note_off channel=5 note=80 velocity=100 time=0
note_off channel=5 note=83 velocity=100 time=0
note_off channel=5 note=80 velocity=100 time=0
note_off channel=5 note=83 velocity=100 time=0
note_on channel=5 note=82 velocity=100 time=69
note_on channel=5 note=86 velocity=100 time=198
note_on channel=5 note=82 velocity=100 time=0
note_on channel=5 note=86 velocity=100 time=0
note_on channel=5 note=82 velocity=100 time=0
note_on channel=5 note=86 velocity=100 time=0
note_off channel=5 note=82 velocity=100 time=128
note_off channel=5 note=86 velocity=100 time=0
note_off channel=5 note=82 velocity=100 time=0
note_off channel=5 note=86 velocity=100 time=0
note_off channel=5 note=82 velocity=100 time=0
note_off channel=5 note=86 velocity=100 time=0
<meta message end_of_track time=0>
<meta message track_name name='lo_lead' time=0>
control_change channel=6 control=0 value=0 time=0
program_change channel=6 program=30 time=0
control_change channel=6 control=10 value=105 time=0
control_change channel=6 control=91 value=26 time=0
control_change channel=6 control=93 value=111 time=0
<meta message key_signature key='E' time=0>
note_on channel=6 note=40 velocity=100 time=56388
note_on channel=6 note=40 velocity=100 time=656
note_on channel=6 note=40 velocity=100 time=0
note_off channel=6 note=40 velocity=100 time=128
note_off channel=6 note=40 velocity=100 time=0
note_off channel=6 note=40 velocity=100 time=0
note_on channel=6 note=52 velocity=100 time=62
note_on channel=6 note=52 velocity=100 time=123
note_on channel=6 note=52 velocity=100 time=0
note_off channel=6 note=52 velocity=100 time=384
note_off channel=6 note=52 velocity=100 time=0
note_off channel=6 note=52 velocity=100 time=0
note_on channel=6 note=50 velocity=100 time=188
note_on channel=6 note=50 velocity=100 time=453
note_on channel=6 note=50 velocity=100 time=0
note_off channel=6 note=50 velocity=100 time=128
note_off channel=6 note=50 velocity=100 time=0
note_off channel=6 note=50 velocity=100 time=0
note_on channel=6 note=50 velocity=100 time=61
note_on channel=6 note=50 velocity=100 time=136
note_on channel=6 note=50 velocity=100 time=0
note_off channel=6 note=50 velocity=100 time=384
note_off channel=6 note=50 velocity=100 time=0
note_off channel=6 note=50 velocity=100 time=0
note_on channel=6 note=49 velocity=100 time=185
note_on channel=6 note=49 velocity=100 time=256
note_on channel=6 note=49 velocity=100 time=0
note_off channel=6 note=49 velocity=100 time=128
note_off channel=6 note=49 velocity=100 time=0
note_off channel=6 note=49 velocity=100 time=0
note_on channel=6 note=49 velocity=100 time=61
note_on channel=6 note=49 velocity=100 time=26
note_on channel=6 note=49 velocity=100 time=0
note_off channel=6 note=49 velocity=100 time=384
note_off channel=6 note=49 velocity=100 time=0
note_off channel=6 note=49 velocity=100 time=0
note_on channel=6 note=47 velocity=100 time=184
note_on channel=6 note=47 velocity=100 time=43
note_on channel=6 note=47 velocity=100 time=0
note_off channel=6 note=47 velocity=100 time=128
note_off channel=6 note=47 velocity=100 time=0
note_off channel=6 note=47 velocity=100 time=0
note_on channel=6 note=55 velocity=100 time=61
note_on channel=6 note=55 velocity=100 time=35
note_on channel=6 note=55 velocity=100 time=0
note_off channel=6 note=55 velocity=100 time=64
note_off channel=6 note=55 velocity=100 time=0
note_off channel=6 note=55 velocity=100 time=0
note_on channel=6 note=57 velocity=100 time=30
note_on channel=6 note=57 velocity=100 time=18
note_on channel=6 note=57 velocity=100 time=0
note_off channel=6 note=57 velocity=100 time=64
note_off channel=6 note=57 velocity=100 time=0
note_off channel=6 note=57 velocity=100 time=0
note_on channel=6 note=58 velocity=100 time=31
note_on channel=6 note=58 velocity=100 time=19
note_on channel=6 note=58 velocity=100 time=0
note_off channel=6 note=58 velocity=100 time=40
note_off channel=6 note=58 velocity=100 time=0
note_off channel=6 note=58 velocity=100 time=0
note_on channel=6 note=57 velocity=100 time=23
note_on channel=6 note=57 velocity=100 time=15
note_on channel=6 note=57 velocity=100 time=0
note_off channel=6 note=57 velocity=100 time=40
note_off channel=6 note=57 velocity=100 time=0
note_off channel=6 note=57 velocity=100 time=0
note_on channel=6 note=55 velocity=100 time=23
note_on channel=6 note=55 velocity=100 time=15
note_on channel=6 note=55 velocity=100 time=0
note_off channel=6 note=55 velocity=100 time=40
note_off channel=6 note=55 velocity=100 time=0
note_off channel=6 note=55 velocity=100 time=0
note_on channel=6 note=57 velocity=100 time=23
note_on channel=6 note=57 velocity=100 time=17
note_on channel=6 note=57 velocity=100 time=0
note_off channel=6 note=57 velocity=100 time=64
note_off channel=6 note=57 velocity=100 time=0
note_off channel=6 note=57 velocity=100 time=0
note_on channel=6 note=52 velocity=100 time=30
note_on channel=6 note=52 velocity=100 time=26
note_on channel=6 note=52 velocity=100 time=0
note_off channel=6 note=52 velocity=100 time=64
note_off channel=6 note=52 velocity=100 time=0
note_off channel=6 note=52 velocity=100 time=0
note_on channel=6 note=40 velocity=100 time=30
note_on channel=6 note=40 velocity=100 time=30
note_on channel=6 note=40 velocity=100 time=0
note_off channel=6 note=40 velocity=100 time=128
note_off channel=6 note=40 velocity=100 time=0
note_off channel=6 note=40 velocity=100 time=0
note_on channel=6 note=52 velocity=100 time=62
note_on channel=6 note=52 velocity=100 time=81
note_on channel=6 note=52 velocity=100 time=0
note_off channel=6 note=52 velocity=100 time=384
note_off channel=6 note=52 velocity=100 time=0
note_off channel=6 note=52 velocity=100 time=0
note_on channel=6 note=50 velocity=100 time=185
note_on channel=6 note=50 velocity=100 time=442
note_on channel=6 note=50 velocity=100 time=0
note_off channel=6 note=50 velocity=100 time=128
note_off channel=6 note=50 velocity=100 time=0
note_off channel=6 note=50 velocity=100 time=0
note_on channel=6 note=50 velocity=100 time=62
note_on channel=6 note=50 velocity=100 time=198
note_on channel=6 note=50 velocity=100 time=0
note_off channel=6 note=50 velocity=100 time=384
note_off channel=6 note=50 velocity=100 time=0
note_off channel=6 note=50 velocity=100 time=0
note_on channel=6 note=49 velocity=100 time=187
note_on channel=6 note=49 velocity=100 time=574
note_on channel=6 note=49 velocity=100 time=0
note_off channel=6 note=49 velocity=100 time=128
note_off channel=6 note=49 velocity=100 time=0
note_off channel=6 note=49 velocity=100 time=0
note_on channel=6 note=49 velocity=100 time=63
note_on channel=6 note=49 velocity=100 time=144
note_on channel=6 note=49 velocity=100 time=0
note_off channel=6 note=49 velocity=100 time=384
note_off channel=6 note=49 velocity=100 time=0
note_off channel=6 note=49 velocity=100 time=0
note_on channel=6 note=62 velocity=100 time=380
note_on channel=6 note=62 velocity=100 time=210
note_on channel=6 note=62 velocity=100 time=0
note_off channel=6 note=62 velocity=100 time=128
note_off channel=6 note=62 velocity=100 time=0
note_off channel=6 note=62 velocity=100 time=0
note_on channel=6 note=62 velocity=100 time=254
note_on channel=6 note=62 velocity=100 time=140
note_on channel=6 note=62 velocity=100 time=0
note_off channel=6 note=62 velocity=100 time=128
note_off channel=6 note=62 velocity=100 time=0
note_off channel=6 note=62 velocity=100 time=0
note_on channel=6 note=64 velocity=100 time=63
note_on channel=6 note=64 velocity=100 time=35
note_on channel=6 note=64 velocity=100 time=0
note_off channel=6 note=64 velocity=100 time=512
note_off channel=6 note=64 velocity=100 time=0
note_off channel=6 note=64 velocity=100 time=0
note_on channel=6 note=64 velocity=100 time=254
note_on channel=6 note=64 velocity=100 time=25
note_on channel=6 note=64 velocity=100 time=0
note_off channel=6 note=64 velocity=100 time=64
note_off channel=6 note=64 velocity=100 time=0
note_off channel=6 note=64 velocity=100 time=0
note_on channel=6 note=67 velocity=100 time=31
note_on channel=6 note=67 velocity=100 time=6
note_on channel=6 note=67 velocity=100 time=0
note_off channel=6 note=67 velocity=100 time=64
note_off channel=6 note=67 velocity=100 time=0
note_off channel=6 note=67 velocity=100 time=0
note_on channel=6 note=64 velocity=100 time=31
note_on channel=6 note=64 velocity=100 time=5
note_on channel=6 note=64 velocity=100 time=0
note_off channel=6 note=64 velocity=100 time=64
note_off channel=6 note=64 velocity=100 time=0
note_off channel=6 note=64 velocity=100 time=0
note_on channel=6 note=64 velocity=100 time=127
note_on channel=6 note=64 velocity=100 time=8
note_on channel=6 note=64 velocity=100 time=0
note_off channel=6 note=64 velocity=100 time=256
note_off channel=6 note=64 velocity=100 time=0
note_off channel=6 note=64 velocity=100 time=0
note_on channel=6 note=64 velocity=100 time=126
note_on channel=6 note=64 velocity=100 time=40
note_on channel=6 note=64 velocity=100 time=0
note_off channel=6 note=64 velocity=100 time=64
note_off channel=6 note=64 velocity=100 time=0
note_off channel=6 note=64 velocity=100 time=0
note_on channel=6 note=67 velocity=100 time=31
note_on channel=6 note=67 velocity=100 time=19
note_on channel=6 note=67 velocity=100 time=0
note_off channel=6 note=67 velocity=100 time=64
note_off channel=6 note=67 velocity=100 time=0
note_off channel=6 note=67 velocity=100 time=0
note_on channel=6 note=69 velocity=100 time=32
note_on channel=6 note=69 velocity=100 time=24
note_on channel=6 note=69 velocity=100 time=0
note_off channel=6 note=69 velocity=100 time=32
note_off channel=6 note=69 velocity=100 time=0
note_off channel=6 note=69 velocity=100 time=0
note_on channel=6 note=70 velocity=100 time=15
note_on channel=6 note=70 velocity=100 time=13
note_on channel=6 note=70 velocity=100 time=0
note_off channel=6 note=70 velocity=100 time=32
note_off channel=6 note=70 velocity=100 time=0
note_off channel=6 note=70 velocity=100 time=0
note_on channel=6 note=69 velocity=100 time=15
note_on channel=6 note=69 velocity=100 time=14
note_on channel=6 note=69 velocity=100 time=0
note_off channel=6 note=69 velocity=100 time=32
note_off channel=6 note=69 velocity=100 time=0
note_off channel=6 note=69 velocity=100 time=0
note_on channel=6 note=68 velocity=100 time=15
note_on channel=6 note=68 velocity=100 time=15
note_on channel=6 note=68 velocity=100 time=0
note_off channel=6 note=68 velocity=100 time=32
note_off channel=6 note=68 velocity=100 time=0
note_off channel=6 note=68 velocity=100 time=0
note_on channel=6 note=69 velocity=100 time=111
note_on channel=6 note=69 velocity=100 time=119
note_on channel=6 note=69 velocity=100 time=0
note_off channel=6 note=69 velocity=100 time=64
note_off channel=6 note=69 velocity=100 time=0
note_off channel=6 note=69 velocity=100 time=0
note_on channel=6 note=64 velocity=100 time=31
note_on channel=6 note=64 velocity=100 time=33
note_on channel=6 note=64 velocity=100 time=0
note_off channel=6 note=64 velocity=100 time=64
note_off channel=6 note=64 velocity=100 time=0
note_off channel=6 note=64 velocity=100 time=0
note_on channel=6 note=62 velocity=100 time=31
note_on channel=6 note=62 velocity=100 time=29
note_on channel=6 note=62 velocity=100 time=0
note_off channel=6 note=62 velocity=100 time=64
note_off channel=6 note=62 velocity=100 time=0
note_off channel=6 note=62 velocity=100 time=0
note_on channel=6 note=64 velocity=100 time=31
note_on channel=6 note=64 velocity=100 time=25
note_on channel=6 note=64 velocity=100 time=0
note_off channel=6 note=64 velocity=100 time=256
note_off channel=6 note=64 velocity=100 time=0
note_off channel=6 note=64 velocity=100 time=0
note_on channel=6 note=68 velocity=100 time=220
note_on channel=6 note=68 velocity=100 time=11
note_on channel=6 note=68 velocity=100 time=0
note_off channel=6 note=68 velocity=100 time=64
note_off channel=6 note=68 velocity=100 time=0
note_off channel=6 note=68 velocity=100 time=0
note_on channel=6 note=64 velocity=100 time=31
note_on channel=6 note=64 velocity=100 time=21
note_on channel=6 note=64 velocity=100 time=0
note_off channel=6 note=64 velocity=100 time=64
note_off channel=6 note=64 velocity=100 time=0
note_off channel=6 note=64 velocity=100 time=0
note_on channel=6 note=68 velocity=100 time=31
note_on channel=6 note=68 velocity=100 time=23
note_on channel=6 note=68 velocity=100 time=0
note_off channel=6 note=68 velocity=100 time=64
note_off channel=6 note=68 velocity=100 time=0
note_off channel=6 note=68 velocity=100 time=0
note_on channel=6 note=69 velocity=100 time=31
note_on channel=6 note=69 velocity=100 time=23
note_on channel=6 note=69 velocity=100 time=0
note_off channel=6 note=69 velocity=100 time=64
note_off channel=6 note=69 velocity=100 time=0
note_off channel=6 note=69 velocity=100 time=0
note_on channel=6 note=71 velocity=100 time=32
note_on channel=6 note=71 velocity=100 time=23
note_on channel=6 note=71 velocity=100 time=0
note_off channel=6 note=71 velocity=100 time=64
note_off channel=6 note=71 velocity=100 time=0
note_off channel=6 note=71 velocity=100 time=0
note_on channel=6 note=71 velocity=100 time=31
note_on channel=6 note=75 velocity=100 time=21
note_on channel=6 note=71 velocity=100 time=0
note_on channel=6 note=75 velocity=100 time=0
note_on channel=6 note=71 velocity=100 time=0
note_on channel=6 note=75 velocity=100 time=0
note_off channel=6 note=71 velocity=100 time=64
note_off channel=6 note=75 velocity=100 time=0
note_off channel=6 note=71 velocity=100 time=0
note_off channel=6 note=75 velocity=100 time=0
note_off channel=6 note=71 velocity=100 time=0
note_off channel=6 note=75 velocity=100 time=0
note_on channel=6 note=75 velocity=100 time=31
note_on channel=6 note=71 velocity=100 time=19
note_on channel=6 note=75 velocity=100 time=0
note_on channel=6 note=71 velocity=100 time=0
note_on channel=6 note=75 velocity=100 time=0
note_on channel=6 note=71 velocity=100 time=0
note_off channel=6 note=75 velocity=100 time=384
note_off channel=6 note=71 velocity=100 time=0
note_off channel=6 note=75 velocity=100 time=0
note_off channel=6 note=71 velocity=100 time=0
note_off channel=6 note=75 velocity=100 time=0
note_off channel=6 note=71 velocity=100 time=0
note_on channel=6 note=71 velocity=100 time=94
note_on channel=6 note=75 velocity=100 time=43
note_on channel=6 note=71 velocity=100 time=0
note_on channel=6 note=75 velocity=100 time=0
note_on channel=6 note=71 velocity=100 time=0
note_on channel=6 note=75 velocity=100 time=0
note_off channel=6 note=71 velocity=100 time=32
note_off channel=6 note=75 velocity=100 time=0
note_off channel=6 note=71 velocity=100 time=0
note_off channel=6 note=75 velocity=100 time=0
note_off channel=6 note=71 velocity=100 time=0
note_off channel=6 note=75 velocity=100 time=0
note_on channel=6 note=75 velocity=100 time=16
note_on channel=6 note=75 velocity=100 time=4
note_on channel=6 note=75 velocity=100 time=0
note_off channel=6 note=75 velocity=100 time=32
note_off channel=6 note=75 velocity=100 time=0
note_off channel=6 note=75 velocity=100 time=0
note_on channel=6 note=69 velocity=100 time=15
note_on channel=6 note=69 velocity=100 time=3
note_on channel=6 note=69 velocity=100 time=0
note_off channel=6 note=69 velocity=100 time=32
note_off channel=6 note=69 velocity=100 time=0
note_off channel=6 note=69 velocity=100 time=0
note_on channel=6 note=71 velocity=100 time=15
note_on channel=6 note=71 velocity=100 time=2
note_on channel=6 note=71 velocity=100 time=0
note_off channel=6 note=71 velocity=100 time=32
note_off channel=6 note=71 velocity=100 time=0
note_off channel=6 note=71 velocity=100 time=0
note_on channel=6 note=68 velocity=100 time=681
note_on channel=6 note=63 velocity=100 time=111
note_on channel=6 note=68 velocity=100 time=0
note_on channel=6 note=63 velocity=100 time=0
note_on channel=6 note=68 velocity=100 time=0
note_on channel=6 note=63 velocity=100 time=0
note_off channel=6 note=68 velocity=100 time=128
note_off channel=6 note=63 velocity=100 time=0
note_off channel=6 note=68 velocity=100 time=0
note_off channel=6 note=63 velocity=100 time=0
note_off channel=6 note=68 velocity=100 time=0
note_off channel=6 note=63 velocity=100 time=0
note_on channel=6 note=64 velocity=100 time=62
note_on channel=6 note=64 velocity=100 time=36
note_on channel=6 note=64 velocity=100 time=0
note_off channel=6 note=64 velocity=100 time=64
note_off channel=6 note=64 velocity=100 time=0
note_off channel=6 note=64 velocity=100 time=0
note_on channel=6 note=68 velocity=100 time=32
note_on channel=6 note=68 velocity=100 time=21
note_on channel=6 note=68 velocity=100 time=0
note_off channel=6 note=68 velocity=100 time=64
note_off channel=6 note=68 velocity=100 time=0
note_off channel=6 note=68 velocity=100 time=0
note_on channel=6 note=64 velocity=100 time=31
note_on channel=6 note=64 velocity=100 time=21
note_on channel=6 note=64 velocity=100 time=0
note_off channel=6 note=64 velocity=100 time=64
note_off channel=6 note=64 velocity=100 time=0
note_off channel=6 note=64 velocity=100 time=0
note_on channel=6 note=69 velocity=100 time=32
note_on channel=6 note=69 velocity=100 time=21
note_on channel=6 note=69 velocity=100 time=0
note_off channel=6 note=69 velocity=100 time=64
note_off channel=6 note=69 velocity=100 time=0
note_off channel=6 note=69 velocity=100 time=0
note_on channel=6 note=68 velocity=100 time=31
note_on channel=6 note=68 velocity=100 time=19
note_on channel=6 note=68 velocity=100 time=0
note_off channel=6 note=68 velocity=100 time=64
note_off channel=6 note=68 velocity=100 time=0
note_off channel=6 note=68 velocity=100 time=0
note_on channel=6 note=69 velocity=100 time=31
note_on channel=6 note=69 velocity=100 time=16
note_on channel=6 note=69 velocity=100 time=0
note_off channel=6 note=69 velocity=100 time=64
note_off channel=6 note=69 velocity=100 time=0
note_off channel=6 note=69 velocity=100 time=0
note_on channel=6 note=71 velocity=100 time=32
note_on channel=6 note=71 velocity=100 time=12
note_on channel=6 note=71 velocity=100 time=0
note_off channel=6 note=71 velocity=100 time=64
note_off channel=6 note=71 velocity=100 time=0
note_off channel=6 note=71 velocity=100 time=0
note_on channel=6 note=74 velocity=100 time=31
note_on channel=6 note=74 velocity=100 time=7
note_on channel=6 note=74 velocity=100 time=0
note_off channel=6 note=74 velocity=100 time=64
note_off channel=6 note=74 velocity=100 time=0
note_off channel=6 note=74 velocity=100 time=0
note_on channel=6 note=71 velocity=100 time=31
note_on channel=6 note=71 velocity=100 time=2
note_on channel=6 note=71 velocity=100 time=0
note_off channel=6 note=71 velocity=100 time=384
note_off channel=6 note=71 velocity=100 time=0
note_off channel=6 note=71 velocity=100 time=0
note_on channel=6 note=71 velocity=100 time=190
note_on channel=6 note=71 velocity=100 time=111
note_on channel=6 note=71 velocity=100 time=0
note_off channel=6 note=71 velocity=100 time=64
note_off channel=6 note=71 velocity=100 time=0
note_off channel=6 note=71 velocity=100 time=0
note_on channel=6 note=76 velocity=100 time=31
note_on channel=6 note=76 velocity=100 time=37
note_on channel=6 note=76 velocity=100 time=0
note_off channel=6 note=76 velocity=100 time=64
note_off channel=6 note=76 velocity=100 time=0
note_off channel=6 note=76 velocity=100 time=0
note_on channel=6 note=76 velocity=100 time=31
note_on channel=6 note=76 velocity=100 time=42
note_on channel=6 note=76 velocity=100 time=0
note_off channel=6 note=76 velocity=100 time=64
note_off channel=6 note=76 velocity=100 time=0
note_off channel=6 note=76 velocity=100 time=0
note_on channel=6 note=76 velocity=100 time=31
note_on channel=6 note=76 velocity=100 time=46
note_on channel=6 note=76 velocity=100 time=0
note_off channel=6 note=76 velocity=100 time=64
note_off channel=6 note=76 velocity=100 time=0
note_off channel=6 note=76 velocity=100 time=0
note_on channel=6 note=76 velocity=100 time=31
note_on channel=6 note=76 velocity=100 time=46
note_on channel=6 note=76 velocity=100 time=0
note_off channel=6 note=76 velocity=100 time=128
note_off channel=6 note=76 velocity=100 time=0
note_off channel=6 note=76 velocity=100 time=0
note_on channel=6 note=76 velocity=100 time=63
note_on channel=6 note=76 velocity=100 time=98
note_on channel=6 note=76 velocity=100 time=0
note_off channel=6 note=76 velocity=100 time=64
note_off channel=6 note=76 velocity=100 time=0
note_off channel=6 note=76 velocity=100 time=0
note_on channel=6 note=76 velocity=100 time=31
note_on channel=6 note=76 velocity=100 time=46
note_on channel=6 note=76 velocity=100 time=0
note_off channel=6 note=76 velocity=100 time=128
note_off channel=6 note=76 velocity=100 time=0
note_off channel=6 note=76 velocity=100 time=0
note_on channel=6 note=76 velocity=100 time=63
note_on channel=6 note=76 velocity=100 time=82
note_on channel=6 note=76 velocity=100 time=0
note_off channel=6 note=76 velocity=100 time=40
note_off channel=6 note=76 velocity=100 time=0
note_off channel=6 note=76 velocity=100 time=0
note_on channel=6 note=75 velocity=100 time=23
note_on channel=6 note=75 velocity=100 time=24
note_on channel=6 note=75 velocity=100 time=0
note_off channel=6 note=75 velocity=100 time=40
note_off channel=6 note=75 velocity=100 time=0
note_off channel=6 note=75 velocity=100 time=0
note_on channel=6 note=71 velocity=100 time=23
note_on channel=6 note=71 velocity=100 time=19
note_on channel=6 note=71 velocity=100 time=0
note_off channel=6 note=71 velocity=100 time=40
note_off channel=6 note=71 velocity=100 time=0
note_off channel=6 note=71 velocity=100 time=0
note_on channel=6 note=69 velocity=100 time=24
note_on channel=6 note=69 velocity=100 time=15
note_on channel=6 note=69 velocity=100 time=0
note_off channel=6 note=69 velocity=100 time=40
note_off channel=6 note=69 velocity=100 time=0
note_off channel=6 note=69 velocity=100 time=0
note_on channel=6 note=71 velocity=100 time=23
note_on channel=6 note=71 velocity=100 time=9
note_on channel=6 note=71 velocity=100 time=0
note_off channel=6 note=71 velocity=100 time=40
note_off channel=6 note=71 velocity=100 time=0
note_off channel=6 note=71 velocity=100 time=0
note_on channel=6 note=67 velocity=100 time=23
note_on channel=6 note=67 velocity=100 time=4
note_on channel=6 note=67 velocity=100 time=0
note_off channel=6 note=67 velocity=100 time=40
note_off channel=6 note=67 velocity=100 time=0
note_off channel=6 note=67 velocity=100 time=0
note_on channel=6 note=71 velocity=100 time=23
note_on channel=6 note=71 velocity=100 time=1
note_on channel=6 note=71 velocity=100 time=0
note_off channel=6 note=71 velocity=100 time=128
note_off channel=6 note=71 velocity=100 time=0
note_off channel=6 note=71 velocity=100 time=0
note_on channel=6 note=75 velocity=100 time=62
note_on channel=6 note=75 velocity=100 time=32
note_on channel=6 note=75 velocity=100 time=0
note_off channel=6 note=75 velocity=100 time=64
note_off channel=6 note=75 velocity=100 time=0
note_off channel=6 note=75 velocity=100 time=0
note_on channel=6 note=71 velocity=100 time=31
note_on channel=6 note=71 velocity=100 time=30
note_on channel=6 note=71 velocity=100 time=0
note_off channel=6 note=71 velocity=100 time=128
note_off channel=6 note=71 velocity=100 time=0
note_off channel=6 note=71 velocity=100 time=0
note_on channel=6 note=71 velocity=100 time=63
note_on channel=6 note=79 velocity=100 time=82
note_on channel=6 note=71 velocity=100 time=0
note_on channel=6 note=79 velocity=100 time=0
note_on channel=6 note=71 velocity=100 time=0
note_on channel=6 note=79 velocity=100 time=0
note_off channel=6 note=71 velocity=100 time=64
note_off channel=6 note=79 velocity=100 time=0
note_off channel=6 note=71 velocity=100 time=0
note_off channel=6 note=79 velocity=100 time=0
note_off channel=6 note=71 velocity=100 time=0
note_off channel=6 note=79 velocity=100 time=0
note_on channel=6 note=71 velocity=100 time=31
note_on channel=6 note=71 velocity=100 time=49
note_on channel=6 note=71 velocity=100 time=0
note_off channel=6 note=71 velocity=100 time=40
note_off channel=6 note=71 velocity=100 time=0
note_off channel=6 note=71 velocity=100 time=0
note_on channel=6 note=69 velocity=100 time=23
note_on channel=6 note=69 velocity=100 time=39
note_on channel=6 note=69 velocity=100 time=0
note_off channel=6 note=69 velocity=100 time=40
note_off channel=6 note=69 velocity=100 time=0
note_off channel=6 note=69 velocity=100 time=0
note_on channel=6 note=67 velocity=100 time=23
note_on channel=6 note=67 velocity=100 time=40
note_on channel=6 note=67 velocity=100 time=0
note_off channel=6 note=67 velocity=100 time=40
note_off channel=6 note=67 velocity=100 time=0
note_off channel=6 note=67 velocity=100 time=0
note_on channel=6 note=69 velocity=100 time=23
note_on channel=6 note=69 velocity=100 time=40
note_on channel=6 note=69 velocity=100 time=0
note_off channel=6 note=69 velocity=100 time=64
note_off channel=6 note=69 velocity=100 time=0
note_off channel=6 note=69 velocity=100 time=0
note_on channel=6 note=64 velocity=100 time=31
note_on channel=6 note=64 velocity=100 time=56
note_on channel=6 note=64 velocity=100 time=0
note_off channel=6 note=64 velocity=100 time=64
note_off channel=6 note=64 velocity=100 time=0
note_off channel=6 note=64 velocity=100 time=0
note_on channel=6 note=69 velocity=100 time=31
note_on channel=6 note=69 velocity=100 time=54
note_on channel=6 note=69 velocity=100 time=0
note_off channel=6 note=69 velocity=100 time=384
note_off channel=6 note=69 velocity=100 time=0
note_off channel=6 note=69 velocity=100 time=0
note_on channel=6 note=62 velocity=100 time=94
note_on channel=6 note=62 velocity=100 time=148
note_on channel=6 note=62 velocity=100 time=0
note_off channel=6 note=62 velocity=100 time=64
note_off channel=6 note=62 velocity=100 time=0
note_off channel=6 note=62 velocity=100 time=0
note_on channel=6 note=63 velocity=100 time=32
note_on channel=6 note=63 velocity=100 time=42
note_on channel=6 note=63 velocity=100 time=0
note_off channel=6 note=63 velocity=100 time=64
note_off channel=6 note=63 velocity=100 time=0
note_off channel=6 note=63 velocity=100 time=0
note_on channel=6 note=64 velocity=100 time=31
note_on channel=6 note=64 velocity=100 time=37
note_on channel=6 note=64 velocity=100 time=0
note_off channel=6 note=64 velocity=100 time=64
note_off channel=6 note=64 velocity=100 time=0
note_off channel=6 note=64 velocity=100 time=0
note_on channel=6 note=67 velocity=100 time=31
note_on channel=6 note=67 velocity=100 time=32
note_on channel=6 note=67 velocity=100 time=0
note_off channel=6 note=67 velocity=100 time=64
note_off channel=6 note=67 velocity=100 time=0
note_off channel=6 note=67 velocity=100 time=0
note_on channel=6 note=64 velocity=100 time=32
note_on channel=6 note=64 velocity=100 time=28
note_on channel=6 note=64 velocity=100 time=0
note_off channel=6 note=64 velocity=100 time=64
note_off channel=6 note=64 velocity=100 time=0
note_off channel=6 note=64 velocity=100 time=0
note_on channel=6 note=69 velocity=100 time=31
note_on channel=6 note=73 velocity=100 time=23
note_on channel=6 note=69 velocity=100 time=0
note_on channel=6 note=73 velocity=100 time=0
note_on channel=6 note=69 velocity=100 time=0
note_on channel=6 note=73 velocity=100 time=0
note_off channel=6 note=69 velocity=100 time=64
note_off channel=6 note=73 velocity=100 time=0
note_off channel=6 note=69 velocity=100 time=0
note_off channel=6 note=73 velocity=100 time=0
note_off channel=6 note=69 velocity=100 time=0
note_off channel=6 note=73 velocity=100 time=0
note_on channel=6 note=64 velocity=100 time=31
note_on channel=6 note=64 velocity=100 time=18
note_on channel=6 note=64 velocity=100 time=0
note_off channel=6 note=64 velocity=100 time=64
note_off channel=6 note=64 velocity=100 time=0
note_off channel=6 note=64 velocity=100 time=0
note_on channel=6 note=67 velocity=100 time=32
note_on channel=6 note=67 velocity=100 time=14
note_on channel=6 note=67 velocity=100 time=0
note_off channel=6 note=67 velocity=100 time=64
note_off channel=6 note=67 velocity=100 time=0
note_off channel=6 note=67 velocity=100 time=0
note_on channel=6 note=69 velocity=100 time=31
note_on channel=6 note=69 velocity=100 time=10
note_on channel=6 note=69 velocity=100 time=0
note_off channel=6 note=69 velocity=100 time=64
note_off channel=6 note=69 velocity=100 time=0
note_off channel=6 note=69 velocity=100 time=0
note_on channel=6 note=71 velocity=100 time=31
note_on channel=6 note=71 velocity=100 time=6
note_on channel=6 note=71 velocity=100 time=0
note_off channel=6 note=71 velocity=100 time=64
note_off channel=6 note=71 velocity=100 time=0
note_off channel=6 note=71 velocity=100 time=0
note_on channel=6 note=74 velocity=100 time=32
note_on channel=6 note=74 velocity=100 time=4
note_on channel=6 note=74 velocity=100 time=0
note_off channel=6 note=74 velocity=100 time=64
note_off channel=6 note=74 velocity=100 time=0
note_off channel=6 note=74 velocity=100 time=0
note_on channel=6 note=71 velocity=100 time=31
note_on channel=6 note=71 velocity=100 time=2
note_on channel=6 note=71 velocity=100 time=0
note_off channel=6 note=71 velocity=100 time=32
note_off channel=6 note=71 velocity=100 time=0
note_off channel=6 note=71 velocity=100 time=0
note_on channel=6 note=69 velocity=100 time=15
note_on channel=6 note=69 velocity=100 time=0
note_on channel=6 note=69 velocity=100 time=0
note_off channel=6 note=69 velocity=100 time=32
note_off channel=6 note=69 velocity=100 time=0
note_off channel=6 note=69 velocity=100 time=0
note_on channel=6 note=68 velocity=100 time=111
note_on channel=6 note=68 velocity=100 time=6
note_on channel=6 note=68 velocity=100 time=0
note_off channel=6 note=68 velocity=100 time=64
note_off channel=6 note=68 velocity=100 time=0
note_off channel=6 note=68 velocity=100 time=0
note_on channel=6 note=69 velocity=100 time=31
note_on channel=6 note=69 velocity=100 time=5
note_on channel=6 note=69 velocity=100 time=0
note_off channel=6 note=69 velocity=100 time=64
note_off channel=6 note=69 velocity=100 time=0
note_off channel=6 note=69 velocity=100 time=0
note_on channel=6 note=64 velocity=100 time=31
note_on channel=6 note=64 velocity=100 time=7
note_on channel=6 note=64 velocity=100 time=0
note_off channel=6 note=64 velocity=100 time=192
note_off channel=6 note=64 velocity=100 time=0
note_off channel=6 note=64 velocity=100 time=0
note_on channel=6 note=76 velocity=100 time=286
note_on channel=6 note=76 velocity=100 time=162
note_on channel=6 note=76 velocity=100 time=0
note_on channel=6 note=76 velocity=100 time=223
note_on channel=6 note=76 velocity=100 time=9
note_on channel=6 note=76 velocity=100 time=0
note_off channel=6 note=76 velocity=100 time=40
note_off channel=6 note=76 velocity=100 time=0
note_off channel=6 note=76 velocity=100 time=0
note_on channel=6 note=75 velocity=100 time=87
note_on channel=6 note=75 velocity=100 time=90
note_on channel=6 note=75 velocity=100 time=0
note_off channel=6 note=76 velocity=100 time=32
note_off channel=6 note=76 velocity=100 time=0
note_off channel=6 note=76 velocity=100 time=0
note_off channel=6 note=75 velocity=100 time=8
note_off channel=6 note=75 velocity=100 time=0
note_off channel=6 note=75 velocity=100 time=0
note_on channel=6 note=71 velocity=100 time=23
note_on channel=6 note=71 velocity=100 time=34
note_on channel=6 note=71 velocity=100 time=0
note_off channel=6 note=71 velocity=100 time=40
note_off channel=6 note=71 velocity=100 time=0
note_off channel=6 note=71 velocity=100 time=0
note_on channel=6 note=69 velocity=100 time=151
note_on channel=6 note=69 velocity=100 time=294
note_on channel=6 note=69 velocity=100 time=0
note_off channel=6 note=69 velocity=100 time=40
note_off channel=6 note=69 velocity=100 time=0
note_off channel=6 note=69 velocity=100 time=0
note_on channel=6 note=71 velocity=100 time=87
note_on channel=6 note=71 velocity=100 time=197
note_on channel=6 note=71 velocity=100 time=0
note_off channel=6 note=71 velocity=100 time=40
note_off channel=6 note=71 velocity=100 time=0
note_off channel=6 note=71 velocity=100 time=0
note_on channel=6 note=67 velocity=100 time=23
note_on channel=6 note=67 velocity=100 time=52
note_on channel=6 note=67 velocity=100 time=0
note_off channel=6 note=67 velocity=100 time=40
note_off channel=6 note=67 velocity=100 time=0
note_off channel=6 note=67 velocity=100 time=0
note_on channel=6 note=64 velocity=100 time=213
note_on channel=6 note=64 velocity=100 time=327
note_on channel=6 note=64 velocity=100 time=0
note_off channel=6 note=64 velocity=100 time=256
note_off channel=6 note=64 velocity=100 time=0
note_off channel=6 note=64 velocity=100 time=0
note_on channel=6 note=59 velocity=100 time=125
note_on channel=6 note=59 velocity=100 time=41
note_on channel=6 note=59 velocity=100 time=0
note_off channel=6 note=59 velocity=100 time=64
note_off channel=6 note=59 velocity=100 time=0
note_off channel=6 note=59 velocity=100 time=0
note_on channel=6 note=64 velocity=100 time=31
note_on channel=6 note=64 velocity=100 time=2
note_on channel=6 note=64 velocity=100 time=0
note_off channel=6 note=64 velocity=100 time=64
note_off channel=6 note=64 velocity=100 time=0
note_off channel=6 note=64 velocity=100 time=0
note_on channel=6 note=62 velocity=100 time=31
note_on channel=6 note=62 velocity=100 time=5
note_on channel=6 note=62 velocity=100 time=0
note_off channel=6 note=62 velocity=100 time=64
note_off channel=6 note=62 velocity=100 time=0
note_off channel=6 note=62 velocity=100 time=0
note_on channel=6 note=59 velocity=100 time=31
note_on channel=6 note=64 velocity=100 time=6
note_on channel=6 note=59 velocity=100 time=0
note_on channel=6 note=64 velocity=100 time=0
note_on channel=6 note=59 velocity=100 time=0
note_on channel=6 note=64 velocity=100 time=0
note_off channel=6 note=59 velocity=100 time=384
note_off channel=6 note=64 velocity=100 time=0
note_off channel=6 note=59 velocity=100 time=0
note_off channel=6 note=64 velocity=100 time=0
note_off channel=6 note=59 velocity=100 time=0
note_off channel=6 note=64 velocity=100 time=0
note_on channel=6 note=64 velocity=100 time=188
note_on channel=6 note=64 velocity=100 time=34
note_on channel=6 note=64 velocity=100 time=0
note_off channel=6 note=64 velocity=100 time=128
note_off channel=6 note=64 velocity=100 time=0
note_off channel=6 note=64 velocity=100 time=0
note_on channel=6 note=62 velocity=100 time=62
note_on channel=6 note=64 velocity=100 time=5
note_on channel=6 note=62 velocity=100 time=0
note_on channel=6 note=64 velocity=100 time=0
note_on channel=6 note=62 velocity=100 time=0
note_on channel=6 note=64 velocity=100 time=0
note_off channel=6 note=62 velocity=100 time=64
note_off channel=6 note=64 velocity=100 time=0
note_off channel=6 note=62 velocity=100 time=0
note_off channel=6 note=64 velocity=100 time=0
note_off channel=6 note=62 velocity=100 time=0
note_off channel=6 note=64 velocity=100 time=0
note_on channel=6 note=62 velocity=100 time=31
note_on channel=6 note=62 velocity=100 time=7
note_on channel=6 note=62 velocity=100 time=0
note_off channel=6 note=62 velocity=100 time=256
note_off channel=6 note=62 velocity=100 time=0
note_off channel=6 note=62 velocity=100 time=0
note_on channel=6 note=64 velocity=100 time=125
note_on channel=6 note=61 velocity=100 time=65
note_on channel=6 note=64 velocity=100 time=0
note_on channel=6 note=61 velocity=100 time=0
note_on channel=6 note=64 velocity=100 time=0
note_on channel=6 note=61 velocity=100 time=0
note_off channel=6 note=61 velocity=100 time=64
note_off channel=6 note=61 velocity=100 time=0
note_off channel=6 note=61 velocity=100 time=0
note_on channel=6 note=59 velocity=100 time=31
note_on channel=6 note=59 velocity=100 time=23
note_on channel=6 note=59 velocity=100 time=0
note_off channel=6 note=64 velocity=100 time=32
note_off channel=6 note=64 velocity=100 time=0
note_off channel=6 note=64 velocity=100 time=0
note_off channel=6 note=59 velocity=100 time=32
note_off channel=6 note=59 velocity=100 time=0
note_off channel=6 note=59 velocity=100 time=0
note_on channel=6 note=61 velocity=100 time=31
note_on channel=6 note=64 velocity=100 time=26
note_on channel=6 note=61 velocity=100 time=0
note_on channel=6 note=64 velocity=100 time=0
note_on channel=6 note=61 velocity=100 time=0
note_on channel=6 note=64 velocity=100 time=0
note_off channel=6 note=61 velocity=100 time=64
note_off channel=6 note=64 velocity=100 time=0
note_off channel=6 note=61 velocity=100 time=0
note_off channel=6 note=64 velocity=100 time=0
note_off channel=6 note=61 velocity=100 time=0
note_off channel=6 note=64 velocity=100 time=0
note_on channel=6 note=64 velocity=100 time=31
note_on channel=6 note=61 velocity=100 time=27
note_on channel=6 note=64 velocity=100 time=0
note_on channel=6 note=61 velocity=100 time=0
note_on channel=6 note=64 velocity=100 time=0
note_on channel=6 note=61 velocity=100 time=0
note_off channel=6 note=64 velocity=100 time=256
note_off channel=6 note=61 velocity=100 time=0
note_off channel=6 note=64 velocity=100 time=0
note_off channel=6 note=61 velocity=100 time=0
note_off channel=6 note=64 velocity=100 time=0
note_off channel=6 note=61 velocity=100 time=0
note_on channel=6 note=71 velocity=100 time=125
note_on channel=6 note=71 velocity=100 time=109
note_on channel=6 note=71 velocity=100 time=0
note_off channel=6 note=71 velocity=100 time=128
note_off channel=6 note=71 velocity=100 time=0
note_off channel=6 note=71 velocity=100 time=0
note_on channel=6 note=71 velocity=100 time=62
note_on channel=6 note=71 velocity=100 time=42
note_on channel=6 note=71 velocity=100 time=0
note_off channel=6 note=71 velocity=100 time=64
note_off channel=6 note=71 velocity=100 time=0
note_off channel=6 note=71 velocity=100 time=0
note_on channel=6 note=76 velocity=100 time=31
note_on channel=6 note=76 velocity=100 time=14
note_on channel=6 note=76 velocity=100 time=0
note_off channel=6 note=76 velocity=100 time=64
note_off channel=6 note=76 velocity=100 time=0
note_off channel=6 note=76 velocity=100 time=0
note_on channel=6 note=76 velocity=100 time=31
note_on channel=6 note=76 velocity=100 time=8
note_on channel=6 note=76 velocity=100 time=0
note_off channel=6 note=76 velocity=100 time=192
note_off channel=6 note=76 velocity=100 time=0
note_off channel=6 note=76 velocity=100 time=0
note_on channel=6 note=68 velocity=100 time=93
note_on channel=6 note=68 velocity=100 time=11
note_on channel=6 note=68 velocity=100 time=0
note_off channel=6 note=68 velocity=100 time=128
note_off channel=6 note=68 velocity=100 time=0
note_off channel=6 note=68 velocity=100 time=0
note_on channel=6 note=64 velocity=100 time=62
note_on channel=6 note=64 velocity=100 time=40
note_on channel=6 note=64 velocity=100 time=0
note_off channel=6 note=64 velocity=100 time=64
note_off channel=6 note=64 velocity=100 time=0
note_off channel=6 note=64 velocity=100 time=0
note_on channel=6 note=62 velocity=100 time=31
note_on channel=6 note=62 velocity=100 time=28
note_on channel=6 note=62 velocity=100 time=0
note_off channel=6 note=62 velocity=100 time=64
note_off channel=6 note=62 velocity=100 time=0
note_off channel=6 note=62 velocity=100 time=0
note_on channel=6 note=62 velocity=100 time=31
note_on channel=6 note=62 velocity=100 time=33
note_on channel=6 note=62 velocity=100 time=0
note_off channel=6 note=62 velocity=100 time=64
note_off channel=6 note=62 velocity=100 time=0
note_off channel=6 note=62 velocity=100 time=0
note_on channel=6 note=64 velocity=100 time=31
note_on channel=6 note=64 velocity=100 time=37
note_on channel=6 note=64 velocity=100 time=0
note_off channel=6 note=64 velocity=100 time=256
note_off channel=6 note=64 velocity=100 time=0
note_off channel=6 note=64 velocity=100 time=0
note_on channel=6 note=64 velocity=100 time=125
note_on channel=6 note=64 velocity=100 time=161
note_on channel=6 note=64 velocity=100 time=0
note_off channel=6 note=64 velocity=100 time=64
note_off channel=6 note=64 velocity=100 time=0
note_off channel=6 note=64 velocity=100 time=0
note_on channel=6 note=59 velocity=100 time=31
note_on channel=6 note=59 velocity=100 time=37
note_on channel=6 note=59 velocity=100 time=0
note_off channel=6 note=59 velocity=100 time=64
note_off channel=6 note=59 velocity=100 time=0
note_off channel=6 note=59 velocity=100 time=0
note_on channel=6 note=61 velocity=100 time=31
note_on channel=6 note=61 velocity=100 time=33
note_on channel=6 note=61 velocity=100 time=0
note_off channel=6 note=61 velocity=100 time=64
note_off channel=6 note=61 velocity=100 time=0
note_off channel=6 note=61 velocity=100 time=0
note_on channel=6 note=64 velocity=100 time=31
note_on channel=6 note=62 velocity=100 time=30
note_on channel=6 note=64 velocity=100 time=0
note_on channel=6 note=62 velocity=100 time=0
note_on channel=6 note=64 velocity=100 time=0
note_on channel=6 note=62 velocity=100 time=0
note_off channel=6 note=64 velocity=100 time=384
note_off channel=6 note=62 velocity=100 time=0
note_off channel=6 note=64 velocity=100 time=0
note_off channel=6 note=62 velocity=100 time=0
note_off channel=6 note=64 velocity=100 time=0
note_off channel=6 note=62 velocity=100 time=0
note_on channel=6 note=64 velocity=100 time=188
note_on channel=6 note=61 velocity=100 time=78
note_on channel=6 note=64 velocity=100 time=0
note_on channel=6 note=61 velocity=100 time=0
note_on channel=6 note=64 velocity=100 time=0
note_on channel=6 note=61 velocity=100 time=0
note_off channel=6 note=64 velocity=100 time=64
note_off channel=6 note=61 velocity=100 time=0
note_off channel=6 note=64 velocity=100 time=0
note_off channel=6 note=61 velocity=100 time=0
note_off channel=6 note=64 velocity=100 time=0
note_off channel=6 note=61 velocity=100 time=0
note_on channel=6 note=59 velocity=100 time=31
note_on channel=6 note=59 velocity=100 time=0
note_on channel=6 note=59 velocity=100 time=0
note_off channel=6 note=59 velocity=100 time=64
note_off channel=6 note=59 velocity=100 time=0
note_off channel=6 note=59 velocity=100 time=0
note_on channel=6 note=59 velocity=100 time=31
note_on channel=6 note=59 velocity=100 time=0
note_on channel=6 note=59 velocity=100 time=0
note_off channel=6 note=59 velocity=100 time=64
note_off channel=6 note=59 velocity=100 time=0
note_off channel=6 note=59 velocity=100 time=0
note_on channel=6 note=61 velocity=100 time=31
note_on channel=6 note=64 velocity=100 time=2
note_on channel=6 note=61 velocity=100 time=0
note_on channel=6 note=64 velocity=100 time=0
note_on channel=6 note=61 velocity=100 time=0
note_on channel=6 note=64 velocity=100 time=0
note_off channel=6 note=61 velocity=100 time=256
note_off channel=6 note=64 velocity=100 time=0
note_off channel=6 note=61 velocity=100 time=0
note_off channel=6 note=64 velocity=100 time=0
note_off channel=6 note=61 velocity=100 time=0
note_off channel=6 note=64 velocity=100 time=0
note_on channel=6 note=70 velocity=100 time=315
note_on channel=6 note=74 velocity=100 time=302
note_on channel=6 note=70 velocity=100 time=0
note_on channel=6 note=74 velocity=100 time=0
note_on channel=6 note=70 velocity=100 time=0
note_on channel=6 note=74 velocity=100 time=0
note_off channel=6 note=70 velocity=100 time=128
note_off channel=6 note=74 velocity=100 time=0
note_off channel=6 note=70 velocity=100 time=0
note_off channel=6 note=74 velocity=100 time=0
note_off channel=6 note=70 velocity=100 time=0
note_off channel=6 note=74 velocity=100 time=0
note_on channel=6 note=69 velocity=100 time=63
note_on channel=6 note=73 velocity=100 time=102
note_on channel=6 note=69 velocity=100 time=0
note_on channel=6 note=73 velocity=100 time=0
note_on channel=6 note=69 velocity=100 time=0
note_on channel=6 note=73 velocity=100 time=0
note_off channel=6 note=69 velocity=100 time=64
note_off channel=6 note=73 velocity=100 time=0
note_off channel=6 note=69 velocity=100 time=0
note_off channel=6 note=73 velocity=100 time=0
note_off channel=6 note=69 velocity=100 time=0
note_off channel=6 note=73 velocity=100 time=0
note_on channel=6 note=68 velocity=100 time=31
note_on channel=6 note=71 velocity=100 time=47
note_on channel=6 note=68 velocity=100 time=0
note_on channel=6 note=71 velocity=100 time=0
note_on channel=6 note=68 velocity=100 time=0
note_on channel=6 note=71 velocity=100 time=0
note_off channel=6 note=68 velocity=100 time=128
note_off channel=6 note=71 velocity=100 time=0
note_off channel=6 note=68 velocity=100 time=0
note_off channel=6 note=71 velocity=100 time=0
note_off channel=6 note=68 velocity=100 time=0
note_off channel=6 note=71 velocity=100 time=0
note_on channel=6 note=70 velocity=100 time=63
note_on channel=6 note=74 velocity=100 time=88
note_on channel=6 note=70 velocity=100 time=0
note_on channel=6 note=74 velocity=100 time=0
note_on channel=6 note=70 velocity=100 time=0
note_on channel=6 note=74 velocity=100 time=0
note_off channel=6 note=70 velocity=100 time=128
note_off channel=6 note=74 velocity=100 time=0
note_off channel=6 note=70 velocity=100 time=0
note_off channel=6 note=74 velocity=100 time=0
note_off channel=6 note=70 velocity=100 time=0
note_off channel=6 note=74 velocity=100 time=0
<meta message end_of_track time=0>
<meta message key_signature key='E' time=0>
<meta message end_of_track time=0>
<meta message key_signature key='E' time=0>
<meta message end_of_track time=0>
<meta message track_name name='met_drum' time=0>
control_change channel=9 control=0 value=0 time=0
program_change channel=9 program=10 time=0
control_change channel=9 control=91 value=47 time=0
control_change channel=9 control=93 value=118 time=0
<meta message key_signature key='E' time=0>
note_on channel=9 note=36 velocity=117 time=0
note_on channel=9 note=46 velocity=117 time=0
note_on channel=9 note=49 velocity=117 time=0
note_off channel=9 note=46 velocity=127 time=128
note_on channel=9 note=42 velocity=117 time=59
note_off channel=9 note=36 velocity=127 time=64
note_off channel=9 note=49 velocity=127 time=0
note_off channel=9 note=42 velocity=127 time=64
note_on channel=9 note=46 velocity=117 time=57
note_off channel=9 note=46 velocity=127 time=128
note_on channel=9 note=42 velocity=117 time=62
note_off channel=9 note=42 velocity=127 time=128
note_on channel=9 note=38 velocity=117 time=60
note_on channel=9 note=46 velocity=117 time=1
note_off channel=9 note=46 velocity=127 time=128
note_on channel=9 note=42 velocity=117 time=60
note_off channel=9 note=38 velocity=127 time=64
note_off channel=9 note=42 velocity=127 time=64
note_on channel=9 note=38 velocity=117 time=62
note_on channel=9 note=46 velocity=117 time=1
note_off channel=9 note=46 velocity=127 time=128
note_on channel=9 note=42 velocity=117 time=60
note_on channel=9 note=38 velocity=127 time=1
note_off channel=9 note=38 velocity=127 time=64
note_off channel=9 note=42 velocity=127 time=64
note_off channel=9 note=38 velocity=127 time=0
note_on channel=9 note=36 velocity=127 time=60
note_on channel=9 note=46 velocity=127 time=0
note_on channel=9 note=49 velocity=127 time=0
note_off channel=9 note=46 velocity=127 time=128
note_on channel=9 note=42 velocity=127 time=61
note_off channel=9 note=36 velocity=127 time=64
note_off channel=9 note=49 velocity=127 time=0
note_off channel=9 note=42 velocity=127 time=64
note_on channel=9 note=38 velocity=127 time=62
note_on channel=9 note=46 velocity=127 time=0
note_off channel=9 note=46 velocity=127 time=128
note_on channel=9 note=42 velocity=127 time=60
note_off channel=9 note=38 velocity=127 time=64
note_off channel=9 note=42 velocity=127 time=64
note_on channel=9 note=38 velocity=127 time=61
note_on channel=9 note=46 velocity=127 time=0
note_off channel=9 note=46 velocity=127 time=128
note_on channel=9 note=42 velocity=127 time=61
note_off channel=9 note=38 velocity=127 time=64
note_off channel=9 note=42 velocity=127 time=64
note_on channel=9 note=38 velocity=127 time=61
note_on channel=9 note=46 velocity=127 time=0
note_off channel=9 note=46 velocity=127 time=128
note_on channel=9 note=42 velocity=127 time=60
note_off channel=9 note=38 velocity=127 time=64
note_off channel=9 note=42 velocity=127 time=64
note_on channel=9 note=36 velocity=127 time=61
note_on channel=9 note=46 velocity=127 time=0
note_on channel=9 note=49 velocity=127 time=0
note_off channel=9 note=46 velocity=127 time=128
note_on channel=9 note=42 velocity=127 time=61
note_off channel=9 note=36 velocity=127 time=64
note_off channel=9 note=49 velocity=127 time=0
note_off channel=9 note=42 velocity=127 time=64
note_on channel=9 note=38 velocity=127 time=60
note_on channel=9 note=46 velocity=127 time=0
note_off channel=9 note=46 velocity=127 time=128
note_on channel=9 note=42 velocity=127 time=61
note_off channel=9 note=38 velocity=127 time=64
note_off channel=9 note=42 velocity=127 time=64
note_on channel=9 note=38 velocity=127 time=60
note_on channel=9 note=46 velocity=127 time=1
note_off channel=9 note=46 velocity=127 time=128
note_on channel=9 note=42 velocity=127 time=61
note_off channel=9 note=38 velocity=127 time=64
note_off channel=9 note=42 velocity=127 time=64
note_on channel=9 note=38 velocity=127 time=58
note_on channel=9 note=46 velocity=127 time=2
note_off channel=9 note=46 velocity=127 time=128
note_on channel=9 note=42 velocity=127 time=61
note_off channel=9 note=38 velocity=127 time=64
note_off channel=9 note=42 velocity=127 time=64
note_on channel=9 note=36 velocity=127 time=57
note_on channel=9 note=46 velocity=127 time=3
note_on channel=9 note=49 velocity=127 time=0
note_off channel=9 note=46 velocity=127 time=128
note_on channel=9 note=42 velocity=127 time=60
note_off channel=9 note=36 velocity=127 time=64
note_off channel=9 note=49 velocity=127 time=0
note_off channel=9 note=42 velocity=127 time=64
note_on channel=9 note=38 velocity=127 time=57
note_on channel=9 note=46 velocity=127 time=0
note_off channel=9 note=46 velocity=127 time=128
note_on channel=9 note=42 velocity=127 time=60
note_off channel=9 note=38 velocity=127 time=64
note_off channel=9 note=42 velocity=127 time=64
note_on channel=9 note=38 velocity=127 time=54
note_on channel=9 note=46 velocity=127 time=1
note_off channel=9 note=46 velocity=127 time=128
note_on channel=9 note=42 velocity=127 time=59
note_off channel=9 note=38 velocity=127 time=64
note_off channel=9 note=42 velocity=127 time=64
note_on channel=9 note=38 velocity=127 time=59
note_on channel=9 note=46 velocity=127 time=0
note_off channel=9 note=46 velocity=127 time=128
note_on channel=9 note=42 velocity=127 time=60
note_off channel=9 note=38 velocity=127 time=64
note_off channel=9 note=42 velocity=127 time=64
note_on channel=9 note=36 velocity=127 time=58
note_on channel=9 note=46 velocity=127 time=2
note_on channel=9 note=49 velocity=127 time=0
note_off channel=9 note=46 velocity=127 time=128
note_on channel=9 note=42 velocity=127 time=59
note_off channel=9 note=36 velocity=127 time=64
note_off channel=9 note=49 velocity=127 time=0
note_off channel=9 note=42 velocity=127 time=64
note_on channel=9 note=38 velocity=127 time=56
note_on channel=9 note=46 velocity=127 time=5
note_off channel=9 note=46 velocity=127 time=128
note_on channel=9 note=42 velocity=127 time=59
note_off channel=9 note=38 velocity=127 time=64
note_off channel=9 note=42 velocity=127 time=64
note_on channel=9 note=38 velocity=127 time=59
note_on channel=9 note=46 velocity=127 time=13
note_off channel=9 note=46 velocity=127 time=128
note_on channel=9 note=42 velocity=127 time=59
note_off channel=9 note=38 velocity=127 time=64
note_off channel=9 note=42 velocity=127 time=64
note_on channel=9 note=38 velocity=127 time=52
note_on channel=9 note=46 velocity=127 time=5
note_off channel=9 note=46 velocity=127 time=128
note_on channel=9 note=42 velocity=127 time=59
note_off channel=9 note=38 velocity=127 time=64
note_off channel=9 note=42 velocity=127 time=64
note_on channel=9 note=36 velocity=127 time=54
note_on channel=9 note=46 velocity=127 time=2
note_on channel=9 note=49 velocity=127 time=0
note_off channel=9 note=46 velocity=127 time=128
note_on channel=9 note=42 velocity=127 time=58
note_off channel=9 note=36 velocity=127 time=64
note_off channel=9 note=49 velocity=127 time=0
note_off channel=9 note=42 velocity=127 time=64
note_on channel=9 note=38 velocity=127 time=58
note_on channel=9 note=46 velocity=127 time=0
note_off channel=9 note=46 velocity=127 time=128
note_on channel=9 note=42 velocity=127 time=58
note_off channel=9 note=38 velocity=127 time=64
note_off channel=9 note=42 velocity=127 time=64
note_on channel=9 note=38 velocity=127 time=60
note_on channel=9 note=46 velocity=127 time=1
note_off channel=9 note=46 velocity=127 time=128
note_on channel=9 note=42 velocity=127 time=59
note_off channel=9 note=38 velocity=127 time=64
note_off channel=9 note=42 velocity=127 time=64
note_on channel=9 note=38 velocity=127 time=60
note_on channel=9 note=46 velocity=127 time=0
note_off channel=9 note=46 velocity=127 time=128
note_on channel=9 note=42 velocity=127 time=58
note_off channel=9 note=38 velocity=127 time=64
note_off channel=9 note=42 velocity=127 time=64
note_on channel=9 note=36 velocity=127 time=57
note_on channel=9 note=46 velocity=127 time=3
note_on channel=9 note=49 velocity=127 time=0
note_off channel=9 note=46 velocity=127 time=128
note_on channel=9 note=42 velocity=127 time=58
note_off channel=9 note=36 velocity=127 time=64
note_off channel=9 note=49 velocity=127 time=0
note_off channel=9 note=42 velocity=127 time=64
note_on channel=9 note=38 velocity=127 time=53
note_on channel=9 note=46 velocity=127 time=5
note_off channel=9 note=46 velocity=127 time=128
note_on channel=9 note=42 velocity=127 time=58
note_off channel=9 note=38 velocity=127 time=64
note_off channel=9 note=42 velocity=127 time=64
note_on channel=9 note=38 velocity=127 time=52
note_on channel=9 note=46 velocity=127 time=5
note_off channel=9 note=46 velocity=127 time=128
note_on channel=9 note=42 velocity=127 time=58
note_off channel=9 note=38 velocity=127 time=64
note_off channel=9 note=42 velocity=127 time=64
note_on channel=9 note=38 velocity=127 time=53
note_on channel=9 note=46 velocity=127 time=2
note_off channel=9 note=46 velocity=127 time=128
note_on channel=9 note=42 velocity=127 time=58
note_off channel=9 note=38 velocity=127 time=64
note_off channel=9 note=42 velocity=127 time=64
note_on channel=9 note=36 velocity=127 time=56
note_on channel=9 note=46 velocity=127 time=0
note_on channel=9 note=49 velocity=127 time=0
note_off channel=9 note=46 velocity=127 time=128
note_on channel=9 note=42 velocity=127 time=58
note_off channel=9 note=36 velocity=127 time=64
note_off channel=9 note=49 velocity=127 time=0
note_off channel=9 note=42 velocity=127 time=64
note_on channel=9 note=38 velocity=127 time=58
note_on channel=9 note=46 velocity=127 time=1
note_off channel=9 note=46 velocity=127 time=128
note_on channel=9 note=42 velocity=127 time=58
note_off channel=9 note=38 velocity=127 time=64
note_off channel=9 note=42 velocity=127 time=64
note_on channel=9 note=38 velocity=127 time=60
note_on channel=9 note=46 velocity=127 time=2
note_off channel=9 note=46 velocity=127 time=128
note_on channel=9 note=42 velocity=127 time=57
note_off channel=9 note=38 velocity=127 time=64
note_off channel=9 note=42 velocity=127 time=64
note_on channel=9 note=38 velocity=127 time=61
note_on channel=9 note=46 velocity=127 time=3
note_off channel=9 note=46 velocity=127 time=128
note_on channel=9 note=42 velocity=127 time=58
note_off channel=9 note=38 velocity=127 time=64
note_off channel=9 note=42 velocity=127 time=64
note_on channel=9 note=36 velocity=127 time=62
note_on channel=9 note=46 velocity=127 time=5
note_on channel=9 note=49 velocity=127 time=0
note_off channel=9 note=46 velocity=127 time=128
note_on channel=9 note=42 velocity=127 time=58
note_off channel=9 note=36 velocity=127 time=64
note_off channel=9 note=49 velocity=127 time=0
note_off channel=9 note=42 velocity=127 time=64
note_on channel=9 note=38 velocity=127 time=64
note_on channel=9 note=46 velocity=127 time=5
note_off channel=9 note=46 velocity=127 time=128
note_on channel=9 note=42 velocity=127 time=58
note_off channel=9 note=38 velocity=127 time=64
note_off channel=9 note=42 velocity=127 time=64
note_on channel=9 note=38 velocity=127 time=62
note_on channel=9 note=46 velocity=127 time=2
note_off channel=9 note=46 velocity=127 time=128
note_on channel=9 note=42 velocity=127 time=59
note_off channel=9 note=38 velocity=127 time=64
note_off channel=9 note=42 velocity=127 time=64
note_on channel=9 note=38 velocity=127 time=57
note_on channel=9 note=46 velocity=127 time=4
note_off channel=9 note=46 velocity=127 time=128
note_on channel=9 note=42 velocity=127 time=58
note_off channel=9 note=38 velocity=127 time=64
note_off channel=9 note=42 velocity=127 time=64
note_on channel=9 note=36 velocity=127 time=50
note_on channel=9 note=46 velocity=127 time=9
note_on channel=9 note=49 velocity=127 time=0
note_off channel=9 note=46 velocity=127 time=128
note_on channel=9 note=42 velocity=127 time=58
note_off channel=9 note=36 velocity=127 time=64
note_off channel=9 note=49 velocity=127 time=0
note_off channel=9 note=42 velocity=127 time=64
note_on channel=9 note=38 velocity=127 time=48
note_on channel=9 note=46 velocity=127 time=8
note_off channel=9 note=46 velocity=127 time=128
note_on channel=9 note=42 velocity=127 time=57
note_off channel=9 note=38 velocity=127 time=64
note_off channel=9 note=42 velocity=127 time=64
note_on channel=9 note=38 velocity=127 time=52
note_on channel=9 note=46 velocity=127 time=3
note_off channel=9 note=46 velocity=127 time=128
note_on channel=9 note=42 velocity=127 time=58
note_off channel=9 note=38 velocity=127 time=64
note_off channel=9 note=42 velocity=127 time=64
note_on channel=9 note=38 velocity=127 time=58
note_on channel=9 note=46 velocity=127 time=2
note_off channel=9 note=46 velocity=127 time=128
note_on channel=9 note=42 velocity=127 time=57
note_off channel=9 note=38 velocity=127 time=64
note_off channel=9 note=42 velocity=127 time=64
note_on channel=9 note=36 velocity=127 time=62
note_on channel=9 note=46 velocity=127 time=3
note_on channel=9 note=49 velocity=127 time=0
note_off channel=9 note=46 velocity=127 time=128
note_on channel=9 note=42 velocity=127 time=58
note_off channel=9 note=36 velocity=127 time=64
note_off channel=9 note=49 velocity=127 time=0
note_off channel=9 note=42 velocity=127 time=64
note_on channel=9 note=38 velocity=127 time=61
note_on channel=9 note=46 velocity=127 time=1
note_off channel=9 note=46 velocity=127 time=128
note_on channel=9 note=42 velocity=127 time=57
note_off channel=9 note=38 velocity=127 time=64
note_off channel=9 note=42 velocity=127 time=64
note_on channel=9 note=38 velocity=127 time=58
note_on channel=9 note=46 velocity=127 time=0
note_off channel=9 note=46 velocity=127 time=128
note_on channel=9 note=42 velocity=127 time=58
note_off channel=9 note=38 velocity=127 time=64
note_off channel=9 note=42 velocity=127 time=64
note_on channel=9 note=38 velocity=127 time=57
note_on channel=9 note=46 velocity=127 time=4
note_off channel=9 note=46 velocity=127 time=128
note_on channel=9 note=42 velocity=127 time=58
note_off channel=9 note=38 velocity=127 time=64
note_off channel=9 note=42 velocity=127 time=64
note_on channel=9 note=36 velocity=127 time=65
note_on channel=9 note=46 velocity=127 time=10
note_on channel=9 note=49 velocity=127 time=0
note_off channel=9 note=46 velocity=127 time=128
note_on channel=9 note=42 velocity=127 time=58
note_off channel=9 note=36 velocity=127 time=64
note_off channel=9 note=49 velocity=127 time=0
note_off channel=9 note=42 velocity=127 time=64
note_on channel=9 note=38 velocity=127 time=71
note_on channel=9 note=46 velocity=127 time=15
note_off channel=9 note=46 velocity=127 time=128
note_on channel=9 note=42 velocity=127 time=59
note_off channel=9 note=38 velocity=127 time=64
note_off channel=9 note=42 velocity=127 time=64
note_on channel=9 note=38 velocity=127 time=74
note_on channel=9 note=46 velocity=127 time=13
note_off channel=9 note=46 velocity=127 time=128
note_on channel=9 note=42 velocity=127 time=58
note_off channel=9 note=38 velocity=127 time=64
note_off channel=9 note=42 velocity=127 time=64
note_on channel=9 note=38 velocity=127 time=69
note_on channel=9 note=46 velocity=127 time=6
note_off channel=9 note=46 velocity=127 time=128
note_on channel=9 note=42 velocity=127 time=59
note_off channel=9 note=38 velocity=127 time=64
note_off channel=9 note=42 velocity=127 time=64
note_on channel=9 note=36 velocity=127 time=61
note_on channel=9 note=46 velocity=127 time=3
note_on channel=9 note=49 velocity=127 time=0
note_off channel=9 note=46 velocity=127 time=128
note_on channel=9 note=42 velocity=127 time=58
note_off channel=9 note=36 velocity=127 time=64
note_off channel=9 note=49 velocity=127 time=0
note_off channel=9 note=42 velocity=127 time=64
note_on channel=9 note=38 velocity=127 time=59
note_on channel=9 note=46 velocity=127 time=0
note_off channel=9 note=46 velocity=127 time=128
note_on channel=9 note=42 velocity=127 time=59
note_off channel=9 note=38 velocity=127 time=64
note_off channel=9 note=42 velocity=127 time=64
note_on channel=9 note=38 velocity=127 time=33
note_on channel=9 note=46 velocity=127 time=7
note_off channel=9 note=46 velocity=127 time=128
note_on channel=9 note=42 velocity=127 time=59
note_off channel=9 note=38 velocity=127 time=64
note_off channel=9 note=42 velocity=127 time=64
note_on channel=9 note=38 velocity=127 time=54
note_on channel=9 note=46 velocity=127 time=0
note_off channel=9 note=46 velocity=127 time=128
note_on channel=9 note=42 velocity=127 time=59
note_off channel=9 note=38 velocity=127 time=64
note_off channel=9 note=42 velocity=127 time=64
note_on channel=9 note=36 velocity=127 time=61
note_on channel=9 note=46 velocity=127 time=6
note_on channel=9 note=49 velocity=127 time=0
note_off channel=9 note=46 velocity=127 time=128
note_on channel=9 note=42 velocity=127 time=59
note_off channel=9 note=36 velocity=127 time=64
note_off channel=9 note=49 velocity=127 time=0
note_off channel=9 note=42 velocity=127 time=64
note_on channel=9 note=38 velocity=127 time=69
note_on channel=9 note=46 velocity=127 time=12
note_off channel=9 note=46 velocity=127 time=128
note_on channel=9 note=42 velocity=127 time=59
note_off channel=9 note=38 velocity=127 time=64
note_off channel=9 note=42 velocity=127 time=64
note_on channel=9 note=38 velocity=127 time=74
note_on channel=9 note=46 velocity=127 time=18
note_off channel=9 note=46 velocity=127 time=128
note_on channel=9 note=42 velocity=127 time=59
note_off channel=9 note=38 velocity=127 time=64
note_off channel=9 note=42 velocity=127 time=64
note_on channel=9 note=38 velocity=127 time=80
note_on channel=9 note=46 velocity=127 time=21
note_off channel=9 note=46 velocity=127 time=128
note_on channel=9 note=42 velocity=127 time=59
note_off channel=9 note=38 velocity=127 time=64
note_off channel=9 note=42 velocity=127 time=64
note_on channel=9 note=36 velocity=127 time=60
note_on channel=9 note=46 velocity=127 time=42
note_on channel=9 note=49 velocity=127 time=0
note_off channel=9 note=46 velocity=127 time=128
note_on channel=9 note=42 velocity=127 time=60
note_off channel=9 note=36 velocity=127 time=64
note_off channel=9 note=49 velocity=127 time=0
note_off channel=9 note=42 velocity=127 time=64
note_on channel=9 note=38 velocity=127 time=80
note_on channel=9 note=46 velocity=127 time=18
note_off channel=9 note=46 velocity=127 time=128
note_on channel=9 note=42 velocity=127 time=60
note_off channel=9 note=38 velocity=127 time=64
note_off channel=9 note=42 velocity=127 time=64
note_on channel=9 note=38 velocity=127 time=76
note_on channel=9 note=46 velocity=127 time=0
note_off channel=9 note=46 velocity=127 time=128
note_on channel=9 note=42 velocity=127 time=61
note_off channel=9 note=38 velocity=127 time=64
note_off channel=9 note=42 velocity=127 time=64
note_on channel=9 note=38 velocity=127 time=82
note_on channel=9 note=46 velocity=127 time=4
note_off channel=9 note=46 velocity=127 time=128
note_on channel=9 note=42 velocity=127 time=61
note_off channel=9 note=38 velocity=127 time=64
note_off channel=9 note=42 velocity=127 time=64
note_on channel=9 note=36 velocity=127 time=60
note_on channel=9 note=46 velocity=127 time=6
note_on channel=9 note=49 velocity=127 time=0
note_off channel=9 note=46 velocity=127 time=128
note_on channel=9 note=42 velocity=127 time=61
note_off channel=9 note=36 velocity=127 time=64
note_off channel=9 note=49 velocity=127 time=0
note_off channel=9 note=42 velocity=127 time=64
note_on channel=9 note=38 velocity=127 time=48
note_on channel=9 note=46 velocity=127 time=0
note_off channel=9 note=46 velocity=127 time=128
note_on channel=9 note=42 velocity=127 time=61
note_off channel=9 note=38 velocity=127 time=64
note_off channel=9 note=42 velocity=127 time=64
note_on channel=9 note=38 velocity=127 time=25
note_on channel=9 note=46 velocity=127 time=21
note_off channel=9 note=46 velocity=127 time=128
note_on channel=9 note=42 velocity=127 time=60
note_off channel=9 note=38 velocity=127 time=64
note_off channel=9 note=42 velocity=127 time=64
note_on channel=9 note=38 velocity=127 time=39
note_on channel=9 note=46 velocity=127 time=19
note_off channel=9 note=46 velocity=127 time=128
note_on channel=9 note=42 velocity=127 time=60
note_off channel=9 note=38 velocity=127 time=64
note_off channel=9 note=42 velocity=127 time=64
note_on channel=9 note=36 velocity=127 time=43
note_on channel=9 note=46 velocity=127 time=12
note_on channel=9 note=49 velocity=127 time=0
note_off channel=9 note=46 velocity=127 time=128
note_on channel=9 note=42 velocity=127 time=59
note_off channel=9 note=36 velocity=127 time=64
note_off channel=9 note=49 velocity=127 time=0
note_off channel=9 note=42 velocity=127 time=64
note_on channel=9 note=38 velocity=127 time=50
note_on channel=9 note=46 velocity=127 time=0
note_off channel=9 note=46 velocity=127 time=128
note_on channel=9 note=42 velocity=127 time=60
note_off channel=9 note=38 velocity=127 time=64
note_off channel=9 note=42 velocity=127 time=64
note_on channel=9 note=38 velocity=127 time=44
note_on channel=9 note=46 velocity=127 time=11
note_off channel=9 note=46 velocity=127 time=128
note_on channel=9 note=42 velocity=127 time=59
note_off channel=9 note=38 velocity=127 time=64
note_off channel=9 note=42 velocity=127 time=64
note_on channel=9 note=38 velocity=127 time=44
note_on channel=9 note=46 velocity=127 time=20
note_off channel=9 note=46 velocity=127 time=128
note_on channel=9 note=42 velocity=127 time=59
note_off channel=9 note=38 velocity=127 time=64
note_off channel=9 note=42 velocity=127 time=64
note_on channel=9 note=36 velocity=127 time=34
note_on channel=9 note=46 velocity=127 time=24
note_on channel=9 note=49 velocity=127 time=0
note_off channel=9 note=46 velocity=127 time=128
note_on channel=9 note=42 velocity=127 time=59
note_off channel=9 note=36 velocity=127 time=64
note_off channel=9 note=49 velocity=127 time=0
note_off channel=9 note=42 velocity=127 time=64
note_on channel=9 note=38 velocity=127 time=34
note_on channel=9 note=46 velocity=127 time=21
note_off channel=9 note=46 velocity=127 time=128
note_on channel=9 note=42 velocity=127 time=58
note_off channel=9 note=38 velocity=127 time=64
note_off channel=9 note=42 velocity=127 time=64
note_on channel=9 note=38 velocity=127 time=40
note_on channel=9 note=46 velocity=127 time=12
note_off channel=9 note=46 velocity=127 time=128
note_on channel=9 note=42 velocity=127 time=58
note_off channel=9 note=38 velocity=127 time=64
note_off channel=9 note=42 velocity=127 time=64
note_on channel=9 note=38 velocity=127 time=49
note_on channel=9 note=46 velocity=127 time=5
note_off channel=9 note=46 velocity=127 time=128
note_on channel=9 note=42 velocity=127 time=57
note_off channel=9 note=38 velocity=127 time=64
note_off channel=9 note=42 velocity=127 time=64
note_on channel=9 note=36 velocity=127 time=54
note_on channel=9 note=46 velocity=127 time=3
note_on channel=9 note=49 velocity=127 time=0
note_off channel=9 note=46 velocity=127 time=128
note_on channel=9 note=42 velocity=127 time=58
note_off channel=9 note=36 velocity=127 time=64
note_off channel=9 note=49 velocity=127 time=0
note_off channel=9 note=42 velocity=127 time=64
note_on channel=9 note=38 velocity=127 time=58
note_on channel=9 note=46 velocity=127 time=7
note_off channel=9 note=46 velocity=127 time=128
note_on channel=9 note=42 velocity=127 time=57
note_off channel=9 note=38 velocity=127 time=64
note_off channel=9 note=42 velocity=127 time=64
note_on channel=9 note=38 velocity=127 time=53
note_on channel=9 note=46 velocity=127 time=4
note_off channel=9 note=46 velocity=127 time=128
note_on channel=9 note=42 velocity=127 time=58
note_off channel=9 note=38 velocity=127 time=64
note_off channel=9 note=42 velocity=127 time=64
note_on channel=9 note=38 velocity=127 time=54
note_on channel=9 note=46 velocity=127 time=0
note_off channel=9 note=46 velocity=127 time=128
note_on channel=9 note=42 velocity=127 time=58
note_off channel=9 note=38 velocity=127 time=64
note_off channel=9 note=42 velocity=127 time=64
note_on channel=9 note=36 velocity=127 time=61
note_on channel=9 note=46 velocity=127 time=7
note_on channel=9 note=49 velocity=127 time=0
note_off channel=9 note=46 velocity=127 time=128
note_on channel=9 note=42 velocity=127 time=58
note_off channel=9 note=36 velocity=127 time=64
note_off channel=9 note=49 velocity=127 time=0
note_off channel=9 note=42 velocity=127 time=64
note_on channel=9 note=38 velocity=127 time=68
note_on channel=9 note=46 velocity=127 time=12
note_off channel=9 note=46 velocity=127 time=128
note_on channel=9 note=42 velocity=127 time=58
note_off channel=9 note=38 velocity=127 time=64
note_off channel=9 note=42 velocity=127 time=64
note_on channel=9 note=38 velocity=127 time=70
note_on channel=9 note=46 velocity=127 time=10
note_off channel=9 note=46 velocity=127 time=128
note_on channel=9 note=42 velocity=127 time=58
note_off channel=9 note=38 velocity=127 time=64
note_off channel=9 note=42 velocity=127 time=64
note_on channel=9 note=38 velocity=127 time=67
note_on channel=9 note=46 velocity=127 time=0
note_off channel=9 note=46 velocity=127 time=128
note_on channel=9 note=42 velocity=127 time=58
note_off channel=9 note=38 velocity=127 time=64
note_off channel=9 note=42 velocity=127 time=64
note_on channel=9 note=36 velocity=127 time=58
note_on channel=9 note=46 velocity=127 time=0
note_on channel=9 note=49 velocity=127 time=0
note_off channel=9 note=46 velocity=127 time=128
note_on channel=9 note=42 velocity=127 time=58
note_off channel=9 note=36 velocity=127 time=64
note_off channel=9 note=49 velocity=127 time=0
note_off channel=9 note=42 velocity=127 time=64
note_on channel=9 note=38 velocity=127 time=98
note_on channel=9 note=46 velocity=127 time=17
note_off channel=9 note=46 velocity=127 time=128
note_on channel=9 note=42 velocity=127 time=59
note_off channel=9 note=38 velocity=127 time=64
note_off channel=9 note=42 velocity=127 time=64
note_on channel=9 note=38 velocity=127 time=59
note_on channel=9 note=46 velocity=127 time=47
note_off channel=9 note=46 velocity=127 time=128
note_on channel=9 note=42 velocity=127 time=58
note_off channel=9 note=38 velocity=127 time=64
note_off channel=9 note=42 velocity=127 time=64
note_on channel=9 note=38 velocity=127 time=85
note_on channel=9 note=46 velocity=127 time=24
note_off channel=9 note=46 velocity=127 time=128
note_on channel=9 note=42 velocity=127 time=59
note_off channel=9 note=38 velocity=127 time=64
note_off channel=9 note=42 velocity=127 time=64
note_on channel=9 note=36 velocity=127 time=76
note_on channel=9 note=46 velocity=127 time=7
note_on channel=9 note=49 velocity=127 time=0
note_off channel=9 note=46 velocity=127 time=128
note_on channel=9 note=42 velocity=127 time=59
note_off channel=9 note=36 velocity=127 time=64
note_off channel=9 note=49 velocity=127 time=0
note_off channel=9 note=42 velocity=127 time=64
note_on channel=9 note=38 velocity=127 time=55
note_on channel=9 note=46 velocity=127 time=17
note_off channel=9 note=46 velocity=127 time=128
note_on channel=9 note=42 velocity=127 time=59
note_off channel=9 note=38 velocity=127 time=64
note_off channel=9 note=42 velocity=127 time=64
note_on channel=9 note=38 velocity=127 time=30
note_on channel=9 note=46 velocity=127 time=37
note_off channel=9 note=46 velocity=127 time=128
note_on channel=9 note=42 velocity=127 time=59
note_off channel=9 note=38 velocity=127 time=64
note_off channel=9 note=42 velocity=127 time=64
note_on channel=9 note=38 velocity=127 time=14
note_on channel=9 note=46 velocity=127 time=47
note_off channel=9 note=46 velocity=127 time=128
note_on channel=9 note=42 velocity=127 time=58
note_off channel=9 note=38 velocity=127 time=64
note_off channel=9 note=42 velocity=127 time=64
note_on channel=9 note=36 velocity=127 time=12
note_on channel=9 note=46 velocity=127 time=41
note_on channel=9 note=49 velocity=127 time=0
note_off channel=9 note=46 velocity=127 time=128
note_on channel=9 note=42 velocity=127 time=58
note_off channel=9 note=36 velocity=127 time=64
note_off channel=9 note=49 velocity=127 time=0
note_off channel=9 note=42 velocity=127 time=64
note_on channel=9 note=38 velocity=127 time=23
note_on channel=9 note=46 velocity=127 time=25
note_off channel=9 note=46 velocity=127 time=128
note_on channel=9 note=42 velocity=127 time=57
note_off channel=9 note=38 velocity=127 time=64
note_off channel=9 note=42 velocity=127 time=64
note_on channel=9 note=38 velocity=127 time=41
note_on channel=9 note=46 velocity=127 time=9
note_off channel=9 note=46 velocity=127 time=128
note_on channel=9 note=42 velocity=127 time=57
note_off channel=9 note=38 velocity=127 time=64
note_off channel=9 note=42 velocity=127 time=64
note_on channel=9 note=38 velocity=127 time=57
note_on channel=9 note=46 velocity=127 time=3
note_off channel=9 note=46 velocity=127 time=128
note_on channel=9 note=42 velocity=127 time=57
note_off channel=9 note=38 velocity=127 time=64
note_off channel=9 note=42 velocity=127 time=64
note_on channel=9 note=36 velocity=127 time=60
note_on channel=9 note=46 velocity=127 time=5
note_on channel=9 note=49 velocity=127 time=0
note_off channel=9 note=46 velocity=127 time=128
note_on channel=9 note=42 velocity=127 time=57
note_off channel=9 note=36 velocity=127 time=64
note_off channel=9 note=49 velocity=127 time=0
note_off channel=9 note=42 velocity=127 time=64
note_on channel=9 note=38 velocity=127 time=67
note_on channel=9 note=46 velocity=127 time=14
note_off channel=9 note=46 velocity=127 time=128
note_on channel=9 note=42 velocity=127 time=57
note_off channel=9 note=38 velocity=127 time=64
note_off channel=9 note=42 velocity=127 time=64
note_on channel=9 note=38 velocity=127 time=78
note_on channel=9 note=46 velocity=127 time=23
note_off channel=9 note=46 velocity=127 time=128
note_on channel=9 note=42 velocity=127 time=58
note_off channel=9 note=38 velocity=127 time=64
note_off channel=9 note=42 velocity=127 time=64
note_on channel=9 note=38 velocity=127 time=80
note_on channel=9 note=46 velocity=127 time=19
note_off channel=9 note=46 velocity=127 time=128
note_on channel=9 note=42 velocity=127 time=58
note_off channel=9 note=38 velocity=127 time=64
note_off channel=9 note=42 velocity=127 time=64
note_on channel=9 note=36 velocity=127 time=71
note_on channel=9 note=46 velocity=127 time=5
note_on channel=9 note=49 velocity=127 time=0
note_off channel=9 note=46 velocity=127 time=128
note_on channel=9 note=42 velocity=127 time=57
note_off channel=9 note=36 velocity=127 time=64
note_off channel=9 note=49 velocity=127 time=0
note_off channel=9 note=42 velocity=127 time=64
note_on channel=9 note=38 velocity=127 time=56
note_on channel=9 note=46 velocity=127 time=8
note_off channel=9 note=46 velocity=127 time=128
note_on channel=9 note=42 velocity=127 time=58
note_off channel=9 note=38 velocity=127 time=64
note_off channel=9 note=42 velocity=127 time=64
note_on channel=9 note=38 velocity=127 time=45
note_on channel=9 note=46 velocity=127 time=13
note_off channel=9 note=46 velocity=127 time=128
note_on channel=9 note=42 velocity=127 time=57
note_off channel=9 note=38 velocity=127 time=64
note_off channel=9 note=42 velocity=127 time=64
note_on channel=9 note=38 velocity=127 time=47
note_on channel=9 note=46 velocity=127 time=4
note_off channel=9 note=46 velocity=127 time=128
note_on channel=9 note=42 velocity=127 time=58
note_off channel=9 note=38 velocity=127 time=64
note_off channel=9 note=42 velocity=127 time=64
note_on channel=9 note=36 velocity=127 time=62
note_on channel=9 note=46 velocity=127 time=0
note_on channel=9 note=49 velocity=127 time=0
note_off channel=9 note=46 velocity=127 time=128
note_on channel=9 note=42 velocity=127 time=58
note_off channel=9 note=36 velocity=127 time=64
note_off channel=9 note=49 velocity=127 time=0
note_off channel=9 note=42 velocity=127 time=64
note_on channel=9 note=38 velocity=127 time=91
note_on channel=9 note=46 velocity=127 time=24
note_off channel=9 note=46 velocity=127 time=128
note_on channel=9 note=42 velocity=127 time=58
note_off channel=9 note=38 velocity=127 time=64
note_off channel=9 note=42 velocity=127 time=64
note_on channel=9 note=38 velocity=127 time=85
note_on channel=9 note=46 velocity=127 time=28
note_off channel=9 note=46 velocity=127 time=128
note_on channel=9 note=42 velocity=127 time=58
note_off channel=9 note=38 velocity=127 time=64
note_off channel=9 note=42 velocity=127 time=64
note_on channel=9 note=38 velocity=127 time=89
note_on channel=9 note=46 velocity=127 time=32
note_off channel=9 note=46 velocity=127 time=128
note_on channel=9 note=42 velocity=127 time=58
note_off channel=9 note=38 velocity=127 time=64
note_off channel=9 note=42 velocity=127 time=64
note_on channel=9 note=36 velocity=127 time=94
note_on channel=9 note=46 velocity=127 time=38
note_on channel=9 note=49 velocity=127 time=0
note_off channel=9 note=46 velocity=127 time=128
note_on channel=9 note=42 velocity=127 time=59
note_off channel=9 note=36 velocity=127 time=64
note_off channel=9 note=49 velocity=127 time=0
note_off channel=9 note=42 velocity=127 time=64
note_on channel=9 note=38 velocity=127 time=101
note_on channel=9 note=46 velocity=127 time=0
note_off channel=9 note=46 velocity=127 time=128
note_on channel=9 note=42 velocity=127 time=59
note_off channel=9 note=38 velocity=127 time=64
note_off channel=9 note=42 velocity=127 time=64
note_on channel=9 note=38 velocity=127 time=59
note_on channel=9 note=46 velocity=127 time=140
note_off channel=9 note=46 velocity=127 time=128
note_on channel=9 note=42 velocity=127 time=60
note_off channel=9 note=38 velocity=127 time=64
note_off channel=9 note=42 velocity=127 time=64
note_on channel=9 note=38 velocity=127 time=60
note_on channel=9 note=46 velocity=127 time=0
note_off channel=9 note=46 velocity=127 time=128
note_on channel=9 note=42 velocity=127 time=59
note_off channel=9 note=38 velocity=127 time=64
note_off channel=9 note=42 velocity=127 time=64
note_on channel=9 note=36 velocity=127 time=180
note_on channel=9 note=46 velocity=127 time=23
note_on channel=9 note=49 velocity=127 time=0
note_off channel=9 note=46 velocity=127 time=128
note_on channel=9 note=42 velocity=127 time=61
note_off channel=9 note=36 velocity=127 time=64
note_off channel=9 note=49 velocity=127 time=0
note_off channel=9 note=42 velocity=127 time=64
note_on channel=9 note=38 velocity=127 time=73
note_on channel=9 note=46 velocity=127 time=1
note_off channel=9 note=46 velocity=127 time=128
note_on channel=9 note=42 velocity=127 time=61
note_off channel=9 note=38 velocity=127 time=64
note_off channel=9 note=42 velocity=127 time=64
note_on channel=9 note=38 velocity=127 time=52
note_on channel=9 note=46 velocity=127 time=18
note_off channel=9 note=46 velocity=127 time=128
note_on channel=9 note=42 velocity=127 time=60
note_off channel=9 note=38 velocity=127 time=64
note_off channel=9 note=42 velocity=127 time=64
note_on channel=9 note=38 velocity=127 time=33
note_on channel=9 note=46 velocity=127 time=31
note_off channel=9 note=46 velocity=127 time=128
note_on channel=9 note=42 velocity=127 time=60
note_off channel=9 note=38 velocity=127 time=64
note_off channel=9 note=42 velocity=127 time=64
note_on channel=9 note=36 velocity=127 time=60
note_on channel=9 note=46 velocity=127 time=65
note_on channel=9 note=49 velocity=127 time=0
note_off channel=9 note=46 velocity=127 time=128
note_on channel=9 note=42 velocity=127 time=59
note_off channel=9 note=36 velocity=127 time=64
note_off channel=9 note=49 velocity=127 time=0
note_off channel=9 note=42 velocity=127 time=64
note_on channel=9 note=38 velocity=127 time=31
note_on channel=9 note=46 velocity=127 time=23
note_off channel=9 note=46 velocity=127 time=128
note_on channel=9 note=42 velocity=127 time=60
note_off channel=9 note=38 velocity=127 time=64
note_off channel=9 note=42 velocity=127 time=64
note_on channel=9 note=38 velocity=127 time=40
note_on channel=9 note=46 velocity=127 time=17
note_off channel=9 note=46 velocity=127 time=128
note_on channel=9 note=42 velocity=127 time=59
note_off channel=9 note=38 velocity=127 time=64
note_off channel=9 note=42 velocity=127 time=64
note_on channel=9 note=38 velocity=127 time=40
note_on channel=9 note=46 velocity=127 time=25
note_off channel=9 note=46 velocity=127 time=128
note_on channel=9 note=42 velocity=127 time=59
note_off channel=9 note=38 velocity=127 time=64
note_off channel=9 note=42 velocity=127 time=64
note_on channel=9 note=36 velocity=127 time=25
note_on channel=9 note=46 velocity=127 time=0
note_on channel=9 note=49 velocity=127 time=0
note_off channel=9 note=46 velocity=127 time=128
note_on channel=9 note=42 velocity=127 time=59
note_off channel=9 note=36 velocity=127 time=64
note_off channel=9 note=49 velocity=127 time=0
note_off channel=9 note=42 velocity=127 time=64
note_on channel=9 note=38 velocity=127 time=31
note_on channel=9 note=46 velocity=127 time=49
note_off channel=9 note=46 velocity=127 time=128
note_on channel=9 note=42 velocity=127 time=59
note_off channel=9 note=38 velocity=127 time=64
note_off channel=9 note=42 velocity=127 time=64
note_on channel=9 note=38 velocity=127 time=14
note_on channel=9 note=46 velocity=127 time=35
note_off channel=9 note=46 velocity=127 time=128
note_on channel=9 note=42 velocity=127 time=58
note_off channel=9 note=38 velocity=127 time=64
note_off channel=9 note=42 velocity=127 time=64
note_on channel=9 note=38 velocity=127 time=32
note_on channel=9 note=46 velocity=127 time=16
note_off channel=9 note=46 velocity=127 time=128
note_on channel=9 note=42 velocity=127 time=58
note_off channel=9 note=38 velocity=127 time=64
note_off channel=9 note=42 velocity=127 time=64
note_on channel=9 note=36 velocity=127 time=49
note_on channel=9 note=46 velocity=127 time=3
note_on channel=9 note=49 velocity=127 time=0
note_off channel=9 note=46 velocity=127 time=128
note_on channel=9 note=42 velocity=127 time=58
note_off channel=9 note=36 velocity=127 time=64
note_off channel=9 note=49 velocity=127 time=0
note_off channel=9 note=42 velocity=127 time=64
note_on channel=9 note=38 velocity=127 time=56
note_on channel=9 note=46 velocity=127 time=1
note_off channel=9 note=46 velocity=127 time=128
note_on channel=9 note=42 velocity=127 time=57
note_off channel=9 note=38 velocity=127 time=64
note_off channel=9 note=42 velocity=127 time=64
note_on channel=9 note=38 velocity=127 time=54
note_on channel=9 note=46 velocity=127 time=7
note_off channel=9 note=46 velocity=127 time=128
note_on channel=9 note=42 velocity=127 time=58
note_off channel=9 note=38 velocity=127 time=64
note_off channel=9 note=42 velocity=127 time=64
note_on channel=9 note=38 velocity=127 time=48
note_on channel=9 note=46 velocity=127 time=11
note_off channel=9 note=46 velocity=127 time=128
note_on channel=9 note=42 velocity=127 time=57
note_off channel=9 note=38 velocity=127 time=64
note_off channel=9 note=42 velocity=127 time=64
note_on channel=9 note=36 velocity=127 time=48
note_on channel=9 note=46 velocity=127 time=6
note_on channel=9 note=49 velocity=127 time=0
note_off channel=9 note=46 velocity=127 time=128
note_on channel=9 note=42 velocity=127 time=58
note_off channel=9 note=36 velocity=127 time=64
note_off channel=9 note=49 velocity=127 time=0
note_off channel=9 note=42 velocity=127 time=64
note_on channel=9 note=38 velocity=127 time=57
note_on channel=9 note=46 velocity=127 time=7
note_off channel=9 note=46 velocity=127 time=128
note_on channel=9 note=42 velocity=127 time=58
note_off channel=9 note=38 velocity=127 time=64
note_off channel=9 note=42 velocity=127 time=64
note_on channel=9 note=38 velocity=127 time=71
note_on channel=9 note=46 velocity=127 time=15
note_off channel=9 note=46 velocity=127 time=128
note_on channel=9 note=42 velocity=127 time=58
note_off channel=9 note=38 velocity=127 time=64
note_off channel=9 note=42 velocity=127 time=64
note_on channel=9 note=38 velocity=127 time=70
note_on channel=9 note=46 velocity=127 time=0
note_off channel=9 note=46 velocity=127 time=128
note_on channel=9 note=42 velocity=127 time=58
note_off channel=9 note=38 velocity=127 time=64
note_off channel=9 note=42 velocity=127 time=64
note_on channel=9 note=36 velocity=127 time=55
note_on channel=9 note=46 velocity=127 time=18
note_on channel=9 note=49 velocity=127 time=0
note_off channel=9 note=46 velocity=127 time=128
note_on channel=9 note=42 velocity=127 time=57
note_off channel=9 note=36 velocity=127 time=64
note_off channel=9 note=49 velocity=127 time=0
note_off channel=9 note=42 velocity=127 time=64
note_on channel=9 note=38 velocity=127 time=58
note_on channel=9 note=46 velocity=127 time=67
note_off channel=9 note=46 velocity=127 time=128
note_on channel=9 note=42 velocity=127 time=58
note_off channel=9 note=38 velocity=127 time=64
note_off channel=9 note=42 velocity=127 time=64
note_on channel=9 note=38 velocity=127 time=16
note_on channel=9 note=46 velocity=127 time=39
note_off channel=9 note=46 velocity=127 time=128
note_on channel=9 note=42 velocity=127 time=57
note_off channel=9 note=38 velocity=127 time=64
note_off channel=9 note=42 velocity=127 time=64
note_on channel=9 note=38 velocity=127 time=27
note_on channel=9 note=46 velocity=127 time=18
note_off channel=9 note=46 velocity=127 time=128
note_on channel=9 note=42 velocity=127 time=57
note_off channel=9 note=38 velocity=127 time=64
note_off channel=9 note=42 velocity=127 time=64
note_on channel=9 note=36 velocity=127 time=52
note_on channel=9 note=46 velocity=127 time=7
note_on channel=9 note=49 velocity=127 time=0
note_off channel=9 note=46 velocity=127 time=128
note_on channel=9 note=42 velocity=127 time=57
note_off channel=9 note=36 velocity=127 time=64
note_off channel=9 note=49 velocity=127 time=0
note_off channel=9 note=42 velocity=127 time=64
note_on channel=9 note=38 velocity=127 time=71
note_on channel=9 note=46 velocity=127 time=16
note_off channel=9 note=46 velocity=127 time=128
note_on channel=9 note=42 velocity=127 time=57
note_off channel=9 note=38 velocity=127 time=64
note_off channel=9 note=42 velocity=127 time=64
note_on channel=9 note=38 velocity=127 time=70
note_on channel=9 note=46 velocity=127 time=8
note_off channel=9 note=46 velocity=127 time=128
note_on channel=9 note=42 velocity=127 time=57
note_off channel=9 note=38 velocity=127 time=64
note_off channel=9 note=42 velocity=127 time=64
note_on channel=9 note=38 velocity=127 time=62
note_on channel=9 note=46 velocity=127 time=3
note_off channel=9 note=46 velocity=127 time=128
note_on channel=9 note=42 velocity=127 time=57
note_off channel=9 note=38 velocity=127 time=64
note_off channel=9 note=42 velocity=127 time=64
note_on channel=9 note=36 velocity=127 time=62
note_on channel=9 note=46 velocity=127 time=0
note_on channel=9 note=49 velocity=127 time=0
note_off channel=9 note=46 velocity=127 time=128
note_on channel=9 note=42 velocity=127 time=57
note_off channel=9 note=36 velocity=127 time=64
note_off channel=9 note=49 velocity=127 time=0
note_off channel=9 note=42 velocity=127 time=64
note_on channel=9 note=38 velocity=127 time=83
note_on channel=9 note=46 velocity=127 time=21
note_off channel=9 note=46 velocity=127 time=128
note_on channel=9 note=42 velocity=127 time=57
note_off channel=9 note=38 velocity=127 time=64
note_off channel=9 note=42 velocity=127 time=64
note_on channel=9 note=38 velocity=127 time=58
note_on channel=9 note=46 velocity=127 time=0
note_off channel=9 note=46 velocity=127 time=128
note_on channel=9 note=42 velocity=127 time=58
note_off channel=9 note=38 velocity=127 time=64
note_off channel=9 note=42 velocity=127 time=64
note_on channel=9 note=38 velocity=127 time=147
note_on channel=9 note=46 velocity=127 time=33
note_off channel=9 note=46 velocity=127 time=128
note_on channel=9 note=42 velocity=127 time=57
note_off channel=9 note=38 velocity=127 time=64
note_off channel=9 note=42 velocity=127 time=64
note_on channel=9 note=36 velocity=127 time=92
note_on channel=9 note=46 velocity=127 time=34
note_on channel=9 note=49 velocity=127 time=0
note_off channel=9 note=46 velocity=127 time=128
note_on channel=9 note=42 velocity=127 time=58
note_off channel=9 note=36 velocity=127 time=64
note_off channel=9 note=49 velocity=127 time=0
note_off channel=9 note=42 velocity=127 time=64
note_on channel=9 note=38 velocity=127 time=93
note_on channel=9 note=46 velocity=127 time=0
note_off channel=9 note=46 velocity=127 time=128
note_on channel=9 note=42 velocity=127 time=58
note_off channel=9 note=38 velocity=127 time=64
note_off channel=9 note=42 velocity=127 time=64
note_on channel=9 note=38 velocity=127 time=133
note_on channel=9 note=46 velocity=127 time=0
note_off channel=9 note=46 velocity=127 time=128
note_on channel=9 note=42 velocity=127 time=59
note_off channel=9 note=38 velocity=127 time=64
note_off channel=9 note=42 velocity=127 time=64
note_on channel=9 note=38 velocity=127 time=141
note_on channel=9 note=46 velocity=127 time=0
note_off channel=9 note=46 velocity=127 time=128
note_on channel=9 note=42 velocity=127 time=59
note_off channel=9 note=38 velocity=127 time=64
note_off channel=9 note=42 velocity=127 time=64
note_on channel=9 note=36 velocity=127 time=24453
note_on channel=9 note=46 velocity=127 time=960
note_on channel=9 note=49 velocity=127 time=0
note_off channel=9 note=46 velocity=127 time=128
note_on channel=9 note=42 velocity=127 time=58
note_off channel=9 note=36 velocity=127 time=64
note_off channel=9 note=49 velocity=127 time=0
note_off channel=9 note=42 velocity=127 time=64
note_on channel=9 note=38 velocity=127 time=5
note_on channel=9 note=46 velocity=127 time=57
note_off channel=9 note=46 velocity=127 time=128
note_on channel=9 note=42 velocity=127 time=58
note_off channel=9 note=38 velocity=127 time=64
note_off channel=9 note=42 velocity=127 time=64
note_on channel=9 note=38 velocity=127 time=20
note_on channel=9 note=46 velocity=127 time=8
note_off channel=9 note=46 velocity=127 time=128
note_on channel=9 note=42 velocity=127 time=58
note_off channel=9 note=38 velocity=127 time=64
note_off channel=9 note=42 velocity=127 time=64
note_on channel=9 note=38 velocity=127 time=81
note_on channel=9 note=46 velocity=127 time=49
note_off channel=9 note=46 velocity=127 time=128
note_on channel=9 note=42 velocity=127 time=57
note_off channel=9 note=38 velocity=127 time=64
note_off channel=9 note=42 velocity=127 time=64
note_on channel=9 note=36 velocity=127 time=121
note_on channel=9 note=46 velocity=127 time=65
note_on channel=9 note=49 velocity=127 time=0
note_off channel=9 note=46 velocity=127 time=128
note_on channel=9 note=42 velocity=127 time=58
note_off channel=9 note=36 velocity=127 time=64
note_off channel=9 note=49 velocity=127 time=0
note_off channel=9 note=42 velocity=127 time=64
note_on channel=9 note=38 velocity=127 time=110
note_on channel=9 note=46 velocity=127 time=30
note_off channel=9 note=46 velocity=127 time=128
note_on channel=9 note=42 velocity=127 time=57
note_off channel=9 note=38 velocity=127 time=64
note_off channel=9 note=42 velocity=127 time=64
note_on channel=9 note=38 velocity=127 time=60
note_on channel=9 note=46 velocity=127 time=25
note_off channel=9 note=46 velocity=127 time=128
note_on channel=9 note=42 velocity=127 time=58
note_off channel=9 note=38 velocity=127 time=64
note_off channel=9 note=42 velocity=127 time=64
note_on channel=9 note=38 velocity=127 time=10
note_on channel=9 note=46 velocity=127 time=63
note_off channel=9 note=46 velocity=127 time=128
note_on channel=9 note=42 velocity=127 time=57
note_off channel=9 note=38 velocity=127 time=64
note_off channel=9 note=42 velocity=127 time=64
note_on channel=9 note=36 velocity=127 time=11
note_on channel=9 note=46 velocity=127 time=73
note_on channel=9 note=49 velocity=127 time=0
note_off channel=9 note=46 velocity=127 time=128
note_on channel=9 note=42 velocity=127 time=58
note_off channel=9 note=36 velocity=127 time=64
note_off channel=9 note=49 velocity=127 time=0
note_off channel=9 note=42 velocity=127 time=64
note_on channel=9 note=38 velocity=127 time=14
note_on channel=9 note=46 velocity=127 time=68
note_off channel=9 note=46 velocity=127 time=128
note_on channel=9 note=42 velocity=127 time=57
note_off channel=9 note=38 velocity=127 time=64
note_off channel=9 note=42 velocity=127 time=64
note_on channel=9 note=38 velocity=127 time=6
note_on channel=9 note=46 velocity=127 time=56
note_off channel=9 note=46 velocity=127 time=128
note_on channel=9 note=42 velocity=127 time=57
note_off channel=9 note=38 velocity=127 time=64
note_off channel=9 note=42 velocity=127 time=64
note_on channel=9 note=38 velocity=127 time=56
note_on channel=9 note=46 velocity=127 time=71
note_off channel=9 note=46 velocity=127 time=128
note_on channel=9 note=42 velocity=127 time=57
note_off channel=9 note=38 velocity=127 time=64
note_off channel=9 note=42 velocity=127 time=64
note_on channel=9 note=36 velocity=127 time=52
note_on channel=9 note=46 velocity=127 time=23
note_on channel=9 note=49 velocity=127 time=0
note_off channel=9 note=46 velocity=127 time=128
note_on channel=9 note=42 velocity=127 time=57
note_off channel=9 note=36 velocity=127 time=64
note_off channel=9 note=49 velocity=127 time=0
note_off channel=9 note=42 velocity=127 time=64
note_on channel=9 note=38 velocity=127 time=113
note_on channel=9 note=46 velocity=127 time=94
note_off channel=9 note=46 velocity=127 time=128
note_on channel=9 note=42 velocity=127 time=57
note_off channel=9 note=38 velocity=127 time=64
note_off channel=9 note=42 velocity=127 time=64
note_on channel=9 note=38 velocity=127 time=190
note_on channel=9 note=46 velocity=127 time=161
note_off channel=9 note=46 velocity=127 time=128
note_on channel=9 note=42 velocity=127 time=57
note_off channel=9 note=38 velocity=127 time=64
note_off channel=9 note=42 velocity=127 time=64
note_on channel=9 note=38 velocity=127 time=230
note_on channel=9 note=46 velocity=127 time=168
note_off channel=9 note=46 velocity=127 time=128
note_on channel=9 note=42 velocity=127 time=58
note_off channel=9 note=38 velocity=127 time=64
note_off channel=9 note=42 velocity=127 time=64
note_on channel=9 note=36 velocity=127 time=202
note_on channel=9 note=46 velocity=127 time=106
note_on channel=9 note=49 velocity=127 time=0
note_off channel=9 note=46 velocity=127 time=128
note_on channel=9 note=42 velocity=127 time=59
note_off channel=9 note=36 velocity=127 time=64
note_off channel=9 note=49 velocity=127 time=0
note_off channel=9 note=42 velocity=127 time=64
note_on channel=9 note=38 velocity=127 time=126
note_on channel=9 note=46 velocity=127 time=23
note_off channel=9 note=46 velocity=127 time=128
note_on channel=9 note=42 velocity=127 time=59
note_off channel=9 note=38 velocity=127 time=64
note_off channel=9 note=42 velocity=127 time=64
note_on channel=9 note=38 velocity=127 time=44
note_on channel=9 note=46 velocity=127 time=41
note_off channel=9 note=46 velocity=127 time=128
note_on channel=9 note=42 velocity=127 time=59
note_off channel=9 note=38 velocity=127 time=64
note_off channel=9 note=42 velocity=127 time=64
note_on channel=9 note=38 velocity=127 time=4
note_on channel=9 note=46 velocity=127 time=50
note_off channel=9 note=46 velocity=127 time=128
note_on channel=9 note=42 velocity=127 time=59
note_off channel=9 note=38 velocity=127 time=64
note_off channel=9 note=42 velocity=127 time=64
note_on channel=9 note=36 velocity=127 time=29
note_on channel=9 note=46 velocity=127 time=3
note_on channel=9 note=49 velocity=127 time=0
note_off channel=9 note=46 velocity=127 time=128
note_on channel=9 note=42 velocity=127 time=58
note_off channel=9 note=36 velocity=127 time=64
note_off channel=9 note=49 velocity=127 time=0
note_off channel=9 note=42 velocity=127 time=64
note_on channel=9 note=38 velocity=127 time=97
note_on channel=9 note=46 velocity=127 time=70
note_off channel=9 note=46 velocity=127 time=128
note_on channel=9 note=42 velocity=127 time=58
note_off channel=9 note=38 velocity=127 time=64
note_off channel=9 note=42 velocity=127 time=64
note_on channel=9 note=38 velocity=127 time=152
note_on channel=9 note=46 velocity=127 time=113
note_off channel=9 note=46 velocity=127 time=128
note_on channel=9 note=42 velocity=127 time=59
note_off channel=9 note=38 velocity=127 time=64
note_off channel=9 note=42 velocity=127 time=64
note_on channel=9 note=38 velocity=127 time=186
note_on channel=9 note=46 velocity=127 time=134
note_off channel=9 note=46 velocity=127 time=128
note_on channel=9 note=42 velocity=127 time=59
note_off channel=9 note=38 velocity=127 time=64
note_off channel=9 note=42 velocity=127 time=64
note_on channel=9 note=36 velocity=127 time=197
note_on channel=9 note=46 velocity=127 time=136
note_on channel=9 note=49 velocity=127 time=0
note_off channel=9 note=46 velocity=127 time=128
note_on channel=9 note=42 velocity=127 time=60
note_off channel=9 note=36 velocity=127 time=64
note_off channel=9 note=49 velocity=127 time=0
note_off channel=9 note=42 velocity=127 time=64
note_on channel=9 note=38 velocity=127 time=190
note_on channel=9 note=46 velocity=127 time=121
note_off channel=9 note=46 velocity=127 time=128
note_on channel=9 note=42 velocity=127 time=60
note_off channel=9 note=38 velocity=127 time=64
note_off channel=9 note=42 velocity=127 time=64
note_on channel=9 note=38 velocity=127 time=172
note_on channel=9 note=46 velocity=127 time=100
note_off channel=9 note=46 velocity=127 time=128
note_on channel=9 note=42 velocity=127 time=60
note_off channel=9 note=38 velocity=127 time=64
note_off channel=9 note=42 velocity=127 time=64
note_on channel=9 note=38 velocity=127 time=149
note_on channel=9 note=46 velocity=127 time=77
note_off channel=9 note=46 velocity=127 time=128
note_on channel=9 note=42 velocity=127 time=60
note_off channel=9 note=38 velocity=127 time=64
note_off channel=9 note=42 velocity=127 time=64
<meta message end_of_track time=0>
<meta message track_name name='voc -bu' time=0>
control_change channel=10 control=0 value=0 time=0
program_change channel=10 program=48 time=0
control_change channel=10 control=91 value=21 time=0
control_change channel=10 control=93 value=121 time=0
<meta message key_signature key='E' time=0>
note_on channel=10 note=76 velocity=118 time=7431
note_on channel=10 note=76 velocity=118 time=101
note_on channel=10 note=76 velocity=118 time=0
note_on channel=10 note=76 velocity=118 time=0
note_on channel=10 note=76 velocity=118 time=0
note_on channel=10 note=64 velocity=118 time=0
note_on channel=10 note=64 velocity=118 time=0
note_on channel=10 note=64 velocity=118 time=0
note_on channel=10 note=64 velocity=118 time=0
note_on channel=10 note=64 velocity=118 time=0
note_off channel=10 note=76 velocity=118 time=64
note_off channel=10 note=76 velocity=118 time=0
note_off channel=10 note=76 velocity=118 time=0
note_off channel=10 note=76 velocity=118 time=0
note_off channel=10 note=76 velocity=118 time=0
note_off channel=10 note=64 velocity=118 time=0
note_off channel=10 note=64 velocity=118 time=0
note_off channel=10 note=64 velocity=118 time=0
note_off channel=10 note=64 velocity=118 time=0
note_off channel=10 note=64 velocity=118 time=0
note_on channel=10 note=76 velocity=118 time=31
note_on channel=10 note=76 velocity=118 time=1
note_on channel=10 note=76 velocity=118 time=0
note_on channel=10 note=76 velocity=118 time=0
note_on channel=10 note=76 velocity=118 time=0
note_on channel=10 note=64 velocity=118 time=0
note_on channel=10 note=64 velocity=118 time=0
note_on channel=10 note=64 velocity=118 time=0
note_on channel=10 note=64 velocity=118 time=0
note_on channel=10 note=64 velocity=118 time=0
note_off channel=10 note=76 velocity=118 time=128
note_off channel=10 note=76 velocity=118 time=0
note_off channel=10 note=76 velocity=118 time=0
note_off channel=10 note=76 velocity=118 time=0
note_off channel=10 note=76 velocity=118 time=0
note_off channel=10 note=64 velocity=118 time=0
note_off channel=10 note=64 velocity=118 time=0
note_off channel=10 note=64 velocity=118 time=0
note_off channel=10 note=64 velocity=118 time=0
note_off channel=10 note=64 velocity=118 time=0
note_on channel=10 note=76 velocity=118 time=62
note_on channel=10 note=76 velocity=118 time=3
note_on channel=10 note=76 velocity=118 time=0
note_on channel=10 note=76 velocity=118 time=0
note_on channel=10 note=76 velocity=118 time=0
note_on channel=10 note=64 velocity=118 time=0
note_on channel=10 note=64 velocity=118 time=0
note_on channel=10 note=64 velocity=118 time=0
note_on channel=10 note=64 velocity=118 time=0
note_on channel=10 note=64 velocity=118 time=0
note_off channel=10 note=76 velocity=118 time=256
note_off channel=10 note=76 velocity=118 time=0
note_off channel=10 note=76 velocity=118 time=0
note_off channel=10 note=76 velocity=118 time=0
note_off channel=10 note=76 velocity=118 time=0
note_off channel=10 note=64 velocity=118 time=0
note_off channel=10 note=64 velocity=118 time=0
note_off channel=10 note=64 velocity=118 time=0
note_off channel=10 note=64 velocity=118 time=0
note_off channel=10 note=64 velocity=118 time=0
note_on channel=10 note=74 velocity=118 time=313
note_on channel=10 note=74 velocity=118 time=11
note_on channel=10 note=74 velocity=118 time=0
note_on channel=10 note=74 velocity=118 time=0
note_on channel=10 note=74 velocity=118 time=0
note_on channel=10 note=62 velocity=118 time=0
note_on channel=10 note=62 velocity=118 time=0
note_on channel=10 note=62 velocity=118 time=0
note_on channel=10 note=62 velocity=118 time=0
note_on channel=10 note=62 velocity=118 time=0
note_off channel=10 note=74 velocity=118 time=64
note_off channel=10 note=74 velocity=118 time=0
note_off channel=10 note=74 velocity=118 time=0
note_off channel=10 note=74 velocity=118 time=0
note_off channel=10 note=74 velocity=118 time=0
note_off channel=10 note=62 velocity=118 time=0
note_off channel=10 note=62 velocity=118 time=0
note_off channel=10 note=62 velocity=118 time=0
note_off channel=10 note=62 velocity=118 time=0
note_off channel=10 note=62 velocity=118 time=0
note_on channel=10 note=74 velocity=118 time=31
note_on channel=10 note=74 velocity=118 time=5
note_on channel=10 note=74 velocity=118 time=0
note_on channel=10 note=74 velocity=118 time=0
note_on channel=10 note=74 velocity=118 time=0
note_on channel=10 note=62 velocity=118 time=0
note_on channel=10 note=62 velocity=118 time=0
note_on channel=10 note=62 velocity=118 time=0
note_on channel=10 note=62 velocity=118 time=0
note_on channel=10 note=62 velocity=118 time=0
note_off channel=10 note=74 velocity=118 time=64
note_off channel=10 note=74 velocity=118 time=0
note_off channel=10 note=74 velocity=118 time=0
note_off channel=10 note=74 velocity=118 time=0
note_off channel=10 note=74 velocity=118 time=0
note_off channel=10 note=62 velocity=118 time=0
note_off channel=10 note=62 velocity=118 time=0
note_off channel=10 note=62 velocity=118 time=0
note_off channel=10 note=62 velocity=118 time=0
note_off channel=10 note=62 velocity=118 time=0
note_on channel=10 note=74 velocity=118 time=31
note_on channel=10 note=74 velocity=118 time=5
note_on channel=10 note=74 velocity=118 time=0
note_on channel=10 note=74 velocity=118 time=0
note_on channel=10 note=74 velocity=118 time=0
note_on channel=10 note=62 velocity=118 time=0
note_on channel=10 note=62 velocity=118 time=0
note_on channel=10 note=62 velocity=118 time=0
note_on channel=10 note=62 velocity=118 time=0
note_on channel=10 note=62 velocity=118 time=0
note_off channel=10 note=74 velocity=118 time=64
note_off channel=10 note=74 velocity=118 time=0
note_off channel=10 note=74 velocity=118 time=0
note_off channel=10 note=74 velocity=118 time=0
note_off channel=10 note=74 velocity=118 time=0
note_off channel=10 note=62 velocity=118 time=0
note_off channel=10 note=62 velocity=118 time=0
note_off channel=10 note=62 velocity=118 time=0
note_off channel=10 note=62 velocity=118 time=0
note_off channel=10 note=62 velocity=118 time=0
note_on channel=10 note=74 velocity=118 time=31
note_on channel=10 note=74 velocity=118 time=5
note_on channel=10 note=74 velocity=118 time=0
note_on channel=10 note=74 velocity=118 time=0
note_on channel=10 note=74 velocity=118 time=0
note_on channel=10 note=62 velocity=118 time=0
note_on channel=10 note=62 velocity=118 time=0
note_on channel=10 note=62 velocity=118 time=0
note_on channel=10 note=62 velocity=118 time=0
note_on channel=10 note=62 velocity=118 time=0
note_off channel=10 note=74 velocity=118 time=256
note_off channel=10 note=74 velocity=118 time=0
note_off channel=10 note=74 velocity=118 time=0
note_off channel=10 note=74 velocity=118 time=0
note_off channel=10 note=74 velocity=118 time=0
note_off channel=10 note=62 velocity=118 time=0
note_off channel=10 note=62 velocity=118 time=0
note_off channel=10 note=62 velocity=118 time=0
note_off channel=10 note=62 velocity=118 time=0
note_off channel=10 note=62 velocity=118 time=0
note_on channel=10 note=76 velocity=118 time=220
note_on channel=10 note=76 velocity=118 time=37
note_on channel=10 note=76 velocity=118 time=0
note_on channel=10 note=76 velocity=118 time=0
note_on channel=10 note=76 velocity=118 time=0
note_on channel=10 note=64 velocity=118 time=0
note_on channel=10 note=64 velocity=118 time=0
note_on channel=10 note=64 velocity=118 time=0
note_on channel=10 note=64 velocity=118 time=0
note_on channel=10 note=64 velocity=118 time=0
note_off channel=10 note=76 velocity=118 time=64
note_off channel=10 note=76 velocity=118 time=0
note_off channel=10 note=76 velocity=118 time=0
note_off channel=10 note=76 velocity=118 time=0
note_off channel=10 note=76 velocity=118 time=0
note_off channel=10 note=64 velocity=118 time=0
note_off channel=10 note=64 velocity=118 time=0
note_off channel=10 note=64 velocity=118 time=0
note_off channel=10 note=64 velocity=118 time=0
note_off channel=10 note=64 velocity=118 time=0
note_on channel=10 note=76 velocity=118 time=32
note_on channel=10 note=76 velocity=118 time=3
note_on channel=10 note=76 velocity=118 time=0
note_on channel=10 note=76 velocity=118 time=0
note_on channel=10 note=76 velocity=118 time=0
note_on channel=10 note=64 velocity=118 time=0
note_on channel=10 note=64 velocity=118 time=0
note_on channel=10 note=64 velocity=118 time=0
note_on channel=10 note=64 velocity=118 time=0
note_on channel=10 note=64 velocity=118 time=0
note_off channel=10 note=76 velocity=118 time=64
note_off channel=10 note=76 velocity=118 time=0
note_off channel=10 note=76 velocity=118 time=0
note_off channel=10 note=76 velocity=118 time=0
note_off channel=10 note=76 velocity=118 time=0
note_off channel=10 note=64 velocity=118 time=0
note_off channel=10 note=64 velocity=118 time=0
note_off channel=10 note=64 velocity=118 time=0
note_off channel=10 note=64 velocity=118 time=0
note_off channel=10 note=64 velocity=118 time=0
note_on channel=10 note=76 velocity=118 time=31
note_on channel=10 note=76 velocity=118 time=2
note_on channel=10 note=76 velocity=118 time=0
note_on channel=10 note=76 velocity=118 time=0
note_on channel=10 note=76 velocity=118 time=0
note_on channel=10 note=64 velocity=118 time=0
note_on channel=10 note=64 velocity=118 time=0
note_on channel=10 note=64 velocity=118 time=0
note_on channel=10 note=64 velocity=118 time=0
note_on channel=10 note=64 velocity=118 time=0
note_off channel=10 note=76 velocity=118 time=64
note_off channel=10 note=76 velocity=118 time=0
note_off channel=10 note=76 velocity=118 time=0
note_off channel=10 note=76 velocity=118 time=0
note_off channel=10 note=76 velocity=118 time=0
note_off channel=10 note=64 velocity=118 time=0
note_off channel=10 note=64 velocity=118 time=0
note_off channel=10 note=64 velocity=118 time=0
note_off channel=10 note=64 velocity=118 time=0
note_off channel=10 note=64 velocity=118 time=0
note_on channel=10 note=76 velocity=118 time=31
note_on channel=10 note=76 velocity=118 time=2
note_on channel=10 note=76 velocity=118 time=0
note_on channel=10 note=76 velocity=118 time=0
note_on channel=10 note=76 velocity=118 time=0
note_on channel=10 note=64 velocity=118 time=0
note_on channel=10 note=64 velocity=118 time=0
note_on channel=10 note=64 velocity=118 time=0
note_on channel=10 note=64 velocity=118 time=0
note_on channel=10 note=64 velocity=118 time=0
note_off channel=10 note=76 velocity=118 time=128
note_off channel=10 note=76 velocity=118 time=0
note_off channel=10 note=76 velocity=118 time=0
note_off channel=10 note=76 velocity=118 time=0
note_off channel=10 note=76 velocity=118 time=0
note_off channel=10 note=64 velocity=118 time=0
note_off channel=10 note=64 velocity=118 time=0
note_off channel=10 note=64 velocity=118 time=0
note_off channel=10 note=64 velocity=118 time=0
note_off channel=10 note=64 velocity=118 time=0
note_on channel=10 note=71 velocity=118 time=63
note_on channel=10 note=71 velocity=118 time=2
note_on channel=10 note=71 velocity=118 time=0
note_on channel=10 note=71 velocity=118 time=0
note_on channel=10 note=71 velocity=118 time=0
note_on channel=10 note=59 velocity=118 time=0
note_on channel=10 note=59 velocity=118 time=0
note_on channel=10 note=59 velocity=118 time=0
note_on channel=10 note=59 velocity=118 time=0
note_on channel=10 note=59 velocity=118 time=0
note_off channel=10 note=71 velocity=118 time=128
note_off channel=10 note=71 velocity=118 time=0
note_off channel=10 note=71 velocity=118 time=0
note_off channel=10 note=71 velocity=118 time=0
note_off channel=10 note=71 velocity=118 time=0
note_off channel=10 note=59 velocity=118 time=0
note_off channel=10 note=59 velocity=118 time=0
note_off channel=10 note=59 velocity=118 time=0
note_off channel=10 note=59 velocity=118 time=0
note_off channel=10 note=59 velocity=118 time=0
note_on channel=10 note=69 velocity=118 time=63
note_on channel=10 note=69 velocity=118 time=0
note_on channel=10 note=69 velocity=118 time=0
note_on channel=10 note=69 velocity=118 time=0
note_on channel=10 note=69 velocity=118 time=0
note_on channel=10 note=57 velocity=118 time=0
note_on channel=10 note=57 velocity=118 time=0
note_on channel=10 note=57 velocity=118 time=0
note_on channel=10 note=57 velocity=118 time=0
note_on channel=10 note=57 velocity=118 time=0
note_off channel=10 note=69 velocity=118 time=64
note_off channel=10 note=69 velocity=118 time=0
note_off channel=10 note=69 velocity=118 time=0
note_off channel=10 note=69 velocity=118 time=0
note_off channel=10 note=69 velocity=118 time=0
note_off channel=10 note=57 velocity=118 time=0
note_off channel=10 note=57 velocity=118 time=0
note_off channel=10 note=57 velocity=118 time=0
note_off channel=10 note=57 velocity=118 time=0
note_off channel=10 note=57 velocity=118 time=0
note_on channel=10 note=68 velocity=118 time=31
note_on channel=10 note=68 velocity=118 time=1
note_on channel=10 note=68 velocity=118 time=0
note_on channel=10 note=68 velocity=118 time=0
note_on channel=10 note=68 velocity=118 time=0
note_on channel=10 note=56 velocity=118 time=0
note_on channel=10 note=56 velocity=118 time=0
note_on channel=10 note=56 velocity=118 time=0
note_on channel=10 note=56 velocity=118 time=0
note_on channel=10 note=56 velocity=118 time=0
note_off channel=10 note=68 velocity=118 time=64
note_off channel=10 note=68 velocity=118 time=0
note_off channel=10 note=68 velocity=118 time=0
note_off channel=10 note=68 velocity=118 time=0
note_off channel=10 note=68 velocity=118 time=0
note_off channel=10 note=56 velocity=118 time=0
note_off channel=10 note=56 velocity=118 time=0
note_off channel=10 note=56 velocity=118 time=0
note_off channel=10 note=56 velocity=118 time=0
note_off channel=10 note=56 velocity=118 time=0
note_on channel=10 note=71 velocity=118 time=31
note_on channel=10 note=71 velocity=118 time=1
note_on channel=10 note=71 velocity=118 time=0
note_on channel=10 note=71 velocity=118 time=0
note_on channel=10 note=71 velocity=118 time=0
note_on channel=10 note=59 velocity=118 time=0
note_on channel=10 note=59 velocity=118 time=0
note_on channel=10 note=59 velocity=118 time=0
note_on channel=10 note=59 velocity=118 time=0
note_on channel=10 note=59 velocity=118 time=0
note_off channel=10 note=71 velocity=118 time=128
note_off channel=10 note=71 velocity=118 time=0
note_off channel=10 note=71 velocity=118 time=0
note_off channel=10 note=71 velocity=118 time=0
note_off channel=10 note=71 velocity=118 time=0
note_off channel=10 note=59 velocity=118 time=0
note_off channel=10 note=59 velocity=118 time=0
note_off channel=10 note=59 velocity=118 time=0
note_off channel=10 note=59 velocity=118 time=0
note_off channel=10 note=59 velocity=118 time=0
note_on channel=10 note=69 velocity=118 time=63
note_on channel=10 note=69 velocity=118 time=4
note_on channel=10 note=69 velocity=118 time=0
note_on channel=10 note=69 velocity=118 time=0
note_on channel=10 note=69 velocity=118 time=0
note_on channel=10 note=57 velocity=118 time=0
note_on channel=10 note=57 velocity=118 time=0
note_on channel=10 note=57 velocity=118 time=0
note_on channel=10 note=57 velocity=118 time=0
note_on channel=10 note=57 velocity=118 time=0
note_off channel=10 note=69 velocity=118 time=128
note_off channel=10 note=69 velocity=118 time=0
note_off channel=10 note=69 velocity=118 time=0
note_off channel=10 note=69 velocity=118 time=0
note_off channel=10 note=69 velocity=118 time=0
note_off channel=10 note=57 velocity=118 time=0
note_off channel=10 note=57 velocity=118 time=0
note_off channel=10 note=57 velocity=118 time=0
note_off channel=10 note=57 velocity=118 time=0
note_off channel=10 note=57 velocity=118 time=0
note_on channel=10 note=64 velocity=118 time=63
note_on channel=10 note=64 velocity=118 time=6
note_on channel=10 note=64 velocity=118 time=0
note_on channel=10 note=64 velocity=118 time=0
note_on channel=10 note=64 velocity=118 time=0
note_on channel=10 note=52 velocity=118 time=0
note_on channel=10 note=52 velocity=118 time=0
note_on channel=10 note=52 velocity=118 time=0
note_on channel=10 note=52 velocity=118 time=0
note_on channel=10 note=52 velocity=118 time=0
note_off channel=10 note=64 velocity=118 time=256
note_off channel=10 note=64 velocity=118 time=0
note_off channel=10 note=64 velocity=118 time=0
note_off channel=10 note=64 velocity=118 time=0
note_off channel=10 note=64 velocity=118 time=0
note_off channel=10 note=52 velocity=118 time=0
note_off channel=10 note=52 velocity=118 time=0
note_off channel=10 note=52 velocity=118 time=0
note_off channel=10 note=52 velocity=118 time=0
note_off channel=10 note=52 velocity=118 time=0
note_on channel=10 note=74 velocity=118 time=126
note_on channel=10 note=74 velocity=118 time=14
note_on channel=10 note=74 velocity=118 time=0
note_on channel=10 note=74 velocity=118 time=0
note_on channel=10 note=74 velocity=118 time=0
note_on channel=10 note=62 velocity=118 time=0
note_on channel=10 note=62 velocity=118 time=0
note_on channel=10 note=62 velocity=118 time=0
note_on channel=10 note=62 velocity=118 time=0
note_on channel=10 note=62 velocity=118 time=0
note_off channel=10 note=74 velocity=118 time=128
note_off channel=10 note=74 velocity=118 time=0
note_off channel=10 note=74 velocity=118 time=0
note_off channel=10 note=74 velocity=118 time=0
note_off channel=10 note=74 velocity=118 time=0
note_off channel=10 note=62 velocity=118 time=0
note_off channel=10 note=62 velocity=118 time=0
note_off channel=10 note=62 velocity=118 time=0
note_off channel=10 note=62 velocity=118 time=0
note_off channel=10 note=62 velocity=118 time=0
note_on channel=10 note=74 velocity=118 time=63
note_on channel=10 note=74 velocity=118 time=7
note_on channel=10 note=74 velocity=118 time=0
note_on channel=10 note=74 velocity=118 time=0
note_on channel=10 note=74 velocity=118 time=0
note_on channel=10 note=62 velocity=118 time=0
note_on channel=10 note=62 velocity=118 time=0
note_on channel=10 note=62 velocity=118 time=0
note_on channel=10 note=62 velocity=118 time=0
note_on channel=10 note=62 velocity=118 time=0
note_off channel=10 note=74 velocity=118 time=256
note_off channel=10 note=74 velocity=118 time=0
note_off channel=10 note=74 velocity=118 time=0
note_off channel=10 note=74 velocity=118 time=0
note_off channel=10 note=74 velocity=118 time=0
note_off channel=10 note=62 velocity=118 time=0
note_off channel=10 note=62 velocity=118 time=0
note_off channel=10 note=62 velocity=118 time=0
note_off channel=10 note=62 velocity=118 time=0
note_off channel=10 note=62 velocity=118 time=0
note_on channel=10 note=74 velocity=118 time=220
note_on channel=10 note=74 velocity=118 time=22
note_on channel=10 note=74 velocity=118 time=0
note_on channel=10 note=74 velocity=118 time=0
note_on channel=10 note=74 velocity=118 time=0
note_on channel=10 note=62 velocity=118 time=0
note_on channel=10 note=62 velocity=118 time=0
note_on channel=10 note=62 velocity=118 time=0
note_on channel=10 note=62 velocity=118 time=0
note_on channel=10 note=62 velocity=118 time=0
note_off channel=10 note=74 velocity=118 time=64
note_off channel=10 note=74 velocity=118 time=0
note_off channel=10 note=74 velocity=118 time=0
note_off channel=10 note=74 velocity=118 time=0
note_off channel=10 note=74 velocity=118 time=0
note_off channel=10 note=62 velocity=118 time=0
note_off channel=10 note=62 velocity=118 time=0
note_off channel=10 note=62 velocity=118 time=0
note_off channel=10 note=62 velocity=118 time=0
note_off channel=10 note=62 velocity=118 time=0
note_on channel=10 note=74 velocity=118 time=31
note_on channel=10 note=74 velocity=118 time=3
note_on channel=10 note=74 velocity=118 time=0
note_on channel=10 note=74 velocity=118 time=0
note_on channel=10 note=74 velocity=118 time=0
note_on channel=10 note=62 velocity=118 time=0
note_on channel=10 note=62 velocity=118 time=0
note_on channel=10 note=62 velocity=118 time=0
note_on channel=10 note=62 velocity=118 time=0
note_on channel=10 note=62 velocity=118 time=0
note_off channel=10 note=74 velocity=118 time=64
note_off channel=10 note=74 velocity=118 time=0
note_off channel=10 note=74 velocity=118 time=0
note_off channel=10 note=74 velocity=118 time=0
note_off channel=10 note=74 velocity=118 time=0
note_off channel=10 note=62 velocity=118 time=0
note_off channel=10 note=62 velocity=118 time=0
note_off channel=10 note=62 velocity=118 time=0
note_off channel=10 note=62 velocity=118 time=0
note_off channel=10 note=62 velocity=118 time=0
note_on channel=10 note=74 velocity=118 time=31
note_on channel=10 note=74 velocity=118 time=3
note_on channel=10 note=74 velocity=118 time=0
note_on channel=10 note=74 velocity=118 time=0
note_on channel=10 note=74 velocity=118 time=0
note_on channel=10 note=62 velocity=118 time=0
note_on channel=10 note=62 velocity=118 time=0
note_on channel=10 note=62 velocity=118 time=0
note_on channel=10 note=62 velocity=118 time=0
note_on channel=10 note=62 velocity=118 time=0
note_off channel=10 note=74 velocity=118 time=256
note_off channel=10 note=74 velocity=118 time=0
note_off channel=10 note=74 velocity=118 time=0
note_off channel=10 note=74 velocity=118 time=0
note_off channel=10 note=74 velocity=118 time=0
note_off channel=10 note=62 velocity=118 time=0
note_off channel=10 note=62 velocity=118 time=0
note_off channel=10 note=62 velocity=118 time=0
note_off channel=10 note=62 velocity=118 time=0
note_off channel=10 note=62 velocity=118 time=0
note_on channel=10 note=71 velocity=118 time=408
note_on channel=10 note=71 velocity=118 time=78
note_on channel=10 note=71 velocity=118 time=0
note_on channel=10 note=71 velocity=118 time=0
note_on channel=10 note=71 velocity=118 time=0
note_on channel=10 note=59 velocity=118 time=0
note_on channel=10 note=59 velocity=118 time=0
note_on channel=10 note=59 velocity=118 time=0
note_on channel=10 note=59 velocity=118 time=0
note_on channel=10 note=59 velocity=118 time=0
note_off channel=10 note=71 velocity=118 time=128
note_off channel=10 note=71 velocity=118 time=0
note_off channel=10 note=71 velocity=118 time=0
note_off channel=10 note=71 velocity=118 time=0
note_off channel=10 note=71 velocity=118 time=0
note_off channel=10 note=59 velocity=118 time=0
note_off channel=10 note=59 velocity=118 time=0
note_off channel=10 note=59 velocity=118 time=0
note_off channel=10 note=59 velocity=118 time=0
note_off channel=10 note=59 velocity=118 time=0
note_on channel=10 note=71 velocity=118 time=62
note_on channel=10 note=71 velocity=118 time=9
note_on channel=10 note=71 velocity=118 time=0
note_on channel=10 note=71 velocity=118 time=0
note_on channel=10 note=71 velocity=118 time=0
note_on channel=10 note=59 velocity=118 time=0
note_on channel=10 note=59 velocity=118 time=0
note_on channel=10 note=59 velocity=118 time=0
note_on channel=10 note=59 velocity=118 time=0
note_on channel=10 note=59 velocity=118 time=0
note_off channel=10 note=71 velocity=118 time=128
note_off channel=10 note=71 velocity=118 time=0
note_off channel=10 note=71 velocity=118 time=0
note_off channel=10 note=71 velocity=118 time=0
note_off channel=10 note=71 velocity=118 time=0
note_off channel=10 note=59 velocity=118 time=0
note_off channel=10 note=59 velocity=118 time=0
note_off channel=10 note=59 velocity=118 time=0
note_off channel=10 note=59 velocity=118 time=0
note_off channel=10 note=59 velocity=118 time=0
note_on channel=10 note=71 velocity=118 time=61
note_on channel=10 note=71 velocity=118 time=3
note_on channel=10 note=71 velocity=118 time=0
note_on channel=10 note=71 velocity=118 time=0
note_on channel=10 note=71 velocity=118 time=0
note_on channel=10 note=59 velocity=118 time=0
note_on channel=10 note=59 velocity=118 time=0
note_on channel=10 note=59 velocity=118 time=0
note_on channel=10 note=59 velocity=118 time=0
note_on channel=10 note=59 velocity=118 time=0
note_off channel=10 note=71 velocity=118 time=128
note_off channel=10 note=71 velocity=118 time=0
note_off channel=10 note=71 velocity=118 time=0
note_off channel=10 note=71 velocity=118 time=0
note_off channel=10 note=71 velocity=118 time=0
note_off channel=10 note=59 velocity=118 time=0
note_off channel=10 note=59 velocity=118 time=0
note_off channel=10 note=59 velocity=118 time=0
note_off channel=10 note=59 velocity=118 time=0
note_off channel=10 note=59 velocity=118 time=0
note_on channel=10 note=74 velocity=118 time=62
note_on channel=10 note=74 velocity=118 time=2
note_on channel=10 note=74 velocity=118 time=0
note_on channel=10 note=74 velocity=118 time=0
note_on channel=10 note=74 velocity=118 time=0
note_on channel=10 note=62 velocity=118 time=0
note_on channel=10 note=62 velocity=118 time=0
note_on channel=10 note=62 velocity=118 time=0
note_on channel=10 note=62 velocity=118 time=0
note_on channel=10 note=62 velocity=118 time=0
note_off channel=10 note=74 velocity=118 time=64
note_off channel=10 note=74 velocity=118 time=0
note_off channel=10 note=74 velocity=118 time=0
note_off channel=10 note=74 velocity=118 time=0
note_off channel=10 note=74 velocity=118 time=0
note_off channel=10 note=62 velocity=118 time=0
note_off channel=10 note=62 velocity=118 time=0
note_off channel=10 note=62 velocity=118 time=0
note_off channel=10 note=62 velocity=118 time=0
note_off channel=10 note=62 velocity=118 time=0
note_on channel=10 note=73 velocity=118 time=30
note_on channel=10 note=73 velocity=118 time=4
note_on channel=10 note=73 velocity=118 time=0
note_on channel=10 note=73 velocity=118 time=0
note_on channel=10 note=73 velocity=118 time=0
note_on channel=10 note=61 velocity=118 time=0
note_on channel=10 note=61 velocity=118 time=0
note_on channel=10 note=61 velocity=118 time=0
note_on channel=10 note=61 velocity=118 time=0
note_on channel=10 note=61 velocity=118 time=0
note_off channel=10 note=73 velocity=118 time=64
note_off channel=10 note=73 velocity=118 time=0
note_off channel=10 note=73 velocity=118 time=0
note_off channel=10 note=73 velocity=118 time=0
note_off channel=10 note=73 velocity=118 time=0
note_off channel=10 note=61 velocity=118 time=0
note_off channel=10 note=61 velocity=118 time=0
note_off channel=10 note=61 velocity=118 time=0
note_off channel=10 note=61 velocity=118 time=0
note_off channel=10 note=61 velocity=118 time=0
note_on channel=10 note=71 velocity=118 time=31
note_on channel=10 note=71 velocity=118 time=6
note_on channel=10 note=71 velocity=118 time=0
note_on channel=10 note=71 velocity=118 time=0
note_on channel=10 note=71 velocity=118 time=0
note_on channel=10 note=59 velocity=118 time=0
note_on channel=10 note=59 velocity=118 time=0
note_on channel=10 note=59 velocity=118 time=0
note_on channel=10 note=59 velocity=118 time=0
note_on channel=10 note=59 velocity=118 time=0
note_off channel=10 note=71 velocity=118 time=64
note_off channel=10 note=71 velocity=118 time=0
note_off channel=10 note=71 velocity=118 time=0
note_off channel=10 note=71 velocity=118 time=0
note_off channel=10 note=71 velocity=118 time=0
note_off channel=10 note=59 velocity=118 time=0
note_off channel=10 note=59 velocity=118 time=0
note_off channel=10 note=59 velocity=118 time=0
note_off channel=10 note=59 velocity=118 time=0
note_off channel=10 note=59 velocity=118 time=0
note_on channel=10 note=71 velocity=118 time=30
note_on channel=10 note=71 velocity=118 time=7
note_on channel=10 note=71 velocity=118 time=0
note_on channel=10 note=71 velocity=118 time=0
note_on channel=10 note=71 velocity=118 time=0
note_on channel=10 note=59 velocity=118 time=0
note_on channel=10 note=59 velocity=118 time=0
note_on channel=10 note=59 velocity=118 time=0
note_on channel=10 note=59 velocity=118 time=0
note_on channel=10 note=59 velocity=118 time=0
note_off channel=10 note=71 velocity=118 time=128
note_off channel=10 note=71 velocity=118 time=0
note_off channel=10 note=71 velocity=118 time=0
note_off channel=10 note=71 velocity=118 time=0
note_off channel=10 note=71 velocity=118 time=0
note_off channel=10 note=59 velocity=118 time=0
note_off channel=10 note=59 velocity=118 time=0
note_off channel=10 note=59 velocity=118 time=0
note_off channel=10 note=59 velocity=118 time=0
note_off channel=10 note=59 velocity=118 time=0
note_on channel=10 note=71 velocity=118 time=62
note_on channel=10 note=71 velocity=118 time=20
note_on channel=10 note=71 velocity=118 time=0
note_on channel=10 note=71 velocity=118 time=0
note_on channel=10 note=71 velocity=118 time=0
note_on channel=10 note=59 velocity=118 time=0
note_on channel=10 note=59 velocity=118 time=0
note_on channel=10 note=59 velocity=118 time=0
note_on channel=10 note=59 velocity=118 time=0
note_on channel=10 note=59 velocity=118 time=0
note_off channel=10 note=71 velocity=118 time=64
note_off channel=10 note=71 velocity=118 time=0
note_off channel=10 note=71 velocity=118 time=0
note_off channel=10 note=71 velocity=118 time=0
note_off channel=10 note=71 velocity=118 time=0
note_off channel=10 note=59 velocity=118 time=0
note_off channel=10 note=59 velocity=118 time=0
note_off channel=10 note=59 velocity=118 time=0
note_off channel=10 note=59 velocity=118 time=0
note_off channel=10 note=59 velocity=118 time=0
note_on channel=10 note=71 velocity=118 time=31
note_on channel=10 note=71 velocity=118 time=12
note_on channel=10 note=71 velocity=118 time=0
note_on channel=10 note=71 velocity=118 time=0
note_on channel=10 note=71 velocity=118 time=0
note_on channel=10 note=59 velocity=118 time=0
note_on channel=10 note=59 velocity=118 time=0
note_on channel=10 note=59 velocity=118 time=0
note_on channel=10 note=59 velocity=118 time=0
note_on channel=10 note=59 velocity=118 time=0
note_off channel=10 note=71 velocity=118 time=128
note_off channel=10 note=71 velocity=118 time=0
note_off channel=10 note=71 velocity=118 time=0
note_off channel=10 note=71 velocity=118 time=0
note_off channel=10 note=71 velocity=118 time=0
note_off channel=10 note=59 velocity=118 time=0
note_off channel=10 note=59 velocity=118 time=0
note_off channel=10 note=59 velocity=118 time=0
note_off channel=10 note=59 velocity=118 time=0
note_off channel=10 note=59 velocity=118 time=0
note_on channel=10 note=74 velocity=118 time=62
note_on channel=10 note=74 velocity=118 time=26
note_on channel=10 note=74 velocity=118 time=0
note_on channel=10 note=74 velocity=118 time=0
note_on channel=10 note=74 velocity=118 time=0
note_on channel=10 note=62 velocity=118 time=0
note_on channel=10 note=62 velocity=118 time=0
note_on channel=10 note=62 velocity=118 time=0
note_on channel=10 note=62 velocity=118 time=0
note_on channel=10 note=62 velocity=118 time=0
note_off channel=10 note=74 velocity=118 time=64
note_off channel=10 note=74 velocity=118 time=0
note_off channel=10 note=74 velocity=118 time=0
note_off channel=10 note=74 velocity=118 time=0
note_off channel=10 note=74 velocity=118 time=0
note_off channel=10 note=62 velocity=118 time=0
note_off channel=10 note=62 velocity=118 time=0
note_off channel=10 note=62 velocity=118 time=0
note_off channel=10 note=62 velocity=118 time=0
note_off channel=10 note=62 velocity=118 time=0
note_on channel=10 note=74 velocity=118 time=31
note_on channel=10 note=74 velocity=118 time=13
note_on channel=10 note=74 velocity=118 time=0
note_on channel=10 note=74 velocity=118 time=0
note_on channel=10 note=74 velocity=118 time=0
note_on channel=10 note=62 velocity=118 time=0
note_on channel=10 note=62 velocity=118 time=0
note_on channel=10 note=62 velocity=118 time=0
note_on channel=10 note=62 velocity=118 time=0
note_on channel=10 note=62 velocity=118 time=0
note_off channel=10 note=74 velocity=118 time=64
note_off channel=10 note=74 velocity=118 time=0
note_off channel=10 note=74 velocity=118 time=0
note_off channel=10 note=74 velocity=118 time=0
note_off channel=10 note=74 velocity=118 time=0
note_off channel=10 note=62 velocity=118 time=0
note_off channel=10 note=62 velocity=118 time=0
note_off channel=10 note=62 velocity=118 time=0
note_off channel=10 note=62 velocity=118 time=0
note_off channel=10 note=62 velocity=118 time=0
note_on channel=10 note=74 velocity=118 time=31
note_on channel=10 note=74 velocity=118 time=13
note_on channel=10 note=74 velocity=118 time=0
note_on channel=10 note=74 velocity=118 time=0
note_on channel=10 note=74 velocity=118 time=0
note_on channel=10 note=62 velocity=118 time=0
note_on channel=10 note=62 velocity=118 time=0
note_on channel=10 note=62 velocity=118 time=0
note_on channel=10 note=62 velocity=118 time=0
note_on channel=10 note=62 velocity=118 time=0
note_off channel=10 note=74 velocity=118 time=64
note_off channel=10 note=74 velocity=118 time=0
note_off channel=10 note=74 velocity=118 time=0
note_off channel=10 note=74 velocity=118 time=0
note_off channel=10 note=74 velocity=118 time=0
note_off channel=10 note=62 velocity=118 time=0
note_off channel=10 note=62 velocity=118 time=0
note_off channel=10 note=62 velocity=118 time=0
note_off channel=10 note=62 velocity=118 time=0
note_off channel=10 note=62 velocity=118 time=0
note_on channel=10 note=74 velocity=118 time=31
note_on channel=10 note=74 velocity=118 time=12
note_on channel=10 note=74 velocity=118 time=0
note_on channel=10 note=74 velocity=118 time=0
note_on channel=10 note=74 velocity=118 time=0
note_on channel=10 note=62 velocity=118 time=0
note_on channel=10 note=62 velocity=118 time=0
note_on channel=10 note=62 velocity=118 time=0
note_on channel=10 note=62 velocity=118 time=0
note_on channel=10 note=62 velocity=118 time=0
note_off channel=10 note=74 velocity=118 time=64
note_off channel=10 note=74 velocity=118 time=0
note_off channel=10 note=74 velocity=118 time=0
note_off channel=10 note=74 velocity=118 time=0
note_off channel=10 note=74 velocity=118 time=0
note_off channel=10 note=62 velocity=118 time=0
note_off channel=10 note=62 velocity=118 time=0
note_off channel=10 note=62 velocity=118 time=0
note_off channel=10 note=62 velocity=118 time=0
note_off channel=10 note=62 velocity=118 time=0
note_on channel=10 note=74 velocity=118 time=31
note_on channel=10 note=74 velocity=118 time=12
note_on channel=10 note=74 velocity=118 time=0
note_on channel=10 note=74 velocity=118 time=0
note_on channel=10 note=74 velocity=118 time=0
note_on channel=10 note=62 velocity=118 time=0
note_on channel=10 note=62 velocity=118 time=0
note_on channel=10 note=62 velocity=118 time=0
note_on channel=10 note=62 velocity=118 time=0
note_on channel=10 note=62 velocity=118 time=0
note_off channel=10 note=74 velocity=118 time=128
note_off channel=10 note=74 velocity=118 time=0
note_off channel=10 note=74 velocity=118 time=0
note_off channel=10 note=74 velocity=118 time=0
note_off channel=10 note=74 velocity=118 time=0
note_off channel=10 note=62 velocity=118 time=0
note_off channel=10 note=62 velocity=118 time=0
note_off channel=10 note=62 velocity=118 time=0
note_off channel=10 note=62 velocity=118 time=0
note_off channel=10 note=62 velocity=118 time=0
note_on channel=10 note=69 velocity=118 time=63
note_on channel=10 note=69 velocity=118 time=21
note_on channel=10 note=69 velocity=118 time=0
note_on channel=10 note=69 velocity=118 time=0
note_on channel=10 note=69 velocity=118 time=0
note_on channel=10 note=57 velocity=118 time=0
note_on channel=10 note=57 velocity=118 time=0
note_on channel=10 note=57 velocity=118 time=0
note_on channel=10 note=57 velocity=118 time=0
note_on channel=10 note=57 velocity=118 time=0
note_off channel=10 note=69 velocity=118 time=64
note_off channel=10 note=69 velocity=118 time=0
note_off channel=10 note=69 velocity=118 time=0
note_off channel=10 note=69 velocity=118 time=0
note_off channel=10 note=69 velocity=118 time=0
note_off channel=10 note=57 velocity=118 time=0
note_off channel=10 note=57 velocity=118 time=0
note_off channel=10 note=57 velocity=118 time=0
note_off channel=10 note=57 velocity=118 time=0
note_off channel=10 note=57 velocity=118 time=0
note_on channel=10 note=67 velocity=118 time=31
note_on channel=10 note=67 velocity=118 time=9
note_on channel=10 note=67 velocity=118 time=0
note_on channel=10 note=67 velocity=118 time=0
note_on channel=10 note=67 velocity=118 time=0
note_on channel=10 note=55 velocity=118 time=0
note_on channel=10 note=55 velocity=118 time=0
note_on channel=10 note=55 velocity=118 time=0
note_on channel=10 note=55 velocity=118 time=0
note_on channel=10 note=55 velocity=118 time=0
note_off channel=10 note=67 velocity=118 time=64
note_off channel=10 note=67 velocity=118 time=0
note_off channel=10 note=67 velocity=118 time=0
note_off channel=10 note=67 velocity=118 time=0
note_off channel=10 note=67 velocity=118 time=0
note_off channel=10 note=55 velocity=118 time=0
note_off channel=10 note=55 velocity=118 time=0
note_off channel=10 note=55 velocity=118 time=0
note_off channel=10 note=55 velocity=118 time=0
note_off channel=10 note=55 velocity=118 time=0
note_on channel=10 note=69 velocity=118 time=32
note_on channel=10 note=69 velocity=118 time=8
note_on channel=10 note=69 velocity=118 time=0
note_on channel=10 note=69 velocity=118 time=0
note_on channel=10 note=69 velocity=118 time=0
note_on channel=10 note=57 velocity=118 time=0
note_on channel=10 note=57 velocity=118 time=0
note_on channel=10 note=57 velocity=118 time=0
note_on channel=10 note=57 velocity=118 time=0
note_on channel=10 note=57 velocity=118 time=0
note_off channel=10 note=69 velocity=118 time=64
note_off channel=10 note=69 velocity=118 time=0
note_off channel=10 note=69 velocity=118 time=0
note_off channel=10 note=69 velocity=118 time=0
note_off channel=10 note=69 velocity=118 time=0
note_off channel=10 note=57 velocity=118 time=0
note_off channel=10 note=57 velocity=118 time=0
note_off channel=10 note=57 velocity=118 time=0
note_off channel=10 note=57 velocity=118 time=0
note_off channel=10 note=57 velocity=118 time=0
note_on channel=10 note=67 velocity=118 time=31
note_on channel=10 note=67 velocity=118 time=7
note_on channel=10 note=67 velocity=118 time=0
note_on channel=10 note=67 velocity=118 time=0
note_on channel=10 note=67 velocity=118 time=0
note_on channel=10 note=55 velocity=118 time=0
note_on channel=10 note=55 velocity=118 time=0
note_on channel=10 note=55 velocity=118 time=0
note_on channel=10 note=55 velocity=118 time=0
note_on channel=10 note=55 velocity=118 time=0
note_off channel=10 note=67 velocity=118 time=64
note_off channel=10 note=67 velocity=118 time=0
note_off channel=10 note=67 velocity=118 time=0
note_off channel=10 note=67 velocity=118 time=0
note_off channel=10 note=67 velocity=118 time=0
note_off channel=10 note=55 velocity=118 time=0
note_off channel=10 note=55 velocity=118 time=0
note_off channel=10 note=55 velocity=118 time=0
note_off channel=10 note=55 velocity=118 time=0
note_off channel=10 note=55 velocity=118 time=0
note_on channel=10 note=71 velocity=118 time=32
note_on channel=10 note=71 velocity=118 time=6
note_on channel=10 note=71 velocity=118 time=0
note_on channel=10 note=71 velocity=118 time=0
note_on channel=10 note=71 velocity=118 time=0
note_on channel=10 note=59 velocity=118 time=0
note_on channel=10 note=59 velocity=118 time=0
note_on channel=10 note=59 velocity=118 time=0
note_on channel=10 note=59 velocity=118 time=0
note_on channel=10 note=59 velocity=118 time=0
note_off channel=10 note=71 velocity=118 time=128
note_off channel=10 note=71 velocity=118 time=0
note_off channel=10 note=71 velocity=118 time=0
note_off channel=10 note=71 velocity=118 time=0
note_off channel=10 note=71 velocity=118 time=0
note_off channel=10 note=59 velocity=118 time=0
note_off channel=10 note=59 velocity=118 time=0
note_off channel=10 note=59 velocity=118 time=0
note_off channel=10 note=59 velocity=118 time=0
note_off channel=10 note=59 velocity=118 time=0
note_on channel=10 note=67 velocity=118 time=62
note_on channel=10 note=67 velocity=118 time=9
note_on channel=10 note=67 velocity=118 time=0
note_on channel=10 note=67 velocity=118 time=0
note_on channel=10 note=67 velocity=118 time=0
note_on channel=10 note=55 velocity=118 time=0
note_on channel=10 note=55 velocity=118 time=0
note_on channel=10 note=55 velocity=118 time=0
note_on channel=10 note=55 velocity=118 time=0
note_on channel=10 note=55 velocity=118 time=0
note_on channel=10 note=64 velocity=118 time=95
note_on channel=10 note=64 velocity=118 time=7
note_on channel=10 note=64 velocity=118 time=0
note_on channel=10 note=64 velocity=118 time=0
note_on channel=10 note=64 velocity=118 time=0
note_on channel=10 note=52 velocity=118 time=0
note_on channel=10 note=52 velocity=118 time=0
note_on channel=10 note=52 velocity=118 time=0
note_on channel=10 note=52 velocity=118 time=0
note_on channel=10 note=52 velocity=118 time=0
note_off channel=10 note=67 velocity=118 time=160
note_off channel=10 note=67 velocity=118 time=0
note_off channel=10 note=67 velocity=118 time=0
note_off channel=10 note=67 velocity=118 time=0
note_off channel=10 note=67 velocity=118 time=0
note_off channel=10 note=55 velocity=118 time=0
note_off channel=10 note=55 velocity=118 time=0
note_off channel=10 note=55 velocity=118 time=0
note_off channel=10 note=55 velocity=118 time=0
note_off channel=10 note=55 velocity=118 time=0
note_off channel=10 note=64 velocity=118 time=32
note_off channel=10 note=64 velocity=118 time=0
note_off channel=10 note=64 velocity=118 time=0
note_off channel=10 note=64 velocity=118 time=0
note_off channel=10 note=64 velocity=118 time=0
note_off channel=10 note=52 velocity=118 time=0
note_off channel=10 note=52 velocity=118 time=0
note_off channel=10 note=52 velocity=118 time=0
note_off channel=10 note=52 velocity=118 time=0
note_off channel=10 note=52 velocity=118 time=0
note_on channel=10 note=71 velocity=118 time=190
note_on channel=10 note=71 velocity=118 time=4
note_on channel=10 note=71 velocity=118 time=0
note_on channel=10 note=71 velocity=118 time=0
note_on channel=10 note=71 velocity=118 time=0
note_on channel=10 note=59 velocity=118 time=0
note_on channel=10 note=59 velocity=118 time=0
note_on channel=10 note=59 velocity=118 time=0
note_on channel=10 note=59 velocity=118 time=0
note_on channel=10 note=59 velocity=118 time=0
note_off channel=10 note=71 velocity=118 time=64
note_off channel=10 note=71 velocity=118 time=0
note_off channel=10 note=71 velocity=118 time=0
note_off channel=10 note=71 velocity=118 time=0
note_off channel=10 note=71 velocity=118 time=0
note_off channel=10 note=59 velocity=118 time=0
note_off channel=10 note=59 velocity=118 time=0
note_off channel=10 note=59 velocity=118 time=0
note_off channel=10 note=59 velocity=118 time=0
note_off channel=10 note=59 velocity=118 time=0
note_on channel=10 note=71 velocity=118 time=32
note_on channel=10 note=71 velocity=118 time=2
note_on channel=10 note=71 velocity=118 time=0
note_on channel=10 note=71 velocity=118 time=0
note_on channel=10 note=71 velocity=118 time=0
note_on channel=10 note=59 velocity=118 time=0
note_on channel=10 note=59 velocity=118 time=0
note_on channel=10 note=59 velocity=118 time=0
note_on channel=10 note=59 velocity=118 time=0
note_on channel=10 note=59 velocity=118 time=0
note_off channel=10 note=71 velocity=118 time=64
note_off channel=10 note=71 velocity=118 time=0
note_off channel=10 note=71 velocity=118 time=0
note_off channel=10 note=71 velocity=118 time=0
note_off channel=10 note=71 velocity=118 time=0
note_off channel=10 note=59 velocity=118 time=0
note_off channel=10 note=59 velocity=118 time=0
note_off channel=10 note=59 velocity=118 time=0
note_off channel=10 note=59 velocity=118 time=0
note_off channel=10 note=59 velocity=118 time=0
note_on channel=10 note=71 velocity=118 time=31
note_on channel=10 note=71 velocity=118 time=2
note_on channel=10 note=71 velocity=118 time=0
note_on channel=10 note=71 velocity=118 time=0
note_on channel=10 note=71 velocity=118 time=0
note_on channel=10 note=59 velocity=118 time=0
note_on channel=10 note=59 velocity=118 time=0
note_on channel=10 note=59 velocity=118 time=0
note_on channel=10 note=59 velocity=118 time=0
note_on channel=10 note=59 velocity=118 time=0
note_off channel=10 note=71 velocity=118 time=64
note_off channel=10 note=71 velocity=118 time=0
note_off channel=10 note=71 velocity=118 time=0
note_off channel=10 note=71 velocity=118 time=0
note_off channel=10 note=71 velocity=118 time=0
note_off channel=10 note=59 velocity=118 time=0
note_off channel=10 note=59 velocity=118 time=0
note_off channel=10 note=59 velocity=118 time=0
note_off channel=10 note=59 velocity=118 time=0
note_off channel=10 note=59 velocity=118 time=0
note_on channel=10 note=69 velocity=118 time=32
note_on channel=10 note=69 velocity=118 time=2
note_on channel=10 note=69 velocity=118 time=0
note_on channel=10 note=69 velocity=118 time=0
note_on channel=10 note=69 velocity=118 time=0
note_on channel=10 note=57 velocity=118 time=0
note_on channel=10 note=57 velocity=118 time=0
note_on channel=10 note=57 velocity=118 time=0
note_on channel=10 note=57 velocity=118 time=0
note_on channel=10 note=57 velocity=118 time=0
note_off channel=10 note=69 velocity=118 time=128
note_off channel=10 note=69 velocity=118 time=0
note_off channel=10 note=69 velocity=118 time=0
note_off channel=10 note=69 velocity=118 time=0
note_off channel=10 note=69 velocity=118 time=0
note_off channel=10 note=57 velocity=118 time=0
note_off channel=10 note=57 velocity=118 time=0
note_off channel=10 note=57 velocity=118 time=0
note_off channel=10 note=57 velocity=118 time=0
note_off channel=10 note=57 velocity=118 time=0
note_on channel=10 note=71 velocity=118 time=63
note_on channel=10 note=71 velocity=118 time=5
note_on channel=10 note=71 velocity=118 time=0
note_on channel=10 note=71 velocity=118 time=0
note_on channel=10 note=71 velocity=118 time=0
note_on channel=10 note=59 velocity=118 time=0
note_on channel=10 note=59 velocity=118 time=0
note_on channel=10 note=59 velocity=118 time=0
note_on channel=10 note=59 velocity=118 time=0
note_on channel=10 note=59 velocity=118 time=0
note_off channel=10 note=71 velocity=118 time=64
note_off channel=10 note=71 velocity=118 time=0
note_off channel=10 note=71 velocity=118 time=0
note_off channel=10 note=71 velocity=118 time=0
note_off channel=10 note=71 velocity=118 time=0
note_off channel=10 note=59 velocity=118 time=0
note_off channel=10 note=59 velocity=118 time=0
note_off channel=10 note=59 velocity=118 time=0
note_off channel=10 note=59 velocity=118 time=0
note_off channel=10 note=59 velocity=118 time=0
note_on channel=10 note=71 velocity=118 time=32
note_on channel=10 note=71 velocity=118 time=2
note_on channel=10 note=71 velocity=118 time=0
note_on channel=10 note=71 velocity=118 time=0
note_on channel=10 note=71 velocity=118 time=0
note_on channel=10 note=59 velocity=118 time=0
note_on channel=10 note=59 velocity=118 time=0
note_on channel=10 note=59 velocity=118 time=0
note_on channel=10 note=59 velocity=118 time=0
note_on channel=10 note=59 velocity=118 time=0
note_off channel=10 note=71 velocity=118 time=64
note_off channel=10 note=71 velocity=118 time=0
note_off channel=10 note=71 velocity=118 time=0
note_off channel=10 note=71 velocity=118 time=0
note_off channel=10 note=71 velocity=118 time=0
note_off channel=10 note=59 velocity=118 time=0
note_off channel=10 note=59 velocity=118 time=0
note_off channel=10 note=59 velocity=118 time=0
note_off channel=10 note=59 velocity=118 time=0
note_off channel=10 note=59 velocity=118 time=0
note_on channel=10 note=74 velocity=118 time=31
note_on channel=10 note=74 velocity=118 time=2
note_on channel=10 note=74 velocity=118 time=0
note_on channel=10 note=74 velocity=118 time=0
note_on channel=10 note=74 velocity=118 time=0
note_on channel=10 note=62 velocity=118 time=0
note_on channel=10 note=62 velocity=118 time=0
note_on channel=10 note=62 velocity=118 time=0
note_on channel=10 note=62 velocity=118 time=0
note_on channel=10 note=62 velocity=118 time=0
note_off channel=10 note=74 velocity=118 time=64
note_off channel=10 note=74 velocity=118 time=0
note_off channel=10 note=74 velocity=118 time=0
note_off channel=10 note=74 velocity=118 time=0
note_off channel=10 note=74 velocity=118 time=0
note_off channel=10 note=62 velocity=118 time=0
note_off channel=10 note=62 velocity=118 time=0
note_off channel=10 note=62 velocity=118 time=0
note_off channel=10 note=62 velocity=118 time=0
note_off channel=10 note=62 velocity=118 time=0
note_on channel=10 note=74 velocity=118 time=31
note_on channel=10 note=74 velocity=118 time=2
note_on channel=10 note=74 velocity=118 time=0
note_on channel=10 note=74 velocity=118 time=0
note_on channel=10 note=74 velocity=118 time=0
note_on channel=10 note=62 velocity=118 time=0
note_on channel=10 note=62 velocity=118 time=0
note_on channel=10 note=62 velocity=118 time=0
note_on channel=10 note=62 velocity=118 time=0
note_on channel=10 note=62 velocity=118 time=0
note_off channel=10 note=74 velocity=118 time=64
note_off channel=10 note=74 velocity=118 time=0
note_off channel=10 note=74 velocity=118 time=0
note_off channel=10 note=74 velocity=118 time=0
note_off channel=10 note=74 velocity=118 time=0
note_off channel=10 note=62 velocity=118 time=0
note_off channel=10 note=62 velocity=118 time=0
note_off channel=10 note=62 velocity=118 time=0
note_off channel=10 note=62 velocity=118 time=0
note_off channel=10 note=62 velocity=118 time=0
note_on channel=10 note=74 velocity=118 time=32
note_on channel=10 note=74 velocity=118 time=2
note_on channel=10 note=74 velocity=118 time=0
note_on channel=10 note=74 velocity=118 time=0
note_on channel=10 note=74 velocity=118 time=0
note_on channel=10 note=62 velocity=118 time=0
note_on channel=10 note=62 velocity=118 time=0
note_on channel=10 note=62 velocity=118 time=0
note_on channel=10 note=62 velocity=118 time=0
note_on channel=10 note=62 velocity=118 time=0
note_off channel=10 note=74 velocity=118 time=128
note_off channel=10 note=74 velocity=118 time=0
note_off channel=10 note=74 velocity=118 time=0
note_off channel=10 note=74 velocity=118 time=0
note_off channel=10 note=74 velocity=118 time=0
note_off channel=10 note=62 velocity=118 time=0
note_off channel=10 note=62 velocity=118 time=0
note_off channel=10 note=62 velocity=118 time=0
note_off channel=10 note=62 velocity=118 time=0
note_off channel=10 note=62 velocity=118 time=0
note_on channel=10 note=76 velocity=118 time=158
note_on channel=10 note=76 velocity=118 time=19
note_on channel=10 note=76 velocity=118 time=0
note_on channel=10 note=76 velocity=118 time=0
note_on channel=10 note=76 velocity=118 time=0
note_on channel=10 note=64 velocity=118 time=0
note_on channel=10 note=64 velocity=118 time=0
note_on channel=10 note=64 velocity=118 time=0
note_on channel=10 note=64 velocity=118 time=0
note_on channel=10 note=64 velocity=118 time=0
note_off channel=10 note=76 velocity=118 time=64
note_off channel=10 note=76 velocity=118 time=0
note_off channel=10 note=76 velocity=118 time=0
note_off channel=10 note=76 velocity=118 time=0
note_off channel=10 note=76 velocity=118 time=0
note_off channel=10 note=64 velocity=118 time=0
note_off channel=10 note=64 velocity=118 time=0
note_off channel=10 note=64 velocity=118 time=0
note_off channel=10 note=64 velocity=118 time=0
note_off channel=10 note=64 velocity=118 time=0
note_on channel=10 note=76 velocity=118 time=31
note_on channel=10 note=76 velocity=118 time=6
note_on channel=10 note=76 velocity=118 time=0
note_on channel=10 note=76 velocity=118 time=0
note_on channel=10 note=76 velocity=118 time=0
note_on channel=10 note=64 velocity=118 time=0
note_on channel=10 note=64 velocity=118 time=0
note_on channel=10 note=64 velocity=118 time=0
note_on channel=10 note=64 velocity=118 time=0
note_on channel=10 note=64 velocity=118 time=0
note_off channel=10 note=76 velocity=118 time=128
note_off channel=10 note=76 velocity=118 time=0
note_off channel=10 note=76 velocity=118 time=0
note_off channel=10 note=76 velocity=118 time=0
note_off channel=10 note=76 velocity=118 time=0
note_off channel=10 note=64 velocity=118 time=0
note_off channel=10 note=64 velocity=118 time=0
note_off channel=10 note=64 velocity=118 time=0
note_off channel=10 note=64 velocity=118 time=0
note_off channel=10 note=64 velocity=118 time=0
note_on channel=10 note=76 velocity=118 time=252
note_on channel=10 note=76 velocity=118 time=88
note_on channel=10 note=76 velocity=118 time=0
note_on channel=10 note=76 velocity=118 time=0
note_on channel=10 note=76 velocity=118 time=0
note_on channel=10 note=64 velocity=118 time=0
note_on channel=10 note=64 velocity=118 time=0
note_on channel=10 note=64 velocity=118 time=0
note_on channel=10 note=64 velocity=118 time=0
note_on channel=10 note=64 velocity=118 time=0
note_off channel=10 note=76 velocity=118 time=128
note_off channel=10 note=76 velocity=118 time=0
note_off channel=10 note=76 velocity=118 time=0
note_off channel=10 note=76 velocity=118 time=0
note_off channel=10 note=76 velocity=118 time=0
note_off channel=10 note=64 velocity=118 time=0
note_off channel=10 note=64 velocity=118 time=0
note_off channel=10 note=64 velocity=118 time=0
note_off channel=10 note=64 velocity=118 time=0
note_off channel=10 note=64 velocity=118 time=0
note_on channel=10 note=76 velocity=118 time=62
note_on channel=10 note=76 velocity=118 time=30
note_on channel=10 note=76 velocity=118 time=0
note_on channel=10 note=76 velocity=118 time=0
note_on channel=10 note=76 velocity=118 time=0
note_on channel=10 note=64 velocity=118 time=0
note_on channel=10 note=64 velocity=118 time=0
note_on channel=10 note=64 velocity=118 time=0
note_on channel=10 note=64 velocity=118 time=0
note_on channel=10 note=64 velocity=118 time=0
note_off channel=10 note=76 velocity=118 time=256
note_off channel=10 note=76 velocity=118 time=0
note_off channel=10 note=76 velocity=118 time=0
note_off channel=10 note=76 velocity=118 time=0
note_off channel=10 note=76 velocity=118 time=0
note_off channel=10 note=64 velocity=118 time=0
note_off channel=10 note=64 velocity=118 time=0
note_off channel=10 note=64 velocity=118 time=0
note_off channel=10 note=64 velocity=118 time=0
note_off channel=10 note=64 velocity=118 time=0
note_on channel=10 note=74 velocity=118 time=312
note_on channel=10 note=74 velocity=118 time=139
note_on channel=10 note=74 velocity=118 time=0
note_on channel=10 note=74 velocity=118 time=0
note_on channel=10 note=74 velocity=118 time=0
note_on channel=10 note=62 velocity=118 time=0
note_on channel=10 note=62 velocity=118 time=0
note_on channel=10 note=62 velocity=118 time=0
note_on channel=10 note=62 velocity=118 time=0
note_on channel=10 note=62 velocity=118 time=0
note_off channel=10 note=74 velocity=118 time=128
note_off channel=10 note=74 velocity=118 time=0
note_off channel=10 note=74 velocity=118 time=0
note_off channel=10 note=74 velocity=118 time=0
note_off channel=10 note=74 velocity=118 time=0
note_off channel=10 note=62 velocity=118 time=0
note_off channel=10 note=62 velocity=118 time=0
note_off channel=10 note=62 velocity=118 time=0
note_off channel=10 note=62 velocity=118 time=0
note_off channel=10 note=62 velocity=118 time=0
note_on channel=10 note=76 velocity=118 time=61
note_on channel=10 note=76 velocity=118 time=14
note_on channel=10 note=76 velocity=118 time=0
note_on channel=10 note=76 velocity=118 time=0
note_on channel=10 note=76 velocity=118 time=0
note_on channel=10 note=64 velocity=118 time=0
note_on channel=10 note=64 velocity=118 time=0
note_on channel=10 note=64 velocity=118 time=0
note_on channel=10 note=64 velocity=118 time=0
note_on channel=10 note=64 velocity=118 time=0
note_off channel=10 note=76 velocity=118 time=128
note_off channel=10 note=76 velocity=118 time=0
note_off channel=10 note=76 velocity=118 time=0
note_off channel=10 note=76 velocity=118 time=0
note_off channel=10 note=76 velocity=118 time=0
note_off channel=10 note=64 velocity=118 time=0
note_off channel=10 note=64 velocity=118 time=0
note_off channel=10 note=64 velocity=118 time=0
note_off channel=10 note=64 velocity=118 time=0
note_off channel=10 note=64 velocity=118 time=0
note_on channel=10 note=71 velocity=118 time=61
note_on channel=10 note=71 velocity=118 time=10
note_on channel=10 note=71 velocity=118 time=0
note_on channel=10 note=71 velocity=118 time=0
note_on channel=10 note=71 velocity=118 time=0
note_on channel=10 note=59 velocity=118 time=0
note_on channel=10 note=59 velocity=118 time=0
note_on channel=10 note=59 velocity=118 time=0
note_on channel=10 note=59 velocity=118 time=0
note_on channel=10 note=59 velocity=118 time=0
note_off channel=10 note=71 velocity=118 time=128
note_off channel=10 note=71 velocity=118 time=0
note_off channel=10 note=71 velocity=118 time=0
note_off channel=10 note=71 velocity=118 time=0
note_off channel=10 note=71 velocity=118 time=0
note_off channel=10 note=59 velocity=118 time=0
note_off channel=10 note=59 velocity=118 time=0
note_off channel=10 note=59 velocity=118 time=0
note_off channel=10 note=59 velocity=118 time=0
note_off channel=10 note=59 velocity=118 time=0
note_on channel=10 note=71 velocity=118 time=61
note_on channel=10 note=71 velocity=118 time=6
note_on channel=10 note=71 velocity=118 time=0
note_on channel=10 note=71 velocity=118 time=0
note_on channel=10 note=71 velocity=118 time=0
note_on channel=10 note=59 velocity=118 time=0
note_on channel=10 note=59 velocity=118 time=0
note_on channel=10 note=59 velocity=118 time=0
note_on channel=10 note=59 velocity=118 time=0
note_on channel=10 note=59 velocity=118 time=0
note_off channel=10 note=71 velocity=118 time=64
note_off channel=10 note=71 velocity=118 time=0
note_off channel=10 note=71 velocity=118 time=0
note_off channel=10 note=71 velocity=118 time=0
note_off channel=10 note=71 velocity=118 time=0
note_off channel=10 note=59 velocity=118 time=0
note_off channel=10 note=59 velocity=118 time=0
note_off channel=10 note=59 velocity=118 time=0
note_off channel=10 note=59 velocity=118 time=0
note_off channel=10 note=59 velocity=118 time=0
note_on channel=10 note=71 velocity=118 time=31
note_on channel=10 note=71 velocity=118 time=0
note_on channel=10 note=71 velocity=118 time=0
note_on channel=10 note=71 velocity=118 time=0
note_on channel=10 note=71 velocity=118 time=0
note_on channel=10 note=59 velocity=118 time=0
note_on channel=10 note=59 velocity=118 time=0
note_on channel=10 note=59 velocity=118 time=0
note_on channel=10 note=59 velocity=118 time=0
note_on channel=10 note=59 velocity=118 time=0
note_off channel=10 note=71 velocity=118 time=64
note_off channel=10 note=71 velocity=118 time=0
note_off channel=10 note=71 velocity=118 time=0
note_off channel=10 note=71 velocity=118 time=0
note_off channel=10 note=71 velocity=118 time=0
note_off channel=10 note=59 velocity=118 time=0
note_off channel=10 note=59 velocity=118 time=0
note_off channel=10 note=59 velocity=118 time=0
note_off channel=10 note=59 velocity=118 time=0
note_off channel=10 note=59 velocity=118 time=0
note_on channel=10 note=71 velocity=118 time=30
note_on channel=10 note=71 velocity=118 time=5
note_on channel=10 note=71 velocity=118 time=0
note_on channel=10 note=71 velocity=118 time=0
note_on channel=10 note=71 velocity=118 time=0
note_on channel=10 note=59 velocity=118 time=0
note_on channel=10 note=59 velocity=118 time=0
note_on channel=10 note=59 velocity=118 time=0
note_on channel=10 note=59 velocity=118 time=0
note_on channel=10 note=59 velocity=118 time=0
note_off channel=10 note=71 velocity=118 time=64
note_off channel=10 note=71 velocity=118 time=0
note_off channel=10 note=71 velocity=118 time=0
note_off channel=10 note=71 velocity=118 time=0
note_off channel=10 note=71 velocity=118 time=0
note_off channel=10 note=59 velocity=118 time=0
note_off channel=10 note=59 velocity=118 time=0
note_off channel=10 note=59 velocity=118 time=0
note_off channel=10 note=59 velocity=118 time=0
note_off channel=10 note=59 velocity=118 time=0
note_on channel=10 note=71 velocity=118 time=30
note_on channel=10 note=71 velocity=118 time=2
note_on channel=10 note=71 velocity=118 time=0
note_on channel=10 note=71 velocity=118 time=0
note_on channel=10 note=71 velocity=118 time=0
note_on channel=10 note=59 velocity=118 time=0
note_on channel=10 note=59 velocity=118 time=0
note_on channel=10 note=59 velocity=118 time=0
note_on channel=10 note=59 velocity=118 time=0
note_on channel=10 note=59 velocity=118 time=0
note_off channel=10 note=71 velocity=118 time=64
note_off channel=10 note=71 velocity=118 time=0
note_off channel=10 note=71 velocity=118 time=0
note_off channel=10 note=71 velocity=118 time=0
note_off channel=10 note=71 velocity=118 time=0
note_off channel=10 note=59 velocity=118 time=0
note_off channel=10 note=59 velocity=118 time=0
note_off channel=10 note=59 velocity=118 time=0
note_off channel=10 note=59 velocity=118 time=0
note_off channel=10 note=59 velocity=118 time=0
note_on channel=10 note=71 velocity=118 time=31
note_on channel=10 note=71 velocity=118 time=2
note_on channel=10 note=71 velocity=118 time=0
note_on channel=10 note=71 velocity=118 time=0
note_on channel=10 note=71 velocity=118 time=0
note_on channel=10 note=59 velocity=118 time=0
note_on channel=10 note=59 velocity=118 time=0
note_on channel=10 note=59 velocity=118 time=0
note_on channel=10 note=59 velocity=118 time=0
note_on channel=10 note=59 velocity=118 time=0
note_off channel=10 note=71 velocity=118 time=64
note_off channel=10 note=71 velocity=118 time=0
note_off channel=10 note=71 velocity=118 time=0
note_off channel=10 note=71 velocity=118 time=0
note_off channel=10 note=71 velocity=118 time=0
note_off channel=10 note=59 velocity=118 time=0
note_off channel=10 note=59 velocity=118 time=0
note_off channel=10 note=59 velocity=118 time=0
note_off channel=10 note=59 velocity=118 time=0
note_off channel=10 note=59 velocity=118 time=0
note_on channel=10 note=71 velocity=118 time=30
note_on channel=10 note=71 velocity=118 time=2
note_on channel=10 note=71 velocity=118 time=0
note_on channel=10 note=71 velocity=118 time=0
note_on channel=10 note=71 velocity=118 time=0
note_on channel=10 note=59 velocity=118 time=0
note_on channel=10 note=59 velocity=118 time=0
note_on channel=10 note=59 velocity=118 time=0
note_on channel=10 note=59 velocity=118 time=0
note_on channel=10 note=59 velocity=118 time=0
note_off channel=10 note=71 velocity=118 time=64
note_off channel=10 note=71 velocity=118 time=0
note_off channel=10 note=71 velocity=118 time=0
note_off channel=10 note=71 velocity=118 time=0
note_off channel=10 note=71 velocity=118 time=0
note_off channel=10 note=59 velocity=118 time=0
note_off channel=10 note=59 velocity=118 time=0
note_off channel=10 note=59 velocity=118 time=0
note_off channel=10 note=59 velocity=118 time=0
note_off channel=10 note=59 velocity=118 time=0
note_on channel=10 note=71 velocity=118 time=30
note_on channel=10 note=71 velocity=118 time=2
note_on channel=10 note=71 velocity=118 time=0
note_on channel=10 note=71 velocity=118 time=0
note_on channel=10 note=71 velocity=118 time=0
note_on channel=10 note=59 velocity=118 time=0
note_on channel=10 note=59 velocity=118 time=0
note_on channel=10 note=59 velocity=118 time=0
note_on channel=10 note=59 velocity=118 time=0
note_on channel=10 note=59 velocity=118 time=0
note_off channel=10 note=71 velocity=118 time=64
note_off channel=10 note=71 velocity=118 time=0
note_off channel=10 note=71 velocity=118 time=0
note_off channel=10 note=71 velocity=118 time=0
note_off channel=10 note=71 velocity=118 time=0
note_off channel=10 note=59 velocity=118 time=0
note_off channel=10 note=59 velocity=118 time=0
note_off channel=10 note=59 velocity=118 time=0
note_off channel=10 note=59 velocity=118 time=0
note_off channel=10 note=59 velocity=118 time=0
note_on channel=10 note=71 velocity=118 time=31
note_on channel=10 note=71 velocity=118 time=2
note_on channel=10 note=71 velocity=118 time=0
note_on channel=10 note=71 velocity=118 time=0
note_on channel=10 note=71 velocity=118 time=0
note_on channel=10 note=59 velocity=118 time=0
note_on channel=10 note=59 velocity=118 time=0
note_on channel=10 note=59 velocity=118 time=0
note_on channel=10 note=59 velocity=118 time=0
note_on channel=10 note=59 velocity=118 time=0
note_off channel=10 note=71 velocity=118 time=64
note_off channel=10 note=71 velocity=118 time=0
note_off channel=10 note=71 velocity=118 time=0
note_off channel=10 note=71 velocity=118 time=0
note_off channel=10 note=71 velocity=118 time=0
note_off channel=10 note=59 velocity=118 time=0
note_off channel=10 note=59 velocity=118 time=0
note_off channel=10 note=59 velocity=118 time=0
note_off channel=10 note=59 velocity=118 time=0
note_off channel=10 note=59 velocity=118 time=0
note_on channel=10 note=74 velocity=118 time=30
note_on channel=10 note=74 velocity=118 time=1
note_on channel=10 note=74 velocity=118 time=0
note_on channel=10 note=74 velocity=118 time=0
note_on channel=10 note=74 velocity=118 time=0
note_on channel=10 note=62 velocity=118 time=0
note_on channel=10 note=62 velocity=118 time=0
note_on channel=10 note=62 velocity=118 time=0
note_on channel=10 note=62 velocity=118 time=0
note_on channel=10 note=62 velocity=118 time=0
note_off channel=10 note=74 velocity=118 time=64
note_off channel=10 note=74 velocity=118 time=0
note_off channel=10 note=74 velocity=118 time=0
note_off channel=10 note=74 velocity=118 time=0
note_off channel=10 note=74 velocity=118 time=0
note_off channel=10 note=62 velocity=118 time=0
note_off channel=10 note=62 velocity=118 time=0
note_off channel=10 note=62 velocity=118 time=0
note_off channel=10 note=62 velocity=118 time=0
note_off channel=10 note=62 velocity=118 time=0
note_on channel=10 note=74 velocity=118 time=30
note_on channel=10 note=74 velocity=118 time=1
note_on channel=10 note=74 velocity=118 time=0
note_on channel=10 note=74 velocity=118 time=0
note_on channel=10 note=74 velocity=118 time=0
note_on channel=10 note=62 velocity=118 time=0
note_on channel=10 note=62 velocity=118 time=0
note_on channel=10 note=62 velocity=118 time=0
note_on channel=10 note=62 velocity=118 time=0
note_on channel=10 note=62 velocity=118 time=0
note_off channel=10 note=74 velocity=118 time=64
note_off channel=10 note=74 velocity=118 time=0
note_off channel=10 note=74 velocity=118 time=0
note_off channel=10 note=74 velocity=118 time=0
note_off channel=10 note=74 velocity=118 time=0
note_off channel=10 note=62 velocity=118 time=0
note_off channel=10 note=62 velocity=118 time=0
note_off channel=10 note=62 velocity=118 time=0
note_off channel=10 note=62 velocity=118 time=0
note_off channel=10 note=62 velocity=118 time=0
note_on channel=10 note=71 velocity=118 time=31
note_on channel=10 note=71 velocity=118 time=1
note_on channel=10 note=71 velocity=118 time=0
note_on channel=10 note=71 velocity=118 time=0
note_on channel=10 note=71 velocity=118 time=0
note_on channel=10 note=59 velocity=118 time=0
note_on channel=10 note=59 velocity=118 time=0
note_on channel=10 note=59 velocity=118 time=0
note_on channel=10 note=59 velocity=118 time=0
note_on channel=10 note=59 velocity=118 time=0
note_off channel=10 note=71 velocity=118 time=128
note_off channel=10 note=71 velocity=118 time=0
note_off channel=10 note=71 velocity=118 time=0
note_off channel=10 note=71 velocity=118 time=0
note_off channel=10 note=71 velocity=118 time=0
note_off channel=10 note=59 velocity=118 time=0
note_off channel=10 note=59 velocity=118 time=0
note_off channel=10 note=59 velocity=118 time=0
note_off channel=10 note=59 velocity=118 time=0
note_off channel=10 note=59 velocity=118 time=0
note_on channel=10 note=71 velocity=118 time=153
note_on channel=10 note=71 velocity=118 time=3
note_on channel=10 note=71 velocity=118 time=0
note_on channel=10 note=71 velocity=118 time=0
note_on channel=10 note=71 velocity=118 time=0
note_on channel=10 note=59 velocity=118 time=0
note_on channel=10 note=59 velocity=118 time=0
note_on channel=10 note=59 velocity=118 time=0
note_on channel=10 note=59 velocity=118 time=0
note_on channel=10 note=59 velocity=118 time=0
note_off channel=10 note=71 velocity=118 time=64
note_off channel=10 note=71 velocity=118 time=0
note_off channel=10 note=71 velocity=118 time=0
note_off channel=10 note=71 velocity=118 time=0
note_off channel=10 note=71 velocity=118 time=0
note_off channel=10 note=59 velocity=118 time=0
note_off channel=10 note=59 velocity=118 time=0
note_off channel=10 note=59 velocity=118 time=0
note_off channel=10 note=59 velocity=118 time=0
note_off channel=10 note=59 velocity=118 time=0
note_on channel=10 note=74 velocity=118 time=30
note_on channel=10 note=74 velocity=118 time=3
note_on channel=10 note=74 velocity=118 time=0
note_on channel=10 note=74 velocity=118 time=0
note_on channel=10 note=74 velocity=118 time=0
note_on channel=10 note=62 velocity=118 time=0
note_on channel=10 note=62 velocity=118 time=0
note_on channel=10 note=62 velocity=118 time=0
note_on channel=10 note=62 velocity=118 time=0
note_on channel=10 note=62 velocity=118 time=0
note_off channel=10 note=74 velocity=118 time=128
note_off channel=10 note=74 velocity=118 time=0
note_off channel=10 note=74 velocity=118 time=0
note_off channel=10 note=74 velocity=118 time=0
note_off channel=10 note=74 velocity=118 time=0
note_off channel=10 note=62 velocity=118 time=0
note_off channel=10 note=62 velocity=118 time=0
note_off channel=10 note=62 velocity=118 time=0
note_off channel=10 note=62 velocity=118 time=0
note_off channel=10 note=62 velocity=118 time=0
note_on channel=10 note=71 velocity=118 time=61
note_on channel=10 note=71 velocity=118 time=11
note_on channel=10 note=71 velocity=118 time=0
note_on channel=10 note=71 velocity=118 time=0
note_on channel=10 note=71 velocity=118 time=0
note_on channel=10 note=59 velocity=118 time=0
note_on channel=10 note=59 velocity=118 time=0
note_on channel=10 note=59 velocity=118 time=0
note_on channel=10 note=59 velocity=118 time=0
note_on channel=10 note=59 velocity=118 time=0
note_off channel=10 note=71 velocity=118 time=256
note_off channel=10 note=71 velocity=118 time=0
note_off channel=10 note=71 velocity=118 time=0
note_off channel=10 note=71 velocity=118 time=0
note_off channel=10 note=71 velocity=118 time=0
note_off channel=10 note=59 velocity=118 time=0
note_off channel=10 note=59 velocity=118 time=0
note_off channel=10 note=59 velocity=118 time=0
note_off channel=10 note=59 velocity=118 time=0
note_off channel=10 note=59 velocity=118 time=0
note_on channel=10 note=71 velocity=118 time=862
note_on channel=10 note=71 velocity=118 time=393
note_on channel=10 note=71 velocity=118 time=0
note_on channel=10 note=71 velocity=118 time=0
note_on channel=10 note=71 velocity=118 time=0
note_on channel=10 note=59 velocity=118 time=0
note_on channel=10 note=59 velocity=118 time=0
note_on channel=10 note=59 velocity=118 time=0
note_on channel=10 note=59 velocity=118 time=0
note_on channel=10 note=59 velocity=118 time=0
note_off channel=10 note=71 velocity=118 time=64
note_off channel=10 note=71 velocity=118 time=0
note_off channel=10 note=71 velocity=118 time=0
note_off channel=10 note=71 velocity=118 time=0
note_off channel=10 note=71 velocity=118 time=0
note_off channel=10 note=59 velocity=118 time=0
note_off channel=10 note=59 velocity=118 time=0
note_off channel=10 note=59 velocity=118 time=0
note_off channel=10 note=59 velocity=118 time=0
note_off channel=10 note=59 velocity=118 time=0
note_on channel=10 note=71 velocity=118 time=31
note_on channel=10 note=71 velocity=118 time=0
note_on channel=10 note=71 velocity=118 time=0
note_on channel=10 note=71 velocity=118 time=0
note_on channel=10 note=71 velocity=118 time=0
note_on channel=10 note=59 velocity=118 time=0
note_on channel=10 note=59 velocity=118 time=0
note_on channel=10 note=59 velocity=118 time=0
note_on channel=10 note=59 velocity=118 time=0
note_on channel=10 note=59 velocity=118 time=0
note_off channel=10 note=71 velocity=118 time=192
note_off channel=10 note=71 velocity=118 time=0
note_off channel=10 note=71 velocity=118 time=0
note_off channel=10 note=71 velocity=118 time=0
note_off channel=10 note=71 velocity=118 time=0
note_off channel=10 note=59 velocity=118 time=0
note_off channel=10 note=59 velocity=118 time=0
note_off channel=10 note=59 velocity=118 time=0
note_off channel=10 note=59 velocity=118 time=0
note_off channel=10 note=59 velocity=118 time=0
note_on channel=10 note=74 velocity=118 time=95
note_on channel=10 note=74 velocity=118 time=2
note_on channel=10 note=74 velocity=118 time=0
note_on channel=10 note=74 velocity=118 time=0
note_on channel=10 note=74 velocity=118 time=0
note_on channel=10 note=62 velocity=118 time=0
note_on channel=10 note=62 velocity=118 time=0
note_on channel=10 note=62 velocity=118 time=0
note_on channel=10 note=62 velocity=118 time=0
note_on channel=10 note=62 velocity=118 time=0
note_on channel=10 note=71 velocity=118 time=95
note_on channel=10 note=71 velocity=118 time=8
note_on channel=10 note=71 velocity=118 time=0
note_on channel=10 note=71 velocity=118 time=0
note_on channel=10 note=71 velocity=118 time=0
note_on channel=10 note=59 velocity=118 time=0
note_on channel=10 note=59 velocity=118 time=0
note_on channel=10 note=59 velocity=118 time=0
note_on channel=10 note=59 velocity=118 time=0
note_on channel=10 note=59 velocity=118 time=0
note_off channel=10 note=74 velocity=118 time=160
note_off channel=10 note=74 velocity=118 time=0
note_off channel=10 note=74 velocity=118 time=0
note_off channel=10 note=74 velocity=118 time=0
note_off channel=10 note=74 velocity=118 time=0
note_off channel=10 note=62 velocity=118 time=0
note_off channel=10 note=62 velocity=118 time=0
note_off channel=10 note=62 velocity=118 time=0
note_off channel=10 note=62 velocity=118 time=0
note_off channel=10 note=62 velocity=118 time=0
note_off channel=10 note=71 velocity=118 time=32
note_off channel=10 note=71 velocity=118 time=0
note_off channel=10 note=71 velocity=118 time=0
note_off channel=10 note=71 velocity=118 time=0
note_off channel=10 note=71 velocity=118 time=0
note_off channel=10 note=59 velocity=118 time=0
note_off channel=10 note=59 velocity=118 time=0
note_off channel=10 note=59 velocity=118 time=0
note_off channel=10 note=59 velocity=118 time=0
note_off channel=10 note=59 velocity=118 time=0
note_on channel=10 note=76 velocity=118 time=857
note_on channel=10 note=76 velocity=118 time=90
note_on channel=10 note=76 velocity=118 time=0
note_on channel=10 note=76 velocity=118 time=0
note_on channel=10 note=76 velocity=118 time=0
note_on channel=10 note=64 velocity=118 time=0
note_on channel=10 note=64 velocity=118 time=0
note_on channel=10 note=64 velocity=118 time=0
note_on channel=10 note=64 velocity=118 time=0
note_on channel=10 note=64 velocity=118 time=0
note_off channel=10 note=76 velocity=118 time=64
note_off channel=10 note=76 velocity=118 time=0
note_off channel=10 note=76 velocity=118 time=0
note_off channel=10 note=76 velocity=118 time=0
note_off channel=10 note=76 velocity=118 time=0
note_off channel=10 note=64 velocity=118 time=0
note_off channel=10 note=64 velocity=118 time=0
note_off channel=10 note=64 velocity=118 time=0
note_off channel=10 note=64 velocity=118 time=0
note_off channel=10 note=64 velocity=118 time=0
note_on channel=10 note=76 velocity=118 time=31
note_on channel=10 note=76 velocity=118 time=7
note_on channel=10 note=76 velocity=118 time=0
note_on channel=10 note=76 velocity=118 time=0
note_on channel=10 note=76 velocity=118 time=0
note_on channel=10 note=64 velocity=118 time=0
note_on channel=10 note=64 velocity=118 time=0
note_on channel=10 note=64 velocity=118 time=0
note_on channel=10 note=64 velocity=118 time=0
note_on channel=10 note=64 velocity=118 time=0
note_off channel=10 note=76 velocity=118 time=192
note_off channel=10 note=76 velocity=118 time=0
note_off channel=10 note=76 velocity=118 time=0
note_off channel=10 note=76 velocity=118 time=0
note_off channel=10 note=76 velocity=118 time=0
note_off channel=10 note=64 velocity=118 time=0
note_off channel=10 note=64 velocity=118 time=0
note_off channel=10 note=64 velocity=118 time=0
note_off channel=10 note=64 velocity=118 time=0
note_off channel=10 note=64 velocity=118 time=0
note_on channel=10 note=71 velocity=118 time=95
note_on channel=10 note=71 velocity=118 time=25
note_on channel=10 note=71 velocity=118 time=0
note_on channel=10 note=71 velocity=118 time=0
note_on channel=10 note=71 velocity=118 time=0
note_on channel=10 note=59 velocity=118 time=0
note_on channel=10 note=59 velocity=118 time=0
note_on channel=10 note=59 velocity=118 time=0
note_on channel=10 note=59 velocity=118 time=0
note_on channel=10 note=59 velocity=118 time=0
note_off channel=10 note=71 velocity=118 time=256
note_off channel=10 note=71 velocity=118 time=0
note_off channel=10 note=71 velocity=118 time=0
note_off channel=10 note=71 velocity=118 time=0
note_off channel=10 note=71 velocity=118 time=0
note_off channel=10 note=59 velocity=118 time=0
note_off channel=10 note=59 velocity=118 time=0
note_off channel=10 note=59 velocity=118 time=0
note_off channel=10 note=59 velocity=118 time=0
note_off channel=10 note=59 velocity=118 time=0
note_on channel=10 note=71 velocity=118 time=893
note_on channel=10 note=71 velocity=118 time=129
note_on channel=10 note=71 velocity=118 time=0
note_on channel=10 note=71 velocity=118 time=0
note_on channel=10 note=71 velocity=118 time=0
note_on channel=10 note=59 velocity=118 time=0
note_on channel=10 note=59 velocity=118 time=0
note_on channel=10 note=59 velocity=118 time=0
note_on channel=10 note=59 velocity=118 time=0
note_on channel=10 note=59 velocity=118 time=0
note_off channel=10 note=71 velocity=118 time=64
note_off channel=10 note=71 velocity=118 time=0
note_off channel=10 note=71 velocity=118 time=0
note_off channel=10 note=71 velocity=118 time=0
note_off channel=10 note=71 velocity=118 time=0
note_off channel=10 note=59 velocity=118 time=0
note_off channel=10 note=59 velocity=118 time=0
note_off channel=10 note=59 velocity=118 time=0
note_off channel=10 note=59 velocity=118 time=0
note_off channel=10 note=59 velocity=118 time=0
note_on channel=10 note=71 velocity=118 time=31
note_on channel=10 note=71 velocity=118 time=8
note_on channel=10 note=71 velocity=118 time=0
note_on channel=10 note=71 velocity=118 time=0
note_on channel=10 note=71 velocity=118 time=0
note_on channel=10 note=59 velocity=118 time=0
note_on channel=10 note=59 velocity=118 time=0
note_on channel=10 note=59 velocity=118 time=0
note_on channel=10 note=59 velocity=118 time=0
note_on channel=10 note=59 velocity=118 time=0
note_off channel=10 note=71 velocity=118 time=192
note_off channel=10 note=71 velocity=118 time=0
note_off channel=10 note=71 velocity=118 time=0
note_off channel=10 note=71 velocity=118 time=0
note_off channel=10 note=71 velocity=118 time=0
note_off channel=10 note=59 velocity=118 time=0
note_off channel=10 note=59 velocity=118 time=0
note_off channel=10 note=59 velocity=118 time=0
note_off channel=10 note=59 velocity=118 time=0
note_off channel=10 note=59 velocity=118 time=0
note_on channel=10 note=74 velocity=118 time=94
note_on channel=10 note=74 velocity=118 time=24
note_on channel=10 note=74 velocity=118 time=0
note_on channel=10 note=74 velocity=118 time=0
note_on channel=10 note=74 velocity=118 time=0
note_on channel=10 note=62 velocity=118 time=0
note_on channel=10 note=62 velocity=118 time=0
note_on channel=10 note=62 velocity=118 time=0
note_on channel=10 note=62 velocity=118 time=0
note_on channel=10 note=62 velocity=118 time=0
note_off channel=10 note=74 velocity=118 time=256
note_off channel=10 note=74 velocity=118 time=0
note_off channel=10 note=74 velocity=118 time=0
note_off channel=10 note=74 velocity=118 time=0
note_off channel=10 note=74 velocity=118 time=0
note_off channel=10 note=62 velocity=118 time=0
note_off channel=10 note=62 velocity=118 time=0
note_off channel=10 note=62 velocity=118 time=0
note_off channel=10 note=62 velocity=118 time=0
note_off channel=10 note=62 velocity=118 time=0
note_on channel=10 note=69 velocity=118 time=1451
note_on channel=10 note=69 velocity=118 time=111
note_on channel=10 note=69 velocity=118 time=0
note_on channel=10 note=69 velocity=118 time=0
note_on channel=10 note=69 velocity=118 time=0
note_on channel=10 note=57 velocity=118 time=0
note_on channel=10 note=57 velocity=118 time=0
note_on channel=10 note=57 velocity=118 time=0
note_on channel=10 note=57 velocity=118 time=0
note_on channel=10 note=57 velocity=118 time=0
note_off channel=10 note=69 velocity=118 time=384
note_off channel=10 note=69 velocity=118 time=0
note_off channel=10 note=69 velocity=118 time=0
note_off channel=10 note=69 velocity=118 time=0
note_off channel=10 note=69 velocity=118 time=0
note_off channel=10 note=57 velocity=118 time=0
note_off channel=10 note=57 velocity=118 time=0
note_off channel=10 note=57 velocity=118 time=0
note_off channel=10 note=57 velocity=118 time=0
note_off channel=10 note=57 velocity=118 time=0
note_on channel=10 note=71 velocity=118 time=0
note_on channel=10 note=71 velocity=118 time=0
note_on channel=10 note=71 velocity=118 time=0
note_on channel=10 note=71 velocity=118 time=0
note_on channel=10 note=71 velocity=118 time=0
note_on channel=10 note=59 velocity=118 time=0
note_on channel=10 note=59 velocity=118 time=0
note_on channel=10 note=59 velocity=118 time=0
note_on channel=10 note=59 velocity=118 time=0
note_on channel=10 note=59 velocity=118 time=0
note_off channel=10 note=71 velocity=118 time=128
note_off channel=10 note=71 velocity=118 time=0
note_off channel=10 note=71 velocity=118 time=0
note_off channel=10 note=71 velocity=118 time=0
note_off channel=10 note=71 velocity=118 time=0
note_off channel=10 note=59 velocity=118 time=0
note_off channel=10 note=59 velocity=118 time=0
note_off channel=10 note=59 velocity=118 time=0
note_off channel=10 note=59 velocity=118 time=0
note_off channel=10 note=59 velocity=118 time=0
note_on channel=10 note=73 velocity=118 time=63
note_on channel=10 note=73 velocity=118 time=0
note_on channel=10 note=73 velocity=118 time=0
note_on channel=10 note=73 velocity=118 time=0
note_on channel=10 note=73 velocity=118 time=0
note_on channel=10 note=61 velocity=118 time=0
note_on channel=10 note=61 velocity=118 time=0
note_on channel=10 note=61 velocity=118 time=0
note_on channel=10 note=61 velocity=118 time=0
note_on channel=10 note=61 velocity=118 time=0
note_off channel=10 note=73 velocity=118 time=192
note_off channel=10 note=73 velocity=118 time=0
note_off channel=10 note=73 velocity=118 time=0
note_off channel=10 note=73 velocity=118 time=0
note_off channel=10 note=73 velocity=118 time=0
note_off channel=10 note=61 velocity=118 time=0
note_off channel=10 note=61 velocity=118 time=0
note_off channel=10 note=61 velocity=118 time=0
note_off channel=10 note=61 velocity=118 time=0
note_off channel=10 note=61 velocity=118 time=0
note_on channel=10 note=71 velocity=118 time=95
note_on channel=10 note=71 velocity=118 time=12
note_on channel=10 note=71 velocity=118 time=0
note_on channel=10 note=71 velocity=118 time=0
note_on channel=10 note=71 velocity=118 time=0
note_on channel=10 note=59 velocity=118 time=0
note_on channel=10 note=59 velocity=118 time=0
note_on channel=10 note=59 velocity=118 time=0
note_on channel=10 note=59 velocity=118 time=0
note_on channel=10 note=59 velocity=118 time=0
note_off channel=10 note=71 velocity=118 time=128
note_off channel=10 note=71 velocity=118 time=0
note_off channel=10 note=71 velocity=118 time=0
note_off channel=10 note=71 velocity=118 time=0
note_off channel=10 note=71 velocity=118 time=0
note_off channel=10 note=59 velocity=118 time=0
note_off channel=10 note=59 velocity=118 time=0
note_off channel=10 note=59 velocity=118 time=0
note_off channel=10 note=59 velocity=118 time=0
note_off channel=10 note=59 velocity=118 time=0
note_on channel=10 note=73 velocity=118 time=158
note_on channel=10 note=73 velocity=118 time=51
note_on channel=10 note=73 velocity=118 time=0
note_on channel=10 note=73 velocity=118 time=0
note_on channel=10 note=73 velocity=118 time=0
note_on channel=10 note=61 velocity=118 time=0
note_on channel=10 note=61 velocity=118 time=0
note_on channel=10 note=61 velocity=118 time=0
note_on channel=10 note=61 velocity=118 time=0
note_on channel=10 note=61 velocity=118 time=0
note_off channel=10 note=73 velocity=118 time=128
note_off channel=10 note=73 velocity=118 time=0
note_off channel=10 note=73 velocity=118 time=0
note_off channel=10 note=73 velocity=118 time=0
note_off channel=10 note=73 velocity=118 time=0
note_off channel=10 note=61 velocity=118 time=0
note_off channel=10 note=61 velocity=118 time=0
note_off channel=10 note=61 velocity=118 time=0
note_off channel=10 note=61 velocity=118 time=0
note_off channel=10 note=61 velocity=118 time=0
note_on channel=10 note=69 velocity=118 time=253
note_on channel=10 note=69 velocity=118 time=126
note_on channel=10 note=69 velocity=118 time=0
note_on channel=10 note=69 velocity=118 time=0
note_on channel=10 note=69 velocity=118 time=0
note_on channel=10 note=57 velocity=118 time=0
note_on channel=10 note=57 velocity=118 time=0
note_on channel=10 note=57 velocity=118 time=0
note_on channel=10 note=57 velocity=118 time=0
note_on channel=10 note=57 velocity=118 time=0
note_off channel=10 note=69 velocity=118 time=384
note_off channel=10 note=69 velocity=118 time=0
note_off channel=10 note=69 velocity=118 time=0
note_off channel=10 note=69 velocity=118 time=0
note_off channel=10 note=69 velocity=118 time=0
note_off channel=10 note=57 velocity=118 time=0
note_off channel=10 note=57 velocity=118 time=0
note_off channel=10 note=57 velocity=118 time=0
note_off channel=10 note=57 velocity=118 time=0
note_off channel=10 note=57 velocity=118 time=0
note_on channel=10 note=71 velocity=118 time=0
note_on channel=10 note=71 velocity=118 time=0
note_on channel=10 note=71 velocity=118 time=0
note_on channel=10 note=71 velocity=118 time=0
note_on channel=10 note=71 velocity=118 time=0
note_on channel=10 note=59 velocity=118 time=0
note_on channel=10 note=59 velocity=118 time=0
note_on channel=10 note=59 velocity=118 time=0
note_on channel=10 note=59 velocity=118 time=0
note_on channel=10 note=59 velocity=118 time=0
note_off channel=10 note=71 velocity=118 time=128
note_off channel=10 note=71 velocity=118 time=0
note_off channel=10 note=71 velocity=118 time=0
note_off channel=10 note=71 velocity=118 time=0
note_off channel=10 note=71 velocity=118 time=0
note_off channel=10 note=59 velocity=118 time=0
note_off channel=10 note=59 velocity=118 time=0
note_off channel=10 note=59 velocity=118 time=0
note_off channel=10 note=59 velocity=118 time=0
note_off channel=10 note=59 velocity=118 time=0
note_on channel=10 note=73 velocity=118 time=63
note_on channel=10 note=73 velocity=118 time=25
note_on channel=10 note=73 velocity=118 time=0
note_on channel=10 note=73 velocity=118 time=0
note_on channel=10 note=73 velocity=118 time=0
note_on channel=10 note=61 velocity=118 time=0
note_on channel=10 note=61 velocity=118 time=0
note_on channel=10 note=61 velocity=118 time=0
note_on channel=10 note=61 velocity=118 time=0
note_on channel=10 note=61 velocity=118 time=0
note_off channel=10 note=73 velocity=118 time=192
note_off channel=10 note=73 velocity=118 time=0
note_off channel=10 note=73 velocity=118 time=0
note_off channel=10 note=73 velocity=118 time=0
note_off channel=10 note=73 velocity=118 time=0
note_off channel=10 note=61 velocity=118 time=0
note_off channel=10 note=61 velocity=118 time=0
note_off channel=10 note=61 velocity=118 time=0
note_off channel=10 note=61 velocity=118 time=0
note_off channel=10 note=61 velocity=118 time=0
note_on channel=10 note=71 velocity=118 time=94
note_on channel=10 note=71 velocity=118 time=23
note_on channel=10 note=71 velocity=118 time=0
note_on channel=10 note=71 velocity=118 time=0
note_on channel=10 note=71 velocity=118 time=0
note_on channel=10 note=59 velocity=118 time=0
note_on channel=10 note=59 velocity=118 time=0
note_on channel=10 note=59 velocity=118 time=0
note_on channel=10 note=59 velocity=118 time=0
note_on channel=10 note=59 velocity=118 time=0
note_off channel=10 note=71 velocity=118 time=128
note_off channel=10 note=71 velocity=118 time=0
note_off channel=10 note=71 velocity=118 time=0
note_off channel=10 note=71 velocity=118 time=0
note_off channel=10 note=71 velocity=118 time=0
note_off channel=10 note=59 velocity=118 time=0
note_off channel=10 note=59 velocity=118 time=0
note_off channel=10 note=59 velocity=118 time=0
note_off channel=10 note=59 velocity=118 time=0
note_off channel=10 note=59 velocity=118 time=0
note_on channel=10 note=73 velocity=118 time=62
note_on channel=10 note=73 velocity=118 time=5
note_on channel=10 note=73 velocity=118 time=0
note_on channel=10 note=73 velocity=118 time=0
note_on channel=10 note=73 velocity=118 time=0
note_on channel=10 note=61 velocity=118 time=0
note_on channel=10 note=61 velocity=118 time=0
note_on channel=10 note=61 velocity=118 time=0
note_on channel=10 note=61 velocity=118 time=0
note_on channel=10 note=61 velocity=118 time=0
note_off channel=10 note=73 velocity=118 time=64
note_off channel=10 note=73 velocity=118 time=0
note_off channel=10 note=73 velocity=118 time=0
note_off channel=10 note=73 velocity=118 time=0
note_off channel=10 note=73 velocity=118 time=0
note_off channel=10 note=61 velocity=118 time=0
note_off channel=10 note=61 velocity=118 time=0
note_off channel=10 note=61 velocity=118 time=0
note_off channel=10 note=61 velocity=118 time=0
note_off channel=10 note=61 velocity=118 time=0
note_on channel=10 note=73 velocity=118 time=31
note_on channel=10 note=73 velocity=118 time=0
note_on channel=10 note=73 velocity=118 time=0
note_on channel=10 note=73 velocity=118 time=0
note_on channel=10 note=73 velocity=118 time=0
note_on channel=10 note=61 velocity=118 time=0
note_on channel=10 note=61 velocity=118 time=0
note_on channel=10 note=61 velocity=118 time=0
note_on channel=10 note=61 velocity=118 time=0
note_on channel=10 note=61 velocity=118 time=0
note_off channel=10 note=73 velocity=118 time=128
note_off channel=10 note=73 velocity=118 time=0
note_off channel=10 note=73 velocity=118 time=0
note_off channel=10 note=73 velocity=118 time=0
note_off channel=10 note=73 velocity=118 time=0
note_off channel=10 note=61 velocity=118 time=0
note_off channel=10 note=61 velocity=118 time=0
note_off channel=10 note=61 velocity=118 time=0
note_off channel=10 note=61 velocity=118 time=0
note_off channel=10 note=61 velocity=118 time=0
note_on channel=10 note=74 velocity=118 time=62
note_on channel=10 note=74 velocity=118 time=4
note_on channel=10 note=74 velocity=118 time=0
note_on channel=10 note=74 velocity=118 time=0
note_on channel=10 note=74 velocity=118 time=0
note_on channel=10 note=62 velocity=118 time=0
note_on channel=10 note=62 velocity=118 time=0
note_on channel=10 note=62 velocity=118 time=0
note_on channel=10 note=62 velocity=118 time=0
note_on channel=10 note=62 velocity=118 time=0
note_off channel=10 note=74 velocity=118 time=64
note_off channel=10 note=74 velocity=118 time=0
note_off channel=10 note=74 velocity=118 time=0
note_off channel=10 note=74 velocity=118 time=0
note_off channel=10 note=74 velocity=118 time=0
note_off channel=10 note=62 velocity=118 time=0
note_off channel=10 note=62 velocity=118 time=0
note_off channel=10 note=62 velocity=118 time=0
note_off channel=10 note=62 velocity=118 time=0
note_off channel=10 note=62 velocity=118 time=0
note_on channel=10 note=74 velocity=118 time=31
note_on channel=10 note=74 velocity=118 time=3
note_on channel=10 note=74 velocity=118 time=0
note_on channel=10 note=74 velocity=118 time=0
note_on channel=10 note=74 velocity=118 time=0
note_on channel=10 note=62 velocity=118 time=0
note_on channel=10 note=62 velocity=118 time=0
note_on channel=10 note=62 velocity=118 time=0
note_on channel=10 note=62 velocity=118 time=0
note_on channel=10 note=62 velocity=118 time=0
note_off channel=10 note=74 velocity=118 time=128
note_off channel=10 note=74 velocity=118 time=0
note_off channel=10 note=74 velocity=118 time=0
note_off channel=10 note=74 velocity=118 time=0
note_off channel=10 note=74 velocity=118 time=0
note_off channel=10 note=62 velocity=118 time=0
note_off channel=10 note=62 velocity=118 time=0
note_off channel=10 note=62 velocity=118 time=0
note_off channel=10 note=62 velocity=118 time=0
note_off channel=10 note=62 velocity=118 time=0
note_on channel=10 note=74 velocity=118 time=62
note_on channel=10 note=74 velocity=118 time=8
note_on channel=10 note=74 velocity=118 time=0
note_on channel=10 note=74 velocity=118 time=0
note_on channel=10 note=74 velocity=118 time=0
note_on channel=10 note=62 velocity=118 time=0
note_on channel=10 note=62 velocity=118 time=0
note_on channel=10 note=62 velocity=118 time=0
note_on channel=10 note=62 velocity=118 time=0
note_on channel=10 note=62 velocity=118 time=0
note_off channel=10 note=74 velocity=118 time=256
note_off channel=10 note=74 velocity=118 time=0
note_off channel=10 note=74 velocity=118 time=0
note_off channel=10 note=74 velocity=118 time=0
note_off channel=10 note=74 velocity=118 time=0
note_off channel=10 note=62 velocity=118 time=0
note_off channel=10 note=62 velocity=118 time=0
note_off channel=10 note=62 velocity=118 time=0
note_off channel=10 note=62 velocity=118 time=0
note_off channel=10 note=62 velocity=118 time=0
note_on channel=10 note=74 velocity=118 time=689
note_on channel=10 note=74 velocity=118 time=132
note_on channel=10 note=74 velocity=118 time=0
note_on channel=10 note=74 velocity=118 time=0
note_on channel=10 note=74 velocity=118 time=0
note_on channel=10 note=62 velocity=118 time=0
note_on channel=10 note=62 velocity=118 time=0
note_on channel=10 note=62 velocity=118 time=0
note_on channel=10 note=62 velocity=118 time=0
note_on channel=10 note=62 velocity=118 time=0
note_off channel=10 note=74 velocity=118 time=64
note_off channel=10 note=74 velocity=118 time=0
note_off channel=10 note=74 velocity=118 time=0
note_off channel=10 note=74 velocity=118 time=0
note_off channel=10 note=74 velocity=118 time=0
note_off channel=10 note=62 velocity=118 time=0
note_off channel=10 note=62 velocity=118 time=0
note_off channel=10 note=62 velocity=118 time=0
note_off channel=10 note=62 velocity=118 time=0
note_off channel=10 note=62 velocity=118 time=0
note_on channel=10 note=74 velocity=118 time=30
note_on channel=10 note=74 velocity=118 time=9
note_on channel=10 note=74 velocity=118 time=0
note_on channel=10 note=74 velocity=118 time=0
note_on channel=10 note=74 velocity=118 time=0
note_on channel=10 note=62 velocity=118 time=0
note_on channel=10 note=62 velocity=118 time=0
note_on channel=10 note=62 velocity=118 time=0
note_on channel=10 note=62 velocity=118 time=0
note_on channel=10 note=62 velocity=118 time=0
note_off channel=10 note=74 velocity=118 time=128
note_off channel=10 note=74 velocity=118 time=0
note_off channel=10 note=74 velocity=118 time=0
note_off channel=10 note=74 velocity=118 time=0
note_off channel=10 note=74 velocity=118 time=0
note_off channel=10 note=62 velocity=118 time=0
note_off channel=10 note=62 velocity=118 time=0
note_off channel=10 note=62 velocity=118 time=0
note_off channel=10 note=62 velocity=118 time=0
note_off channel=10 note=62 velocity=118 time=0
note_on channel=10 note=78 velocity=118 time=62
note_on channel=10 note=78 velocity=118 time=13
note_on channel=10 note=78 velocity=118 time=0
note_on channel=10 note=78 velocity=118 time=0
note_on channel=10 note=78 velocity=118 time=0
note_on channel=10 note=66 velocity=118 time=0
note_on channel=10 note=66 velocity=118 time=0
note_on channel=10 note=66 velocity=118 time=0
note_on channel=10 note=66 velocity=118 time=0
note_on channel=10 note=66 velocity=118 time=0
note_off channel=10 note=78 velocity=118 time=192
note_off channel=10 note=78 velocity=118 time=0
note_off channel=10 note=78 velocity=118 time=0
note_off channel=10 note=78 velocity=118 time=0
note_off channel=10 note=78 velocity=118 time=0
note_off channel=10 note=66 velocity=118 time=0
note_off channel=10 note=66 velocity=118 time=0
note_off channel=10 note=66 velocity=118 time=0
note_off channel=10 note=66 velocity=118 time=0
note_off channel=10 note=66 velocity=118 time=0
note_on channel=10 note=74 velocity=118 time=93
note_on channel=10 note=74 velocity=118 time=8
note_on channel=10 note=74 velocity=118 time=0
note_on channel=10 note=74 velocity=118 time=0
note_on channel=10 note=74 velocity=118 time=0
note_on channel=10 note=62 velocity=118 time=0
note_on channel=10 note=62 velocity=118 time=0
note_on channel=10 note=62 velocity=118 time=0
note_on channel=10 note=62 velocity=118 time=0
note_on channel=10 note=62 velocity=118 time=0
note_off channel=10 note=74 velocity=118 time=192
note_off channel=10 note=74 velocity=118 time=0
note_off channel=10 note=74 velocity=118 time=0
note_off channel=10 note=74 velocity=118 time=0
note_off channel=10 note=74 velocity=118 time=0
note_off channel=10 note=62 velocity=118 time=0
note_off channel=10 note=62 velocity=118 time=0
note_off channel=10 note=62 velocity=118 time=0
note_off channel=10 note=62 velocity=118 time=0
note_off channel=10 note=62 velocity=118 time=0
note_on channel=10 note=74 velocity=118 time=93
note_on channel=10 note=74 velocity=118 time=4
note_on channel=10 note=74 velocity=118 time=0
note_on channel=10 note=74 velocity=118 time=0
note_on channel=10 note=74 velocity=118 time=0
note_on channel=10 note=62 velocity=118 time=0
note_on channel=10 note=62 velocity=118 time=0
note_on channel=10 note=62 velocity=118 time=0
note_on channel=10 note=62 velocity=118 time=0
note_on channel=10 note=62 velocity=118 time=0
note_off channel=10 note=74 velocity=118 time=384
note_off channel=10 note=74 velocity=118 time=0
note_off channel=10 note=74 velocity=118 time=0
note_off channel=10 note=74 velocity=118 time=0
note_off channel=10 note=74 velocity=118 time=0
note_off channel=10 note=62 velocity=118 time=0
note_off channel=10 note=62 velocity=118 time=0
note_off channel=10 note=62 velocity=118 time=0
note_off channel=10 note=62 velocity=118 time=0
note_off channel=10 note=62 velocity=118 time=0
note_on channel=10 note=76 velocity=118 time=559
note_on channel=10 note=76 velocity=118 time=142
note_on channel=10 note=76 velocity=118 time=0
note_on channel=10 note=76 velocity=118 time=0
note_on channel=10 note=76 velocity=118 time=0
note_on channel=10 note=64 velocity=118 time=0
note_on channel=10 note=64 velocity=118 time=0
note_on channel=10 note=64 velocity=118 time=0
note_on channel=10 note=64 velocity=118 time=0
note_on channel=10 note=64 velocity=118 time=0
note_off channel=10 note=76 velocity=118 time=64
note_off channel=10 note=76 velocity=118 time=0
note_off channel=10 note=76 velocity=118 time=0
note_off channel=10 note=76 velocity=118 time=0
note_off channel=10 note=76 velocity=118 time=0
note_off channel=10 note=64 velocity=118 time=0
note_off channel=10 note=64 velocity=118 time=0
note_off channel=10 note=64 velocity=118 time=0
note_off channel=10 note=64 velocity=118 time=0
note_off channel=10 note=64 velocity=118 time=0
note_on channel=10 note=76 velocity=118 time=31
note_on channel=10 note=76 velocity=118 time=20
note_on channel=10 note=76 velocity=118 time=0
note_on channel=10 note=76 velocity=118 time=0
note_on channel=10 note=76 velocity=118 time=0
note_on channel=10 note=64 velocity=118 time=0
note_on channel=10 note=64 velocity=118 time=0
note_on channel=10 note=64 velocity=118 time=0
note_on channel=10 note=64 velocity=118 time=0
note_on channel=10 note=64 velocity=118 time=0
note_off channel=10 note=76 velocity=118 time=128
note_off channel=10 note=76 velocity=118 time=0
note_off channel=10 note=76 velocity=118 time=0
note_off channel=10 note=76 velocity=118 time=0
note_off channel=10 note=76 velocity=118 time=0
note_off channel=10 note=64 velocity=118 time=0
note_off channel=10 note=64 velocity=118 time=0
note_off channel=10 note=64 velocity=118 time=0
note_off channel=10 note=64 velocity=118 time=0
note_off channel=10 note=64 velocity=118 time=0
note_on channel=10 note=76 velocity=118 time=62
note_on channel=10 note=76 velocity=118 time=46
note_on channel=10 note=76 velocity=118 time=0
note_on channel=10 note=76 velocity=118 time=0
note_on channel=10 note=76 velocity=118 time=0
note_on channel=10 note=64 velocity=118 time=0
note_on channel=10 note=64 velocity=118 time=0
note_on channel=10 note=64 velocity=118 time=0
note_on channel=10 note=64 velocity=118 time=0
note_on channel=10 note=64 velocity=118 time=0
note_off channel=10 note=76 velocity=118 time=256
note_off channel=10 note=76 velocity=118 time=0
note_off channel=10 note=76 velocity=118 time=0
note_off channel=10 note=76 velocity=118 time=0
note_off channel=10 note=76 velocity=118 time=0
note_off channel=10 note=64 velocity=118 time=0
note_off channel=10 note=64 velocity=118 time=0
note_off channel=10 note=64 velocity=118 time=0
note_off channel=10 note=64 velocity=118 time=0
note_off channel=10 note=64 velocity=118 time=0
note_on channel=10 note=74 velocity=118 time=314
note_on channel=10 note=74 velocity=118 time=296
note_on channel=10 note=74 velocity=118 time=0
note_on channel=10 note=74 velocity=118 time=0
note_on channel=10 note=74 velocity=118 time=0
note_on channel=10 note=62 velocity=118 time=0
note_on channel=10 note=62 velocity=118 time=0
note_on channel=10 note=62 velocity=118 time=0
note_on channel=10 note=62 velocity=118 time=0
note_on channel=10 note=62 velocity=118 time=0
note_off channel=10 note=74 velocity=118 time=64
note_off channel=10 note=74 velocity=118 time=0
note_off channel=10 note=74 velocity=118 time=0
note_off channel=10 note=74 velocity=118 time=0
note_off channel=10 note=74 velocity=118 time=0
note_off channel=10 note=62 velocity=118 time=0
note_off channel=10 note=62 velocity=118 time=0
note_off channel=10 note=62 velocity=118 time=0
note_off channel=10 note=62 velocity=118 time=0
note_off channel=10 note=62 velocity=118 time=0
note_on channel=10 note=74 velocity=118 time=31
note_on channel=10 note=74 velocity=118 time=26
note_on channel=10 note=74 velocity=118 time=0
note_on channel=10 note=74 velocity=118 time=0
note_on channel=10 note=74 velocity=118 time=0
note_on channel=10 note=62 velocity=118 time=0
note_on channel=10 note=62 velocity=118 time=0
note_on channel=10 note=62 velocity=118 time=0
note_on channel=10 note=62 velocity=118 time=0
note_on channel=10 note=62 velocity=118 time=0
note_off channel=10 note=74 velocity=118 time=64
note_off channel=10 note=74 velocity=118 time=0
note_off channel=10 note=74 velocity=118 time=0
note_off channel=10 note=74 velocity=118 time=0
note_off channel=10 note=74 velocity=118 time=0
note_off channel=10 note=62 velocity=118 time=0
note_off channel=10 note=62 velocity=118 time=0
note_off channel=10 note=62 velocity=118 time=0
note_off channel=10 note=62 velocity=118 time=0
note_off channel=10 note=62 velocity=118 time=0
note_on channel=10 note=74 velocity=118 time=32
note_on channel=10 note=74 velocity=118 time=25
note_on channel=10 note=74 velocity=118 time=0
note_on channel=10 note=74 velocity=118 time=0
note_on channel=10 note=74 velocity=118 time=0
note_on channel=10 note=62 velocity=118 time=0
note_on channel=10 note=62 velocity=118 time=0
note_on channel=10 note=62 velocity=118 time=0
note_on channel=10 note=62 velocity=118 time=0
note_on channel=10 note=62 velocity=118 time=0
note_off channel=10 note=74 velocity=118 time=64
note_off channel=10 note=74 velocity=118 time=0
note_off channel=10 note=74 velocity=118 time=0
note_off channel=10 note=74 velocity=118 time=0
note_off channel=10 note=74 velocity=118 time=0
note_off channel=10 note=62 velocity=118 time=0
note_off channel=10 note=62 velocity=118 time=0
note_off channel=10 note=62 velocity=118 time=0
note_off channel=10 note=62 velocity=118 time=0
note_off channel=10 note=62 velocity=118 time=0
note_on channel=10 note=74 velocity=118 time=31
note_on channel=10 note=74 velocity=118 time=23
note_on channel=10 note=74 velocity=118 time=0
note_on channel=10 note=74 velocity=118 time=0
note_on channel=10 note=74 velocity=118 time=0
note_on channel=10 note=62 velocity=118 time=0
note_on channel=10 note=62 velocity=118 time=0
note_on channel=10 note=62 velocity=118 time=0
note_on channel=10 note=62 velocity=118 time=0
note_on channel=10 note=62 velocity=118 time=0
note_off channel=10 note=74 velocity=118 time=256
note_off channel=10 note=74 velocity=118 time=0
note_off channel=10 note=74 velocity=118 time=0
note_off channel=10 note=74 velocity=118 time=0
note_off channel=10 note=74 velocity=118 time=0
note_off channel=10 note=62 velocity=118 time=0
note_off channel=10 note=62 velocity=118 time=0
note_off channel=10 note=62 velocity=118 time=0
note_off channel=10 note=62 velocity=118 time=0
note_off channel=10 note=62 velocity=118 time=0
note_on channel=10 note=76 velocity=118 time=224
note_on channel=10 note=76 velocity=118 time=133
note_on channel=10 note=76 velocity=118 time=0
note_on channel=10 note=76 velocity=118 time=0
note_on channel=10 note=76 velocity=118 time=0
note_on channel=10 note=64 velocity=118 time=0
note_on channel=10 note=64 velocity=118 time=0
note_on channel=10 note=64 velocity=118 time=0
note_on channel=10 note=64 velocity=118 time=0
note_on channel=10 note=64 velocity=118 time=0
note_off channel=10 note=76 velocity=118 time=64
note_off channel=10 note=76 velocity=118 time=0
note_off channel=10 note=76 velocity=118 time=0
note_off channel=10 note=76 velocity=118 time=0
note_off channel=10 note=76 velocity=118 time=0
note_off channel=10 note=64 velocity=118 time=0
note_off channel=10 note=64 velocity=118 time=0
note_off channel=10 note=64 velocity=118 time=0
note_off channel=10 note=64 velocity=118 time=0
note_off channel=10 note=64 velocity=118 time=0
note_on channel=10 note=76 velocity=118 time=31
note_on channel=10 note=76 velocity=118 time=15
note_on channel=10 note=76 velocity=118 time=0
note_on channel=10 note=76 velocity=118 time=0
note_on channel=10 note=76 velocity=118 time=0
note_on channel=10 note=64 velocity=118 time=0
note_on channel=10 note=64 velocity=118 time=0
note_on channel=10 note=64 velocity=118 time=0
note_on channel=10 note=64 velocity=118 time=0
note_on channel=10 note=64 velocity=118 time=0
note_off channel=10 note=76 velocity=118 time=64
note_off channel=10 note=76 velocity=118 time=0
note_off channel=10 note=76 velocity=118 time=0
note_off channel=10 note=76 velocity=118 time=0
note_off channel=10 note=76 velocity=118 time=0
note_off channel=10 note=64 velocity=118 time=0
note_off channel=10 note=64 velocity=118 time=0
note_off channel=10 note=64 velocity=118 time=0
note_off channel=10 note=64 velocity=118 time=0
note_off channel=10 note=64 velocity=118 time=0
note_on channel=10 note=76 velocity=118 time=32
note_on channel=10 note=76 velocity=118 time=14
note_on channel=10 note=76 velocity=118 time=0
note_on channel=10 note=76 velocity=118 time=0
note_on channel=10 note=76 velocity=118 time=0
note_on channel=10 note=64 velocity=118 time=0
note_on channel=10 note=64 velocity=118 time=0
note_on channel=10 note=64 velocity=118 time=0
note_on channel=10 note=64 velocity=118 time=0
note_on channel=10 note=64 velocity=118 time=0
note_off channel=10 note=76 velocity=118 time=64
note_off channel=10 note=76 velocity=118 time=0
note_off channel=10 note=76 velocity=118 time=0
note_off channel=10 note=76 velocity=118 time=0
note_off channel=10 note=76 velocity=118 time=0
note_off channel=10 note=64 velocity=118 time=0
note_off channel=10 note=64 velocity=118 time=0
note_off channel=10 note=64 velocity=118 time=0
note_off channel=10 note=64 velocity=118 time=0
note_off channel=10 note=64 velocity=118 time=0
note_on channel=10 note=76 velocity=118 time=32
note_on channel=10 note=76 velocity=118 time=14
note_on channel=10 note=76 velocity=118 time=0
note_on channel=10 note=76 velocity=118 time=0
note_on channel=10 note=76 velocity=118 time=0
note_on channel=10 note=64 velocity=118 time=0
note_on channel=10 note=64 velocity=118 time=0
note_on channel=10 note=64 velocity=118 time=0
note_on channel=10 note=64 velocity=118 time=0
note_on channel=10 note=64 velocity=118 time=0
note_off channel=10 note=76 velocity=118 time=128
note_off channel=10 note=76 velocity=118 time=0
note_off channel=10 note=76 velocity=118 time=0
note_off channel=10 note=76 velocity=118 time=0
note_off channel=10 note=76 velocity=118 time=0
note_off channel=10 note=64 velocity=118 time=0
note_off channel=10 note=64 velocity=118 time=0
note_off channel=10 note=64 velocity=118 time=0
note_off channel=10 note=64 velocity=118 time=0
note_off channel=10 note=64 velocity=118 time=0
note_on channel=10 note=71 velocity=118 time=64
note_on channel=10 note=71 velocity=118 time=24
note_on channel=10 note=71 velocity=118 time=0
note_on channel=10 note=71 velocity=118 time=0
note_on channel=10 note=71 velocity=118 time=0
note_on channel=10 note=59 velocity=118 time=0
note_on channel=10 note=59 velocity=118 time=0
note_on channel=10 note=59 velocity=118 time=0
note_on channel=10 note=59 velocity=118 time=0
note_on channel=10 note=59 velocity=118 time=0
note_off channel=10 note=71 velocity=118 time=128
note_off channel=10 note=71 velocity=118 time=0
note_off channel=10 note=71 velocity=118 time=0
note_off channel=10 note=71 velocity=118 time=0
note_off channel=10 note=71 velocity=118 time=0
note_off channel=10 note=59 velocity=118 time=0
note_off channel=10 note=59 velocity=118 time=0
note_off channel=10 note=59 velocity=118 time=0
note_off channel=10 note=59 velocity=118 time=0
note_off channel=10 note=59 velocity=118 time=0
note_on channel=10 note=69 velocity=118 time=64
note_on channel=10 note=69 velocity=118 time=20
note_on channel=10 note=69 velocity=118 time=0
note_on channel=10 note=69 velocity=118 time=0
note_on channel=10 note=69 velocity=118 time=0
note_on channel=10 note=57 velocity=118 time=0
note_on channel=10 note=57 velocity=118 time=0
note_on channel=10 note=57 velocity=118 time=0
note_on channel=10 note=57 velocity=118 time=0
note_on channel=10 note=57 velocity=118 time=0
note_off channel=10 note=69 velocity=118 time=64
note_off channel=10 note=69 velocity=118 time=0
note_off channel=10 note=69 velocity=118 time=0
note_off channel=10 note=69 velocity=118 time=0
note_off channel=10 note=69 velocity=118 time=0
note_off channel=10 note=57 velocity=118 time=0
note_off channel=10 note=57 velocity=118 time=0
note_off channel=10 note=57 velocity=118 time=0
note_off channel=10 note=57 velocity=118 time=0
note_off channel=10 note=57 velocity=118 time=0
note_on channel=10 note=68 velocity=118 time=32
note_on channel=10 note=68 velocity=118 time=8
note_on channel=10 note=68 velocity=118 time=0
note_on channel=10 note=68 velocity=118 time=0
note_on channel=10 note=68 velocity=118 time=0
note_on channel=10 note=56 velocity=118 time=0
note_on channel=10 note=56 velocity=118 time=0
note_on channel=10 note=56 velocity=118 time=0
note_on channel=10 note=56 velocity=118 time=0
note_on channel=10 note=56 velocity=118 time=0
note_off channel=10 note=68 velocity=118 time=64
note_off channel=10 note=68 velocity=118 time=0
note_off channel=10 note=68 velocity=118 time=0
note_off channel=10 note=68 velocity=118 time=0
note_off channel=10 note=68 velocity=118 time=0
note_off channel=10 note=56 velocity=118 time=0
note_off channel=10 note=56 velocity=118 time=0
note_off channel=10 note=56 velocity=118 time=0
note_off channel=10 note=56 velocity=118 time=0
note_off channel=10 note=56 velocity=118 time=0
note_on channel=10 note=71 velocity=118 time=32
note_on channel=10 note=71 velocity=118 time=6
note_on channel=10 note=71 velocity=118 time=0
note_on channel=10 note=71 velocity=118 time=0
note_on channel=10 note=71 velocity=118 time=0
note_on channel=10 note=59 velocity=118 time=0
note_on channel=10 note=59 velocity=118 time=0
note_on channel=10 note=59 velocity=118 time=0
note_on channel=10 note=59 velocity=118 time=0
note_on channel=10 note=59 velocity=118 time=0
note_off channel=10 note=71 velocity=118 time=128
note_off channel=10 note=71 velocity=118 time=0
note_off channel=10 note=71 velocity=118 time=0
note_off channel=10 note=71 velocity=118 time=0
note_off channel=10 note=71 velocity=118 time=0
note_off channel=10 note=59 velocity=118 time=0
note_off channel=10 note=59 velocity=118 time=0
note_off channel=10 note=59 velocity=118 time=0
note_off channel=10 note=59 velocity=118 time=0
note_off channel=10 note=59 velocity=118 time=0
note_on channel=10 note=69 velocity=118 time=64
note_on channel=10 note=69 velocity=118 time=7
note_on channel=10 note=69 velocity=118 time=0
note_on channel=10 note=69 velocity=118 time=0
note_on channel=10 note=69 velocity=118 time=0
note_on channel=10 note=57 velocity=118 time=0
note_on channel=10 note=57 velocity=118 time=0
note_on channel=10 note=57 velocity=118 time=0
note_on channel=10 note=57 velocity=118 time=0
note_on channel=10 note=57 velocity=118 time=0
note_off channel=10 note=69 velocity=118 time=128
note_off channel=10 note=69 velocity=118 time=0
note_off channel=10 note=69 velocity=118 time=0
note_off channel=10 note=69 velocity=118 time=0
note_off channel=10 note=69 velocity=118 time=0
note_off channel=10 note=57 velocity=118 time=0
note_off channel=10 note=57 velocity=118 time=0
note_off channel=10 note=57 velocity=118 time=0
note_off channel=10 note=57 velocity=118 time=0
note_off channel=10 note=57 velocity=118 time=0
note_on channel=10 note=64 velocity=118 time=64
note_on channel=10 note=64 velocity=118 time=0
note_on channel=10 note=64 velocity=118 time=0
note_on channel=10 note=64 velocity=118 time=0
note_on channel=10 note=64 velocity=118 time=0
note_on channel=10 note=52 velocity=118 time=0
note_on channel=10 note=52 velocity=118 time=0
note_on channel=10 note=52 velocity=118 time=0
note_on channel=10 note=52 velocity=118 time=0
note_on channel=10 note=52 velocity=118 time=0
note_off channel=10 note=64 velocity=118 time=256
note_off channel=10 note=64 velocity=118 time=0
note_off channel=10 note=64 velocity=118 time=0
note_off channel=10 note=64 velocity=118 time=0
note_off channel=10 note=64 velocity=118 time=0
note_off channel=10 note=52 velocity=118 time=0
note_off channel=10 note=52 velocity=118 time=0
note_off channel=10 note=52 velocity=118 time=0
note_off channel=10 note=52 velocity=118 time=0
note_off channel=10 note=52 velocity=118 time=0
note_on channel=10 note=74 velocity=118 time=129
note_on channel=10 note=74 velocity=118 time=21
note_on channel=10 note=74 velocity=118 time=0
note_on channel=10 note=74 velocity=118 time=0
note_on channel=10 note=74 velocity=118 time=0
note_on channel=10 note=62 velocity=118 time=0
note_on channel=10 note=62 velocity=118 time=0
note_on channel=10 note=62 velocity=118 time=0
note_on channel=10 note=62 velocity=118 time=0
note_on channel=10 note=62 velocity=118 time=0
note_off channel=10 note=74 velocity=118 time=128
note_off channel=10 note=74 velocity=118 time=0
note_off channel=10 note=74 velocity=118 time=0
note_off channel=10 note=74 velocity=118 time=0
note_off channel=10 note=74 velocity=118 time=0
note_off channel=10 note=62 velocity=118 time=0
note_off channel=10 note=62 velocity=118 time=0
note_off channel=10 note=62 velocity=118 time=0
note_off channel=10 note=62 velocity=118 time=0
note_off channel=10 note=62 velocity=118 time=0
note_on channel=10 note=74 velocity=118 time=64
note_on channel=10 note=74 velocity=118 time=18
note_on channel=10 note=74 velocity=118 time=0
note_on channel=10 note=74 velocity=118 time=0
note_on channel=10 note=74 velocity=118 time=0
note_on channel=10 note=62 velocity=118 time=0
note_on channel=10 note=62 velocity=118 time=0
note_on channel=10 note=62 velocity=118 time=0
note_on channel=10 note=62 velocity=118 time=0
note_on channel=10 note=62 velocity=118 time=0
note_off channel=10 note=74 velocity=118 time=256
note_off channel=10 note=74 velocity=118 time=0
note_off channel=10 note=74 velocity=118 time=0
note_off channel=10 note=74 velocity=118 time=0
note_off channel=10 note=74 velocity=118 time=0
note_off channel=10 note=62 velocity=118 time=0
note_off channel=10 note=62 velocity=118 time=0
note_off channel=10 note=62 velocity=118 time=0
note_off channel=10 note=62 velocity=118 time=0
note_off channel=10 note=62 velocity=118 time=0
note_on channel=10 note=74 velocity=118 time=226
note_on channel=10 note=74 velocity=118 time=93
note_on channel=10 note=74 velocity=118 time=0
note_on channel=10 note=74 velocity=118 time=0
note_on channel=10 note=74 velocity=118 time=0
note_on channel=10 note=62 velocity=118 time=0
note_on channel=10 note=62 velocity=118 time=0
note_on channel=10 note=62 velocity=118 time=0
note_on channel=10 note=62 velocity=118 time=0
note_on channel=10 note=62 velocity=118 time=0
note_off channel=10 note=74 velocity=118 time=64
note_off channel=10 note=74 velocity=118 time=0
note_off channel=10 note=74 velocity=118 time=0
note_off channel=10 note=74 velocity=118 time=0
note_off channel=10 note=74 velocity=118 time=0
note_off channel=10 note=62 velocity=118 time=0
note_off channel=10 note=62 velocity=118 time=0
note_off channel=10 note=62 velocity=118 time=0
note_off channel=10 note=62 velocity=118 time=0
note_off channel=10 note=62 velocity=118 time=0
note_on channel=10 note=74 velocity=118 time=31
note_on channel=10 note=74 velocity=118 time=16
note_on channel=10 note=74 velocity=118 time=0
note_on channel=10 note=74 velocity=118 time=0
note_on channel=10 note=74 velocity=118 time=0
note_on channel=10 note=62 velocity=118 time=0
note_on channel=10 note=62 velocity=118 time=0
note_on channel=10 note=62 velocity=118 time=0
note_on channel=10 note=62 velocity=118 time=0
note_on channel=10 note=62 velocity=118 time=0
note_off channel=10 note=74 velocity=118 time=64
note_off channel=10 note=74 velocity=118 time=0
note_off channel=10 note=74 velocity=118 time=0
note_off channel=10 note=74 velocity=118 time=0
note_off channel=10 note=74 velocity=118 time=0
note_off channel=10 note=62 velocity=118 time=0
note_off channel=10 note=62 velocity=118 time=0
note_off channel=10 note=62 velocity=118 time=0
note_off channel=10 note=62 velocity=118 time=0
note_off channel=10 note=62 velocity=118 time=0
note_on channel=10 note=74 velocity=118 time=32
note_on channel=10 note=74 velocity=118 time=16
note_on channel=10 note=74 velocity=118 time=0
note_on channel=10 note=74 velocity=118 time=0
note_on channel=10 note=74 velocity=118 time=0
note_on channel=10 note=62 velocity=118 time=0
note_on channel=10 note=62 velocity=118 time=0
note_on channel=10 note=62 velocity=118 time=0
note_on channel=10 note=62 velocity=118 time=0
note_on channel=10 note=62 velocity=118 time=0
note_off channel=10 note=74 velocity=118 time=256
note_off channel=10 note=74 velocity=118 time=0
note_off channel=10 note=74 velocity=118 time=0
note_off channel=10 note=74 velocity=118 time=0
note_off channel=10 note=74 velocity=118 time=0
note_off channel=10 note=62 velocity=118 time=0
note_off channel=10 note=62 velocity=118 time=0
note_off channel=10 note=62 velocity=118 time=0
note_off channel=10 note=62 velocity=118 time=0
note_off channel=10 note=62 velocity=118 time=0
note_on channel=10 note=71 velocity=118 time=417
note_on channel=10 note=71 velocity=118 time=283
note_on channel=10 note=71 velocity=118 time=0
note_on channel=10 note=71 velocity=118 time=0
note_on channel=10 note=71 velocity=118 time=0
note_on channel=10 note=59 velocity=118 time=0
note_on channel=10 note=59 velocity=118 time=0
note_on channel=10 note=59 velocity=118 time=0
note_on channel=10 note=59 velocity=118 time=0
note_on channel=10 note=59 velocity=118 time=0
note_off channel=10 note=71 velocity=118 time=128
note_off channel=10 note=71 velocity=118 time=0
note_off channel=10 note=71 velocity=118 time=0
note_off channel=10 note=71 velocity=118 time=0
note_off channel=10 note=71 velocity=118 time=0
note_off channel=10 note=59 velocity=118 time=0
note_off channel=10 note=59 velocity=118 time=0
note_off channel=10 note=59 velocity=118 time=0
note_off channel=10 note=59 velocity=118 time=0
note_off channel=10 note=59 velocity=118 time=0
note_on channel=10 note=71 velocity=118 time=63
note_on channel=10 note=71 velocity=118 time=46
note_on channel=10 note=71 velocity=118 time=0
note_on channel=10 note=71 velocity=118 time=0
note_on channel=10 note=71 velocity=118 time=0
note_on channel=10 note=59 velocity=118 time=0
note_on channel=10 note=59 velocity=118 time=0
note_on channel=10 note=59 velocity=118 time=0
note_on channel=10 note=59 velocity=118 time=0
note_on channel=10 note=59 velocity=118 time=0
note_off channel=10 note=71 velocity=118 time=128
note_off channel=10 note=71 velocity=118 time=0
note_off channel=10 note=71 velocity=118 time=0
note_off channel=10 note=71 velocity=118 time=0
note_off channel=10 note=71 velocity=118 time=0
note_off channel=10 note=59 velocity=118 time=0
note_off channel=10 note=59 velocity=118 time=0
note_off channel=10 note=59 velocity=118 time=0
note_off channel=10 note=59 velocity=118 time=0
note_off channel=10 note=59 velocity=118 time=0
note_on channel=10 note=71 velocity=118 time=63
note_on channel=10 note=71 velocity=118 time=39
note_on channel=10 note=71 velocity=118 time=0
note_on channel=10 note=71 velocity=118 time=0
note_on channel=10 note=71 velocity=118 time=0
note_on channel=10 note=59 velocity=118 time=0
note_on channel=10 note=59 velocity=118 time=0
note_on channel=10 note=59 velocity=118 time=0
note_on channel=10 note=59 velocity=118 time=0
note_on channel=10 note=59 velocity=118 time=0
note_off channel=10 note=71 velocity=118 time=128
note_off channel=10 note=71 velocity=118 time=0
note_off channel=10 note=71 velocity=118 time=0
note_off channel=10 note=71 velocity=118 time=0
note_off channel=10 note=71 velocity=118 time=0
note_off channel=10 note=59 velocity=118 time=0
note_off channel=10 note=59 velocity=118 time=0
note_off channel=10 note=59 velocity=118 time=0
note_off channel=10 note=59 velocity=118 time=0
note_off channel=10 note=59 velocity=118 time=0
note_on channel=10 note=74 velocity=118 time=63
note_on channel=10 note=74 velocity=118 time=30
note_on channel=10 note=74 velocity=118 time=0
note_on channel=10 note=74 velocity=118 time=0
note_on channel=10 note=74 velocity=118 time=0
note_on channel=10 note=62 velocity=118 time=0
note_on channel=10 note=62 velocity=118 time=0
note_on channel=10 note=62 velocity=118 time=0
note_on channel=10 note=62 velocity=118 time=0
note_on channel=10 note=62 velocity=118 time=0
note_off channel=10 note=74 velocity=118 time=64
note_off channel=10 note=74 velocity=118 time=0
note_off channel=10 note=74 velocity=118 time=0
note_off channel=10 note=74 velocity=118 time=0
note_off channel=10 note=74 velocity=118 time=0
note_off channel=10 note=62 velocity=118 time=0
note_off channel=10 note=62 velocity=118 time=0
note_off channel=10 note=62 velocity=118 time=0
note_off channel=10 note=62 velocity=118 time=0
note_off channel=10 note=62 velocity=118 time=0
note_on channel=10 note=73 velocity=118 time=31
note_on channel=10 note=73 velocity=118 time=10
note_on channel=10 note=73 velocity=118 time=0
note_on channel=10 note=73 velocity=118 time=0
note_on channel=10 note=73 velocity=118 time=0
note_on channel=10 note=61 velocity=118 time=0
note_on channel=10 note=61 velocity=118 time=0
note_on channel=10 note=61 velocity=118 time=0
note_on channel=10 note=61 velocity=118 time=0
note_on channel=10 note=61 velocity=118 time=0
note_off channel=10 note=73 velocity=118 time=64
note_off channel=10 note=73 velocity=118 time=0
note_off channel=10 note=73 velocity=118 time=0
note_off channel=10 note=73 velocity=118 time=0
note_off channel=10 note=73 velocity=118 time=0
note_off channel=10 note=61 velocity=118 time=0
note_off channel=10 note=61 velocity=118 time=0
note_off channel=10 note=61 velocity=118 time=0
note_off channel=10 note=61 velocity=118 time=0
note_off channel=10 note=61 velocity=118 time=0
note_on channel=10 note=71 velocity=118 time=31
note_on channel=10 note=71 velocity=118 time=8
note_on channel=10 note=71 velocity=118 time=0
note_on channel=10 note=71 velocity=118 time=0
note_on channel=10 note=71 velocity=118 time=0
note_on channel=10 note=59 velocity=118 time=0
note_on channel=10 note=59 velocity=118 time=0
note_on channel=10 note=59 velocity=118 time=0
note_on channel=10 note=59 velocity=118 time=0
note_on channel=10 note=59 velocity=118 time=0
note_off channel=10 note=71 velocity=118 time=64
note_off channel=10 note=71 velocity=118 time=0
note_off channel=10 note=71 velocity=118 time=0
note_off channel=10 note=71 velocity=118 time=0
note_off channel=10 note=71 velocity=118 time=0
note_off channel=10 note=59 velocity=118 time=0
note_off channel=10 note=59 velocity=118 time=0
note_off channel=10 note=59 velocity=118 time=0
note_off channel=10 note=59 velocity=118 time=0
note_off channel=10 note=59 velocity=118 time=0
note_on channel=10 note=71 velocity=118 time=31
note_on channel=10 note=71 velocity=118 time=6
note_on channel=10 note=71 velocity=118 time=0
note_on channel=10 note=71 velocity=118 time=0
note_on channel=10 note=71 velocity=118 time=0
note_on channel=10 note=59 velocity=118 time=0
note_on channel=10 note=59 velocity=118 time=0
note_on channel=10 note=59 velocity=118 time=0
note_on channel=10 note=59 velocity=118 time=0
note_on channel=10 note=59 velocity=118 time=0
note_off channel=10 note=71 velocity=118 time=128
note_off channel=10 note=71 velocity=118 time=0
note_off channel=10 note=71 velocity=118 time=0
note_off channel=10 note=71 velocity=118 time=0
note_off channel=10 note=71 velocity=118 time=0
note_off channel=10 note=59 velocity=118 time=0
note_off channel=10 note=59 velocity=118 time=0
note_off channel=10 note=59 velocity=118 time=0
note_off channel=10 note=59 velocity=118 time=0
note_off channel=10 note=59 velocity=118 time=0
note_on channel=10 note=71 velocity=118 time=62
note_on channel=10 note=71 velocity=118 time=9
note_on channel=10 note=71 velocity=118 time=0
note_on channel=10 note=71 velocity=118 time=0
note_on channel=10 note=71 velocity=118 time=0
note_on channel=10 note=59 velocity=118 time=0
note_on channel=10 note=59 velocity=118 time=0
note_on channel=10 note=59 velocity=118 time=0
note_on channel=10 note=59 velocity=118 time=0
note_on channel=10 note=59 velocity=118 time=0
note_off channel=10 note=71 velocity=118 time=64
note_off channel=10 note=71 velocity=118 time=0
note_off channel=10 note=71 velocity=118 time=0
note_off channel=10 note=71 velocity=118 time=0
note_off channel=10 note=71 velocity=118 time=0
note_off channel=10 note=59 velocity=118 time=0
note_off channel=10 note=59 velocity=118 time=0
note_off channel=10 note=59 velocity=118 time=0
note_off channel=10 note=59 velocity=118 time=0
note_off channel=10 note=59 velocity=118 time=0
note_on channel=10 note=71 velocity=118 time=31
note_on channel=10 note=71 velocity=118 time=3
note_on channel=10 note=71 velocity=118 time=0
note_on channel=10 note=71 velocity=118 time=0
note_on channel=10 note=71 velocity=118 time=0
note_on channel=10 note=59 velocity=118 time=0
note_on channel=10 note=59 velocity=118 time=0
note_on channel=10 note=59 velocity=118 time=0
note_on channel=10 note=59 velocity=118 time=0
note_on channel=10 note=59 velocity=118 time=0
note_off channel=10 note=71 velocity=118 time=128
note_off channel=10 note=71 velocity=118 time=0
note_off channel=10 note=71 velocity=118 time=0
note_off channel=10 note=71 velocity=118 time=0
note_off channel=10 note=71 velocity=118 time=0
note_off channel=10 note=59 velocity=118 time=0
note_off channel=10 note=59 velocity=118 time=0
note_off channel=10 note=59 velocity=118 time=0
note_off channel=10 note=59 velocity=118 time=0
note_off channel=10 note=59 velocity=118 time=0
note_on channel=10 note=74 velocity=118 time=62
note_on channel=10 note=74 velocity=118 time=7
note_on channel=10 note=74 velocity=118 time=0
note_on channel=10 note=74 velocity=118 time=0
note_on channel=10 note=74 velocity=118 time=0
note_on channel=10 note=62 velocity=118 time=0
note_on channel=10 note=62 velocity=118 time=0
note_on channel=10 note=62 velocity=118 time=0
note_on channel=10 note=62 velocity=118 time=0
note_on channel=10 note=62 velocity=118 time=0
note_off channel=10 note=74 velocity=118 time=64
note_off channel=10 note=74 velocity=118 time=0
note_off channel=10 note=74 velocity=118 time=0
note_off channel=10 note=74 velocity=118 time=0
note_off channel=10 note=74 velocity=118 time=0
note_off channel=10 note=62 velocity=118 time=0
note_off channel=10 note=62 velocity=118 time=0
note_off channel=10 note=62 velocity=118 time=0
note_off channel=10 note=62 velocity=118 time=0
note_off channel=10 note=62 velocity=118 time=0
note_on channel=10 note=74 velocity=118 time=31
note_on channel=10 note=74 velocity=118 time=5
note_on channel=10 note=74 velocity=118 time=0
note_on channel=10 note=74 velocity=118 time=0
note_on channel=10 note=74 velocity=118 time=0
note_on channel=10 note=62 velocity=118 time=0
note_on channel=10 note=62 velocity=118 time=0
note_on channel=10 note=62 velocity=118 time=0
note_on channel=10 note=62 velocity=118 time=0
note_on channel=10 note=62 velocity=118 time=0
note_off channel=10 note=74 velocity=118 time=64
note_off channel=10 note=74 velocity=118 time=0
note_off channel=10 note=74 velocity=118 time=0
note_off channel=10 note=74 velocity=118 time=0
note_off channel=10 note=74 velocity=118 time=0
note_off channel=10 note=62 velocity=118 time=0
note_off channel=10 note=62 velocity=118 time=0
note_off channel=10 note=62 velocity=118 time=0
note_off channel=10 note=62 velocity=118 time=0
note_off channel=10 note=62 velocity=118 time=0
note_on channel=10 note=74 velocity=118 time=31
note_on channel=10 note=74 velocity=118 time=6
note_on channel=10 note=74 velocity=118 time=0
note_on channel=10 note=74 velocity=118 time=0
note_on channel=10 note=74 velocity=118 time=0
note_on channel=10 note=62 velocity=118 time=0
note_on channel=10 note=62 velocity=118 time=0
note_on channel=10 note=62 velocity=118 time=0
note_on channel=10 note=62 velocity=118 time=0
note_on channel=10 note=62 velocity=118 time=0
note_off channel=10 note=74 velocity=118 time=64
note_off channel=10 note=74 velocity=118 time=0
note_off channel=10 note=74 velocity=118 time=0
note_off channel=10 note=74 velocity=118 time=0
note_off channel=10 note=74 velocity=118 time=0
note_off channel=10 note=62 velocity=118 time=0
note_off channel=10 note=62 velocity=118 time=0
note_off channel=10 note=62 velocity=118 time=0
note_off channel=10 note=62 velocity=118 time=0
note_off channel=10 note=62 velocity=118 time=0
note_on channel=10 note=74 velocity=118 time=31
note_on channel=10 note=74 velocity=118 time=8
note_on channel=10 note=74 velocity=118 time=0
note_on channel=10 note=74 velocity=118 time=0
note_on channel=10 note=74 velocity=118 time=0
note_on channel=10 note=62 velocity=118 time=0
note_on channel=10 note=62 velocity=118 time=0
note_on channel=10 note=62 velocity=118 time=0
note_on channel=10 note=62 velocity=118 time=0
note_on channel=10 note=62 velocity=118 time=0
note_off channel=10 note=74 velocity=118 time=64
note_off channel=10 note=74 velocity=118 time=0
note_off channel=10 note=74 velocity=118 time=0
note_off channel=10 note=74 velocity=118 time=0
note_off channel=10 note=74 velocity=118 time=0
note_off channel=10 note=62 velocity=118 time=0
note_off channel=10 note=62 velocity=118 time=0
note_off channel=10 note=62 velocity=118 time=0
note_off channel=10 note=62 velocity=118 time=0
note_off channel=10 note=62 velocity=118 time=0
note_on channel=10 note=74 velocity=118 time=31
note_on channel=10 note=74 velocity=118 time=10
note_on channel=10 note=74 velocity=118 time=0
note_on channel=10 note=74 velocity=118 time=0
note_on channel=10 note=74 velocity=118 time=0
note_on channel=10 note=62 velocity=118 time=0
note_on channel=10 note=62 velocity=118 time=0
note_on channel=10 note=62 velocity=118 time=0
note_on channel=10 note=62 velocity=118 time=0
note_on channel=10 note=62 velocity=118 time=0
note_off channel=10 note=74 velocity=118 time=128
note_off channel=10 note=74 velocity=118 time=0
note_off channel=10 note=74 velocity=118 time=0
note_off channel=10 note=74 velocity=118 time=0
note_off channel=10 note=74 velocity=118 time=0
note_off channel=10 note=62 velocity=118 time=0
note_off channel=10 note=62 velocity=118 time=0
note_off channel=10 note=62 velocity=118 time=0
note_off channel=10 note=62 velocity=118 time=0
note_off channel=10 note=62 velocity=118 time=0
note_on channel=10 note=69 velocity=118 time=63
note_on channel=10 note=69 velocity=118 time=27
note_on channel=10 note=69 velocity=118 time=0
note_on channel=10 note=69 velocity=118 time=0
note_on channel=10 note=69 velocity=118 time=0
note_on channel=10 note=57 velocity=118 time=0
note_on channel=10 note=57 velocity=118 time=0
note_on channel=10 note=57 velocity=118 time=0
note_on channel=10 note=57 velocity=118 time=0
note_on channel=10 note=57 velocity=118 time=0
note_off channel=10 note=69 velocity=118 time=64
note_off channel=10 note=69 velocity=118 time=0
note_off channel=10 note=69 velocity=118 time=0
note_off channel=10 note=69 velocity=118 time=0
note_off channel=10 note=69 velocity=118 time=0
note_off channel=10 note=57 velocity=118 time=0
note_off channel=10 note=57 velocity=118 time=0
note_off channel=10 note=57 velocity=118 time=0
note_off channel=10 note=57 velocity=118 time=0
note_off channel=10 note=57 velocity=118 time=0
note_on channel=10 note=67 velocity=118 time=31
note_on channel=10 note=67 velocity=118 time=17
note_on channel=10 note=67 velocity=118 time=0
note_on channel=10 note=67 velocity=118 time=0
note_on channel=10 note=67 velocity=118 time=0
note_on channel=10 note=55 velocity=118 time=0
note_on channel=10 note=55 velocity=118 time=0
note_on channel=10 note=55 velocity=118 time=0
note_on channel=10 note=55 velocity=118 time=0
note_on channel=10 note=55 velocity=118 time=0
note_off channel=10 note=67 velocity=118 time=64
note_off channel=10 note=67 velocity=118 time=0
note_off channel=10 note=67 velocity=118 time=0
note_off channel=10 note=67 velocity=118 time=0
note_off channel=10 note=67 velocity=118 time=0
note_off channel=10 note=55 velocity=118 time=0
note_off channel=10 note=55 velocity=118 time=0
note_off channel=10 note=55 velocity=118 time=0
note_off channel=10 note=55 velocity=118 time=0
note_off channel=10 note=55 velocity=118 time=0
note_on channel=10 note=69 velocity=118 time=31
note_on channel=10 note=69 velocity=118 time=19
note_on channel=10 note=69 velocity=118 time=0
note_on channel=10 note=69 velocity=118 time=0
note_on channel=10 note=69 velocity=118 time=0
note_on channel=10 note=57 velocity=118 time=0
note_on channel=10 note=57 velocity=118 time=0
note_on channel=10 note=57 velocity=118 time=0
note_on channel=10 note=57 velocity=118 time=0
note_on channel=10 note=57 velocity=118 time=0
note_off channel=10 note=69 velocity=118 time=64
note_off channel=10 note=69 velocity=118 time=0
note_off channel=10 note=69 velocity=118 time=0
note_off channel=10 note=69 velocity=118 time=0
note_off channel=10 note=69 velocity=118 time=0
note_off channel=10 note=57 velocity=118 time=0
note_off channel=10 note=57 velocity=118 time=0
note_off channel=10 note=57 velocity=118 time=0
note_off channel=10 note=57 velocity=118 time=0
note_off channel=10 note=57 velocity=118 time=0
note_on channel=10 note=67 velocity=118 time=31
note_on channel=10 note=67 velocity=118 time=22
note_on channel=10 note=67 velocity=118 time=0
note_on channel=10 note=67 velocity=118 time=0
note_on channel=10 note=67 velocity=118 time=0
note_on channel=10 note=55 velocity=118 time=0
note_on channel=10 note=55 velocity=118 time=0
note_on channel=10 note=55 velocity=118 time=0
note_on channel=10 note=55 velocity=118 time=0
note_on channel=10 note=55 velocity=118 time=0
note_off channel=10 note=67 velocity=118 time=64
note_off channel=10 note=67 velocity=118 time=0
note_off channel=10 note=67 velocity=118 time=0
note_off channel=10 note=67 velocity=118 time=0
note_off channel=10 note=67 velocity=118 time=0
note_off channel=10 note=55 velocity=118 time=0
note_off channel=10 note=55 velocity=118 time=0
note_off channel=10 note=55 velocity=118 time=0
note_off channel=10 note=55 velocity=118 time=0
note_off channel=10 note=55 velocity=118 time=0
note_on channel=10 note=71 velocity=118 time=31
note_on channel=10 note=71 velocity=118 time=23
note_on channel=10 note=71 velocity=118 time=0
note_on channel=10 note=71 velocity=118 time=0
note_on channel=10 note=71 velocity=118 time=0
note_on channel=10 note=59 velocity=118 time=0
note_on channel=10 note=59 velocity=118 time=0
note_on channel=10 note=59 velocity=118 time=0
note_on channel=10 note=59 velocity=118 time=0
note_on channel=10 note=59 velocity=118 time=0
note_off channel=10 note=71 velocity=118 time=128
note_off channel=10 note=71 velocity=118 time=0
note_off channel=10 note=71 velocity=118 time=0
note_off channel=10 note=71 velocity=118 time=0
note_off channel=10 note=71 velocity=118 time=0
note_off channel=10 note=59 velocity=118 time=0
note_off channel=10 note=59 velocity=118 time=0
note_off channel=10 note=59 velocity=118 time=0
note_off channel=10 note=59 velocity=118 time=0
note_off channel=10 note=59 velocity=118 time=0
note_on channel=10 note=67 velocity=118 time=62
note_on channel=10 note=67 velocity=118 time=53
note_on channel=10 note=67 velocity=118 time=0
note_on channel=10 note=67 velocity=118 time=0
note_on channel=10 note=67 velocity=118 time=0
note_on channel=10 note=55 velocity=118 time=0
note_on channel=10 note=55 velocity=118 time=0
note_on channel=10 note=55 velocity=118 time=0
note_on channel=10 note=55 velocity=118 time=0
note_on channel=10 note=55 velocity=118 time=0
note_on channel=10 note=64 velocity=118 time=93
note_on channel=10 note=64 velocity=118 time=86
note_on channel=10 note=64 velocity=118 time=0
note_on channel=10 note=64 velocity=118 time=0
note_on channel=10 note=64 velocity=118 time=0
note_on channel=10 note=52 velocity=118 time=0
note_on channel=10 note=52 velocity=118 time=0
note_on channel=10 note=52 velocity=118 time=0
note_on channel=10 note=52 velocity=118 time=0
note_on channel=10 note=52 velocity=118 time=0
note_off channel=10 note=67 velocity=118 time=160
note_off channel=10 note=67 velocity=118 time=0
note_off channel=10 note=67 velocity=118 time=0
note_off channel=10 note=67 velocity=118 time=0
note_off channel=10 note=67 velocity=118 time=0
note_off channel=10 note=55 velocity=118 time=0
note_off channel=10 note=55 velocity=118 time=0
note_off channel=10 note=55 velocity=118 time=0
note_off channel=10 note=55 velocity=118 time=0
note_off channel=10 note=55 velocity=118 time=0
note_off channel=10 note=64 velocity=118 time=32
note_off channel=10 note=64 velocity=118 time=0
note_off channel=10 note=64 velocity=118 time=0
note_off channel=10 note=64 velocity=118 time=0
note_off channel=10 note=64 velocity=118 time=0
note_off channel=10 note=52 velocity=118 time=0
note_off channel=10 note=52 velocity=118 time=0
note_off channel=10 note=52 velocity=118 time=0
note_off channel=10 note=52 velocity=118 time=0
note_off channel=10 note=52 velocity=118 time=0
note_on channel=10 note=71 velocity=118 time=186
note_on channel=10 note=71 velocity=118 time=136
note_on channel=10 note=71 velocity=118 time=0
note_on channel=10 note=71 velocity=118 time=0
note_on channel=10 note=71 velocity=118 time=0
note_on channel=10 note=59 velocity=118 time=0
note_on channel=10 note=59 velocity=118 time=0
note_on channel=10 note=59 velocity=118 time=0
note_on channel=10 note=59 velocity=118 time=0
note_on channel=10 note=59 velocity=118 time=0
note_off channel=10 note=71 velocity=118 time=64
note_off channel=10 note=71 velocity=118 time=0
note_off channel=10 note=71 velocity=118 time=0
note_off channel=10 note=71 velocity=118 time=0
note_off channel=10 note=71 velocity=118 time=0
note_off channel=10 note=59 velocity=118 time=0
note_off channel=10 note=59 velocity=118 time=0
note_off channel=10 note=59 velocity=118 time=0
note_off channel=10 note=59 velocity=118 time=0
note_off channel=10 note=59 velocity=118 time=0
note_on channel=10 note=71 velocity=118 time=30
note_on channel=10 note=71 velocity=118 time=11
note_on channel=10 note=71 velocity=118 time=0
note_on channel=10 note=71 velocity=118 time=0
note_on channel=10 note=71 velocity=118 time=0
note_on channel=10 note=59 velocity=118 time=0
note_on channel=10 note=59 velocity=118 time=0
note_on channel=10 note=59 velocity=118 time=0
note_on channel=10 note=59 velocity=118 time=0
note_on channel=10 note=59 velocity=118 time=0
note_off channel=10 note=71 velocity=118 time=64
note_off channel=10 note=71 velocity=118 time=0
note_off channel=10 note=71 velocity=118 time=0
note_off channel=10 note=71 velocity=118 time=0
note_off channel=10 note=71 velocity=118 time=0
note_off channel=10 note=59 velocity=118 time=0
note_off channel=10 note=59 velocity=118 time=0
note_off channel=10 note=59 velocity=118 time=0
note_off channel=10 note=59 velocity=118 time=0
note_off channel=10 note=59 velocity=118 time=0
note_on channel=10 note=71 velocity=118 time=31
note_on channel=10 note=71 velocity=118 time=7
note_on channel=10 note=71 velocity=118 time=0
note_on channel=10 note=71 velocity=118 time=0
note_on channel=10 note=71 velocity=118 time=0
note_on channel=10 note=59 velocity=118 time=0
note_on channel=10 note=59 velocity=118 time=0
note_on channel=10 note=59 velocity=118 time=0
note_on channel=10 note=59 velocity=118 time=0
note_on channel=10 note=59 velocity=118 time=0
note_off channel=10 note=71 velocity=118 time=64
note_off channel=10 note=71 velocity=118 time=0
note_off channel=10 note=71 velocity=118 time=0
note_off channel=10 note=71 velocity=118 time=0
note_off channel=10 note=71 velocity=118 time=0
note_off channel=10 note=59 velocity=118 time=0
note_off channel=10 note=59 velocity=118 time=0
note_off channel=10 note=59 velocity=118 time=0
note_off channel=10 note=59 velocity=118 time=0
note_off channel=10 note=59 velocity=118 time=0
note_on channel=10 note=69 velocity=118 time=30
note_on channel=10 note=69 velocity=118 time=3
note_on channel=10 note=69 velocity=118 time=0
note_on channel=10 note=69 velocity=118 time=0
note_on channel=10 note=69 velocity=118 time=0
note_on channel=10 note=57 velocity=118 time=0
note_on channel=10 note=57 velocity=118 time=0
note_on channel=10 note=57 velocity=118 time=0
note_on channel=10 note=57 velocity=118 time=0
note_on channel=10 note=57 velocity=118 time=0
note_off channel=10 note=69 velocity=118 time=128
note_off channel=10 note=69 velocity=118 time=0
note_off channel=10 note=69 velocity=118 time=0
note_off channel=10 note=69 velocity=118 time=0
note_off channel=10 note=69 velocity=118 time=0
note_off channel=10 note=57 velocity=118 time=0
note_off channel=10 note=57 velocity=118 time=0
note_off channel=10 note=57 velocity=118 time=0
note_off channel=10 note=57 velocity=118 time=0
note_off channel=10 note=57 velocity=118 time=0
note_on channel=10 note=71 velocity=118 time=61
note_on channel=10 note=71 velocity=118 time=2
note_on channel=10 note=71 velocity=118 time=0
note_on channel=10 note=71 velocity=118 time=0
note_on channel=10 note=71 velocity=118 time=0
note_on channel=10 note=59 velocity=118 time=0
note_on channel=10 note=59 velocity=118 time=0
note_on channel=10 note=59 velocity=118 time=0
note_on channel=10 note=59 velocity=118 time=0
note_on channel=10 note=59 velocity=118 time=0
note_off channel=10 note=71 velocity=118 time=64
note_off channel=10 note=71 velocity=118 time=0
note_off channel=10 note=71 velocity=118 time=0
note_off channel=10 note=71 velocity=118 time=0
note_off channel=10 note=71 velocity=118 time=0
note_off channel=10 note=59 velocity=118 time=0
note_off channel=10 note=59 velocity=118 time=0
note_off channel=10 note=59 velocity=118 time=0
note_off channel=10 note=59 velocity=118 time=0
note_off channel=10 note=59 velocity=118 time=0
note_on channel=10 note=71 velocity=118 time=30
note_on channel=10 note=71 velocity=118 time=5
note_on channel=10 note=71 velocity=118 time=0
note_on channel=10 note=71 velocity=118 time=0
note_on channel=10 note=71 velocity=118 time=0
note_on channel=10 note=59 velocity=118 time=0
note_on channel=10 note=59 velocity=118 time=0
note_on channel=10 note=59 velocity=118 time=0
note_on channel=10 note=59 velocity=118 time=0
note_on channel=10 note=59 velocity=118 time=0
note_off channel=10 note=71 velocity=118 time=64
note_off channel=10 note=71 velocity=118 time=0
note_off channel=10 note=71 velocity=118 time=0
note_off channel=10 note=71 velocity=118 time=0
note_off channel=10 note=71 velocity=118 time=0
note_off channel=10 note=59 velocity=118 time=0
note_off channel=10 note=59 velocity=118 time=0
note_off channel=10 note=59 velocity=118 time=0
note_off channel=10 note=59 velocity=118 time=0
note_off channel=10 note=59 velocity=118 time=0
note_on channel=10 note=74 velocity=118 time=30
note_on channel=10 note=74 velocity=118 time=7
note_on channel=10 note=74 velocity=118 time=0
note_on channel=10 note=74 velocity=118 time=0
note_on channel=10 note=74 velocity=118 time=0
note_on channel=10 note=62 velocity=118 time=0
note_on channel=10 note=62 velocity=118 time=0
note_on channel=10 note=62 velocity=118 time=0
note_on channel=10 note=62 velocity=118 time=0
note_on channel=10 note=62 velocity=118 time=0
note_off channel=10 note=74 velocity=118 time=64
note_off channel=10 note=74 velocity=118 time=0
note_off channel=10 note=74 velocity=118 time=0
note_off channel=10 note=74 velocity=118 time=0
note_off channel=10 note=74 velocity=118 time=0
note_off channel=10 note=62 velocity=118 time=0
note_off channel=10 note=62 velocity=118 time=0
note_off channel=10 note=62 velocity=118 time=0
note_off channel=10 note=62 velocity=118 time=0
note_off channel=10 note=62 velocity=118 time=0
note_on channel=10 note=74 velocity=118 time=31
note_on channel=10 note=74 velocity=118 time=9
note_on channel=10 note=74 velocity=118 time=0
note_on channel=10 note=74 velocity=118 time=0
note_on channel=10 note=74 velocity=118 time=0
note_on channel=10 note=62 velocity=118 time=0
note_on channel=10 note=62 velocity=118 time=0
note_on channel=10 note=62 velocity=118 time=0
note_on channel=10 note=62 velocity=118 time=0
note_on channel=10 note=62 velocity=118 time=0
note_off channel=10 note=74 velocity=118 time=64
note_off channel=10 note=74 velocity=118 time=0
note_off channel=10 note=74 velocity=118 time=0
note_off channel=10 note=74 velocity=118 time=0
note_off channel=10 note=74 velocity=118 time=0
note_off channel=10 note=62 velocity=118 time=0
note_off channel=10 note=62 velocity=118 time=0
note_off channel=10 note=62 velocity=118 time=0
note_off channel=10 note=62 velocity=118 time=0
note_off channel=10 note=62 velocity=118 time=0
note_on channel=10 note=74 velocity=118 time=30
note_on channel=10 note=74 velocity=118 time=10
note_on channel=10 note=74 velocity=118 time=0
note_on channel=10 note=74 velocity=118 time=0
note_on channel=10 note=74 velocity=118 time=0
note_on channel=10 note=62 velocity=118 time=0
note_on channel=10 note=62 velocity=118 time=0
note_on channel=10 note=62 velocity=118 time=0
note_on channel=10 note=62 velocity=118 time=0
note_on channel=10 note=62 velocity=118 time=0
note_off channel=10 note=74 velocity=118 time=128
note_off channel=10 note=74 velocity=118 time=0
note_off channel=10 note=74 velocity=118 time=0
note_off channel=10 note=74 velocity=118 time=0
note_off channel=10 note=74 velocity=118 time=0
note_off channel=10 note=62 velocity=118 time=0
note_off channel=10 note=62 velocity=118 time=0
note_off channel=10 note=62 velocity=118 time=0
note_off channel=10 note=62 velocity=118 time=0
note_off channel=10 note=62 velocity=118 time=0
note_on channel=10 note=76 velocity=118 time=154
note_on channel=10 note=76 velocity=118 time=56
note_on channel=10 note=76 velocity=118 time=0
note_on channel=10 note=76 velocity=118 time=0
note_on channel=10 note=76 velocity=118 time=0
note_on channel=10 note=64 velocity=118 time=0
note_on channel=10 note=64 velocity=118 time=0
note_on channel=10 note=64 velocity=118 time=0
note_on channel=10 note=64 velocity=118 time=0
note_on channel=10 note=64 velocity=118 time=0
note_off channel=10 note=76 velocity=118 time=64
note_off channel=10 note=76 velocity=118 time=0
note_off channel=10 note=76 velocity=118 time=0
note_off channel=10 note=76 velocity=118 time=0
note_off channel=10 note=76 velocity=118 time=0
note_off channel=10 note=64 velocity=118 time=0
note_off channel=10 note=64 velocity=118 time=0
note_off channel=10 note=64 velocity=118 time=0
note_off channel=10 note=64 velocity=118 time=0
note_off channel=10 note=64 velocity=118 time=0
note_on channel=10 note=76 velocity=118 time=30
note_on channel=10 note=76 velocity=118 time=9
note_on channel=10 note=76 velocity=118 time=0
note_on channel=10 note=76 velocity=118 time=0
note_on channel=10 note=76 velocity=118 time=0
note_on channel=10 note=64 velocity=118 time=0
note_on channel=10 note=64 velocity=118 time=0
note_on channel=10 note=64 velocity=118 time=0
note_on channel=10 note=64 velocity=118 time=0
note_on channel=10 note=64 velocity=118 time=0
note_off channel=10 note=76 velocity=118 time=128
note_off channel=10 note=76 velocity=118 time=0
note_off channel=10 note=76 velocity=118 time=0
note_off channel=10 note=76 velocity=118 time=0
note_off channel=10 note=76 velocity=118 time=0
note_off channel=10 note=64 velocity=118 time=0
note_off channel=10 note=64 velocity=118 time=0
note_off channel=10 note=64 velocity=118 time=0
note_off channel=10 note=64 velocity=118 time=0
note_off channel=10 note=64 velocity=118 time=0
note_on channel=10 note=76 velocity=118 time=248
note_on channel=10 note=76 velocity=118 time=19
note_on channel=10 note=76 velocity=118 time=0
note_on channel=10 note=76 velocity=118 time=0
note_on channel=10 note=76 velocity=118 time=0
note_on channel=10 note=64 velocity=118 time=0
note_on channel=10 note=64 velocity=118 time=0
note_on channel=10 note=64 velocity=118 time=0
note_on channel=10 note=64 velocity=118 time=0
note_on channel=10 note=64 velocity=118 time=0
note_off channel=10 note=76 velocity=118 time=128
note_off channel=10 note=76 velocity=118 time=0
note_off channel=10 note=76 velocity=118 time=0
note_off channel=10 note=76 velocity=118 time=0
note_off channel=10 note=76 velocity=118 time=0
note_off channel=10 note=64 velocity=118 time=0
note_off channel=10 note=64 velocity=118 time=0
note_off channel=10 note=64 velocity=118 time=0
note_off channel=10 note=64 velocity=118 time=0
note_off channel=10 note=64 velocity=118 time=0
note_on channel=10 note=76 velocity=118 time=62
note_on channel=10 note=76 velocity=118 time=5
note_on channel=10 note=76 velocity=118 time=0
note_on channel=10 note=76 velocity=118 time=0
note_on channel=10 note=76 velocity=118 time=0
note_on channel=10 note=64 velocity=118 time=0
note_on channel=10 note=64 velocity=118 time=0
note_on channel=10 note=64 velocity=118 time=0
note_on channel=10 note=64 velocity=118 time=0
note_on channel=10 note=64 velocity=118 time=0
note_off channel=10 note=76 velocity=118 time=256
note_off channel=10 note=76 velocity=118 time=0
note_off channel=10 note=76 velocity=118 time=0
note_off channel=10 note=76 velocity=118 time=0
note_off channel=10 note=76 velocity=118 time=0
note_off channel=10 note=64 velocity=118 time=0
note_off channel=10 note=64 velocity=118 time=0
note_off channel=10 note=64 velocity=118 time=0
note_off channel=10 note=64 velocity=118 time=0
note_off channel=10 note=64 velocity=118 time=0
note_on channel=10 note=74 velocity=118 time=310
note_on channel=10 note=74 velocity=118 time=22
note_on channel=10 note=74 velocity=118 time=0
note_on channel=10 note=74 velocity=118 time=0
note_on channel=10 note=74 velocity=118 time=0
note_on channel=10 note=62 velocity=118 time=0
note_on channel=10 note=62 velocity=118 time=0
note_on channel=10 note=62 velocity=118 time=0
note_on channel=10 note=62 velocity=118 time=0
note_on channel=10 note=62 velocity=118 time=0
note_off channel=10 note=74 velocity=118 time=128
note_off channel=10 note=74 velocity=118 time=0
note_off channel=10 note=74 velocity=118 time=0
note_off channel=10 note=74 velocity=118 time=0
note_off channel=10 note=74 velocity=118 time=0
note_off channel=10 note=62 velocity=118 time=0
note_off channel=10 note=62 velocity=118 time=0
note_off channel=10 note=62 velocity=118 time=0
note_off channel=10 note=62 velocity=118 time=0
note_off channel=10 note=62 velocity=118 time=0
note_on channel=10 note=76 velocity=118 time=61
note_on channel=10 note=76 velocity=118 time=13
note_on channel=10 note=76 velocity=118 time=0
note_on channel=10 note=76 velocity=118 time=0
note_on channel=10 note=76 velocity=118 time=0
note_on channel=10 note=64 velocity=118 time=0
note_on channel=10 note=64 velocity=118 time=0
note_on channel=10 note=64 velocity=118 time=0
note_on channel=10 note=64 velocity=118 time=0
note_on channel=10 note=64 velocity=118 time=0
note_off channel=10 note=76 velocity=118 time=128
note_off channel=10 note=76 velocity=118 time=0
note_off channel=10 note=76 velocity=118 time=0
note_off channel=10 note=76 velocity=118 time=0
note_off channel=10 note=76 velocity=118 time=0
note_off channel=10 note=64 velocity=118 time=0
note_off channel=10 note=64 velocity=118 time=0
note_off channel=10 note=64 velocity=118 time=0
note_off channel=10 note=64 velocity=118 time=0
note_off channel=10 note=64 velocity=118 time=0
note_on channel=10 note=71 velocity=118 time=62
note_on channel=10 note=71 velocity=118 time=11
note_on channel=10 note=71 velocity=118 time=0
note_on channel=10 note=71 velocity=118 time=0
note_on channel=10 note=71 velocity=118 time=0
note_on channel=10 note=59 velocity=118 time=0
note_on channel=10 note=59 velocity=118 time=0
note_on channel=10 note=59 velocity=118 time=0
note_on channel=10 note=59 velocity=118 time=0
note_on channel=10 note=59 velocity=118 time=0
note_off channel=10 note=71 velocity=118 time=128
note_off channel=10 note=71 velocity=118 time=0
note_off channel=10 note=71 velocity=118 time=0
note_off channel=10 note=71 velocity=118 time=0
note_off channel=10 note=71 velocity=118 time=0
note_off channel=10 note=59 velocity=118 time=0
note_off channel=10 note=59 velocity=118 time=0
note_off channel=10 note=59 velocity=118 time=0
note_off channel=10 note=59 velocity=118 time=0
note_off channel=10 note=59 velocity=118 time=0
note_on channel=10 note=71 velocity=118 time=62
note_on channel=10 note=71 velocity=118 time=7
note_on channel=10 note=71 velocity=118 time=0
note_on channel=10 note=71 velocity=118 time=0
note_on channel=10 note=71 velocity=118 time=0
note_on channel=10 note=59 velocity=118 time=0
note_on channel=10 note=59 velocity=118 time=0
note_on channel=10 note=59 velocity=118 time=0
note_on channel=10 note=59 velocity=118 time=0
note_on channel=10 note=59 velocity=118 time=0
note_off channel=10 note=71 velocity=118 time=64
note_off channel=10 note=71 velocity=118 time=0
note_off channel=10 note=71 velocity=118 time=0
note_off channel=10 note=71 velocity=118 time=0
note_off channel=10 note=71 velocity=118 time=0
note_off channel=10 note=59 velocity=118 time=0
note_off channel=10 note=59 velocity=118 time=0
note_off channel=10 note=59 velocity=118 time=0
note_off channel=10 note=59 velocity=118 time=0
note_off channel=10 note=59 velocity=118 time=0
note_on channel=10 note=71 velocity=118 time=30
note_on channel=10 note=71 velocity=118 time=1
note_on channel=10 note=71 velocity=118 time=0
note_on channel=10 note=71 velocity=118 time=0
note_on channel=10 note=71 velocity=118 time=0
note_on channel=10 note=59 velocity=118 time=0
note_on channel=10 note=59 velocity=118 time=0
note_on channel=10 note=59 velocity=118 time=0
note_on channel=10 note=59 velocity=118 time=0
note_on channel=10 note=59 velocity=118 time=0
note_off channel=10 note=71 velocity=118 time=64
note_off channel=10 note=71 velocity=118 time=0
note_off channel=10 note=71 velocity=118 time=0
note_off channel=10 note=71 velocity=118 time=0
note_off channel=10 note=71 velocity=118 time=0
note_off channel=10 note=59 velocity=118 time=0
note_off channel=10 note=59 velocity=118 time=0
note_off channel=10 note=59 velocity=118 time=0
note_off channel=10 note=59 velocity=118 time=0
note_off channel=10 note=59 velocity=118 time=0
note_on channel=10 note=71 velocity=118 time=30
note_on channel=10 note=71 velocity=118 time=0
note_on channel=10 note=71 velocity=118 time=0
note_on channel=10 note=71 velocity=118 time=0
note_on channel=10 note=71 velocity=118 time=0
note_on channel=10 note=59 velocity=118 time=0
note_on channel=10 note=59 velocity=118 time=0
note_on channel=10 note=59 velocity=118 time=0
note_on channel=10 note=59 velocity=118 time=0
note_on channel=10 note=59 velocity=118 time=0
note_off channel=10 note=71 velocity=118 time=64
note_off channel=10 note=71 velocity=118 time=0
note_off channel=10 note=71 velocity=118 time=0
note_off channel=10 note=71 velocity=118 time=0
note_off channel=10 note=71 velocity=118 time=0
note_off channel=10 note=59 velocity=118 time=0
note_off channel=10 note=59 velocity=118 time=0
note_off channel=10 note=59 velocity=118 time=0
note_off channel=10 note=59 velocity=118 time=0
note_off channel=10 note=59 velocity=118 time=0
note_on channel=10 note=71 velocity=118 time=31
note_on channel=10 note=71 velocity=118 time=2
note_on channel=10 note=71 velocity=118 time=0
note_on channel=10 note=71 velocity=118 time=0
note_on channel=10 note=71 velocity=118 time=0
note_on channel=10 note=59 velocity=118 time=0
note_on channel=10 note=59 velocity=118 time=0
note_on channel=10 note=59 velocity=118 time=0
note_on channel=10 note=59 velocity=118 time=0
note_on channel=10 note=59 velocity=118 time=0
note_off channel=10 note=71 velocity=118 time=64
note_off channel=10 note=71 velocity=118 time=0
note_off channel=10 note=71 velocity=118 time=0
note_off channel=10 note=71 velocity=118 time=0
note_off channel=10 note=71 velocity=118 time=0
note_off channel=10 note=59 velocity=118 time=0
note_off channel=10 note=59 velocity=118 time=0
note_off channel=10 note=59 velocity=118 time=0
note_off channel=10 note=59 velocity=118 time=0
note_off channel=10 note=59 velocity=118 time=0
note_on channel=10 note=71 velocity=118 time=30
note_on channel=10 note=71 velocity=118 time=4
note_on channel=10 note=71 velocity=118 time=0
note_on channel=10 note=71 velocity=118 time=0
note_on channel=10 note=71 velocity=118 time=0
note_on channel=10 note=59 velocity=118 time=0
note_on channel=10 note=59 velocity=118 time=0
note_on channel=10 note=59 velocity=118 time=0
note_on channel=10 note=59 velocity=118 time=0
note_on channel=10 note=59 velocity=118 time=0
note_off channel=10 note=71 velocity=118 time=64
note_off channel=10 note=71 velocity=118 time=0
note_off channel=10 note=71 velocity=118 time=0
note_off channel=10 note=71 velocity=118 time=0
note_off channel=10 note=71 velocity=118 time=0
note_off channel=10 note=59 velocity=118 time=0
note_off channel=10 note=59 velocity=118 time=0
note_off channel=10 note=59 velocity=118 time=0
note_off channel=10 note=59 velocity=118 time=0
note_off channel=10 note=59 velocity=118 time=0
note_on channel=10 note=71 velocity=118 time=31
note_on channel=10 note=71 velocity=118 time=5
note_on channel=10 note=71 velocity=118 time=0
note_on channel=10 note=71 velocity=118 time=0
note_on channel=10 note=71 velocity=118 time=0
note_on channel=10 note=59 velocity=118 time=0
note_on channel=10 note=59 velocity=118 time=0
note_on channel=10 note=59 velocity=118 time=0
note_on channel=10 note=59 velocity=118 time=0
note_on channel=10 note=59 velocity=118 time=0
note_off channel=10 note=71 velocity=118 time=64
note_off channel=10 note=71 velocity=118 time=0
note_off channel=10 note=71 velocity=118 time=0
note_off channel=10 note=71 velocity=118 time=0
note_off channel=10 note=71 velocity=118 time=0
note_off channel=10 note=59 velocity=118 time=0
note_off channel=10 note=59 velocity=118 time=0
note_off channel=10 note=59 velocity=118 time=0
note_off channel=10 note=59 velocity=118 time=0
note_off channel=10 note=59 velocity=118 time=0
note_on channel=10 note=71 velocity=118 time=30
note_on channel=10 note=71 velocity=118 time=7
note_on channel=10 note=71 velocity=118 time=0
note_on channel=10 note=71 velocity=118 time=0
note_on channel=10 note=71 velocity=118 time=0
note_on channel=10 note=59 velocity=118 time=0
note_on channel=10 note=59 velocity=118 time=0
note_on channel=10 note=59 velocity=118 time=0
note_on channel=10 note=59 velocity=118 time=0
note_on channel=10 note=59 velocity=118 time=0
note_off channel=10 note=71 velocity=118 time=64
note_off channel=10 note=71 velocity=118 time=0
note_off channel=10 note=71 velocity=118 time=0
note_off channel=10 note=71 velocity=118 time=0
note_off channel=10 note=71 velocity=118 time=0
note_off channel=10 note=59 velocity=118 time=0
note_off channel=10 note=59 velocity=118 time=0
note_off channel=10 note=59 velocity=118 time=0
note_off channel=10 note=59 velocity=118 time=0
note_off channel=10 note=59 velocity=118 time=0
note_on channel=10 note=71 velocity=118 time=30
note_on channel=10 note=71 velocity=118 time=9
note_on channel=10 note=71 velocity=118 time=0
note_on channel=10 note=71 velocity=118 time=0
note_on channel=10 note=71 velocity=118 time=0
note_on channel=10 note=59 velocity=118 time=0
note_on channel=10 note=59 velocity=118 time=0
note_on channel=10 note=59 velocity=118 time=0
note_on channel=10 note=59 velocity=118 time=0
note_on channel=10 note=59 velocity=118 time=0
note_off channel=10 note=71 velocity=118 time=64
note_off channel=10 note=71 velocity=118 time=0
note_off channel=10 note=71 velocity=118 time=0
note_off channel=10 note=71 velocity=118 time=0
note_off channel=10 note=71 velocity=118 time=0
note_off channel=10 note=59 velocity=118 time=0
note_off channel=10 note=59 velocity=118 time=0
note_off channel=10 note=59 velocity=118 time=0
note_off channel=10 note=59 velocity=118 time=0
note_off channel=10 note=59 velocity=118 time=0
note_on channel=10 note=74 velocity=118 time=31
note_on channel=10 note=74 velocity=118 time=10
note_on channel=10 note=74 velocity=118 time=0
note_on channel=10 note=74 velocity=118 time=0
note_on channel=10 note=74 velocity=118 time=0
note_on channel=10 note=62 velocity=118 time=0
note_on channel=10 note=62 velocity=118 time=0
note_on channel=10 note=62 velocity=118 time=0
note_on channel=10 note=62 velocity=118 time=0
note_on channel=10 note=62 velocity=118 time=0
note_off channel=10 note=74 velocity=118 time=64
note_off channel=10 note=74 velocity=118 time=0
note_off channel=10 note=74 velocity=118 time=0
note_off channel=10 note=74 velocity=118 time=0
note_off channel=10 note=74 velocity=118 time=0
note_off channel=10 note=62 velocity=118 time=0
note_off channel=10 note=62 velocity=118 time=0
note_off channel=10 note=62 velocity=118 time=0
note_off channel=10 note=62 velocity=118 time=0
note_off channel=10 note=62 velocity=118 time=0
note_on channel=10 note=74 velocity=118 time=30
note_on channel=10 note=74 velocity=118 time=11
note_on channel=10 note=74 velocity=118 time=0
note_on channel=10 note=74 velocity=118 time=0
note_on channel=10 note=74 velocity=118 time=0
note_on channel=10 note=62 velocity=118 time=0
note_on channel=10 note=62 velocity=118 time=0
note_on channel=10 note=62 velocity=118 time=0
note_on channel=10 note=62 velocity=118 time=0
note_on channel=10 note=62 velocity=118 time=0
note_off channel=10 note=74 velocity=118 time=64
note_off channel=10 note=74 velocity=118 time=0
note_off channel=10 note=74 velocity=118 time=0
note_off channel=10 note=74 velocity=118 time=0
note_off channel=10 note=74 velocity=118 time=0
note_off channel=10 note=62 velocity=118 time=0
note_off channel=10 note=62 velocity=118 time=0
note_off channel=10 note=62 velocity=118 time=0
note_off channel=10 note=62 velocity=118 time=0
note_off channel=10 note=62 velocity=118 time=0
note_on channel=10 note=71 velocity=118 time=30
note_on channel=10 note=71 velocity=118 time=11
note_on channel=10 note=71 velocity=118 time=0
note_on channel=10 note=71 velocity=118 time=0
note_on channel=10 note=71 velocity=118 time=0
note_on channel=10 note=59 velocity=118 time=0
note_on channel=10 note=59 velocity=118 time=0
note_on channel=10 note=59 velocity=118 time=0
note_on channel=10 note=59 velocity=118 time=0
note_on channel=10 note=59 velocity=118 time=0
note_off channel=10 note=71 velocity=118 time=128
note_off channel=10 note=71 velocity=118 time=0
note_off channel=10 note=71 velocity=118 time=0
note_off channel=10 note=71 velocity=118 time=0
note_off channel=10 note=71 velocity=118 time=0
note_off channel=10 note=59 velocity=118 time=0
note_off channel=10 note=59 velocity=118 time=0
note_off channel=10 note=59 velocity=118 time=0
note_off channel=10 note=59 velocity=118 time=0
note_off channel=10 note=59 velocity=118 time=0
note_on channel=10 note=71 velocity=118 time=155
note_on channel=10 note=71 velocity=118 time=54
note_on channel=10 note=71 velocity=118 time=0
note_on channel=10 note=71 velocity=118 time=0
note_on channel=10 note=71 velocity=118 time=0
note_on channel=10 note=59 velocity=118 time=0
note_on channel=10 note=59 velocity=118 time=0
note_on channel=10 note=59 velocity=118 time=0
note_on channel=10 note=59 velocity=118 time=0
note_on channel=10 note=59 velocity=118 time=0
note_off channel=10 note=71 velocity=118 time=64
note_off channel=10 note=71 velocity=118 time=0
note_off channel=10 note=71 velocity=118 time=0
note_off channel=10 note=71 velocity=118 time=0
note_off channel=10 note=71 velocity=118 time=0
note_off channel=10 note=59 velocity=118 time=0
note_off channel=10 note=59 velocity=118 time=0
note_off channel=10 note=59 velocity=118 time=0
note_off channel=10 note=59 velocity=118 time=0
note_off channel=10 note=59 velocity=118 time=0
note_on channel=10 note=74 velocity=118 time=30
note_on channel=10 note=74 velocity=118 time=7
note_on channel=10 note=74 velocity=118 time=0
note_on channel=10 note=74 velocity=118 time=0
note_on channel=10 note=74 velocity=118 time=0
note_on channel=10 note=62 velocity=118 time=0
note_on channel=10 note=62 velocity=118 time=0
note_on channel=10 note=62 velocity=118 time=0
note_on channel=10 note=62 velocity=118 time=0
note_on channel=10 note=62 velocity=118 time=0
note_off channel=10 note=74 velocity=118 time=128
note_off channel=10 note=74 velocity=118 time=0
note_off channel=10 note=74 velocity=118 time=0
note_off channel=10 note=74 velocity=118 time=0
note_off channel=10 note=74 velocity=118 time=0
note_off channel=10 note=62 velocity=118 time=0
note_off channel=10 note=62 velocity=118 time=0
note_off channel=10 note=62 velocity=118 time=0
note_off channel=10 note=62 velocity=118 time=0
note_off channel=10 note=62 velocity=118 time=0
note_on channel=10 note=71 velocity=118 time=62
note_on channel=10 note=71 velocity=118 time=8
note_on channel=10 note=71 velocity=118 time=0
note_on channel=10 note=71 velocity=118 time=0
note_on channel=10 note=71 velocity=118 time=0
note_on channel=10 note=59 velocity=118 time=0
note_on channel=10 note=59 velocity=118 time=0
note_on channel=10 note=59 velocity=118 time=0
note_on channel=10 note=59 velocity=118 time=0
note_on channel=10 note=59 velocity=118 time=0
note_off channel=10 note=71 velocity=118 time=256
note_off channel=10 note=71 velocity=118 time=0
note_off channel=10 note=71 velocity=118 time=0
note_off channel=10 note=71 velocity=118 time=0
note_off channel=10 note=71 velocity=118 time=0
note_off channel=10 note=59 velocity=118 time=0
note_off channel=10 note=59 velocity=118 time=0
note_off channel=10 note=59 velocity=118 time=0
note_off channel=10 note=59 velocity=118 time=0
note_off channel=10 note=59 velocity=118 time=0
note_on channel=10 note=71 velocity=118 time=866
note_on channel=10 note=71 velocity=118 time=123
note_on channel=10 note=71 velocity=118 time=0
note_on channel=10 note=71 velocity=118 time=0
note_on channel=10 note=71 velocity=118 time=0
note_on channel=10 note=59 velocity=118 time=0
note_on channel=10 note=59 velocity=118 time=0
note_on channel=10 note=59 velocity=118 time=0
note_on channel=10 note=59 velocity=118 time=0
note_on channel=10 note=59 velocity=118 time=0
note_off channel=10 note=71 velocity=118 time=64
note_off channel=10 note=71 velocity=118 time=0
note_off channel=10 note=71 velocity=118 time=0
note_off channel=10 note=71 velocity=118 time=0
note_off channel=10 note=71 velocity=118 time=0
note_off channel=10 note=59 velocity=118 time=0
note_off channel=10 note=59 velocity=118 time=0
note_off channel=10 note=59 velocity=118 time=0
note_off channel=10 note=59 velocity=118 time=0
note_off channel=10 note=59 velocity=118 time=0
note_on channel=10 note=71 velocity=118 time=31
note_on channel=10 note=71 velocity=118 time=15
note_on channel=10 note=71 velocity=118 time=0
note_on channel=10 note=71 velocity=118 time=0
note_on channel=10 note=71 velocity=118 time=0
note_on channel=10 note=59 velocity=118 time=0
note_on channel=10 note=59 velocity=118 time=0
note_on channel=10 note=59 velocity=118 time=0
note_on channel=10 note=59 velocity=118 time=0
note_on channel=10 note=59 velocity=118 time=0
note_off channel=10 note=71 velocity=118 time=192
note_off channel=10 note=71 velocity=118 time=0
note_off channel=10 note=71 velocity=118 time=0
note_off channel=10 note=71 velocity=118 time=0
note_off channel=10 note=71 velocity=118 time=0
note_off channel=10 note=59 velocity=118 time=0
note_off channel=10 note=59 velocity=118 time=0
note_off channel=10 note=59 velocity=118 time=0
note_off channel=10 note=59 velocity=118 time=0
note_off channel=10 note=59 velocity=118 time=0
note_on channel=10 note=74 velocity=118 time=93
note_on channel=10 note=74 velocity=118 time=71
note_on channel=10 note=74 velocity=118 time=0
note_on channel=10 note=74 velocity=118 time=0
note_on channel=10 note=74 velocity=118 time=0
note_on channel=10 note=62 velocity=118 time=0
note_on channel=10 note=62 velocity=118 time=0
note_on channel=10 note=62 velocity=118 time=0
note_on channel=10 note=62 velocity=118 time=0
note_on channel=10 note=62 velocity=118 time=0
note_on channel=10 note=71 velocity=118 time=93
note_on channel=10 note=71 velocity=118 time=100
note_on channel=10 note=71 velocity=118 time=0
note_on channel=10 note=71 velocity=118 time=0
note_on channel=10 note=71 velocity=118 time=0
note_on channel=10 note=59 velocity=118 time=0
note_on channel=10 note=59 velocity=118 time=0
note_on channel=10 note=59 velocity=118 time=0
note_on channel=10 note=59 velocity=118 time=0
note_on channel=10 note=59 velocity=118 time=0
note_off channel=10 note=74 velocity=118 time=160
note_off channel=10 note=74 velocity=118 time=0
note_off channel=10 note=74 velocity=118 time=0
note_off channel=10 note=74 velocity=118 time=0
note_off channel=10 note=74 velocity=118 time=0
note_off channel=10 note=62 velocity=118 time=0
note_off channel=10 note=62 velocity=118 time=0
note_off channel=10 note=62 velocity=118 time=0
note_off channel=10 note=62 velocity=118 time=0
note_off channel=10 note=62 velocity=118 time=0
note_off channel=10 note=71 velocity=118 time=32
note_off channel=10 note=71 velocity=118 time=0
note_off channel=10 note=71 velocity=118 time=0
note_off channel=10 note=71 velocity=118 time=0
note_off channel=10 note=71 velocity=118 time=0
note_off channel=10 note=59 velocity=118 time=0
note_off channel=10 note=59 velocity=118 time=0
note_off channel=10 note=59 velocity=118 time=0
note_off channel=10 note=59 velocity=118 time=0
note_off channel=10 note=59 velocity=118 time=0
note_on channel=10 note=76 velocity=118 time=845
note_on channel=10 note=76 velocity=118 time=445
note_on channel=10 note=76 velocity=118 time=0
note_on channel=10 note=76 velocity=118 time=0
note_on channel=10 note=76 velocity=118 time=0
note_on channel=10 note=64 velocity=118 time=0
note_on channel=10 note=64 velocity=118 time=0
note_on channel=10 note=64 velocity=118 time=0
note_on channel=10 note=64 velocity=118 time=0
note_on channel=10 note=64 velocity=118 time=0
note_off channel=10 note=76 velocity=118 time=64
note_off channel=10 note=76 velocity=118 time=0
note_off channel=10 note=76 velocity=118 time=0
note_off channel=10 note=76 velocity=118 time=0
note_off channel=10 note=76 velocity=118 time=0
note_off channel=10 note=64 velocity=118 time=0
note_off channel=10 note=64 velocity=118 time=0
note_off channel=10 note=64 velocity=118 time=0
note_off channel=10 note=64 velocity=118 time=0
note_off channel=10 note=64 velocity=118 time=0
note_on channel=10 note=76 velocity=118 time=31
note_on channel=10 note=76 velocity=118 time=6
note_on channel=10 note=76 velocity=118 time=0
note_on channel=10 note=76 velocity=118 time=0
note_on channel=10 note=76 velocity=118 time=0
note_on channel=10 note=64 velocity=118 time=0
note_on channel=10 note=64 velocity=118 time=0
note_on channel=10 note=64 velocity=118 time=0
note_on channel=10 note=64 velocity=118 time=0
note_on channel=10 note=64 velocity=118 time=0
note_off channel=10 note=76 velocity=118 time=192
note_off channel=10 note=76 velocity=118 time=0
note_off channel=10 note=76 velocity=118 time=0
note_off channel=10 note=76 velocity=118 time=0
note_off channel=10 note=76 velocity=118 time=0
note_off channel=10 note=64 velocity=118 time=0
note_off channel=10 note=64 velocity=118 time=0
note_off channel=10 note=64 velocity=118 time=0
note_off channel=10 note=64 velocity=118 time=0
note_off channel=10 note=64 velocity=118 time=0
note_on channel=10 note=71 velocity=118 time=95
note_on channel=10 note=71 velocity=118 time=23
note_on channel=10 note=71 velocity=118 time=0
note_on channel=10 note=71 velocity=118 time=0
note_on channel=10 note=71 velocity=118 time=0
note_on channel=10 note=59 velocity=118 time=0
note_on channel=10 note=59 velocity=118 time=0
note_on channel=10 note=59 velocity=118 time=0
note_on channel=10 note=59 velocity=118 time=0
note_on channel=10 note=59 velocity=118 time=0
note_off channel=10 note=71 velocity=118 time=256
note_off channel=10 note=71 velocity=118 time=0
note_off channel=10 note=71 velocity=118 time=0
note_off channel=10 note=71 velocity=118 time=0
note_off channel=10 note=71 velocity=118 time=0
note_off channel=10 note=59 velocity=118 time=0
note_off channel=10 note=59 velocity=118 time=0
note_off channel=10 note=59 velocity=118 time=0
note_off channel=10 note=59 velocity=118 time=0
note_off channel=10 note=59 velocity=118 time=0
note_on channel=10 note=71 velocity=118 time=892
note_on channel=10 note=71 velocity=118 time=47
note_on channel=10 note=71 velocity=118 time=0
note_on channel=10 note=71 velocity=118 time=0
note_on channel=10 note=71 velocity=118 time=0
note_on channel=10 note=59 velocity=118 time=0
note_on channel=10 note=59 velocity=118 time=0
note_on channel=10 note=59 velocity=118 time=0
note_on channel=10 note=59 velocity=118 time=0
note_on channel=10 note=59 velocity=118 time=0
note_off channel=10 note=71 velocity=118 time=64
note_off channel=10 note=71 velocity=118 time=0
note_off channel=10 note=71 velocity=118 time=0
note_off channel=10 note=71 velocity=118 time=0
note_off channel=10 note=71 velocity=118 time=0
note_off channel=10 note=59 velocity=118 time=0
note_off channel=10 note=59 velocity=118 time=0
note_off channel=10 note=59 velocity=118 time=0
note_off channel=10 note=59 velocity=118 time=0
note_off channel=10 note=59 velocity=118 time=0
note_on channel=10 note=71 velocity=118 time=31
note_on channel=10 note=71 velocity=118 time=3
note_on channel=10 note=71 velocity=118 time=0
note_on channel=10 note=71 velocity=118 time=0
note_on channel=10 note=71 velocity=118 time=0
note_on channel=10 note=59 velocity=118 time=0
note_on channel=10 note=59 velocity=118 time=0
note_on channel=10 note=59 velocity=118 time=0
note_on channel=10 note=59 velocity=118 time=0
note_on channel=10 note=59 velocity=118 time=0
note_off channel=10 note=71 velocity=118 time=192
note_off channel=10 note=71 velocity=118 time=0
note_off channel=10 note=71 velocity=118 time=0
note_off channel=10 note=71 velocity=118 time=0
note_off channel=10 note=71 velocity=118 time=0
note_off channel=10 note=59 velocity=118 time=0
note_off channel=10 note=59 velocity=118 time=0
note_off channel=10 note=59 velocity=118 time=0
note_off channel=10 note=59 velocity=118 time=0
note_off channel=10 note=59 velocity=118 time=0
note_on channel=10 note=74 velocity=118 time=95
note_on channel=10 note=74 velocity=118 time=4
note_on channel=10 note=74 velocity=118 time=0
note_on channel=10 note=74 velocity=118 time=0
note_on channel=10 note=74 velocity=118 time=0
note_on channel=10 note=62 velocity=118 time=0
note_on channel=10 note=62 velocity=118 time=0
note_on channel=10 note=62 velocity=118 time=0
note_on channel=10 note=62 velocity=118 time=0
note_on channel=10 note=62 velocity=118 time=0
note_off channel=10 note=74 velocity=118 time=256
note_off channel=10 note=74 velocity=118 time=0
note_off channel=10 note=74 velocity=118 time=0
note_off channel=10 note=74 velocity=118 time=0
note_off channel=10 note=74 velocity=118 time=0
note_off channel=10 note=62 velocity=118 time=0
note_off channel=10 note=62 velocity=118 time=0
note_off channel=10 note=62 velocity=118 time=0
note_off channel=10 note=62 velocity=118 time=0
note_off channel=10 note=62 velocity=118 time=0
note_on channel=10 note=69 velocity=118 time=1464
note_on channel=10 note=69 velocity=118 time=762
note_on channel=10 note=69 velocity=118 time=0
note_on channel=10 note=69 velocity=118 time=0
note_on channel=10 note=69 velocity=118 time=0
note_on channel=10 note=57 velocity=118 time=0
note_on channel=10 note=57 velocity=118 time=0
note_on channel=10 note=57 velocity=118 time=0
note_on channel=10 note=57 velocity=118 time=0
note_on channel=10 note=57 velocity=118 time=0
note_off channel=10 note=69 velocity=118 time=384
note_off channel=10 note=69 velocity=118 time=0
note_off channel=10 note=69 velocity=118 time=0
note_off channel=10 note=69 velocity=118 time=0
note_off channel=10 note=69 velocity=118 time=0
note_off channel=10 note=57 velocity=118 time=0
note_off channel=10 note=57 velocity=118 time=0
note_off channel=10 note=57 velocity=118 time=0
note_off channel=10 note=57 velocity=118 time=0
note_off channel=10 note=57 velocity=118 time=0
note_on channel=10 note=71 velocity=118 time=0
note_on channel=10 note=71 velocity=118 time=0
note_on channel=10 note=71 velocity=118 time=0
note_on channel=10 note=71 velocity=118 time=0
note_on channel=10 note=71 velocity=118 time=0
note_on channel=10 note=59 velocity=118 time=0
note_on channel=10 note=59 velocity=118 time=0
note_on channel=10 note=59 velocity=118 time=0
note_on channel=10 note=59 velocity=118 time=0
note_on channel=10 note=59 velocity=118 time=0
note_off channel=10 note=71 velocity=118 time=128
note_off channel=10 note=71 velocity=118 time=0
note_off channel=10 note=71 velocity=118 time=0
note_off channel=10 note=71 velocity=118 time=0
note_off channel=10 note=71 velocity=118 time=0
note_off channel=10 note=59 velocity=118 time=0
note_off channel=10 note=59 velocity=118 time=0
note_off channel=10 note=59 velocity=118 time=0
note_off channel=10 note=59 velocity=118 time=0
note_off channel=10 note=59 velocity=118 time=0
note_on channel=10 note=73 velocity=118 time=62
note_on channel=10 note=73 velocity=118 time=3
note_on channel=10 note=73 velocity=118 time=0
note_on channel=10 note=73 velocity=118 time=0
note_on channel=10 note=73 velocity=118 time=0
note_on channel=10 note=61 velocity=118 time=0
note_on channel=10 note=61 velocity=118 time=0
note_on channel=10 note=61 velocity=118 time=0
note_on channel=10 note=61 velocity=118 time=0
note_on channel=10 note=61 velocity=118 time=0
note_off channel=10 note=73 velocity=118 time=192
note_off channel=10 note=73 velocity=118 time=0
note_off channel=10 note=73 velocity=118 time=0
note_off channel=10 note=73 velocity=118 time=0
note_off channel=10 note=73 velocity=118 time=0
note_off channel=10 note=61 velocity=118 time=0
note_off channel=10 note=61 velocity=118 time=0
note_off channel=10 note=61 velocity=118 time=0
note_off channel=10 note=61 velocity=118 time=0
note_off channel=10 note=61 velocity=118 time=0
note_on channel=10 note=71 velocity=118 time=92
note_on channel=10 note=71 velocity=118 time=7
note_on channel=10 note=71 velocity=118 time=0
note_on channel=10 note=71 velocity=118 time=0
note_on channel=10 note=71 velocity=118 time=0
note_on channel=10 note=59 velocity=118 time=0
note_on channel=10 note=59 velocity=118 time=0
note_on channel=10 note=59 velocity=118 time=0
note_on channel=10 note=59 velocity=118 time=0
note_on channel=10 note=59 velocity=118 time=0
note_off channel=10 note=71 velocity=118 time=128
note_off channel=10 note=71 velocity=118 time=0
note_off channel=10 note=71 velocity=118 time=0
note_off channel=10 note=71 velocity=118 time=0
note_off channel=10 note=71 velocity=118 time=0
note_off channel=10 note=59 velocity=118 time=0
note_off channel=10 note=59 velocity=118 time=0
note_off channel=10 note=59 velocity=118 time=0
note_off channel=10 note=59 velocity=118 time=0
note_off channel=10 note=59 velocity=118 time=0
note_on channel=10 note=73 velocity=118 time=155
note_on channel=10 note=73 velocity=118 time=16
note_on channel=10 note=73 velocity=118 time=0
note_on channel=10 note=73 velocity=118 time=0
note_on channel=10 note=73 velocity=118 time=0
note_on channel=10 note=61 velocity=118 time=0
note_on channel=10 note=61 velocity=118 time=0
note_on channel=10 note=61 velocity=118 time=0
note_on channel=10 note=61 velocity=118 time=0
note_on channel=10 note=61 velocity=118 time=0
note_off channel=10 note=73 velocity=118 time=128
note_off channel=10 note=73 velocity=118 time=0
note_off channel=10 note=73 velocity=118 time=0
note_off channel=10 note=73 velocity=118 time=0
note_off channel=10 note=73 velocity=118 time=0
note_off channel=10 note=61 velocity=118 time=0
note_off channel=10 note=61 velocity=118 time=0
note_off channel=10 note=61 velocity=118 time=0
note_off channel=10 note=61 velocity=118 time=0
note_off channel=10 note=61 velocity=118 time=0
note_on channel=10 note=69 velocity=118 time=248
note_on channel=10 note=69 velocity=118 time=201
note_on channel=10 note=69 velocity=118 time=0
note_on channel=10 note=69 velocity=118 time=0
note_on channel=10 note=69 velocity=118 time=0
note_on channel=10 note=57 velocity=118 time=0
note_on channel=10 note=57 velocity=118 time=0
note_on channel=10 note=57 velocity=118 time=0
note_on channel=10 note=57 velocity=118 time=0
note_on channel=10 note=57 velocity=118 time=0
note_off channel=10 note=69 velocity=118 time=384
note_off channel=10 note=69 velocity=118 time=0
note_off channel=10 note=69 velocity=118 time=0
note_off channel=10 note=69 velocity=118 time=0
note_off channel=10 note=69 velocity=118 time=0
note_off channel=10 note=57 velocity=118 time=0
note_off channel=10 note=57 velocity=118 time=0
note_off channel=10 note=57 velocity=118 time=0
note_off channel=10 note=57 velocity=118 time=0
note_off channel=10 note=57 velocity=118 time=0
note_on channel=10 note=71 velocity=118 time=0
note_on channel=10 note=71 velocity=118 time=0
note_on channel=10 note=71 velocity=118 time=0
note_on channel=10 note=71 velocity=118 time=0
note_on channel=10 note=71 velocity=118 time=0
note_on channel=10 note=59 velocity=118 time=0
note_on channel=10 note=59 velocity=118 time=0
note_on channel=10 note=59 velocity=118 time=0
note_on channel=10 note=59 velocity=118 time=0
note_on channel=10 note=59 velocity=118 time=0
note_off channel=10 note=71 velocity=118 time=128
note_off channel=10 note=71 velocity=118 time=0
note_off channel=10 note=71 velocity=118 time=0
note_off channel=10 note=71 velocity=118 time=0
note_off channel=10 note=71 velocity=118 time=0
note_off channel=10 note=59 velocity=118 time=0
note_off channel=10 note=59 velocity=118 time=0
note_off channel=10 note=59 velocity=118 time=0
note_off channel=10 note=59 velocity=118 time=0
note_off channel=10 note=59 velocity=118 time=0
note_on channel=10 note=73 velocity=118 time=62
note_on channel=10 note=73 velocity=118 time=62
note_on channel=10 note=73 velocity=118 time=0
note_on channel=10 note=73 velocity=118 time=0
note_on channel=10 note=73 velocity=118 time=0
note_on channel=10 note=61 velocity=118 time=0
note_on channel=10 note=61 velocity=118 time=0
note_on channel=10 note=61 velocity=118 time=0
note_on channel=10 note=61 velocity=118 time=0
note_on channel=10 note=61 velocity=118 time=0
note_off channel=10 note=73 velocity=118 time=192
note_off channel=10 note=73 velocity=118 time=0
note_off channel=10 note=73 velocity=118 time=0
note_off channel=10 note=73 velocity=118 time=0
note_off channel=10 note=73 velocity=118 time=0
note_off channel=10 note=61 velocity=118 time=0
note_off channel=10 note=61 velocity=118 time=0
note_off channel=10 note=61 velocity=118 time=0
note_off channel=10 note=61 velocity=118 time=0
note_off channel=10 note=61 velocity=118 time=0
note_on channel=10 note=71 velocity=118 time=93
note_on channel=10 note=71 velocity=118 time=81
note_on channel=10 note=71 velocity=118 time=0
note_on channel=10 note=71 velocity=118 time=0
note_on channel=10 note=71 velocity=118 time=0
note_on channel=10 note=59 velocity=118 time=0
note_on channel=10 note=59 velocity=118 time=0
note_on channel=10 note=59 velocity=118 time=0
note_on channel=10 note=59 velocity=118 time=0
note_on channel=10 note=59 velocity=118 time=0
note_off channel=10 note=71 velocity=118 time=128
note_off channel=10 note=71 velocity=118 time=0
note_off channel=10 note=71 velocity=118 time=0
note_off channel=10 note=71 velocity=118 time=0
note_off channel=10 note=71 velocity=118 time=0
note_off channel=10 note=59 velocity=118 time=0
note_off channel=10 note=59 velocity=118 time=0
note_off channel=10 note=59 velocity=118 time=0
note_off channel=10 note=59 velocity=118 time=0
note_off channel=10 note=59 velocity=118 time=0
note_on channel=10 note=73 velocity=118 time=62
note_on channel=10 note=73 velocity=118 time=40
note_on channel=10 note=73 velocity=118 time=0
note_on channel=10 note=73 velocity=118 time=0
note_on channel=10 note=73 velocity=118 time=0
note_on channel=10 note=61 velocity=118 time=0
note_on channel=10 note=61 velocity=118 time=0
note_on channel=10 note=61 velocity=118 time=0
note_on channel=10 note=61 velocity=118 time=0
note_on channel=10 note=61 velocity=118 time=0
note_off channel=10 note=73 velocity=118 time=64
note_off channel=10 note=73 velocity=118 time=0
note_off channel=10 note=73 velocity=118 time=0
note_off channel=10 note=73 velocity=118 time=0
note_off channel=10 note=73 velocity=118 time=0
note_off channel=10 note=61 velocity=118 time=0
note_off channel=10 note=61 velocity=118 time=0
note_off channel=10 note=61 velocity=118 time=0
note_off channel=10 note=61 velocity=118 time=0
note_off channel=10 note=61 velocity=118 time=0
note_on channel=10 note=73 velocity=118 time=31
note_on channel=10 note=73 velocity=118 time=15
note_on channel=10 note=73 velocity=118 time=0
note_on channel=10 note=73 velocity=118 time=0
note_on channel=10 note=73 velocity=118 time=0
note_on channel=10 note=61 velocity=118 time=0
note_on channel=10 note=61 velocity=118 time=0
note_on channel=10 note=61 velocity=118 time=0
note_on channel=10 note=61 velocity=118 time=0
note_on channel=10 note=61 velocity=118 time=0
note_off channel=10 note=73 velocity=118 time=128
note_off channel=10 note=73 velocity=118 time=0
note_off channel=10 note=73 velocity=118 time=0
note_off channel=10 note=73 velocity=118 time=0
note_off channel=10 note=73 velocity=118 time=0
note_off channel=10 note=61 velocity=118 time=0
note_off channel=10 note=61 velocity=118 time=0
note_off channel=10 note=61 velocity=118 time=0
note_off channel=10 note=61 velocity=118 time=0
note_off channel=10 note=61 velocity=118 time=0
note_on channel=10 note=74 velocity=118 time=63
note_on channel=10 note=74 velocity=118 time=20
note_on channel=10 note=74 velocity=118 time=0
note_on channel=10 note=74 velocity=118 time=0
note_on channel=10 note=74 velocity=118 time=0
note_on channel=10 note=62 velocity=118 time=0
note_on channel=10 note=62 velocity=118 time=0
note_on channel=10 note=62 velocity=118 time=0
note_on channel=10 note=62 velocity=118 time=0
note_on channel=10 note=62 velocity=118 time=0
note_off channel=10 note=74 velocity=118 time=64
note_off channel=10 note=74 velocity=118 time=0
note_off channel=10 note=74 velocity=118 time=0
note_off channel=10 note=74 velocity=118 time=0
note_off channel=10 note=74 velocity=118 time=0
note_off channel=10 note=62 velocity=118 time=0
note_off channel=10 note=62 velocity=118 time=0
note_off channel=10 note=62 velocity=118 time=0
note_off channel=10 note=62 velocity=118 time=0
note_off channel=10 note=62 velocity=118 time=0
note_on channel=10 note=74 velocity=118 time=31
note_on channel=10 note=74 velocity=118 time=5
note_on channel=10 note=74 velocity=118 time=0
note_on channel=10 note=74 velocity=118 time=0
note_on channel=10 note=74 velocity=118 time=0
note_on channel=10 note=62 velocity=118 time=0
note_on channel=10 note=62 velocity=118 time=0
note_on channel=10 note=62 velocity=118 time=0
note_on channel=10 note=62 velocity=118 time=0
note_on channel=10 note=62 velocity=118 time=0
note_off channel=10 note=74 velocity=118 time=128
note_off channel=10 note=74 velocity=118 time=0
note_off channel=10 note=74 velocity=118 time=0
note_off channel=10 note=74 velocity=118 time=0
note_off channel=10 note=74 velocity=118 time=0
note_off channel=10 note=62 velocity=118 time=0
note_off channel=10 note=62 velocity=118 time=0
note_off channel=10 note=62 velocity=118 time=0
note_off channel=10 note=62 velocity=118 time=0
note_off channel=10 note=62 velocity=118 time=0
note_on channel=10 note=74 velocity=118 time=63
note_on channel=10 note=74 velocity=118 time=0
note_on channel=10 note=74 velocity=118 time=0
note_on channel=10 note=74 velocity=118 time=0
note_on channel=10 note=74 velocity=118 time=0
note_on channel=10 note=62 velocity=118 time=0
note_on channel=10 note=62 velocity=118 time=0
note_on channel=10 note=62 velocity=118 time=0
note_on channel=10 note=62 velocity=118 time=0
note_on channel=10 note=62 velocity=118 time=0
note_off channel=10 note=74 velocity=118 time=256
note_off channel=10 note=74 velocity=118 time=0
note_off channel=10 note=74 velocity=118 time=0
note_off channel=10 note=74 velocity=118 time=0
note_off channel=10 note=74 velocity=118 time=0
note_off channel=10 note=62 velocity=118 time=0
note_off channel=10 note=62 velocity=118 time=0
note_off channel=10 note=62 velocity=118 time=0
note_off channel=10 note=62 velocity=118 time=0
note_off channel=10 note=62 velocity=118 time=0
note_on channel=10 note=74 velocity=118 time=692
note_on channel=10 note=74 velocity=118 time=208
note_on channel=10 note=74 velocity=118 time=0
note_on channel=10 note=74 velocity=118 time=0
note_on channel=10 note=74 velocity=118 time=0
note_on channel=10 note=62 velocity=118 time=0
note_on channel=10 note=62 velocity=118 time=0
note_on channel=10 note=62 velocity=118 time=0
note_on channel=10 note=62 velocity=118 time=0
note_on channel=10 note=62 velocity=118 time=0
note_off channel=10 note=74 velocity=118 time=64
note_off channel=10 note=74 velocity=118 time=0
note_off channel=10 note=74 velocity=118 time=0
note_off channel=10 note=74 velocity=118 time=0
note_off channel=10 note=74 velocity=118 time=0
note_off channel=10 note=62 velocity=118 time=0
note_off channel=10 note=62 velocity=118 time=0
note_off channel=10 note=62 velocity=118 time=0
note_off channel=10 note=62 velocity=118 time=0
note_off channel=10 note=62 velocity=118 time=0
note_on channel=10 note=74 velocity=118 time=31
note_on channel=10 note=74 velocity=118 time=7
note_on channel=10 note=74 velocity=118 time=0
note_on channel=10 note=74 velocity=118 time=0
note_on channel=10 note=74 velocity=118 time=0
note_on channel=10 note=62 velocity=118 time=0
note_on channel=10 note=62 velocity=118 time=0
note_on channel=10 note=62 velocity=118 time=0
note_on channel=10 note=62 velocity=118 time=0
note_on channel=10 note=62 velocity=118 time=0
note_off channel=10 note=74 velocity=118 time=128
note_off channel=10 note=74 velocity=118 time=0
note_off channel=10 note=74 velocity=118 time=0
note_off channel=10 note=74 velocity=118 time=0
note_off channel=10 note=74 velocity=118 time=0
note_off channel=10 note=62 velocity=118 time=0
note_off channel=10 note=62 velocity=118 time=0
note_off channel=10 note=62 velocity=118 time=0
note_off channel=10 note=62 velocity=118 time=0
note_off channel=10 note=62 velocity=118 time=0
note_on channel=10 note=78 velocity=118 time=62
note_on channel=10 note=78 velocity=118 time=14
note_on channel=10 note=78 velocity=118 time=0
note_on channel=10 note=78 velocity=118 time=0
note_on channel=10 note=78 velocity=118 time=0
note_on channel=10 note=66 velocity=118 time=0
note_on channel=10 note=66 velocity=118 time=0
note_on channel=10 note=66 velocity=118 time=0
note_on channel=10 note=66 velocity=118 time=0
note_on channel=10 note=66 velocity=118 time=0
note_off channel=10 note=78 velocity=118 time=192
note_off channel=10 note=78 velocity=118 time=0
note_off channel=10 note=78 velocity=118 time=0
note_off channel=10 note=78 velocity=118 time=0
note_off channel=10 note=78 velocity=118 time=0
note_off channel=10 note=66 velocity=118 time=0
note_off channel=10 note=66 velocity=118 time=0
note_off channel=10 note=66 velocity=118 time=0
note_off channel=10 note=66 velocity=118 time=0
note_off channel=10 note=66 velocity=118 time=0
note_on channel=10 note=74 velocity=118 time=93
note_on channel=10 note=74 velocity=118 time=16
note_on channel=10 note=74 velocity=118 time=0
note_on channel=10 note=74 velocity=118 time=0
note_on channel=10 note=74 velocity=118 time=0
note_on channel=10 note=62 velocity=118 time=0
note_on channel=10 note=62 velocity=118 time=0
note_on channel=10 note=62 velocity=118 time=0
note_on channel=10 note=62 velocity=118 time=0
note_on channel=10 note=62 velocity=118 time=0
note_off channel=10 note=74 velocity=118 time=192
note_off channel=10 note=74 velocity=118 time=0
note_off channel=10 note=74 velocity=118 time=0
note_off channel=10 note=74 velocity=118 time=0
note_off channel=10 note=74 velocity=118 time=0
note_off channel=10 note=62 velocity=118 time=0
note_off channel=10 note=62 velocity=118 time=0
note_off channel=10 note=62 velocity=118 time=0
note_off channel=10 note=62 velocity=118 time=0
note_off channel=10 note=62 velocity=118 time=0
note_on channel=10 note=74 velocity=118 time=93
note_on channel=10 note=74 velocity=118 time=2
note_on channel=10 note=74 velocity=118 time=0
note_on channel=10 note=74 velocity=118 time=0
note_on channel=10 note=74 velocity=118 time=0
note_on channel=10 note=62 velocity=118 time=0
note_on channel=10 note=62 velocity=118 time=0
note_on channel=10 note=62 velocity=118 time=0
note_on channel=10 note=62 velocity=118 time=0
note_on channel=10 note=62 velocity=118 time=0
note_off channel=10 note=74 velocity=118 time=384
note_off channel=10 note=74 velocity=118 time=0
note_off channel=10 note=74 velocity=118 time=0
note_off channel=10 note=74 velocity=118 time=0
note_off channel=10 note=74 velocity=118 time=0
note_off channel=10 note=62 velocity=118 time=0
note_off channel=10 note=62 velocity=118 time=0
note_off channel=10 note=62 velocity=118 time=0
note_off channel=10 note=62 velocity=118 time=0
note_off channel=10 note=62 velocity=118 time=0
note_on channel=10 note=71 velocity=118 time=24590
note_on channel=10 note=71 velocity=118 time=84
note_on channel=10 note=71 velocity=118 time=0
note_on channel=10 note=71 velocity=118 time=0
note_on channel=10 note=71 velocity=118 time=0
note_on channel=10 note=59 velocity=118 time=0
note_on channel=10 note=59 velocity=118 time=0
note_on channel=10 note=59 velocity=118 time=0
note_on channel=10 note=59 velocity=118 time=0
note_on channel=10 note=59 velocity=118 time=0
note_off channel=10 note=71 velocity=118 time=256
note_off channel=10 note=71 velocity=118 time=0
note_off channel=10 note=71 velocity=118 time=0
note_off channel=10 note=71 velocity=118 time=0
note_off channel=10 note=71 velocity=118 time=0
note_off channel=10 note=59 velocity=118 time=0
note_off channel=10 note=59 velocity=118 time=0
note_off channel=10 note=59 velocity=118 time=0
note_off channel=10 note=59 velocity=118 time=0
note_off channel=10 note=59 velocity=118 time=0
note_on channel=10 note=71 velocity=118 time=877
note_on channel=10 note=71 velocity=118 time=686
note_on channel=10 note=71 velocity=118 time=0
note_on channel=10 note=71 velocity=118 time=0
note_on channel=10 note=71 velocity=118 time=0
note_on channel=10 note=59 velocity=118 time=0
note_on channel=10 note=59 velocity=118 time=0
note_on channel=10 note=59 velocity=118 time=0
note_on channel=10 note=59 velocity=118 time=0
note_on channel=10 note=59 velocity=118 time=0
note_off channel=10 note=71 velocity=118 time=64
note_off channel=10 note=71 velocity=118 time=0
note_off channel=10 note=71 velocity=118 time=0
note_off channel=10 note=71 velocity=118 time=0
note_off channel=10 note=71 velocity=118 time=0
note_off channel=10 note=59 velocity=118 time=0
note_off channel=10 note=59 velocity=118 time=0
note_off channel=10 note=59 velocity=118 time=0
note_off channel=10 note=59 velocity=118 time=0
note_off channel=10 note=59 velocity=118 time=0
note_on channel=10 note=71 velocity=118 time=31
note_on channel=10 note=71 velocity=118 time=38
note_on channel=10 note=71 velocity=118 time=0
note_on channel=10 note=71 velocity=118 time=0
note_on channel=10 note=71 velocity=118 time=0
note_on channel=10 note=59 velocity=118 time=0
note_on channel=10 note=59 velocity=118 time=0
note_on channel=10 note=59 velocity=118 time=0
note_on channel=10 note=59 velocity=118 time=0
note_on channel=10 note=59 velocity=118 time=0
note_off channel=10 note=71 velocity=118 time=192
note_off channel=10 note=71 velocity=118 time=0
note_off channel=10 note=71 velocity=118 time=0
note_off channel=10 note=71 velocity=118 time=0
note_off channel=10 note=71 velocity=118 time=0
note_off channel=10 note=59 velocity=118 time=0
note_off channel=10 note=59 velocity=118 time=0
note_off channel=10 note=59 velocity=118 time=0
note_off channel=10 note=59 velocity=118 time=0
note_off channel=10 note=59 velocity=118 time=0
note_on channel=10 note=74 velocity=118 time=92
note_on channel=10 note=74 velocity=118 time=113
note_on channel=10 note=74 velocity=118 time=0
note_on channel=10 note=74 velocity=118 time=0
note_on channel=10 note=74 velocity=118 time=0
note_on channel=10 note=62 velocity=118 time=0
note_on channel=10 note=62 velocity=118 time=0
note_on channel=10 note=62 velocity=118 time=0
note_on channel=10 note=62 velocity=118 time=0
note_on channel=10 note=62 velocity=118 time=0
note_on channel=10 note=71 velocity=118 time=93
note_on channel=10 note=71 velocity=118 time=124
note_on channel=10 note=71 velocity=118 time=0
note_on channel=10 note=71 velocity=118 time=0
note_on channel=10 note=71 velocity=118 time=0
note_on channel=10 note=59 velocity=118 time=0
note_on channel=10 note=59 velocity=118 time=0
note_on channel=10 note=59 velocity=118 time=0
note_on channel=10 note=59 velocity=118 time=0
note_on channel=10 note=59 velocity=118 time=0
note_off channel=10 note=74 velocity=118 time=160
note_off channel=10 note=74 velocity=118 time=0
note_off channel=10 note=74 velocity=118 time=0
note_off channel=10 note=74 velocity=118 time=0
note_off channel=10 note=74 velocity=118 time=0
note_off channel=10 note=62 velocity=118 time=0
note_off channel=10 note=62 velocity=118 time=0
note_off channel=10 note=62 velocity=118 time=0
note_off channel=10 note=62 velocity=118 time=0
note_off channel=10 note=62 velocity=118 time=0
note_off channel=10 note=71 velocity=118 time=32
note_off channel=10 note=71 velocity=118 time=0
note_off channel=10 note=71 velocity=118 time=0
note_off channel=10 note=71 velocity=118 time=0
note_off channel=10 note=71 velocity=118 time=0
note_off channel=10 note=59 velocity=118 time=0
note_off channel=10 note=59 velocity=118 time=0
note_off channel=10 note=59 velocity=118 time=0
note_off channel=10 note=59 velocity=118 time=0
note_off channel=10 note=59 velocity=118 time=0
note_on channel=10 note=76 velocity=118 time=840
note_on channel=10 note=76 velocity=118 time=1847
note_on channel=10 note=76 velocity=118 time=0
note_on channel=10 note=76 velocity=118 time=0
note_on channel=10 note=76 velocity=118 time=0
note_on channel=10 note=64 velocity=118 time=0
note_on channel=10 note=64 velocity=118 time=0
note_on channel=10 note=64 velocity=118 time=0
note_on channel=10 note=64 velocity=118 time=0
note_on channel=10 note=64 velocity=118 time=0
note_off channel=10 note=76 velocity=118 time=64
note_off channel=10 note=76 velocity=118 time=0
note_off channel=10 note=76 velocity=118 time=0
note_off channel=10 note=76 velocity=118 time=0
note_off channel=10 note=76 velocity=118 time=0
note_off channel=10 note=64 velocity=118 time=0
note_off channel=10 note=64 velocity=118 time=0
note_off channel=10 note=64 velocity=118 time=0
note_off channel=10 note=64 velocity=118 time=0
note_off channel=10 note=64 velocity=118 time=0
note_on channel=10 note=76 velocity=118 time=31
note_on channel=10 note=76 velocity=118 time=15
note_on channel=10 note=76 velocity=118 time=0
note_on channel=10 note=76 velocity=118 time=0
note_on channel=10 note=76 velocity=118 time=0
note_on channel=10 note=64 velocity=118 time=0
note_on channel=10 note=64 velocity=118 time=0
note_on channel=10 note=64 velocity=118 time=0
note_on channel=10 note=64 velocity=118 time=0
note_on channel=10 note=64 velocity=118 time=0
note_off channel=10 note=76 velocity=118 time=192
note_off channel=10 note=76 velocity=118 time=0
note_off channel=10 note=76 velocity=118 time=0
note_off channel=10 note=76 velocity=118 time=0
note_off channel=10 note=76 velocity=118 time=0
note_off channel=10 note=64 velocity=118 time=0
note_off channel=10 note=64 velocity=118 time=0
note_off channel=10 note=64 velocity=118 time=0
note_off channel=10 note=64 velocity=118 time=0
note_off channel=10 note=64 velocity=118 time=0
note_on channel=10 note=71 velocity=118 time=96
note_on channel=10 note=71 velocity=118 time=18
note_on channel=10 note=71 velocity=118 time=0
note_on channel=10 note=71 velocity=118 time=0
note_on channel=10 note=71 velocity=118 time=0
note_on channel=10 note=59 velocity=118 time=0
note_on channel=10 note=59 velocity=118 time=0
note_on channel=10 note=59 velocity=118 time=0
note_on channel=10 note=59 velocity=118 time=0
note_on channel=10 note=59 velocity=118 time=0
note_off channel=10 note=71 velocity=118 time=256
note_off channel=10 note=71 velocity=118 time=0
note_off channel=10 note=71 velocity=118 time=0
note_off channel=10 note=71 velocity=118 time=0
note_off channel=10 note=71 velocity=118 time=0
note_off channel=10 note=59 velocity=118 time=0
note_off channel=10 note=59 velocity=118 time=0
note_off channel=10 note=59 velocity=118 time=0
note_off channel=10 note=59 velocity=118 time=0
note_off channel=10 note=59 velocity=118 time=0
note_on channel=10 note=71 velocity=118 time=899
note_on channel=10 note=71 velocity=118 time=633
note_on channel=10 note=71 velocity=118 time=0
note_on channel=10 note=71 velocity=118 time=0
note_on channel=10 note=71 velocity=118 time=0
note_on channel=10 note=59 velocity=118 time=0
note_on channel=10 note=59 velocity=118 time=0
note_on channel=10 note=59 velocity=118 time=0
note_on channel=10 note=59 velocity=118 time=0
note_on channel=10 note=59 velocity=118 time=0
note_off channel=10 note=71 velocity=118 time=64
note_off channel=10 note=71 velocity=118 time=0
note_off channel=10 note=71 velocity=118 time=0
note_off channel=10 note=71 velocity=118 time=0
note_off channel=10 note=71 velocity=118 time=0
note_off channel=10 note=59 velocity=118 time=0
note_off channel=10 note=59 velocity=118 time=0
note_off channel=10 note=59 velocity=118 time=0
note_off channel=10 note=59 velocity=118 time=0
note_off channel=10 note=59 velocity=118 time=0
note_on channel=10 note=71 velocity=118 time=31
note_on channel=10 note=71 velocity=118 time=39
note_on channel=10 note=71 velocity=118 time=0
note_on channel=10 note=71 velocity=118 time=0
note_on channel=10 note=71 velocity=118 time=0
note_on channel=10 note=59 velocity=118 time=0
note_on channel=10 note=59 velocity=118 time=0
note_on channel=10 note=59 velocity=118 time=0
note_on channel=10 note=59 velocity=118 time=0
note_on channel=10 note=59 velocity=118 time=0
note_off channel=10 note=71 velocity=118 time=192
note_off channel=10 note=71 velocity=118 time=0
note_off channel=10 note=71 velocity=118 time=0
note_off channel=10 note=71 velocity=118 time=0
note_off channel=10 note=71 velocity=118 time=0
note_off channel=10 note=59 velocity=118 time=0
note_off channel=10 note=59 velocity=118 time=0
note_off channel=10 note=59 velocity=118 time=0
note_off channel=10 note=59 velocity=118 time=0
note_off channel=10 note=59 velocity=118 time=0
note_on channel=10 note=74 velocity=118 time=95
note_on channel=10 note=74 velocity=118 time=134
note_on channel=10 note=74 velocity=118 time=0
note_on channel=10 note=74 velocity=118 time=0
note_on channel=10 note=74 velocity=118 time=0
note_on channel=10 note=62 velocity=118 time=0
note_on channel=10 note=62 velocity=118 time=0
note_on channel=10 note=62 velocity=118 time=0
note_on channel=10 note=62 velocity=118 time=0
note_on channel=10 note=62 velocity=118 time=0
note_off channel=10 note=74 velocity=118 time=256
note_off channel=10 note=74 velocity=118 time=0
note_off channel=10 note=74 velocity=118 time=0
note_off channel=10 note=74 velocity=118 time=0
note_off channel=10 note=74 velocity=118 time=0
note_off channel=10 note=62 velocity=118 time=0
note_off channel=10 note=62 velocity=118 time=0
note_off channel=10 note=62 velocity=118 time=0
note_off channel=10 note=62 velocity=118 time=0
note_off channel=10 note=62 velocity=118 time=0
note_on channel=10 note=69 velocity=118 time=1458
note_on channel=10 note=69 velocity=118 time=476
note_on channel=10 note=69 velocity=118 time=0
note_on channel=10 note=69 velocity=118 time=0
note_on channel=10 note=69 velocity=118 time=0
note_on channel=10 note=57 velocity=118 time=0
note_on channel=10 note=57 velocity=118 time=0
note_on channel=10 note=57 velocity=118 time=0
note_on channel=10 note=57 velocity=118 time=0
note_on channel=10 note=57 velocity=118 time=0
note_off channel=10 note=69 velocity=118 time=384
note_off channel=10 note=69 velocity=118 time=0
note_off channel=10 note=69 velocity=118 time=0
note_off channel=10 note=69 velocity=118 time=0
note_off channel=10 note=69 velocity=118 time=0
note_off channel=10 note=57 velocity=118 time=0
note_off channel=10 note=57 velocity=118 time=0
note_off channel=10 note=57 velocity=118 time=0
note_off channel=10 note=57 velocity=118 time=0
note_off channel=10 note=57 velocity=118 time=0
note_on channel=10 note=71 velocity=118 time=0
note_on channel=10 note=71 velocity=118 time=0
note_on channel=10 note=71 velocity=118 time=0
note_on channel=10 note=71 velocity=118 time=0
note_on channel=10 note=71 velocity=118 time=0
note_on channel=10 note=59 velocity=118 time=0
note_on channel=10 note=59 velocity=118 time=0
note_on channel=10 note=59 velocity=118 time=0
note_on channel=10 note=59 velocity=118 time=0
note_on channel=10 note=59 velocity=118 time=0
note_off channel=10 note=71 velocity=118 time=128
note_off channel=10 note=71 velocity=118 time=0
note_off channel=10 note=71 velocity=118 time=0
note_off channel=10 note=71 velocity=118 time=0
note_off channel=10 note=71 velocity=118 time=0
note_off channel=10 note=59 velocity=118 time=0
note_off channel=10 note=59 velocity=118 time=0
note_off channel=10 note=59 velocity=118 time=0
note_off channel=10 note=59 velocity=118 time=0
note_off channel=10 note=59 velocity=118 time=0
note_on channel=10 note=73 velocity=118 time=63
note_on channel=10 note=73 velocity=118 time=45
note_on channel=10 note=73 velocity=118 time=0
note_on channel=10 note=73 velocity=118 time=0
note_on channel=10 note=73 velocity=118 time=0
note_on channel=10 note=61 velocity=118 time=0
note_on channel=10 note=61 velocity=118 time=0
note_on channel=10 note=61 velocity=118 time=0
note_on channel=10 note=61 velocity=118 time=0
note_on channel=10 note=61 velocity=118 time=0
note_off channel=10 note=73 velocity=118 time=192
note_off channel=10 note=73 velocity=118 time=0
note_off channel=10 note=73 velocity=118 time=0
note_off channel=10 note=73 velocity=118 time=0
note_off channel=10 note=73 velocity=118 time=0
note_off channel=10 note=61 velocity=118 time=0
note_off channel=10 note=61 velocity=118 time=0
note_off channel=10 note=61 velocity=118 time=0
note_off channel=10 note=61 velocity=118 time=0
note_off channel=10 note=61 velocity=118 time=0
note_on channel=10 note=71 velocity=118 time=94
note_on channel=10 note=71 velocity=118 time=67
note_on channel=10 note=71 velocity=118 time=0
note_on channel=10 note=71 velocity=118 time=0
note_on channel=10 note=71 velocity=118 time=0
note_on channel=10 note=59 velocity=118 time=0
note_on channel=10 note=59 velocity=118 time=0
note_on channel=10 note=59 velocity=118 time=0
note_on channel=10 note=59 velocity=118 time=0
note_on channel=10 note=59 velocity=118 time=0
note_off channel=10 note=71 velocity=118 time=128
note_off channel=10 note=71 velocity=118 time=0
note_off channel=10 note=71 velocity=118 time=0
note_off channel=10 note=71 velocity=118 time=0
note_off channel=10 note=71 velocity=118 time=0
note_off channel=10 note=59 velocity=118 time=0
note_off channel=10 note=59 velocity=118 time=0
note_off channel=10 note=59 velocity=118 time=0
note_off channel=10 note=59 velocity=118 time=0
note_off channel=10 note=59 velocity=118 time=0
note_on channel=10 note=73 velocity=118 time=157
note_on channel=10 note=73 velocity=118 time=43
note_on channel=10 note=73 velocity=118 time=0
note_on channel=10 note=73 velocity=118 time=0
note_on channel=10 note=73 velocity=118 time=0
note_on channel=10 note=61 velocity=118 time=0
note_on channel=10 note=61 velocity=118 time=0
note_on channel=10 note=61 velocity=118 time=0
note_on channel=10 note=61 velocity=118 time=0
note_on channel=10 note=61 velocity=118 time=0
note_off channel=10 note=73 velocity=118 time=128
note_off channel=10 note=73 velocity=118 time=0
note_off channel=10 note=73 velocity=118 time=0
note_off channel=10 note=73 velocity=118 time=0
note_off channel=10 note=73 velocity=118 time=0
note_off channel=10 note=61 velocity=118 time=0
note_off channel=10 note=61 velocity=118 time=0
note_off channel=10 note=61 velocity=118 time=0
note_off channel=10 note=61 velocity=118 time=0
note_off channel=10 note=61 velocity=118 time=0
note_on channel=10 note=69 velocity=118 time=252
note_on channel=10 note=69 velocity=118 time=168
note_on channel=10 note=69 velocity=118 time=0
note_on channel=10 note=69 velocity=118 time=0
note_on channel=10 note=69 velocity=118 time=0
note_on channel=10 note=57 velocity=118 time=0
note_on channel=10 note=57 velocity=118 time=0
note_on channel=10 note=57 velocity=118 time=0
note_on channel=10 note=57 velocity=118 time=0
note_on channel=10 note=57 velocity=118 time=0
note_off channel=10 note=69 velocity=118 time=384
note_off channel=10 note=69 velocity=118 time=0
note_off channel=10 note=69 velocity=118 time=0
note_off channel=10 note=69 velocity=118 time=0
note_off channel=10 note=69 velocity=118 time=0
note_off channel=10 note=57 velocity=118 time=0
note_off channel=10 note=57 velocity=118 time=0
note_off channel=10 note=57 velocity=118 time=0
note_off channel=10 note=57 velocity=118 time=0
note_off channel=10 note=57 velocity=118 time=0
note_on channel=10 note=71 velocity=118 time=0
note_on channel=10 note=71 velocity=118 time=0
note_on channel=10 note=71 velocity=118 time=0
note_on channel=10 note=71 velocity=118 time=0
note_on channel=10 note=71 velocity=118 time=0
note_on channel=10 note=59 velocity=118 time=0
note_on channel=10 note=59 velocity=118 time=0
note_on channel=10 note=59 velocity=118 time=0
note_on channel=10 note=59 velocity=118 time=0
note_on channel=10 note=59 velocity=118 time=0
note_off channel=10 note=71 velocity=118 time=128
note_off channel=10 note=71 velocity=118 time=0
note_off channel=10 note=71 velocity=118 time=0
note_off channel=10 note=71 velocity=118 time=0
note_off channel=10 note=71 velocity=118 time=0
note_off channel=10 note=59 velocity=118 time=0
note_off channel=10 note=59 velocity=118 time=0
note_off channel=10 note=59 velocity=118 time=0
note_off channel=10 note=59 velocity=118 time=0
note_off channel=10 note=59 velocity=118 time=0
note_on channel=10 note=73 velocity=118 time=62
note_on channel=10 note=73 velocity=118 time=57
note_on channel=10 note=73 velocity=118 time=0
note_on channel=10 note=73 velocity=118 time=0
note_on channel=10 note=73 velocity=118 time=0
note_on channel=10 note=61 velocity=118 time=0
note_on channel=10 note=61 velocity=118 time=0
note_on channel=10 note=61 velocity=118 time=0
note_on channel=10 note=61 velocity=118 time=0
note_on channel=10 note=61 velocity=118 time=0
note_off channel=10 note=73 velocity=118 time=192
note_off channel=10 note=73 velocity=118 time=0
note_off channel=10 note=73 velocity=118 time=0
note_off channel=10 note=73 velocity=118 time=0
note_off channel=10 note=73 velocity=118 time=0
note_off channel=10 note=61 velocity=118 time=0
note_off channel=10 note=61 velocity=118 time=0
note_off channel=10 note=61 velocity=118 time=0
note_off channel=10 note=61 velocity=118 time=0
note_off channel=10 note=61 velocity=118 time=0
note_on channel=10 note=71 velocity=118 time=94
note_on channel=10 note=71 velocity=118 time=62
note_on channel=10 note=71 velocity=118 time=0
note_on channel=10 note=71 velocity=118 time=0
note_on channel=10 note=71 velocity=118 time=0
note_on channel=10 note=59 velocity=118 time=0
note_on channel=10 note=59 velocity=118 time=0
note_on channel=10 note=59 velocity=118 time=0
note_on channel=10 note=59 velocity=118 time=0
note_on channel=10 note=59 velocity=118 time=0
note_off channel=10 note=71 velocity=118 time=128
note_off channel=10 note=71 velocity=118 time=0
note_off channel=10 note=71 velocity=118 time=0
note_off channel=10 note=71 velocity=118 time=0
note_off channel=10 note=71 velocity=118 time=0
note_off channel=10 note=59 velocity=118 time=0
note_off channel=10 note=59 velocity=118 time=0
note_off channel=10 note=59 velocity=118 time=0
note_off channel=10 note=59 velocity=118 time=0
note_off channel=10 note=59 velocity=118 time=0
note_on channel=10 note=73 velocity=118 time=62
note_on channel=10 note=73 velocity=118 time=11
note_on channel=10 note=73 velocity=118 time=0
note_on channel=10 note=73 velocity=118 time=0
note_on channel=10 note=73 velocity=118 time=0
note_on channel=10 note=61 velocity=118 time=0
note_on channel=10 note=61 velocity=118 time=0
note_on channel=10 note=61 velocity=118 time=0
note_on channel=10 note=61 velocity=118 time=0
note_on channel=10 note=61 velocity=118 time=0
note_off channel=10 note=73 velocity=118 time=64
note_off channel=10 note=73 velocity=118 time=0
note_off channel=10 note=73 velocity=118 time=0
note_off channel=10 note=73 velocity=118 time=0
note_off channel=10 note=73 velocity=118 time=0
note_off channel=10 note=61 velocity=118 time=0
note_off channel=10 note=61 velocity=118 time=0
note_off channel=10 note=61 velocity=118 time=0
note_off channel=10 note=61 velocity=118 time=0
note_off channel=10 note=61 velocity=118 time=0
note_on channel=10 note=73 velocity=118 time=31
note_on channel=10 note=73 velocity=118 time=6
note_on channel=10 note=73 velocity=118 time=0
note_on channel=10 note=73 velocity=118 time=0
note_on channel=10 note=73 velocity=118 time=0
note_on channel=10 note=61 velocity=118 time=0
note_on channel=10 note=61 velocity=118 time=0
note_on channel=10 note=61 velocity=118 time=0
note_on channel=10 note=61 velocity=118 time=0
note_on channel=10 note=61 velocity=118 time=0
note_off channel=10 note=73 velocity=118 time=128
note_off channel=10 note=73 velocity=118 time=0
note_off channel=10 note=73 velocity=118 time=0
note_off channel=10 note=73 velocity=118 time=0
note_off channel=10 note=73 velocity=118 time=0
note_off channel=10 note=61 velocity=118 time=0
note_off channel=10 note=61 velocity=118 time=0
note_off channel=10 note=61 velocity=118 time=0
note_off channel=10 note=61 velocity=118 time=0
note_off channel=10 note=61 velocity=118 time=0
note_on channel=10 note=74 velocity=118 time=62
note_on channel=10 note=74 velocity=118 time=39
note_on channel=10 note=74 velocity=118 time=0
note_on channel=10 note=74 velocity=118 time=0
note_on channel=10 note=74 velocity=118 time=0
note_on channel=10 note=62 velocity=118 time=0
note_on channel=10 note=62 velocity=118 time=0
note_on channel=10 note=62 velocity=118 time=0
note_on channel=10 note=62 velocity=118 time=0
note_on channel=10 note=62 velocity=118 time=0
note_off channel=10 note=74 velocity=118 time=64
note_off channel=10 note=74 velocity=118 time=0
note_off channel=10 note=74 velocity=118 time=0
note_off channel=10 note=74 velocity=118 time=0
note_off channel=10 note=74 velocity=118 time=0
note_off channel=10 note=62 velocity=118 time=0
note_off channel=10 note=62 velocity=118 time=0
note_off channel=10 note=62 velocity=118 time=0
note_off channel=10 note=62 velocity=118 time=0
note_off channel=10 note=62 velocity=118 time=0
note_on channel=10 note=74 velocity=118 time=31
note_on channel=10 note=74 velocity=118 time=32
note_on channel=10 note=74 velocity=118 time=0
note_on channel=10 note=74 velocity=118 time=0
note_on channel=10 note=74 velocity=118 time=0
note_on channel=10 note=62 velocity=118 time=0
note_on channel=10 note=62 velocity=118 time=0
note_on channel=10 note=62 velocity=118 time=0
note_on channel=10 note=62 velocity=118 time=0
note_on channel=10 note=62 velocity=118 time=0
note_off channel=10 note=74 velocity=118 time=128
note_off channel=10 note=74 velocity=118 time=0
note_off channel=10 note=74 velocity=118 time=0
note_off channel=10 note=74 velocity=118 time=0
note_off channel=10 note=74 velocity=118 time=0
note_off channel=10 note=62 velocity=118 time=0
note_off channel=10 note=62 velocity=118 time=0
note_off channel=10 note=62 velocity=118 time=0
note_off channel=10 note=62 velocity=118 time=0
note_off channel=10 note=62 velocity=118 time=0
note_on channel=10 note=74 velocity=118 time=63
note_on channel=10 note=74 velocity=118 time=87
note_on channel=10 note=74 velocity=118 time=0
note_on channel=10 note=74 velocity=118 time=0
note_on channel=10 note=74 velocity=118 time=0
note_on channel=10 note=62 velocity=118 time=0
note_on channel=10 note=62 velocity=118 time=0
note_on channel=10 note=62 velocity=118 time=0
note_on channel=10 note=62 velocity=118 time=0
note_on channel=10 note=62 velocity=118 time=0
note_off channel=10 note=74 velocity=118 time=256
note_off channel=10 note=74 velocity=118 time=0
note_off channel=10 note=74 velocity=118 time=0
note_off channel=10 note=74 velocity=118 time=0
note_off channel=10 note=74 velocity=118 time=0
note_off channel=10 note=62 velocity=118 time=0
note_off channel=10 note=62 velocity=118 time=0
note_off channel=10 note=62 velocity=118 time=0
note_off channel=10 note=62 velocity=118 time=0
note_off channel=10 note=62 velocity=118 time=0
note_on channel=10 note=74 velocity=118 time=692
note_on channel=10 note=74 velocity=118 time=554
note_on channel=10 note=74 velocity=118 time=0
note_on channel=10 note=74 velocity=118 time=0
note_on channel=10 note=74 velocity=118 time=0
note_on channel=10 note=62 velocity=118 time=0
note_on channel=10 note=62 velocity=118 time=0
note_on channel=10 note=62 velocity=118 time=0
note_on channel=10 note=62 velocity=118 time=0
note_on channel=10 note=62 velocity=118 time=0
note_off channel=10 note=74 velocity=118 time=64
note_off channel=10 note=74 velocity=118 time=0
note_off channel=10 note=74 velocity=118 time=0
note_off channel=10 note=74 velocity=118 time=0
note_off channel=10 note=74 velocity=118 time=0
note_off channel=10 note=62 velocity=118 time=0
note_off channel=10 note=62 velocity=118 time=0
note_off channel=10 note=62 velocity=118 time=0
note_off channel=10 note=62 velocity=118 time=0
note_off channel=10 note=62 velocity=118 time=0
note_on channel=10 note=74 velocity=118 time=31
note_on channel=10 note=74 velocity=118 time=19
note_on channel=10 note=74 velocity=118 time=0
note_on channel=10 note=74 velocity=118 time=0
note_on channel=10 note=74 velocity=118 time=0
note_on channel=10 note=62 velocity=118 time=0
note_on channel=10 note=62 velocity=118 time=0
note_on channel=10 note=62 velocity=118 time=0
note_on channel=10 note=62 velocity=118 time=0
note_on channel=10 note=62 velocity=118 time=0
note_off channel=10 note=74 velocity=118 time=128
note_off channel=10 note=74 velocity=118 time=0
note_off channel=10 note=74 velocity=118 time=0
note_off channel=10 note=74 velocity=118 time=0
note_off channel=10 note=74 velocity=118 time=0
note_off channel=10 note=62 velocity=118 time=0
note_off channel=10 note=62 velocity=118 time=0
note_off channel=10 note=62 velocity=118 time=0
note_off channel=10 note=62 velocity=118 time=0
note_off channel=10 note=62 velocity=118 time=0
note_on channel=10 note=76 velocity=118 time=13391
note_off channel=10 note=76 velocity=118 time=64
note_on channel=10 note=76 velocity=118 time=1052
note_off channel=10 note=76 velocity=118 time=192
note_on channel=10 note=69 velocity=118 time=264
note_on channel=10 note=71 velocity=118 time=137
note_off channel=10 note=71 velocity=118 time=128
note_on channel=10 note=75 velocity=118 time=205
note_off channel=10 note=69 velocity=118 time=192
note_off channel=10 note=75 velocity=118 time=0
note_on channel=10 note=71 velocity=118 time=233
note_off channel=10 note=71 velocity=118 time=192
note_on channel=10 note=75 velocity=118 time=335
note_off channel=10 note=75 velocity=118 time=128
note_on channel=10 note=69 velocity=118 time=500
note_on channel=10 note=71 velocity=118 time=826
note_off channel=10 note=71 velocity=118 time=128
note_on channel=10 note=75 velocity=118 time=408
note_off channel=10 note=69 velocity=118 time=192
note_off channel=10 note=75 velocity=118 time=0
note_on channel=10 note=71 velocity=118 time=198
note_off channel=10 note=71 velocity=118 time=192
note_on channel=10 note=75 velocity=118 time=273
note_off channel=10 note=75 velocity=118 time=128
note_on channel=10 note=79 velocity=118 time=421
note_on channel=10 note=76 velocity=118 time=580
note_off channel=10 note=76 velocity=118 time=128
note_on channel=10 note=76 velocity=118 time=125
note_off channel=10 note=79 velocity=118 time=192
note_off channel=10 note=76 velocity=118 time=0
note_on channel=10 note=76 velocity=118 time=60
note_off channel=10 note=76 velocity=118 time=192
note_on channel=10 note=76 velocity=118 time=81
note_off channel=10 note=76 velocity=118 time=128
note_on channel=10 note=79 velocity=118 time=298
note_on channel=10 note=76 velocity=118 time=756
note_off channel=10 note=76 velocity=118 time=128
note_on channel=10 note=76 velocity=118 time=624
note_off channel=10 note=79 velocity=118 time=192
note_off channel=10 note=76 velocity=118 time=0
ge end_of_track time=0>
<meta message key_signature key='C' time=0>
<meta message end_of_track time=0>
<meta message key_signature key='C' time=0>
<meta message end_of_track time=0>
control_change channel=1 control=0 value=0 time=0
program_change channel=1 program=29 time=0
control_change channel=1 control=10 value=31 time=0
control_change channel=1 control=91 value=15 time=0
control_change channel=1 control=93 value=80 time=0
<meta message key_signature key='C' time=0>
<meta message end_of_track time=0>
<meta message key_signature key='C' time=0>
<meta message end_of_track time=0>
<meta message key_signature key='C' time=0>
<meta message end_of_track time=0>
